<?xml version="1.0" encoding="UTF-8" standalone="no"?>
<!DOCTYPE svg PUBLIC "-//W3C//DTD SVG 1.1//EN"
 "http://www.w3.org/Graphics/SVG/1.1/DTD/svg11.dtd">
<!-- Generated by graphviz version 3.0.0 (20220226.1711)
 -->
<!-- Title: libccc/math/algebra.h Pages: 1 -->
<!--zoomable 554 -->
<svg id="main" version="1.1" xmlns="http://www.w3.org/2000/svg" xmlns:xlink="http://www.w3.org/1999/xlink" xml:space="preserve" onload="init(evt)">
<style type="text/css"><![CDATA[
.edge:hover path { stroke: red; }
.edge:hover polygon { stroke: red; fill: red; }
]]></style>
<script type="text/javascript"><![CDATA[
var edges = document.getElementsByTagName('g');
if (edges && edges.length) {
  for (var i=0;i<edges.length;i++) {
    if (edges[i].id.substr(0,4)=='edge') {
      edges[i].setAttribute('class','edge');
    }
  }
}
]]></script>
        <defs>
                <circle id="rim" cx="0" cy="0" r="7"/>
                <circle id="rim2" cx="0" cy="0" r="3.5"/>
                <g id="zoomPlus">
                        <use xlink:href="#rim" fill="#404040">
                                <set attributeName="fill" to="#808080" begin="zoomplus.mouseover" end="zoomplus.mouseout"/>
                        </use>
                        <path d="M-4,0h8M0,-4v8" fill="none" stroke="white" stroke-width="1.5" pointer-events="none"/>
                </g>
                <g id="zoomMin">
                        <use xlink:href="#rim" fill="#404040">
                                <set attributeName="fill" to="#808080" begin="zoomminus.mouseover" end="zoomminus.mouseout"/>
                        </use>
                        <path d="M-4,0h8" fill="none" stroke="white" stroke-width="1.5" pointer-events="none"/>
                </g>
                <g id="dirArrow">
                        <path fill="none" stroke="white" stroke-width="1.5" d="M0,-3.0v7 M-2.5,-0.5L0,-3.0L2.5,-0.5"/>
                </g>
               <g id="resetDef">
                       <use xlink:href="#rim2" fill="#404040">
                               <set attributeName="fill" to="#808080" begin="reset.mouseover" end="reset.mouseout"/>
                       </use>
               </g>
        </defs>

<script type="text/javascript">
var viewWidth = 413;
var viewHeight = 554;
var sectionId = 'dynsection-0';
</script>
<script xlink:href="svgpan.js"/>
<svg id="graph" class="graph">
<g id="viewport">
<title>libccc/math/algebra.h</title>
<polygon fill="white" stroke="transparent" points="-4,4 -4,-550 409.12,-550 409.12,4 -4,4"/>
<!-- Node1 -->
<g id="node1" class="node">
<title>Node1</title>
<g id="a_node1"><a xlink:title=" ">
<polygon fill="#bfbfbf" stroke="black" points="182.11,-526.5 182.11,-545.5 292.11,-545.5 292.11,-526.5 182.11,-526.5"/>
<text text-anchor="middle" x="237.11" y="-533.5" font-family="Consolas" font-size="10.00">libccc/math/algebra.h</text>
</a>
</g>
</g>
<!-- Node2 -->
<g id="node2" class="node">
<title>Node2</title>
<g id="a_node2"><a xlink:href="vector_8h.html" target="_top" xlink:title=" ">
<polygon fill="white" stroke="black" points="186.61,-392.5 186.61,-422.5 287.61,-422.5 287.61,-392.5 186.61,-392.5"/>
<text text-anchor="start" x="194.61" y="-410.5" font-family="Consolas" font-size="10.00">libccc/math/algebra</text>
<text text-anchor="middle" x="237.11" y="-399.5" font-family="Consolas" font-size="10.00">/vector.h</text>
</a>
</g>
</g>
<!-- Node1&#45;&gt;Node2 -->
<g id="edge1" class="edge">
<title>Node1&#45;&gt;Node2</title>
<path fill="none" stroke="midnightblue" d="M237.11,-526.31C237.11,-507.3 237.11,-461.47 237.11,-432.9"/>
<polygon fill="midnightblue" stroke="midnightblue" points="240.61,-432.89 237.11,-422.89 233.61,-432.89 240.61,-432.89"/>
</g>
<!-- Node16 -->
<g id="node16" class="node">
<title>Node16</title>
<g id="a_node16"><a xlink:href="matrix_8h.html" target="_top" xlink:title=" ">
<polygon fill="white" stroke="black" points="107.61,-459.5 107.61,-489.5 208.61,-489.5 208.61,-459.5 107.61,-459.5"/>
<text text-anchor="start" x="115.61" y="-477.5" font-family="Consolas" font-size="10.00">libccc/math/algebra</text>
<text text-anchor="middle" x="158.11" y="-466.5" font-family="Consolas" font-size="10.00">/matrix.h</text>
</a>
</g>
</g>
<!-- Node1&#45;&gt;Node16 -->
<g id="edge22" class="edge">
<title>Node1&#45;&gt;Node16</title>
<path fill="none" stroke="midnightblue" d="M225.8,-526.48C215.2,-518.49 198.95,-506.25 185.03,-495.77"/>
<polygon fill="midnightblue" stroke="midnightblue" points="186.83,-492.74 176.73,-489.52 182.62,-498.33 186.83,-492.74"/>
</g>
<!-- Node17 -->
<g id="node17" class="node">
<title>Node17</title>
<g id="a_node17"><a xlink:href="interval_8h.html" target="_top" xlink:title=" ">
<polygon fill="white" stroke="black" points="265.61,-459.5 265.61,-489.5 366.61,-489.5 366.61,-459.5 265.61,-459.5"/>
<text text-anchor="start" x="273.61" y="-477.5" font-family="Consolas" font-size="10.00">libccc/math/algebra</text>
<text text-anchor="middle" x="316.11" y="-466.5" font-family="Consolas" font-size="10.00">/interval.h</text>
</a>
</g>
</g>
<!-- Node1&#45;&gt;Node17 -->
<g id="edge28" class="edge">
<title>Node1&#45;&gt;Node17</title>
<path fill="none" stroke="midnightblue" d="M248.43,-526.48C259.03,-518.49 275.28,-506.25 289.2,-495.77"/>
<polygon fill="midnightblue" stroke="midnightblue" points="291.61,-498.33 297.5,-489.52 287.4,-492.74 291.61,-498.33"/>
</g>
<!-- Node3 -->
<g id="node3" class="node">
<title>Node3</title>
<g id="a_node3"><a xlink:href="bool_8h.html" target="_top" xlink:title=" ">
<polygon fill="white" stroke="black" points="94.61,-336.5 94.61,-355.5 165.61,-355.5 165.61,-336.5 94.61,-336.5"/>
<text text-anchor="middle" x="130.11" y="-343.5" font-family="Consolas" font-size="10.00">libccc/bool.h</text>
</a>
</g>
</g>
<!-- Node2&#45;&gt;Node3 -->
<g id="edge2" class="edge">
<title>Node2&#45;&gt;Node3</title>
<path fill="none" stroke="midnightblue" d="M211.76,-392.4C194.45,-382.77 171.64,-370.09 154.53,-360.58"/>
<polygon fill="midnightblue" stroke="midnightblue" points="156.12,-357.46 145.68,-355.66 152.72,-363.58 156.12,-357.46"/>
</g>
<!-- Node12 -->
<g id="node12" class="node">
<title>Node12</title>
<g id="a_node12"><a xlink:href="int_8h.html" target="_top" xlink:title=" ">
<polygon fill="white" stroke="black" points="12.11,-336.5 12.11,-355.5 76.11,-355.5 76.11,-336.5 12.11,-336.5"/>
<text text-anchor="middle" x="44.11" y="-343.5" font-family="Consolas" font-size="10.00">libccc/int.h</text>
</a>
</g>
</g>
<!-- Node2&#45;&gt;Node12 -->
<g id="edge15" class="edge">
<title>Node2&#45;&gt;Node12</title>
<path fill="none" stroke="midnightblue" d="M191.38,-392.4C157.88,-382.07 112.98,-368.23 81.6,-358.56"/>
<polygon fill="midnightblue" stroke="midnightblue" points="82.5,-355.17 71.92,-355.57 80.44,-361.86 82.5,-355.17"/>
</g>
<!-- Node14 -->
<g id="node14" class="node">
<title>Node14</title>
<g id="a_node14"><a xlink:href="float_8h.html" target="_top" xlink:title=" ">
<polygon fill="white" stroke="black" points="222.11,-280.5 222.11,-299.5 294.11,-299.5 294.11,-280.5 222.11,-280.5"/>
<text text-anchor="middle" x="258.11" y="-287.5" font-family="Consolas" font-size="10.00">libccc/float.h</text>
</a>
</g>
</g>
<!-- Node2&#45;&gt;Node14 -->
<g id="edge18" class="edge">
<title>Node2&#45;&gt;Node14</title>
<path fill="none" stroke="midnightblue" d="M239.69,-392.34C243.47,-371.53 250.54,-332.66 254.74,-309.58"/>
<polygon fill="midnightblue" stroke="midnightblue" points="258.19,-310.13 256.54,-299.67 251.31,-308.88 258.19,-310.13"/>
</g>
<!-- Node15 -->
<g id="node15" class="node">
<title>Node15</title>
<g id="a_node15"><a xlink:href="math_2float_8h.html" target="_top" xlink:title=" ">
<polygon fill="white" stroke="black" points="285.61,-336.5 285.61,-355.5 382.61,-355.5 382.61,-336.5 285.61,-336.5"/>
<text text-anchor="middle" x="334.11" y="-343.5" font-family="Consolas" font-size="10.00">libccc/math/float.h</text>
</a>
</g>
</g>
<!-- Node2&#45;&gt;Node15 -->
<g id="edge20" class="edge">
<title>Node2&#45;&gt;Node15</title>
<path fill="none" stroke="midnightblue" d="M260.1,-392.4C275.51,-382.95 295.71,-370.56 311.11,-361.11"/>
<polygon fill="midnightblue" stroke="midnightblue" points="313.31,-363.87 320,-355.66 309.65,-357.9 313.31,-363.87"/>
</g>
<!-- Node4 -->
<g id="node4" class="node">
<title>Node4</title>
<g id="a_node4"><a xlink:href="libccc_8h.html" target="_top" xlink:title=" ">
<polygon fill="white" stroke="black" points="95.11,-224.5 95.11,-243.5 145.11,-243.5 145.11,-224.5 95.11,-224.5"/>
<text text-anchor="middle" x="120.11" y="-231.5" font-family="Consolas" font-size="10.00">libccc.h</text>
</a>
</g>
</g>
<!-- Node3&#45;&gt;Node4 -->
<g id="edge3" class="edge">
<title>Node3&#45;&gt;Node4</title>
<path fill="none" stroke="midnightblue" d="M129.33,-336.37C127.72,-318.62 123.99,-277.67 121.81,-253.6"/>
<polygon fill="midnightblue" stroke="midnightblue" points="125.29,-253.23 120.9,-243.59 118.32,-253.87 125.29,-253.23"/>
</g>
<!-- Node11 -->
<g id="node11" class="node">
<title>Node11</title>
<g id="a_node11"><a xlink:title=" ">
<polygon fill="white" stroke="#bfbfbf" points="148.11,-280.5 148.11,-299.5 204.11,-299.5 204.11,-280.5 148.11,-280.5"/>
<text text-anchor="middle" x="176.11" y="-287.5" font-family="Consolas" font-size="10.00">stdbool.h</text>
</a>
</g>
</g>
<!-- Node3&#45;&gt;Node11 -->
<g id="edge14" class="edge">
<title>Node3&#45;&gt;Node11</title>
<path fill="none" stroke="midnightblue" d="M137.71,-336.08C144.34,-328.3 154.14,-316.8 162.17,-307.37"/>
<polygon fill="midnightblue" stroke="midnightblue" points="164.84,-309.63 168.66,-299.75 159.51,-305.09 164.84,-309.63"/>
</g>
<!-- Node5 -->
<g id="node5" class="node">
<title>Node5</title>
<g id="a_node5"><a xlink:href="libccc__define_8h.html" target="_top" xlink:title=" ">
<polygon fill="white" stroke="black" points="45.11,-56.5 45.11,-75.5 127.11,-75.5 127.11,-56.5 45.11,-56.5"/>
<text text-anchor="middle" x="86.11" y="-63.5" font-family="Consolas" font-size="10.00">libccc_define.h</text>
</a>
</g>
</g>
<!-- Node4&#45;&gt;Node5 -->
<g id="edge4" class="edge">
<title>Node4&#45;&gt;Node5</title>
<path fill="none" stroke="midnightblue" d="M101.99,-224.37C74.07,-209.88 21.8,-177.7 3.11,-132 -0.25,-123.77 -1.43,-119.64 3.11,-112 12.21,-96.72 28.5,-86.31 44.26,-79.39"/>
<polygon fill="midnightblue" stroke="midnightblue" points="45.95,-82.48 53.93,-75.51 43.35,-75.98 45.95,-82.48"/>
</g>
<!-- Node7 -->
<g id="node7" class="node">
<title>Node7</title>
<g id="a_node7"><a xlink:href="libccc__errors_8h.html" target="_top" xlink:title=" ">
<polygon fill="white" stroke="black" points="12.11,-112.5 12.11,-131.5 92.11,-131.5 92.11,-112.5 12.11,-112.5"/>
<text text-anchor="middle" x="52.11" y="-119.5" font-family="Consolas" font-size="10.00">libccc_errors.h</text>
</a>
</g>
</g>
<!-- Node4&#45;&gt;Node7 -->
<g id="edge6" class="edge">
<title>Node4&#45;&gt;Node7</title>
<path fill="none" stroke="midnightblue" d="M106.69,-224.23C95.33,-216.13 79.45,-203.1 70.11,-188 61.35,-173.84 56.77,-155.36 54.43,-141.72"/>
<polygon fill="midnightblue" stroke="midnightblue" points="57.86,-141 52.95,-131.61 50.94,-142.01 57.86,-141"/>
</g>
<!-- Node8 -->
<g id="node8" class="node">
<title>Node8</title>
<g id="a_node8"><a xlink:href="libccc__config_8h.html" target="_top" xlink:title=" ">
<polygon fill="white" stroke="black" points="79.11,-168.5 79.11,-187.5 161.11,-187.5 161.11,-168.5 79.11,-168.5"/>
<text text-anchor="middle" x="120.11" y="-175.5" font-family="Consolas" font-size="10.00">libccc_config.h</text>
</a>
</g>
</g>
<!-- Node4&#45;&gt;Node8 -->
<g id="edge8" class="edge">
<title>Node4&#45;&gt;Node8</title>
<path fill="none" stroke="midnightblue" d="M120.11,-224.08C120.11,-217.01 120.11,-206.86 120.11,-197.99"/>
<polygon fill="midnightblue" stroke="midnightblue" points="123.61,-197.75 120.11,-187.75 116.61,-197.75 123.61,-197.75"/>
</g>
<!-- Node9 -->
<g id="node9" class="node">
<title>Node9</title>
<g id="a_node9"><a xlink:href="libccc__naming_8h.html" target="_top" xlink:title=" ">
<polygon fill="white" stroke="black" points="148.61,-112.5 148.61,-131.5 235.61,-131.5 235.61,-112.5 148.61,-112.5"/>
<text text-anchor="middle" x="192.11" y="-119.5" font-family="Consolas" font-size="10.00">libccc_naming.h</text>
</a>
</g>
</g>
<!-- Node4&#45;&gt;Node9 -->
<g id="edge11" class="edge">
<title>Node4&#45;&gt;Node9</title>
<path fill="none" stroke="midnightblue" d="M132.89,-224.42C144.14,-216.26 160.23,-203.02 170.11,-188 179.43,-173.85 185.18,-155.37 188.46,-141.73"/>
<polygon fill="midnightblue" stroke="midnightblue" points="191.95,-142.13 190.65,-131.61 185.11,-140.65 191.95,-142.13"/>
</g>
<!-- Node10 -->
<g id="node10" class="node">
<title>Node10</title>
<g id="a_node10"><a xlink:title=" ">
<polygon fill="white" stroke="#bfbfbf" points="217.61,-168.5 217.61,-187.5 264.61,-187.5 264.61,-168.5 217.61,-168.5"/>
<text text-anchor="middle" x="241.11" y="-175.5" font-family="Consolas" font-size="10.00">math.h</text>
</a>
</g>
</g>
<!-- Node4&#45;&gt;Node10 -->
<g id="edge13" class="edge">
<title>Node4&#45;&gt;Node10</title>
<path fill="none" stroke="midnightblue" d="M139.29,-224.44C159.02,-215.64 190,-201.81 212.61,-191.72"/>
<polygon fill="midnightblue" stroke="midnightblue" points="214.33,-194.79 222.03,-187.52 211.47,-188.4 214.33,-194.79"/>
</g>
<!-- Node6 -->
<g id="node6" class="node">
<title>Node6</title>
<g id="a_node6"><a xlink:title=" ">
<polygon fill="white" stroke="#bfbfbf" points="56.61,-0.5 56.61,-19.5 115.61,-19.5 115.61,-0.5 56.61,-0.5"/>
<text text-anchor="middle" x="86.11" y="-7.5" font-family="Consolas" font-size="10.00">stdalign.h</text>
</a>
</g>
</g>
<!-- Node5&#45;&gt;Node6 -->
<g id="edge5" class="edge">
<title>Node5&#45;&gt;Node6</title>
<path fill="none" stroke="midnightblue" d="M86.11,-56.08C86.11,-49.01 86.11,-38.86 86.11,-29.99"/>
<polygon fill="midnightblue" stroke="midnightblue" points="89.61,-29.75 86.11,-19.75 82.61,-29.75 89.61,-29.75"/>
</g>
<!-- Node7&#45;&gt;Node5 -->
<g id="edge7" class="edge">
<title>Node7&#45;&gt;Node5</title>
<path fill="none" stroke="midnightblue" d="M57.73,-112.08C62.48,-104.53 69.43,-93.49 75.27,-84.23"/>
<polygon fill="midnightblue" stroke="midnightblue" points="78.24,-86.08 80.6,-75.75 72.31,-82.35 78.24,-86.08"/>
</g>
<!-- Node8&#45;&gt;Node5 -->
<g id="edge9" class="edge">
<title>Node8&#45;&gt;Node5</title>
<path fill="none" stroke="midnightblue" d="M117.64,-168.14C114.11,-155.6 107.36,-131.97 101.11,-112 98.35,-103.15 95.11,-93.37 92.35,-85.2"/>
<polygon fill="midnightblue" stroke="midnightblue" points="95.62,-83.94 89.09,-75.6 88.99,-86.19 95.62,-83.94"/>
</g>
<!-- Node8&#45;&gt;Node7 -->
<g id="edge10" class="edge">
<title>Node8&#45;&gt;Node7</title>
<path fill="none" stroke="midnightblue" d="M109.19,-168.32C98.94,-160.18 83.39,-147.84 71.11,-138.09"/>
<polygon fill="midnightblue" stroke="midnightblue" points="73.25,-135.31 63.24,-131.83 68.89,-140.79 73.25,-135.31"/>
</g>
<!-- Node9&#45;&gt;Node5 -->
<g id="edge12" class="edge">
<title>Node9&#45;&gt;Node5</title>
<path fill="none" stroke="midnightblue" d="M175.08,-112.32C158.08,-103.66 131.74,-90.24 112.12,-80.25"/>
<polygon fill="midnightblue" stroke="midnightblue" points="113.6,-77.08 103.1,-75.65 110.42,-83.31 113.6,-77.08"/>
</g>
<!-- Node12&#45;&gt;Node4 -->
<g id="edge17" class="edge">
<title>Node12&#45;&gt;Node4</title>
<path fill="none" stroke="midnightblue" d="M50.08,-336.37C62.62,-318.22 91.92,-275.8 108.38,-251.99"/>
<polygon fill="midnightblue" stroke="midnightblue" points="111.37,-253.81 114.18,-243.59 105.61,-249.83 111.37,-253.81"/>
</g>
<!-- Node13 -->
<g id="node13" class="node">
<title>Node13</title>
<g id="a_node13"><a xlink:title=" ">
<polygon fill="white" stroke="#bfbfbf" points="4.61,-280.5 4.61,-299.5 53.61,-299.5 53.61,-280.5 4.61,-280.5"/>
<text text-anchor="middle" x="29.11" y="-287.5" font-family="Consolas" font-size="10.00">stdint.h</text>
</a>
</g>
</g>
<!-- Node12&#45;&gt;Node13 -->
<g id="edge16" class="edge">
<title>Node12&#45;&gt;Node13</title>
<path fill="none" stroke="midnightblue" d="M41.64,-336.08C39.63,-328.85 36.73,-318.41 34.22,-309.4"/>
<polygon fill="midnightblue" stroke="midnightblue" points="37.59,-308.45 31.55,-299.75 30.85,-310.32 37.59,-308.45"/>
</g>
<!-- Node14&#45;&gt;Node4 -->
<g id="edge19" class="edge">
<title>Node14&#45;&gt;Node4</title>
<path fill="none" stroke="midnightblue" d="M236.25,-280.44C213.34,-271.48 177.14,-257.31 151.25,-247.18"/>
<polygon fill="midnightblue" stroke="midnightblue" points="152.47,-243.9 141.88,-243.52 149.92,-250.42 152.47,-243.9"/>
</g>
<!-- Node15&#45;&gt;Node14 -->
<g id="edge21" class="edge">
<title>Node15&#45;&gt;Node14</title>
<path fill="none" stroke="midnightblue" d="M321.9,-336.32C310.34,-328.11 292.74,-315.6 278.95,-305.81"/>
<polygon fill="midnightblue" stroke="midnightblue" points="280.73,-302.77 270.55,-299.83 276.67,-308.48 280.73,-302.77"/>
</g>
<!-- Node16&#45;&gt;Node2 -->
<g id="edge27" class="edge">
<title>Node16&#45;&gt;Node2</title>
<path fill="none" stroke="midnightblue" d="M175.26,-459.4C186.02,-450.54 200.09,-438.96 212.09,-429.09"/>
<polygon fill="midnightblue" stroke="midnightblue" points="214.51,-431.63 220.01,-422.58 210.06,-426.23 214.51,-431.63"/>
</g>
<!-- Node16&#45;&gt;Node3 -->
<g id="edge23" class="edge">
<title>Node16&#45;&gt;Node3</title>
<path fill="none" stroke="midnightblue" d="M153.86,-459.44C150.89,-449.35 146.97,-435.41 144.11,-423 139.7,-403.83 135.75,-381.69 133.18,-366.27"/>
<polygon fill="midnightblue" stroke="midnightblue" points="136.56,-365.25 131.5,-355.94 129.65,-366.38 136.56,-365.25"/>
</g>
<!-- Node16&#45;&gt;Node12 -->
<g id="edge24" class="edge">
<title>Node16&#45;&gt;Node12</title>
<path fill="none" stroke="midnightblue" d="M119.02,-459.39C101.27,-451.21 81.34,-439.26 68.11,-423 54.78,-406.6 48.81,-382.71 46.17,-366.11"/>
<polygon fill="midnightblue" stroke="midnightblue" points="49.61,-365.42 44.82,-355.97 42.67,-366.34 49.61,-365.42"/>
</g>
<!-- Node16&#45;&gt;Node14 -->
<g id="edge25" class="edge">
<title>Node16&#45;&gt;Node14</title>
<path fill="none" stroke="midnightblue" d="M159.49,-459.31C161.54,-442.53 166.38,-414.08 177.11,-392 193.62,-358.04 223.35,-325.15 241.83,-306.56"/>
<polygon fill="midnightblue" stroke="midnightblue" points="244.33,-309.02 249,-299.5 239.42,-304.03 244.33,-309.02"/>
</g>
<!-- Node16&#45;&gt;Node15 -->
<g id="edge26" class="edge">
<title>Node16&#45;&gt;Node15</title>
<path fill="none" stroke="midnightblue" d="M208.85,-464.56C237.26,-457.38 271.76,-444.75 296.11,-423 313.35,-407.6 323.73,-382.59 329.18,-365.49"/>
<polygon fill="midnightblue" stroke="midnightblue" points="332.63,-366.16 332.07,-355.58 325.91,-364.2 332.63,-366.16"/>
</g>
<!-- Node17&#45;&gt;Node2 -->
<g id="edge33" class="edge">
<title>Node17&#45;&gt;Node2</title>
<path fill="none" stroke="midnightblue" d="M298.97,-459.4C288.21,-450.54 274.14,-438.96 262.13,-429.09"/>
<polygon fill="midnightblue" stroke="midnightblue" points="264.17,-426.23 254.22,-422.58 259.72,-431.63 264.17,-426.23"/>
</g>
<!-- Node17&#45;&gt;Node3 -->
<g id="edge29" class="edge">
<title>Node17&#45;&gt;Node3</title>
<path fill="none" stroke="midnightblue" d="M316.72,-459.35C316.7,-441.27 313.82,-410.14 296.11,-392 264.85,-359.97 213.28,-350.02 175.9,-347.28"/>
<polygon fill="midnightblue" stroke="midnightblue" points="175.96,-343.77 165.77,-346.68 175.55,-350.76 175.96,-343.77"/>
</g>
<!-- Node17&#45;&gt;Node12 -->
<g id="edge30" class="edge">
<title>Node17&#45;&gt;Node12</title>
<path fill="none" stroke="midnightblue" d="M271.52,-459.46C243.86,-450.23 207.87,-437.25 177.11,-423 136.5,-404.18 91.79,-377.25 65.94,-361.01"/>
<polygon fill="midnightblue" stroke="midnightblue" points="67.63,-357.94 57.3,-355.55 63.88,-363.86 67.63,-357.94"/>
</g>
<!-- Node17&#45;&gt;Node14 -->
<g id="edge31" class="edge">
<title>Node17&#45;&gt;Node14</title>
<path fill="none" stroke="midnightblue" d="M344.76,-459.44C358.99,-450.92 375.04,-438.65 384.11,-423 403.59,-389.41 414.78,-367.53 392.11,-336 372.23,-308.34 334.51,-297.45 304.15,-293.27"/>
<polygon fill="midnightblue" stroke="midnightblue" points="304.51,-289.79 294.17,-292.1 303.69,-296.74 304.51,-289.79"/>
</g>
<!-- Node17&#45;&gt;Node15 -->
<g id="edge32" class="edge">
<title>Node17&#45;&gt;Node15</title>
<path fill="none" stroke="midnightblue" d="M337.41,-459.38C348.84,-450.46 361.84,-437.84 368.11,-423 373.48,-410.31 372.49,-405.06 368.11,-392 364.51,-381.25 357.21,-371.02 350.3,-363.04"/>
<polygon fill="midnightblue" stroke="midnightblue" points="352.77,-360.56 343.4,-355.61 347.64,-365.32 352.77,-360.56"/>
</g>
</g>
</svg>
        <g id="navigator" transform="translate(0 0)" fill="#404254">
                <rect fill="#f2f5e9" fill-opacity="0.5" stroke="#606060" stroke-width=".5" x="0" y="0" width="60" height="60"/>
                <use id="zoomplus" xlink:href="#zoomPlus" x="17" y="9" onmousedown="handleZoom(evt,'in')"/>
                <use id="zoomminus" xlink:href="#zoomMin" x="42" y="9" onmousedown="handleZoom(evt,'out')"/>
                <use id="reset" xlink:href="#resetDef" x="30" y="36" onmousedown="handleReset()"/>
                <g id="arrowUp" xlink:href="#dirArrow" transform="translate(30 24)" onmousedown="handlePan(0,-1)">
                  <use xlink:href="#rim" fill="#404040">
                        <set attributeName="fill" to="#808080" begin="arrowUp.mouseover" end="arrowUp.mouseout"/>
                  </use>
                  <path fill="none" stroke="white" stroke-width="1.5" d="M0,-3.0v7 M-2.5,-0.5L0,-3.0L2.5,-0.5"/>
                </g>
                <g id="arrowRight" xlink:href="#dirArrow" transform="rotate(90) translate(36 -43)" onmousedown="handlePan(1,0)">
                  <use xlink:href="#rim" fill="#404040">
                        <set attributeName="fill" to="#808080" begin="arrowRight.mouseover" end="arrowRight.mouseout"/>
                  </use>
                  <path fill="none" stroke="white" stroke-width="1.5" d="M0,-3.0v7 M-2.5,-0.5L0,-3.0L2.5,-0.5"/>
                </g>
                <g id="arrowDown" xlink:href="#dirArrow" transform="rotate(180) translate(-30 -48)" onmousedown="handlePan(0,1)">
                  <use xlink:href="#rim" fill="#404040">
                        <set attributeName="fill" to="#808080" begin="arrowDown.mouseover" end="arrowDown.mouseout"/>
                  </use>
                  <path fill="none" stroke="white" stroke-width="1.5" d="M0,-3.0v7 M-2.5,-0.5L0,-3.0L2.5,-0.5"/>
                </g>
                <g id="arrowLeft" xlink:href="#dirArrow" transform="rotate(270) translate(-36 17)" onmousedown="handlePan(-1,0)">
                  <use xlink:href="#rim" fill="#404040">
                        <set attributeName="fill" to="#808080" begin="arrowLeft.mouseover" end="arrowLeft.mouseout"/>
                  </use>
                  <path fill="none" stroke="white" stroke-width="1.5" d="M0,-3.0v7 M-2.5,-0.5L0,-3.0L2.5,-0.5"/>
                </g>
        </g>
        <svg viewBox="0 0 15 15" width="100%" height="30px" preserveAspectRatio="xMaxYMin meet">
         <g id="arrow_out" transform="scale(0.3 0.3)">
          <a xlink:href="algebra_8h__incl_org.svg" target="_base">
           <rect id="button" ry="5" rx="5" y="6" x="6" height="38" width="38"
                fill="#f2f5e9" fill-opacity="0.5" stroke="#606060" stroke-width="1.0"/>
           <path id="arrow"
             d="M 11.500037,31.436501 C 11.940474,20.09759 22.043105,11.32322 32.158766,21.979434 L 37.068811,17.246167 C 37.068811,17.246167 37.088388,32 37.088388,32 L 22.160133,31.978069 C 22.160133,31.978069 26.997745,27.140456 26.997745,27.140456 C 18.528582,18.264221 13.291696,25.230495 11.500037,31.436501 z"
             style="fill:#404040;"/>
          </a>
         </g>
        </svg>
</svg>
