<?xml version="1.0" encoding="UTF-8" standalone="no"?>
<!DOCTYPE svg PUBLIC "-//W3C//DTD SVG 1.1//EN"
 "http://www.w3.org/Graphics/SVG/1.1/DTD/svg11.dtd">
<!-- Generated by graphviz version 2.49.3 (20211023.0002)
 -->
<!-- Title: hdr/libccc/math/algebra.h Pages: 1 -->
<!--zoomable 498 -->
<svg id="main" version="1.1" xmlns="http://www.w3.org/2000/svg" xmlns:xlink="http://www.w3.org/1999/xlink" xml:space="preserve" onload="init(evt)">
<style type="text/css"><![CDATA[
.edge:hover path { stroke: red; }
.edge:hover polygon { stroke: red; fill: red; }
]]></style>
<script type="text/javascript"><![CDATA[
var edges = document.getElementsByTagName('g');
if (edges && edges.length) {
  for (var i=0;i<edges.length;i++) {
    if (edges[i].id.substr(0,4)=='edge') {
      edges[i].setAttribute('class','edge');
    }
  }
}
]]></script>
        <defs>
                <circle id="rim" cx="0" cy="0" r="7"/>
                <circle id="rim2" cx="0" cy="0" r="3.5"/>
                <g id="zoomPlus">
                        <use xlink:href="#rim" fill="#404040">
                                <set attributeName="fill" to="#808080" begin="zoomplus.mouseover" end="zoomplus.mouseout"/>
                        </use>
                        <path d="M-4,0h8M0,-4v8" fill="none" stroke="white" stroke-width="1.5" pointer-events="none"/>
                </g>
                <g id="zoomMin">
                        <use xlink:href="#rim" fill="#404040">
                                <set attributeName="fill" to="#808080" begin="zoomminus.mouseover" end="zoomminus.mouseout"/>
                        </use>
                        <path d="M-4,0h8" fill="none" stroke="white" stroke-width="1.5" pointer-events="none"/>
                </g>
                <g id="dirArrow">
                        <path fill="none" stroke="white" stroke-width="1.5" d="M0,-3.0v7 M-2.5,-0.5L0,-3.0L2.5,-0.5"/>
                </g>
               <g id="resetDef">
                       <use xlink:href="#rim2" fill="#404040">
                               <set attributeName="fill" to="#808080" begin="reset.mouseover" end="reset.mouseout"/>
                       </use>
               </g>
        </defs>

<script type="text/javascript">
var viewWidth = 668;
var viewHeight = 498;
var sectionId = 'dynsection-0';
</script>
<script xlink:href="svgpan.js"/>
<svg id="graph" class="graph">
<g id="viewport">
<title>hdr/libccc/math/algebra.h</title>
<polygon fill="white" stroke="transparent" points="-4,4 -4,-494 663.5,-494 663.5,4 -4,4"/>
<!-- Node1 -->
<g id="node1" class="node">
<title>Node1</title>
<g id="a_node1"><a xlink:title=" ">
<polygon fill="#bfbfbf" stroke="black" points="404.5,-470.5 404.5,-489.5 530.5,-489.5 530.5,-470.5 404.5,-470.5"/>
<text text-anchor="middle" x="467.5" y="-477.5" font-family="Consolas" font-size="10.00">hdr/libccc/math/algebra.h</text>
</a>
</g>
</g>
<!-- Node2 -->
<g id="node2" class="node">
<title>Node2</title>
<g id="a_node2"><a xlink:href="vector_8h.html" target="_top" xlink:title=" ">
<polygon fill="white" stroke="black" points="417,-336.5 417,-366.5 518,-366.5 518,-336.5 417,-336.5"/>
<text text-anchor="start" x="425" y="-354.5" font-family="Consolas" font-size="10.00">libccc/math/algebra</text>
<text text-anchor="middle" x="467.5" y="-343.5" font-family="Consolas" font-size="10.00">/vector.h</text>
</a>
</g>
</g>
<!-- Node1&#45;&gt;Node2 -->
<g id="edge1" class="edge">
<title>Node1&#45;&gt;Node2</title>
<path fill="none" stroke="midnightblue" d="M486.8,-470.48C500.93,-463.08 519.06,-450.89 527.5,-434 533.66,-421.68 533.31,-415.49 527.5,-403 521.83,-390.82 511.63,-380.54 501.22,-372.49"/>
<polygon fill="midnightblue" stroke="midnightblue" points="503.08,-369.51 492.91,-366.52 498.99,-375.19 503.08,-369.51"/>
</g>
<!-- Node20 -->
<g id="node20" class="node">
<title>Node20</title>
<g id="a_node20"><a xlink:href="matrix_8h.html" target="_top" xlink:title=" ">
<polygon fill="white" stroke="black" points="298,-403.5 298,-433.5 399,-433.5 399,-403.5 298,-403.5"/>
<text text-anchor="start" x="306" y="-421.5" font-family="Consolas" font-size="10.00">libccc/math/algebra</text>
<text text-anchor="middle" x="348.5" y="-410.5" font-family="Consolas" font-size="10.00">/matrix.h</text>
</a>
</g>
</g>
<!-- Node1&#45;&gt;Node20 -->
<g id="edge34" class="edge">
<title>Node1&#45;&gt;Node20</title>
<path fill="none" stroke="midnightblue" d="M450.45,-470.48C433.58,-462.04 407.21,-448.86 385.52,-438.01"/>
<polygon fill="midnightblue" stroke="midnightblue" points="387.06,-434.86 376.55,-433.52 383.92,-441.13 387.06,-434.86"/>
</g>
<!-- Node21 -->
<g id="node21" class="node">
<title>Node21</title>
<g id="a_node21"><a xlink:href="interval_8h.html" target="_top" xlink:title=" ">
<polygon fill="white" stroke="black" points="417,-403.5 417,-433.5 518,-433.5 518,-403.5 417,-403.5"/>
<text text-anchor="start" x="425" y="-421.5" font-family="Consolas" font-size="10.00">libccc/math/algebra</text>
<text text-anchor="middle" x="467.5" y="-410.5" font-family="Consolas" font-size="10.00">/interval.h</text>
</a>
</g>
</g>
<!-- Node1&#45;&gt;Node21 -->
<g id="edge40" class="edge">
<title>Node1&#45;&gt;Node21</title>
<path fill="none" stroke="midnightblue" d="M467.5,-470.48C467.5,-463.47 467.5,-453.19 467.5,-443.7"/>
<polygon fill="midnightblue" stroke="midnightblue" points="471,-443.52 467.5,-433.52 464,-443.52 471,-443.52"/>
</g>
<!-- Node3 -->
<g id="node3" class="node">
<title>Node3</title>
<g id="a_node3"><a xlink:href="bool_8h.html" target="_top" xlink:title=" ">
<polygon fill="white" stroke="black" points="260,-280.5 260,-299.5 331,-299.5 331,-280.5 260,-280.5"/>
<text text-anchor="middle" x="295.5" y="-287.5" font-family="Consolas" font-size="10.00">libccc/bool.h</text>
</a>
</g>
</g>
<!-- Node2&#45;&gt;Node3 -->
<g id="edge2" class="edge">
<title>Node2&#45;&gt;Node3</title>
<path fill="none" stroke="midnightblue" d="M426.74,-336.4C397.28,-326.21 357.91,-312.59 330,-302.93"/>
<polygon fill="midnightblue" stroke="midnightblue" points="330.87,-299.53 320.28,-299.57 328.58,-306.15 330.87,-299.53"/>
</g>
<!-- Node14 -->
<g id="node14" class="node">
<title>Node14</title>
<g id="a_node14"><a xlink:href="int_8h.html" target="_top" xlink:title=" ">
<polygon fill="white" stroke="black" points="9.5,-168.5 9.5,-187.5 73.5,-187.5 73.5,-168.5 9.5,-168.5"/>
<text text-anchor="middle" x="41.5" y="-175.5" font-family="Consolas" font-size="10.00">libccc/int.h</text>
</a>
</g>
</g>
<!-- Node2&#45;&gt;Node14 -->
<g id="edge30" class="edge">
<title>Node2&#45;&gt;Node14</title>
<path fill="none" stroke="midnightblue" d="M442.24,-336.39C416.63,-322.11 375.86,-299.43 340.5,-280 317.67,-267.46 261.87,-233.22 237.5,-224 223.2,-218.59 136.66,-199.5 83.47,-188"/>
<polygon fill="midnightblue" stroke="midnightblue" points="84.14,-184.56 73.63,-185.88 82.66,-191.41 84.14,-184.56"/>
</g>
<!-- Node16 -->
<g id="node16" class="node">
<title>Node16</title>
<g id="a_node16"><a xlink:href="float_8h.html" target="_top" xlink:title=" ">
<polygon fill="white" stroke="black" points="587.5,-168.5 587.5,-187.5 659.5,-187.5 659.5,-168.5 587.5,-168.5"/>
<text text-anchor="middle" x="623.5" y="-175.5" font-family="Consolas" font-size="10.00">libccc/float.h</text>
</a>
</g>
</g>
<!-- Node2&#45;&gt;Node16 -->
<g id="edge31" class="edge">
<title>Node2&#45;&gt;Node16</title>
<path fill="none" stroke="midnightblue" d="M469.29,-336.39C471.77,-321.29 477.39,-297.19 489.5,-280 517.66,-240.03 566.49,-209.06 596.79,-192.46"/>
<polygon fill="midnightblue" stroke="midnightblue" points="598.75,-195.38 605.92,-187.59 595.45,-189.21 598.75,-195.38"/>
</g>
<!-- Node19 -->
<g id="node19" class="node">
<title>Node19</title>
<g id="a_node19"><a xlink:href="math_2float_8h.html" target="_top" xlink:title=" ">
<polygon fill="white" stroke="black" points="498,-280.5 498,-299.5 595,-299.5 595,-280.5 498,-280.5"/>
<text text-anchor="middle" x="546.5" y="-287.5" font-family="Consolas" font-size="10.00">libccc/math/float.h</text>
</a>
</g>
</g>
<!-- Node2&#45;&gt;Node19 -->
<g id="edge32" class="edge">
<title>Node2&#45;&gt;Node19</title>
<path fill="none" stroke="midnightblue" d="M486.22,-336.4C498.41,-327.22 514.29,-315.26 526.69,-305.92"/>
<polygon fill="midnightblue" stroke="midnightblue" points="529.12,-308.47 535,-299.66 524.91,-302.88 529.12,-308.47"/>
</g>
<!-- Node4 -->
<g id="node4" class="node">
<title>Node4</title>
<g id="a_node4"><a xlink:href="libccc_8h.html" target="_top" xlink:title=" ">
<polygon fill="white" stroke="black" points="289.5,-224.5 289.5,-243.5 339.5,-243.5 339.5,-224.5 289.5,-224.5"/>
<text text-anchor="middle" x="314.5" y="-231.5" font-family="Consolas" font-size="10.00">libccc.h</text>
</a>
</g>
</g>
<!-- Node3&#45;&gt;Node4 -->
<g id="edge3" class="edge">
<title>Node3&#45;&gt;Node4</title>
<path fill="none" stroke="midnightblue" d="M293.47,-280.08C294.51,-272.69 297.88,-261.95 301.84,-252.81"/>
<polygon fill="midnightblue" stroke="midnightblue" points="305.03,-254.27 306.29,-243.75 298.74,-251.19 305.03,-254.27"/>
</g>
<!-- Node4&#45;&gt;Node3 -->
<g id="edge13" class="edge">
<title>Node4&#45;&gt;Node3</title>
<path fill="none" stroke="midnightblue" d="M316.55,-243.75C315.55,-251.09 312.2,-261.82 308.25,-270.98"/>
<polygon fill="midnightblue" stroke="midnightblue" points="305.05,-269.56 303.8,-280.08 311.34,-272.63 305.05,-269.56"/>
</g>
<!-- Node5 -->
<g id="node5" class="node">
<title>Node5</title>
<g id="a_node5"><a xlink:href="libccc__define_8h.html" target="_top" xlink:title=" ">
<polygon fill="white" stroke="black" points="444.5,-56.5 444.5,-75.5 526.5,-75.5 526.5,-56.5 444.5,-56.5"/>
<text text-anchor="middle" x="485.5" y="-63.5" font-family="Consolas" font-size="10.00">libccc_define.h</text>
</a>
</g>
</g>
<!-- Node4&#45;&gt;Node5 -->
<g id="edge4" class="edge">
<title>Node4&#45;&gt;Node5</title>
<path fill="none" stroke="midnightblue" d="M326.38,-224.4C337.31,-216.03 353.46,-202.49 364.5,-188 387.38,-157.95 376.24,-139.14 402.5,-112 416.22,-97.82 435.39,-87.02 451.85,-79.57"/>
<polygon fill="midnightblue" stroke="midnightblue" points="453.36,-82.73 461.16,-75.56 450.59,-76.3 453.36,-82.73"/>
</g>
<!-- Node7 -->
<g id="node7" class="node">
<title>Node7</title>
<g id="a_node7"><a xlink:href="libccc__errors_8h.html" target="_top" xlink:title=" ">
<polygon fill="white" stroke="black" points="411.5,-112.5 411.5,-131.5 491.5,-131.5 491.5,-112.5 411.5,-112.5"/>
<text text-anchor="middle" x="451.5" y="-119.5" font-family="Consolas" font-size="10.00">libccc_errors.h</text>
</a>
</g>
</g>
<!-- Node4&#45;&gt;Node7 -->
<g id="edge6" class="edge">
<title>Node4&#45;&gt;Node7</title>
<path fill="none" stroke="midnightblue" d="M335.28,-224.42C352.93,-216.54 378.37,-203.7 397.5,-188 414.43,-174.11 429.98,-154.31 440,-140.22"/>
<polygon fill="midnightblue" stroke="midnightblue" points="442.94,-142.12 445.75,-131.91 437.18,-138.14 442.94,-142.12"/>
</g>
<!-- Node8 -->
<g id="node8" class="node">
<title>Node8</title>
<g id="a_node8"><a xlink:href="libccc__config_8h.html" target="_top" xlink:title=" ">
<polygon fill="white" stroke="black" points="449.5,-168.5 449.5,-187.5 531.5,-187.5 531.5,-168.5 449.5,-168.5"/>
<text text-anchor="middle" x="490.5" y="-175.5" font-family="Consolas" font-size="10.00">libccc_config.h</text>
</a>
</g>
</g>
<!-- Node4&#45;&gt;Node8 -->
<g id="edge8" class="edge">
<title>Node4&#45;&gt;Node8</title>
<path fill="none" stroke="midnightblue" d="M339.72,-225.26C369.39,-216.16 418.93,-200.96 453.09,-190.48"/>
<polygon fill="midnightblue" stroke="midnightblue" points="454.18,-193.8 462.72,-187.52 452.13,-187.11 454.18,-193.8"/>
</g>
<!-- Node9 -->
<g id="node9" class="node">
<title>Node9</title>
<g id="a_node9"><a xlink:href="libccc__naming_8h.html" target="_top" xlink:title=" ">
<polygon fill="white" stroke="black" points="548,-112.5 548,-131.5 635,-131.5 635,-112.5 548,-112.5"/>
<text text-anchor="middle" x="591.5" y="-119.5" font-family="Consolas" font-size="10.00">libccc_naming.h</text>
</a>
</g>
</g>
<!-- Node4&#45;&gt;Node9 -->
<g id="edge11" class="edge">
<title>Node4&#45;&gt;Node9</title>
<path fill="none" stroke="midnightblue" d="M339.65,-227.05C344.25,-226.01 349.01,-224.95 353.5,-224 436.3,-206.48 468.25,-232.08 540.5,-188 559.18,-176.6 573.71,-155.7 582.4,-140.67"/>
<polygon fill="midnightblue" stroke="midnightblue" points="585.52,-142.26 587.25,-131.81 579.38,-138.9 585.52,-142.26"/>
</g>
<!-- Node10 -->
<g id="node10" class="node">
<title>Node10</title>
<g id="a_node10"><a xlink:href="char_8h.html" target="_top" xlink:title=" ">
<polygon fill="white" stroke="black" points="92,-168.5 92,-187.5 163,-187.5 163,-168.5 92,-168.5"/>
<text text-anchor="middle" x="127.5" y="-175.5" font-family="Consolas" font-size="10.00">libccc/char.h</text>
</a>
</g>
</g>
<!-- Node4&#45;&gt;Node10 -->
<g id="edge14" class="edge">
<title>Node4&#45;&gt;Node10</title>
<path fill="none" stroke="midnightblue" d="M289.34,-227.01C256.4,-218.25 198.91,-201.77 161.97,-190.59"/>
<polygon fill="midnightblue" stroke="midnightblue" points="162.73,-187.16 152.14,-187.59 160.68,-193.85 162.73,-187.16"/>
</g>
<!-- Node4&#45;&gt;Node14 -->
<g id="edge19" class="edge">
<title>Node4&#45;&gt;Node14</title>
<path fill="none" stroke="midnightblue" d="M289.09,-228.9C281.64,-227.31 273.71,-225.51 266.5,-224 184.84,-206.93 161.43,-205.21 82.23,-189.54"/>
<polygon fill="midnightblue" stroke="midnightblue" points="82.78,-186.08 72.29,-187.55 81.41,-192.94 82.78,-186.08"/>
</g>
<!-- Node15 -->
<g id="node15" class="node">
<title>Node15</title>
<g id="a_node15"><a xlink:href="fixed_8h.html" target="_top" xlink:title=" ">
<polygon fill="white" stroke="black" points="181.5,-168.5 181.5,-187.5 255.5,-187.5 255.5,-168.5 181.5,-168.5"/>
<text text-anchor="middle" x="218.5" y="-175.5" font-family="Consolas" font-size="10.00">libccc/fixed.h</text>
</a>
</g>
</g>
<!-- Node4&#45;&gt;Node15 -->
<g id="edge22" class="edge">
<title>Node4&#45;&gt;Node15</title>
<path fill="none" stroke="midnightblue" d="M293.96,-224.32C277.16,-215.9 253.88,-202.97 237.51,-193.07"/>
<polygon fill="midnightblue" stroke="midnightblue" points="239.12,-189.95 228.78,-187.65 235.43,-195.9 239.12,-189.95"/>
</g>
<!-- Node4&#45;&gt;Node16 -->
<g id="edge24" class="edge">
<title>Node4&#45;&gt;Node16</title>
<path fill="none" stroke="midnightblue" d="M339.51,-225.02C341.19,-224.66 342.86,-224.32 344.5,-224 441.71,-204.85 466.85,-204.78 564.5,-188 568.61,-187.29 572.9,-186.54 577.23,-185.79"/>
<polygon fill="midnightblue" stroke="midnightblue" points="578.07,-189.19 587.32,-184.03 576.87,-182.3 578.07,-189.19"/>
</g>
<!-- Node17 -->
<g id="node17" class="node">
<title>Node17</title>
<g id="a_node17"><a xlink:href="pointer_8h.html" target="_top" xlink:title=" ">
<polygon fill="white" stroke="black" points="273.5,-168.5 273.5,-187.5 355.5,-187.5 355.5,-168.5 273.5,-168.5"/>
<text text-anchor="middle" x="314.5" y="-175.5" font-family="Consolas" font-size="10.00">libccc/pointer.h</text>
</a>
</g>
</g>
<!-- Node4&#45;&gt;Node17 -->
<g id="edge26" class="edge">
<title>Node4&#45;&gt;Node17</title>
<path fill="none" stroke="midnightblue" d="M309.33,-224.08C307.82,-216.93 307.39,-206.64 308.04,-197.69"/>
<polygon fill="midnightblue" stroke="midnightblue" points="311.52,-198.13 309.37,-187.75 304.58,-197.2 311.52,-198.13"/>
</g>
<!-- Node6 -->
<g id="node6" class="node">
<title>Node6</title>
<g id="a_node6"><a xlink:title=" ">
<polygon fill="white" stroke="#bfbfbf" points="456,-0.5 456,-19.5 515,-19.5 515,-0.5 456,-0.5"/>
<text text-anchor="middle" x="485.5" y="-7.5" font-family="Consolas" font-size="10.00">stdalign.h</text>
</a>
</g>
</g>
<!-- Node5&#45;&gt;Node6 -->
<g id="edge5" class="edge">
<title>Node5&#45;&gt;Node6</title>
<path fill="none" stroke="midnightblue" d="M485.5,-56.08C485.5,-49.01 485.5,-38.86 485.5,-29.99"/>
<polygon fill="midnightblue" stroke="midnightblue" points="489,-29.75 485.5,-19.75 482,-29.75 489,-29.75"/>
</g>
<!-- Node7&#45;&gt;Node5 -->
<g id="edge7" class="edge">
<title>Node7&#45;&gt;Node5</title>
<path fill="none" stroke="midnightblue" d="M457.11,-112.08C461.87,-104.53 468.82,-93.49 474.65,-84.23"/>
<polygon fill="midnightblue" stroke="midnightblue" points="477.62,-86.08 479.99,-75.75 471.7,-82.35 477.62,-86.08"/>
</g>
<!-- Node8&#45;&gt;Node5 -->
<g id="edge9" class="edge">
<title>Node8&#45;&gt;Node5</title>
<path fill="none" stroke="midnightblue" d="M493.63,-168.16C497.65,-155.65 503.76,-132.06 500.5,-112 499.03,-102.96 496.01,-93.28 493.06,-85.22"/>
<polygon fill="midnightblue" stroke="midnightblue" points="496.26,-83.79 489.36,-75.75 489.74,-86.34 496.26,-83.79"/>
</g>
<!-- Node8&#45;&gt;Node7 -->
<g id="edge10" class="edge">
<title>Node8&#45;&gt;Node7</title>
<path fill="none" stroke="midnightblue" d="M484.06,-168.08C478.55,-160.46 470.47,-149.26 463.74,-139.94"/>
<polygon fill="midnightblue" stroke="midnightblue" points="466.51,-137.81 457.82,-131.75 460.84,-141.91 466.51,-137.81"/>
</g>
<!-- Node9&#45;&gt;Node5 -->
<g id="edge12" class="edge">
<title>Node9&#45;&gt;Node5</title>
<path fill="none" stroke="midnightblue" d="M574.47,-112.32C557.47,-103.66 531.12,-90.24 511.51,-80.25"/>
<polygon fill="midnightblue" stroke="midnightblue" points="512.99,-77.08 502.49,-75.65 509.81,-83.31 512.99,-77.08"/>
</g>
<!-- Node10&#45;&gt;Node4 -->
<g id="edge16" class="edge">
<title>Node10&#45;&gt;Node4</title>
<path fill="none" stroke="midnightblue" d="M162.07,-187.52C195.77,-196.66 246.48,-211.26 280.11,-221.44"/>
<polygon fill="midnightblue" stroke="midnightblue" points="279.37,-224.87 289.96,-224.44 281.42,-218.18 279.37,-224.87"/>
</g>
<!-- Node11 -->
<g id="node11" class="node">
<title>Node11</title>
<g id="a_node11"><a xlink:title=" ">
<polygon fill="white" stroke="#bfbfbf" points="0,-112.5 0,-131.5 49,-131.5 49,-112.5 0,-112.5"/>
<text text-anchor="middle" x="24.5" y="-119.5" font-family="Consolas" font-size="10.00">stdint.h</text>
</a>
</g>
</g>
<!-- Node10&#45;&gt;Node11 -->
<g id="edge15" class="edge">
<title>Node10&#45;&gt;Node11</title>
<path fill="none" stroke="midnightblue" d="M110.95,-168.32C94.51,-159.7 69.07,-146.36 50.03,-136.39"/>
<polygon fill="midnightblue" stroke="midnightblue" points="51.49,-133.2 41.01,-131.65 48.24,-139.4 51.49,-133.2"/>
</g>
<!-- Node12 -->
<g id="node12" class="node">
<title>Node12</title>
<g id="a_node12"><a xlink:title=" ">
<polygon fill="white" stroke="#bfbfbf" points="192,-112.5 192,-131.5 285,-131.5 285,-112.5 192,-112.5"/>
<text text-anchor="middle" x="238.5" y="-119.5" font-family="Consolas" font-size="10.00">libccc/text/ascii.h</text>
</a>
</g>
</g>
<!-- Node10&#45;&gt;Node12 -->
<g id="edge17" class="edge">
<title>Node10&#45;&gt;Node12</title>
<path fill="none" stroke="midnightblue" d="M145.33,-168.32C163.22,-159.62 190.98,-146.12 211.55,-136.11"/>
<polygon fill="midnightblue" stroke="midnightblue" points="213.25,-139.18 220.71,-131.65 210.19,-132.88 213.25,-139.18"/>
</g>
<!-- Node13 -->
<g id="node13" class="node">
<title>Node13</title>
<g id="a_node13"><a xlink:title=" ">
<polygon fill="white" stroke="#bfbfbf" points="67,-112.5 67,-131.5 174,-131.5 174,-112.5 67,-112.5"/>
<text text-anchor="middle" x="120.5" y="-119.5" font-family="Consolas" font-size="10.00">libccc/text/unicode.h</text>
</a>
</g>
</g>
<!-- Node10&#45;&gt;Node13 -->
<g id="edge18" class="edge">
<title>Node10&#45;&gt;Node13</title>
<path fill="none" stroke="midnightblue" d="M126.34,-168.08C125.42,-160.93 124.08,-150.64 122.92,-141.69"/>
<polygon fill="midnightblue" stroke="midnightblue" points="126.39,-141.22 121.63,-131.75 119.45,-142.12 126.39,-141.22"/>
</g>
<!-- Node14&#45;&gt;Node4 -->
<g id="edge21" class="edge">
<title>Node14&#45;&gt;Node4</title>
<path fill="none" stroke="midnightblue" d="M73.73,-184.15C80.04,-185.44 86.5,-186.8 92.5,-188 174.3,-204.43 197.71,-206.12 279.24,-222.94"/>
<polygon fill="midnightblue" stroke="midnightblue" points="278.98,-226.46 289.48,-225.06 280.4,-219.6 278.98,-226.46"/>
</g>
<!-- Node14&#45;&gt;Node11 -->
<g id="edge20" class="edge">
<title>Node14&#45;&gt;Node11</title>
<path fill="none" stroke="midnightblue" d="M38.69,-168.08C36.42,-160.85 33.13,-150.41 30.29,-141.4"/>
<polygon fill="midnightblue" stroke="midnightblue" points="33.6,-140.24 27.25,-131.75 26.92,-142.34 33.6,-140.24"/>
</g>
<!-- Node15&#45;&gt;Node4 -->
<g id="edge23" class="edge">
<title>Node15&#45;&gt;Node4</title>
<path fill="none" stroke="midnightblue" d="M239,-187.65C255.78,-196.07 279.07,-209 295.45,-218.9"/>
<polygon fill="midnightblue" stroke="midnightblue" points="293.85,-222.03 304.19,-224.32 297.54,-216.08 293.85,-222.03"/>
</g>
<!-- Node16&#45;&gt;Node4 -->
<g id="edge25" class="edge">
<title>Node16&#45;&gt;Node4</title>
<path fill="none" stroke="midnightblue" d="M587.26,-187.18C585.66,-187.46 584.06,-187.73 582.5,-188 484.85,-204.78 459.71,-204.85 362.5,-224 358.43,-224.8 354.15,-225.72 349.85,-226.65"/>
<polygon fill="midnightblue" stroke="midnightblue" points="348.92,-223.27 339.9,-228.82 350.41,-230.11 348.92,-223.27"/>
</g>
<!-- Node17&#45;&gt;Node4 -->
<g id="edge29" class="edge">
<title>Node17&#45;&gt;Node4</title>
<path fill="none" stroke="midnightblue" d="M319.63,-187.75C321.16,-194.86 321.6,-205.14 320.97,-214.1"/>
<polygon fill="midnightblue" stroke="midnightblue" points="317.49,-213.71 319.67,-224.08 324.43,-214.62 317.49,-213.71"/>
</g>
<!-- Node17&#45;&gt;Node11 -->
<g id="edge28" class="edge">
<title>Node17&#45;&gt;Node11</title>
<path fill="none" stroke="midnightblue" d="M273.3,-169.57C270.32,-169.04 267.37,-168.51 264.5,-168 176.11,-152.32 150.98,-151.92 59.31,-132.02"/>
<polygon fill="midnightblue" stroke="midnightblue" points="59.84,-128.55 49.32,-129.83 58.34,-135.39 59.84,-128.55"/>
</g>
<!-- Node18 -->
<g id="node18" class="node">
<title>Node18</title>
<g id="a_node18"><a xlink:title=" ">
<polygon fill="white" stroke="#bfbfbf" points="303.5,-112.5 303.5,-131.5 355.5,-131.5 355.5,-112.5 303.5,-112.5"/>
<text text-anchor="middle" x="329.5" y="-119.5" font-family="Consolas" font-size="10.00">stddef.h</text>
</a>
</g>
</g>
<!-- Node17&#45;&gt;Node18 -->
<g id="edge27" class="edge">
<title>Node17&#45;&gt;Node18</title>
<path fill="none" stroke="midnightblue" d="M316.98,-168.08C318.99,-160.85 321.89,-150.41 324.39,-141.4"/>
<polygon fill="midnightblue" stroke="midnightblue" points="327.76,-142.32 327.07,-131.75 321.02,-140.45 327.76,-142.32"/>
</g>
<!-- Node19&#45;&gt;Node16 -->
<g id="edge33" class="edge">
<title>Node19&#45;&gt;Node16</title>
<path fill="none" stroke="midnightblue" d="M552.54,-280.37C565.25,-262.22 594.94,-219.8 611.61,-195.99"/>
<polygon fill="midnightblue" stroke="midnightblue" points="614.62,-197.79 617.49,-187.59 608.88,-193.78 614.62,-197.79"/>
</g>
<!-- Node20&#45;&gt;Node2 -->
<g id="edge39" class="edge">
<title>Node20&#45;&gt;Node2</title>
<path fill="none" stroke="midnightblue" d="M374.32,-403.4C391.47,-394.03 414.2,-381.62 432.91,-371.39"/>
<polygon fill="midnightblue" stroke="midnightblue" points="434.63,-374.44 441.73,-366.58 431.28,-368.3 434.63,-374.44"/>
</g>
<!-- Node20&#45;&gt;Node3 -->
<g id="edge35" class="edge">
<title>Node20&#45;&gt;Node3</title>
<path fill="none" stroke="midnightblue" d="M342.63,-403.48C332.96,-380.41 313.72,-334.48 303.05,-309.03"/>
<polygon fill="midnightblue" stroke="midnightblue" points="306.27,-307.66 299.18,-299.79 299.82,-310.36 306.27,-307.66"/>
</g>
<!-- Node20&#45;&gt;Node14 -->
<g id="edge36" class="edge">
<title>Node20&#45;&gt;Node14</title>
<path fill="none" stroke="midnightblue" d="M330.22,-403.29C275.93,-361.13 116.07,-236.93 60.66,-193.89"/>
<polygon fill="midnightblue" stroke="midnightblue" points="62.75,-191.07 52.7,-187.7 58.45,-196.6 62.75,-191.07"/>
</g>
<!-- Node20&#45;&gt;Node16 -->
<g id="edge37" class="edge">
<title>Node20&#45;&gt;Node16</title>
<path fill="none" stroke="midnightblue" d="M357.13,-403.41C379.37,-368.21 442.23,-275.52 517.5,-224 538.29,-209.77 564.31,-198.64 585.36,-191.01"/>
<polygon fill="midnightblue" stroke="midnightblue" points="586.67,-194.26 594.95,-187.65 584.35,-187.66 586.67,-194.26"/>
</g>
<!-- Node20&#45;&gt;Node19 -->
<g id="edge38" class="edge">
<title>Node20&#45;&gt;Node19</title>
<path fill="none" stroke="midnightblue" d="M399.45,-404.46C450.72,-391.14 522.89,-371.75 527.5,-367 542.2,-351.85 546.06,-327.14 546.82,-310.03"/>
<polygon fill="midnightblue" stroke="midnightblue" points="550.32,-309.65 546.95,-299.61 543.32,-309.56 550.32,-309.65"/>
</g>
<!-- Node21&#45;&gt;Node2 -->
<g id="edge45" class="edge">
<title>Node21&#45;&gt;Node2</title>
<path fill="none" stroke="midnightblue" d="M467.5,-403.4C467.5,-395.64 467.5,-385.81 467.5,-376.86"/>
<polygon fill="midnightblue" stroke="midnightblue" points="471,-376.58 467.5,-366.58 464,-376.58 471,-376.58"/>
</g>
<!-- Node21&#45;&gt;Node3 -->
<g id="edge41" class="edge">
<title>Node21&#45;&gt;Node3</title>
<path fill="none" stroke="midnightblue" d="M448.44,-403.48C415.68,-379.39 349.01,-330.35 315.57,-305.76"/>
<polygon fill="midnightblue" stroke="midnightblue" points="317.58,-302.89 307.45,-299.79 313.43,-308.53 317.58,-302.89"/>
</g>
<!-- Node21&#45;&gt;Node14 -->
<g id="edge42" class="edge">
<title>Node21&#45;&gt;Node14</title>
<path fill="none" stroke="midnightblue" d="M433.44,-403.35C411.2,-393.77 381.71,-380.47 356.5,-367 250,-310.11 230.1,-284.32 125.5,-224 106.33,-212.95 84.26,-201.16 67.56,-192.42"/>
<polygon fill="midnightblue" stroke="midnightblue" points="68.89,-189.17 58.4,-187.66 65.66,-195.38 68.89,-189.17"/>
</g>
<!-- Node21&#45;&gt;Node16 -->
<g id="edge43" class="edge">
<title>Node21&#45;&gt;Node16</title>
<path fill="none" stroke="midnightblue" d="M517.06,-403.41C537.62,-395.49 560.37,-383.75 576.5,-367 621.98,-319.76 625.45,-235.48 624.52,-197.94"/>
<polygon fill="midnightblue" stroke="midnightblue" points="628,-197.36 624.11,-187.5 621,-197.63 628,-197.36"/>
</g>
<!-- Node21&#45;&gt;Node19 -->
<g id="edge44" class="edge">
<title>Node21&#45;&gt;Node19</title>
<path fill="none" stroke="midnightblue" d="M514.64,-403.48C532.22,-395.71 550.36,-384.05 560.5,-367 571.18,-349.05 563.69,-324.82 556.18,-308.59"/>
<polygon fill="midnightblue" stroke="midnightblue" points="559.3,-307 551.67,-299.65 553.05,-310.15 559.3,-307"/>
</g>
</g>
</svg>
        <g id="navigator" transform="translate(0 0)" fill="#404254">
                <rect fill="#f2f5e9" fill-opacity="0.5" stroke="#606060" stroke-width=".5" x="0" y="0" width="60" height="60"/>
                <use id="zoomplus" xlink:href="#zoomPlus" x="17" y="9" onmousedown="handleZoom(evt,'in')"/>
                <use id="zoomminus" xlink:href="#zoomMin" x="42" y="9" onmousedown="handleZoom(evt,'out')"/>
                <use id="reset" xlink:href="#resetDef" x="30" y="36" onmousedown="handleReset()"/>
                <g id="arrowUp" xlink:href="#dirArrow" transform="translate(30 24)" onmousedown="handlePan(0,-1)">
                  <use xlink:href="#rim" fill="#404040">
                        <set attributeName="fill" to="#808080" begin="arrowUp.mouseover" end="arrowUp.mouseout"/>
                  </use>
                  <path fill="none" stroke="white" stroke-width="1.5" d="M0,-3.0v7 M-2.5,-0.5L0,-3.0L2.5,-0.5"/>
                </g>
                <g id="arrowRight" xlink:href="#dirArrow" transform="rotate(90) translate(36 -43)" onmousedown="handlePan(1,0)">
                  <use xlink:href="#rim" fill="#404040">
                        <set attributeName="fill" to="#808080" begin="arrowRight.mouseover" end="arrowRight.mouseout"/>
                  </use>
                  <path fill="none" stroke="white" stroke-width="1.5" d="M0,-3.0v7 M-2.5,-0.5L0,-3.0L2.5,-0.5"/>
                </g>
                <g id="arrowDown" xlink:href="#dirArrow" transform="rotate(180) translate(-30 -48)" onmousedown="handlePan(0,1)">
                  <use xlink:href="#rim" fill="#404040">
                        <set attributeName="fill" to="#808080" begin="arrowDown.mouseover" end="arrowDown.mouseout"/>
                  </use>
                  <path fill="none" stroke="white" stroke-width="1.5" d="M0,-3.0v7 M-2.5,-0.5L0,-3.0L2.5,-0.5"/>
                </g>
                <g id="arrowLeft" xlink:href="#dirArrow" transform="rotate(270) translate(-36 17)" onmousedown="handlePan(-1,0)">
                  <use xlink:href="#rim" fill="#404040">
                        <set attributeName="fill" to="#808080" begin="arrowLeft.mouseover" end="arrowLeft.mouseout"/>
                  </use>
                  <path fill="none" stroke="white" stroke-width="1.5" d="M0,-3.0v7 M-2.5,-0.5L0,-3.0L2.5,-0.5"/>
                </g>
        </g>
        <svg viewBox="0 0 15 15" width="100%" height="30px" preserveAspectRatio="xMaxYMin meet">
         <g id="arrow_out" transform="scale(0.3 0.3)">
          <a xlink:href="algebra_8h__incl_org.svg" target="_base">
           <rect id="button" ry="5" rx="5" y="6" x="6" height="38" width="38"
                fill="#f2f5e9" fill-opacity="0.5" stroke="#606060" stroke-width="1.0"/>
           <path id="arrow"
             d="M 11.500037,31.436501 C 11.940474,20.09759 22.043105,11.32322 32.158766,21.979434 L 37.068811,17.246167 C 37.068811,17.246167 37.088388,32 37.088388,32 L 22.160133,31.978069 C 22.160133,31.978069 26.997745,27.140456 26.997745,27.140456 C 18.528582,18.264221 13.291696,25.230495 11.500037,31.436501 z"
             style="fill:#404040;"/>
          </a>
         </g>
        </svg>
</svg>
