<?xml version="1.0" encoding="UTF-8" standalone="no"?>
<!DOCTYPE svg PUBLIC "-//W3C//DTD SVG 1.1//EN"
 "http://www.w3.org/Graphics/SVG/1.1/DTD/svg11.dtd">
<!-- Generated by graphviz version 2.43.0 (0)
 -->
<!-- Title: libccc/math/algebra.h Pages: 1 -->
<svg width="436pt" height="554pt"
 viewBox="0.00 0.00 435.91 554.00" xmlns="http://www.w3.org/2000/svg" xmlns:xlink="http://www.w3.org/1999/xlink">
<g id="graph0" class="graph" transform="scale(1 1) rotate(0) translate(4 550)">
<title>libccc/math/algebra.h</title>
<polygon fill="white" stroke="transparent" points="-4,4 -4,-550 431.91,-550 431.91,4 -4,4"/>
<!-- Node1 -->
<g id="node1" class="node">
<title>Node1</title>
<g id="a_node1"><a xlink:title=" ">
<polygon fill="#bfbfbf" stroke="black" points="177,-526.5 177,-545.5 304,-545.5 304,-526.5 177,-526.5"/>
<text text-anchor="middle" x="240.5" y="-533.5" font-family="Consolas" font-size="10.00">libccc/math/algebra.h</text>
</a>
</g>
</g>
<!-- Node2 -->
<g id="node2" class="node">
<title>Node2</title>
<g id="a_node2"><a xlink:href="vector_8h.html" target="_top" xlink:title=" ">
<polygon fill="white" stroke="black" points="182.5,-392.5 182.5,-422.5 298.5,-422.5 298.5,-392.5 182.5,-392.5"/>
<text text-anchor="start" x="190.5" y="-410.5" font-family="Consolas" font-size="10.00">libccc/math/algebra</text>
<text text-anchor="middle" x="240.5" y="-399.5" font-family="Consolas" font-size="10.00">/vector.h</text>
</a>
</g>
</g>
<!-- Node1&#45;&gt;Node2 -->
<g id="edge1" class="edge">
<title>Node1&#45;&gt;Node2</title>
<path fill="none" stroke="midnightblue" d="M240.5,-526.31C240.5,-507.3 240.5,-461.47 240.5,-432.9"/>
<polygon fill="midnightblue" stroke="midnightblue" points="244,-432.89 240.5,-422.89 237,-432.89 244,-432.89"/>
</g>
<!-- Node15 -->
<g id="node15" class="node">
<title>Node15</title>
<g id="a_node15"><a xlink:href="matrix_8h.html" target="_top" xlink:title=" ">
<polygon fill="white" stroke="black" points="96.5,-459.5 96.5,-489.5 212.5,-489.5 212.5,-459.5 96.5,-459.5"/>
<text text-anchor="start" x="104.5" y="-477.5" font-family="Consolas" font-size="10.00">libccc/math/algebra</text>
<text text-anchor="middle" x="154.5" y="-466.5" font-family="Consolas" font-size="10.00">/matrix.h</text>
</a>
</g>
</g>
<!-- Node1&#45;&gt;Node15 -->
<g id="edge21" class="edge">
<title>Node1&#45;&gt;Node15</title>
<path fill="none" stroke="midnightblue" d="M228.18,-526.48C216.53,-518.42 198.62,-506.02 183.37,-495.47"/>
<polygon fill="midnightblue" stroke="midnightblue" points="184.98,-492.33 174.77,-489.52 181,-498.09 184.98,-492.33"/>
</g>
<!-- Node16 -->
<g id="node16" class="node">
<title>Node16</title>
<g id="a_node16"><a xlink:href="interval_8h.html" target="_top" xlink:title=" ">
<polygon fill="white" stroke="black" points="268.5,-459.5 268.5,-489.5 384.5,-489.5 384.5,-459.5 268.5,-459.5"/>
<text text-anchor="start" x="276.5" y="-477.5" font-family="Consolas" font-size="10.00">libccc/math/algebra</text>
<text text-anchor="middle" x="326.5" y="-466.5" font-family="Consolas" font-size="10.00">/interval.h</text>
</a>
</g>
</g>
<!-- Node1&#45;&gt;Node16 -->
<g id="edge27" class="edge">
<title>Node1&#45;&gt;Node16</title>
<path fill="none" stroke="midnightblue" d="M252.82,-526.48C264.47,-518.42 282.38,-506.02 297.63,-495.47"/>
<polygon fill="midnightblue" stroke="midnightblue" points="300,-498.09 306.23,-489.52 296.02,-492.33 300,-498.09"/>
</g>
<!-- Node3 -->
<g id="node3" class="node">
<title>Node3</title>
<g id="a_node3"><a xlink:href="bool_8h.html" target="_top" xlink:title=" ">
<polygon fill="white" stroke="black" points="99,-336.5 99,-355.5 184,-355.5 184,-336.5 99,-336.5"/>
<text text-anchor="middle" x="141.5" y="-343.5" font-family="Consolas" font-size="10.00">libccc/bool.h</text>
</a>
</g>
</g>
<!-- Node2&#45;&gt;Node3 -->
<g id="edge2" class="edge">
<title>Node2&#45;&gt;Node3</title>
<path fill="none" stroke="midnightblue" d="M217.04,-392.4C201.17,-382.86 180.31,-370.32 164.53,-360.84"/>
<polygon fill="midnightblue" stroke="midnightblue" points="166.28,-357.81 155.91,-355.66 162.67,-363.81 166.28,-357.81"/>
</g>
<!-- Node11 -->
<g id="node11" class="node">
<title>Node11</title>
<g id="a_node11"><a xlink:href="int_8h.html" target="_top" xlink:title=" ">
<polygon fill="white" stroke="black" points="0.5,-336.5 0.5,-355.5 80.5,-355.5 80.5,-336.5 0.5,-336.5"/>
<text text-anchor="middle" x="40.5" y="-343.5" font-family="Consolas" font-size="10.00">libccc/int.h</text>
</a>
</g>
</g>
<!-- Node2&#45;&gt;Node11 -->
<g id="edge14" class="edge">
<title>Node2&#45;&gt;Node11</title>
<path fill="none" stroke="midnightblue" d="M193.36,-392.47C158.4,-382.08 111.35,-368.08 78.73,-358.37"/>
<polygon fill="midnightblue" stroke="midnightblue" points="79.68,-355 69.09,-355.51 77.68,-361.71 79.68,-355"/>
</g>
<!-- Node13 -->
<g id="node13" class="node">
<title>Node13</title>
<g id="a_node13"><a xlink:href="float_8h.html" target="_top" xlink:title=" ">
<polygon fill="white" stroke="black" points="235.5,-280.5 235.5,-299.5 325.5,-299.5 325.5,-280.5 235.5,-280.5"/>
<text text-anchor="middle" x="280.5" y="-287.5" font-family="Consolas" font-size="10.00">libccc/float.h</text>
</a>
</g>
</g>
<!-- Node2&#45;&gt;Node13 -->
<g id="edge17" class="edge">
<title>Node2&#45;&gt;Node13</title>
<path fill="none" stroke="midnightblue" d="M245.4,-392.34C252.64,-371.43 266.19,-332.31 274.17,-309.27"/>
<polygon fill="midnightblue" stroke="midnightblue" points="277.53,-310.26 277.5,-299.67 270.92,-307.97 277.53,-310.26"/>
</g>
<!-- Node14 -->
<g id="node14" class="node">
<title>Node14</title>
<g id="a_node14"><a xlink:href="math_2float_8h.html" target="_top" xlink:title=" ">
<polygon fill="white" stroke="black" points="292.5,-336.5 292.5,-355.5 408.5,-355.5 408.5,-336.5 292.5,-336.5"/>
<text text-anchor="middle" x="350.5" y="-343.5" font-family="Consolas" font-size="10.00">libccc/math/float.h</text>
</a>
</g>
</g>
<!-- Node2&#45;&gt;Node14 -->
<g id="edge19" class="edge">
<title>Node2&#45;&gt;Node14</title>
<path fill="none" stroke="midnightblue" d="M266.57,-392.4C284.37,-382.77 307.81,-370.09 325.4,-360.58"/>
<polygon fill="midnightblue" stroke="midnightblue" points="327.36,-363.49 334.49,-355.66 324.03,-357.34 327.36,-363.49"/>
</g>
<!-- Node4 -->
<g id="node4" class="node">
<title>Node4</title>
<g id="a_node4"><a xlink:href="libccc_8h.html" target="_top" xlink:title=" ">
<polygon fill="white" stroke="black" points="96,-224.5 96,-243.5 155,-243.5 155,-224.5 96,-224.5"/>
<text text-anchor="middle" x="125.5" y="-231.5" font-family="Consolas" font-size="10.00">libccc.h</text>
</a>
</g>
</g>
<!-- Node3&#45;&gt;Node4 -->
<g id="edge3" class="edge">
<title>Node3&#45;&gt;Node4</title>
<path fill="none" stroke="midnightblue" d="M140.24,-336.37C137.66,-318.62 131.71,-277.67 128.21,-253.6"/>
<polygon fill="midnightblue" stroke="midnightblue" points="131.65,-252.98 126.75,-243.59 124.73,-253.99 131.65,-252.98"/>
</g>
<!-- Node10 -->
<g id="node10" class="node">
<title>Node10</title>
<g id="a_node10"><a xlink:title=" ">
<polygon fill="white" stroke="#bfbfbf" points="153.5,-280.5 153.5,-299.5 217.5,-299.5 217.5,-280.5 153.5,-280.5"/>
<text text-anchor="middle" x="185.5" y="-287.5" font-family="Consolas" font-size="10.00">stdbool.h</text>
</a>
</g>
</g>
<!-- Node3&#45;&gt;Node10 -->
<g id="edge13" class="edge">
<title>Node3&#45;&gt;Node10</title>
<path fill="none" stroke="midnightblue" d="M148.77,-336.08C155.04,-328.38 164.29,-317.03 171.93,-307.65"/>
<polygon fill="midnightblue" stroke="midnightblue" points="174.77,-309.71 178.37,-299.75 169.34,-305.29 174.77,-309.71"/>
</g>
<!-- Node5 -->
<g id="node5" class="node">
<title>Node5</title>
<g id="a_node5"><a xlink:href="libccc__define_8h.html" target="_top" xlink:title=" ">
<polygon fill="white" stroke="black" points="78,-56.5 78,-75.5 173,-75.5 173,-56.5 78,-56.5"/>
<text text-anchor="middle" x="125.5" y="-63.5" font-family="Consolas" font-size="10.00">libccc_define.h</text>
</a>
</g>
</g>
<!-- Node4&#45;&gt;Node5 -->
<g id="edge4" class="edge">
<title>Node4&#45;&gt;Node5</title>
<path fill="none" stroke="midnightblue" d="M109.5,-224.5C75.62,-205.36 2.01,-157.02 30.5,-112 40.55,-96.13 57.87,-85.74 75,-79"/>
<polygon fill="midnightblue" stroke="midnightblue" points="76.21,-82.28 84.45,-75.62 73.85,-75.69 76.21,-82.28"/>
</g>
<!-- Node7 -->
<g id="node7" class="node">
<title>Node7</title>
<g id="a_node7"><a xlink:href="libccc__errors_8h.html" target="_top" xlink:title=" ">
<polygon fill="white" stroke="black" points="40,-112.5 40,-131.5 135,-131.5 135,-112.5 40,-112.5"/>
<text text-anchor="middle" x="87.5" y="-119.5" font-family="Consolas" font-size="10.00">libccc_errors.h</text>
</a>
</g>
</g>
<!-- Node4&#45;&gt;Node7 -->
<g id="edge6" class="edge">
<title>Node4&#45;&gt;Node7</title>
<path fill="none" stroke="midnightblue" d="M121.56,-224.49C117.49,-215.53 111.11,-200.94 106.5,-188 100.96,-172.42 95.77,-154.35 92.22,-141.22"/>
<polygon fill="midnightblue" stroke="midnightblue" points="95.6,-140.29 89.65,-131.51 88.83,-142.08 95.6,-140.29"/>
</g>
<!-- Node8 -->
<g id="node8" class="node">
<title>Node8</title>
<g id="a_node8"><a xlink:href="libccc__config_8h.html" target="_top" xlink:title=" ">
<polygon fill="white" stroke="black" points="116,-168.5 116,-187.5 211,-187.5 211,-168.5 116,-168.5"/>
<text text-anchor="middle" x="163.5" y="-175.5" font-family="Consolas" font-size="10.00">libccc_config.h</text>
</a>
</g>
</g>
<!-- Node4&#45;&gt;Node8 -->
<g id="edge8" class="edge">
<title>Node4&#45;&gt;Node8</title>
<path fill="none" stroke="midnightblue" d="M131.77,-224.08C137.14,-216.46 145.02,-205.26 151.58,-195.94"/>
<polygon fill="midnightblue" stroke="midnightblue" points="154.45,-197.94 157.34,-187.75 148.72,-193.91 154.45,-197.94"/>
</g>
<!-- Node9 -->
<g id="node9" class="node">
<title>Node9</title>
<g id="a_node9"><a xlink:href="libccc__naming_8h.html" target="_top" xlink:title=" ">
<polygon fill="white" stroke="black" points="192,-112.5 192,-131.5 287,-131.5 287,-112.5 192,-112.5"/>
<text text-anchor="middle" x="239.5" y="-119.5" font-family="Consolas" font-size="10.00">libccc_naming.h</text>
</a>
</g>
</g>
<!-- Node4&#45;&gt;Node9 -->
<g id="edge11" class="edge">
<title>Node4&#45;&gt;Node9</title>
<path fill="none" stroke="midnightblue" d="M155.28,-225.61C176.02,-219.01 202.84,-207.32 219.5,-188 230.69,-175.02 235.62,-155.85 237.79,-141.69"/>
<polygon fill="midnightblue" stroke="midnightblue" points="241.28,-141.98 239.01,-131.63 234.34,-141.14 241.28,-141.98"/>
</g>
<!-- Node6 -->
<g id="node6" class="node">
<title>Node6</title>
<g id="a_node6"><a xlink:title=" ">
<polygon fill="white" stroke="#bfbfbf" points="91,-0.5 91,-19.5 160,-19.5 160,-0.5 91,-0.5"/>
<text text-anchor="middle" x="125.5" y="-7.5" font-family="Consolas" font-size="10.00">stdalign.h</text>
</a>
</g>
</g>
<!-- Node5&#45;&gt;Node6 -->
<g id="edge5" class="edge">
<title>Node5&#45;&gt;Node6</title>
<path fill="none" stroke="midnightblue" d="M125.5,-56.08C125.5,-49.01 125.5,-38.86 125.5,-29.99"/>
<polygon fill="midnightblue" stroke="midnightblue" points="129,-29.75 125.5,-19.75 122,-29.75 129,-29.75"/>
</g>
<!-- Node7&#45;&gt;Node5 -->
<g id="edge7" class="edge">
<title>Node7&#45;&gt;Node5</title>
<path fill="none" stroke="midnightblue" d="M93.77,-112.08C99.14,-104.46 107.02,-93.26 113.58,-83.94"/>
<polygon fill="midnightblue" stroke="midnightblue" points="116.45,-85.94 119.34,-75.75 110.72,-81.91 116.45,-85.94"/>
</g>
<!-- Node8&#45;&gt;Node5 -->
<g id="edge9" class="edge">
<title>Node8&#45;&gt;Node5</title>
<path fill="none" stroke="midnightblue" d="M161.01,-168.09C157.43,-155.5 150.5,-131.82 143.5,-112 140.31,-102.96 136.39,-93.06 133.03,-84.85"/>
<polygon fill="midnightblue" stroke="midnightblue" points="136.23,-83.44 129.16,-75.55 129.77,-86.12 136.23,-83.44"/>
</g>
<!-- Node8&#45;&gt;Node7 -->
<g id="edge10" class="edge">
<title>Node8&#45;&gt;Node7</title>
<path fill="none" stroke="midnightblue" d="M151.29,-168.32C139.72,-160.11 122.12,-147.6 108.34,-137.81"/>
<polygon fill="midnightblue" stroke="midnightblue" points="110.11,-134.77 99.93,-131.83 106.06,-140.48 110.11,-134.77"/>
</g>
<!-- Node9&#45;&gt;Node5 -->
<g id="edge12" class="edge">
<title>Node9&#45;&gt;Node5</title>
<path fill="none" stroke="midnightblue" d="M221.44,-112.44C202.93,-103.68 173.92,-89.94 152.64,-79.86"/>
<polygon fill="midnightblue" stroke="midnightblue" points="154.01,-76.63 143.48,-75.52 151.02,-82.96 154.01,-76.63"/>
</g>
<!-- Node11&#45;&gt;Node4 -->
<g id="edge16" class="edge">
<title>Node11&#45;&gt;Node4</title>
<path fill="none" stroke="midnightblue" d="M47.17,-336.37C61.26,-318.14 94.26,-275.43 112.61,-251.68"/>
<polygon fill="midnightblue" stroke="midnightblue" points="115.52,-253.64 118.86,-243.59 109.98,-249.36 115.52,-253.64"/>
</g>
<!-- Node12 -->
<g id="node12" class="node">
<title>Node12</title>
<g id="a_node12"><a xlink:title=" ">
<polygon fill="white" stroke="#bfbfbf" points="0,-280.5 0,-299.5 59,-299.5 59,-280.5 0,-280.5"/>
<text text-anchor="middle" x="29.5" y="-287.5" font-family="Consolas" font-size="10.00">stdint.h</text>
</a>
</g>
</g>
<!-- Node11&#45;&gt;Node12 -->
<g id="edge15" class="edge">
<title>Node11&#45;&gt;Node12</title>
<path fill="none" stroke="midnightblue" d="M38.68,-336.08C37.23,-328.93 35.13,-318.64 33.31,-309.69"/>
<polygon fill="midnightblue" stroke="midnightblue" points="36.71,-308.85 31.28,-299.75 29.85,-310.25 36.71,-308.85"/>
</g>
<!-- Node13&#45;&gt;Node4 -->
<g id="edge18" class="edge">
<title>Node13&#45;&gt;Node4</title>
<path fill="none" stroke="midnightblue" d="M255.94,-280.44C229.98,-271.4 188.83,-257.06 159.7,-246.92"/>
<polygon fill="midnightblue" stroke="midnightblue" points="160.54,-243.5 149.95,-243.52 158.24,-250.11 160.54,-243.5"/>
</g>
<!-- Node14&#45;&gt;Node13 -->
<g id="edge20" class="edge">
<title>Node14&#45;&gt;Node13</title>
<path fill="none" stroke="midnightblue" d="M339.25,-336.32C328.7,-328.18 312.7,-315.84 300.06,-306.09"/>
<polygon fill="midnightblue" stroke="midnightblue" points="302.01,-303.17 291.95,-299.83 297.73,-308.71 302.01,-303.17"/>
</g>
<!-- Node15&#45;&gt;Node2 -->
<g id="edge26" class="edge">
<title>Node15&#45;&gt;Node2</title>
<path fill="none" stroke="midnightblue" d="M173.16,-459.4C184.99,-450.45 200.49,-438.74 213.64,-428.8"/>
<polygon fill="midnightblue" stroke="midnightblue" points="216.01,-431.4 221.88,-422.58 211.79,-425.81 216.01,-431.4"/>
</g>
<!-- Node15&#45;&gt;Node3 -->
<g id="edge22" class="edge">
<title>Node15&#45;&gt;Node3</title>
<path fill="none" stroke="midnightblue" d="M149.4,-459.13C146.13,-449.14 142.19,-435.44 140.5,-423 138.64,-409.35 140.35,-405.78 140.5,-392 140.6,-383.4 140.79,-373.87 140.99,-365.8"/>
<polygon fill="midnightblue" stroke="midnightblue" points="144.49,-365.71 141.25,-355.63 137.49,-365.53 144.49,-365.71"/>
</g>
<!-- Node15&#45;&gt;Node11 -->
<g id="edge23" class="edge">
<title>Node15&#45;&gt;Node11</title>
<path fill="none" stroke="midnightblue" d="M115.41,-459.39C97.66,-451.21 77.72,-439.26 64.5,-423 51.17,-406.6 45.2,-382.71 42.56,-366.11"/>
<polygon fill="midnightblue" stroke="midnightblue" points="45.99,-365.42 41.21,-355.97 39.06,-366.34 45.99,-365.42"/>
</g>
<!-- Node15&#45;&gt;Node13 -->
<g id="edge24" class="edge">
<title>Node15&#45;&gt;Node13</title>
<path fill="none" stroke="midnightblue" d="M155.33,-459.34C156.85,-442.33 161.19,-413.41 173.5,-392 194.93,-354.72 234.44,-322.8 258.99,-305.31"/>
<polygon fill="midnightblue" stroke="midnightblue" points="261.08,-308.11 267.29,-299.53 257.08,-302.37 261.08,-308.11"/>
</g>
<!-- Node15&#45;&gt;Node14 -->
<g id="edge25" class="edge">
<title>Node15&#45;&gt;Node14</title>
<path fill="none" stroke="midnightblue" d="M212.83,-464.71C243.66,-457.64 280.58,-445.1 307.5,-423 326.03,-407.79 338.08,-382.36 344.58,-365.15"/>
<polygon fill="midnightblue" stroke="midnightblue" points="347.9,-366.25 347.92,-355.66 341.3,-363.93 347.9,-366.25"/>
</g>
<!-- Node16&#45;&gt;Node2 -->
<g id="edge32" class="edge">
<title>Node16&#45;&gt;Node2</title>
<path fill="none" stroke="midnightblue" d="M307.84,-459.4C296.01,-450.45 280.51,-438.74 267.36,-428.8"/>
<polygon fill="midnightblue" stroke="midnightblue" points="269.21,-425.81 259.12,-422.58 264.99,-431.4 269.21,-425.81"/>
</g>
<!-- Node16&#45;&gt;Node3 -->
<g id="edge28" class="edge">
<title>Node16&#45;&gt;Node3</title>
<path fill="none" stroke="midnightblue" d="M327.3,-459.37C327.52,-441.31 325.05,-410.19 307.5,-392 278.31,-361.75 231.03,-351.16 194.38,-347.76"/>
<polygon fill="midnightblue" stroke="midnightblue" points="194.59,-344.27 184.35,-346.98 194.05,-351.24 194.59,-344.27"/>
</g>
<!-- Node16&#45;&gt;Node11 -->
<g id="edge29" class="edge">
<title>Node16&#45;&gt;Node11</title>
<path fill="none" stroke="midnightblue" d="M275.58,-459.49C245.35,-450.49 206.59,-437.74 173.5,-423 132.61,-404.79 87.99,-377.67 62.22,-361.23"/>
<polygon fill="midnightblue" stroke="midnightblue" points="63.93,-358.16 53.63,-355.69 60.14,-364.05 63.93,-358.16"/>
</g>
<!-- Node16&#45;&gt;Node13 -->
<g id="edge30" class="edge">
<title>Node16&#45;&gt;Node13</title>
<path fill="none" stroke="midnightblue" d="M352.5,-459.44C366.66,-450.62 383.48,-438.08 394.5,-423 418.11,-390.71 440.96,-368.39 417.5,-336 398.92,-310.33 365.22,-299.05 335.89,-294.2"/>
<polygon fill="midnightblue" stroke="midnightblue" points="336.13,-290.69 325.73,-292.73 335.13,-297.62 336.13,-290.69"/>
</g>
<!-- Node16&#45;&gt;Node14 -->
<g id="edge31" class="edge">
<title>Node16&#45;&gt;Node14</title>
<path fill="none" stroke="midnightblue" d="M347.8,-459.38C359.23,-450.46 372.23,-437.84 378.5,-423 387.01,-402.86 374.86,-379.15 364,-363.64"/>
<polygon fill="midnightblue" stroke="midnightblue" points="366.72,-361.43 357.92,-355.54 361.12,-365.64 366.72,-361.43"/>
</g>
</g>
</svg>
