<?xml version="1.0" encoding="UTF-8" standalone="no"?>
<!DOCTYPE svg PUBLIC "-//W3C//DTD SVG 1.1//EN"
 "http://www.w3.org/Graphics/SVG/1.1/DTD/svg11.dtd">
<!-- Generated by graphviz version 2.49.3 (20211023.0002)
 -->
<!-- Title: libccc/math/algebra.h Pages: 1 -->
<!--zoomable 554 -->
<svg id="main" version="1.1" xmlns="http://www.w3.org/2000/svg" xmlns:xlink="http://www.w3.org/1999/xlink" xml:space="preserve" onload="init(evt)">
<style type="text/css"><![CDATA[
.edge:hover path { stroke: red; }
.edge:hover polygon { stroke: red; fill: red; }
]]></style>
<script type="text/javascript"><![CDATA[
var edges = document.getElementsByTagName('g');
if (edges && edges.length) {
  for (var i=0;i<edges.length;i++) {
    if (edges[i].id.substr(0,4)=='edge') {
      edges[i].setAttribute('class','edge');
    }
  }
}
]]></script>
        <defs>
                <circle id="rim" cx="0" cy="0" r="7"/>
                <circle id="rim2" cx="0" cy="0" r="3.5"/>
                <g id="zoomPlus">
                        <use xlink:href="#rim" fill="#404040">
                                <set attributeName="fill" to="#808080" begin="zoomplus.mouseover" end="zoomplus.mouseout"/>
                        </use>
                        <path d="M-4,0h8M0,-4v8" fill="none" stroke="white" stroke-width="1.5" pointer-events="none"/>
                </g>
                <g id="zoomMin">
                        <use xlink:href="#rim" fill="#404040">
                                <set attributeName="fill" to="#808080" begin="zoomminus.mouseover" end="zoomminus.mouseout"/>
                        </use>
                        <path d="M-4,0h8" fill="none" stroke="white" stroke-width="1.5" pointer-events="none"/>
                </g>
                <g id="dirArrow">
                        <path fill="none" stroke="white" stroke-width="1.5" d="M0,-3.0v7 M-2.5,-0.5L0,-3.0L2.5,-0.5"/>
                </g>
               <g id="resetDef">
                       <use xlink:href="#rim2" fill="#404040">
                               <set attributeName="fill" to="#808080" begin="reset.mouseover" end="reset.mouseout"/>
                       </use>
               </g>
        </defs>

<script type="text/javascript">
var viewWidth = 409;
var viewHeight = 554;
var sectionId = 'dynsection-0';
</script>
<script xlink:href="svgpan.js"/>
<svg id="graph" class="graph">
<g id="viewport">
<title>libccc/math/algebra.h</title>
<polygon fill="white" stroke="transparent" points="-4,4 -4,-550 404.5,-550 404.5,4 -4,4"/>
<!-- Node1 -->
<g id="node1" class="node">
<title>Node1</title>
<g id="a_node1"><a xlink:title=" ">
<polygon fill="#bfbfbf" stroke="black" points="177.5,-526.5 177.5,-545.5 287.5,-545.5 287.5,-526.5 177.5,-526.5"/>
<text text-anchor="middle" x="232.5" y="-533.5" font-family="Consolas" font-size="10.00">libccc/math/algebra.h</text>
</a>
</g>
</g>
<!-- Node2 -->
<g id="node2" class="node">
<title>Node2</title>
<g id="a_node2"><a xlink:href="vector_8h.html" target="_top" xlink:title=" ">
<polygon fill="white" stroke="black" points="182,-392.5 182,-422.5 283,-422.5 283,-392.5 182,-392.5"/>
<text text-anchor="start" x="190" y="-410.5" font-family="Consolas" font-size="10.00">libccc/math/algebra</text>
<text text-anchor="middle" x="232.5" y="-399.5" font-family="Consolas" font-size="10.00">/vector.h</text>
</a>
</g>
</g>
<!-- Node1&#45;&gt;Node2 -->
<g id="edge1" class="edge">
<title>Node1&#45;&gt;Node2</title>
<path fill="none" stroke="midnightblue" d="M232.5,-526.31C232.5,-507.3 232.5,-461.47 232.5,-432.9"/>
<polygon fill="midnightblue" stroke="midnightblue" points="236,-432.89 232.5,-422.89 229,-432.89 236,-432.89"/>
</g>
<!-- Node15 -->
<g id="node15" class="node">
<title>Node15</title>
<g id="a_node15"><a xlink:href="matrix_8h.html" target="_top" xlink:title=" ">
<polygon fill="white" stroke="black" points="103,-459.5 103,-489.5 204,-489.5 204,-459.5 103,-459.5"/>
<text text-anchor="start" x="111" y="-477.5" font-family="Consolas" font-size="10.00">libccc/math/algebra</text>
<text text-anchor="middle" x="153.5" y="-466.5" font-family="Consolas" font-size="10.00">/matrix.h</text>
</a>
</g>
</g>
<!-- Node1&#45;&gt;Node15 -->
<g id="edge21" class="edge">
<title>Node1&#45;&gt;Node15</title>
<path fill="none" stroke="midnightblue" d="M221.18,-526.48C210.58,-518.49 194.33,-506.25 180.41,-495.77"/>
<polygon fill="midnightblue" stroke="midnightblue" points="182.21,-492.74 172.12,-489.52 178,-498.33 182.21,-492.74"/>
</g>
<!-- Node16 -->
<g id="node16" class="node">
<title>Node16</title>
<g id="a_node16"><a xlink:href="interval_8h.html" target="_top" xlink:title=" ">
<polygon fill="white" stroke="black" points="261,-459.5 261,-489.5 362,-489.5 362,-459.5 261,-459.5"/>
<text text-anchor="start" x="269" y="-477.5" font-family="Consolas" font-size="10.00">libccc/math/algebra</text>
<text text-anchor="middle" x="311.5" y="-466.5" font-family="Consolas" font-size="10.00">/interval.h</text>
</a>
</g>
</g>
<!-- Node1&#45;&gt;Node16 -->
<g id="edge27" class="edge">
<title>Node1&#45;&gt;Node16</title>
<path fill="none" stroke="midnightblue" d="M243.82,-526.48C254.42,-518.49 270.67,-506.25 284.59,-495.77"/>
<polygon fill="midnightblue" stroke="midnightblue" points="287,-498.33 292.88,-489.52 282.79,-492.74 287,-498.33"/>
</g>
<!-- Node3 -->
<g id="node3" class="node">
<title>Node3</title>
<g id="a_node3"><a xlink:href="bool_8h.html" target="_top" xlink:title=" ">
<polygon fill="white" stroke="black" points="90,-336.5 90,-355.5 161,-355.5 161,-336.5 90,-336.5"/>
<text text-anchor="middle" x="125.5" y="-343.5" font-family="Consolas" font-size="10.00">libccc/bool.h</text>
</a>
</g>
</g>
<!-- Node2&#45;&gt;Node3 -->
<g id="edge2" class="edge">
<title>Node2&#45;&gt;Node3</title>
<path fill="none" stroke="midnightblue" d="M207.14,-392.4C189.83,-382.77 167.02,-370.09 149.92,-360.58"/>
<polygon fill="midnightblue" stroke="midnightblue" points="151.51,-357.46 141.07,-355.66 148.11,-363.58 151.51,-357.46"/>
</g>
<!-- Node11 -->
<g id="node11" class="node">
<title>Node11</title>
<g id="a_node11"><a xlink:href="int_8h.html" target="_top" xlink:title=" ">
<polygon fill="white" stroke="black" points="7.5,-336.5 7.5,-355.5 71.5,-355.5 71.5,-336.5 7.5,-336.5"/>
<text text-anchor="middle" x="39.5" y="-343.5" font-family="Consolas" font-size="10.00">libccc/int.h</text>
</a>
</g>
</g>
<!-- Node2&#45;&gt;Node11 -->
<g id="edge14" class="edge">
<title>Node2&#45;&gt;Node11</title>
<path fill="none" stroke="midnightblue" d="M186.76,-392.4C153.27,-382.07 108.37,-368.23 76.98,-358.56"/>
<polygon fill="midnightblue" stroke="midnightblue" points="77.89,-355.17 67.3,-355.57 75.83,-361.86 77.89,-355.17"/>
</g>
<!-- Node13 -->
<g id="node13" class="node">
<title>Node13</title>
<g id="a_node13"><a xlink:href="float_8h.html" target="_top" xlink:title=" ">
<polygon fill="white" stroke="black" points="217.5,-280.5 217.5,-299.5 289.5,-299.5 289.5,-280.5 217.5,-280.5"/>
<text text-anchor="middle" x="253.5" y="-287.5" font-family="Consolas" font-size="10.00">libccc/float.h</text>
</a>
</g>
</g>
<!-- Node2&#45;&gt;Node13 -->
<g id="edge17" class="edge">
<title>Node2&#45;&gt;Node13</title>
<path fill="none" stroke="midnightblue" d="M235.08,-392.34C238.86,-371.53 245.92,-332.66 250.12,-309.58"/>
<polygon fill="midnightblue" stroke="midnightblue" points="253.58,-310.13 251.92,-299.67 246.69,-308.88 253.58,-310.13"/>
</g>
<!-- Node14 -->
<g id="node14" class="node">
<title>Node14</title>
<g id="a_node14"><a xlink:href="math_2float_8h.html" target="_top" xlink:title=" ">
<polygon fill="white" stroke="black" points="281,-336.5 281,-355.5 378,-355.5 378,-336.5 281,-336.5"/>
<text text-anchor="middle" x="329.5" y="-343.5" font-family="Consolas" font-size="10.00">libccc/math/float.h</text>
</a>
</g>
</g>
<!-- Node2&#45;&gt;Node14 -->
<g id="edge19" class="edge">
<title>Node2&#45;&gt;Node14</title>
<path fill="none" stroke="midnightblue" d="M255.49,-392.4C270.89,-382.95 291.09,-370.56 306.5,-361.11"/>
<polygon fill="midnightblue" stroke="midnightblue" points="308.69,-363.87 315.39,-355.66 305.03,-357.9 308.69,-363.87"/>
</g>
<!-- Node4 -->
<g id="node4" class="node">
<title>Node4</title>
<g id="a_node4"><a xlink:href="libccc_8h.html" target="_top" xlink:title=" ">
<polygon fill="white" stroke="black" points="90.5,-224.5 90.5,-243.5 140.5,-243.5 140.5,-224.5 90.5,-224.5"/>
<text text-anchor="middle" x="115.5" y="-231.5" font-family="Consolas" font-size="10.00">libccc.h</text>
</a>
</g>
</g>
<!-- Node3&#45;&gt;Node4 -->
<g id="edge3" class="edge">
<title>Node3&#45;&gt;Node4</title>
<path fill="none" stroke="midnightblue" d="M124.72,-336.37C123.1,-318.62 119.38,-277.67 117.19,-253.6"/>
<polygon fill="midnightblue" stroke="midnightblue" points="120.67,-253.23 116.28,-243.59 113.7,-253.87 120.67,-253.23"/>
</g>
<!-- Node10 -->
<g id="node10" class="node">
<title>Node10</title>
<g id="a_node10"><a xlink:title=" ">
<polygon fill="white" stroke="#bfbfbf" points="143.5,-280.5 143.5,-299.5 199.5,-299.5 199.5,-280.5 143.5,-280.5"/>
<text text-anchor="middle" x="171.5" y="-287.5" font-family="Consolas" font-size="10.00">stdbool.h</text>
</a>
</g>
</g>
<!-- Node3&#45;&gt;Node10 -->
<g id="edge13" class="edge">
<title>Node3&#45;&gt;Node10</title>
<path fill="none" stroke="midnightblue" d="M133.1,-336.08C139.73,-328.3 149.52,-316.8 157.56,-307.37"/>
<polygon fill="midnightblue" stroke="midnightblue" points="160.23,-309.63 164.05,-299.75 154.9,-305.09 160.23,-309.63"/>
</g>
<!-- Node5 -->
<g id="node5" class="node">
<title>Node5</title>
<g id="a_node5"><a xlink:href="libccc__define_8h.html" target="_top" xlink:title=" ">
<polygon fill="white" stroke="black" points="75.5,-56.5 75.5,-75.5 157.5,-75.5 157.5,-56.5 75.5,-56.5"/>
<text text-anchor="middle" x="116.5" y="-63.5" font-family="Consolas" font-size="10.00">libccc_define.h</text>
</a>
</g>
</g>
<!-- Node4&#45;&gt;Node5 -->
<g id="edge4" class="edge">
<title>Node4&#45;&gt;Node5</title>
<path fill="none" stroke="midnightblue" d="M101.72,-224.42C72.19,-204.93 7.54,-155.61 33.5,-112 42.6,-96.72 58.89,-86.31 74.64,-79.39"/>
<polygon fill="midnightblue" stroke="midnightblue" points="76.33,-82.48 84.32,-75.51 73.73,-75.98 76.33,-82.48"/>
</g>
<!-- Node7 -->
<g id="node7" class="node">
<title>Node7</title>
<g id="a_node7"><a xlink:href="libccc__errors_8h.html" target="_top" xlink:title=" ">
<polygon fill="white" stroke="black" points="42.5,-112.5 42.5,-131.5 122.5,-131.5 122.5,-112.5 42.5,-112.5"/>
<text text-anchor="middle" x="82.5" y="-119.5" font-family="Consolas" font-size="10.00">libccc_errors.h</text>
</a>
</g>
</g>
<!-- Node4&#45;&gt;Node7 -->
<g id="edge6" class="edge">
<title>Node4&#45;&gt;Node7</title>
<path fill="none" stroke="midnightblue" d="M112.49,-224.42C109.36,-215.39 104.39,-200.76 100.5,-188 95.75,-172.42 90.85,-154.59 87.36,-141.55"/>
<polygon fill="midnightblue" stroke="midnightblue" points="90.74,-140.64 84.8,-131.87 83.98,-142.44 90.74,-140.64"/>
</g>
<!-- Node8 -->
<g id="node8" class="node">
<title>Node8</title>
<g id="a_node8"><a xlink:href="libccc__config_8h.html" target="_top" xlink:title=" ">
<polygon fill="white" stroke="black" points="109.5,-168.5 109.5,-187.5 191.5,-187.5 191.5,-168.5 109.5,-168.5"/>
<text text-anchor="middle" x="150.5" y="-175.5" font-family="Consolas" font-size="10.00">libccc_config.h</text>
</a>
</g>
</g>
<!-- Node4&#45;&gt;Node8 -->
<g id="edge8" class="edge">
<title>Node4&#45;&gt;Node8</title>
<path fill="none" stroke="midnightblue" d="M121.28,-224.08C126.17,-216.53 133.33,-205.49 139.33,-196.23"/>
<polygon fill="midnightblue" stroke="midnightblue" points="142.33,-198.05 144.83,-187.75 136.45,-194.24 142.33,-198.05"/>
</g>
<!-- Node9 -->
<g id="node9" class="node">
<title>Node9</title>
<g id="a_node9"><a xlink:href="libccc__naming_8h.html" target="_top" xlink:title=" ">
<polygon fill="white" stroke="black" points="179,-112.5 179,-131.5 266,-131.5 266,-112.5 179,-112.5"/>
<text text-anchor="middle" x="222.5" y="-119.5" font-family="Consolas" font-size="10.00">libccc_naming.h</text>
</a>
</g>
</g>
<!-- Node4&#45;&gt;Node9 -->
<g id="edge11" class="edge">
<title>Node4&#45;&gt;Node9</title>
<path fill="none" stroke="midnightblue" d="M140.73,-225.36C159.62,-218.43 184.81,-206.44 200.5,-188 211.71,-174.83 217.28,-155.69 220,-141.59"/>
<polygon fill="midnightblue" stroke="midnightblue" points="223.48,-142 221.63,-131.57 216.57,-140.88 223.48,-142"/>
</g>
<!-- Node6 -->
<g id="node6" class="node">
<title>Node6</title>
<g id="a_node6"><a xlink:title=" ">
<polygon fill="white" stroke="#bfbfbf" points="87,-0.5 87,-19.5 146,-19.5 146,-0.5 87,-0.5"/>
<text text-anchor="middle" x="116.5" y="-7.5" font-family="Consolas" font-size="10.00">stdalign.h</text>
</a>
</g>
</g>
<!-- Node5&#45;&gt;Node6 -->
<g id="edge5" class="edge">
<title>Node5&#45;&gt;Node6</title>
<path fill="none" stroke="midnightblue" d="M116.5,-56.08C116.5,-49.01 116.5,-38.86 116.5,-29.99"/>
<polygon fill="midnightblue" stroke="midnightblue" points="120,-29.75 116.5,-19.75 113,-29.75 120,-29.75"/>
</g>
<!-- Node7&#45;&gt;Node5 -->
<g id="edge7" class="edge">
<title>Node7&#45;&gt;Node5</title>
<path fill="none" stroke="midnightblue" d="M88.11,-112.08C92.87,-104.53 99.82,-93.49 105.65,-84.23"/>
<polygon fill="midnightblue" stroke="midnightblue" points="108.62,-86.08 110.99,-75.75 102.7,-82.35 108.62,-86.08"/>
</g>
<!-- Node8&#45;&gt;Node5 -->
<g id="edge9" class="edge">
<title>Node8&#45;&gt;Node5</title>
<path fill="none" stroke="midnightblue" d="M148.02,-168.14C144.49,-155.6 137.75,-131.97 131.5,-112 128.73,-103.15 125.5,-93.37 122.74,-85.2"/>
<polygon fill="midnightblue" stroke="midnightblue" points="126.01,-83.94 119.47,-75.6 119.38,-86.19 126.01,-83.94"/>
</g>
<!-- Node8&#45;&gt;Node7 -->
<g id="edge10" class="edge">
<title>Node8&#45;&gt;Node7</title>
<path fill="none" stroke="midnightblue" d="M139.57,-168.32C129.33,-160.18 113.78,-147.84 101.5,-138.09"/>
<polygon fill="midnightblue" stroke="midnightblue" points="103.63,-135.31 93.62,-131.83 99.28,-140.79 103.63,-135.31"/>
</g>
<!-- Node9&#45;&gt;Node5 -->
<g id="edge12" class="edge">
<title>Node9&#45;&gt;Node5</title>
<path fill="none" stroke="midnightblue" d="M205.47,-112.32C188.47,-103.66 162.12,-90.24 142.51,-80.25"/>
<polygon fill="midnightblue" stroke="midnightblue" points="143.99,-77.08 133.49,-75.65 140.81,-83.31 143.99,-77.08"/>
</g>
<!-- Node11&#45;&gt;Node4 -->
<g id="edge16" class="edge">
<title>Node11&#45;&gt;Node4</title>
<path fill="none" stroke="midnightblue" d="M45.46,-336.37C58.01,-318.22 87.31,-275.8 103.76,-251.99"/>
<polygon fill="midnightblue" stroke="midnightblue" points="106.76,-253.81 109.56,-243.59 101,-249.83 106.76,-253.81"/>
</g>
<!-- Node12 -->
<g id="node12" class="node">
<title>Node12</title>
<g id="a_node12"><a xlink:title=" ">
<polygon fill="white" stroke="#bfbfbf" points="0,-280.5 0,-299.5 49,-299.5 49,-280.5 0,-280.5"/>
<text text-anchor="middle" x="24.5" y="-287.5" font-family="Consolas" font-size="10.00">stdint.h</text>
</a>
</g>
</g>
<!-- Node11&#45;&gt;Node12 -->
<g id="edge15" class="edge">
<title>Node11&#45;&gt;Node12</title>
<path fill="none" stroke="midnightblue" d="M37.02,-336.08C35.01,-328.85 32.11,-318.41 29.61,-309.4"/>
<polygon fill="midnightblue" stroke="midnightblue" points="32.98,-308.45 26.93,-299.75 26.24,-310.32 32.98,-308.45"/>
</g>
<!-- Node13&#45;&gt;Node4 -->
<g id="edge18" class="edge">
<title>Node13&#45;&gt;Node4</title>
<path fill="none" stroke="midnightblue" d="M231.63,-280.44C208.72,-271.48 172.52,-257.31 146.63,-247.18"/>
<polygon fill="midnightblue" stroke="midnightblue" points="147.85,-243.9 137.26,-243.52 145.3,-250.42 147.85,-243.9"/>
</g>
<!-- Node14&#45;&gt;Node13 -->
<g id="edge20" class="edge">
<title>Node14&#45;&gt;Node13</title>
<path fill="none" stroke="midnightblue" d="M317.29,-336.32C305.72,-328.11 288.12,-315.6 274.34,-305.81"/>
<polygon fill="midnightblue" stroke="midnightblue" points="276.11,-302.77 265.93,-299.83 272.06,-308.48 276.11,-302.77"/>
</g>
<!-- Node15&#45;&gt;Node2 -->
<g id="edge26" class="edge">
<title>Node15&#45;&gt;Node2</title>
<path fill="none" stroke="midnightblue" d="M170.64,-459.4C181.41,-450.54 195.48,-438.96 207.48,-429.09"/>
<polygon fill="midnightblue" stroke="midnightblue" points="209.89,-431.63 215.39,-422.58 205.45,-426.23 209.89,-431.63"/>
</g>
<!-- Node15&#45;&gt;Node3 -->
<g id="edge22" class="edge">
<title>Node15&#45;&gt;Node3</title>
<path fill="none" stroke="midnightblue" d="M149.24,-459.44C146.28,-449.35 142.36,-435.41 139.5,-423 135.09,-403.83 131.14,-381.69 128.57,-366.27"/>
<polygon fill="midnightblue" stroke="midnightblue" points="131.95,-365.25 126.88,-355.94 125.04,-366.38 131.95,-365.25"/>
</g>
<!-- Node15&#45;&gt;Node11 -->
<g id="edge23" class="edge">
<title>Node15&#45;&gt;Node11</title>
<path fill="none" stroke="midnightblue" d="M114.41,-459.39C96.66,-451.21 76.72,-439.26 63.5,-423 50.17,-406.6 44.2,-382.71 41.56,-366.11"/>
<polygon fill="midnightblue" stroke="midnightblue" points="44.99,-365.42 40.21,-355.97 38.06,-366.34 44.99,-365.42"/>
</g>
<!-- Node15&#45;&gt;Node13 -->
<g id="edge24" class="edge">
<title>Node15&#45;&gt;Node13</title>
<path fill="none" stroke="midnightblue" d="M154.87,-459.31C156.92,-442.53 161.76,-414.08 172.5,-392 189.01,-358.04 218.73,-325.15 237.22,-306.56"/>
<polygon fill="midnightblue" stroke="midnightblue" points="239.71,-309.02 244.38,-299.5 234.8,-304.03 239.71,-309.02"/>
</g>
<!-- Node15&#45;&gt;Node14 -->
<g id="edge25" class="edge">
<title>Node15&#45;&gt;Node14</title>
<path fill="none" stroke="midnightblue" d="M204.23,-464.56C232.64,-457.38 267.14,-444.75 291.5,-423 308.74,-407.6 319.11,-382.59 324.56,-365.49"/>
<polygon fill="midnightblue" stroke="midnightblue" points="328.01,-366.16 327.46,-355.58 321.29,-364.2 328.01,-366.16"/>
</g>
<!-- Node16&#45;&gt;Node2 -->
<g id="edge32" class="edge">
<title>Node16&#45;&gt;Node2</title>
<path fill="none" stroke="midnightblue" d="M294.36,-459.4C283.59,-450.54 269.52,-438.96 257.52,-429.09"/>
<polygon fill="midnightblue" stroke="midnightblue" points="259.55,-426.23 249.61,-422.58 255.11,-431.63 259.55,-426.23"/>
</g>
<!-- Node16&#45;&gt;Node3 -->
<g id="edge28" class="edge">
<title>Node16&#45;&gt;Node3</title>
<path fill="none" stroke="midnightblue" d="M312.11,-459.35C312.08,-441.27 309.21,-410.14 291.5,-392 260.23,-359.97 208.66,-350.02 171.29,-347.28"/>
<polygon fill="midnightblue" stroke="midnightblue" points="171.34,-343.77 161.15,-346.68 170.93,-350.76 171.34,-343.77"/>
</g>
<!-- Node16&#45;&gt;Node11 -->
<g id="edge29" class="edge">
<title>Node16&#45;&gt;Node11</title>
<path fill="none" stroke="midnightblue" d="M266.9,-459.46C239.25,-450.23 203.25,-437.25 172.5,-423 131.88,-404.18 87.18,-377.25 61.32,-361.01"/>
<polygon fill="midnightblue" stroke="midnightblue" points="63.01,-357.94 52.69,-355.55 59.27,-363.86 63.01,-357.94"/>
</g>
<!-- Node16&#45;&gt;Node13 -->
<g id="edge30" class="edge">
<title>Node16&#45;&gt;Node13</title>
<path fill="none" stroke="midnightblue" d="M340.15,-459.44C354.38,-450.92 370.43,-438.65 379.5,-423 398.98,-389.41 410.17,-367.53 387.5,-336 367.61,-308.34 329.9,-297.45 299.53,-293.27"/>
<polygon fill="midnightblue" stroke="midnightblue" points="299.89,-289.79 289.55,-292.1 299.07,-296.74 299.89,-289.79"/>
</g>
<!-- Node16&#45;&gt;Node14 -->
<g id="edge31" class="edge">
<title>Node16&#45;&gt;Node14</title>
<path fill="none" stroke="midnightblue" d="M332.8,-459.38C344.23,-450.46 357.23,-437.84 363.5,-423 368.87,-410.31 367.88,-405.06 363.5,-392 359.9,-381.25 352.6,-371.02 345.68,-363.04"/>
<polygon fill="midnightblue" stroke="midnightblue" points="348.15,-360.56 338.79,-355.61 343.02,-365.32 348.15,-360.56"/>
</g>
</g>
</svg>
        <g id="navigator" transform="translate(0 0)" fill="#404254">
                <rect fill="#f2f5e9" fill-opacity="0.5" stroke="#606060" stroke-width=".5" x="0" y="0" width="60" height="60"/>
                <use id="zoomplus" xlink:href="#zoomPlus" x="17" y="9" onmousedown="handleZoom(evt,'in')"/>
                <use id="zoomminus" xlink:href="#zoomMin" x="42" y="9" onmousedown="handleZoom(evt,'out')"/>
                <use id="reset" xlink:href="#resetDef" x="30" y="36" onmousedown="handleReset()"/>
                <g id="arrowUp" xlink:href="#dirArrow" transform="translate(30 24)" onmousedown="handlePan(0,-1)">
                  <use xlink:href="#rim" fill="#404040">
                        <set attributeName="fill" to="#808080" begin="arrowUp.mouseover" end="arrowUp.mouseout"/>
                  </use>
                  <path fill="none" stroke="white" stroke-width="1.5" d="M0,-3.0v7 M-2.5,-0.5L0,-3.0L2.5,-0.5"/>
                </g>
                <g id="arrowRight" xlink:href="#dirArrow" transform="rotate(90) translate(36 -43)" onmousedown="handlePan(1,0)">
                  <use xlink:href="#rim" fill="#404040">
                        <set attributeName="fill" to="#808080" begin="arrowRight.mouseover" end="arrowRight.mouseout"/>
                  </use>
                  <path fill="none" stroke="white" stroke-width="1.5" d="M0,-3.0v7 M-2.5,-0.5L0,-3.0L2.5,-0.5"/>
                </g>
                <g id="arrowDown" xlink:href="#dirArrow" transform="rotate(180) translate(-30 -48)" onmousedown="handlePan(0,1)">
                  <use xlink:href="#rim" fill="#404040">
                        <set attributeName="fill" to="#808080" begin="arrowDown.mouseover" end="arrowDown.mouseout"/>
                  </use>
                  <path fill="none" stroke="white" stroke-width="1.5" d="M0,-3.0v7 M-2.5,-0.5L0,-3.0L2.5,-0.5"/>
                </g>
                <g id="arrowLeft" xlink:href="#dirArrow" transform="rotate(270) translate(-36 17)" onmousedown="handlePan(-1,0)">
                  <use xlink:href="#rim" fill="#404040">
                        <set attributeName="fill" to="#808080" begin="arrowLeft.mouseover" end="arrowLeft.mouseout"/>
                  </use>
                  <path fill="none" stroke="white" stroke-width="1.5" d="M0,-3.0v7 M-2.5,-0.5L0,-3.0L2.5,-0.5"/>
                </g>
        </g>
        <svg viewBox="0 0 15 15" width="100%" height="30px" preserveAspectRatio="xMaxYMin meet">
         <g id="arrow_out" transform="scale(0.3 0.3)">
          <a xlink:href="algebra_8h__incl_org.svg" target="_base">
           <rect id="button" ry="5" rx="5" y="6" x="6" height="38" width="38"
                fill="#f2f5e9" fill-opacity="0.5" stroke="#606060" stroke-width="1.0"/>
           <path id="arrow"
             d="M 11.500037,31.436501 C 11.940474,20.09759 22.043105,11.32322 32.158766,21.979434 L 37.068811,17.246167 C 37.068811,17.246167 37.088388,32 37.088388,32 L 22.160133,31.978069 C 22.160133,31.978069 26.997745,27.140456 26.997745,27.140456 C 18.528582,18.264221 13.291696,25.230495 11.500037,31.436501 z"
             style="fill:#404040;"/>
          </a>
         </g>
        </svg>
</svg>
