<?xml version="1.0" encoding="UTF-8" standalone="no"?>
<!DOCTYPE svg PUBLIC "-//W3C//DTD SVG 1.1//EN"
 "http://www.w3.org/Graphics/SVG/1.1/DTD/svg11.dtd">
<!-- Generated by graphviz version 2.43.0 (0)
 -->
<!-- Title: libccc/math/algebra.h Pages: 1 -->
<!--zoomable 498 -->
<svg id="main" version="1.1" xmlns="http://www.w3.org/2000/svg" xmlns:xlink="http://www.w3.org/1999/xlink" xml:space="preserve" onload="init(evt)">
<style type="text/css"><![CDATA[
.edge:hover path { stroke: red; }
.edge:hover polygon { stroke: red; fill: red; }
]]></style>
<script type="text/javascript"><![CDATA[
var edges = document.getElementsByTagName('g');
if (edges && edges.length) {
  for (var i=0;i<edges.length;i++) {
    if (edges[i].id.substr(0,4)=='edge') {
      edges[i].setAttribute('class','edge');
    }
  }
}
]]></script>
        <defs>
                <circle id="rim" cx="0" cy="0" r="7"/>
                <circle id="rim2" cx="0" cy="0" r="3.5"/>
                <g id="zoomPlus">
                        <use xlink:href="#rim" fill="#404040">
                                <set attributeName="fill" to="#808080" begin="zoomplus.mouseover" end="zoomplus.mouseout"/>
                        </use>
                        <path d="M-4,0h8M0,-4v8" fill="none" stroke="white" stroke-width="1.5" pointer-events="none"/>
                </g>
                <g id="zoomMin">
                        <use xlink:href="#rim" fill="#404040">
                                <set attributeName="fill" to="#808080" begin="zoomminus.mouseover" end="zoomminus.mouseout"/>
                        </use>
                        <path d="M-4,0h8" fill="none" stroke="white" stroke-width="1.5" pointer-events="none"/>
                </g>
                <g id="dirArrow">
                        <path fill="none" stroke="white" stroke-width="1.5" d="M0,-3.0v7 M-2.5,-0.5L0,-3.0L2.5,-0.5"/>
                </g>
               <g id="resetDef">
                       <use xlink:href="#rim2" fill="#404040">
                               <set attributeName="fill" to="#808080" begin="reset.mouseover" end="reset.mouseout"/>
                       </use>
               </g>
        </defs>

<script type="text/javascript">
var viewWidth = 1152;
var viewHeight = 498;
var sectionId = 'dynsection-0';
</script>
<script xlink:href="svgpan.js"/>
<svg id="graph" class="graph">
<g id="viewport">
<title>libccc/math/algebra.h</title>
<polygon fill="white" stroke="transparent" points="-4,4 -4,-494 1148.18,-494 1148.18,4 -4,4"/>
<!-- Node1 -->
<g id="node1" class="node">
<title>Node1</title>
<g id="a_node1"><a xlink:title=" ">
<polygon fill="#bfbfbf" stroke="black" points="918.68,-470.5 918.68,-489.5 1045.68,-489.5 1045.68,-470.5 918.68,-470.5"/>
<text text-anchor="middle" x="982.18" y="-477.5" font-family="Consolas" font-size="10.00">libccc/math/algebra.h</text>
</a>
</g>
</g>
<!-- Node2 -->
<g id="node2" class="node">
<title>Node2</title>
<g id="a_node2"><a xlink:href="vector_8h.html" target="_top" xlink:title=" ">
<polygon fill="white" stroke="black" points="924.18,-336.5 924.18,-366.5 1040.18,-366.5 1040.18,-336.5 924.18,-336.5"/>
<text text-anchor="start" x="932.18" y="-354.5" font-family="Consolas" font-size="10.00">libccc/math/algebra</text>
<text text-anchor="middle" x="982.18" y="-343.5" font-family="Consolas" font-size="10.00">/vector.h</text>
</a>
</g>
</g>
<!-- Node1&#45;&gt;Node2 -->
<g id="edge1" class="edge">
<title>Node1&#45;&gt;Node2</title>
<path fill="none" stroke="midnightblue" d="M982.18,-470.31C982.18,-451.3 982.18,-405.47 982.18,-376.9"/>
<polygon fill="midnightblue" stroke="midnightblue" points="985.68,-376.89 982.18,-366.89 978.68,-376.89 985.68,-376.89"/>
</g>
<!-- Node20 -->
<g id="node20" class="node">
<title>Node20</title>
<g id="a_node20"><a xlink:href="matrix_8h.html" target="_top" xlink:title=" ">
<polygon fill="white" stroke="black" points="800.18,-403.5 800.18,-433.5 916.18,-433.5 916.18,-403.5 800.18,-403.5"/>
<text text-anchor="start" x="808.18" y="-421.5" font-family="Consolas" font-size="10.00">libccc/math/algebra</text>
<text text-anchor="middle" x="858.18" y="-410.5" font-family="Consolas" font-size="10.00">/matrix.h</text>
</a>
</g>
</g>
<!-- Node1&#45;&gt;Node20 -->
<g id="edge30" class="edge">
<title>Node1&#45;&gt;Node20</title>
<path fill="none" stroke="midnightblue" d="M964.42,-470.48C946.76,-462 919.12,-448.74 896.45,-437.86"/>
<polygon fill="midnightblue" stroke="midnightblue" points="897.94,-434.69 887.41,-433.52 894.91,-441 897.94,-434.69"/>
</g>
<!-- Node21 -->
<g id="node21" class="node">
<title>Node21</title>
<g id="a_node21"><a xlink:href="interval_8h.html" target="_top" xlink:title=" ">
<polygon fill="white" stroke="black" points="1010.18,-403.5 1010.18,-433.5 1126.18,-433.5 1126.18,-403.5 1010.18,-403.5"/>
<text text-anchor="start" x="1018.18" y="-421.5" font-family="Consolas" font-size="10.00">libccc/math/algebra</text>
<text text-anchor="middle" x="1068.18" y="-410.5" font-family="Consolas" font-size="10.00">/interval.h</text>
</a>
</g>
</g>
<!-- Node1&#45;&gt;Node21 -->
<g id="edge36" class="edge">
<title>Node1&#45;&gt;Node21</title>
<path fill="none" stroke="midnightblue" d="M994.51,-470.48C1006.15,-462.42 1024.07,-450.02 1039.31,-439.47"/>
<polygon fill="midnightblue" stroke="midnightblue" points="1041.68,-442.09 1047.92,-433.52 1037.7,-436.33 1041.68,-442.09"/>
</g>
<!-- Node3 -->
<g id="node3" class="node">
<title>Node3</title>
<g id="a_node3"><a xlink:href="bool_8h.html" target="_top" xlink:title=" ">
<polygon fill="white" stroke="black" points="782.68,-280.5 782.68,-299.5 867.68,-299.5 867.68,-280.5 782.68,-280.5"/>
<text text-anchor="middle" x="825.18" y="-287.5" font-family="Consolas" font-size="10.00">libccc/bool.h</text>
</a>
</g>
</g>
<!-- Node2&#45;&gt;Node3 -->
<g id="edge2" class="edge">
<title>Node2&#45;&gt;Node3</title>
<path fill="none" stroke="midnightblue" d="M944.98,-336.4C918.4,-326.33 883,-312.91 857.58,-303.28"/>
<polygon fill="midnightblue" stroke="midnightblue" points="858.62,-299.93 848.03,-299.66 856.14,-306.47 858.62,-299.93"/>
</g>
<!-- Node12 -->
<g id="node12" class="node">
<title>Node12</title>
<g id="a_node12"><a xlink:href="float_8h.html" target="_top" xlink:title=" ">
<polygon fill="white" stroke="black" points="688.18,-56.5 688.18,-75.5 778.18,-75.5 778.18,-56.5 688.18,-56.5"/>
<text text-anchor="middle" x="733.18" y="-63.5" font-family="Consolas" font-size="10.00">libccc/float.h</text>
</a>
</g>
</g>
<!-- Node2&#45;&gt;Node12 -->
<g id="edge28" class="edge">
<title>Node2&#45;&gt;Node12</title>
<path fill="none" stroke="midnightblue" d="M984.17,-336.31C989.05,-295.29 997.08,-175.43 935.18,-112 915.13,-91.45 841.37,-79.02 788.78,-72.58"/>
<polygon fill="midnightblue" stroke="midnightblue" points="788.91,-69.07 778.57,-71.37 788.09,-76.02 788.91,-69.07"/>
</g>
<!-- Node14 -->
<g id="node14" class="node">
<title>Node14</title>
<g id="a_node14"><a xlink:href="int_8h.html" target="_top" xlink:title=" ">
<polygon fill="white" stroke="black" points="1028.18,-56.5 1028.18,-75.5 1108.18,-75.5 1108.18,-56.5 1028.18,-56.5"/>
<text text-anchor="middle" x="1068.18" y="-63.5" font-family="Consolas" font-size="10.00">libccc/int.h</text>
</a>
</g>
</g>
<!-- Node2&#45;&gt;Node14 -->
<g id="edge27" class="edge">
<title>Node2&#45;&gt;Node14</title>
<path fill="none" stroke="midnightblue" d="M991.28,-336.43C1012.43,-302.79 1064.42,-214.38 1082.18,-132 1085.57,-116.31 1081.15,-98.48 1076.4,-85.47"/>
<polygon fill="midnightblue" stroke="midnightblue" points="1079.49,-83.79 1072.5,-75.83 1073,-86.41 1079.49,-83.79"/>
</g>
<!-- Node18 -->
<g id="node18" class="node">
<title>Node18</title>
<g id="a_node18"><a xlink:href="math_2float_8h.html" target="_top" xlink:title=" ">
<polygon fill="white" stroke="black" points="810.18,-112.5 810.18,-131.5 926.18,-131.5 926.18,-112.5 810.18,-112.5"/>
<text text-anchor="middle" x="868.18" y="-119.5" font-family="Consolas" font-size="10.00">libccc/math/float.h</text>
</a>
</g>
</g>
<!-- Node2&#45;&gt;Node18 -->
<g id="edge29" class="edge">
<title>Node2&#45;&gt;Node18</title>
<path fill="none" stroke="midnightblue" d="M975.05,-336.27C955.2,-296.64 899.29,-185.08 877.27,-141.12"/>
<polygon fill="midnightblue" stroke="midnightblue" points="880.27,-139.3 872.66,-131.93 874.01,-142.44 880.27,-139.3"/>
</g>
<!-- Node4 -->
<g id="node4" class="node">
<title>Node4</title>
<g id="a_node4"><a xlink:href="libccc_8h.html" target="_top" xlink:title=" ">
<polygon fill="white" stroke="black" points="262.68,-224.5 262.68,-243.5 321.68,-243.5 321.68,-224.5 262.68,-224.5"/>
<text text-anchor="middle" x="292.18" y="-231.5" font-family="Consolas" font-size="10.00">libccc.h</text>
</a>
</g>
</g>
<!-- Node3&#45;&gt;Node4 -->
<g id="edge3" class="edge">
<title>Node3&#45;&gt;Node4</title>
<path fill="none" stroke="midnightblue" d="M782.47,-284.67C681.53,-274.45 429.43,-248.91 331.74,-239.01"/>
<polygon fill="midnightblue" stroke="midnightblue" points="331.99,-235.52 321.69,-237.99 331.29,-242.48 331.99,-235.52"/>
</g>
<!-- Node19 -->
<g id="node19" class="node">
<title>Node19</title>
<g id="a_node19"><a xlink:title=" ">
<polygon fill="white" stroke="#bfbfbf" points="786.18,-224.5 786.18,-243.5 850.18,-243.5 850.18,-224.5 786.18,-224.5"/>
<text text-anchor="middle" x="818.18" y="-231.5" font-family="Consolas" font-size="10.00">stdbool.h</text>
</a>
</g>
</g>
<!-- Node3&#45;&gt;Node19 -->
<g id="edge26" class="edge">
<title>Node3&#45;&gt;Node19</title>
<path fill="none" stroke="midnightblue" d="M824.03,-280.08C823.1,-272.93 821.77,-262.64 820.61,-253.69"/>
<polygon fill="midnightblue" stroke="midnightblue" points="824.08,-253.22 819.32,-243.75 817.13,-254.12 824.08,-253.22"/>
</g>
<!-- Node5 -->
<g id="node5" class="node">
<title>Node5</title>
<g id="a_node5"><a xlink:href="libccc__define_8h.html" target="_top" xlink:title=" ">
<polygon fill="white" stroke="black" points="55.68,-56.5 55.68,-75.5 150.68,-75.5 150.68,-56.5 55.68,-56.5"/>
<text text-anchor="middle" x="103.18" y="-63.5" font-family="Consolas" font-size="10.00">libccc_define.h</text>
</a>
</g>
</g>
<!-- Node4&#45;&gt;Node5 -->
<g id="edge4" class="edge">
<title>Node4&#45;&gt;Node5</title>
<path fill="none" stroke="midnightblue" d="M262.58,-231.04C203.3,-226.61 72.68,-214.09 37.18,-188 8.05,-166.59 -11.15,-142.55 8.18,-112 18.23,-96.13 35.56,-85.74 52.69,-79"/>
<polygon fill="midnightblue" stroke="midnightblue" points="53.9,-82.28 62.13,-75.62 51.54,-75.69 53.9,-82.28"/>
</g>
<!-- Node7 -->
<g id="node7" class="node">
<title>Node7</title>
<g id="a_node7"><a xlink:href="libccc__errors_8h.html" target="_top" xlink:title=" ">
<polygon fill="white" stroke="black" points="17.68,-112.5 17.68,-131.5 112.68,-131.5 112.68,-112.5 17.68,-112.5"/>
<text text-anchor="middle" x="65.18" y="-119.5" font-family="Consolas" font-size="10.00">libccc_errors.h</text>
</a>
</g>
</g>
<!-- Node4&#45;&gt;Node7 -->
<g id="edge6" class="edge">
<title>Node4&#45;&gt;Node7</title>
<path fill="none" stroke="midnightblue" d="M262.47,-232.13C203.16,-229.7 73.43,-220.68 46.18,-188 34.82,-174.37 43.46,-154.22 52.47,-139.97"/>
<polygon fill="midnightblue" stroke="midnightblue" points="55.45,-141.81 58.23,-131.59 49.68,-137.85 55.45,-141.81"/>
</g>
<!-- Node8 -->
<g id="node8" class="node">
<title>Node8</title>
<g id="a_node8"><a xlink:href="libccc__config_8h.html" target="_top" xlink:title=" ">
<polygon fill="white" stroke="black" points="55.68,-168.5 55.68,-187.5 150.68,-187.5 150.68,-168.5 55.68,-168.5"/>
<text text-anchor="middle" x="103.18" y="-175.5" font-family="Consolas" font-size="10.00">libccc_config.h</text>
</a>
</g>
</g>
<!-- Node4&#45;&gt;Node8 -->
<g id="edge8" class="edge">
<title>Node4&#45;&gt;Node8</title>
<path fill="none" stroke="midnightblue" d="M262.65,-224.56C230.39,-215.34 178.54,-200.53 142.77,-190.31"/>
<polygon fill="midnightblue" stroke="midnightblue" points="143.71,-186.94 133.13,-187.56 141.79,-193.67 143.71,-186.94"/>
</g>
<!-- Node9 -->
<g id="node9" class="node">
<title>Node9</title>
<g id="a_node9"><a xlink:href="libccc__naming_8h.html" target="_top" xlink:title=" ">
<polygon fill="white" stroke="black" points="168.68,-168.5 168.68,-187.5 263.68,-187.5 263.68,-168.5 168.68,-168.5"/>
<text text-anchor="middle" x="216.18" y="-175.5" font-family="Consolas" font-size="10.00">libccc_naming.h</text>
</a>
</g>
</g>
<!-- Node4&#45;&gt;Node9 -->
<g id="edge11" class="edge">
<title>Node4&#45;&gt;Node9</title>
<path fill="none" stroke="midnightblue" d="M279.97,-224.32C268.41,-216.11 250.81,-203.6 237.02,-193.81"/>
<polygon fill="midnightblue" stroke="midnightblue" points="238.8,-190.77 228.62,-187.83 234.74,-196.48 238.8,-190.77"/>
</g>
<!-- Node10 -->
<g id="node10" class="node">
<title>Node10</title>
<g id="a_node10"><a xlink:href="math_8h.html" target="_top" xlink:title=" ">
<polygon fill="white" stroke="black" points="575.18,-168.5 575.18,-187.5 623.18,-187.5 623.18,-168.5 575.18,-168.5"/>
<text text-anchor="middle" x="599.18" y="-175.5" font-family="Consolas" font-size="10.00">math.h</text>
</a>
</g>
</g>
<!-- Node4&#45;&gt;Node10 -->
<g id="edge13" class="edge">
<title>Node4&#45;&gt;Node10</title>
<path fill="none" stroke="midnightblue" d="M321.9,-227.77C379.11,-217.71 504.24,-195.7 564.88,-185.03"/>
<polygon fill="midnightblue" stroke="midnightblue" points="565.84,-188.42 575.08,-183.24 564.62,-181.53 565.84,-188.42"/>
</g>
<!-- Node6 -->
<g id="node6" class="node">
<title>Node6</title>
<g id="a_node6"><a xlink:title=" ">
<polygon fill="white" stroke="#bfbfbf" points="68.68,-0.5 68.68,-19.5 137.68,-19.5 137.68,-0.5 68.68,-0.5"/>
<text text-anchor="middle" x="103.18" y="-7.5" font-family="Consolas" font-size="10.00">stdalign.h</text>
</a>
</g>
</g>
<!-- Node5&#45;&gt;Node6 -->
<g id="edge5" class="edge">
<title>Node5&#45;&gt;Node6</title>
<path fill="none" stroke="midnightblue" d="M103.18,-56.08C103.18,-49.01 103.18,-38.86 103.18,-29.99"/>
<polygon fill="midnightblue" stroke="midnightblue" points="106.68,-29.75 103.18,-19.75 99.68,-29.75 106.68,-29.75"/>
</g>
<!-- Node7&#45;&gt;Node5 -->
<g id="edge7" class="edge">
<title>Node7&#45;&gt;Node5</title>
<path fill="none" stroke="midnightblue" d="M71.46,-112.08C76.83,-104.46 84.7,-93.26 91.26,-83.94"/>
<polygon fill="midnightblue" stroke="midnightblue" points="94.13,-85.94 97.03,-75.75 88.41,-81.91 94.13,-85.94"/>
</g>
<!-- Node8&#45;&gt;Node5 -->
<g id="edge9" class="edge">
<title>Node8&#45;&gt;Node5</title>
<path fill="none" stroke="midnightblue" d="M107.81,-168.34C112.24,-159.49 118.64,-145.22 121.18,-132 124.29,-115.85 118.57,-97.86 112.78,-84.9"/>
<polygon fill="midnightblue" stroke="midnightblue" points="115.82,-83.16 108.28,-75.73 109.54,-86.25 115.82,-83.16"/>
</g>
<!-- Node8&#45;&gt;Node7 -->
<g id="edge10" class="edge">
<title>Node8&#45;&gt;Node7</title>
<path fill="none" stroke="midnightblue" d="M96.91,-168.08C91.54,-160.46 83.67,-149.26 77.11,-139.94"/>
<polygon fill="midnightblue" stroke="midnightblue" points="79.96,-137.91 71.34,-131.75 74.24,-141.94 79.96,-137.91"/>
</g>
<!-- Node9&#45;&gt;Node5 -->
<g id="edge12" class="edge">
<title>Node9&#45;&gt;Node5</title>
<path fill="none" stroke="midnightblue" d="M207.32,-168.37C188.34,-149.89 143.55,-106.29 119.36,-82.74"/>
<polygon fill="midnightblue" stroke="midnightblue" points="121.62,-80.06 112.01,-75.59 116.73,-85.07 121.62,-80.06"/>
</g>
<!-- Node11 -->
<g id="node11" class="node">
<title>Node11</title>
<g id="a_node11"><a xlink:href="constants_8h.html" target="_top" xlink:title=" ">
<polygon fill="white" stroke="black" points="530.68,-112.5 530.68,-131.5 667.68,-131.5 667.68,-112.5 530.68,-112.5"/>
<text text-anchor="middle" x="599.18" y="-119.5" font-family="Consolas" font-size="10.00">libccc/math/constants.h</text>
</a>
</g>
</g>
<!-- Node10&#45;&gt;Node11 -->
<g id="edge14" class="edge">
<title>Node10&#45;&gt;Node11</title>
<path fill="none" stroke="midnightblue" d="M599.18,-168.08C599.18,-161.01 599.18,-150.86 599.18,-141.99"/>
<polygon fill="midnightblue" stroke="midnightblue" points="602.68,-141.75 599.18,-131.75 595.68,-141.75 602.68,-141.75"/>
</g>
<!-- Node13 -->
<g id="node13" class="node">
<title>Node13</title>
<g id="a_node13"><a xlink:href="math_2int_8h.html" target="_top" xlink:title=" ">
<polygon fill="white" stroke="black" points="686.18,-112.5 686.18,-131.5 792.18,-131.5 792.18,-112.5 686.18,-112.5"/>
<text text-anchor="middle" x="739.18" y="-119.5" font-family="Consolas" font-size="10.00">libccc/math/int.h</text>
</a>
</g>
</g>
<!-- Node10&#45;&gt;Node13 -->
<g id="edge17" class="edge">
<title>Node10&#45;&gt;Node13</title>
<path fill="none" stroke="midnightblue" d="M621.37,-168.44C644.61,-159.48 681.33,-145.31 707.6,-135.18"/>
<polygon fill="midnightblue" stroke="midnightblue" points="709.03,-138.38 717.11,-131.52 706.52,-131.85 709.03,-138.38"/>
</g>
<!-- Node16 -->
<g id="node16" class="node">
<title>Node16</title>
<g id="a_node16"><a xlink:href="math_2fixed_8h.html" target="_top" xlink:title=" ">
<polygon fill="white" stroke="black" points="358.18,-112.5 358.18,-131.5 474.18,-131.5 474.18,-112.5 358.18,-112.5"/>
<text text-anchor="middle" x="416.18" y="-119.5" font-family="Consolas" font-size="10.00">libccc/math/fixed.h</text>
</a>
</g>
</g>
<!-- Node10&#45;&gt;Node16 -->
<g id="edge21" class="edge">
<title>Node10&#45;&gt;Node16</title>
<path fill="none" stroke="midnightblue" d="M574.88,-169.83C544.22,-160.78 491.13,-145.11 454.87,-134.41"/>
<polygon fill="midnightblue" stroke="midnightblue" points="455.7,-131.01 445.12,-131.54 453.72,-137.72 455.7,-131.01"/>
</g>
<!-- Node10&#45;&gt;Node18 -->
<g id="edge24" class="edge">
<title>Node10&#45;&gt;Node18</title>
<path fill="none" stroke="midnightblue" d="M623.53,-172.11C666.72,-163.44 757.65,-145.19 815.67,-133.54"/>
<polygon fill="midnightblue" stroke="midnightblue" points="816.63,-136.92 825.75,-131.52 815.26,-130.06 816.63,-136.92"/>
</g>
<!-- Node11&#45;&gt;Node12 -->
<g id="edge15" class="edge">
<title>Node11&#45;&gt;Node12</title>
<path fill="none" stroke="midnightblue" d="M620.42,-112.44C642.57,-103.52 677.5,-89.44 702.62,-79.32"/>
<polygon fill="midnightblue" stroke="midnightblue" points="704.08,-82.5 712.05,-75.52 701.47,-76.01 704.08,-82.5"/>
</g>
<!-- Node12&#45;&gt;Node4 -->
<g id="edge16" class="edge">
<title>Node12&#45;&gt;Node4</title>
<path fill="none" stroke="midnightblue" d="M687.91,-66.93C598.31,-67.65 402.45,-73.68 349.18,-112 344.66,-115.26 314.8,-181.83 300.2,-214.81"/>
<polygon fill="midnightblue" stroke="midnightblue" points="296.88,-213.65 296.04,-224.21 303.29,-216.48 296.88,-213.65"/>
</g>
<!-- Node13&#45;&gt;Node14 -->
<g id="edge18" class="edge">
<title>Node13&#45;&gt;Node14</title>
<path fill="none" stroke="midnightblue" d="M791.32,-112.44C853.32,-102.27 956.12,-85.39 1017.49,-75.32"/>
<polygon fill="midnightblue" stroke="midnightblue" points="1018.41,-78.72 1027.71,-73.64 1017.27,-71.81 1018.41,-78.72"/>
</g>
<!-- Node14&#45;&gt;Node4 -->
<g id="edge20" class="edge">
<title>Node14&#45;&gt;Node4</title>
<path fill="none" stroke="midnightblue" d="M1053.97,-75.56C1030.22,-89.5 980.58,-117.02 935.18,-132 714.94,-204.66 434.56,-225.73 332.03,-231.23"/>
<polygon fill="midnightblue" stroke="midnightblue" points="331.63,-227.75 321.82,-231.76 331.99,-234.74 331.63,-227.75"/>
</g>
<!-- Node15 -->
<g id="node15" class="node">
<title>Node15</title>
<g id="a_node15"><a xlink:title=" ">
<polygon fill="white" stroke="#bfbfbf" points="1038.68,-0.5 1038.68,-19.5 1097.68,-19.5 1097.68,-0.5 1038.68,-0.5"/>
<text text-anchor="middle" x="1068.18" y="-7.5" font-family="Consolas" font-size="10.00">stdint.h</text>
</a>
</g>
</g>
<!-- Node14&#45;&gt;Node15 -->
<g id="edge19" class="edge">
<title>Node14&#45;&gt;Node15</title>
<path fill="none" stroke="midnightblue" d="M1068.18,-56.08C1068.18,-49.01 1068.18,-38.86 1068.18,-29.99"/>
<polygon fill="midnightblue" stroke="midnightblue" points="1071.68,-29.75 1068.18,-19.75 1064.68,-29.75 1071.68,-29.75"/>
</g>
<!-- Node17 -->
<g id="node17" class="node">
<title>Node17</title>
<g id="a_node17"><a xlink:href="fixed_8h.html" target="_top" xlink:title=" ">
<polygon fill="white" stroke="black" points="309.18,-56.5 309.18,-75.5 399.18,-75.5 399.18,-56.5 309.18,-56.5"/>
<text text-anchor="middle" x="354.18" y="-63.5" font-family="Consolas" font-size="10.00">libccc/fixed.h</text>
</a>
</g>
</g>
<!-- Node16&#45;&gt;Node17 -->
<g id="edge22" class="edge">
<title>Node16&#45;&gt;Node17</title>
<path fill="none" stroke="midnightblue" d="M406.22,-112.32C397.06,-104.34 383.25,-92.31 372.16,-82.65"/>
<polygon fill="midnightblue" stroke="midnightblue" points="374.17,-79.76 364.33,-75.83 369.57,-85.04 374.17,-79.76"/>
</g>
<!-- Node17&#45;&gt;Node4 -->
<g id="edge23" class="edge">
<title>Node17&#45;&gt;Node4</title>
<path fill="none" stroke="midnightblue" d="M344.49,-75.66C335.7,-84.06 323.1,-97.63 316.18,-112 299.99,-145.65 294.72,-189.6 293.01,-214.21"/>
<polygon fill="midnightblue" stroke="midnightblue" points="289.51,-214.14 292.43,-224.32 296.5,-214.54 289.51,-214.14"/>
</g>
<!-- Node18&#45;&gt;Node12 -->
<g id="edge25" class="edge">
<title>Node18&#45;&gt;Node12</title>
<path fill="none" stroke="midnightblue" d="M846.79,-112.44C824.48,-103.52 789.28,-89.44 763.98,-79.32"/>
<polygon fill="midnightblue" stroke="midnightblue" points="765.06,-75.98 754.48,-75.52 762.46,-82.48 765.06,-75.98"/>
</g>
<!-- Node20&#45;&gt;Node2 -->
<g id="edge35" class="edge">
<title>Node20&#45;&gt;Node2</title>
<path fill="none" stroke="midnightblue" d="M885.09,-403.4C903.05,-393.98 926.86,-381.5 946.4,-371.26"/>
<polygon fill="midnightblue" stroke="midnightblue" points="948.1,-374.32 955.33,-366.58 944.85,-368.12 948.1,-374.32"/>
</g>
<!-- Node20&#45;&gt;Node3 -->
<g id="edge31" class="edge">
<title>Node20&#45;&gt;Node3</title>
<path fill="none" stroke="midnightblue" d="M854.17,-403.38C851.31,-393.27 847.43,-379.32 844.18,-367 839.05,-347.53 833.5,-325.16 829.73,-309.75"/>
<polygon fill="midnightblue" stroke="midnightblue" points="833.1,-308.8 827.33,-299.91 826.3,-310.46 833.1,-308.8"/>
</g>
<!-- Node20&#45;&gt;Node12 -->
<g id="edge33" class="edge">
<title>Node20&#45;&gt;Node12</title>
<path fill="none" stroke="midnightblue" d="M799.8,-409.1C698.8,-392.92 502.18,-353.39 502.18,-291 502.18,-291 502.18,-291 502.18,-177 502.18,-146.77 499.89,-132.41 522.18,-112 544.57,-91.51 623.17,-78.93 677.84,-72.45"/>
<polygon fill="midnightblue" stroke="midnightblue" points="678.55,-75.89 688.09,-71.28 677.76,-68.94 678.55,-75.89"/>
</g>
<!-- Node20&#45;&gt;Node14 -->
<g id="edge32" class="edge">
<title>Node20&#45;&gt;Node14</title>
<path fill="none" stroke="midnightblue" d="M866.68,-403.33C899.9,-347.88 1021,-145.76 1057.62,-84.63"/>
<polygon fill="midnightblue" stroke="midnightblue" points="1060.79,-86.16 1062.92,-75.78 1054.78,-82.56 1060.79,-86.16"/>
</g>
<!-- Node20&#45;&gt;Node18 -->
<g id="edge34" class="edge">
<title>Node20&#45;&gt;Node18</title>
<path fill="none" stroke="midnightblue" d="M834.85,-403.35C804.18,-382.76 754.18,-341.47 754.18,-291 754.18,-291 754.18,-291 754.18,-233 754.18,-186.11 804.74,-152.89 838.51,-135.93"/>
<polygon fill="midnightblue" stroke="midnightblue" points="840.05,-139.07 847.54,-131.58 837.01,-132.77 840.05,-139.07"/>
</g>
<!-- Node21&#45;&gt;Node2 -->
<g id="edge41" class="edge">
<title>Node21&#45;&gt;Node2</title>
<path fill="none" stroke="midnightblue" d="M1049.52,-403.4C1037.69,-394.45 1022.19,-382.74 1009.05,-372.8"/>
<polygon fill="midnightblue" stroke="midnightblue" points="1010.9,-369.81 1000.81,-366.58 1006.68,-375.4 1010.9,-369.81"/>
</g>
<!-- Node21&#45;&gt;Node3 -->
<g id="edge37" class="edge">
<title>Node21&#45;&gt;Node3</title>
<path fill="none" stroke="midnightblue" d="M1010.06,-403.97C980.52,-395.71 944.72,-383.52 915.18,-367 886.04,-350.7 857.46,-324.27 840.58,-307.27"/>
<polygon fill="midnightblue" stroke="midnightblue" points="842.77,-304.5 833.28,-299.77 837.75,-309.38 842.77,-304.5"/>
</g>
<!-- Node21&#45;&gt;Node12 -->
<g id="edge39" class="edge">
<title>Node21&#45;&gt;Node12</title>
<path fill="none" stroke="midnightblue" d="M1075.33,-403.5C1086.34,-380.59 1106.18,-333.42 1106.18,-291 1106.18,-291 1106.18,-291 1106.18,-233 1106.18,-95.64 892.43,-71.12 788.55,-67.31"/>
<polygon fill="midnightblue" stroke="midnightblue" points="788.65,-63.81 778.55,-66.99 788.43,-70.81 788.65,-63.81"/>
</g>
<!-- Node21&#45;&gt;Node14 -->
<g id="edge38" class="edge">
<title>Node21&#45;&gt;Node14</title>
<path fill="none" stroke="midnightblue" d="M1086.83,-403.38C1097.91,-394.12 1111.46,-381.14 1120.18,-367 1138.79,-336.86 1144.18,-326.42 1144.18,-291 1144.18,-291 1144.18,-291 1144.18,-177 1144.18,-137.28 1110.22,-101.5 1087.7,-82.15"/>
<polygon fill="midnightblue" stroke="midnightblue" points="1089.67,-79.24 1079.73,-75.57 1085.21,-84.63 1089.67,-79.24"/>
</g>
<!-- Node21&#45;&gt;Node18 -->
<g id="edge40" class="edge">
<title>Node21&#45;&gt;Node18</title>
<path fill="none" stroke="midnightblue" d="M1066.88,-403.28C1064.9,-386.46 1060.13,-357.98 1049.18,-336 1006.74,-250.74 922.99,-171.01 886.22,-138.45"/>
<polygon fill="midnightblue" stroke="midnightblue" points="888.16,-135.5 878.32,-131.55 883.55,-140.77 888.16,-135.5"/>
</g>
</g>
</svg>
        <g id="navigator" transform="translate(0 0)" fill="#404254">
                <rect fill="#f2f5e9" fill-opacity="0.5" stroke="#606060" stroke-width=".5" x="0" y="0" width="60" height="60"/>
                <use id="zoomplus" xlink:href="#zoomPlus" x="17" y="9" onmousedown="handleZoom(evt,'in')"/>
                <use id="zoomminus" xlink:href="#zoomMin" x="42" y="9" onmousedown="handleZoom(evt,'out')"/>
                <use id="reset" xlink:href="#resetDef" x="30" y="36" onmousedown="handleReset()"/>
                <g id="arrowUp" xlink:href="#dirArrow" transform="translate(30 24)" onmousedown="handlePan(0,-1)">
                  <use xlink:href="#rim" fill="#404040">
                        <set attributeName="fill" to="#808080" begin="arrowUp.mouseover" end="arrowUp.mouseout"/>
                  </use>
                  <path fill="none" stroke="white" stroke-width="1.5" d="M0,-3.0v7 M-2.5,-0.5L0,-3.0L2.5,-0.5"/>
                </g>
                <g id="arrowRight" xlink:href="#dirArrow" transform="rotate(90) translate(36 -43)" onmousedown="handlePan(1,0)">
                  <use xlink:href="#rim" fill="#404040">
                        <set attributeName="fill" to="#808080" begin="arrowRight.mouseover" end="arrowRight.mouseout"/>
                  </use>
                  <path fill="none" stroke="white" stroke-width="1.5" d="M0,-3.0v7 M-2.5,-0.5L0,-3.0L2.5,-0.5"/>
                </g>
                <g id="arrowDown" xlink:href="#dirArrow" transform="rotate(180) translate(-30 -48)" onmousedown="handlePan(0,1)">
                  <use xlink:href="#rim" fill="#404040">
                        <set attributeName="fill" to="#808080" begin="arrowDown.mouseover" end="arrowDown.mouseout"/>
                  </use>
                  <path fill="none" stroke="white" stroke-width="1.5" d="M0,-3.0v7 M-2.5,-0.5L0,-3.0L2.5,-0.5"/>
                </g>
                <g id="arrowLeft" xlink:href="#dirArrow" transform="rotate(270) translate(-36 17)" onmousedown="handlePan(-1,0)">
                  <use xlink:href="#rim" fill="#404040">
                        <set attributeName="fill" to="#808080" begin="arrowLeft.mouseover" end="arrowLeft.mouseout"/>
                  </use>
                  <path fill="none" stroke="white" stroke-width="1.5" d="M0,-3.0v7 M-2.5,-0.5L0,-3.0L2.5,-0.5"/>
                </g>
        </g>
        <svg viewBox="0 0 15 15" width="100%" height="30px" preserveAspectRatio="xMaxYMin meet">
         <g id="arrow_out" transform="scale(0.3 0.3)">
          <a xlink:href="algebra_8h__incl_org.svg" target="_base">
           <rect id="button" ry="5" rx="5" y="6" x="6" height="38" width="38"
                fill="#f2f5e9" fill-opacity="0.5" stroke="#606060" stroke-width="1.0"/>
           <path id="arrow"
             d="M 11.500037,31.436501 C 11.940474,20.09759 22.043105,11.32322 32.158766,21.979434 L 37.068811,17.246167 C 37.068811,17.246167 37.088388,32 37.088388,32 L 22.160133,31.978069 C 22.160133,31.978069 26.997745,27.140456 26.997745,27.140456 C 18.528582,18.264221 13.291696,25.230495 11.500037,31.436501 z"
             style="fill:#404040;"/>
          </a>
         </g>
        </svg>
</svg>
