<?xml version="1.0" encoding="UTF-8" standalone="no"?>
<!DOCTYPE svg PUBLIC "-//W3C//DTD SVG 1.1//EN"
 "http://www.w3.org/Graphics/SVG/1.1/DTD/svg11.dtd">
<!-- Generated by graphviz version 3.0.0 (20220226.1711)
 -->
<!-- Title: libccc/sys/ansi.h Pages: 1 -->
<svg width="98pt" height="140pt"
 viewBox="0.00 0.00 98.00 140.00" xmlns="http://www.w3.org/2000/svg" xmlns:xlink="http://www.w3.org/1999/xlink">
<g id="graph0" class="graph" transform="scale(1 1) rotate(0) translate(4 136)">
<title>libccc/sys/ansi.h</title>
<polygon fill="white" stroke="transparent" points="-4,4 -4,-136 94,-136 94,4 -4,4"/>
<!-- Node1 -->
<g id="node1" class="node">
<title>Node1</title>
<g id="a_node1"><a xlink:title=" ">
<polygon fill="#bfbfbf" stroke="black" points="0,-112.5 0,-131.5 90,-131.5 90,-112.5 0,-112.5"/>
<text text-anchor="middle" x="45" y="-119.5" font-family="Consolas" font-size="10.00">libccc/sys/ansi.h</text>
</a>
</g>
</g>
<!-- Node2 -->
<g id="node2" class="node">
<title>Node2</title>
<g id="a_node2"><a xlink:href="$libccc__define_8h.html" xlink:title=" ">
<polygon fill="white" stroke="black" points="4,-56.5 4,-75.5 86,-75.5 86,-56.5 4,-56.5"/>
<text text-anchor="middle" x="45" y="-63.5" font-family="Consolas" font-size="10.00">libccc_define.h</text>
</a>
</g>
</g>
<!-- Node1&#45;&gt;Node2 -->
<g id="edge1" class="edge">
<title>Node1&#45;&gt;Node2</title>
<path fill="none" stroke="midnightblue" d="M45,-112.08C45,-105.01 45,-94.86 45,-85.99"/>
<polygon fill="midnightblue" stroke="midnightblue" points="48.5,-85.75 45,-75.75 41.5,-85.75 48.5,-85.75"/>
</g>
<!-- Node3 -->
<g id="node3" class="node">
<title>Node3</title>
<g id="a_node3"><a xlink:title=" ">
<polygon fill="white" stroke="#bfbfbf" points="15.5,-0.5 15.5,-19.5 74.5,-19.5 74.5,-0.5 15.5,-0.5"/>
<text text-anchor="middle" x="45" y="-7.5" font-family="Consolas" font-size="10.00">stdalign.h</text>
</a>
</g>
</g>
<!-- Node2&#45;&gt;Node3 -->
<g id="edge2" class="edge">
<title>Node2&#45;&gt;Node3</title>
<path fill="none" stroke="midnightblue" d="M45,-56.08C45,-49.01 45,-38.86 45,-29.99"/>
<polygon fill="midnightblue" stroke="midnightblue" points="48.5,-29.75 45,-19.75 41.5,-29.75 48.5,-29.75"/>
</g>
</g>
</svg>
