<?xml version="1.0" encoding="UTF-8" standalone="no"?>
<!DOCTYPE svg PUBLIC "-//W3C//DTD SVG 1.1//EN"
 "http://www.w3.org/Graphics/SVG/1.1/DTD/svg11.dtd">
<!-- Generated by graphviz version 2.49.3 (20211023.0002)
 -->
<!-- Title: hdr/libccc/monad/array.h Pages: 1 -->
<!--zoomable 375 -->
<svg id="main" version="1.1" xmlns="http://www.w3.org/2000/svg" xmlns:xlink="http://www.w3.org/1999/xlink" xml:space="preserve" onload="init(evt)">
<style type="text/css"><![CDATA[
.edge:hover path { stroke: red; }
.edge:hover polygon { stroke: red; fill: red; }
]]></style>
<script type="text/javascript"><![CDATA[
var edges = document.getElementsByTagName('g');
if (edges && edges.length) {
  for (var i=0;i<edges.length;i++) {
    if (edges[i].id.substr(0,4)=='edge') {
      edges[i].setAttribute('class','edge');
    }
  }
}
]]></script>
        <defs>
                <circle id="rim" cx="0" cy="0" r="7"/>
                <circle id="rim2" cx="0" cy="0" r="3.5"/>
                <g id="zoomPlus">
                        <use xlink:href="#rim" fill="#404040">
                                <set attributeName="fill" to="#808080" begin="zoomplus.mouseover" end="zoomplus.mouseout"/>
                        </use>
                        <path d="M-4,0h8M0,-4v8" fill="none" stroke="white" stroke-width="1.5" pointer-events="none"/>
                </g>
                <g id="zoomMin">
                        <use xlink:href="#rim" fill="#404040">
                                <set attributeName="fill" to="#808080" begin="zoomminus.mouseover" end="zoomminus.mouseout"/>
                        </use>
                        <path d="M-4,0h8" fill="none" stroke="white" stroke-width="1.5" pointer-events="none"/>
                </g>
                <g id="dirArrow">
                        <path fill="none" stroke="white" stroke-width="1.5" d="M0,-3.0v7 M-2.5,-0.5L0,-3.0L2.5,-0.5"/>
                </g>
               <g id="resetDef">
                       <use xlink:href="#rim2" fill="#404040">
                               <set attributeName="fill" to="#808080" begin="reset.mouseover" end="reset.mouseout"/>
                       </use>
               </g>
        </defs>

<script type="text/javascript">
var viewWidth = 3899;
var viewHeight = 375;
var sectionId = 'dynsection-0';
</script>
<script xlink:href="svgpan.js"/>
<svg id="graph" class="graph">
<g id="viewport">
<title>hdr/libccc/monad/array.h</title>
<polygon fill="white" stroke="transparent" points="-4,4 -4,-371 3894.83,-371 3894.83,4 -4,4"/>
<!-- Node1 -->
<g id="node1" class="node">
<title>Node1</title>
<g id="a_node1"><a xlink:title=" ">
<polygon fill="#bfbfbf" stroke="black" points="390.33,-347.5 390.33,-366.5 512.33,-366.5 512.33,-347.5 390.33,-347.5"/>
<text text-anchor="middle" x="451.33" y="-354.5" font-family="Consolas" font-size="10.00">hdr/libccc/monad/array.h</text>
</a>
</g>
</g>
<!-- Node2 -->
<g id="node2" class="node">
<title>Node2</title>
<g id="a_node2"><a xlink:title=" ">
<polygon fill="white" stroke="#bfbfbf" points="281.33,-291.5 281.33,-310.5 333.33,-310.5 333.33,-291.5 281.33,-291.5"/>
<text text-anchor="middle" x="307.33" y="-298.5" font-family="Consolas" font-size="10.00">stdarg.h</text>
</a>
</g>
</g>
<!-- Node1&#45;&gt;Node2 -->
<g id="edge1" class="edge">
<title>Node1&#45;&gt;Node2</title>
<path fill="none" stroke="midnightblue" d="M428.51,-347.44C404.5,-338.44 366.5,-324.19 339.46,-314.05"/>
<polygon fill="midnightblue" stroke="midnightblue" points="340.63,-310.75 330.04,-310.52 338.17,-317.3 340.63,-310.75"/>
</g>
<!-- Node3 -->
<g id="node3" class="node">
<title>Node3</title>
<g id="a_node3"><a xlink:href="bool_8h.html" target="_top" xlink:title=" ">
<polygon fill="white" stroke="black" points="351.83,-291.5 351.83,-310.5 422.83,-310.5 422.83,-291.5 351.83,-291.5"/>
<text text-anchor="middle" x="387.33" y="-298.5" font-family="Consolas" font-size="10.00">libccc/bool.h</text>
</a>
</g>
</g>
<!-- Node1&#45;&gt;Node3 -->
<g id="edge2" class="edge">
<title>Node1&#45;&gt;Node3</title>
<path fill="none" stroke="midnightblue" d="M441.04,-347.32C431.49,-339.26 417.05,-327.08 405.54,-317.37"/>
<polygon fill="midnightblue" stroke="midnightblue" points="407.7,-314.61 397.8,-310.83 403.18,-319.96 407.7,-314.61"/>
</g>
<!-- Node14 -->
<g id="node14" class="node">
<title>Node14</title>
<g id="a_node14"><a xlink:href="int_8h.html" target="_top" xlink:title=" ">
<polygon fill="white" stroke="black" points="628.33,-168.5 628.33,-187.5 692.33,-187.5 692.33,-168.5 628.33,-168.5"/>
<text text-anchor="middle" x="660.33" y="-175.5" font-family="Consolas" font-size="10.00">libccc/int.h</text>
</a>
</g>
</g>
<!-- Node1&#45;&gt;Node14 -->
<g id="edge30" class="edge">
<title>Node1&#45;&gt;Node14</title>
<path fill="none" stroke="midnightblue" d="M449.59,-347.23C445.53,-323.85 437.99,-259.37 470.33,-224 472.86,-221.23 563.18,-200.67 618.36,-188.33"/>
<polygon fill="midnightblue" stroke="midnightblue" points="619.23,-191.72 628.23,-186.12 617.7,-184.89 619.23,-191.72"/>
</g>
<!-- Node19 -->
<g id="node19" class="node">
<title>Node19</title>
<g id="a_node19"><a xlink:href="array_8c.html" target="_top" xlink:title=" ">
<polygon fill="white" stroke="black" points="2005.33,-291.5 2005.33,-310.5 2111.33,-310.5 2111.33,-291.5 2005.33,-291.5"/>
<text text-anchor="middle" x="2058.33" y="-298.5" font-family="Consolas" font-size="10.00">libccc/monad/array.c</text>
</a>
</g>
</g>
<!-- Node1&#45;&gt;Node19 -->
<g id="edge31" class="edge">
<title>Node1&#45;&gt;Node19</title>
<path fill="none" stroke="midnightblue" d="M512.46,-353.85C766.49,-345.14 1736.89,-312.53 1995,-304.03"/>
<polygon fill="midnightblue" stroke="midnightblue" points="1995.44,-307.52 2005.32,-303.7 1995.21,-300.53 1995.44,-307.52"/>
</g>
<!-- Node4 -->
<g id="node4" class="node">
<title>Node4</title>
<g id="a_node4"><a xlink:href="libccc_8h.html" target="_top" xlink:title=" ">
<polygon fill="white" stroke="black" points="362.33,-230 362.33,-249 412.33,-249 412.33,-230 362.33,-230"/>
<text text-anchor="middle" x="387.33" y="-237" font-family="Consolas" font-size="10.00">libccc.h</text>
</a>
</g>
</g>
<!-- Node3&#45;&gt;Node4 -->
<g id="edge3" class="edge">
<title>Node3&#45;&gt;Node4</title>
<path fill="none" stroke="midnightblue" d="M382.43,-291.48C380.6,-283.08 380.12,-269.98 381.01,-259.16"/>
<polygon fill="midnightblue" stroke="midnightblue" points="384.51,-259.4 382.43,-249.01 377.58,-258.43 384.51,-259.4"/>
</g>
<!-- Node4&#45;&gt;Node3 -->
<g id="edge13" class="edge">
<title>Node4&#45;&gt;Node3</title>
<path fill="none" stroke="midnightblue" d="M392.22,-249.01C394.06,-257.4 394.53,-270.5 393.64,-281.32"/>
<polygon fill="midnightblue" stroke="midnightblue" points="390.14,-281.09 392.23,-291.48 397.07,-282.05 390.14,-281.09"/>
</g>
<!-- Node5 -->
<g id="node5" class="node">
<title>Node5</title>
<g id="a_node5"><a xlink:href="libccc__define_8h.html" target="_top" xlink:title=" ">
<polygon fill="white" stroke="black" points="48.33,-56.5 48.33,-75.5 130.33,-75.5 130.33,-56.5 48.33,-56.5"/>
<text text-anchor="middle" x="89.33" y="-63.5" font-family="Consolas" font-size="10.00">libccc_define.h</text>
</a>
</g>
</g>
<!-- Node4&#45;&gt;Node5 -->
<g id="edge4" class="edge">
<title>Node4&#45;&gt;Node5</title>
<path fill="none" stroke="midnightblue" d="M362.08,-236.77C294.55,-231.82 111.3,-216.08 58.33,-188 22.16,-168.83 -14.61,-147.17 6.33,-112 15.42,-96.72 31.72,-86.31 47.47,-79.39"/>
<polygon fill="midnightblue" stroke="midnightblue" points="49.16,-82.48 57.14,-75.51 46.56,-75.98 49.16,-82.48"/>
</g>
<!-- Node7 -->
<g id="node7" class="node">
<title>Node7</title>
<g id="a_node7"><a xlink:href="libccc__errors_8h.html" target="_top" xlink:title=" ">
<polygon fill="white" stroke="black" points="15.33,-112.5 15.33,-131.5 95.33,-131.5 95.33,-112.5 15.33,-112.5"/>
<text text-anchor="middle" x="55.33" y="-119.5" font-family="Consolas" font-size="10.00">libccc_errors.h</text>
</a>
</g>
</g>
<!-- Node4&#45;&gt;Node7 -->
<g id="edge6" class="edge">
<title>Node4&#45;&gt;Node7</title>
<path fill="none" stroke="midnightblue" d="M362.01,-237.8C295.32,-235.45 117.04,-225.7 74.33,-188 61.26,-176.47 56.96,-156.5 55.65,-141.73"/>
<polygon fill="midnightblue" stroke="midnightblue" points="59.14,-141.48 55.13,-131.68 52.15,-141.84 59.14,-141.48"/>
</g>
<!-- Node8 -->
<g id="node8" class="node">
<title>Node8</title>
<g id="a_node8"><a xlink:href="libccc__config_8h.html" target="_top" xlink:title=" ">
<polygon fill="white" stroke="black" points="83.33,-168.5 83.33,-187.5 165.33,-187.5 165.33,-168.5 83.33,-168.5"/>
<text text-anchor="middle" x="124.33" y="-175.5" font-family="Consolas" font-size="10.00">libccc_config.h</text>
</a>
</g>
</g>
<!-- Node4&#45;&gt;Node8 -->
<g id="edge8" class="edge">
<title>Node4&#45;&gt;Node8</title>
<path fill="none" stroke="midnightblue" d="M362.11,-232.79C318.42,-222.91 227.96,-202.45 172.08,-189.8"/>
<polygon fill="midnightblue" stroke="midnightblue" points="172.59,-186.33 162.06,-187.54 171.04,-193.16 172.59,-186.33"/>
</g>
<!-- Node9 -->
<g id="node9" class="node">
<title>Node9</title>
<g id="a_node9"><a xlink:href="libccc__naming_8h.html" target="_top" xlink:title=" ">
<polygon fill="white" stroke="black" points="151.83,-112.5 151.83,-131.5 238.83,-131.5 238.83,-112.5 151.83,-112.5"/>
<text text-anchor="middle" x="195.33" y="-119.5" font-family="Consolas" font-size="10.00">libccc_naming.h</text>
</a>
</g>
</g>
<!-- Node4&#45;&gt;Node9 -->
<g id="edge11" class="edge">
<title>Node4&#45;&gt;Node9</title>
<path fill="none" stroke="midnightblue" d="M362.11,-233.77C332.48,-227.28 282.84,-213.41 247.33,-188 229.59,-175.31 214.69,-154.99 205.45,-140.44"/>
<polygon fill="midnightblue" stroke="midnightblue" points="208.41,-138.58 200.22,-131.86 202.44,-142.22 208.41,-138.58"/>
</g>
<!-- Node10 -->
<g id="node10" class="node">
<title>Node10</title>
<g id="a_node10"><a xlink:href="char_8h.html" target="_top" xlink:title=" ">
<polygon fill="white" stroke="black" points="256.83,-168.5 256.83,-187.5 327.83,-187.5 327.83,-168.5 256.83,-168.5"/>
<text text-anchor="middle" x="292.33" y="-175.5" font-family="Consolas" font-size="10.00">libccc/char.h</text>
</a>
</g>
</g>
<!-- Node4&#45;&gt;Node10 -->
<g id="edge14" class="edge">
<title>Node4&#45;&gt;Node10</title>
<path fill="none" stroke="midnightblue" d="M368.82,-229.98C351.5,-220.43 326.23,-204.81 309.39,-193.37"/>
<polygon fill="midnightblue" stroke="midnightblue" points="311.22,-190.37 301.02,-187.51 307.21,-196.11 311.22,-190.37"/>
</g>
<!-- Node4&#45;&gt;Node14 -->
<g id="edge19" class="edge">
<title>Node4&#45;&gt;Node14</title>
<path fill="none" stroke="midnightblue" d="M406.54,-229.94C413.41,-227.87 421.13,-225.75 428.33,-224 508.44,-204.5 529.61,-204.84 610.33,-188 612.91,-187.46 615.59,-186.89 618.3,-186.32"/>
<polygon fill="midnightblue" stroke="midnightblue" points="619.14,-189.72 628.2,-184.22 617.7,-182.87 619.14,-189.72"/>
</g>
<!-- Node15 -->
<g id="node15" class="node">
<title>Node15</title>
<g id="a_node15"><a xlink:href="fixed_8h.html" target="_top" xlink:title=" ">
<polygon fill="white" stroke="black" points="446.33,-168.5 446.33,-187.5 520.33,-187.5 520.33,-168.5 446.33,-168.5"/>
<text text-anchor="middle" x="483.33" y="-175.5" font-family="Consolas" font-size="10.00">libccc/fixed.h</text>
</a>
</g>
</g>
<!-- Node4&#45;&gt;Node15 -->
<g id="edge22" class="edge">
<title>Node4&#45;&gt;Node15</title>
<path fill="none" stroke="midnightblue" d="M396.18,-229.98C409.87,-220.17 435.77,-203.93 455.92,-192.42"/>
<polygon fill="midnightblue" stroke="midnightblue" points="457.68,-195.45 464.7,-187.51 454.27,-189.34 457.68,-195.45"/>
</g>
<!-- Node16 -->
<g id="node16" class="node">
<title>Node16</title>
<g id="a_node16"><a xlink:href="float_8h.html" target="_top" xlink:title=" ">
<polygon fill="white" stroke="black" points="538.33,-168.5 538.33,-187.5 610.33,-187.5 610.33,-168.5 538.33,-168.5"/>
<text text-anchor="middle" x="574.33" y="-175.5" font-family="Consolas" font-size="10.00">libccc/float.h</text>
</a>
</g>
</g>
<!-- Node4&#45;&gt;Node16 -->
<g id="edge24" class="edge">
<title>Node4&#45;&gt;Node16</title>
<path fill="none" stroke="midnightblue" d="M409.22,-229.98C439.59,-219.59 494.66,-202.01 532.87,-190.45"/>
<polygon fill="midnightblue" stroke="midnightblue" points="534.12,-193.74 542.69,-187.51 532.1,-187.03 534.12,-193.74"/>
</g>
<!-- Node17 -->
<g id="node17" class="node">
<title>Node17</title>
<g id="a_node17"><a xlink:href="pointer_8h.html" target="_top" xlink:title=" ">
<polygon fill="white" stroke="black" points="346.33,-168.5 346.33,-187.5 428.33,-187.5 428.33,-168.5 346.33,-168.5"/>
<text text-anchor="middle" x="387.33" y="-175.5" font-family="Consolas" font-size="10.00">libccc/pointer.h</text>
</a>
</g>
</g>
<!-- Node4&#45;&gt;Node17 -->
<g id="edge26" class="edge">
<title>Node4&#45;&gt;Node17</title>
<path fill="none" stroke="midnightblue" d="M382.43,-229.98C380.6,-221.58 380.12,-208.48 381.01,-197.66"/>
<polygon fill="midnightblue" stroke="midnightblue" points="384.51,-197.9 382.43,-187.51 377.58,-196.93 384.51,-197.9"/>
</g>
<!-- Node6 -->
<g id="node6" class="node">
<title>Node6</title>
<g id="a_node6"><a xlink:title=" ">
<polygon fill="white" stroke="#bfbfbf" points="59.83,-0.5 59.83,-19.5 118.83,-19.5 118.83,-0.5 59.83,-0.5"/>
<text text-anchor="middle" x="89.33" y="-7.5" font-family="Consolas" font-size="10.00">stdalign.h</text>
</a>
</g>
</g>
<!-- Node5&#45;&gt;Node6 -->
<g id="edge5" class="edge">
<title>Node5&#45;&gt;Node6</title>
<path fill="none" stroke="midnightblue" d="M89.33,-56.08C89.33,-49.01 89.33,-38.86 89.33,-29.99"/>
<polygon fill="midnightblue" stroke="midnightblue" points="92.83,-29.75 89.33,-19.75 85.83,-29.75 92.83,-29.75"/>
</g>
<!-- Node7&#45;&gt;Node5 -->
<g id="edge7" class="edge">
<title>Node7&#45;&gt;Node5</title>
<path fill="none" stroke="midnightblue" d="M60.94,-112.08C65.69,-104.53 72.65,-93.49 78.48,-84.23"/>
<polygon fill="midnightblue" stroke="midnightblue" points="81.45,-86.08 83.82,-75.75 75.53,-82.35 81.45,-86.08"/>
</g>
<!-- Node8&#45;&gt;Node5 -->
<g id="edge9" class="edge">
<title>Node8&#45;&gt;Node5</title>
<path fill="none" stroke="midnightblue" d="M121.67,-168.15C117.9,-155.62 110.74,-132.01 104.33,-112 101.5,-103.17 98.25,-93.39 95.51,-85.22"/>
<polygon fill="midnightblue" stroke="midnightblue" points="98.78,-83.96 92.26,-75.61 92.14,-86.2 98.78,-83.96"/>
</g>
<!-- Node8&#45;&gt;Node7 -->
<g id="edge10" class="edge">
<title>Node8&#45;&gt;Node7</title>
<path fill="none" stroke="midnightblue" d="M113.24,-168.32C102.84,-160.18 87.07,-147.84 74.61,-138.09"/>
<polygon fill="midnightblue" stroke="midnightblue" points="76.65,-135.24 66.61,-131.83 72.33,-140.75 76.65,-135.24"/>
</g>
<!-- Node9&#45;&gt;Node5 -->
<g id="edge12" class="edge">
<title>Node9&#45;&gt;Node5</title>
<path fill="none" stroke="midnightblue" d="M178.3,-112.32C161.3,-103.66 134.95,-90.24 115.33,-80.25"/>
<polygon fill="midnightblue" stroke="midnightblue" points="116.81,-77.08 106.32,-75.65 113.64,-83.31 116.81,-77.08"/>
</g>
<!-- Node10&#45;&gt;Node4 -->
<g id="edge16" class="edge">
<title>Node10&#45;&gt;Node4</title>
<path fill="none" stroke="midnightblue" d="M310.81,-187.51C328.12,-197.05 353.39,-212.67 370.23,-224.11"/>
<polygon fill="midnightblue" stroke="midnightblue" points="368.42,-227.11 378.62,-229.98 372.43,-221.38 368.42,-227.11"/>
</g>
<!-- Node11 -->
<g id="node11" class="node">
<title>Node11</title>
<g id="a_node11"><a xlink:title=" ">
<polygon fill="white" stroke="#bfbfbf" points="492.83,-112.5 492.83,-131.5 541.83,-131.5 541.83,-112.5 492.83,-112.5"/>
<text text-anchor="middle" x="517.33" y="-119.5" font-family="Consolas" font-size="10.00">stdint.h</text>
</a>
</g>
</g>
<!-- Node10&#45;&gt;Node11 -->
<g id="edge15" class="edge">
<title>Node10&#45;&gt;Node11</title>
<path fill="none" stroke="midnightblue" d="M327.95,-168.91C364.34,-160.59 422.72,-147.04 482.48,-132.16"/>
<polygon fill="midnightblue" stroke="midnightblue" points="483.61,-135.49 492.47,-129.67 481.91,-128.69 483.61,-135.49"/>
</g>
<!-- Node12 -->
<g id="node12" class="node">
<title>Node12</title>
<g id="a_node12"><a xlink:title=" ">
<polygon fill="white" stroke="#bfbfbf" points="256.83,-112.5 256.83,-131.5 349.83,-131.5 349.83,-112.5 256.83,-112.5"/>
<text text-anchor="middle" x="303.33" y="-119.5" font-family="Consolas" font-size="10.00">libccc/text/ascii.h</text>
</a>
</g>
</g>
<!-- Node10&#45;&gt;Node12 -->
<g id="edge17" class="edge">
<title>Node10&#45;&gt;Node12</title>
<path fill="none" stroke="midnightblue" d="M294.14,-168.08C295.6,-160.93 297.7,-150.64 299.52,-141.69"/>
<polygon fill="midnightblue" stroke="midnightblue" points="302.98,-142.25 301.54,-131.75 296.12,-140.85 302.98,-142.25"/>
</g>
<!-- Node13 -->
<g id="node13" class="node">
<title>Node13</title>
<g id="a_node13"><a xlink:title=" ">
<polygon fill="white" stroke="#bfbfbf" points="367.83,-112.5 367.83,-131.5 474.83,-131.5 474.83,-112.5 367.83,-112.5"/>
<text text-anchor="middle" x="421.33" y="-119.5" font-family="Consolas" font-size="10.00">libccc/text/unicode.h</text>
</a>
</g>
</g>
<!-- Node10&#45;&gt;Node13 -->
<g id="edge18" class="edge">
<title>Node10&#45;&gt;Node13</title>
<path fill="none" stroke="midnightblue" d="M312.77,-168.44C334,-159.56 367.43,-145.56 391.58,-135.45"/>
<polygon fill="midnightblue" stroke="midnightblue" points="393.11,-138.61 400.98,-131.52 390.41,-132.15 393.11,-138.61"/>
</g>
<!-- Node14&#45;&gt;Node4 -->
<g id="edge21" class="edge">
<title>Node14&#45;&gt;Node4</title>
<path fill="none" stroke="midnightblue" d="M630.49,-187.55C629.76,-187.7 629.04,-187.85 628.33,-188 547.61,-204.84 526.44,-204.5 446.33,-224 438.61,-225.88 430.3,-228.18 422.34,-230.38"/>
<polygon fill="midnightblue" stroke="midnightblue" points="421.24,-227.06 412.53,-233.09 423.11,-233.8 421.24,-227.06"/>
</g>
<!-- Node14&#45;&gt;Node11 -->
<g id="edge20" class="edge">
<title>Node14&#45;&gt;Node11</title>
<path fill="none" stroke="midnightblue" d="M637.67,-168.44C613.93,-159.48 576.42,-145.31 549.59,-135.18"/>
<polygon fill="midnightblue" stroke="midnightblue" points="550.47,-131.77 539.88,-131.52 548,-138.32 550.47,-131.77"/>
</g>
<!-- Node15&#45;&gt;Node4 -->
<g id="edge23" class="edge">
<title>Node15&#45;&gt;Node4</title>
<path fill="none" stroke="midnightblue" d="M474.5,-187.51C460.82,-197.31 434.92,-213.54 414.77,-225.06"/>
<polygon fill="midnightblue" stroke="midnightblue" points="413,-222.04 405.98,-229.98 416.42,-228.15 413,-222.04"/>
</g>
<!-- Node16&#45;&gt;Node4 -->
<g id="edge25" class="edge">
<title>Node16&#45;&gt;Node4</title>
<path fill="none" stroke="midnightblue" d="M552.39,-187.54C520.21,-198.54 460.37,-217.6 422.17,-229.03"/>
<polygon fill="midnightblue" stroke="midnightblue" points="421.08,-225.71 412.49,-231.91 423.07,-232.42 421.08,-225.71"/>
</g>
<!-- Node17&#45;&gt;Node4 -->
<g id="edge29" class="edge">
<title>Node17&#45;&gt;Node4</title>
<path fill="none" stroke="midnightblue" d="M392.22,-187.51C394.06,-195.9 394.53,-209 393.64,-219.82"/>
<polygon fill="midnightblue" stroke="midnightblue" points="390.14,-219.59 392.23,-229.98 397.07,-220.55 390.14,-219.59"/>
</g>
<!-- Node17&#45;&gt;Node11 -->
<g id="edge28" class="edge">
<title>Node17&#45;&gt;Node11</title>
<path fill="none" stroke="midnightblue" d="M407.93,-168.44C429.32,-159.56 463.01,-145.56 487.35,-135.45"/>
<polygon fill="midnightblue" stroke="midnightblue" points="488.93,-138.58 496.82,-131.52 486.25,-132.12 488.93,-138.58"/>
</g>
<!-- Node18 -->
<g id="node18" class="node">
<title>Node18</title>
<g id="a_node18"><a xlink:title=" ">
<polygon fill="white" stroke="#bfbfbf" points="560.33,-112.5 560.33,-131.5 612.33,-131.5 612.33,-112.5 560.33,-112.5"/>
<text text-anchor="middle" x="586.33" y="-119.5" font-family="Consolas" font-size="10.00">stddef.h</text>
</a>
</g>
</g>
<!-- Node17&#45;&gt;Node18 -->
<g id="edge27" class="edge">
<title>Node17&#45;&gt;Node18</title>
<path fill="none" stroke="midnightblue" d="M418.86,-168.44C454.52,-158.77 512.5,-143.03 550.02,-132.85"/>
<polygon fill="midnightblue" stroke="midnightblue" points="551.29,-136.13 560.03,-130.14 549.46,-129.38 551.29,-136.13"/>
</g>
<!-- Node19&#45;&gt;Node1 -->
<g id="edge32" class="edge">
<title>Node19&#45;&gt;Node1</title>
<path fill="none" stroke="midnightblue" d="M2005.1,-303.88C1766.47,-312.08 795.61,-344.7 522.86,-353.7"/>
<polygon fill="midnightblue" stroke="midnightblue" points="522.57,-350.2 512.69,-354.03 522.8,-357.2 522.57,-350.2"/>
</g>
<!-- Node20 -->
<g id="node20" class="node">
<title>Node20</title>
<g id="a_node20"><a xlink:title=" ">
<polygon fill="white" stroke="#bfbfbf" points="479.83,-224.5 479.83,-254.5 588.83,-254.5 588.83,-224.5 479.83,-224.5"/>
<text text-anchor="start" x="487.83" y="-242.5" font-family="Consolas" font-size="10.00">libccc/../../src/monad</text>
<text text-anchor="middle" x="534.33" y="-231.5" font-family="Consolas" font-size="10.00">/array/add.c</text>
</a>
</g>
</g>
<!-- Node19&#45;&gt;Node20 -->
<g id="edge33" class="edge">
<title>Node19&#45;&gt;Node20</title>
<path fill="none" stroke="midnightblue" d="M2004.98,-299.75C1778.84,-298.49 897.73,-291.38 598.8,-254.99"/>
<polygon fill="midnightblue" stroke="midnightblue" points="599.2,-251.51 588.84,-253.73 598.33,-258.45 599.2,-251.51"/>
</g>
<!-- Node21 -->
<g id="node21" class="node">
<title>Node21</title>
<g id="a_node21"><a xlink:title=" ">
<polygon fill="white" stroke="#bfbfbf" points="606.83,-224.5 606.83,-254.5 715.83,-254.5 715.83,-224.5 606.83,-224.5"/>
<text text-anchor="start" x="614.83" y="-242.5" font-family="Consolas" font-size="10.00">libccc/../../src/monad</text>
<text text-anchor="middle" x="661.33" y="-231.5" font-family="Consolas" font-size="10.00">/array/compare.c</text>
</a>
</g>
</g>
<!-- Node19&#45;&gt;Node21 -->
<g id="edge34" class="edge">
<title>Node19&#45;&gt;Node21</title>
<path fill="none" stroke="midnightblue" d="M2005.31,-299.57C1792.49,-297.66 999.02,-288.46 726.11,-255.03"/>
<polygon fill="midnightblue" stroke="midnightblue" points="726.21,-251.51 715.85,-253.72 725.33,-258.45 726.21,-251.51"/>
</g>
<!-- Node22 -->
<g id="node22" class="node">
<title>Node22</title>
<g id="a_node22"><a xlink:title=" ">
<polygon fill="white" stroke="#bfbfbf" points="733.83,-224.5 733.83,-254.5 842.83,-254.5 842.83,-224.5 733.83,-224.5"/>
<text text-anchor="start" x="741.83" y="-242.5" font-family="Consolas" font-size="10.00">libccc/../../src/monad</text>
<text text-anchor="middle" x="788.33" y="-231.5" font-family="Consolas" font-size="10.00">/array/concat.c</text>
</a>
</g>
</g>
<!-- Node19&#45;&gt;Node22 -->
<g id="edge35" class="edge">
<title>Node19&#45;&gt;Node22</title>
<path fill="none" stroke="midnightblue" d="M2005.28,-299.36C1805.68,-296.73 1099.03,-285.53 852.82,-254.99"/>
<polygon fill="midnightblue" stroke="midnightblue" points="853.21,-251.51 842.85,-253.71 852.32,-258.46 853.21,-251.51"/>
</g>
<!-- Node23 -->
<g id="node23" class="node">
<title>Node23</title>
<g id="a_node23"><a xlink:title=" ">
<polygon fill="white" stroke="#bfbfbf" points="860.83,-224.5 860.83,-254.5 969.83,-254.5 969.83,-224.5 860.83,-224.5"/>
<text text-anchor="start" x="868.83" y="-242.5" font-family="Consolas" font-size="10.00">libccc/../../src/monad</text>
<text text-anchor="middle" x="915.33" y="-231.5" font-family="Consolas" font-size="10.00">/array/contains.c</text>
</a>
</g>
</g>
<!-- Node19&#45;&gt;Node23 -->
<g id="edge36" class="edge">
<title>Node19&#45;&gt;Node23</title>
<path fill="none" stroke="midnightblue" d="M2005.14,-299.08C1819.49,-295.69 1200.01,-282.62 980.02,-255.02"/>
<polygon fill="midnightblue" stroke="midnightblue" points="980.22,-251.52 969.85,-253.7 979.31,-258.46 980.22,-251.52"/>
</g>
<!-- Node24 -->
<g id="node24" class="node">
<title>Node24</title>
<g id="a_node24"><a xlink:title=" ">
<polygon fill="white" stroke="#bfbfbf" points="987.83,-224.5 987.83,-254.5 1096.83,-254.5 1096.83,-224.5 987.83,-224.5"/>
<text text-anchor="start" x="995.83" y="-242.5" font-family="Consolas" font-size="10.00">libccc/../../src/monad</text>
<text text-anchor="middle" x="1042.33" y="-231.5" font-family="Consolas" font-size="10.00">/array/copy.c</text>
</a>
</g>
</g>
<!-- Node19&#45;&gt;Node24 -->
<g id="edge37" class="edge">
<title>Node19&#45;&gt;Node24</title>
<path fill="none" stroke="midnightblue" d="M2005.19,-298.74C1834.5,-294.52 1300.54,-279.74 1106.91,-255.01"/>
<polygon fill="midnightblue" stroke="midnightblue" points="1107.23,-251.53 1096.85,-253.68 1106.3,-258.46 1107.23,-251.53"/>
</g>
<!-- Node25 -->
<g id="node25" class="node">
<title>Node25</title>
<g id="a_node25"><a xlink:title=" ">
<polygon fill="white" stroke="#bfbfbf" points="1114.83,-224.5 1114.83,-254.5 1223.83,-254.5 1223.83,-224.5 1114.83,-224.5"/>
<text text-anchor="start" x="1122.83" y="-242.5" font-family="Consolas" font-size="10.00">libccc/../../src/monad</text>
<text text-anchor="middle" x="1169.33" y="-231.5" font-family="Consolas" font-size="10.00">/array/count.c</text>
</a>
</g>
</g>
<!-- Node19&#45;&gt;Node25 -->
<g id="edge38" class="edge">
<title>Node19&#45;&gt;Node25</title>
<path fill="none" stroke="midnightblue" d="M2004.87,-300.26C1874.45,-300.2 1529.57,-295.97 1233.91,-255.06"/>
<polygon fill="midnightblue" stroke="midnightblue" points="1234.24,-251.57 1223.86,-253.65 1233.27,-258.51 1234.24,-251.57"/>
</g>
<!-- Node26 -->
<g id="node26" class="node">
<title>Node26</title>
<g id="a_node26"><a xlink:title=" ">
<polygon fill="white" stroke="#bfbfbf" points="1241.83,-224.5 1241.83,-254.5 1350.83,-254.5 1350.83,-224.5 1241.83,-224.5"/>
<text text-anchor="start" x="1249.83" y="-242.5" font-family="Consolas" font-size="10.00">libccc/../../src/monad</text>
<text text-anchor="middle" x="1296.33" y="-231.5" font-family="Consolas" font-size="10.00">/array/create.c</text>
</a>
</g>
</g>
<!-- Node19&#45;&gt;Node26 -->
<g id="edge39" class="edge">
<title>Node19&#45;&gt;Node26</title>
<path fill="none" stroke="midnightblue" d="M2004.97,-299.5C1889.21,-297.79 1606.35,-290.2 1361.04,-255.1"/>
<polygon fill="midnightblue" stroke="midnightblue" points="1361.26,-251.59 1350.86,-253.62 1360.25,-258.52 1361.26,-251.59"/>
</g>
<!-- Node27 -->
<g id="node27" class="node">
<title>Node27</title>
<g id="a_node27"><a xlink:title=" ">
<polygon fill="white" stroke="#bfbfbf" points="1368.83,-224.5 1368.83,-254.5 1477.83,-254.5 1477.83,-224.5 1368.83,-224.5"/>
<text text-anchor="start" x="1376.83" y="-242.5" font-family="Consolas" font-size="10.00">libccc/../../src/monad</text>
<text text-anchor="middle" x="1423.33" y="-231.5" font-family="Consolas" font-size="10.00">/array/delete.c</text>
</a>
</g>
</g>
<!-- Node19&#45;&gt;Node27 -->
<g id="edge40" class="edge">
<title>Node19&#45;&gt;Node27</title>
<path fill="none" stroke="midnightblue" d="M2005.19,-298.44C1905.51,-294.94 1683.61,-284.47 1488.04,-255.12"/>
<polygon fill="midnightblue" stroke="midnightblue" points="1488.28,-251.62 1477.87,-253.57 1487.23,-258.54 1488.28,-251.62"/>
</g>
<!-- Node28 -->
<g id="node28" class="node">
<title>Node28</title>
<g id="a_node28"><a xlink:title=" ">
<polygon fill="white" stroke="#bfbfbf" points="1495.83,-224.5 1495.83,-254.5 1604.83,-254.5 1604.83,-224.5 1495.83,-224.5"/>
<text text-anchor="start" x="1503.83" y="-242.5" font-family="Consolas" font-size="10.00">libccc/../../src/monad</text>
<text text-anchor="middle" x="1550.33" y="-231.5" font-family="Consolas" font-size="10.00">/array/duplicate.c</text>
</a>
</g>
</g>
<!-- Node19&#45;&gt;Node28 -->
<g id="edge41" class="edge">
<title>Node19&#45;&gt;Node28</title>
<path fill="none" stroke="midnightblue" d="M2005.3,-296.8C1923.48,-291.38 1761.41,-278.78 1614.95,-255.14"/>
<polygon fill="midnightblue" stroke="midnightblue" points="1615.31,-251.66 1604.88,-253.5 1614.18,-258.56 1615.31,-251.66"/>
</g>
<!-- Node29 -->
<g id="node29" class="node">
<title>Node29</title>
<g id="a_node29"><a xlink:title=" ">
<polygon fill="white" stroke="#bfbfbf" points="1622.83,-224.5 1622.83,-254.5 1731.83,-254.5 1731.83,-224.5 1622.83,-224.5"/>
<text text-anchor="start" x="1630.83" y="-242.5" font-family="Consolas" font-size="10.00">libccc/../../src/monad</text>
<text text-anchor="middle" x="1677.33" y="-231.5" font-family="Consolas" font-size="10.00">/array/equals.c</text>
</a>
</g>
</g>
<!-- Node19&#45;&gt;Node29 -->
<g id="edge42" class="edge">
<title>Node19&#45;&gt;Node29</title>
<path fill="none" stroke="midnightblue" d="M2005.21,-293.9C1943.99,-286.54 1840.16,-273.11 1742,-255.22"/>
<polygon fill="midnightblue" stroke="midnightblue" points="1742.37,-251.73 1731.9,-253.36 1741.1,-258.62 1742.37,-251.73"/>
</g>
<!-- Node30 -->
<g id="node30" class="node">
<title>Node30</title>
<g id="a_node30"><a xlink:title=" ">
<polygon fill="white" stroke="#bfbfbf" points="1749.83,-224.5 1749.83,-254.5 1858.83,-254.5 1858.83,-224.5 1749.83,-224.5"/>
<text text-anchor="start" x="1757.83" y="-242.5" font-family="Consolas" font-size="10.00">libccc/../../src/monad</text>
<text text-anchor="middle" x="1804.33" y="-231.5" font-family="Consolas" font-size="10.00">/array/filter.c</text>
</a>
</g>
</g>
<!-- Node19&#45;&gt;Node30 -->
<g id="edge43" class="edge">
<title>Node19&#45;&gt;Node30</title>
<path fill="none" stroke="midnightblue" d="M2021.94,-291.48C1982.02,-282.13 1917.2,-266.94 1868.67,-255.57"/>
<polygon fill="midnightblue" stroke="midnightblue" points="1869.42,-252.15 1858.88,-253.28 1867.82,-258.97 1869.42,-252.15"/>
</g>
<!-- Node31 -->
<g id="node31" class="node">
<title>Node31</title>
<g id="a_node31"><a xlink:title=" ">
<polygon fill="white" stroke="#bfbfbf" points="1876.83,-224.5 1876.83,-254.5 1985.83,-254.5 1985.83,-224.5 1876.83,-224.5"/>
<text text-anchor="start" x="1884.83" y="-242.5" font-family="Consolas" font-size="10.00">libccc/../../src/monad</text>
<text text-anchor="middle" x="1931.33" y="-231.5" font-family="Consolas" font-size="10.00">/array/find.c</text>
</a>
</g>
</g>
<!-- Node19&#45;&gt;Node31 -->
<g id="edge44" class="edge">
<title>Node19&#45;&gt;Node31</title>
<path fill="none" stroke="midnightblue" d="M2040.13,-291.48C2022.05,-283 1993.73,-269.74 1970.52,-258.86"/>
<polygon fill="midnightblue" stroke="midnightblue" points="1971.8,-255.6 1961.26,-254.52 1968.83,-261.93 1971.8,-255.6"/>
</g>
<!-- Node32 -->
<g id="node32" class="node">
<title>Node32</title>
<g id="a_node32"><a xlink:title=" ">
<polygon fill="white" stroke="#bfbfbf" points="2003.83,-224.5 2003.83,-254.5 2112.83,-254.5 2112.83,-224.5 2003.83,-224.5"/>
<text text-anchor="start" x="2011.83" y="-242.5" font-family="Consolas" font-size="10.00">libccc/../../src/monad</text>
<text text-anchor="middle" x="2058.33" y="-231.5" font-family="Consolas" font-size="10.00">/array/get.c</text>
</a>
</g>
</g>
<!-- Node19&#45;&gt;Node32 -->
<g id="edge45" class="edge">
<title>Node19&#45;&gt;Node32</title>
<path fill="none" stroke="midnightblue" d="M2058.33,-291.48C2058.33,-284.47 2058.33,-274.19 2058.33,-264.7"/>
<polygon fill="midnightblue" stroke="midnightblue" points="2061.83,-264.52 2058.33,-254.52 2054.83,-264.52 2061.83,-264.52"/>
</g>
<!-- Node33 -->
<g id="node33" class="node">
<title>Node33</title>
<g id="a_node33"><a xlink:title=" ">
<polygon fill="white" stroke="#bfbfbf" points="2130.83,-224.5 2130.83,-254.5 2239.83,-254.5 2239.83,-224.5 2130.83,-224.5"/>
<text text-anchor="start" x="2138.83" y="-242.5" font-family="Consolas" font-size="10.00">libccc/../../src/monad</text>
<text text-anchor="middle" x="2185.33" y="-231.5" font-family="Consolas" font-size="10.00">/array/has.c</text>
</a>
</g>
</g>
<!-- Node19&#45;&gt;Node33 -->
<g id="edge46" class="edge">
<title>Node19&#45;&gt;Node33</title>
<path fill="none" stroke="midnightblue" d="M2076.52,-291.48C2094.61,-283 2122.92,-269.74 2146.13,-258.86"/>
<polygon fill="midnightblue" stroke="midnightblue" points="2147.83,-261.93 2155.4,-254.52 2144.86,-255.6 2147.83,-261.93"/>
</g>
<!-- Node34 -->
<g id="node34" class="node">
<title>Node34</title>
<g id="a_node34"><a xlink:title=" ">
<polygon fill="white" stroke="#bfbfbf" points="2257.83,-224.5 2257.83,-254.5 2366.83,-254.5 2366.83,-224.5 2257.83,-224.5"/>
<text text-anchor="start" x="2265.83" y="-242.5" font-family="Consolas" font-size="10.00">libccc/../../src/monad</text>
<text text-anchor="middle" x="2312.33" y="-231.5" font-family="Consolas" font-size="10.00">/array/insert.c</text>
</a>
</g>
</g>
<!-- Node19&#45;&gt;Node34 -->
<g id="edge47" class="edge">
<title>Node19&#45;&gt;Node34</title>
<path fill="none" stroke="midnightblue" d="M2094.72,-291.48C2134.63,-282.13 2199.45,-266.94 2247.99,-255.57"/>
<polygon fill="midnightblue" stroke="midnightblue" points="2248.83,-258.97 2257.77,-253.28 2247.24,-252.15 2248.83,-258.97"/>
</g>
<!-- Node35 -->
<g id="node35" class="node">
<title>Node35</title>
<g id="a_node35"><a xlink:title=" ">
<polygon fill="white" stroke="#bfbfbf" points="2384.83,-224.5 2384.83,-254.5 2493.83,-254.5 2493.83,-224.5 2384.83,-224.5"/>
<text text-anchor="start" x="2392.83" y="-242.5" font-family="Consolas" font-size="10.00">libccc/../../src/monad</text>
<text text-anchor="middle" x="2439.33" y="-231.5" font-family="Consolas" font-size="10.00">/array/item.c</text>
</a>
</g>
</g>
<!-- Node19&#45;&gt;Node35 -->
<g id="edge48" class="edge">
<title>Node19&#45;&gt;Node35</title>
<path fill="none" stroke="midnightblue" d="M2111.44,-293.9C2172.66,-286.54 2276.49,-273.11 2374.66,-255.22"/>
<polygon fill="midnightblue" stroke="midnightblue" points="2375.55,-258.62 2384.75,-253.36 2374.28,-251.73 2375.55,-258.62"/>
</g>
<!-- Node36 -->
<g id="node36" class="node">
<title>Node36</title>
<g id="a_node36"><a xlink:title=" ">
<polygon fill="white" stroke="#bfbfbf" points="2511.83,-224.5 2511.83,-254.5 2620.83,-254.5 2620.83,-224.5 2511.83,-224.5"/>
<text text-anchor="start" x="2519.83" y="-242.5" font-family="Consolas" font-size="10.00">libccc/../../src/monad</text>
<text text-anchor="middle" x="2566.33" y="-231.5" font-family="Consolas" font-size="10.00">/array/iterate.c</text>
</a>
</g>
</g>
<!-- Node19&#45;&gt;Node36 -->
<g id="edge49" class="edge">
<title>Node19&#45;&gt;Node36</title>
<path fill="none" stroke="midnightblue" d="M2111.36,-296.8C2193.18,-291.38 2355.25,-278.78 2501.71,-255.14"/>
<polygon fill="midnightblue" stroke="midnightblue" points="2502.47,-258.56 2511.77,-253.5 2501.34,-251.66 2502.47,-258.56"/>
</g>
<!-- Node37 -->
<g id="node37" class="node">
<title>Node37</title>
<g id="a_node37"><a xlink:title=" ">
<polygon fill="white" stroke="#bfbfbf" points="2638.83,-224.5 2638.83,-254.5 2747.83,-254.5 2747.83,-224.5 2638.83,-224.5"/>
<text text-anchor="start" x="2646.83" y="-242.5" font-family="Consolas" font-size="10.00">libccc/../../src/monad</text>
<text text-anchor="middle" x="2693.33" y="-231.5" font-family="Consolas" font-size="10.00">/array/map.c</text>
</a>
</g>
</g>
<!-- Node19&#45;&gt;Node37 -->
<g id="edge50" class="edge">
<title>Node19&#45;&gt;Node37</title>
<path fill="none" stroke="midnightblue" d="M2111.46,-298.44C2211.14,-294.94 2433.04,-284.47 2628.61,-255.12"/>
<polygon fill="midnightblue" stroke="midnightblue" points="2629.43,-258.54 2638.79,-253.57 2628.37,-251.62 2629.43,-258.54"/>
</g>
<!-- Node38 -->
<g id="node38" class="node">
<title>Node38</title>
<g id="a_node38"><a xlink:title=" ">
<polygon fill="white" stroke="#bfbfbf" points="2765.83,-224.5 2765.83,-254.5 2874.83,-254.5 2874.83,-224.5 2765.83,-224.5"/>
<text text-anchor="start" x="2773.83" y="-242.5" font-family="Consolas" font-size="10.00">libccc/../../src/monad</text>
<text text-anchor="middle" x="2820.33" y="-231.5" font-family="Consolas" font-size="10.00">/array/new.c</text>
</a>
</g>
</g>
<!-- Node19&#45;&gt;Node38 -->
<g id="edge51" class="edge">
<title>Node19&#45;&gt;Node38</title>
<path fill="none" stroke="midnightblue" d="M2111.69,-299.5C2227.44,-297.79 2510.31,-290.2 2755.62,-255.1"/>
<polygon fill="midnightblue" stroke="midnightblue" points="2756.4,-258.52 2765.79,-253.62 2755.4,-251.59 2756.4,-258.52"/>
</g>
<!-- Node39 -->
<g id="node39" class="node">
<title>Node39</title>
<g id="a_node39"><a xlink:title=" ">
<polygon fill="white" stroke="#bfbfbf" points="2892.83,-224.5 2892.83,-254.5 3001.83,-254.5 3001.83,-224.5 2892.83,-224.5"/>
<text text-anchor="start" x="2900.83" y="-242.5" font-family="Consolas" font-size="10.00">libccc/../../src/monad</text>
<text text-anchor="middle" x="2947.33" y="-231.5" font-family="Consolas" font-size="10.00">/array/reduce.c</text>
</a>
</g>
</g>
<!-- Node19&#45;&gt;Node39 -->
<g id="edge52" class="edge">
<title>Node19&#45;&gt;Node39</title>
<path fill="none" stroke="midnightblue" d="M2111.78,-300.26C2242.2,-300.2 2587.08,-295.97 2882.74,-255.06"/>
<polygon fill="midnightblue" stroke="midnightblue" points="2883.38,-258.51 2892.8,-253.65 2882.41,-251.57 2883.38,-258.51"/>
</g>
<!-- Node40 -->
<g id="node40" class="node">
<title>Node40</title>
<g id="a_node40"><a xlink:title=" ">
<polygon fill="white" stroke="#bfbfbf" points="3019.83,-224.5 3019.83,-254.5 3128.83,-254.5 3128.83,-224.5 3019.83,-224.5"/>
<text text-anchor="start" x="3027.83" y="-242.5" font-family="Consolas" font-size="10.00">libccc/../../src/monad</text>
<text text-anchor="middle" x="3074.33" y="-231.5" font-family="Consolas" font-size="10.00">/array/remove.c</text>
</a>
</g>
</g>
<!-- Node19&#45;&gt;Node40 -->
<g id="edge53" class="edge">
<title>Node19&#45;&gt;Node40</title>
<path fill="none" stroke="midnightblue" d="M2111.47,-298.74C2282.15,-294.52 2816.12,-279.74 3009.74,-255.01"/>
<polygon fill="midnightblue" stroke="midnightblue" points="3010.35,-258.46 3019.8,-253.68 3009.43,-251.53 3010.35,-258.46"/>
</g>
<!-- Node41 -->
<g id="node41" class="node">
<title>Node41</title>
<g id="a_node41"><a xlink:title=" ">
<polygon fill="white" stroke="#bfbfbf" points="3146.83,-224.5 3146.83,-254.5 3255.83,-254.5 3255.83,-224.5 3146.83,-224.5"/>
<text text-anchor="start" x="3154.83" y="-242.5" font-family="Consolas" font-size="10.00">libccc/../../src/monad</text>
<text text-anchor="middle" x="3201.33" y="-231.5" font-family="Consolas" font-size="10.00">/array/removeat.c</text>
</a>
</g>
</g>
<!-- Node19&#45;&gt;Node41 -->
<g id="edge54" class="edge">
<title>Node19&#45;&gt;Node41</title>
<path fill="none" stroke="midnightblue" d="M2111.51,-299.08C2297.16,-295.69 2916.64,-282.62 3136.63,-255.02"/>
<polygon fill="midnightblue" stroke="midnightblue" points="3137.34,-258.46 3146.8,-253.7 3136.44,-251.52 3137.34,-258.46"/>
</g>
<!-- Node42 -->
<g id="node42" class="node">
<title>Node42</title>
<g id="a_node42"><a xlink:title=" ">
<polygon fill="white" stroke="#bfbfbf" points="3273.83,-224.5 3273.83,-254.5 3382.83,-254.5 3382.83,-224.5 3273.83,-224.5"/>
<text text-anchor="start" x="3281.83" y="-242.5" font-family="Consolas" font-size="10.00">libccc/../../src/monad</text>
<text text-anchor="middle" x="3328.33" y="-231.5" font-family="Consolas" font-size="10.00">/array/replace.c</text>
</a>
</g>
</g>
<!-- Node19&#45;&gt;Node42 -->
<g id="edge55" class="edge">
<title>Node19&#45;&gt;Node42</title>
<path fill="none" stroke="midnightblue" d="M2111.37,-299.36C2310.98,-296.73 3017.62,-285.53 3263.84,-254.99"/>
<polygon fill="midnightblue" stroke="midnightblue" points="3264.33,-258.46 3273.81,-253.71 3263.44,-251.51 3264.33,-258.46"/>
</g>
<!-- Node43 -->
<g id="node43" class="node">
<title>Node43</title>
<g id="a_node43"><a xlink:title=" ">
<polygon fill="white" stroke="#bfbfbf" points="3400.83,-224.5 3400.83,-254.5 3509.83,-254.5 3509.83,-224.5 3400.83,-224.5"/>
<text text-anchor="start" x="3408.83" y="-242.5" font-family="Consolas" font-size="10.00">libccc/../../src/monad</text>
<text text-anchor="middle" x="3455.33" y="-231.5" font-family="Consolas" font-size="10.00">/array/reverse.c</text>
</a>
</g>
</g>
<!-- Node19&#45;&gt;Node43 -->
<g id="edge56" class="edge">
<title>Node19&#45;&gt;Node43</title>
<path fill="none" stroke="midnightblue" d="M2111.34,-299.57C2324.16,-297.66 3117.64,-288.46 3390.54,-255.03"/>
<polygon fill="midnightblue" stroke="midnightblue" points="3391.33,-258.45 3400.81,-253.72 3390.45,-251.51 3391.33,-258.45"/>
</g>
<!-- Node44 -->
<g id="node44" class="node">
<title>Node44</title>
<g id="a_node44"><a xlink:title=" ">
<polygon fill="white" stroke="#bfbfbf" points="3527.83,-224.5 3527.83,-254.5 3636.83,-254.5 3636.83,-224.5 3527.83,-224.5"/>
<text text-anchor="start" x="3535.83" y="-242.5" font-family="Consolas" font-size="10.00">libccc/../../src/monad</text>
<text text-anchor="middle" x="3582.33" y="-231.5" font-family="Consolas" font-size="10.00">/array/set.c</text>
</a>
</g>
</g>
<!-- Node19&#45;&gt;Node44 -->
<g id="edge57" class="edge">
<title>Node19&#45;&gt;Node44</title>
<path fill="none" stroke="midnightblue" d="M2111.68,-299.75C2337.82,-298.49 3218.93,-291.38 3517.85,-254.99"/>
<polygon fill="midnightblue" stroke="midnightblue" points="3518.32,-258.45 3527.81,-253.73 3517.45,-251.51 3518.32,-258.45"/>
</g>
<!-- Node45 -->
<g id="node45" class="node">
<title>Node45</title>
<g id="a_node45"><a xlink:title=" ">
<polygon fill="white" stroke="#bfbfbf" points="3654.83,-224.5 3654.83,-254.5 3763.83,-254.5 3763.83,-224.5 3654.83,-224.5"/>
<text text-anchor="start" x="3662.83" y="-242.5" font-family="Consolas" font-size="10.00">libccc/../../src/monad</text>
<text text-anchor="middle" x="3709.33" y="-231.5" font-family="Consolas" font-size="10.00">/array/sub.c</text>
</a>
</g>
</g>
<!-- Node19&#45;&gt;Node45 -->
<g id="edge58" class="edge">
<title>Node19&#45;&gt;Node45</title>
<path fill="none" stroke="midnightblue" d="M2111.39,-299.91C2349.13,-299.27 3318.44,-294.36 3644.42,-255.04"/>
<polygon fill="midnightblue" stroke="midnightblue" points="3645.32,-258.45 3654.81,-253.74 3644.45,-251.5 3645.32,-258.45"/>
</g>
<!-- Node46 -->
<g id="node46" class="node">
<title>Node46</title>
<g id="a_node46"><a xlink:title=" ">
<polygon fill="white" stroke="#bfbfbf" points="3781.83,-224.5 3781.83,-254.5 3890.83,-254.5 3890.83,-224.5 3781.83,-224.5"/>
<text text-anchor="start" x="3789.83" y="-242.5" font-family="Consolas" font-size="10.00">libccc/../../src/monad</text>
<text text-anchor="middle" x="3836.33" y="-231.5" font-family="Consolas" font-size="10.00">/array/wedge.c</text>
</a>
</g>
</g>
<!-- Node19&#45;&gt;Node46 -->
<g id="edge59" class="edge">
<title>Node19&#45;&gt;Node46</title>
<path fill="none" stroke="midnightblue" d="M2111.37,-300.04C2360.85,-299.99 3419.75,-297.33 3771.85,-254.98"/>
<polygon fill="midnightblue" stroke="midnightblue" points="3772.32,-258.45 3781.81,-253.75 3771.46,-251.5 3772.32,-258.45"/>
</g>
</g>
</svg>
        <g id="navigator" transform="translate(0 0)" fill="#404254">
                <rect fill="#f2f5e9" fill-opacity="0.5" stroke="#606060" stroke-width=".5" x="0" y="0" width="60" height="60"/>
                <use id="zoomplus" xlink:href="#zoomPlus" x="17" y="9" onmousedown="handleZoom(evt,'in')"/>
                <use id="zoomminus" xlink:href="#zoomMin" x="42" y="9" onmousedown="handleZoom(evt,'out')"/>
                <use id="reset" xlink:href="#resetDef" x="30" y="36" onmousedown="handleReset()"/>
                <g id="arrowUp" xlink:href="#dirArrow" transform="translate(30 24)" onmousedown="handlePan(0,-1)">
                  <use xlink:href="#rim" fill="#404040">
                        <set attributeName="fill" to="#808080" begin="arrowUp.mouseover" end="arrowUp.mouseout"/>
                  </use>
                  <path fill="none" stroke="white" stroke-width="1.5" d="M0,-3.0v7 M-2.5,-0.5L0,-3.0L2.5,-0.5"/>
                </g>
                <g id="arrowRight" xlink:href="#dirArrow" transform="rotate(90) translate(36 -43)" onmousedown="handlePan(1,0)">
                  <use xlink:href="#rim" fill="#404040">
                        <set attributeName="fill" to="#808080" begin="arrowRight.mouseover" end="arrowRight.mouseout"/>
                  </use>
                  <path fill="none" stroke="white" stroke-width="1.5" d="M0,-3.0v7 M-2.5,-0.5L0,-3.0L2.5,-0.5"/>
                </g>
                <g id="arrowDown" xlink:href="#dirArrow" transform="rotate(180) translate(-30 -48)" onmousedown="handlePan(0,1)">
                  <use xlink:href="#rim" fill="#404040">
                        <set attributeName="fill" to="#808080" begin="arrowDown.mouseover" end="arrowDown.mouseout"/>
                  </use>
                  <path fill="none" stroke="white" stroke-width="1.5" d="M0,-3.0v7 M-2.5,-0.5L0,-3.0L2.5,-0.5"/>
                </g>
                <g id="arrowLeft" xlink:href="#dirArrow" transform="rotate(270) translate(-36 17)" onmousedown="handlePan(-1,0)">
                  <use xlink:href="#rim" fill="#404040">
                        <set attributeName="fill" to="#808080" begin="arrowLeft.mouseover" end="arrowLeft.mouseout"/>
                  </use>
                  <path fill="none" stroke="white" stroke-width="1.5" d="M0,-3.0v7 M-2.5,-0.5L0,-3.0L2.5,-0.5"/>
                </g>
        </g>
        <svg viewBox="0 0 15 15" width="100%" height="30px" preserveAspectRatio="xMaxYMin meet">
         <g id="arrow_out" transform="scale(0.3 0.3)">
          <a xlink:href="array_8h__incl_org.svg" target="_base">
           <rect id="button" ry="5" rx="5" y="6" x="6" height="38" width="38"
                fill="#f2f5e9" fill-opacity="0.5" stroke="#606060" stroke-width="1.0"/>
           <path id="arrow"
             d="M 11.500037,31.436501 C 11.940474,20.09759 22.043105,11.32322 32.158766,21.979434 L 37.068811,17.246167 C 37.068811,17.246167 37.088388,32 37.088388,32 L 22.160133,31.978069 C 22.160133,31.978069 26.997745,27.140456 26.997745,27.140456 C 18.528582,18.264221 13.291696,25.230495 11.500037,31.436501 z"
             style="fill:#404040;"/>
          </a>
         </g>
        </svg>
</svg>
