<?xml version="1.0" encoding="UTF-8" standalone="no"?>
<!DOCTYPE svg PUBLIC "-//W3C//DTD SVG 1.1//EN"
 "http://www.w3.org/Graphics/SVG/1.1/DTD/svg11.dtd">
<!-- Generated by graphviz version 2.49.3 (20211023.0002)
 -->
<!-- Title: hdr/libccc/monad/array.c Pages: 1 -->
<!--zoomable 431 -->
<svg id="main" version="1.1" xmlns="http://www.w3.org/2000/svg" xmlns:xlink="http://www.w3.org/1999/xlink" xml:space="preserve" onload="init(evt)">
<style type="text/css"><![CDATA[
.edge:hover path { stroke: red; }
.edge:hover polygon { stroke: red; fill: red; }
]]></style>
<script type="text/javascript"><![CDATA[
var edges = document.getElementsByTagName('g');
if (edges && edges.length) {
  for (var i=0;i<edges.length;i++) {
    if (edges[i].id.substr(0,4)=='edge') {
      edges[i].setAttribute('class','edge');
    }
  }
}
]]></script>
        <defs>
                <circle id="rim" cx="0" cy="0" r="7"/>
                <circle id="rim2" cx="0" cy="0" r="3.5"/>
                <g id="zoomPlus">
                        <use xlink:href="#rim" fill="#404040">
                                <set attributeName="fill" to="#808080" begin="zoomplus.mouseover" end="zoomplus.mouseout"/>
                        </use>
                        <path d="M-4,0h8M0,-4v8" fill="none" stroke="white" stroke-width="1.5" pointer-events="none"/>
                </g>
                <g id="zoomMin">
                        <use xlink:href="#rim" fill="#404040">
                                <set attributeName="fill" to="#808080" begin="zoomminus.mouseover" end="zoomminus.mouseout"/>
                        </use>
                        <path d="M-4,0h8" fill="none" stroke="white" stroke-width="1.5" pointer-events="none"/>
                </g>
                <g id="dirArrow">
                        <path fill="none" stroke="white" stroke-width="1.5" d="M0,-3.0v7 M-2.5,-0.5L0,-3.0L2.5,-0.5"/>
                </g>
               <g id="resetDef">
                       <use xlink:href="#rim2" fill="#404040">
                               <set attributeName="fill" to="#808080" begin="reset.mouseover" end="reset.mouseout"/>
                       </use>
               </g>
        </defs>

<script type="text/javascript">
var viewWidth = 3649;
var viewHeight = 431;
var sectionId = 'dynsection-0';
</script>
<script xlink:href="svgpan.js"/>
<svg id="graph" class="graph">
<g id="viewport">
<title>hdr/libccc/monad/array.c</title>
<polygon fill="white" stroke="transparent" points="-4,4 -4,-427 3645,-427 3645,4 -4,4"/>
<!-- Node1 -->
<g id="node1" class="node">
<title>Node1</title>
<g id="a_node1"><a xlink:title=" ">
<polygon fill="#bfbfbf" stroke="black" points="1747.5,-403.5 1747.5,-422.5 1869.5,-422.5 1869.5,-403.5 1747.5,-403.5"/>
<text text-anchor="middle" x="1808.5" y="-410.5" font-family="Consolas" font-size="10.00">hdr/libccc/monad/array.c</text>
</a>
</g>
</g>
<!-- Node2 -->
<g id="node2" class="node">
<title>Node2</title>
<g id="a_node2"><a xlink:href="array_8h.html" target="_top" xlink:title=" ">
<polygon fill="white" stroke="black" points="105.5,-342 105.5,-361 211.5,-361 211.5,-342 105.5,-342"/>
<text text-anchor="middle" x="158.5" y="-349" font-family="Consolas" font-size="10.00">libccc/monad/array.h</text>
</a>
</g>
</g>
<!-- Node1&#45;&gt;Node2 -->
<g id="edge1" class="edge">
<title>Node1&#45;&gt;Node2</title>
<path fill="none" stroke="midnightblue" d="M1747.44,-411.92C1492.91,-411.34 516.12,-406.53 211.5,-367 204.81,-366.13 197.79,-364.85 191.09,-363.41"/>
<polygon fill="midnightblue" stroke="midnightblue" points="191.46,-359.9 180.93,-361.04 189.87,-366.72 191.46,-359.9"/>
</g>
<!-- Node20 -->
<g id="node20" class="node">
<title>Node20</title>
<g id="a_node20"><a xlink:title=" ">
<polygon fill="white" stroke="#bfbfbf" points="230,-336.5 230,-366.5 339,-366.5 339,-336.5 230,-336.5"/>
<text text-anchor="start" x="238" y="-354.5" font-family="Consolas" font-size="10.00">libccc/../../src/monad</text>
<text text-anchor="middle" x="284.5" y="-343.5" font-family="Consolas" font-size="10.00">/array/add.c</text>
</a>
</g>
</g>
<!-- Node1&#45;&gt;Node20 -->
<g id="edge33" class="edge">
<title>Node1&#45;&gt;Node20</title>
<path fill="none" stroke="midnightblue" d="M1747.2,-411.71C1509.17,-410.33 645.23,-402.99 349.3,-367.03"/>
<polygon fill="midnightblue" stroke="midnightblue" points="349.38,-363.51 339.02,-365.73 348.5,-370.45 349.38,-363.51"/>
</g>
<!-- Node21 -->
<g id="node21" class="node">
<title>Node21</title>
<g id="a_node21"><a xlink:title=" ">
<polygon fill="white" stroke="#bfbfbf" points="357,-336.5 357,-366.5 466,-366.5 466,-336.5 357,-336.5"/>
<text text-anchor="start" x="365" y="-354.5" font-family="Consolas" font-size="10.00">libccc/../../src/monad</text>
<text text-anchor="middle" x="411.5" y="-343.5" font-family="Consolas" font-size="10.00">/array/compare.c</text>
</a>
</g>
</g>
<!-- Node1&#45;&gt;Node21 -->
<g id="edge34" class="edge">
<title>Node1&#45;&gt;Node21</title>
<path fill="none" stroke="midnightblue" d="M1747.22,-411.47C1522.96,-409.29 746.46,-399.61 476.36,-366.88"/>
<polygon fill="midnightblue" stroke="midnightblue" points="476.55,-363.38 466.19,-365.61 475.68,-370.32 476.55,-363.38"/>
</g>
<!-- Node22 -->
<g id="node22" class="node">
<title>Node22</title>
<g id="a_node22"><a xlink:title=" ">
<polygon fill="white" stroke="#bfbfbf" points="484,-336.5 484,-366.5 593,-366.5 593,-336.5 484,-336.5"/>
<text text-anchor="start" x="492" y="-354.5" font-family="Consolas" font-size="10.00">libccc/../../src/monad</text>
<text text-anchor="middle" x="538.5" y="-343.5" font-family="Consolas" font-size="10.00">/array/concat.c</text>
</a>
</g>
</g>
<!-- Node1&#45;&gt;Node22 -->
<g id="edge35" class="edge">
<title>Node1&#45;&gt;Node22</title>
<path fill="none" stroke="midnightblue" d="M1747.29,-411.22C1537.46,-408.3 847.32,-396.75 603.42,-366.89"/>
<polygon fill="midnightblue" stroke="midnightblue" points="603.55,-363.38 593.19,-365.59 602.67,-370.32 603.55,-363.38"/>
</g>
<!-- Node23 -->
<g id="node23" class="node">
<title>Node23</title>
<g id="a_node23"><a xlink:title=" ">
<polygon fill="white" stroke="#bfbfbf" points="611,-336.5 611,-366.5 720,-366.5 720,-336.5 611,-336.5"/>
<text text-anchor="start" x="619" y="-354.5" font-family="Consolas" font-size="10.00">libccc/../../src/monad</text>
<text text-anchor="middle" x="665.5" y="-343.5" font-family="Consolas" font-size="10.00">/array/contains.c</text>
</a>
</g>
</g>
<!-- Node1&#45;&gt;Node23 -->
<g id="edge36" class="edge">
<title>Node1&#45;&gt;Node23</title>
<path fill="none" stroke="midnightblue" d="M1747.31,-410.91C1552.56,-407.2 947.78,-393.89 730.26,-366.87"/>
<polygon fill="midnightblue" stroke="midnightblue" points="730.56,-363.38 720.19,-365.58 729.67,-370.33 730.56,-363.38"/>
</g>
<!-- Node24 -->
<g id="node24" class="node">
<title>Node24</title>
<g id="a_node24"><a xlink:title=" ">
<polygon fill="white" stroke="#bfbfbf" points="738,-336.5 738,-366.5 847,-366.5 847,-336.5 738,-336.5"/>
<text text-anchor="start" x="746" y="-354.5" font-family="Consolas" font-size="10.00">libccc/../../src/monad</text>
<text text-anchor="middle" x="792.5" y="-343.5" font-family="Consolas" font-size="10.00">/array/copy.c</text>
</a>
</g>
</g>
<!-- Node1&#45;&gt;Node24 -->
<g id="edge37" class="edge">
<title>Node1&#45;&gt;Node24</title>
<path fill="none" stroke="midnightblue" d="M1747.28,-410.51C1568.51,-405.95 1048.4,-391.06 857.14,-366.86"/>
<polygon fill="midnightblue" stroke="midnightblue" points="857.57,-363.39 847.2,-365.56 856.66,-370.33 857.57,-363.39"/>
</g>
<!-- Node25 -->
<g id="node25" class="node">
<title>Node25</title>
<g id="a_node25"><a xlink:title=" ">
<polygon fill="white" stroke="#bfbfbf" points="865,-336.5 865,-366.5 974,-366.5 974,-336.5 865,-336.5"/>
<text text-anchor="start" x="873" y="-354.5" font-family="Consolas" font-size="10.00">libccc/../../src/monad</text>
<text text-anchor="middle" x="919.5" y="-343.5" font-family="Consolas" font-size="10.00">/array/count.c</text>
</a>
</g>
</g>
<!-- Node1&#45;&gt;Node25 -->
<g id="edge38" class="edge">
<title>Node1&#45;&gt;Node25</title>
<path fill="none" stroke="midnightblue" d="M1747.36,-412.17C1611.67,-411.8 1275.11,-406.7 984.52,-366.96"/>
<polygon fill="midnightblue" stroke="midnightblue" points="984.59,-363.43 974.2,-365.53 983.63,-370.37 984.59,-363.43"/>
</g>
<!-- Node26 -->
<g id="node26" class="node">
<title>Node26</title>
<g id="a_node26"><a xlink:title=" ">
<polygon fill="white" stroke="#bfbfbf" points="992,-336.5 992,-366.5 1101,-366.5 1101,-336.5 992,-336.5"/>
<text text-anchor="start" x="1000" y="-354.5" font-family="Consolas" font-size="10.00">libccc/../../src/monad</text>
<text text-anchor="middle" x="1046.5" y="-343.5" font-family="Consolas" font-size="10.00">/array/create.c</text>
</a>
</g>
</g>
<!-- Node1&#45;&gt;Node26 -->
<g id="edge39" class="edge">
<title>Node1&#45;&gt;Node26</title>
<path fill="none" stroke="midnightblue" d="M1747.48,-411.31C1627.39,-409.24 1351.92,-401.03 1111.2,-366.93"/>
<polygon fill="midnightblue" stroke="midnightblue" points="1111.6,-363.45 1101.21,-365.49 1110.61,-370.38 1111.6,-363.45"/>
</g>
<!-- Node27 -->
<g id="node27" class="node">
<title>Node27</title>
<g id="a_node27"><a xlink:title=" ">
<polygon fill="white" stroke="#bfbfbf" points="1119,-336.5 1119,-366.5 1228,-366.5 1228,-336.5 1119,-336.5"/>
<text text-anchor="start" x="1127" y="-354.5" font-family="Consolas" font-size="10.00">libccc/../../src/monad</text>
<text text-anchor="middle" x="1173.5" y="-343.5" font-family="Consolas" font-size="10.00">/array/delete.c</text>
</a>
</g>
</g>
<!-- Node1&#45;&gt;Node27 -->
<g id="edge40" class="edge">
<title>Node1&#45;&gt;Node27</title>
<path fill="none" stroke="midnightblue" d="M1747.33,-410.07C1644.25,-406.19 1429.34,-395.37 1238.16,-366.94"/>
<polygon fill="midnightblue" stroke="midnightblue" points="1238.62,-363.47 1228.21,-365.44 1237.58,-370.39 1238.62,-363.47"/>
</g>
<!-- Node28 -->
<g id="node28" class="node">
<title>Node28</title>
<g id="a_node28"><a xlink:title=" ">
<polygon fill="white" stroke="#bfbfbf" points="1246,-336.5 1246,-366.5 1355,-366.5 1355,-336.5 1246,-336.5"/>
<text text-anchor="start" x="1254" y="-354.5" font-family="Consolas" font-size="10.00">libccc/../../src/monad</text>
<text text-anchor="middle" x="1300.5" y="-343.5" font-family="Consolas" font-size="10.00">/array/duplicate.c</text>
</a>
</g>
</g>
<!-- Node1&#45;&gt;Node28 -->
<g id="edge41" class="edge">
<title>Node1&#45;&gt;Node28</title>
<path fill="none" stroke="midnightblue" d="M1747.14,-408.15C1663.2,-402.37 1507.73,-389.78 1365.45,-367.02"/>
<polygon fill="midnightblue" stroke="midnightblue" points="1365.66,-363.5 1355.23,-365.36 1364.54,-370.41 1365.66,-363.5"/>
</g>
<!-- Node29 -->
<g id="node29" class="node">
<title>Node29</title>
<g id="a_node29"><a xlink:title=" ">
<polygon fill="white" stroke="#bfbfbf" points="1373,-336.5 1373,-366.5 1482,-366.5 1482,-336.5 1373,-336.5"/>
<text text-anchor="start" x="1381" y="-354.5" font-family="Consolas" font-size="10.00">libccc/../../src/monad</text>
<text text-anchor="middle" x="1427.5" y="-343.5" font-family="Consolas" font-size="10.00">/array/equals.c</text>
</a>
</g>
</g>
<!-- Node1&#45;&gt;Node29 -->
<g id="edge42" class="edge">
<title>Node1&#45;&gt;Node29</title>
<path fill="none" stroke="midnightblue" d="M1747.49,-404.84C1685.67,-397.25 1587.09,-384.22 1492.3,-367.05"/>
<polygon fill="midnightblue" stroke="midnightblue" points="1492.72,-363.57 1482.25,-365.21 1491.46,-370.46 1492.72,-363.57"/>
</g>
<!-- Node30 -->
<g id="node30" class="node">
<title>Node30</title>
<g id="a_node30"><a xlink:title=" ">
<polygon fill="white" stroke="#bfbfbf" points="1500,-336.5 1500,-366.5 1609,-366.5 1609,-336.5 1500,-336.5"/>
<text text-anchor="start" x="1508" y="-354.5" font-family="Consolas" font-size="10.00">libccc/../../src/monad</text>
<text text-anchor="middle" x="1554.5" y="-343.5" font-family="Consolas" font-size="10.00">/array/filter.c</text>
</a>
</g>
</g>
<!-- Node1&#45;&gt;Node30 -->
<g id="edge43" class="edge">
<title>Node1&#45;&gt;Node30</title>
<path fill="none" stroke="midnightblue" d="M1772.11,-403.48C1732.2,-394.13 1667.37,-378.94 1618.84,-367.57"/>
<polygon fill="midnightblue" stroke="midnightblue" points="1619.59,-364.15 1609.06,-365.28 1617.99,-370.97 1619.59,-364.15"/>
</g>
<!-- Node31 -->
<g id="node31" class="node">
<title>Node31</title>
<g id="a_node31"><a xlink:title=" ">
<polygon fill="white" stroke="#bfbfbf" points="1627,-336.5 1627,-366.5 1736,-366.5 1736,-336.5 1627,-336.5"/>
<text text-anchor="start" x="1635" y="-354.5" font-family="Consolas" font-size="10.00">libccc/../../src/monad</text>
<text text-anchor="middle" x="1681.5" y="-343.5" font-family="Consolas" font-size="10.00">/array/find.c</text>
</a>
</g>
</g>
<!-- Node1&#45;&gt;Node31 -->
<g id="edge44" class="edge">
<title>Node1&#45;&gt;Node31</title>
<path fill="none" stroke="midnightblue" d="M1790.3,-403.48C1772.22,-395 1743.91,-381.74 1720.69,-370.86"/>
<polygon fill="midnightblue" stroke="midnightblue" points="1721.97,-367.6 1711.43,-366.52 1719,-373.93 1721.97,-367.6"/>
</g>
<!-- Node32 -->
<g id="node32" class="node">
<title>Node32</title>
<g id="a_node32"><a xlink:title=" ">
<polygon fill="white" stroke="#bfbfbf" points="1754,-336.5 1754,-366.5 1863,-366.5 1863,-336.5 1754,-336.5"/>
<text text-anchor="start" x="1762" y="-354.5" font-family="Consolas" font-size="10.00">libccc/../../src/monad</text>
<text text-anchor="middle" x="1808.5" y="-343.5" font-family="Consolas" font-size="10.00">/array/get.c</text>
</a>
</g>
</g>
<!-- Node1&#45;&gt;Node32 -->
<g id="edge45" class="edge">
<title>Node1&#45;&gt;Node32</title>
<path fill="none" stroke="midnightblue" d="M1808.5,-403.48C1808.5,-396.47 1808.5,-386.19 1808.5,-376.7"/>
<polygon fill="midnightblue" stroke="midnightblue" points="1812,-376.52 1808.5,-366.52 1805,-376.52 1812,-376.52"/>
</g>
<!-- Node33 -->
<g id="node33" class="node">
<title>Node33</title>
<g id="a_node33"><a xlink:title=" ">
<polygon fill="white" stroke="#bfbfbf" points="1881,-336.5 1881,-366.5 1990,-366.5 1990,-336.5 1881,-336.5"/>
<text text-anchor="start" x="1889" y="-354.5" font-family="Consolas" font-size="10.00">libccc/../../src/monad</text>
<text text-anchor="middle" x="1935.5" y="-343.5" font-family="Consolas" font-size="10.00">/array/has.c</text>
</a>
</g>
</g>
<!-- Node1&#45;&gt;Node33 -->
<g id="edge46" class="edge">
<title>Node1&#45;&gt;Node33</title>
<path fill="none" stroke="midnightblue" d="M1826.7,-403.48C1844.78,-395 1873.09,-381.74 1896.31,-370.86"/>
<polygon fill="midnightblue" stroke="midnightblue" points="1898,-373.93 1905.57,-366.52 1895.03,-367.6 1898,-373.93"/>
</g>
<!-- Node34 -->
<g id="node34" class="node">
<title>Node34</title>
<g id="a_node34"><a xlink:title=" ">
<polygon fill="white" stroke="#bfbfbf" points="2008,-336.5 2008,-366.5 2117,-366.5 2117,-336.5 2008,-336.5"/>
<text text-anchor="start" x="2016" y="-354.5" font-family="Consolas" font-size="10.00">libccc/../../src/monad</text>
<text text-anchor="middle" x="2062.5" y="-343.5" font-family="Consolas" font-size="10.00">/array/insert.c</text>
</a>
</g>
</g>
<!-- Node1&#45;&gt;Node34 -->
<g id="edge47" class="edge">
<title>Node1&#45;&gt;Node34</title>
<path fill="none" stroke="midnightblue" d="M1844.89,-403.48C1884.8,-394.13 1949.63,-378.94 1998.16,-367.57"/>
<polygon fill="midnightblue" stroke="midnightblue" points="1999.01,-370.97 2007.94,-365.28 1997.41,-364.15 1999.01,-370.97"/>
</g>
<!-- Node35 -->
<g id="node35" class="node">
<title>Node35</title>
<g id="a_node35"><a xlink:title=" ">
<polygon fill="white" stroke="#bfbfbf" points="2135,-336.5 2135,-366.5 2244,-366.5 2244,-336.5 2135,-336.5"/>
<text text-anchor="start" x="2143" y="-354.5" font-family="Consolas" font-size="10.00">libccc/../../src/monad</text>
<text text-anchor="middle" x="2189.5" y="-343.5" font-family="Consolas" font-size="10.00">/array/item.c</text>
</a>
</g>
</g>
<!-- Node1&#45;&gt;Node35 -->
<g id="edge48" class="edge">
<title>Node1&#45;&gt;Node35</title>
<path fill="none" stroke="midnightblue" d="M1869.72,-404.92C1931.74,-397.38 2030.64,-384.4 2124.93,-367.2"/>
<polygon fill="midnightblue" stroke="midnightblue" points="2125.72,-370.62 2134.92,-365.36 2124.46,-363.73 2125.72,-370.62"/>
</g>
<!-- Node36 -->
<g id="node36" class="node">
<title>Node36</title>
<g id="a_node36"><a xlink:title=" ">
<polygon fill="white" stroke="#bfbfbf" points="2262,-336.5 2262,-366.5 2371,-366.5 2371,-336.5 2262,-336.5"/>
<text text-anchor="start" x="2270" y="-354.5" font-family="Consolas" font-size="10.00">libccc/../../src/monad</text>
<text text-anchor="middle" x="2316.5" y="-343.5" font-family="Consolas" font-size="10.00">/array/iterate.c</text>
</a>
</g>
</g>
<!-- Node1&#45;&gt;Node36 -->
<g id="edge49" class="edge">
<title>Node1&#45;&gt;Node36</title>
<path fill="none" stroke="midnightblue" d="M1869.64,-408.25C1953.69,-402.57 2109.78,-390.07 2251.75,-367.16"/>
<polygon fill="midnightblue" stroke="midnightblue" points="2252.64,-370.56 2261.95,-365.5 2251.51,-363.66 2252.64,-370.56"/>
</g>
<!-- Node37 -->
<g id="node37" class="node">
<title>Node37</title>
<g id="a_node37"><a xlink:title=" ">
<polygon fill="white" stroke="#bfbfbf" points="2389,-336.5 2389,-366.5 2498,-366.5 2498,-336.5 2389,-336.5"/>
<text text-anchor="start" x="2397" y="-354.5" font-family="Consolas" font-size="10.00">libccc/../../src/monad</text>
<text text-anchor="middle" x="2443.5" y="-343.5" font-family="Consolas" font-size="10.00">/array/map.c</text>
</a>
</g>
</g>
<!-- Node1&#45;&gt;Node37 -->
<g id="edge50" class="edge">
<title>Node1&#45;&gt;Node37</title>
<path fill="none" stroke="midnightblue" d="M1869.79,-410.15C1973.06,-406.38 2188.37,-395.72 2379.04,-367.08"/>
<polygon fill="midnightblue" stroke="midnightblue" points="2379.6,-370.54 2388.96,-365.57 2378.55,-363.62 2379.6,-370.54"/>
</g>
<!-- Node38 -->
<g id="node38" class="node">
<title>Node38</title>
<g id="a_node38"><a xlink:title=" ">
<polygon fill="white" stroke="#bfbfbf" points="2516,-336.5 2516,-366.5 2625,-366.5 2625,-336.5 2516,-336.5"/>
<text text-anchor="start" x="2524" y="-354.5" font-family="Consolas" font-size="10.00">libccc/../../src/monad</text>
<text text-anchor="middle" x="2570.5" y="-343.5" font-family="Consolas" font-size="10.00">/array/new.c</text>
</a>
</g>
</g>
<!-- Node1&#45;&gt;Node38 -->
<g id="edge51" class="edge">
<title>Node1&#45;&gt;Node38</title>
<path fill="none" stroke="midnightblue" d="M1869.62,-411.38C1989.89,-409.45 2265.79,-401.46 2506,-367.07"/>
<polygon fill="midnightblue" stroke="midnightblue" points="2506.57,-370.52 2515.97,-365.62 2505.57,-363.59 2506.57,-370.52"/>
</g>
<!-- Node39 -->
<g id="node39" class="node">
<title>Node39</title>
<g id="a_node39"><a xlink:title=" ">
<polygon fill="white" stroke="#bfbfbf" points="2643,-336.5 2643,-366.5 2752,-366.5 2752,-336.5 2643,-336.5"/>
<text text-anchor="start" x="2651" y="-354.5" font-family="Consolas" font-size="10.00">libccc/../../src/monad</text>
<text text-anchor="middle" x="2697.5" y="-343.5" font-family="Consolas" font-size="10.00">/array/reduce.c</text>
</a>
</g>
</g>
<!-- Node1&#45;&gt;Node39 -->
<g id="edge52" class="edge">
<title>Node1&#45;&gt;Node39</title>
<path fill="none" stroke="midnightblue" d="M1869.73,-412.25C2005.6,-412.03 2342.61,-407.21 2632.67,-367.1"/>
<polygon fill="midnightblue" stroke="midnightblue" points="2633.55,-370.51 2642.97,-365.65 2632.58,-363.57 2633.55,-370.51"/>
</g>
<!-- Node40 -->
<g id="node40" class="node">
<title>Node40</title>
<g id="a_node40"><a xlink:title=" ">
<polygon fill="white" stroke="#bfbfbf" points="2770,-336.5 2770,-366.5 2879,-366.5 2879,-336.5 2770,-336.5"/>
<text text-anchor="start" x="2778" y="-354.5" font-family="Consolas" font-size="10.00">libccc/../../src/monad</text>
<text text-anchor="middle" x="2824.5" y="-343.5" font-family="Consolas" font-size="10.00">/array/remove.c</text>
</a>
</g>
</g>
<!-- Node1&#45;&gt;Node40 -->
<g id="edge53" class="edge">
<title>Node1&#45;&gt;Node40</title>
<path fill="none" stroke="midnightblue" d="M1869.79,-410.54C2048.67,-406.06 2568.92,-391.39 2759.78,-367.03"/>
<polygon fill="midnightblue" stroke="midnightblue" points="2760.52,-370.46 2769.97,-365.68 2759.6,-363.53 2760.52,-370.46"/>
</g>
<!-- Node41 -->
<g id="node41" class="node">
<title>Node41</title>
<g id="a_node41"><a xlink:title=" ">
<polygon fill="white" stroke="#bfbfbf" points="2897,-336.5 2897,-366.5 3006,-366.5 3006,-336.5 2897,-336.5"/>
<text text-anchor="start" x="2905" y="-354.5" font-family="Consolas" font-size="10.00">libccc/../../src/monad</text>
<text text-anchor="middle" x="2951.5" y="-343.5" font-family="Consolas" font-size="10.00">/array/removeat.c</text>
</a>
</g>
</g>
<!-- Node1&#45;&gt;Node41 -->
<g id="edge54" class="edge">
<title>Node1&#45;&gt;Node41</title>
<path fill="none" stroke="midnightblue" d="M1869.75,-410.94C2064.69,-407.32 2670.06,-394.25 2886.95,-367"/>
<polygon fill="midnightblue" stroke="midnightblue" points="2887.51,-370.46 2896.98,-365.7 2886.61,-363.52 2887.51,-370.46"/>
</g>
<!-- Node42 -->
<g id="node42" class="node">
<title>Node42</title>
<g id="a_node42"><a xlink:title=" ">
<polygon fill="white" stroke="#bfbfbf" points="3024,-336.5 3024,-366.5 3133,-366.5 3133,-336.5 3024,-336.5"/>
<text text-anchor="start" x="3032" y="-354.5" font-family="Consolas" font-size="10.00">libccc/../../src/monad</text>
<text text-anchor="middle" x="3078.5" y="-343.5" font-family="Consolas" font-size="10.00">/array/replace.c</text>
</a>
</g>
</g>
<!-- Node1&#45;&gt;Node42 -->
<g id="edge55" class="edge">
<title>Node1&#45;&gt;Node42</title>
<path fill="none" stroke="midnightblue" d="M1869.77,-411.25C2079.78,-408.43 2770.53,-397.14 3013.78,-367.02"/>
<polygon fill="midnightblue" stroke="midnightblue" points="3014.51,-370.46 3023.98,-365.71 3013.62,-363.51 3014.51,-370.46"/>
</g>
<!-- Node43 -->
<g id="node43" class="node">
<title>Node43</title>
<g id="a_node43"><a xlink:title=" ">
<polygon fill="white" stroke="#bfbfbf" points="3151,-336.5 3151,-366.5 3260,-366.5 3260,-336.5 3151,-336.5"/>
<text text-anchor="start" x="3159" y="-354.5" font-family="Consolas" font-size="10.00">libccc/../../src/monad</text>
<text text-anchor="middle" x="3205.5" y="-343.5" font-family="Consolas" font-size="10.00">/array/reverse.c</text>
</a>
</g>
</g>
<!-- Node1&#45;&gt;Node43 -->
<g id="edge56" class="edge">
<title>Node1&#45;&gt;Node43</title>
<path fill="none" stroke="midnightblue" d="M1869.83,-411.5C2094.27,-409.42 2871.39,-400.05 3140.84,-367.01"/>
<polygon fill="midnightblue" stroke="midnightblue" points="3141.5,-370.45 3150.98,-365.72 3140.62,-363.51 3141.5,-370.45"/>
</g>
<!-- Node44 -->
<g id="node44" class="node">
<title>Node44</title>
<g id="a_node44"><a xlink:title=" ">
<polygon fill="white" stroke="#bfbfbf" points="3278,-336.5 3278,-366.5 3387,-366.5 3387,-336.5 3278,-336.5"/>
<text text-anchor="start" x="3286" y="-354.5" font-family="Consolas" font-size="10.00">libccc/../../src/monad</text>
<text text-anchor="middle" x="3332.5" y="-343.5" font-family="Consolas" font-size="10.00">/array/set.c</text>
</a>
</g>
</g>
<!-- Node1&#45;&gt;Node44 -->
<g id="edge57" class="edge">
<title>Node1&#45;&gt;Node44</title>
<path fill="none" stroke="midnightblue" d="M1869.8,-411.71C2107.83,-410.33 2971.77,-402.99 3267.7,-367.03"/>
<polygon fill="midnightblue" stroke="midnightblue" points="3268.5,-370.45 3277.98,-365.73 3267.62,-363.51 3268.5,-370.45"/>
</g>
<!-- Node45 -->
<g id="node45" class="node">
<title>Node45</title>
<g id="a_node45"><a xlink:title=" ">
<polygon fill="white" stroke="#bfbfbf" points="3405,-336.5 3405,-366.5 3514,-366.5 3514,-336.5 3405,-336.5"/>
<text text-anchor="start" x="3413" y="-354.5" font-family="Consolas" font-size="10.00">libccc/../../src/monad</text>
<text text-anchor="middle" x="3459.5" y="-343.5" font-family="Consolas" font-size="10.00">/array/sub.c</text>
</a>
</g>
</g>
<!-- Node1&#45;&gt;Node45 -->
<g id="edge58" class="edge">
<title>Node1&#45;&gt;Node45</title>
<path fill="none" stroke="midnightblue" d="M1869.88,-411.88C2121.1,-411.16 3072.43,-405.93 3394.71,-367.02"/>
<polygon fill="midnightblue" stroke="midnightblue" points="3395.49,-370.45 3404.98,-365.74 3394.63,-363.5 3395.49,-370.45"/>
</g>
<!-- Node46 -->
<g id="node46" class="node">
<title>Node46</title>
<g id="a_node46"><a xlink:title=" ">
<polygon fill="white" stroke="#bfbfbf" points="3532,-336.5 3532,-366.5 3641,-366.5 3641,-336.5 3532,-336.5"/>
<text text-anchor="start" x="3540" y="-354.5" font-family="Consolas" font-size="10.00">libccc/../../src/monad</text>
<text text-anchor="middle" x="3586.5" y="-343.5" font-family="Consolas" font-size="10.00">/array/wedge.c</text>
</a>
</g>
</g>
<!-- Node1&#45;&gt;Node46 -->
<g id="edge59" class="edge">
<title>Node1&#45;&gt;Node46</title>
<path fill="none" stroke="midnightblue" d="M1869.77,-412.03C2133.43,-411.93 3173.27,-408.89 3521.87,-367"/>
<polygon fill="midnightblue" stroke="midnightblue" points="3522.49,-370.45 3531.98,-365.75 3521.63,-363.5 3522.49,-370.45"/>
</g>
<!-- Node2&#45;&gt;Node1 -->
<g id="edge32" class="edge">
<title>Node2&#45;&gt;Node1</title>
<path fill="none" stroke="midnightblue" d="M198.07,-361.04C208.33,-363.4 219.3,-365.68 229.5,-367 527.58,-405.68 1469.24,-411.11 1736.93,-411.88"/>
<polygon fill="midnightblue" stroke="midnightblue" points="1737.29,-415.38 1747.3,-411.9 1737.31,-408.38 1737.29,-415.38"/>
</g>
<!-- Node3 -->
<g id="node3" class="node">
<title>Node3</title>
<g id="a_node3"><a xlink:title=" ">
<polygon fill="white" stroke="#bfbfbf" points="78.5,-280.5 78.5,-299.5 130.5,-299.5 130.5,-280.5 78.5,-280.5"/>
<text text-anchor="middle" x="104.5" y="-287.5" font-family="Consolas" font-size="10.00">stdarg.h</text>
</a>
</g>
</g>
<!-- Node2&#45;&gt;Node3 -->
<g id="edge2" class="edge">
<title>Node2&#45;&gt;Node3</title>
<path fill="none" stroke="midnightblue" d="M150.76,-341.98C142.5,-332.87 129.22,-318.24 119.01,-306.98"/>
<polygon fill="midnightblue" stroke="midnightblue" points="121.53,-304.56 112.22,-299.51 116.35,-309.27 121.53,-304.56"/>
</g>
<!-- Node4 -->
<g id="node4" class="node">
<title>Node4</title>
<g id="a_node4"><a xlink:href="bool_8h.html" target="_top" xlink:title=" ">
<polygon fill="white" stroke="black" points="0,-168.5 0,-187.5 71,-187.5 71,-168.5 0,-168.5"/>
<text text-anchor="middle" x="35.5" y="-175.5" font-family="Consolas" font-size="10.00">libccc/bool.h</text>
</a>
</g>
</g>
<!-- Node2&#45;&gt;Node4 -->
<g id="edge3" class="edge">
<title>Node2&#45;&gt;Node4</title>
<path fill="none" stroke="midnightblue" d="M157.64,-341.68C155.97,-327.73 151.32,-300.11 139.5,-280 118.12,-243.64 80.16,-211.6 56.49,-193.81"/>
<polygon fill="midnightblue" stroke="midnightblue" points="58.32,-190.81 48.19,-187.71 54.17,-196.45 58.32,-190.81"/>
</g>
<!-- Node15 -->
<g id="node15" class="node">
<title>Node15</title>
<g id="a_node15"><a xlink:href="int_8h.html" target="_top" xlink:title=" ">
<polygon fill="white" stroke="black" points="322.5,-280.5 322.5,-299.5 386.5,-299.5 386.5,-280.5 322.5,-280.5"/>
<text text-anchor="middle" x="354.5" y="-287.5" font-family="Consolas" font-size="10.00">libccc/int.h</text>
</a>
</g>
</g>
<!-- Node2&#45;&gt;Node15 -->
<g id="edge31" class="edge">
<title>Node2&#45;&gt;Node15</title>
<path fill="none" stroke="midnightblue" d="M186.58,-341.98C220.79,-331.59 278.7,-314.01 316.77,-302.45"/>
<polygon fill="midnightblue" stroke="midnightblue" points="317.92,-305.76 326.47,-299.51 315.88,-299.06 317.92,-305.76"/>
</g>
<!-- Node5 -->
<g id="node5" class="node">
<title>Node5</title>
<g id="a_node5"><a xlink:href="libccc_8h.html" target="_top" xlink:title=" ">
<polygon fill="white" stroke="black" points="329.5,-224.5 329.5,-243.5 379.5,-243.5 379.5,-224.5 329.5,-224.5"/>
<text text-anchor="middle" x="354.5" y="-231.5" font-family="Consolas" font-size="10.00">libccc.h</text>
</a>
</g>
</g>
<!-- Node4&#45;&gt;Node5 -->
<g id="edge4" class="edge">
<title>Node4&#45;&gt;Node5</title>
<path fill="none" stroke="midnightblue" d="M71.14,-183.92C78.93,-185.26 87.03,-186.7 94.5,-188 175.08,-201.99 269.37,-217.59 319.43,-226.25"/>
<polygon fill="midnightblue" stroke="midnightblue" points="318.97,-229.73 329.42,-227.99 320.17,-222.83 318.97,-229.73"/>
</g>
<!-- Node5&#45;&gt;Node4 -->
<g id="edge14" class="edge">
<title>Node5&#45;&gt;Node4</title>
<path fill="none" stroke="midnightblue" d="M329.47,-229.7C282.07,-222.62 176.86,-205.35 81.31,-188.83"/>
<polygon fill="midnightblue" stroke="midnightblue" points="81.66,-185.33 71.21,-187.07 80.46,-192.23 81.66,-185.33"/>
</g>
<!-- Node6 -->
<g id="node6" class="node">
<title>Node6</title>
<g id="a_node6"><a xlink:href="libccc__define_8h.html" target="_top" xlink:title=" ">
<polygon fill="white" stroke="black" points="146.5,-56.5 146.5,-75.5 228.5,-75.5 228.5,-56.5 146.5,-56.5"/>
<text text-anchor="middle" x="187.5" y="-63.5" font-family="Consolas" font-size="10.00">libccc_define.h</text>
</a>
</g>
</g>
<!-- Node5&#45;&gt;Node6 -->
<g id="edge5" class="edge">
<title>Node5&#45;&gt;Node6</title>
<path fill="none" stroke="midnightblue" d="M329.12,-233.16C272.54,-231.91 138.38,-219.53 104.5,-132 101.29,-123.71 99.95,-119.64 104.5,-112 113.6,-96.72 129.89,-86.31 145.64,-79.39"/>
<polygon fill="midnightblue" stroke="midnightblue" points="147.33,-82.48 155.32,-75.51 144.73,-75.98 147.33,-82.48"/>
</g>
<!-- Node8 -->
<g id="node8" class="node">
<title>Node8</title>
<g id="a_node8"><a xlink:href="libccc__errors_8h.html" target="_top" xlink:title=" ">
<polygon fill="white" stroke="black" points="113.5,-112.5 113.5,-131.5 193.5,-131.5 193.5,-112.5 113.5,-112.5"/>
<text text-anchor="middle" x="153.5" y="-119.5" font-family="Consolas" font-size="10.00">libccc_errors.h</text>
</a>
</g>
</g>
<!-- Node5&#45;&gt;Node8 -->
<g id="edge7" class="edge">
<title>Node5&#45;&gt;Node8</title>
<path fill="none" stroke="midnightblue" d="M329.43,-229.98C284.75,-224.1 193.91,-209.77 171.5,-188 159.17,-176.03 155.06,-156.42 153.8,-141.86"/>
<polygon fill="midnightblue" stroke="midnightblue" points="157.28,-141.34 153.3,-131.52 150.29,-141.68 157.28,-141.34"/>
</g>
<!-- Node9 -->
<g id="node9" class="node">
<title>Node9</title>
<g id="a_node9"><a xlink:href="libccc__config_8h.html" target="_top" xlink:title=" ">
<polygon fill="white" stroke="black" points="180.5,-168.5 180.5,-187.5 262.5,-187.5 262.5,-168.5 180.5,-168.5"/>
<text text-anchor="middle" x="221.5" y="-175.5" font-family="Consolas" font-size="10.00">libccc_config.h</text>
</a>
</g>
</g>
<!-- Node5&#45;&gt;Node9 -->
<g id="edge9" class="edge">
<title>Node5&#45;&gt;Node9</title>
<path fill="none" stroke="midnightblue" d="M333.43,-224.44C311.44,-215.52 276.77,-201.44 251.84,-191.32"/>
<polygon fill="midnightblue" stroke="midnightblue" points="253.06,-188.04 242.48,-187.52 250.42,-194.52 253.06,-188.04"/>
</g>
<!-- Node10 -->
<g id="node10" class="node">
<title>Node10</title>
<g id="a_node10"><a xlink:href="libccc__naming_8h.html" target="_top" xlink:title=" ">
<polygon fill="white" stroke="black" points="250,-112.5 250,-131.5 337,-131.5 337,-112.5 250,-112.5"/>
<text text-anchor="middle" x="293.5" y="-119.5" font-family="Consolas" font-size="10.00">libccc_naming.h</text>
</a>
</g>
</g>
<!-- Node5&#45;&gt;Node10 -->
<g id="edge12" class="edge">
<title>Node5&#45;&gt;Node10</title>
<path fill="none" stroke="midnightblue" d="M342.74,-224.32C332.44,-216.1 317.86,-202.82 309.5,-188 301.38,-173.61 297.35,-155.15 295.36,-141.58"/>
<polygon fill="midnightblue" stroke="midnightblue" points="298.82,-141.04 294.13,-131.54 291.87,-141.89 298.82,-141.04"/>
</g>
<!-- Node11 -->
<g id="node11" class="node">
<title>Node11</title>
<g id="a_node11"><a xlink:href="char_8h.html" target="_top" xlink:title=" ">
<polygon fill="white" stroke="black" points="319,-168.5 319,-187.5 390,-187.5 390,-168.5 319,-168.5"/>
<text text-anchor="middle" x="354.5" y="-175.5" font-family="Consolas" font-size="10.00">libccc/char.h</text>
</a>
</g>
</g>
<!-- Node5&#45;&gt;Node11 -->
<g id="edge15" class="edge">
<title>Node5&#45;&gt;Node11</title>
<path fill="none" stroke="midnightblue" d="M349.33,-224.08C347.82,-216.93 347.39,-206.64 348.04,-197.69"/>
<polygon fill="midnightblue" stroke="midnightblue" points="351.52,-198.13 349.37,-187.75 344.58,-197.2 351.52,-198.13"/>
</g>
<!-- Node5&#45;&gt;Node15 -->
<g id="edge20" class="edge">
<title>Node5&#45;&gt;Node15</title>
<path fill="none" stroke="midnightblue" d="M359.63,-243.75C361.16,-250.86 361.6,-261.14 360.97,-270.1"/>
<polygon fill="midnightblue" stroke="midnightblue" points="357.49,-269.71 359.67,-280.08 364.43,-270.62 357.49,-269.71"/>
</g>
<!-- Node16 -->
<g id="node16" class="node">
<title>Node16</title>
<g id="a_node16"><a xlink:href="fixed_8h.html" target="_top" xlink:title=" ">
<polygon fill="white" stroke="black" points="508.5,-168.5 508.5,-187.5 582.5,-187.5 582.5,-168.5 508.5,-168.5"/>
<text text-anchor="middle" x="545.5" y="-175.5" font-family="Consolas" font-size="10.00">libccc/fixed.h</text>
</a>
</g>
</g>
<!-- Node5&#45;&gt;Node16 -->
<g id="edge23" class="edge">
<title>Node5&#45;&gt;Node16</title>
<path fill="none" stroke="midnightblue" d="M379.68,-224.44C410.47,-215.16 462.84,-200.31 500.56,-190.13"/>
<polygon fill="midnightblue" stroke="midnightblue" points="501.54,-193.49 510.3,-187.52 499.73,-186.73 501.54,-193.49"/>
</g>
<!-- Node17 -->
<g id="node17" class="node">
<title>Node17</title>
<g id="a_node17"><a xlink:href="float_8h.html" target="_top" xlink:title=" ">
<polygon fill="white" stroke="black" points="600.5,-168.5 600.5,-187.5 672.5,-187.5 672.5,-168.5 600.5,-168.5"/>
<text text-anchor="middle" x="636.5" y="-175.5" font-family="Consolas" font-size="10.00">libccc/float.h</text>
</a>
</g>
</g>
<!-- Node5&#45;&gt;Node17 -->
<g id="edge25" class="edge">
<title>Node5&#45;&gt;Node17</title>
<path fill="none" stroke="midnightblue" d="M379.68,-227.2C421.88,-218.72 508.71,-202.38 582.5,-188 584.96,-187.52 587.5,-187.02 590.08,-186.52"/>
<polygon fill="midnightblue" stroke="midnightblue" points="590.96,-189.91 600.1,-184.56 589.62,-183.04 590.96,-189.91"/>
</g>
<!-- Node18 -->
<g id="node18" class="node">
<title>Node18</title>
<g id="a_node18"><a xlink:href="pointer_8h.html" target="_top" xlink:title=" ">
<polygon fill="white" stroke="black" points="408.5,-168.5 408.5,-187.5 490.5,-187.5 490.5,-168.5 408.5,-168.5"/>
<text text-anchor="middle" x="449.5" y="-175.5" font-family="Consolas" font-size="10.00">libccc/pointer.h</text>
</a>
</g>
</g>
<!-- Node5&#45;&gt;Node18 -->
<g id="edge27" class="edge">
<title>Node5&#45;&gt;Node18</title>
<path fill="none" stroke="midnightblue" d="M364.65,-224.32C377.95,-215.7 401.15,-202.36 420.03,-192.39"/>
<polygon fill="midnightblue" stroke="midnightblue" points="421.89,-195.36 429.16,-187.65 418.68,-189.15 421.89,-195.36"/>
</g>
<!-- Node7 -->
<g id="node7" class="node">
<title>Node7</title>
<g id="a_node7"><a xlink:title=" ">
<polygon fill="white" stroke="#bfbfbf" points="158,-0.5 158,-19.5 217,-19.5 217,-0.5 158,-0.5"/>
<text text-anchor="middle" x="187.5" y="-7.5" font-family="Consolas" font-size="10.00">stdalign.h</text>
</a>
</g>
</g>
<!-- Node6&#45;&gt;Node7 -->
<g id="edge6" class="edge">
<title>Node6&#45;&gt;Node7</title>
<path fill="none" stroke="midnightblue" d="M187.5,-56.08C187.5,-49.01 187.5,-38.86 187.5,-29.99"/>
<polygon fill="midnightblue" stroke="midnightblue" points="191,-29.75 187.5,-19.75 184,-29.75 191,-29.75"/>
</g>
<!-- Node8&#45;&gt;Node6 -->
<g id="edge8" class="edge">
<title>Node8&#45;&gt;Node6</title>
<path fill="none" stroke="midnightblue" d="M159.11,-112.08C163.87,-104.53 170.82,-93.49 176.65,-84.23"/>
<polygon fill="midnightblue" stroke="midnightblue" points="179.62,-86.08 181.99,-75.75 173.7,-82.35 179.62,-86.08"/>
</g>
<!-- Node9&#45;&gt;Node6 -->
<g id="edge10" class="edge">
<title>Node9&#45;&gt;Node6</title>
<path fill="none" stroke="midnightblue" d="M219.02,-168.14C215.49,-155.6 208.75,-131.97 202.5,-112 199.73,-103.15 196.5,-93.37 193.74,-85.2"/>
<polygon fill="midnightblue" stroke="midnightblue" points="197.01,-83.94 190.47,-75.6 190.38,-86.19 197.01,-83.94"/>
</g>
<!-- Node9&#45;&gt;Node8 -->
<g id="edge11" class="edge">
<title>Node9&#45;&gt;Node8</title>
<path fill="none" stroke="midnightblue" d="M210.57,-168.32C200.33,-160.18 184.78,-147.84 172.5,-138.09"/>
<polygon fill="midnightblue" stroke="midnightblue" points="174.63,-135.31 164.62,-131.83 170.28,-140.79 174.63,-135.31"/>
</g>
<!-- Node10&#45;&gt;Node6 -->
<g id="edge13" class="edge">
<title>Node10&#45;&gt;Node6</title>
<path fill="none" stroke="midnightblue" d="M276.47,-112.32C259.47,-103.66 233.12,-90.24 213.51,-80.25"/>
<polygon fill="midnightblue" stroke="midnightblue" points="214.99,-77.08 204.49,-75.65 211.81,-83.31 214.99,-77.08"/>
</g>
<!-- Node11&#45;&gt;Node5 -->
<g id="edge17" class="edge">
<title>Node11&#45;&gt;Node5</title>
<path fill="none" stroke="midnightblue" d="M359.63,-187.75C361.16,-194.86 361.6,-205.14 360.97,-214.1"/>
<polygon fill="midnightblue" stroke="midnightblue" points="357.49,-213.71 359.67,-224.08 364.43,-214.62 357.49,-213.71"/>
</g>
<!-- Node12 -->
<g id="node12" class="node">
<title>Node12</title>
<g id="a_node12"><a xlink:title=" ">
<polygon fill="white" stroke="#bfbfbf" points="591,-112.5 591,-131.5 640,-131.5 640,-112.5 591,-112.5"/>
<text text-anchor="middle" x="615.5" y="-119.5" font-family="Consolas" font-size="10.00">stdint.h</text>
</a>
</g>
</g>
<!-- Node11&#45;&gt;Node12 -->
<g id="edge16" class="edge">
<title>Node11&#45;&gt;Node12</title>
<path fill="none" stroke="midnightblue" d="M390.36,-169.82C393.45,-169.2 396.53,-168.59 399.5,-168 477.63,-152.5 500.06,-151.02 580.57,-132.34"/>
<polygon fill="midnightblue" stroke="midnightblue" points="581.74,-135.66 590.68,-129.97 580.15,-128.84 581.74,-135.66"/>
</g>
<!-- Node13 -->
<g id="node13" class="node">
<title>Node13</title>
<g id="a_node13"><a xlink:title=" ">
<polygon fill="white" stroke="#bfbfbf" points="355,-112.5 355,-131.5 448,-131.5 448,-112.5 355,-112.5"/>
<text text-anchor="middle" x="401.5" y="-119.5" font-family="Consolas" font-size="10.00">libccc/text/ascii.h</text>
</a>
</g>
</g>
<!-- Node11&#45;&gt;Node13 -->
<g id="edge18" class="edge">
<title>Node11&#45;&gt;Node13</title>
<path fill="none" stroke="midnightblue" d="M362.26,-168.08C369.04,-160.3 379.04,-148.8 387.26,-139.37"/>
<polygon fill="midnightblue" stroke="midnightblue" points="389.96,-141.59 393.88,-131.75 384.68,-137 389.96,-141.59"/>
</g>
<!-- Node14 -->
<g id="node14" class="node">
<title>Node14</title>
<g id="a_node14"><a xlink:title=" ">
<polygon fill="white" stroke="#bfbfbf" points="466,-112.5 466,-131.5 573,-131.5 573,-112.5 466,-112.5"/>
<text text-anchor="middle" x="519.5" y="-119.5" font-family="Consolas" font-size="10.00">libccc/text/unicode.h</text>
</a>
</g>
</g>
<!-- Node11&#45;&gt;Node14 -->
<g id="edge19" class="edge">
<title>Node11&#45;&gt;Node14</title>
<path fill="none" stroke="midnightblue" d="M380.64,-168.44C408.52,-159.32 452.85,-144.81 483.9,-134.65"/>
<polygon fill="midnightblue" stroke="midnightblue" points="485.06,-137.95 493.48,-131.52 482.88,-131.3 485.06,-137.95"/>
</g>
<!-- Node15&#45;&gt;Node5 -->
<g id="edge22" class="edge">
<title>Node15&#45;&gt;Node5</title>
<path fill="none" stroke="midnightblue" d="M349.33,-280.08C347.82,-272.93 347.39,-262.64 348.04,-253.69"/>
<polygon fill="midnightblue" stroke="midnightblue" points="351.52,-254.13 349.37,-243.75 344.58,-253.2 351.52,-254.13"/>
</g>
<!-- Node15&#45;&gt;Node12 -->
<g id="edge21" class="edge">
<title>Node15&#45;&gt;Node12</title>
<path fill="none" stroke="midnightblue" d="M386.7,-283.95C461.97,-271.43 645.78,-236.41 681.5,-188 696.25,-168.01 669.16,-148.47 645.36,-136.12"/>
<polygon fill="midnightblue" stroke="midnightblue" points="646.68,-132.87 636.16,-131.6 643.59,-139.15 646.68,-132.87"/>
</g>
<!-- Node16&#45;&gt;Node5 -->
<g id="edge24" class="edge">
<title>Node16&#45;&gt;Node5</title>
<path fill="none" stroke="midnightblue" d="M520.41,-187.53C486.91,-197.63 427.78,-214.35 389.81,-224.45"/>
<polygon fill="midnightblue" stroke="midnightblue" points="388.48,-221.19 379.71,-227.12 390.27,-227.95 388.48,-221.19"/>
</g>
<!-- Node17&#45;&gt;Node5 -->
<g id="edge26" class="edge">
<title>Node17&#45;&gt;Node5</title>
<path fill="none" stroke="midnightblue" d="M602.87,-187.54C602.07,-187.69 601.28,-187.85 600.5,-188 525.82,-202.56 437.78,-219.12 389.73,-227.5"/>
<polygon fill="midnightblue" stroke="midnightblue" points="389.08,-224.06 379.82,-229.21 390.27,-230.96 389.08,-224.06"/>
</g>
<!-- Node18&#45;&gt;Node5 -->
<g id="edge30" class="edge">
<title>Node18&#45;&gt;Node5</title>
<path fill="none" stroke="midnightblue" d="M439.38,-187.65C426.1,-196.27 402.91,-209.61 384.02,-219.59"/>
<polygon fill="midnightblue" stroke="midnightblue" points="382.15,-216.62 374.88,-224.32 385.37,-222.83 382.15,-216.62"/>
</g>
<!-- Node18&#45;&gt;Node12 -->
<g id="edge29" class="edge">
<title>Node18&#45;&gt;Node12</title>
<path fill="none" stroke="midnightblue" d="M475.8,-168.44C504.35,-159.16 550.02,-144.3 581.33,-134.12"/>
<polygon fill="midnightblue" stroke="midnightblue" points="582.52,-137.41 590.94,-130.99 580.35,-130.75 582.52,-137.41"/>
</g>
<!-- Node19 -->
<g id="node19" class="node">
<title>Node19</title>
<g id="a_node19"><a xlink:title=" ">
<polygon fill="white" stroke="#bfbfbf" points="658.5,-112.5 658.5,-131.5 710.5,-131.5 710.5,-112.5 658.5,-112.5"/>
<text text-anchor="middle" x="684.5" y="-119.5" font-family="Consolas" font-size="10.00">stddef.h</text>
</a>
</g>
</g>
<!-- Node18&#45;&gt;Node19 -->
<g id="edge28" class="edge">
<title>Node18&#45;&gt;Node19</title>
<path fill="none" stroke="midnightblue" d="M489.05,-168.47C527.4,-160.12 587.48,-146.82 648.37,-132.22"/>
<polygon fill="midnightblue" stroke="midnightblue" points="649.25,-135.61 658.15,-129.87 647.61,-128.81 649.25,-135.61"/>
</g>
</g>
</svg>
        <g id="navigator" transform="translate(0 0)" fill="#404254">
                <rect fill="#f2f5e9" fill-opacity="0.5" stroke="#606060" stroke-width=".5" x="0" y="0" width="60" height="60"/>
                <use id="zoomplus" xlink:href="#zoomPlus" x="17" y="9" onmousedown="handleZoom(evt,'in')"/>
                <use id="zoomminus" xlink:href="#zoomMin" x="42" y="9" onmousedown="handleZoom(evt,'out')"/>
                <use id="reset" xlink:href="#resetDef" x="30" y="36" onmousedown="handleReset()"/>
                <g id="arrowUp" xlink:href="#dirArrow" transform="translate(30 24)" onmousedown="handlePan(0,-1)">
                  <use xlink:href="#rim" fill="#404040">
                        <set attributeName="fill" to="#808080" begin="arrowUp.mouseover" end="arrowUp.mouseout"/>
                  </use>
                  <path fill="none" stroke="white" stroke-width="1.5" d="M0,-3.0v7 M-2.5,-0.5L0,-3.0L2.5,-0.5"/>
                </g>
                <g id="arrowRight" xlink:href="#dirArrow" transform="rotate(90) translate(36 -43)" onmousedown="handlePan(1,0)">
                  <use xlink:href="#rim" fill="#404040">
                        <set attributeName="fill" to="#808080" begin="arrowRight.mouseover" end="arrowRight.mouseout"/>
                  </use>
                  <path fill="none" stroke="white" stroke-width="1.5" d="M0,-3.0v7 M-2.5,-0.5L0,-3.0L2.5,-0.5"/>
                </g>
                <g id="arrowDown" xlink:href="#dirArrow" transform="rotate(180) translate(-30 -48)" onmousedown="handlePan(0,1)">
                  <use xlink:href="#rim" fill="#404040">
                        <set attributeName="fill" to="#808080" begin="arrowDown.mouseover" end="arrowDown.mouseout"/>
                  </use>
                  <path fill="none" stroke="white" stroke-width="1.5" d="M0,-3.0v7 M-2.5,-0.5L0,-3.0L2.5,-0.5"/>
                </g>
                <g id="arrowLeft" xlink:href="#dirArrow" transform="rotate(270) translate(-36 17)" onmousedown="handlePan(-1,0)">
                  <use xlink:href="#rim" fill="#404040">
                        <set attributeName="fill" to="#808080" begin="arrowLeft.mouseover" end="arrowLeft.mouseout"/>
                  </use>
                  <path fill="none" stroke="white" stroke-width="1.5" d="M0,-3.0v7 M-2.5,-0.5L0,-3.0L2.5,-0.5"/>
                </g>
        </g>
        <svg viewBox="0 0 15 15" width="100%" height="30px" preserveAspectRatio="xMaxYMin meet">
         <g id="arrow_out" transform="scale(0.3 0.3)">
          <a xlink:href="array_8c__incl_org.svg" target="_base">
           <rect id="button" ry="5" rx="5" y="6" x="6" height="38" width="38"
                fill="#f2f5e9" fill-opacity="0.5" stroke="#606060" stroke-width="1.0"/>
           <path id="arrow"
             d="M 11.500037,31.436501 C 11.940474,20.09759 22.043105,11.32322 32.158766,21.979434 L 37.068811,17.246167 C 37.068811,17.246167 37.088388,32 37.088388,32 L 22.160133,31.978069 C 22.160133,31.978069 26.997745,27.140456 26.997745,27.140456 C 18.528582,18.264221 13.291696,25.230495 11.500037,31.436501 z"
             style="fill:#404040;"/>
          </a>
         </g>
        </svg>
</svg>
