<?xml version="1.0" encoding="UTF-8" standalone="no"?>
<!DOCTYPE svg PUBLIC "-//W3C//DTD SVG 1.1//EN"
 "http://www.w3.org/Graphics/SVG/1.1/DTD/svg11.dtd">
<!-- Generated by graphviz version 3.0.0 (20220226.1711)
 -->
<!-- Title: libccc/monad/array.h Pages: 1 -->
<svg width="356pt" height="364pt"
 viewBox="0.00 0.00 356.00 364.00" xmlns="http://www.w3.org/2000/svg" xmlns:xlink="http://www.w3.org/1999/xlink">
<g id="graph0" class="graph" transform="scale(1 1) rotate(0) translate(4 360)">
<title>libccc/monad/array.h</title>
<polygon fill="white" stroke="transparent" points="-4,4 -4,-360 352,-360 352,4 -4,4"/>
<!-- Node1 -->
<g id="node1" class="node">
<title>Node1</title>
<g id="a_node1"><a xlink:title=" ">
<polygon fill="#bfbfbf" stroke="black" points="96,-336.5 96,-355.5 202,-355.5 202,-336.5 96,-336.5"/>
<text text-anchor="middle" x="149" y="-343.5" font-family="Consolas" font-size="10.00">libccc/monad/array.h</text>
</a>
</g>
</g>
<!-- Node2 -->
<g id="node2" class="node">
<title>Node2</title>
<g id="a_node2"><a xlink:title=" ">
<polygon fill="white" stroke="#bfbfbf" points="0,-280.5 0,-299.5 52,-299.5 52,-280.5 0,-280.5"/>
<text text-anchor="middle" x="26" y="-287.5" font-family="Consolas" font-size="10.00">stdarg.h</text>
</a>
</g>
</g>
<!-- Node1&#45;&gt;Node2 -->
<g id="edge1" class="edge">
<title>Node1&#45;&gt;Node2</title>
<path fill="none" stroke="midnightblue" d="M129.51,-336.44C109.36,-327.6 77.68,-313.69 54.67,-303.59"/>
<polygon fill="midnightblue" stroke="midnightblue" points="55.96,-300.33 45.4,-299.52 53.15,-306.74 55.96,-300.33"/>
</g>
<!-- Node3 -->
<g id="node3" class="node">
<title>Node3</title>
<g id="a_node3"><a xlink:href="bool_8h.html" target="_top" xlink:title=" ">
<polygon fill="white" stroke="black" points="70.5,-280.5 70.5,-299.5 141.5,-299.5 141.5,-280.5 70.5,-280.5"/>
<text text-anchor="middle" x="106" y="-287.5" font-family="Consolas" font-size="10.00">libccc/bool.h</text>
</a>
</g>
</g>
<!-- Node1&#45;&gt;Node3 -->
<g id="edge2" class="edge">
<title>Node1&#45;&gt;Node3</title>
<path fill="none" stroke="midnightblue" d="M141.9,-336.08C135.76,-328.38 126.73,-317.03 119.26,-307.65"/>
<polygon fill="midnightblue" stroke="midnightblue" points="121.94,-305.39 112.97,-299.75 116.46,-309.75 121.94,-305.39"/>
</g>
<!-- Node12 -->
<g id="node12" class="node">
<title>Node12</title>
<g id="a_node12"><a xlink:href="int_8h.html" target="_top" xlink:title=" ">
<polygon fill="white" stroke="black" points="160,-280.5 160,-299.5 224,-299.5 224,-280.5 160,-280.5"/>
<text text-anchor="middle" x="192" y="-287.5" font-family="Consolas" font-size="10.00">libccc/int.h</text>
</a>
</g>
</g>
<!-- Node1&#45;&gt;Node12 -->
<g id="edge15" class="edge">
<title>Node1&#45;&gt;Node12</title>
<path fill="none" stroke="midnightblue" d="M156.1,-336.08C162.24,-328.38 171.27,-317.03 178.74,-307.65"/>
<polygon fill="midnightblue" stroke="midnightblue" points="181.54,-309.75 185.03,-299.75 176.06,-305.39 181.54,-309.75"/>
</g>
<!-- Node14 -->
<g id="node14" class="node">
<title>Node14</title>
<g id="a_node14"><a xlink:title=" ">
<polygon fill="white" stroke="#bfbfbf" points="242,-280.5 242,-299.5 348,-299.5 348,-280.5 242,-280.5"/>
<text text-anchor="middle" x="295" y="-287.5" font-family="Consolas" font-size="10.00">libccc/monad/array.c</text>
</a>
</g>
</g>
<!-- Node1&#45;&gt;Node14 -->
<g id="edge18" class="edge">
<title>Node1&#45;&gt;Node14</title>
<path fill="none" stroke="midnightblue" d="M172.13,-336.44C196.48,-327.44 235.01,-313.19 262.42,-303.05"/>
<polygon fill="midnightblue" stroke="midnightblue" points="263.81,-306.27 271.97,-299.52 261.38,-299.7 263.81,-306.27"/>
</g>
<!-- Node4 -->
<g id="node4" class="node">
<title>Node4</title>
<g id="a_node4"><a xlink:href="libccc_8h.html" target="_top" xlink:title=" ">
<polygon fill="white" stroke="black" points="125,-224.5 125,-243.5 175,-243.5 175,-224.5 125,-224.5"/>
<text text-anchor="middle" x="150" y="-231.5" font-family="Consolas" font-size="10.00">libccc.h</text>
</a>
</g>
</g>
<!-- Node3&#45;&gt;Node4 -->
<g id="edge3" class="edge">
<title>Node3&#45;&gt;Node4</title>
<path fill="none" stroke="midnightblue" d="M113.27,-280.08C119.54,-272.38 128.79,-261.03 136.43,-251.65"/>
<polygon fill="midnightblue" stroke="midnightblue" points="139.27,-253.71 142.87,-243.75 133.84,-249.29 139.27,-253.71"/>
</g>
<!-- Node11 -->
<g id="node11" class="node">
<title>Node11</title>
<g id="a_node11"><a xlink:title=" ">
<polygon fill="white" stroke="#bfbfbf" points="51,-224.5 51,-243.5 107,-243.5 107,-224.5 51,-224.5"/>
<text text-anchor="middle" x="79" y="-231.5" font-family="Consolas" font-size="10.00">stdbool.h</text>
</a>
</g>
</g>
<!-- Node3&#45;&gt;Node11 -->
<g id="edge14" class="edge">
<title>Node3&#45;&gt;Node11</title>
<path fill="none" stroke="midnightblue" d="M101.54,-280.08C97.85,-272.69 92.48,-261.95 87.91,-252.81"/>
<polygon fill="midnightblue" stroke="midnightblue" points="90.98,-251.13 83.38,-243.75 84.72,-254.26 90.98,-251.13"/>
</g>
<!-- Node5 -->
<g id="node5" class="node">
<title>Node5</title>
<g id="a_node5"><a xlink:href="libccc__define_8h.html" target="_top" xlink:title=" ">
<polygon fill="white" stroke="black" points="75,-56.5 75,-75.5 157,-75.5 157,-56.5 75,-56.5"/>
<text text-anchor="middle" x="116" y="-63.5" font-family="Consolas" font-size="10.00">libccc_define.h</text>
</a>
</g>
</g>
<!-- Node4&#45;&gt;Node5 -->
<g id="edge4" class="edge">
<title>Node4&#45;&gt;Node5</title>
<path fill="none" stroke="midnightblue" d="M131.88,-224.37C103.96,-209.88 51.69,-177.7 33,-132 29.64,-123.77 28.45,-119.64 33,-112 42.1,-96.72 58.39,-86.31 74.14,-79.39"/>
<polygon fill="midnightblue" stroke="midnightblue" points="75.83,-82.48 83.82,-75.51 73.23,-75.98 75.83,-82.48"/>
</g>
<!-- Node7 -->
<g id="node7" class="node">
<title>Node7</title>
<g id="a_node7"><a xlink:href="libccc__errors_8h.html" target="_top" xlink:title=" ">
<polygon fill="white" stroke="black" points="42,-112.5 42,-131.5 122,-131.5 122,-112.5 42,-112.5"/>
<text text-anchor="middle" x="82" y="-119.5" font-family="Consolas" font-size="10.00">libccc_errors.h</text>
</a>
</g>
</g>
<!-- Node4&#45;&gt;Node7 -->
<g id="edge6" class="edge">
<title>Node4&#45;&gt;Node7</title>
<path fill="none" stroke="midnightblue" d="M136.57,-224.23C125.22,-216.13 109.34,-203.1 100,-188 91.24,-173.84 86.66,-155.36 84.32,-141.72"/>
<polygon fill="midnightblue" stroke="midnightblue" points="87.75,-141 82.83,-131.61 80.82,-142.01 87.75,-141"/>
</g>
<!-- Node8 -->
<g id="node8" class="node">
<title>Node8</title>
<g id="a_node8"><a xlink:href="libccc__config_8h.html" target="_top" xlink:title=" ">
<polygon fill="white" stroke="black" points="109,-168.5 109,-187.5 191,-187.5 191,-168.5 109,-168.5"/>
<text text-anchor="middle" x="150" y="-175.5" font-family="Consolas" font-size="10.00">libccc_config.h</text>
</a>
</g>
</g>
<!-- Node4&#45;&gt;Node8 -->
<g id="edge8" class="edge">
<title>Node4&#45;&gt;Node8</title>
<path fill="none" stroke="midnightblue" d="M150,-224.08C150,-217.01 150,-206.86 150,-197.99"/>
<polygon fill="midnightblue" stroke="midnightblue" points="153.5,-197.75 150,-187.75 146.5,-197.75 153.5,-197.75"/>
</g>
<!-- Node9 -->
<g id="node9" class="node">
<title>Node9</title>
<g id="a_node9"><a xlink:href="libccc__naming_8h.html" target="_top" xlink:title=" ">
<polygon fill="white" stroke="black" points="178.5,-112.5 178.5,-131.5 265.5,-131.5 265.5,-112.5 178.5,-112.5"/>
<text text-anchor="middle" x="222" y="-119.5" font-family="Consolas" font-size="10.00">libccc_naming.h</text>
</a>
</g>
</g>
<!-- Node4&#45;&gt;Node9 -->
<g id="edge11" class="edge">
<title>Node4&#45;&gt;Node9</title>
<path fill="none" stroke="midnightblue" d="M162.78,-224.42C174.03,-216.26 190.11,-203.02 200,-188 209.31,-173.85 215.07,-155.37 218.34,-141.73"/>
<polygon fill="midnightblue" stroke="midnightblue" points="221.84,-142.13 220.54,-131.61 215,-140.65 221.84,-142.13"/>
</g>
<!-- Node10 -->
<g id="node10" class="node">
<title>Node10</title>
<g id="a_node10"><a xlink:title=" ">
<polygon fill="white" stroke="#bfbfbf" points="247.5,-168.5 247.5,-187.5 294.5,-187.5 294.5,-168.5 247.5,-168.5"/>
<text text-anchor="middle" x="271" y="-175.5" font-family="Consolas" font-size="10.00">math.h</text>
</a>
</g>
</g>
<!-- Node4&#45;&gt;Node10 -->
<g id="edge13" class="edge">
<title>Node4&#45;&gt;Node10</title>
<path fill="none" stroke="midnightblue" d="M169.17,-224.44C188.91,-215.64 219.89,-201.81 242.49,-191.72"/>
<polygon fill="midnightblue" stroke="midnightblue" points="244.21,-194.79 251.92,-187.52 241.36,-188.4 244.21,-194.79"/>
</g>
<!-- Node6 -->
<g id="node6" class="node">
<title>Node6</title>
<g id="a_node6"><a xlink:title=" ">
<polygon fill="white" stroke="#bfbfbf" points="86.5,-0.5 86.5,-19.5 145.5,-19.5 145.5,-0.5 86.5,-0.5"/>
<text text-anchor="middle" x="116" y="-7.5" font-family="Consolas" font-size="10.00">stdalign.h</text>
</a>
</g>
</g>
<!-- Node5&#45;&gt;Node6 -->
<g id="edge5" class="edge">
<title>Node5&#45;&gt;Node6</title>
<path fill="none" stroke="midnightblue" d="M116,-56.08C116,-49.01 116,-38.86 116,-29.99"/>
<polygon fill="midnightblue" stroke="midnightblue" points="119.5,-29.75 116,-19.75 112.5,-29.75 119.5,-29.75"/>
</g>
<!-- Node7&#45;&gt;Node5 -->
<g id="edge7" class="edge">
<title>Node7&#45;&gt;Node5</title>
<path fill="none" stroke="midnightblue" d="M87.61,-112.08C92.37,-104.53 99.32,-93.49 105.15,-84.23"/>
<polygon fill="midnightblue" stroke="midnightblue" points="108.12,-86.08 110.49,-75.75 102.2,-82.35 108.12,-86.08"/>
</g>
<!-- Node8&#45;&gt;Node5 -->
<g id="edge9" class="edge">
<title>Node8&#45;&gt;Node5</title>
<path fill="none" stroke="midnightblue" d="M147.52,-168.14C143.99,-155.6 137.25,-131.97 131,-112 128.23,-103.15 125,-93.37 122.24,-85.2"/>
<polygon fill="midnightblue" stroke="midnightblue" points="125.51,-83.94 118.97,-75.6 118.88,-86.19 125.51,-83.94"/>
</g>
<!-- Node8&#45;&gt;Node7 -->
<g id="edge10" class="edge">
<title>Node8&#45;&gt;Node7</title>
<path fill="none" stroke="midnightblue" d="M139.07,-168.32C128.83,-160.18 113.28,-147.84 101,-138.09"/>
<polygon fill="midnightblue" stroke="midnightblue" points="103.13,-135.31 93.12,-131.83 98.78,-140.79 103.13,-135.31"/>
</g>
<!-- Node9&#45;&gt;Node5 -->
<g id="edge12" class="edge">
<title>Node9&#45;&gt;Node5</title>
<path fill="none" stroke="midnightblue" d="M204.97,-112.32C187.97,-103.66 161.62,-90.24 142.01,-80.25"/>
<polygon fill="midnightblue" stroke="midnightblue" points="143.49,-77.08 132.99,-75.65 140.31,-83.31 143.49,-77.08"/>
</g>
<!-- Node12&#45;&gt;Node4 -->
<g id="edge17" class="edge">
<title>Node12&#45;&gt;Node4</title>
<path fill="none" stroke="midnightblue" d="M185.06,-280.08C179.07,-272.38 170.25,-261.03 162.95,-251.65"/>
<polygon fill="midnightblue" stroke="midnightblue" points="165.71,-249.5 156.81,-243.75 160.18,-253.79 165.71,-249.5"/>
</g>
<!-- Node13 -->
<g id="node13" class="node">
<title>Node13</title>
<g id="a_node13"><a xlink:title=" ">
<polygon fill="white" stroke="#bfbfbf" points="193.5,-224.5 193.5,-243.5 242.5,-243.5 242.5,-224.5 193.5,-224.5"/>
<text text-anchor="middle" x="218" y="-231.5" font-family="Consolas" font-size="10.00">stdint.h</text>
</a>
</g>
</g>
<!-- Node12&#45;&gt;Node13 -->
<g id="edge16" class="edge">
<title>Node12&#45;&gt;Node13</title>
<path fill="none" stroke="midnightblue" d="M196.29,-280.08C199.85,-272.69 205.02,-261.95 209.42,-252.81"/>
<polygon fill="midnightblue" stroke="midnightblue" points="212.6,-254.28 213.79,-243.75 206.29,-251.24 212.6,-254.28"/>
</g>
</g>
</svg>
