<?xml version="1.0" encoding="UTF-8" standalone="no"?>
<!DOCTYPE svg PUBLIC "-//W3C//DTD SVG 1.1//EN"
 "http://www.w3.org/Graphics/SVG/1.1/DTD/svg11.dtd">
<!-- Generated by graphviz version 2.43.0 (0)
 -->
<!-- Title: libccc/monad/array.h Pages: 1 -->
<svg width="1058pt" height="364pt"
 viewBox="0.00 0.00 1057.50 364.00" xmlns="http://www.w3.org/2000/svg" xmlns:xlink="http://www.w3.org/1999/xlink">
<g id="graph0" class="graph" transform="scale(1 1) rotate(0) translate(4 360)">
<title>libccc/monad/array.h</title>
<polygon fill="white" stroke="transparent" points="-4,4 -4,-360 1053.5,-360 1053.5,4 -4,4"/>
<!-- Node1 -->
<g id="node1" class="node">
<title>Node1</title>
<g id="a_node1"><a xlink:title=" ">
<polygon fill="#bfbfbf" stroke="black" points="764.5,-336.5 764.5,-355.5 886.5,-355.5 886.5,-336.5 764.5,-336.5"/>
<text text-anchor="middle" x="825.5" y="-343.5" font-family="Consolas" font-size="10.00">libccc/monad/array.h</text>
</a>
</g>
</g>
<!-- Node2 -->
<g id="node2" class="node">
<title>Node2</title>
<g id="a_node2"><a xlink:title=" ">
<polygon fill="white" stroke="#bfbfbf" points="413,-280.5 413,-299.5 472,-299.5 472,-280.5 413,-280.5"/>
<text text-anchor="middle" x="442.5" y="-287.5" font-family="Consolas" font-size="10.00">stdarg.h</text>
</a>
</g>
</g>
<!-- Node1&#45;&gt;Node2 -->
<g id="edge1" class="edge">
<title>Node1&#45;&gt;Node2</title>
<path fill="none" stroke="midnightblue" d="M764.44,-338.96C697.42,-331.89 586.48,-318.93 482.36,-300.2"/>
<polygon fill="midnightblue" stroke="midnightblue" points="482.77,-296.71 472.31,-298.37 481.52,-303.6 482.77,-296.71"/>
</g>
<!-- Node3 -->
<g id="node3" class="node">
<title>Node3</title>
<g id="a_node3"><a xlink:href="bool_8h.html" target="_top" xlink:title=" ">
<polygon fill="white" stroke="black" points="490,-280.5 490,-299.5 575,-299.5 575,-280.5 490,-280.5"/>
<text text-anchor="middle" x="532.5" y="-287.5" font-family="Consolas" font-size="10.00">libccc/bool.h</text>
</a>
</g>
</g>
<!-- Node1&#45;&gt;Node3 -->
<g id="edge2" class="edge">
<title>Node1&#45;&gt;Node3</title>
<path fill="none" stroke="midnightblue" d="M779.07,-336.44C726.36,-326.73 640.54,-310.91 585.31,-300.73"/>
<polygon fill="midnightblue" stroke="midnightblue" points="585.84,-297.27 575.37,-298.9 584.57,-304.16 585.84,-297.27"/>
</g>
<!-- Node14 -->
<g id="node14" class="node">
<title>Node14</title>
<g id="a_node14"><a xlink:href="int_8h.html" target="_top" xlink:title=" ">
<polygon fill="white" stroke="black" points="821.5,-56.5 821.5,-75.5 901.5,-75.5 901.5,-56.5 821.5,-56.5"/>
<text text-anchor="middle" x="861.5" y="-63.5" font-family="Consolas" font-size="10.00">libccc/int.h</text>
</a>
</g>
</g>
<!-- Node1&#45;&gt;Node14 -->
<g id="edge27" class="edge">
<title>Node1&#45;&gt;Node14</title>
<path fill="none" stroke="midnightblue" d="M836.74,-336.36C857.44,-319.38 899.5,-279.42 899.5,-235 899.5,-235 899.5,-235 899.5,-177 899.5,-142.81 882.9,-105.76 871.64,-84.57"/>
<polygon fill="midnightblue" stroke="midnightblue" points="874.68,-82.83 866.78,-75.77 868.55,-86.22 874.68,-82.83"/>
</g>
<!-- Node20 -->
<g id="node20" class="node">
<title>Node20</title>
<g id="a_node20"><a xlink:title=" ">
<polygon fill="white" stroke="#bfbfbf" points="927.5,-280.5 927.5,-299.5 1049.5,-299.5 1049.5,-280.5 927.5,-280.5"/>
<text text-anchor="middle" x="988.5" y="-287.5" font-family="Consolas" font-size="10.00">libccc/monad/array.c</text>
</a>
</g>
</g>
<!-- Node1&#45;&gt;Node20 -->
<g id="edge28" class="edge">
<title>Node1&#45;&gt;Node20</title>
<path fill="none" stroke="midnightblue" d="M851.33,-336.44C878.75,-327.36 922.28,-312.94 952.93,-302.78"/>
<polygon fill="midnightblue" stroke="midnightblue" points="954.4,-305.98 962.79,-299.52 952.2,-299.34 954.4,-305.98"/>
</g>
<!-- Node4 -->
<g id="node4" class="node">
<title>Node4</title>
<g id="a_node4"><a xlink:href="libccc_8h.html" target="_top" xlink:title=" ">
<polygon fill="white" stroke="black" points="357,-224.5 357,-243.5 416,-243.5 416,-224.5 357,-224.5"/>
<text text-anchor="middle" x="386.5" y="-231.5" font-family="Consolas" font-size="10.00">libccc.h</text>
</a>
</g>
</g>
<!-- Node3&#45;&gt;Node4 -->
<g id="edge3" class="edge">
<title>Node3&#45;&gt;Node4</title>
<path fill="none" stroke="midnightblue" d="M509.37,-280.44C485.02,-271.44 446.49,-257.19 419.08,-247.05"/>
<polygon fill="midnightblue" stroke="midnightblue" points="420.12,-243.7 409.53,-243.52 417.69,-250.27 420.12,-243.7"/>
</g>
<!-- Node19 -->
<g id="node19" class="node">
<title>Node19</title>
<g id="a_node19"><a xlink:title=" ">
<polygon fill="white" stroke="#bfbfbf" points="274.5,-224.5 274.5,-243.5 338.5,-243.5 338.5,-224.5 274.5,-224.5"/>
<text text-anchor="middle" x="306.5" y="-231.5" font-family="Consolas" font-size="10.00">stdbool.h</text>
</a>
</g>
</g>
<!-- Node3&#45;&gt;Node19 -->
<g id="edge26" class="edge">
<title>Node3&#45;&gt;Node19</title>
<path fill="none" stroke="midnightblue" d="M496.69,-280.44C456.48,-270.83 391.28,-255.26 348.64,-245.07"/>
<polygon fill="midnightblue" stroke="midnightblue" points="349.39,-241.65 338.85,-242.73 347.76,-248.46 349.39,-241.65"/>
</g>
<!-- Node5 -->
<g id="node5" class="node">
<title>Node5</title>
<g id="a_node5"><a xlink:href="libccc__define_8h.html" target="_top" xlink:title=" ">
<polygon fill="white" stroke="black" points="95,-56.5 95,-75.5 190,-75.5 190,-56.5 95,-56.5"/>
<text text-anchor="middle" x="142.5" y="-63.5" font-family="Consolas" font-size="10.00">libccc_define.h</text>
</a>
</g>
</g>
<!-- Node4&#45;&gt;Node5 -->
<g id="edge4" class="edge">
<title>Node4&#45;&gt;Node5</title>
<path fill="none" stroke="midnightblue" d="M356.7,-226.08C353.59,-225.37 350.48,-224.67 347.5,-224 273.4,-207.46 236.6,-239.16 180.5,-188 151.31,-161.38 144.37,-112.62 142.83,-85.85"/>
<polygon fill="midnightblue" stroke="midnightblue" points="146.32,-85.41 142.45,-75.55 139.32,-85.67 146.32,-85.41"/>
</g>
<!-- Node7 -->
<g id="node7" class="node">
<title>Node7</title>
<g id="a_node7"><a xlink:href="libccc__errors_8h.html" target="_top" xlink:title=" ">
<polygon fill="white" stroke="black" points="0,-112.5 0,-131.5 95,-131.5 95,-112.5 0,-112.5"/>
<text text-anchor="middle" x="47.5" y="-119.5" font-family="Consolas" font-size="10.00">libccc_errors.h</text>
</a>
</g>
</g>
<!-- Node4&#45;&gt;Node7 -->
<g id="edge6" class="edge">
<title>Node4&#45;&gt;Node7</title>
<path fill="none" stroke="midnightblue" d="M356.76,-225.77C353.64,-225.12 350.51,-224.52 347.5,-224 277.18,-211.96 76.03,-241.2 28.5,-188 16.68,-174.77 25.4,-154.54 34.55,-140.17"/>
<polygon fill="midnightblue" stroke="midnightblue" points="37.6,-141.92 40.42,-131.7 31.85,-137.93 37.6,-141.92"/>
</g>
<!-- Node8 -->
<g id="node8" class="node">
<title>Node8</title>
<g id="a_node8"><a xlink:href="libccc__config_8h.html" target="_top" xlink:title=" ">
<polygon fill="white" stroke="black" points="38,-168.5 38,-187.5 133,-187.5 133,-168.5 38,-168.5"/>
<text text-anchor="middle" x="85.5" y="-175.5" font-family="Consolas" font-size="10.00">libccc_config.h</text>
</a>
</g>
</g>
<!-- Node4&#45;&gt;Node8 -->
<g id="edge8" class="edge">
<title>Node4&#45;&gt;Node8</title>
<path fill="none" stroke="midnightblue" d="M356.73,-225.95C353.62,-225.26 350.5,-224.6 347.5,-224 277.58,-209.94 196.6,-196.46 143.39,-187.98"/>
<polygon fill="midnightblue" stroke="midnightblue" points="143.89,-184.51 133.46,-186.4 142.79,-191.42 143.89,-184.51"/>
</g>
<!-- Node9 -->
<g id="node9" class="node">
<title>Node9</title>
<g id="a_node9"><a xlink:href="libccc__naming_8h.html" target="_top" xlink:title=" ">
<polygon fill="white" stroke="black" points="190,-168.5 190,-187.5 285,-187.5 285,-168.5 190,-168.5"/>
<text text-anchor="middle" x="237.5" y="-175.5" font-family="Consolas" font-size="10.00">libccc_naming.h</text>
</a>
</g>
</g>
<!-- Node4&#45;&gt;Node9 -->
<g id="edge11" class="edge">
<title>Node4&#45;&gt;Node9</title>
<path fill="none" stroke="midnightblue" d="M362.89,-224.44C338.04,-215.44 298.73,-201.19 270.75,-191.05"/>
<polygon fill="midnightblue" stroke="midnightblue" points="271.59,-187.63 261,-187.52 269.21,-194.21 271.59,-187.63"/>
</g>
<!-- Node10 -->
<g id="node10" class="node">
<title>Node10</title>
<g id="a_node10"><a xlink:href="math_8h.html" target="_top" xlink:title=" ">
<polygon fill="white" stroke="black" points="455.5,-168.5 455.5,-187.5 503.5,-187.5 503.5,-168.5 455.5,-168.5"/>
<text text-anchor="middle" x="479.5" y="-175.5" font-family="Consolas" font-size="10.00">math.h</text>
</a>
</g>
</g>
<!-- Node4&#45;&gt;Node10 -->
<g id="edge13" class="edge">
<title>Node4&#45;&gt;Node10</title>
<path fill="none" stroke="midnightblue" d="M401.44,-224.32C416.09,-215.82 438.63,-202.73 455.74,-192.8"/>
<polygon fill="midnightblue" stroke="midnightblue" points="457.7,-195.7 464.6,-187.65 454.19,-189.65 457.7,-195.7"/>
</g>
<!-- Node6 -->
<g id="node6" class="node">
<title>Node6</title>
<g id="a_node6"><a xlink:title=" ">
<polygon fill="white" stroke="#bfbfbf" points="108,-0.5 108,-19.5 177,-19.5 177,-0.5 108,-0.5"/>
<text text-anchor="middle" x="142.5" y="-7.5" font-family="Consolas" font-size="10.00">stdalign.h</text>
</a>
</g>
</g>
<!-- Node5&#45;&gt;Node6 -->
<g id="edge5" class="edge">
<title>Node5&#45;&gt;Node6</title>
<path fill="none" stroke="midnightblue" d="M142.5,-56.08C142.5,-49.01 142.5,-38.86 142.5,-29.99"/>
<polygon fill="midnightblue" stroke="midnightblue" points="146,-29.75 142.5,-19.75 139,-29.75 146,-29.75"/>
</g>
<!-- Node7&#45;&gt;Node5 -->
<g id="edge7" class="edge">
<title>Node7&#45;&gt;Node5</title>
<path fill="none" stroke="midnightblue" d="M62.76,-112.32C77.72,-103.82 100.75,-90.73 118.23,-80.8"/>
<polygon fill="midnightblue" stroke="midnightblue" points="120.31,-83.64 127.27,-75.65 116.85,-77.55 120.31,-83.64"/>
</g>
<!-- Node8&#45;&gt;Node5 -->
<g id="edge9" class="edge">
<title>Node8&#45;&gt;Node5</title>
<path fill="none" stroke="midnightblue" d="M89.97,-168.37C99.3,-150.38 120.97,-108.55 133.37,-84.63"/>
<polygon fill="midnightblue" stroke="midnightblue" points="136.55,-86.08 138.05,-75.59 130.34,-82.86 136.55,-86.08"/>
</g>
<!-- Node8&#45;&gt;Node7 -->
<g id="edge10" class="edge">
<title>Node8&#45;&gt;Node7</title>
<path fill="none" stroke="midnightblue" d="M79.23,-168.08C73.86,-160.46 65.98,-149.26 59.42,-139.94"/>
<polygon fill="midnightblue" stroke="midnightblue" points="62.28,-137.91 53.66,-131.75 56.55,-141.94 62.28,-137.91"/>
</g>
<!-- Node9&#45;&gt;Node5 -->
<g id="edge12" class="edge">
<title>Node9&#45;&gt;Node5</title>
<path fill="none" stroke="midnightblue" d="M230.05,-168.37C214.23,-150.05 177.09,-107.05 156.63,-83.36"/>
<polygon fill="midnightblue" stroke="midnightblue" points="159.1,-80.87 149.92,-75.59 153.81,-85.45 159.1,-80.87"/>
</g>
<!-- Node11 -->
<g id="node11" class="node">
<title>Node11</title>
<g id="a_node11"><a xlink:href="constants_8h.html" target="_top" xlink:title=" ">
<polygon fill="white" stroke="black" points="266,-112.5 266,-131.5 403,-131.5 403,-112.5 266,-112.5"/>
<text text-anchor="middle" x="334.5" y="-119.5" font-family="Consolas" font-size="10.00">libccc/math/constants.h</text>
</a>
</g>
</g>
<!-- Node10&#45;&gt;Node11 -->
<g id="edge14" class="edge">
<title>Node10&#45;&gt;Node11</title>
<path fill="none" stroke="midnightblue" d="M456.52,-168.44C432.34,-159.44 394.08,-145.19 366.85,-135.05"/>
<polygon fill="midnightblue" stroke="midnightblue" points="367.96,-131.73 357.37,-131.52 365.52,-138.29 367.96,-131.73"/>
</g>
<!-- Node13 -->
<g id="node13" class="node">
<title>Node13</title>
<g id="a_node13"><a xlink:href="math_2int_8h.html" target="_top" xlink:title=" ">
<polygon fill="white" stroke="black" points="689.5,-112.5 689.5,-131.5 795.5,-131.5 795.5,-112.5 689.5,-112.5"/>
<text text-anchor="middle" x="742.5" y="-119.5" font-family="Consolas" font-size="10.00">libccc/math/int.h</text>
</a>
</g>
</g>
<!-- Node10&#45;&gt;Node13 -->
<g id="edge17" class="edge">
<title>Node10&#45;&gt;Node13</title>
<path fill="none" stroke="midnightblue" d="M503.77,-172.02C546.12,-163.32 634.37,-145.2 690.9,-133.6"/>
<polygon fill="midnightblue" stroke="midnightblue" points="691.63,-137.02 700.72,-131.58 690.22,-130.16 691.63,-137.02"/>
</g>
<!-- Node16 -->
<g id="node16" class="node">
<title>Node16</title>
<g id="a_node16"><a xlink:href="math_2fixed_8h.html" target="_top" xlink:title=" ">
<polygon fill="white" stroke="black" points="555.5,-112.5 555.5,-131.5 671.5,-131.5 671.5,-112.5 555.5,-112.5"/>
<text text-anchor="middle" x="613.5" y="-119.5" font-family="Consolas" font-size="10.00">libccc/math/fixed.h</text>
</a>
</g>
</g>
<!-- Node10&#45;&gt;Node16 -->
<g id="edge21" class="edge">
<title>Node10&#45;&gt;Node16</title>
<path fill="none" stroke="midnightblue" d="M500.73,-168.44C522.88,-159.52 557.82,-145.44 582.94,-135.32"/>
<polygon fill="midnightblue" stroke="midnightblue" points="584.4,-138.5 592.37,-131.52 581.78,-132.01 584.4,-138.5"/>
</g>
<!-- Node18 -->
<g id="node18" class="node">
<title>Node18</title>
<g id="a_node18"><a xlink:href="math_2float_8h.html" target="_top" xlink:title=" ">
<polygon fill="white" stroke="black" points="421.5,-112.5 421.5,-131.5 537.5,-131.5 537.5,-112.5 421.5,-112.5"/>
<text text-anchor="middle" x="479.5" y="-119.5" font-family="Consolas" font-size="10.00">libccc/math/float.h</text>
</a>
</g>
</g>
<!-- Node10&#45;&gt;Node18 -->
<g id="edge24" class="edge">
<title>Node10&#45;&gt;Node18</title>
<path fill="none" stroke="midnightblue" d="M479.5,-168.08C479.5,-161.01 479.5,-150.86 479.5,-141.99"/>
<polygon fill="midnightblue" stroke="midnightblue" points="483,-141.75 479.5,-131.75 476,-141.75 483,-141.75"/>
</g>
<!-- Node12 -->
<g id="node12" class="node">
<title>Node12</title>
<g id="a_node12"><a xlink:href="float_8h.html" target="_top" xlink:title=" ">
<polygon fill="white" stroke="black" points="289.5,-56.5 289.5,-75.5 379.5,-75.5 379.5,-56.5 289.5,-56.5"/>
<text text-anchor="middle" x="334.5" y="-63.5" font-family="Consolas" font-size="10.00">libccc/float.h</text>
</a>
</g>
</g>
<!-- Node11&#45;&gt;Node12 -->
<g id="edge15" class="edge">
<title>Node11&#45;&gt;Node12</title>
<path fill="none" stroke="midnightblue" d="M334.5,-112.08C334.5,-105.01 334.5,-94.86 334.5,-85.99"/>
<polygon fill="midnightblue" stroke="midnightblue" points="338,-85.75 334.5,-75.75 331,-85.75 338,-85.75"/>
</g>
<!-- Node12&#45;&gt;Node4 -->
<g id="edge16" class="edge">
<title>Node12&#45;&gt;Node4</title>
<path fill="none" stroke="midnightblue" d="M308.08,-75.52C280.7,-85.95 243.56,-105.56 256.5,-132 262.44,-144.14 330.54,-193.45 365.72,-218.4"/>
<polygon fill="midnightblue" stroke="midnightblue" points="364.11,-221.55 374.3,-224.46 368.15,-215.83 364.11,-221.55"/>
</g>
<!-- Node13&#45;&gt;Node14 -->
<g id="edge18" class="edge">
<title>Node13&#45;&gt;Node14</title>
<path fill="none" stroke="midnightblue" d="M761.36,-112.44C780.77,-103.64 811.23,-89.81 833.46,-79.72"/>
<polygon fill="midnightblue" stroke="midnightblue" points="835.07,-82.84 842.73,-75.52 832.18,-76.46 835.07,-82.84"/>
</g>
<!-- Node14&#45;&gt;Node4 -->
<g id="edge20" class="edge">
<title>Node14&#45;&gt;Node4</title>
<path fill="none" stroke="midnightblue" d="M857.53,-75.87C851.2,-89.28 837.77,-114.92 820.5,-132 786.73,-165.39 774.25,-172.12 729.5,-188 624.68,-225.2 492.02,-232.13 426.65,-233.11"/>
<polygon fill="midnightblue" stroke="midnightblue" points="426.34,-229.62 416.38,-233.23 426.41,-236.62 426.34,-229.62"/>
</g>
<!-- Node15 -->
<g id="node15" class="node">
<title>Node15</title>
<g id="a_node15"><a xlink:title=" ">
<polygon fill="white" stroke="#bfbfbf" points="832,-0.5 832,-19.5 891,-19.5 891,-0.5 832,-0.5"/>
<text text-anchor="middle" x="861.5" y="-7.5" font-family="Consolas" font-size="10.00">stdint.h</text>
</a>
</g>
</g>
<!-- Node14&#45;&gt;Node15 -->
<g id="edge19" class="edge">
<title>Node14&#45;&gt;Node15</title>
<path fill="none" stroke="midnightblue" d="M861.5,-56.08C861.5,-49.01 861.5,-38.86 861.5,-29.99"/>
<polygon fill="midnightblue" stroke="midnightblue" points="865,-29.75 861.5,-19.75 858,-29.75 865,-29.75"/>
</g>
<!-- Node17 -->
<g id="node17" class="node">
<title>Node17</title>
<g id="a_node17"><a xlink:href="fixed_8h.html" target="_top" xlink:title=" ">
<polygon fill="white" stroke="black" points="640.5,-56.5 640.5,-75.5 730.5,-75.5 730.5,-56.5 640.5,-56.5"/>
<text text-anchor="middle" x="685.5" y="-63.5" font-family="Consolas" font-size="10.00">libccc/fixed.h</text>
</a>
</g>
</g>
<!-- Node16&#45;&gt;Node17 -->
<g id="edge22" class="edge">
<title>Node16&#45;&gt;Node17</title>
<path fill="none" stroke="midnightblue" d="M625.07,-112.32C635.92,-104.18 652.38,-91.84 665.38,-82.09"/>
<polygon fill="midnightblue" stroke="midnightblue" points="667.82,-84.63 673.72,-75.83 663.62,-79.03 667.82,-84.63"/>
</g>
<!-- Node17&#45;&gt;Node4 -->
<g id="edge23" class="edge">
<title>Node17&#45;&gt;Node4</title>
<path fill="none" stroke="midnightblue" d="M730.6,-74.56C773.5,-83.74 828.23,-101.85 804.5,-132 757.54,-191.65 521.38,-220.27 426.27,-229.51"/>
<polygon fill="midnightblue" stroke="midnightblue" points="425.81,-226.04 416.19,-230.47 426.48,-233.01 425.81,-226.04"/>
</g>
<!-- Node18&#45;&gt;Node12 -->
<g id="edge25" class="edge">
<title>Node18&#45;&gt;Node12</title>
<path fill="none" stroke="midnightblue" d="M456.52,-112.44C432.34,-103.44 394.08,-89.19 366.85,-79.05"/>
<polygon fill="midnightblue" stroke="midnightblue" points="367.96,-75.73 357.37,-75.52 365.52,-82.29 367.96,-75.73"/>
</g>
</g>
</svg>
