<?xml version="1.0" encoding="UTF-8" standalone="no"?>
<!DOCTYPE svg PUBLIC "-//W3C//DTD SVG 1.1//EN"
 "http://www.w3.org/Graphics/SVG/1.1/DTD/svg11.dtd">
<!-- Generated by graphviz version 2.49.3 (20211023.0002)
 -->
<!-- Title: hdr/libccc/bool.h Pages: 1 -->
<svg width="667pt" height="308pt"
 viewBox="0.00 0.00 667.32 308.00" xmlns="http://www.w3.org/2000/svg" xmlns:xlink="http://www.w3.org/1999/xlink">
<g id="graph0" class="graph" transform="scale(1 1) rotate(0) translate(4 304)">
<title>hdr/libccc/bool.h</title>
<polygon fill="white" stroke="transparent" points="-4,4 -4,-304 663.32,-304 663.32,4 -4,4"/>
<!-- Node1 -->
<g id="node1" class="node">
<title>Node1</title>
<g id="a_node1"><a xlink:title=" ">
<polygon fill="#bfbfbf" stroke="black" points="301.32,-280.5 301.32,-299.5 389.32,-299.5 389.32,-280.5 301.32,-280.5"/>
<text text-anchor="middle" x="345.32" y="-287.5" font-family="Consolas" font-size="10.00">hdr/libccc/bool.h</text>
</a>
</g>
</g>
<!-- Node2 -->
<g id="node2" class="node">
<title>Node2</title>
<g id="a_node2"><a xlink:href="libccc_8h.html" target="_top" xlink:title=" ">
<polygon fill="white" stroke="black" points="320.32,-224.5 320.32,-243.5 370.32,-243.5 370.32,-224.5 320.32,-224.5"/>
<text text-anchor="middle" x="345.32" y="-231.5" font-family="Consolas" font-size="10.00">libccc.h</text>
</a>
</g>
</g>
<!-- Node1&#45;&gt;Node2 -->
<g id="edge1" class="edge">
<title>Node1&#45;&gt;Node2</title>
<path fill="none" stroke="midnightblue" d="M340.16,-280.08C338.65,-272.93 338.22,-262.64 338.87,-253.69"/>
<polygon fill="midnightblue" stroke="midnightblue" points="342.34,-254.13 340.19,-243.75 335.4,-253.2 342.34,-254.13"/>
</g>
<!-- Node2&#45;&gt;Node1 -->
<g id="edge11" class="edge">
<title>Node2&#45;&gt;Node1</title>
<path fill="none" stroke="midnightblue" d="M350.46,-243.75C351.98,-250.86 352.43,-261.14 351.8,-270.1"/>
<polygon fill="midnightblue" stroke="midnightblue" points="348.32,-269.71 350.49,-280.08 355.26,-270.62 348.32,-269.71"/>
</g>
<!-- Node3 -->
<g id="node3" class="node">
<title>Node3</title>
<g id="a_node3"><a xlink:href="libccc__define_8h.html" target="_top" xlink:title=" ">
<polygon fill="white" stroke="black" points="48.32,-56.5 48.32,-75.5 130.32,-75.5 130.32,-56.5 48.32,-56.5"/>
<text text-anchor="middle" x="89.32" y="-63.5" font-family="Consolas" font-size="10.00">libccc_define.h</text>
</a>
</g>
</g>
<!-- Node2&#45;&gt;Node3 -->
<g id="edge2" class="edge">
<title>Node2&#45;&gt;Node3</title>
<path fill="none" stroke="midnightblue" d="M320.23,-231.18C259.02,-226.39 103.74,-212.16 58.32,-188 22.19,-168.78 -14.61,-147.17 6.32,-112 15.42,-96.72 31.71,-86.31 47.47,-79.39"/>
<polygon fill="midnightblue" stroke="midnightblue" points="49.16,-82.48 57.14,-75.51 46.55,-75.98 49.16,-82.48"/>
</g>
<!-- Node5 -->
<g id="node5" class="node">
<title>Node5</title>
<g id="a_node5"><a xlink:href="libccc__errors_8h.html" target="_top" xlink:title=" ">
<polygon fill="white" stroke="black" points="15.32,-112.5 15.32,-131.5 95.32,-131.5 95.32,-112.5 15.32,-112.5"/>
<text text-anchor="middle" x="55.32" y="-119.5" font-family="Consolas" font-size="10.00">libccc_errors.h</text>
</a>
</g>
</g>
<!-- Node2&#45;&gt;Node5 -->
<g id="edge4" class="edge">
<title>Node2&#45;&gt;Node5</title>
<path fill="none" stroke="midnightblue" d="M319.94,-232.14C259.73,-229.6 110.54,-220.12 74.32,-188 61.29,-176.44 56.98,-156.48 55.66,-141.72"/>
<polygon fill="midnightblue" stroke="midnightblue" points="59.15,-141.47 55.14,-131.67 52.16,-141.83 59.15,-141.47"/>
</g>
<!-- Node6 -->
<g id="node6" class="node">
<title>Node6</title>
<g id="a_node6"><a xlink:href="libccc__config_8h.html" target="_top" xlink:title=" ">
<polygon fill="white" stroke="black" points="83.32,-168.5 83.32,-187.5 165.32,-187.5 165.32,-168.5 83.32,-168.5"/>
<text text-anchor="middle" x="124.32" y="-175.5" font-family="Consolas" font-size="10.00">libccc_config.h</text>
</a>
</g>
</g>
<!-- Node2&#45;&gt;Node6 -->
<g id="edge6" class="edge">
<title>Node2&#45;&gt;Node6</title>
<path fill="none" stroke="midnightblue" d="M319.97,-226.81C283.19,-217.82 214.45,-201.02 169.04,-189.93"/>
<polygon fill="midnightblue" stroke="midnightblue" points="169.7,-186.48 159.16,-187.51 168.04,-193.28 169.7,-186.48"/>
</g>
<!-- Node7 -->
<g id="node7" class="node">
<title>Node7</title>
<g id="a_node7"><a xlink:href="libccc__naming_8h.html" target="_top" xlink:title=" ">
<polygon fill="white" stroke="black" points="151.82,-112.5 151.82,-131.5 238.82,-131.5 238.82,-112.5 151.82,-112.5"/>
<text text-anchor="middle" x="195.32" y="-119.5" font-family="Consolas" font-size="10.00">libccc_naming.h</text>
</a>
</g>
</g>
<!-- Node2&#45;&gt;Node7 -->
<g id="edge9" class="edge">
<title>Node2&#45;&gt;Node7</title>
<path fill="none" stroke="midnightblue" d="M320.2,-231.16C290.77,-227.65 242.47,-217.48 214.32,-188 202.54,-175.65 198.01,-156.4 196.3,-142.05"/>
<polygon fill="midnightblue" stroke="midnightblue" points="199.76,-141.49 195.44,-131.82 192.79,-142.08 199.76,-141.49"/>
</g>
<!-- Node8 -->
<g id="node8" class="node">
<title>Node8</title>
<g id="a_node8"><a xlink:href="char_8h.html" target="_top" xlink:title=" ">
<polygon fill="white" stroke="black" points="223.82,-168.5 223.82,-187.5 294.82,-187.5 294.82,-168.5 223.82,-168.5"/>
<text text-anchor="middle" x="259.32" y="-175.5" font-family="Consolas" font-size="10.00">libccc/char.h</text>
</a>
</g>
</g>
<!-- Node2&#45;&gt;Node8 -->
<g id="edge12" class="edge">
<title>Node2&#45;&gt;Node8</title>
<path fill="none" stroke="midnightblue" d="M326.39,-224.32C311.53,-216.11 291.28,-203.6 276.81,-193.81"/>
<polygon fill="midnightblue" stroke="midnightblue" points="278.45,-190.68 268.24,-187.83 274.44,-196.43 278.45,-190.68"/>
</g>
<!-- Node12 -->
<g id="node12" class="node">
<title>Node12</title>
<g id="a_node12"><a xlink:href="int_8h.html" target="_top" xlink:title=" ">
<polygon fill="white" stroke="black" points="313.32,-168.5 313.32,-187.5 377.32,-187.5 377.32,-168.5 313.32,-168.5"/>
<text text-anchor="middle" x="345.32" y="-175.5" font-family="Consolas" font-size="10.00">libccc/int.h</text>
</a>
</g>
</g>
<!-- Node2&#45;&gt;Node12 -->
<g id="edge17" class="edge">
<title>Node2&#45;&gt;Node12</title>
<path fill="none" stroke="midnightblue" d="M340.16,-224.08C338.65,-216.93 338.22,-206.64 338.87,-197.69"/>
<polygon fill="midnightblue" stroke="midnightblue" points="342.34,-198.13 340.19,-187.75 335.4,-197.2 342.34,-198.13"/>
</g>
<!-- Node13 -->
<g id="node13" class="node">
<title>Node13</title>
<g id="a_node13"><a xlink:href="fixed_8h.html" target="_top" xlink:title=" ">
<polygon fill="white" stroke="black" points="395.32,-168.5 395.32,-187.5 469.32,-187.5 469.32,-168.5 395.32,-168.5"/>
<text text-anchor="middle" x="432.32" y="-175.5" font-family="Consolas" font-size="10.00">libccc/fixed.h</text>
</a>
</g>
</g>
<!-- Node2&#45;&gt;Node13 -->
<g id="edge20" class="edge">
<title>Node2&#45;&gt;Node13</title>
<path fill="none" stroke="midnightblue" d="M354.19,-224.32C366.04,-215.82 386.85,-202.73 404.12,-192.8"/>
<polygon fill="midnightblue" stroke="midnightblue" points="406.27,-195.61 413.27,-187.65 402.84,-189.5 406.27,-195.61"/>
</g>
<!-- Node14 -->
<g id="node14" class="node">
<title>Node14</title>
<g id="a_node14"><a xlink:href="float_8h.html" target="_top" xlink:title=" ">
<polygon fill="white" stroke="black" points="487.32,-168.5 487.32,-187.5 559.32,-187.5 559.32,-168.5 487.32,-168.5"/>
<text text-anchor="middle" x="523.32" y="-175.5" font-family="Consolas" font-size="10.00">libccc/float.h</text>
</a>
</g>
</g>
<!-- Node2&#45;&gt;Node14 -->
<g id="edge22" class="edge">
<title>Node2&#45;&gt;Node14</title>
<path fill="none" stroke="midnightblue" d="M368.44,-224.44C396.76,-215.24 444.96,-200.56 480.16,-190.39"/>
<polygon fill="midnightblue" stroke="midnightblue" points="481.52,-193.64 490.17,-187.52 479.59,-186.91 481.52,-193.64"/>
</g>
<!-- Node15 -->
<g id="node15" class="node">
<title>Node15</title>
<g id="a_node15"><a xlink:href="pointer_8h.html" target="_top" xlink:title=" ">
<polygon fill="white" stroke="black" points="577.32,-168.5 577.32,-187.5 659.32,-187.5 659.32,-168.5 577.32,-168.5"/>
<text text-anchor="middle" x="618.32" y="-175.5" font-family="Consolas" font-size="10.00">libccc/pointer.h</text>
</a>
</g>
</g>
<!-- Node2&#45;&gt;Node15 -->
<g id="edge24" class="edge">
<title>Node2&#45;&gt;Node15</title>
<path fill="none" stroke="midnightblue" d="M370.66,-227.12C415.28,-217.73 508.23,-199.29 566.77,-188.16"/>
<polygon fill="midnightblue" stroke="midnightblue" points="567.75,-191.54 576.93,-186.24 566.45,-184.66 567.75,-191.54"/>
</g>
<!-- Node4 -->
<g id="node4" class="node">
<title>Node4</title>
<g id="a_node4"><a xlink:title=" ">
<polygon fill="white" stroke="#bfbfbf" points="59.82,-0.5 59.82,-19.5 118.82,-19.5 118.82,-0.5 59.82,-0.5"/>
<text text-anchor="middle" x="89.32" y="-7.5" font-family="Consolas" font-size="10.00">stdalign.h</text>
</a>
</g>
</g>
<!-- Node3&#45;&gt;Node4 -->
<g id="edge3" class="edge">
<title>Node3&#45;&gt;Node4</title>
<path fill="none" stroke="midnightblue" d="M89.32,-56.08C89.32,-49.01 89.32,-38.86 89.32,-29.99"/>
<polygon fill="midnightblue" stroke="midnightblue" points="92.82,-29.75 89.32,-19.75 85.82,-29.75 92.82,-29.75"/>
</g>
<!-- Node5&#45;&gt;Node3 -->
<g id="edge5" class="edge">
<title>Node5&#45;&gt;Node3</title>
<path fill="none" stroke="midnightblue" d="M60.94,-112.08C65.69,-104.53 72.64,-93.49 78.48,-84.23"/>
<polygon fill="midnightblue" stroke="midnightblue" points="81.45,-86.08 83.81,-75.75 75.52,-82.35 81.45,-86.08"/>
</g>
<!-- Node6&#45;&gt;Node3 -->
<g id="edge7" class="edge">
<title>Node6&#45;&gt;Node3</title>
<path fill="none" stroke="midnightblue" d="M121.67,-168.15C117.9,-155.62 110.74,-132.01 104.32,-112 101.49,-103.17 98.25,-93.39 95.5,-85.22"/>
<polygon fill="midnightblue" stroke="midnightblue" points="98.77,-83.96 92.26,-75.61 92.14,-86.2 98.77,-83.96"/>
</g>
<!-- Node6&#45;&gt;Node5 -->
<g id="edge8" class="edge">
<title>Node6&#45;&gt;Node5</title>
<path fill="none" stroke="midnightblue" d="M113.24,-168.32C102.84,-160.18 87.06,-147.84 74.6,-138.09"/>
<polygon fill="midnightblue" stroke="midnightblue" points="76.64,-135.24 66.61,-131.83 72.33,-140.75 76.64,-135.24"/>
</g>
<!-- Node7&#45;&gt;Node3 -->
<g id="edge10" class="edge">
<title>Node7&#45;&gt;Node3</title>
<path fill="none" stroke="midnightblue" d="M178.29,-112.32C161.29,-103.66 134.95,-90.24 115.33,-80.25"/>
<polygon fill="midnightblue" stroke="midnightblue" points="116.81,-77.08 106.31,-75.65 113.63,-83.31 116.81,-77.08"/>
</g>
<!-- Node8&#45;&gt;Node2 -->
<g id="edge14" class="edge">
<title>Node8&#45;&gt;Node2</title>
<path fill="none" stroke="midnightblue" d="M278.22,-187.65C293.16,-195.91 313.56,-208.52 328.06,-218.34"/>
<polygon fill="midnightblue" stroke="midnightblue" points="326.42,-221.47 336.62,-224.32 330.43,-215.73 326.42,-221.47"/>
</g>
<!-- Node9 -->
<g id="node9" class="node">
<title>Node9</title>
<g id="a_node9"><a xlink:title=" ">
<polygon fill="white" stroke="#bfbfbf" points="492.82,-112.5 492.82,-131.5 541.82,-131.5 541.82,-112.5 492.82,-112.5"/>
<text text-anchor="middle" x="517.32" y="-119.5" font-family="Consolas" font-size="10.00">stdint.h</text>
</a>
</g>
</g>
<!-- Node8&#45;&gt;Node9 -->
<g id="edge13" class="edge">
<title>Node8&#45;&gt;Node9</title>
<path fill="none" stroke="midnightblue" d="M294.91,-169.88C349.18,-159.02 449.21,-138.98 482.59,-131.93"/>
<polygon fill="midnightblue" stroke="midnightblue" points="483.46,-135.32 492.48,-129.76 481.97,-128.48 483.46,-135.32"/>
</g>
<!-- Node10 -->
<g id="node10" class="node">
<title>Node10</title>
<g id="a_node10"><a xlink:title=" ">
<polygon fill="white" stroke="#bfbfbf" points="381.82,-112.5 381.82,-131.5 474.82,-131.5 474.82,-112.5 381.82,-112.5"/>
<text text-anchor="middle" x="428.32" y="-119.5" font-family="Consolas" font-size="10.00">libccc/text/ascii.h</text>
</a>
</g>
</g>
<!-- Node8&#45;&gt;Node10 -->
<g id="edge15" class="edge">
<title>Node8&#45;&gt;Node10</title>
<path fill="none" stroke="midnightblue" d="M286.1,-168.44C314.66,-159.32 360.06,-144.81 391.86,-134.65"/>
<polygon fill="midnightblue" stroke="midnightblue" points="393.21,-137.89 401.67,-131.52 391.08,-131.23 393.21,-137.89"/>
</g>
<!-- Node11 -->
<g id="node11" class="node">
<title>Node11</title>
<g id="a_node11"><a xlink:title=" ">
<polygon fill="white" stroke="#bfbfbf" points="256.82,-112.5 256.82,-131.5 363.82,-131.5 363.82,-112.5 256.82,-112.5"/>
<text text-anchor="middle" x="310.32" y="-119.5" font-family="Consolas" font-size="10.00">libccc/text/unicode.h</text>
</a>
</g>
</g>
<!-- Node8&#45;&gt;Node11 -->
<g id="edge16" class="edge">
<title>Node8&#45;&gt;Node11</title>
<path fill="none" stroke="midnightblue" d="M267.75,-168.08C275.17,-160.22 286.18,-148.57 295.14,-139.08"/>
<polygon fill="midnightblue" stroke="midnightblue" points="297.74,-141.42 302.06,-131.75 292.65,-136.62 297.74,-141.42"/>
</g>
<!-- Node12&#45;&gt;Node2 -->
<g id="edge19" class="edge">
<title>Node12&#45;&gt;Node2</title>
<path fill="none" stroke="midnightblue" d="M350.46,-187.75C351.98,-194.86 352.43,-205.14 351.8,-214.1"/>
<polygon fill="midnightblue" stroke="midnightblue" points="348.32,-213.71 350.49,-224.08 355.26,-214.62 348.32,-213.71"/>
</g>
<!-- Node12&#45;&gt;Node9 -->
<g id="edge18" class="edge">
<title>Node12&#45;&gt;Node9</title>
<path fill="none" stroke="midnightblue" d="M372.58,-168.44C402.41,-159.08 450.3,-144.04 482.75,-133.85"/>
<polygon fill="midnightblue" stroke="midnightblue" points="484.21,-137.06 492.71,-130.73 482.12,-130.39 484.21,-137.06"/>
</g>
<!-- Node13&#45;&gt;Node2 -->
<g id="edge21" class="edge">
<title>Node13&#45;&gt;Node2</title>
<path fill="none" stroke="midnightblue" d="M423.24,-187.83C411.34,-196.34 390.68,-209.34 373.51,-219.21"/>
<polygon fill="midnightblue" stroke="midnightblue" points="371.42,-216.37 364.42,-224.32 374.85,-222.47 371.42,-216.37"/>
</g>
<!-- Node14&#45;&gt;Node2 -->
<g id="edge23" class="edge">
<title>Node14&#45;&gt;Node2</title>
<path fill="none" stroke="midnightblue" d="M500.18,-187.57C469.66,-197.48 416.1,-213.75 380.57,-223.89"/>
<polygon fill="midnightblue" stroke="midnightblue" points="379.29,-220.61 370.62,-226.7 381.19,-227.35 379.29,-220.61"/>
</g>
<!-- Node15&#45;&gt;Node2 -->
<g id="edge27" class="edge">
<title>Node15&#45;&gt;Node2</title>
<path fill="none" stroke="midnightblue" d="M580.05,-187.58C526.96,-198.55 432.02,-217.29 380.57,-226.91"/>
<polygon fill="midnightblue" stroke="midnightblue" points="379.78,-223.5 370.59,-228.76 381.06,-230.38 379.78,-223.5"/>
</g>
<!-- Node15&#45;&gt;Node9 -->
<g id="edge26" class="edge">
<title>Node15&#45;&gt;Node9</title>
<path fill="none" stroke="midnightblue" d="M602.1,-168.32C585.97,-159.7 561.02,-146.36 542.36,-136.39"/>
<polygon fill="midnightblue" stroke="midnightblue" points="543.98,-133.28 533.51,-131.65 540.68,-139.46 543.98,-133.28"/>
</g>
<!-- Node16 -->
<g id="node16" class="node">
<title>Node16</title>
<g id="a_node16"><a xlink:title=" ">
<polygon fill="white" stroke="#bfbfbf" points="592.32,-112.5 592.32,-131.5 644.32,-131.5 644.32,-112.5 592.32,-112.5"/>
<text text-anchor="middle" x="618.32" y="-119.5" font-family="Consolas" font-size="10.00">stddef.h</text>
</a>
</g>
</g>
<!-- Node15&#45;&gt;Node16 -->
<g id="edge25" class="edge">
<title>Node15&#45;&gt;Node16</title>
<path fill="none" stroke="midnightblue" d="M618.32,-168.08C618.32,-161.01 618.32,-150.86 618.32,-141.99"/>
<polygon fill="midnightblue" stroke="midnightblue" points="621.82,-141.75 618.32,-131.75 614.82,-141.75 621.82,-141.75"/>
</g>
</g>
</svg>
