<?xml version="1.0" encoding="UTF-8" standalone="no"?>
<!DOCTYPE svg PUBLIC "-//W3C//DTD SVG 1.1//EN"
 "http://www.w3.org/Graphics/SVG/1.1/DTD/svg11.dtd">
<!-- Generated by graphviz version 2.49.3 (20211023.0002)
 -->
<!-- Title: hdr/libccc/char.h Pages: 1 -->
<!--zoomable 308 -->
<svg id="main" version="1.1" xmlns="http://www.w3.org/2000/svg" xmlns:xlink="http://www.w3.org/1999/xlink" xml:space="preserve" onload="init(evt)">
<style type="text/css"><![CDATA[
.edge:hover path { stroke: red; }
.edge:hover polygon { stroke: red; fill: red; }
]]></style>
<script type="text/javascript"><![CDATA[
var edges = document.getElementsByTagName('g');
if (edges && edges.length) {
  for (var i=0;i<edges.length;i++) {
    if (edges[i].id.substr(0,4)=='edge') {
      edges[i].setAttribute('class','edge');
    }
  }
}
]]></script>
        <defs>
                <circle id="rim" cx="0" cy="0" r="7"/>
                <circle id="rim2" cx="0" cy="0" r="3.5"/>
                <g id="zoomPlus">
                        <use xlink:href="#rim" fill="#404040">
                                <set attributeName="fill" to="#808080" begin="zoomplus.mouseover" end="zoomplus.mouseout"/>
                        </use>
                        <path d="M-4,0h8M0,-4v8" fill="none" stroke="white" stroke-width="1.5" pointer-events="none"/>
                </g>
                <g id="zoomMin">
                        <use xlink:href="#rim" fill="#404040">
                                <set attributeName="fill" to="#808080" begin="zoomminus.mouseover" end="zoomminus.mouseout"/>
                        </use>
                        <path d="M-4,0h8" fill="none" stroke="white" stroke-width="1.5" pointer-events="none"/>
                </g>
                <g id="dirArrow">
                        <path fill="none" stroke="white" stroke-width="1.5" d="M0,-3.0v7 M-2.5,-0.5L0,-3.0L2.5,-0.5"/>
                </g>
               <g id="resetDef">
                       <use xlink:href="#rim2" fill="#404040">
                               <set attributeName="fill" to="#808080" begin="reset.mouseover" end="reset.mouseout"/>
                       </use>
               </g>
        </defs>

<script type="text/javascript">
var viewWidth = 1000;
var viewHeight = 308;
var sectionId = 'dynsection-0';
</script>
<script xlink:href="svgpan.js"/>
<svg id="graph" class="graph">
<g id="viewport">
<title>hdr/libccc/char.h</title>
<polygon fill="white" stroke="transparent" points="-4,4 -4,-304 996,-304 996,4 -4,4"/>
<!-- Node1 -->
<g id="node1" class="node">
<title>Node1</title>
<g id="a_node1"><a xlink:title=" ">
<polygon fill="#bfbfbf" stroke="black" points="701.5,-280.5 701.5,-299.5 789.5,-299.5 789.5,-280.5 701.5,-280.5"/>
<text text-anchor="middle" x="745.5" y="-287.5" font-family="Consolas" font-size="10.00">hdr/libccc/char.h</text>
</a>
</g>
</g>
<!-- Node2 -->
<g id="node2" class="node">
<title>Node2</title>
<g id="a_node2"><a xlink:title=" ">
<polygon fill="white" stroke="#bfbfbf" points="661,-112.5 661,-131.5 710,-131.5 710,-112.5 661,-112.5"/>
<text text-anchor="middle" x="685.5" y="-119.5" font-family="Consolas" font-size="10.00">stdint.h</text>
</a>
</g>
</g>
<!-- Node1&#45;&gt;Node2 -->
<g id="edge1" class="edge">
<title>Node1&#45;&gt;Node2</title>
<path fill="none" stroke="midnightblue" d="M745.8,-280.29C746.17,-259.68 745.08,-206.73 726.5,-168 721.16,-156.88 712.17,-146.55 703.97,-138.59"/>
<polygon fill="midnightblue" stroke="midnightblue" points="706.23,-135.92 696.49,-131.75 701.5,-141.08 706.23,-135.92"/>
</g>
<!-- Node3 -->
<g id="node3" class="node">
<title>Node3</title>
<g id="a_node3"><a xlink:href="libccc_8h.html" target="_top" xlink:title=" ">
<polygon fill="white" stroke="black" points="429.5,-224.5 429.5,-243.5 479.5,-243.5 479.5,-224.5 429.5,-224.5"/>
<text text-anchor="middle" x="454.5" y="-231.5" font-family="Consolas" font-size="10.00">libccc.h</text>
</a>
</g>
</g>
<!-- Node1&#45;&gt;Node3 -->
<g id="edge2" class="edge">
<title>Node1&#45;&gt;Node3</title>
<path fill="none" stroke="midnightblue" d="M701.47,-281.72C643.45,-271.43 542.81,-252.76 489.61,-242.41"/>
<polygon fill="midnightblue" stroke="midnightblue" points="490.12,-238.94 479.63,-240.46 488.77,-245.81 490.12,-238.94"/>
</g>
<!-- Node15 -->
<g id="node15" class="node">
<title>Node15</title>
<g id="a_node15"><a xlink:title=" ">
<polygon fill="white" stroke="#bfbfbf" points="774,-224.5 774,-243.5 867,-243.5 867,-224.5 774,-224.5"/>
<text text-anchor="middle" x="820.5" y="-231.5" font-family="Consolas" font-size="10.00">libccc/text/ascii.h</text>
</a>
</g>
</g>
<!-- Node1&#45;&gt;Node15 -->
<g id="edge26" class="edge">
<title>Node1&#45;&gt;Node15</title>
<path fill="none" stroke="midnightblue" d="M757.55,-280.32C768.96,-272.11 786.33,-259.6 799.93,-249.81"/>
<polygon fill="midnightblue" stroke="midnightblue" points="802.16,-252.52 808.23,-243.83 798.07,-246.84 802.16,-252.52"/>
</g>
<!-- Node16 -->
<g id="node16" class="node">
<title>Node16</title>
<g id="a_node16"><a xlink:title=" ">
<polygon fill="white" stroke="#bfbfbf" points="885,-224.5 885,-243.5 992,-243.5 992,-224.5 885,-224.5"/>
<text text-anchor="middle" x="938.5" y="-231.5" font-family="Consolas" font-size="10.00">libccc/text/unicode.h</text>
</a>
</g>
</g>
<!-- Node1&#45;&gt;Node16 -->
<g id="edge27" class="edge">
<title>Node1&#45;&gt;Node16</title>
<path fill="none" stroke="midnightblue" d="M776.08,-280.44C809.11,-271.2 861.89,-256.44 898.27,-246.26"/>
<polygon fill="midnightblue" stroke="midnightblue" points="899.37,-249.58 908.06,-243.52 897.49,-242.84 899.37,-249.58"/>
</g>
<!-- Node3&#45;&gt;Node1 -->
<g id="edge14" class="edge">
<title>Node3&#45;&gt;Node1</title>
<path fill="none" stroke="midnightblue" d="M479.78,-239C527.58,-247.25 631.54,-266.44 694.38,-278.5"/>
<polygon fill="midnightblue" stroke="midnightblue" points="694,-281.99 704.48,-280.44 695.32,-275.11 694,-281.99"/>
</g>
<!-- Node4 -->
<g id="node4" class="node">
<title>Node4</title>
<g id="a_node4"><a xlink:href="libccc__define_8h.html" target="_top" xlink:title=" ">
<polygon fill="white" stroke="black" points="108.5,-56.5 108.5,-75.5 190.5,-75.5 190.5,-56.5 108.5,-56.5"/>
<text text-anchor="middle" x="149.5" y="-63.5" font-family="Consolas" font-size="10.00">libccc_define.h</text>
</a>
</g>
</g>
<!-- Node3&#45;&gt;Node4 -->
<g id="edge3" class="edge">
<title>Node3&#45;&gt;Node4</title>
<path fill="none" stroke="midnightblue" d="M429.41,-232.04C366.67,-229.2 204.98,-218.98 162.5,-188 133.41,-166.79 128.73,-147.53 134.5,-112 135.97,-102.96 138.99,-93.28 141.94,-85.22"/>
<polygon fill="midnightblue" stroke="midnightblue" points="145.26,-86.34 145.64,-75.75 138.74,-83.79 145.26,-86.34"/>
</g>
<!-- Node6 -->
<g id="node6" class="node">
<title>Node6</title>
<g id="a_node6"><a xlink:href="libccc__errors_8h.html" target="_top" xlink:title=" ">
<polygon fill="white" stroke="black" points="143.5,-112.5 143.5,-131.5 223.5,-131.5 223.5,-112.5 143.5,-112.5"/>
<text text-anchor="middle" x="183.5" y="-119.5" font-family="Consolas" font-size="10.00">libccc_errors.h</text>
</a>
</g>
</g>
<!-- Node3&#45;&gt;Node6 -->
<g id="edge5" class="edge">
<title>Node3&#45;&gt;Node6</title>
<path fill="none" stroke="midnightblue" d="M429.31,-232.96C366.47,-232.26 205.48,-226.66 172.5,-188 161.5,-175.11 166.91,-155.39 173.42,-141.05"/>
<polygon fill="midnightblue" stroke="midnightblue" points="176.74,-142.23 178.14,-131.73 170.49,-139.07 176.74,-142.23"/>
</g>
<!-- Node7 -->
<g id="node7" class="node">
<title>Node7</title>
<g id="a_node7"><a xlink:href="libccc__config_8h.html" target="_top" xlink:title=" ">
<polygon fill="white" stroke="black" points="181.5,-168.5 181.5,-187.5 263.5,-187.5 263.5,-168.5 181.5,-168.5"/>
<text text-anchor="middle" x="222.5" y="-175.5" font-family="Consolas" font-size="10.00">libccc_config.h</text>
</a>
</g>
</g>
<!-- Node3&#45;&gt;Node7 -->
<g id="edge7" class="edge">
<title>Node3&#45;&gt;Node7</title>
<path fill="none" stroke="midnightblue" d="M429.23,-227.12C390.86,-218.19 317.26,-201.06 269.03,-189.83"/>
<polygon fill="midnightblue" stroke="midnightblue" points="269.68,-186.39 259.15,-187.53 268.09,-193.21 269.68,-186.39"/>
</g>
<!-- Node8 -->
<g id="node8" class="node">
<title>Node8</title>
<g id="a_node8"><a xlink:href="libccc__naming_8h.html" target="_top" xlink:title=" ">
<polygon fill="white" stroke="black" points="0,-112.5 0,-131.5 87,-131.5 87,-112.5 0,-112.5"/>
<text text-anchor="middle" x="43.5" y="-119.5" font-family="Consolas" font-size="10.00">libccc_naming.h</text>
</a>
</g>
</g>
<!-- Node3&#45;&gt;Node8 -->
<g id="edge10" class="edge">
<title>Node3&#45;&gt;Node8</title>
<path fill="none" stroke="midnightblue" d="M429.46,-232.07C358.71,-229.09 158.77,-218.14 101.5,-188 80.66,-177.03 63.72,-155.36 53.64,-140.07"/>
<polygon fill="midnightblue" stroke="midnightblue" points="56.56,-138.13 48.28,-131.52 50.63,-141.85 56.56,-138.13"/>
</g>
<!-- Node9 -->
<g id="node9" class="node">
<title>Node9</title>
<g id="a_node9"><a xlink:href="bool_8h.html" target="_top" xlink:title=" ">
<polygon fill="white" stroke="black" points="282,-168.5 282,-187.5 353,-187.5 353,-168.5 282,-168.5"/>
<text text-anchor="middle" x="317.5" y="-175.5" font-family="Consolas" font-size="10.00">libccc/bool.h</text>
</a>
</g>
</g>
<!-- Node3&#45;&gt;Node9 -->
<g id="edge12" class="edge">
<title>Node3&#45;&gt;Node9</title>
<path fill="none" stroke="midnightblue" d="M429.33,-225.03C404.89,-216.21 368.25,-201.88 343.54,-191.55"/>
<polygon fill="midnightblue" stroke="midnightblue" points="344.64,-188.22 334.07,-187.54 341.91,-194.66 344.64,-188.22"/>
</g>
<!-- Node10 -->
<g id="node10" class="node">
<title>Node10</title>
<g id="a_node10"><a xlink:href="int_8h.html" target="_top" xlink:title=" ">
<polygon fill="white" stroke="black" points="653.5,-168.5 653.5,-187.5 717.5,-187.5 717.5,-168.5 653.5,-168.5"/>
<text text-anchor="middle" x="685.5" y="-175.5" font-family="Consolas" font-size="10.00">libccc/int.h</text>
</a>
</g>
</g>
<!-- Node3&#45;&gt;Node10 -->
<g id="edge15" class="edge">
<title>Node3&#45;&gt;Node10</title>
<path fill="none" stroke="midnightblue" d="M479.52,-226.05C518.94,-216.23 595.48,-198.31 643.42,-187.64"/>
<polygon fill="midnightblue" stroke="midnightblue" points="644.48,-190.99 653.49,-185.42 642.97,-184.16 644.48,-190.99"/>
</g>
<!-- Node11 -->
<g id="node11" class="node">
<title>Node11</title>
<g id="a_node11"><a xlink:href="fixed_8h.html" target="_top" xlink:title=" ">
<polygon fill="white" stroke="black" points="371.5,-168.5 371.5,-187.5 445.5,-187.5 445.5,-168.5 371.5,-168.5"/>
<text text-anchor="middle" x="408.5" y="-175.5" font-family="Consolas" font-size="10.00">libccc/fixed.h</text>
</a>
</g>
</g>
<!-- Node3&#45;&gt;Node11 -->
<g id="edge18" class="edge">
<title>Node3&#45;&gt;Node11</title>
<path fill="none" stroke="midnightblue" d="M441.99,-224.32C433.88,-216.73 423.9,-205.48 416.73,-196.09"/>
<polygon fill="midnightblue" stroke="midnightblue" points="419.52,-193.97 410.88,-187.83 413.8,-198.02 419.52,-193.97"/>
</g>
<!-- Node12 -->
<g id="node12" class="node">
<title>Node12</title>
<g id="a_node12"><a xlink:href="float_8h.html" target="_top" xlink:title=" ">
<polygon fill="white" stroke="black" points="463.5,-168.5 463.5,-187.5 535.5,-187.5 535.5,-168.5 463.5,-168.5"/>
<text text-anchor="middle" x="499.5" y="-175.5" font-family="Consolas" font-size="10.00">libccc/float.h</text>
</a>
</g>
</g>
<!-- Node3&#45;&gt;Node12 -->
<g id="edge20" class="edge">
<title>Node3&#45;&gt;Node12</title>
<path fill="none" stroke="midnightblue" d="M456.76,-224.08C461.66,-216.22 471.01,-204.57 479.87,-195.08"/>
<polygon fill="midnightblue" stroke="midnightblue" points="482.56,-197.33 487.08,-187.75 477.57,-192.43 482.56,-197.33"/>
</g>
<!-- Node13 -->
<g id="node13" class="node">
<title>Node13</title>
<g id="a_node13"><a xlink:href="pointer_8h.html" target="_top" xlink:title=" ">
<polygon fill="white" stroke="black" points="553.5,-168.5 553.5,-187.5 635.5,-187.5 635.5,-168.5 553.5,-168.5"/>
<text text-anchor="middle" x="594.5" y="-175.5" font-family="Consolas" font-size="10.00">libccc/pointer.h</text>
</a>
</g>
</g>
<!-- Node3&#45;&gt;Node13 -->
<g id="edge22" class="edge">
<title>Node3&#45;&gt;Node13</title>
<path fill="none" stroke="midnightblue" d="M471.59,-224.44C493.06,-215.4 530.02,-201.06 557.9,-190.92"/>
<polygon fill="midnightblue" stroke="midnightblue" points="559.12,-194.2 567.34,-187.52 556.75,-187.61 559.12,-194.2"/>
</g>
<!-- Node5 -->
<g id="node5" class="node">
<title>Node5</title>
<g id="a_node5"><a xlink:title=" ">
<polygon fill="white" stroke="#bfbfbf" points="120,-0.5 120,-19.5 179,-19.5 179,-0.5 120,-0.5"/>
<text text-anchor="middle" x="149.5" y="-7.5" font-family="Consolas" font-size="10.00">stdalign.h</text>
</a>
</g>
</g>
<!-- Node4&#45;&gt;Node5 -->
<g id="edge4" class="edge">
<title>Node4&#45;&gt;Node5</title>
<path fill="none" stroke="midnightblue" d="M149.5,-56.08C149.5,-49.01 149.5,-38.86 149.5,-29.99"/>
<polygon fill="midnightblue" stroke="midnightblue" points="153,-29.75 149.5,-19.75 146,-29.75 153,-29.75"/>
</g>
<!-- Node6&#45;&gt;Node4 -->
<g id="edge6" class="edge">
<title>Node6&#45;&gt;Node4</title>
<path fill="none" stroke="midnightblue" d="M177.89,-112.08C173.13,-104.53 166.18,-93.49 160.35,-84.23"/>
<polygon fill="midnightblue" stroke="midnightblue" points="163.3,-82.35 155.01,-75.75 157.38,-86.08 163.3,-82.35"/>
</g>
<!-- Node7&#45;&gt;Node4 -->
<g id="edge8" class="edge">
<title>Node7&#45;&gt;Node4</title>
<path fill="none" stroke="midnightblue" d="M227.19,-168.32C233.59,-155.18 243.13,-129.86 232.5,-112 223.4,-96.72 207.11,-86.31 191.36,-79.39"/>
<polygon fill="midnightblue" stroke="midnightblue" points="192.27,-75.98 181.68,-75.51 189.67,-82.48 192.27,-75.98"/>
</g>
<!-- Node7&#45;&gt;Node6 -->
<g id="edge9" class="edge">
<title>Node7&#45;&gt;Node6</title>
<path fill="none" stroke="midnightblue" d="M216.06,-168.08C210.55,-160.46 202.47,-149.26 195.74,-139.94"/>
<polygon fill="midnightblue" stroke="midnightblue" points="198.51,-137.81 189.82,-131.75 192.84,-141.91 198.51,-137.81"/>
</g>
<!-- Node8&#45;&gt;Node4 -->
<g id="edge11" class="edge">
<title>Node8&#45;&gt;Node4</title>
<path fill="none" stroke="midnightblue" d="M60.53,-112.32C77.53,-103.66 103.88,-90.24 123.49,-80.25"/>
<polygon fill="midnightblue" stroke="midnightblue" points="125.19,-83.31 132.51,-75.65 122.01,-77.08 125.19,-83.31"/>
</g>
<!-- Node9&#45;&gt;Node3 -->
<g id="edge13" class="edge">
<title>Node9&#45;&gt;Node3</title>
<path fill="none" stroke="midnightblue" d="M344.19,-187.52C368.65,-196.39 404.38,-210.38 428.59,-220.5"/>
<polygon fill="midnightblue" stroke="midnightblue" points="427.31,-223.76 437.88,-224.44 430.04,-217.32 427.31,-223.76"/>
</g>
<!-- Node10&#45;&gt;Node2 -->
<g id="edge16" class="edge">
<title>Node10&#45;&gt;Node2</title>
<path fill="none" stroke="midnightblue" d="M685.5,-168.08C685.5,-161.01 685.5,-150.86 685.5,-141.99"/>
<polygon fill="midnightblue" stroke="midnightblue" points="689,-141.75 685.5,-131.75 682,-141.75 689,-141.75"/>
</g>
<!-- Node10&#45;&gt;Node3 -->
<g id="edge17" class="edge">
<title>Node10&#45;&gt;Node3</title>
<path fill="none" stroke="midnightblue" d="M653.9,-187.58C610.92,-198.17 534.6,-215.98 489.8,-225.86"/>
<polygon fill="midnightblue" stroke="midnightblue" points="488.95,-222.46 479.93,-228.02 490.45,-229.3 488.95,-222.46"/>
</g>
<!-- Node11&#45;&gt;Node3 -->
<g id="edge19" class="edge">
<title>Node11&#45;&gt;Node3</title>
<path fill="none" stroke="midnightblue" d="M421.09,-187.75C429.17,-195.33 439.09,-206.5 446.23,-215.86"/>
<polygon fill="midnightblue" stroke="midnightblue" points="443.43,-217.96 452.07,-224.08 449.13,-213.9 443.43,-217.96"/>
</g>
<!-- Node12&#45;&gt;Node3 -->
<g id="edge21" class="edge">
<title>Node12&#45;&gt;Node3</title>
<path fill="none" stroke="midnightblue" d="M497.29,-187.83C492.4,-195.71 482.99,-207.44 474.09,-216.97"/>
<polygon fill="midnightblue" stroke="midnightblue" points="471.37,-214.74 466.84,-224.32 476.36,-219.65 471.37,-214.74"/>
</g>
<!-- Node13&#45;&gt;Node2 -->
<g id="edge24" class="edge">
<title>Node13&#45;&gt;Node2</title>
<path fill="none" stroke="midnightblue" d="M609.12,-168.32C623.45,-159.82 645.51,-146.73 662.25,-136.8"/>
<polygon fill="midnightblue" stroke="midnightblue" points="664.1,-139.77 670.92,-131.65 660.53,-133.75 664.1,-139.77"/>
</g>
<!-- Node13&#45;&gt;Node3 -->
<g id="edge25" class="edge">
<title>Node13&#45;&gt;Node3</title>
<path fill="none" stroke="midnightblue" d="M577.36,-187.58C555.41,-196.82 517.3,-211.59 489.25,-221.76"/>
<polygon fill="midnightblue" stroke="midnightblue" points="488.02,-218.48 479.79,-225.15 490.38,-225.07 488.02,-218.48"/>
</g>
<!-- Node14 -->
<g id="node14" class="node">
<title>Node14</title>
<g id="a_node14"><a xlink:title=" ">
<polygon fill="white" stroke="#bfbfbf" points="568.5,-112.5 568.5,-131.5 620.5,-131.5 620.5,-112.5 568.5,-112.5"/>
<text text-anchor="middle" x="594.5" y="-119.5" font-family="Consolas" font-size="10.00">stddef.h</text>
</a>
</g>
</g>
<!-- Node13&#45;&gt;Node14 -->
<g id="edge23" class="edge">
<title>Node13&#45;&gt;Node14</title>
<path fill="none" stroke="midnightblue" d="M594.5,-168.08C594.5,-161.01 594.5,-150.86 594.5,-141.99"/>
<polygon fill="midnightblue" stroke="midnightblue" points="598,-141.75 594.5,-131.75 591,-141.75 598,-141.75"/>
</g>
</g>
</svg>
        <g id="navigator" transform="translate(0 0)" fill="#404254">
                <rect fill="#f2f5e9" fill-opacity="0.5" stroke="#606060" stroke-width=".5" x="0" y="0" width="60" height="60"/>
                <use id="zoomplus" xlink:href="#zoomPlus" x="17" y="9" onmousedown="handleZoom(evt,'in')"/>
                <use id="zoomminus" xlink:href="#zoomMin" x="42" y="9" onmousedown="handleZoom(evt,'out')"/>
                <use id="reset" xlink:href="#resetDef" x="30" y="36" onmousedown="handleReset()"/>
                <g id="arrowUp" xlink:href="#dirArrow" transform="translate(30 24)" onmousedown="handlePan(0,-1)">
                  <use xlink:href="#rim" fill="#404040">
                        <set attributeName="fill" to="#808080" begin="arrowUp.mouseover" end="arrowUp.mouseout"/>
                  </use>
                  <path fill="none" stroke="white" stroke-width="1.5" d="M0,-3.0v7 M-2.5,-0.5L0,-3.0L2.5,-0.5"/>
                </g>
                <g id="arrowRight" xlink:href="#dirArrow" transform="rotate(90) translate(36 -43)" onmousedown="handlePan(1,0)">
                  <use xlink:href="#rim" fill="#404040">
                        <set attributeName="fill" to="#808080" begin="arrowRight.mouseover" end="arrowRight.mouseout"/>
                  </use>
                  <path fill="none" stroke="white" stroke-width="1.5" d="M0,-3.0v7 M-2.5,-0.5L0,-3.0L2.5,-0.5"/>
                </g>
                <g id="arrowDown" xlink:href="#dirArrow" transform="rotate(180) translate(-30 -48)" onmousedown="handlePan(0,1)">
                  <use xlink:href="#rim" fill="#404040">
                        <set attributeName="fill" to="#808080" begin="arrowDown.mouseover" end="arrowDown.mouseout"/>
                  </use>
                  <path fill="none" stroke="white" stroke-width="1.5" d="M0,-3.0v7 M-2.5,-0.5L0,-3.0L2.5,-0.5"/>
                </g>
                <g id="arrowLeft" xlink:href="#dirArrow" transform="rotate(270) translate(-36 17)" onmousedown="handlePan(-1,0)">
                  <use xlink:href="#rim" fill="#404040">
                        <set attributeName="fill" to="#808080" begin="arrowLeft.mouseover" end="arrowLeft.mouseout"/>
                  </use>
                  <path fill="none" stroke="white" stroke-width="1.5" d="M0,-3.0v7 M-2.5,-0.5L0,-3.0L2.5,-0.5"/>
                </g>
        </g>
        <svg viewBox="0 0 15 15" width="100%" height="30px" preserveAspectRatio="xMaxYMin meet">
         <g id="arrow_out" transform="scale(0.3 0.3)">
          <a xlink:href="char_8h__incl_org.svg" target="_base">
           <rect id="button" ry="5" rx="5" y="6" x="6" height="38" width="38"
                fill="#f2f5e9" fill-opacity="0.5" stroke="#606060" stroke-width="1.0"/>
           <path id="arrow"
             d="M 11.500037,31.436501 C 11.940474,20.09759 22.043105,11.32322 32.158766,21.979434 L 37.068811,17.246167 C 37.068811,17.246167 37.088388,32 37.088388,32 L 22.160133,31.978069 C 22.160133,31.978069 26.997745,27.140456 26.997745,27.140456 C 18.528582,18.264221 13.291696,25.230495 11.500037,31.436501 z"
             style="fill:#404040;"/>
          </a>
         </g>
        </svg>
</svg>
