<?xml version="1.0" encoding="UTF-8" standalone="no"?>
<!DOCTYPE svg PUBLIC "-//W3C//DTD SVG 1.1//EN"
 "http://www.w3.org/Graphics/SVG/1.1/DTD/svg11.dtd">
<!-- Generated by graphviz version 2.43.0 (0)
 -->
<!-- Title: libccc/char.h Pages: 1 -->
<svg width="983pt" height="308pt"
 viewBox="0.00 0.00 982.50 308.00" xmlns="http://www.w3.org/2000/svg" xmlns:xlink="http://www.w3.org/1999/xlink">
<g id="graph0" class="graph" transform="scale(1 1) rotate(0) translate(4 304)">
<title>libccc/char.h</title>
<polygon fill="white" stroke="transparent" points="-4,4 -4,-304 978.5,-304 978.5,4 -4,4"/>
<!-- Node1 -->
<g id="node1" class="node">
<title>Node1</title>
<g id="a_node1"><a xlink:title=" ">
<polygon fill="#bfbfbf" stroke="black" points="672.5,-280.5 672.5,-299.5 757.5,-299.5 757.5,-280.5 672.5,-280.5"/>
<text text-anchor="middle" x="715" y="-287.5" font-family="Consolas" font-size="10.00">libccc/char.h</text>
</a>
</g>
</g>
<!-- Node2 -->
<g id="node2" class="node">
<title>Node2</title>
<g id="a_node2"><a xlink:title=" ">
<polygon fill="white" stroke="#bfbfbf" points="4.5,-0.5 4.5,-19.5 63.5,-19.5 63.5,-0.5 4.5,-0.5"/>
<text text-anchor="middle" x="34" y="-7.5" font-family="Consolas" font-size="10.00">stdint.h</text>
</a>
</g>
</g>
<!-- Node1&#45;&gt;Node2 -->
<g id="edge1" class="edge">
<title>Node1&#45;&gt;Node2</title>
<path fill="none" stroke="midnightblue" d="M672.41,-286.97C518.49,-279.09 0,-247.45 0,-179 0,-179 0,-179 0,-121 0,-87.16 14.87,-49.97 24.94,-28.66"/>
<polygon fill="midnightblue" stroke="midnightblue" points="28.14,-30.08 29.41,-19.56 21.86,-26.99 28.14,-30.08"/>
</g>
<!-- Node3 -->
<g id="node3" class="node">
<title>Node3</title>
<g id="a_node3"><a xlink:href="libccc_8h.html" target="_top" xlink:title=" ">
<polygon fill="white" stroke="black" points="632.5,-224.5 632.5,-243.5 691.5,-243.5 691.5,-224.5 632.5,-224.5"/>
<text text-anchor="middle" x="662" y="-231.5" font-family="Consolas" font-size="10.00">libccc.h</text>
</a>
</g>
</g>
<!-- Node1&#45;&gt;Node3 -->
<g id="edge2" class="edge">
<title>Node1&#45;&gt;Node3</title>
<path fill="none" stroke="midnightblue" d="M706.25,-280.08C698.53,-272.22 687.1,-260.57 677.78,-251.08"/>
<polygon fill="midnightblue" stroke="midnightblue" points="680.09,-248.44 670.59,-243.75 675.1,-253.34 680.09,-248.44"/>
</g>
<!-- Node17 -->
<g id="node17" class="node">
<title>Node17</title>
<g id="a_node17"><a xlink:title=" ">
<polygon fill="white" stroke="#bfbfbf" points="710,-224.5 710,-243.5 826,-243.5 826,-224.5 710,-224.5"/>
<text text-anchor="middle" x="768" y="-231.5" font-family="Consolas" font-size="10.00">libccc/text/ascii.h</text>
</a>
</g>
</g>
<!-- Node1&#45;&gt;Node17 -->
<g id="edge25" class="edge">
<title>Node1&#45;&gt;Node17</title>
<path fill="none" stroke="midnightblue" d="M723.75,-280.08C731.47,-272.22 742.9,-260.57 752.22,-251.08"/>
<polygon fill="midnightblue" stroke="midnightblue" points="754.9,-253.34 759.41,-243.75 749.91,-248.44 754.9,-253.34"/>
</g>
<!-- Node18 -->
<g id="node18" class="node">
<title>Node18</title>
<g id="a_node18"><a xlink:title=" ">
<polygon fill="white" stroke="#bfbfbf" points="844.5,-224.5 844.5,-243.5 971.5,-243.5 971.5,-224.5 844.5,-224.5"/>
<text text-anchor="middle" x="908" y="-231.5" font-family="Consolas" font-size="10.00">libccc/text/unicode.h</text>
</a>
</g>
</g>
<!-- Node1&#45;&gt;Node18 -->
<g id="edge26" class="edge">
<title>Node1&#45;&gt;Node18</title>
<path fill="none" stroke="midnightblue" d="M745.58,-280.44C778.61,-271.2 831.39,-256.44 867.77,-246.26"/>
<polygon fill="midnightblue" stroke="midnightblue" points="868.87,-249.58 877.56,-243.52 866.99,-242.84 868.87,-249.58"/>
</g>
<!-- Node4 -->
<g id="node4" class="node">
<title>Node4</title>
<g id="a_node4"><a xlink:href="libccc__define_8h.html" target="_top" xlink:title=" ">
<polygon fill="white" stroke="black" points="766.5,-56.5 766.5,-75.5 861.5,-75.5 861.5,-56.5 766.5,-56.5"/>
<text text-anchor="middle" x="814" y="-63.5" font-family="Consolas" font-size="10.00">libccc_define.h</text>
</a>
</g>
</g>
<!-- Node3&#45;&gt;Node4 -->
<g id="edge3" class="edge">
<title>Node3&#45;&gt;Node4</title>
<path fill="none" stroke="midnightblue" d="M665.27,-224.36C674.75,-199.64 702.7,-129.29 720,-112 734.97,-97.04 755.89,-86.35 774.19,-79.16"/>
<polygon fill="midnightblue" stroke="midnightblue" points="775.59,-82.37 783.75,-75.62 773.16,-75.81 775.59,-82.37"/>
</g>
<!-- Node6 -->
<g id="node6" class="node">
<title>Node6</title>
<g id="a_node6"><a xlink:href="libccc__errors_8h.html" target="_top" xlink:title=" ">
<polygon fill="white" stroke="black" points="728.5,-112.5 728.5,-131.5 823.5,-131.5 823.5,-112.5 728.5,-112.5"/>
<text text-anchor="middle" x="776" y="-119.5" font-family="Consolas" font-size="10.00">libccc_errors.h</text>
</a>
</g>
</g>
<!-- Node3&#45;&gt;Node6 -->
<g id="edge5" class="edge">
<title>Node3&#45;&gt;Node6</title>
<path fill="none" stroke="midnightblue" d="M672.62,-224.32C683.31,-215.46 700.17,-201.18 714,-188 730.83,-171.97 749.08,-152.57 761.39,-139.16"/>
<polygon fill="midnightblue" stroke="midnightblue" points="764.07,-141.41 768.23,-131.67 758.9,-136.7 764.07,-141.41"/>
</g>
<!-- Node7 -->
<g id="node7" class="node">
<title>Node7</title>
<g id="a_node7"><a xlink:href="libccc__config_8h.html" target="_top" xlink:title=" ">
<polygon fill="white" stroke="black" points="766.5,-168.5 766.5,-187.5 861.5,-187.5 861.5,-168.5 766.5,-168.5"/>
<text text-anchor="middle" x="814" y="-175.5" font-family="Consolas" font-size="10.00">libccc_config.h</text>
</a>
</g>
</g>
<!-- Node3&#45;&gt;Node7 -->
<g id="edge7" class="edge">
<title>Node3&#45;&gt;Node7</title>
<path fill="none" stroke="midnightblue" d="M686.08,-224.44C711.54,-215.4 751.89,-201.06 780.46,-190.92"/>
<polygon fill="midnightblue" stroke="midnightblue" points="781.78,-194.16 790.03,-187.52 779.43,-187.57 781.78,-194.16"/>
</g>
<!-- Node8 -->
<g id="node8" class="node">
<title>Node8</title>
<g id="a_node8"><a xlink:href="libccc__naming_8h.html" target="_top" xlink:title=" ">
<polygon fill="white" stroke="black" points="879.5,-168.5 879.5,-187.5 974.5,-187.5 974.5,-168.5 879.5,-168.5"/>
<text text-anchor="middle" x="927" y="-175.5" font-family="Consolas" font-size="10.00">libccc_naming.h</text>
</a>
</g>
</g>
<!-- Node3&#45;&gt;Node8 -->
<g id="edge10" class="edge">
<title>Node3&#45;&gt;Node8</title>
<path fill="none" stroke="midnightblue" d="M691.79,-226.03C694.9,-225.33 698.01,-224.64 701,-224 759.18,-211.5 826.05,-198.33 871.87,-189.49"/>
<polygon fill="midnightblue" stroke="midnightblue" points="872.74,-192.89 881.89,-187.56 871.41,-186.02 872.74,-192.89"/>
</g>
<!-- Node9 -->
<g id="node9" class="node">
<title>Node9</title>
<g id="a_node9"><a xlink:href="math_8h.html" target="_top" xlink:title=" ">
<polygon fill="white" stroke="black" points="396,-168.5 396,-187.5 444,-187.5 444,-168.5 396,-168.5"/>
<text text-anchor="middle" x="420" y="-175.5" font-family="Consolas" font-size="10.00">math.h</text>
</a>
</g>
</g>
<!-- Node3&#45;&gt;Node9 -->
<g id="edge12" class="edge">
<title>Node3&#45;&gt;Node9</title>
<path fill="none" stroke="midnightblue" d="M632.33,-226.38C587.17,-216.3 501.46,-197.18 453.91,-186.57"/>
<polygon fill="midnightblue" stroke="midnightblue" points="454.61,-183.14 444.09,-184.38 453.09,-189.97 454.61,-183.14"/>
</g>
<!-- Node5 -->
<g id="node5" class="node">
<title>Node5</title>
<g id="a_node5"><a xlink:title=" ">
<polygon fill="white" stroke="#bfbfbf" points="779.5,-0.5 779.5,-19.5 848.5,-19.5 848.5,-0.5 779.5,-0.5"/>
<text text-anchor="middle" x="814" y="-7.5" font-family="Consolas" font-size="10.00">stdalign.h</text>
</a>
</g>
</g>
<!-- Node4&#45;&gt;Node5 -->
<g id="edge4" class="edge">
<title>Node4&#45;&gt;Node5</title>
<path fill="none" stroke="midnightblue" d="M814,-56.08C814,-49.01 814,-38.86 814,-29.99"/>
<polygon fill="midnightblue" stroke="midnightblue" points="817.5,-29.75 814,-19.75 810.5,-29.75 817.5,-29.75"/>
</g>
<!-- Node6&#45;&gt;Node4 -->
<g id="edge6" class="edge">
<title>Node6&#45;&gt;Node4</title>
<path fill="none" stroke="midnightblue" d="M782.27,-112.08C787.64,-104.46 795.52,-93.26 802.08,-83.94"/>
<polygon fill="midnightblue" stroke="midnightblue" points="804.95,-85.94 807.84,-75.75 799.22,-81.91 804.95,-85.94"/>
</g>
<!-- Node7&#45;&gt;Node4 -->
<g id="edge8" class="edge">
<title>Node7&#45;&gt;Node4</title>
<path fill="none" stroke="midnightblue" d="M819.37,-168.29C826.34,-155.92 837.15,-132.51 833,-112 831.11,-102.65 827.21,-92.83 823.43,-84.75"/>
<polygon fill="midnightblue" stroke="midnightblue" points="826.47,-83.01 818.88,-75.63 820.21,-86.14 826.47,-83.01"/>
</g>
<!-- Node7&#45;&gt;Node6 -->
<g id="edge9" class="edge">
<title>Node7&#45;&gt;Node6</title>
<path fill="none" stroke="midnightblue" d="M807.73,-168.08C802.36,-160.46 794.48,-149.26 787.92,-139.94"/>
<polygon fill="midnightblue" stroke="midnightblue" points="790.78,-137.91 782.16,-131.75 785.05,-141.94 790.78,-137.91"/>
</g>
<!-- Node8&#45;&gt;Node4 -->
<g id="edge11" class="edge">
<title>Node8&#45;&gt;Node4</title>
<path fill="none" stroke="midnightblue" d="M918.13,-168.37C899.15,-149.89 854.36,-106.29 830.17,-82.74"/>
<polygon fill="midnightblue" stroke="midnightblue" points="832.43,-80.06 822.83,-75.59 827.55,-85.07 832.43,-80.06"/>
</g>
<!-- Node10 -->
<g id="node10" class="node">
<title>Node10</title>
<g id="a_node10"><a xlink:href="constants_8h.html" target="_top" xlink:title=" ">
<polygon fill="white" stroke="black" points="496.5,-112.5 496.5,-131.5 633.5,-131.5 633.5,-112.5 496.5,-112.5"/>
<text text-anchor="middle" x="565" y="-119.5" font-family="Consolas" font-size="10.00">libccc/math/constants.h</text>
</a>
</g>
</g>
<!-- Node9&#45;&gt;Node10 -->
<g id="edge13" class="edge">
<title>Node9&#45;&gt;Node10</title>
<path fill="none" stroke="midnightblue" d="M442.98,-168.44C467.16,-159.44 505.42,-145.19 532.65,-135.05"/>
<polygon fill="midnightblue" stroke="midnightblue" points="533.98,-138.29 542.13,-131.52 531.54,-131.73 533.98,-138.29"/>
</g>
<!-- Node12 -->
<g id="node12" class="node">
<title>Node12</title>
<g id="a_node12"><a xlink:href="math_2int_8h.html" target="_top" xlink:title=" ">
<polygon fill="white" stroke="black" points="104,-112.5 104,-131.5 210,-131.5 210,-112.5 104,-112.5"/>
<text text-anchor="middle" x="157" y="-119.5" font-family="Consolas" font-size="10.00">libccc/math/int.h</text>
</a>
</g>
</g>
<!-- Node9&#45;&gt;Node12 -->
<g id="edge16" class="edge">
<title>Node9&#45;&gt;Node12</title>
<path fill="none" stroke="midnightblue" d="M395.73,-172.02C353.38,-163.32 265.13,-145.2 208.6,-133.6"/>
<polygon fill="midnightblue" stroke="midnightblue" points="209.28,-130.16 198.78,-131.58 207.87,-137.02 209.28,-130.16"/>
</g>
<!-- Node14 -->
<g id="node14" class="node">
<title>Node14</title>
<g id="a_node14"><a xlink:href="math_2fixed_8h.html" target="_top" xlink:title=" ">
<polygon fill="white" stroke="black" points="228,-112.5 228,-131.5 344,-131.5 344,-112.5 228,-112.5"/>
<text text-anchor="middle" x="286" y="-119.5" font-family="Consolas" font-size="10.00">libccc/math/fixed.h</text>
</a>
</g>
</g>
<!-- Node9&#45;&gt;Node14 -->
<g id="edge20" class="edge">
<title>Node9&#45;&gt;Node14</title>
<path fill="none" stroke="midnightblue" d="M398.77,-168.44C376.62,-159.52 341.68,-145.44 316.56,-135.32"/>
<polygon fill="midnightblue" stroke="midnightblue" points="317.72,-132.01 307.13,-131.52 315.1,-138.5 317.72,-132.01"/>
</g>
<!-- Node16 -->
<g id="node16" class="node">
<title>Node16</title>
<g id="a_node16"><a xlink:href="math_2float_8h.html" target="_top" xlink:title=" ">
<polygon fill="white" stroke="black" points="362,-112.5 362,-131.5 478,-131.5 478,-112.5 362,-112.5"/>
<text text-anchor="middle" x="420" y="-119.5" font-family="Consolas" font-size="10.00">libccc/math/float.h</text>
</a>
</g>
</g>
<!-- Node9&#45;&gt;Node16 -->
<g id="edge23" class="edge">
<title>Node9&#45;&gt;Node16</title>
<path fill="none" stroke="midnightblue" d="M420,-168.08C420,-161.01 420,-150.86 420,-141.99"/>
<polygon fill="midnightblue" stroke="midnightblue" points="423.5,-141.75 420,-131.75 416.5,-141.75 423.5,-141.75"/>
</g>
<!-- Node11 -->
<g id="node11" class="node">
<title>Node11</title>
<g id="a_node11"><a xlink:href="float_8h.html" target="_top" xlink:title=" ">
<polygon fill="white" stroke="black" points="520,-56.5 520,-75.5 610,-75.5 610,-56.5 520,-56.5"/>
<text text-anchor="middle" x="565" y="-63.5" font-family="Consolas" font-size="10.00">libccc/float.h</text>
</a>
</g>
</g>
<!-- Node10&#45;&gt;Node11 -->
<g id="edge14" class="edge">
<title>Node10&#45;&gt;Node11</title>
<path fill="none" stroke="midnightblue" d="M565,-112.08C565,-105.01 565,-94.86 565,-85.99"/>
<polygon fill="midnightblue" stroke="midnightblue" points="568.5,-85.75 565,-75.75 561.5,-85.75 568.5,-85.75"/>
</g>
<!-- Node11&#45;&gt;Node3 -->
<g id="edge15" class="edge">
<title>Node11&#45;&gt;Node3</title>
<path fill="none" stroke="midnightblue" d="M591.66,-75.53C609.08,-82.53 630.79,-94.21 643,-112 664.29,-143.01 665.23,-188.95 663.78,-214.37"/>
<polygon fill="midnightblue" stroke="midnightblue" points="660.28,-214.24 663.01,-224.48 667.26,-214.77 660.28,-214.24"/>
</g>
<!-- Node13 -->
<g id="node13" class="node">
<title>Node13</title>
<g id="a_node13"><a xlink:href="int_8h.html" target="_top" xlink:title=" ">
<polygon fill="white" stroke="black" points="28,-56.5 28,-75.5 108,-75.5 108,-56.5 28,-56.5"/>
<text text-anchor="middle" x="68" y="-63.5" font-family="Consolas" font-size="10.00">libccc/int.h</text>
</a>
</g>
</g>
<!-- Node12&#45;&gt;Node13 -->
<g id="edge17" class="edge">
<title>Node12&#45;&gt;Node13</title>
<path fill="none" stroke="midnightblue" d="M142.7,-112.32C128.82,-103.9 107.51,-90.97 91.2,-81.07"/>
<polygon fill="midnightblue" stroke="midnightblue" points="92.63,-77.85 82.26,-75.65 89,-83.83 92.63,-77.85"/>
</g>
<!-- Node13&#45;&gt;Node2 -->
<g id="edge18" class="edge">
<title>Node13&#45;&gt;Node2</title>
<path fill="none" stroke="midnightblue" d="M62.39,-56.08C57.63,-48.53 50.68,-37.49 44.85,-28.23"/>
<polygon fill="midnightblue" stroke="midnightblue" points="47.8,-26.35 39.51,-19.75 41.88,-30.08 47.8,-26.35"/>
</g>
<!-- Node13&#45;&gt;Node3 -->
<g id="edge19" class="edge">
<title>Node13&#45;&gt;Node3</title>
<path fill="none" stroke="midnightblue" d="M68.64,-75.63C69.95,-88.71 73.83,-113.95 85,-132 104.88,-164.15 114.23,-173.17 149,-188 234.07,-224.29 516.71,-231.31 622.01,-232.67"/>
<polygon fill="midnightblue" stroke="midnightblue" points="622.17,-236.18 632.21,-232.79 622.25,-229.18 622.17,-236.18"/>
</g>
<!-- Node15 -->
<g id="node15" class="node">
<title>Node15</title>
<g id="a_node15"><a xlink:href="fixed_8h.html" target="_top" xlink:title=" ">
<polygon fill="white" stroke="black" points="184,-56.5 184,-75.5 274,-75.5 274,-56.5 184,-56.5"/>
<text text-anchor="middle" x="229" y="-63.5" font-family="Consolas" font-size="10.00">libccc/fixed.h</text>
</a>
</g>
</g>
<!-- Node14&#45;&gt;Node15 -->
<g id="edge21" class="edge">
<title>Node14&#45;&gt;Node15</title>
<path fill="none" stroke="midnightblue" d="M276.84,-112.32C268.5,-104.42 255.97,-92.55 245.82,-82.94"/>
<polygon fill="midnightblue" stroke="midnightblue" points="247.99,-80.17 238.32,-75.83 243.18,-85.25 247.99,-80.17"/>
</g>
<!-- Node15&#45;&gt;Node3 -->
<g id="edge22" class="edge">
<title>Node15&#45;&gt;Node3</title>
<path fill="none" stroke="midnightblue" d="M183.88,-72.68C134.88,-80.67 67.08,-98.22 95,-132 162.32,-213.45 505.01,-229.25 622.45,-232.29"/>
<polygon fill="midnightblue" stroke="midnightblue" points="622.37,-235.79 632.45,-232.53 622.54,-228.79 622.37,-235.79"/>
</g>
<!-- Node16&#45;&gt;Node11 -->
<g id="edge24" class="edge">
<title>Node16&#45;&gt;Node11</title>
<path fill="none" stroke="midnightblue" d="M442.98,-112.44C467.16,-103.44 505.42,-89.19 532.65,-79.05"/>
<polygon fill="midnightblue" stroke="midnightblue" points="533.98,-82.29 542.13,-75.52 531.54,-75.73 533.98,-82.29"/>
</g>
</g>
</svg>
