<?xml version="1.0" encoding="UTF-8" standalone="no"?>
<!DOCTYPE svg PUBLIC "-//W3C//DTD SVG 1.1//EN"
 "http://www.w3.org/Graphics/SVG/1.1/DTD/svg11.dtd">
<!-- Generated by graphviz version 2.43.0 (0)
 -->
<!-- Title: libccc/char.h Pages: 1 -->
<svg width="307pt" height="364pt"
 viewBox="0.00 0.00 307.00 364.00" xmlns="http://www.w3.org/2000/svg" xmlns:xlink="http://www.w3.org/1999/xlink">
<g id="graph0" class="graph" transform="scale(1 1) rotate(0) translate(4 360)">
<title>libccc/char.h</title>
<polygon fill="white" stroke="transparent" points="-4,4 -4,-360 303,-360 303,4 -4,4"/>
<!-- Node1 -->
<g id="node1" class="node">
<title>Node1</title>
<g id="a_node1"><a xlink:title=" ">
<polygon fill="#bfbfbf" stroke="black" points="45,-336.5 45,-355.5 130,-355.5 130,-336.5 45,-336.5"/>
<text text-anchor="middle" x="87.5" y="-343.5" font-family="Consolas" font-size="10.00">libccc/char.h</text>
</a>
</g>
</g>
<!-- Node2 -->
<g id="node2" class="node">
<title>Node2</title>
<g id="a_node2"><a xlink:title=" ">
<polygon fill="white" stroke="#bfbfbf" points="0,-280.5 0,-299.5 59,-299.5 59,-280.5 0,-280.5"/>
<text text-anchor="middle" x="29.5" y="-287.5" font-family="Consolas" font-size="10.00">stdint.h</text>
</a>
</g>
</g>
<!-- Node1&#45;&gt;Node2 -->
<g id="edge1" class="edge">
<title>Node1&#45;&gt;Node2</title>
<path fill="none" stroke="midnightblue" d="M78.18,-336.32C69.61,-328.34 56.69,-316.31 46.31,-306.65"/>
<polygon fill="midnightblue" stroke="midnightblue" points="48.69,-304.09 38.99,-299.83 43.92,-309.21 48.69,-304.09"/>
</g>
<!-- Node3 -->
<g id="node3" class="node">
<title>Node3</title>
<g id="a_node3"><a xlink:href="libccc_8h.html" target="_top" xlink:title=" ">
<polygon fill="white" stroke="black" points="108,-224.5 108,-243.5 167,-243.5 167,-224.5 108,-224.5"/>
<text text-anchor="middle" x="137.5" y="-231.5" font-family="Consolas" font-size="10.00">libccc.h</text>
</a>
</g>
</g>
<!-- Node1&#45;&gt;Node3 -->
<g id="edge2" class="edge">
<title>Node1&#45;&gt;Node3</title>
<path fill="none" stroke="midnightblue" d="M89.13,-336.27C91.71,-323.48 97.41,-299.11 106.5,-280 111.23,-270.06 118.04,-259.88 124.07,-251.73"/>
<polygon fill="midnightblue" stroke="midnightblue" points="126.86,-253.85 130.18,-243.78 121.31,-249.58 126.86,-253.85"/>
</g>
<!-- Node9 -->
<g id="node9" class="node">
<title>Node9</title>
<g id="a_node9"><a xlink:href="char__ascii_8h.html" target="_top" xlink:title=" ">
<polygon fill="white" stroke="black" points="116,-280.5 116,-299.5 259,-299.5 259,-280.5 116,-280.5"/>
<text text-anchor="middle" x="187.5" y="-287.5" font-family="Consolas" font-size="10.00">libccc/text/char_ascii.h</text>
</a>
</g>
</g>
<!-- Node1&#45;&gt;Node9 -->
<g id="edge12" class="edge">
<title>Node1&#45;&gt;Node9</title>
<path fill="none" stroke="midnightblue" d="M103.57,-336.32C119.46,-327.74 144.01,-314.49 162.46,-304.52"/>
<polygon fill="midnightblue" stroke="midnightblue" points="164.34,-307.49 171.47,-299.65 161.01,-301.33 164.34,-307.49"/>
</g>
<!-- Node4 -->
<g id="node4" class="node">
<title>Node4</title>
<g id="a_node4"><a xlink:href="libccc__define_8h.html" target="_top" xlink:title=" ">
<polygon fill="white" stroke="black" points="90,-56.5 90,-75.5 185,-75.5 185,-56.5 90,-56.5"/>
<text text-anchor="middle" x="137.5" y="-63.5" font-family="Consolas" font-size="10.00">libccc_define.h</text>
</a>
</g>
</g>
<!-- Node3&#45;&gt;Node4 -->
<g id="edge3" class="edge">
<title>Node3&#45;&gt;Node4</title>
<path fill="none" stroke="midnightblue" d="M121.5,-224.5C87.62,-205.36 14.01,-157.02 42.5,-112 52.55,-96.13 69.87,-85.74 87,-79"/>
<polygon fill="midnightblue" stroke="midnightblue" points="88.21,-82.28 96.45,-75.62 85.85,-75.69 88.21,-82.28"/>
</g>
<!-- Node6 -->
<g id="node6" class="node">
<title>Node6</title>
<g id="a_node6"><a xlink:href="libccc__errors_8h.html" target="_top" xlink:title=" ">
<polygon fill="white" stroke="black" points="52,-112.5 52,-131.5 147,-131.5 147,-112.5 52,-112.5"/>
<text text-anchor="middle" x="99.5" y="-119.5" font-family="Consolas" font-size="10.00">libccc_errors.h</text>
</a>
</g>
</g>
<!-- Node3&#45;&gt;Node6 -->
<g id="edge5" class="edge">
<title>Node3&#45;&gt;Node6</title>
<path fill="none" stroke="midnightblue" d="M133.56,-224.49C129.49,-215.53 123.11,-200.94 118.5,-188 112.96,-172.42 107.77,-154.35 104.22,-141.22"/>
<polygon fill="midnightblue" stroke="midnightblue" points="107.6,-140.29 101.65,-131.51 100.83,-142.08 107.6,-140.29"/>
</g>
<!-- Node7 -->
<g id="node7" class="node">
<title>Node7</title>
<g id="a_node7"><a xlink:href="libccc__config_8h.html" target="_top" xlink:title=" ">
<polygon fill="white" stroke="black" points="128,-168.5 128,-187.5 223,-187.5 223,-168.5 128,-168.5"/>
<text text-anchor="middle" x="175.5" y="-175.5" font-family="Consolas" font-size="10.00">libccc_config.h</text>
</a>
</g>
</g>
<!-- Node3&#45;&gt;Node7 -->
<g id="edge7" class="edge">
<title>Node3&#45;&gt;Node7</title>
<path fill="none" stroke="midnightblue" d="M143.77,-224.08C149.14,-216.46 157.02,-205.26 163.58,-195.94"/>
<polygon fill="midnightblue" stroke="midnightblue" points="166.45,-197.94 169.34,-187.75 160.72,-193.91 166.45,-197.94"/>
</g>
<!-- Node8 -->
<g id="node8" class="node">
<title>Node8</title>
<g id="a_node8"><a xlink:href="libccc__naming_8h.html" target="_top" xlink:title=" ">
<polygon fill="white" stroke="black" points="204,-112.5 204,-131.5 299,-131.5 299,-112.5 204,-112.5"/>
<text text-anchor="middle" x="251.5" y="-119.5" font-family="Consolas" font-size="10.00">libccc_naming.h</text>
</a>
</g>
</g>
<!-- Node3&#45;&gt;Node8 -->
<g id="edge10" class="edge">
<title>Node3&#45;&gt;Node8</title>
<path fill="none" stroke="midnightblue" d="M167.28,-225.61C188.02,-219.01 214.84,-207.32 231.5,-188 242.69,-175.02 247.62,-155.85 249.79,-141.69"/>
<polygon fill="midnightblue" stroke="midnightblue" points="253.28,-141.98 251.01,-131.63 246.34,-141.14 253.28,-141.98"/>
</g>
<!-- Node5 -->
<g id="node5" class="node">
<title>Node5</title>
<g id="a_node5"><a xlink:title=" ">
<polygon fill="white" stroke="#bfbfbf" points="103,-0.5 103,-19.5 172,-19.5 172,-0.5 103,-0.5"/>
<text text-anchor="middle" x="137.5" y="-7.5" font-family="Consolas" font-size="10.00">stdalign.h</text>
</a>
</g>
</g>
<!-- Node4&#45;&gt;Node5 -->
<g id="edge4" class="edge">
<title>Node4&#45;&gt;Node5</title>
<path fill="none" stroke="midnightblue" d="M137.5,-56.08C137.5,-49.01 137.5,-38.86 137.5,-29.99"/>
<polygon fill="midnightblue" stroke="midnightblue" points="141,-29.75 137.5,-19.75 134,-29.75 141,-29.75"/>
</g>
<!-- Node6&#45;&gt;Node4 -->
<g id="edge6" class="edge">
<title>Node6&#45;&gt;Node4</title>
<path fill="none" stroke="midnightblue" d="M105.77,-112.08C111.14,-104.46 119.02,-93.26 125.58,-83.94"/>
<polygon fill="midnightblue" stroke="midnightblue" points="128.45,-85.94 131.34,-75.75 122.72,-81.91 128.45,-85.94"/>
</g>
<!-- Node7&#45;&gt;Node4 -->
<g id="edge8" class="edge">
<title>Node7&#45;&gt;Node4</title>
<path fill="none" stroke="midnightblue" d="M173.01,-168.09C169.43,-155.5 162.5,-131.82 155.5,-112 152.31,-102.96 148.39,-93.06 145.03,-84.85"/>
<polygon fill="midnightblue" stroke="midnightblue" points="148.23,-83.44 141.16,-75.55 141.77,-86.12 148.23,-83.44"/>
</g>
<!-- Node7&#45;&gt;Node6 -->
<g id="edge9" class="edge">
<title>Node7&#45;&gt;Node6</title>
<path fill="none" stroke="midnightblue" d="M163.29,-168.32C151.72,-160.11 134.12,-147.6 120.34,-137.81"/>
<polygon fill="midnightblue" stroke="midnightblue" points="122.11,-134.77 111.93,-131.83 118.06,-140.48 122.11,-134.77"/>
</g>
<!-- Node8&#45;&gt;Node4 -->
<g id="edge11" class="edge">
<title>Node8&#45;&gt;Node4</title>
<path fill="none" stroke="midnightblue" d="M233.44,-112.44C214.93,-103.68 185.92,-89.94 164.64,-79.86"/>
<polygon fill="midnightblue" stroke="midnightblue" points="166.01,-76.63 155.48,-75.52 163.02,-82.96 166.01,-76.63"/>
</g>
<!-- Node9&#45;&gt;Node3 -->
<g id="edge13" class="edge">
<title>Node9&#45;&gt;Node3</title>
<path fill="none" stroke="midnightblue" d="M179.24,-280.08C172.04,-272.3 161.39,-260.8 152.65,-251.37"/>
<polygon fill="midnightblue" stroke="midnightblue" points="154.97,-248.71 145.6,-243.75 149.83,-253.47 154.97,-248.71"/>
</g>
</g>
</svg>
