<?xml version="1.0" encoding="UTF-8" standalone="no"?>
<!DOCTYPE svg PUBLIC "-//W3C//DTD SVG 1.1//EN"
 "http://www.w3.org/Graphics/SVG/1.1/DTD/svg11.dtd">
<!-- Generated by graphviz version 2.43.0 (0)
 -->
<!-- Title: libccc/image/color.h Pages: 1 -->
<svg width="271pt" height="308pt"
 viewBox="0.00 0.00 271.32 308.00" xmlns="http://www.w3.org/2000/svg" xmlns:xlink="http://www.w3.org/1999/xlink">
<g id="graph0" class="graph" transform="scale(1 1) rotate(0) translate(4 304)">
<title>libccc/image/color.h</title>
<polygon fill="white" stroke="transparent" points="-4,4 -4,-304 267.32,-304 267.32,4 -4,4"/>
<!-- Node1 -->
<g id="node1" class="node">
<title>Node1</title>
<g id="a_node1"><a xlink:title=" ">
<polygon fill="#bfbfbf" stroke="black" points="40.82,-280.5 40.82,-299.5 162.82,-299.5 162.82,-280.5 40.82,-280.5"/>
<text text-anchor="middle" x="101.82" y="-287.5" font-family="Consolas" font-size="10.00">libccc/image/color.h</text>
</a>
</g>
</g>
<!-- Node2 -->
<g id="node2" class="node">
<title>Node2</title>
<g id="a_node2"><a xlink:href="libccc_8h.html" target="_top" xlink:title=" ">
<polygon fill="white" stroke="black" points="72.32,-224.5 72.32,-243.5 131.32,-243.5 131.32,-224.5 72.32,-224.5"/>
<text text-anchor="middle" x="101.82" y="-231.5" font-family="Consolas" font-size="10.00">libccc.h</text>
</a>
</g>
</g>
<!-- Node1&#45;&gt;Node2 -->
<g id="edge1" class="edge">
<title>Node1&#45;&gt;Node2</title>
<path fill="none" stroke="midnightblue" d="M101.82,-280.08C101.82,-273.01 101.82,-262.86 101.82,-253.99"/>
<polygon fill="midnightblue" stroke="midnightblue" points="105.32,-253.75 101.82,-243.75 98.32,-253.75 105.32,-253.75"/>
</g>
<!-- Node3 -->
<g id="node3" class="node">
<title>Node3</title>
<g id="a_node3"><a xlink:href="libccc__define_8h.html" target="_top" xlink:title=" ">
<polygon fill="white" stroke="black" points="54.32,-56.5 54.32,-75.5 149.32,-75.5 149.32,-56.5 54.32,-56.5"/>
<text text-anchor="middle" x="101.82" y="-63.5" font-family="Consolas" font-size="10.00">libccc_define.h</text>
</a>
</g>
</g>
<!-- Node2&#45;&gt;Node3 -->
<g id="edge2" class="edge">
<title>Node2&#45;&gt;Node3</title>
<path fill="none" stroke="midnightblue" d="M85.82,-224.5C51.94,-205.36 -21.67,-157.02 6.82,-112 16.87,-96.13 34.2,-85.74 51.32,-79"/>
<polygon fill="midnightblue" stroke="midnightblue" points="52.54,-82.28 60.77,-75.62 50.18,-75.69 52.54,-82.28"/>
</g>
<!-- Node5 -->
<g id="node5" class="node">
<title>Node5</title>
<g id="a_node5"><a xlink:href="libccc__errors_8h.html" target="_top" xlink:title=" ">
<polygon fill="white" stroke="black" points="16.32,-112.5 16.32,-131.5 111.32,-131.5 111.32,-112.5 16.32,-112.5"/>
<text text-anchor="middle" x="63.82" y="-119.5" font-family="Consolas" font-size="10.00">libccc_errors.h</text>
</a>
</g>
</g>
<!-- Node2&#45;&gt;Node5 -->
<g id="edge4" class="edge">
<title>Node2&#45;&gt;Node5</title>
<path fill="none" stroke="midnightblue" d="M98.16,-224.45C94.37,-215.46 88.36,-200.85 83.82,-188 78.36,-172.52 72.93,-154.68 69.11,-141.61"/>
<polygon fill="midnightblue" stroke="midnightblue" points="72.44,-140.55 66.31,-131.91 65.72,-142.48 72.44,-140.55"/>
</g>
<!-- Node6 -->
<g id="node6" class="node">
<title>Node6</title>
<g id="a_node6"><a xlink:href="libccc__config_8h.html" target="_top" xlink:title=" ">
<polygon fill="white" stroke="black" points="92.32,-168.5 92.32,-187.5 187.32,-187.5 187.32,-168.5 92.32,-168.5"/>
<text text-anchor="middle" x="139.82" y="-175.5" font-family="Consolas" font-size="10.00">libccc_config.h</text>
</a>
</g>
</g>
<!-- Node2&#45;&gt;Node6 -->
<g id="edge6" class="edge">
<title>Node2&#45;&gt;Node6</title>
<path fill="none" stroke="midnightblue" d="M108.1,-224.08C113.47,-216.46 121.34,-205.26 127.9,-195.94"/>
<polygon fill="midnightblue" stroke="midnightblue" points="130.77,-197.94 133.67,-187.75 125.05,-193.91 130.77,-197.94"/>
</g>
<!-- Node7 -->
<g id="node7" class="node">
<title>Node7</title>
<g id="a_node7"><a xlink:href="libccc__naming_8h.html" target="_top" xlink:title=" ">
<polygon fill="white" stroke="black" points="168.32,-112.5 168.32,-131.5 263.32,-131.5 263.32,-112.5 168.32,-112.5"/>
<text text-anchor="middle" x="215.82" y="-119.5" font-family="Consolas" font-size="10.00">libccc_naming.h</text>
</a>
</g>
</g>
<!-- Node2&#45;&gt;Node7 -->
<g id="edge9" class="edge">
<title>Node2&#45;&gt;Node7</title>
<path fill="none" stroke="midnightblue" d="M131.55,-225.9C152.61,-219.4 180,-207.71 196.82,-188 207.9,-175.02 212.53,-155.85 214.45,-141.69"/>
<polygon fill="midnightblue" stroke="midnightblue" points="217.95,-141.93 215.49,-131.63 210.98,-141.22 217.95,-141.93"/>
</g>
<!-- Node4 -->
<g id="node4" class="node">
<title>Node4</title>
<g id="a_node4"><a xlink:title=" ">
<polygon fill="white" stroke="#bfbfbf" points="67.32,-0.5 67.32,-19.5 136.32,-19.5 136.32,-0.5 67.32,-0.5"/>
<text text-anchor="middle" x="101.82" y="-7.5" font-family="Consolas" font-size="10.00">stdalign.h</text>
</a>
</g>
</g>
<!-- Node3&#45;&gt;Node4 -->
<g id="edge3" class="edge">
<title>Node3&#45;&gt;Node4</title>
<path fill="none" stroke="midnightblue" d="M101.82,-56.08C101.82,-49.01 101.82,-38.86 101.82,-29.99"/>
<polygon fill="midnightblue" stroke="midnightblue" points="105.32,-29.75 101.82,-19.75 98.32,-29.75 105.32,-29.75"/>
</g>
<!-- Node5&#45;&gt;Node3 -->
<g id="edge5" class="edge">
<title>Node5&#45;&gt;Node3</title>
<path fill="none" stroke="midnightblue" d="M70.1,-112.08C75.47,-104.46 83.34,-93.26 89.9,-83.94"/>
<polygon fill="midnightblue" stroke="midnightblue" points="92.77,-85.94 95.67,-75.75 87.05,-81.91 92.77,-85.94"/>
</g>
<!-- Node6&#45;&gt;Node3 -->
<g id="edge7" class="edge">
<title>Node6&#45;&gt;Node3</title>
<path fill="none" stroke="midnightblue" d="M137.67,-168.49C134.43,-155.97 127.92,-131.94 120.82,-112 117.58,-102.9 113.47,-92.99 109.89,-84.79"/>
<polygon fill="midnightblue" stroke="midnightblue" points="113.03,-83.22 105.76,-75.51 106.63,-86.07 113.03,-83.22"/>
</g>
<!-- Node6&#45;&gt;Node5 -->
<g id="edge8" class="edge">
<title>Node6&#45;&gt;Node5</title>
<path fill="none" stroke="midnightblue" d="M127.61,-168.32C116.05,-160.11 98.45,-147.6 84.66,-137.81"/>
<polygon fill="midnightblue" stroke="midnightblue" points="86.44,-134.77 76.26,-131.83 82.38,-140.48 86.44,-134.77"/>
</g>
<!-- Node7&#45;&gt;Node3 -->
<g id="edge10" class="edge">
<title>Node7&#45;&gt;Node3</title>
<path fill="none" stroke="midnightblue" d="M197.76,-112.44C179.25,-103.68 150.24,-89.94 128.97,-79.86"/>
<polygon fill="midnightblue" stroke="midnightblue" points="130.34,-76.63 119.8,-75.52 127.34,-82.96 130.34,-76.63"/>
</g>
</g>
</svg>
