<?xml version="1.0" encoding="UTF-8" standalone="no"?>
<!DOCTYPE svg PUBLIC "-//W3C//DTD SVG 1.1//EN"
 "http://www.w3.org/Graphics/SVG/1.1/DTD/svg11.dtd">
<!-- Generated by graphviz version 2.43.0 (0)
 -->
<!-- Title: libccc/math/complex.h Pages: 1 -->
<svg width="318pt" height="364pt"
 viewBox="0.00 0.00 318.00 364.00" xmlns="http://www.w3.org/2000/svg" xmlns:xlink="http://www.w3.org/1999/xlink">
<g id="graph0" class="graph" transform="scale(1 1) rotate(0) translate(4 360)">
<title>libccc/math/complex.h</title>
<polygon fill="white" stroke="transparent" points="-4,4 -4,-360 314,-360 314,4 -4,4"/>
<!-- Node1 -->
<g id="node1" class="node">
<title>Node1</title>
<g id="a_node1"><a xlink:title=" ">
<polygon fill="#bfbfbf" stroke="black" points="85,-336.5 85,-355.5 212,-355.5 212,-336.5 85,-336.5"/>
<text text-anchor="middle" x="148.5" y="-343.5" font-family="Consolas" font-size="10.00">libccc/math/complex.h</text>
</a>
</g>
</g>
<!-- Node2 -->
<g id="node2" class="node">
<title>Node2</title>
<g id="a_node2"><a xlink:href="bool_8h.html" target="_top" xlink:title=" ">
<polygon fill="white" stroke="black" points="0,-280.5 0,-299.5 85,-299.5 85,-280.5 0,-280.5"/>
<text text-anchor="middle" x="42.5" y="-287.5" font-family="Consolas" font-size="10.00">libccc/bool.h</text>
</a>
</g>
</g>
<!-- Node1&#45;&gt;Node2 -->
<g id="edge1" class="edge">
<title>Node1&#45;&gt;Node2</title>
<path fill="none" stroke="midnightblue" d="M131.47,-336.32C114.47,-327.66 88.12,-314.24 68.51,-304.25"/>
<polygon fill="midnightblue" stroke="midnightblue" points="69.99,-301.08 59.49,-299.65 66.81,-307.31 69.99,-301.08"/>
</g>
<!-- Node10 -->
<g id="node10" class="node">
<title>Node10</title>
<g id="a_node10"><a xlink:href="int_8h.html" target="_top" xlink:title=" ">
<polygon fill="white" stroke="black" points="211.5,-280.5 211.5,-299.5 291.5,-299.5 291.5,-280.5 211.5,-280.5"/>
<text text-anchor="middle" x="251.5" y="-287.5" font-family="Consolas" font-size="10.00">libccc/int.h</text>
</a>
</g>
</g>
<!-- Node1&#45;&gt;Node10 -->
<g id="edge13" class="edge">
<title>Node1&#45;&gt;Node10</title>
<path fill="none" stroke="midnightblue" d="M165.05,-336.32C181.49,-327.7 206.93,-314.36 225.97,-304.39"/>
<polygon fill="midnightblue" stroke="midnightblue" points="227.76,-307.4 234.99,-299.65 224.51,-301.2 227.76,-307.4"/>
</g>
<!-- Node12 -->
<g id="node12" class="node">
<title>Node12</title>
<g id="a_node12"><a xlink:href="float_8h.html" target="_top" xlink:title=" ">
<polygon fill="white" stroke="black" points="103.5,-280.5 103.5,-299.5 193.5,-299.5 193.5,-280.5 103.5,-280.5"/>
<text text-anchor="middle" x="148.5" y="-287.5" font-family="Consolas" font-size="10.00">libccc/float.h</text>
</a>
</g>
</g>
<!-- Node1&#45;&gt;Node12 -->
<g id="edge16" class="edge">
<title>Node1&#45;&gt;Node12</title>
<path fill="none" stroke="midnightblue" d="M148.5,-336.08C148.5,-329.01 148.5,-318.86 148.5,-309.99"/>
<polygon fill="midnightblue" stroke="midnightblue" points="152,-309.75 148.5,-299.75 145,-309.75 152,-309.75"/>
</g>
<!-- Node3 -->
<g id="node3" class="node">
<title>Node3</title>
<g id="a_node3"><a xlink:href="libccc_8h.html" target="_top" xlink:title=" ">
<polygon fill="white" stroke="black" points="119,-224.5 119,-243.5 178,-243.5 178,-224.5 119,-224.5"/>
<text text-anchor="middle" x="148.5" y="-231.5" font-family="Consolas" font-size="10.00">libccc.h</text>
</a>
</g>
</g>
<!-- Node2&#45;&gt;Node3 -->
<g id="edge2" class="edge">
<title>Node2&#45;&gt;Node3</title>
<path fill="none" stroke="midnightblue" d="M59.53,-280.32C76.53,-271.66 102.88,-258.24 122.49,-248.25"/>
<polygon fill="midnightblue" stroke="midnightblue" points="124.19,-251.31 131.51,-243.65 121.01,-245.08 124.19,-251.31"/>
</g>
<!-- Node9 -->
<g id="node9" class="node">
<title>Node9</title>
<g id="a_node9"><a xlink:title=" ">
<polygon fill="white" stroke="#bfbfbf" points="10.5,-224.5 10.5,-243.5 74.5,-243.5 74.5,-224.5 10.5,-224.5"/>
<text text-anchor="middle" x="42.5" y="-231.5" font-family="Consolas" font-size="10.00">stdbool.h</text>
</a>
</g>
</g>
<!-- Node2&#45;&gt;Node9 -->
<g id="edge12" class="edge">
<title>Node2&#45;&gt;Node9</title>
<path fill="none" stroke="midnightblue" d="M42.5,-280.08C42.5,-273.01 42.5,-262.86 42.5,-253.99"/>
<polygon fill="midnightblue" stroke="midnightblue" points="46,-253.75 42.5,-243.75 39,-253.75 46,-253.75"/>
</g>
<!-- Node4 -->
<g id="node4" class="node">
<title>Node4</title>
<g id="a_node4"><a xlink:href="libccc__define_8h.html" target="_top" xlink:title=" ">
<polygon fill="white" stroke="black" points="101,-56.5 101,-75.5 196,-75.5 196,-56.5 101,-56.5"/>
<text text-anchor="middle" x="148.5" y="-63.5" font-family="Consolas" font-size="10.00">libccc_define.h</text>
</a>
</g>
</g>
<!-- Node3&#45;&gt;Node4 -->
<g id="edge3" class="edge">
<title>Node3&#45;&gt;Node4</title>
<path fill="none" stroke="midnightblue" d="M132.5,-224.5C98.62,-205.36 25.01,-157.02 53.5,-112 63.55,-96.13 80.87,-85.74 98,-79"/>
<polygon fill="midnightblue" stroke="midnightblue" points="99.21,-82.28 107.45,-75.62 96.85,-75.69 99.21,-82.28"/>
</g>
<!-- Node6 -->
<g id="node6" class="node">
<title>Node6</title>
<g id="a_node6"><a xlink:href="libccc__errors_8h.html" target="_top" xlink:title=" ">
<polygon fill="white" stroke="black" points="63,-112.5 63,-131.5 158,-131.5 158,-112.5 63,-112.5"/>
<text text-anchor="middle" x="110.5" y="-119.5" font-family="Consolas" font-size="10.00">libccc_errors.h</text>
</a>
</g>
</g>
<!-- Node3&#45;&gt;Node6 -->
<g id="edge5" class="edge">
<title>Node3&#45;&gt;Node6</title>
<path fill="none" stroke="midnightblue" d="M144.56,-224.49C140.49,-215.53 134.11,-200.94 129.5,-188 123.96,-172.42 118.77,-154.35 115.22,-141.22"/>
<polygon fill="midnightblue" stroke="midnightblue" points="118.6,-140.29 112.65,-131.51 111.83,-142.08 118.6,-140.29"/>
</g>
<!-- Node7 -->
<g id="node7" class="node">
<title>Node7</title>
<g id="a_node7"><a xlink:href="libccc__config_8h.html" target="_top" xlink:title=" ">
<polygon fill="white" stroke="black" points="139,-168.5 139,-187.5 234,-187.5 234,-168.5 139,-168.5"/>
<text text-anchor="middle" x="186.5" y="-175.5" font-family="Consolas" font-size="10.00">libccc_config.h</text>
</a>
</g>
</g>
<!-- Node3&#45;&gt;Node7 -->
<g id="edge7" class="edge">
<title>Node3&#45;&gt;Node7</title>
<path fill="none" stroke="midnightblue" d="M154.77,-224.08C160.14,-216.46 168.02,-205.26 174.58,-195.94"/>
<polygon fill="midnightblue" stroke="midnightblue" points="177.45,-197.94 180.34,-187.75 171.72,-193.91 177.45,-197.94"/>
</g>
<!-- Node8 -->
<g id="node8" class="node">
<title>Node8</title>
<g id="a_node8"><a xlink:href="libccc__naming_8h.html" target="_top" xlink:title=" ">
<polygon fill="white" stroke="black" points="215,-112.5 215,-131.5 310,-131.5 310,-112.5 215,-112.5"/>
<text text-anchor="middle" x="262.5" y="-119.5" font-family="Consolas" font-size="10.00">libccc_naming.h</text>
</a>
</g>
</g>
<!-- Node3&#45;&gt;Node8 -->
<g id="edge10" class="edge">
<title>Node3&#45;&gt;Node8</title>
<path fill="none" stroke="midnightblue" d="M178.23,-225.9C199.29,-219.4 226.68,-207.71 243.5,-188 254.58,-175.02 259.2,-155.85 261.13,-141.69"/>
<polygon fill="midnightblue" stroke="midnightblue" points="264.62,-141.93 262.17,-131.63 257.66,-141.22 264.62,-141.93"/>
</g>
<!-- Node5 -->
<g id="node5" class="node">
<title>Node5</title>
<g id="a_node5"><a xlink:title=" ">
<polygon fill="white" stroke="#bfbfbf" points="114,-0.5 114,-19.5 183,-19.5 183,-0.5 114,-0.5"/>
<text text-anchor="middle" x="148.5" y="-7.5" font-family="Consolas" font-size="10.00">stdalign.h</text>
</a>
</g>
</g>
<!-- Node4&#45;&gt;Node5 -->
<g id="edge4" class="edge">
<title>Node4&#45;&gt;Node5</title>
<path fill="none" stroke="midnightblue" d="M148.5,-56.08C148.5,-49.01 148.5,-38.86 148.5,-29.99"/>
<polygon fill="midnightblue" stroke="midnightblue" points="152,-29.75 148.5,-19.75 145,-29.75 152,-29.75"/>
</g>
<!-- Node6&#45;&gt;Node4 -->
<g id="edge6" class="edge">
<title>Node6&#45;&gt;Node4</title>
<path fill="none" stroke="midnightblue" d="M116.77,-112.08C122.14,-104.46 130.02,-93.26 136.58,-83.94"/>
<polygon fill="midnightblue" stroke="midnightblue" points="139.45,-85.94 142.34,-75.75 133.72,-81.91 139.45,-85.94"/>
</g>
<!-- Node7&#45;&gt;Node4 -->
<g id="edge8" class="edge">
<title>Node7&#45;&gt;Node4</title>
<path fill="none" stroke="midnightblue" d="M184.01,-168.09C180.43,-155.5 173.5,-131.82 166.5,-112 163.31,-102.96 159.39,-93.06 156.03,-84.85"/>
<polygon fill="midnightblue" stroke="midnightblue" points="159.23,-83.44 152.16,-75.55 152.77,-86.12 159.23,-83.44"/>
</g>
<!-- Node7&#45;&gt;Node6 -->
<g id="edge9" class="edge">
<title>Node7&#45;&gt;Node6</title>
<path fill="none" stroke="midnightblue" d="M174.29,-168.32C162.72,-160.11 145.12,-147.6 131.34,-137.81"/>
<polygon fill="midnightblue" stroke="midnightblue" points="133.11,-134.77 122.93,-131.83 129.06,-140.48 133.11,-134.77"/>
</g>
<!-- Node8&#45;&gt;Node4 -->
<g id="edge11" class="edge">
<title>Node8&#45;&gt;Node4</title>
<path fill="none" stroke="midnightblue" d="M244.44,-112.44C225.93,-103.68 196.92,-89.94 175.64,-79.86"/>
<polygon fill="midnightblue" stroke="midnightblue" points="177.01,-76.63 166.48,-75.52 174.02,-82.96 177.01,-76.63"/>
</g>
<!-- Node10&#45;&gt;Node3 -->
<g id="edge15" class="edge">
<title>Node10&#45;&gt;Node3</title>
<path fill="none" stroke="midnightblue" d="M234.95,-280.32C218.51,-271.7 193.07,-258.36 174.03,-248.39"/>
<polygon fill="midnightblue" stroke="midnightblue" points="175.49,-245.2 165.01,-243.65 172.24,-251.4 175.49,-245.2"/>
</g>
<!-- Node11 -->
<g id="node11" class="node">
<title>Node11</title>
<g id="a_node11"><a xlink:title=" ">
<polygon fill="white" stroke="#bfbfbf" points="222,-224.5 222,-243.5 281,-243.5 281,-224.5 222,-224.5"/>
<text text-anchor="middle" x="251.5" y="-231.5" font-family="Consolas" font-size="10.00">stdint.h</text>
</a>
</g>
</g>
<!-- Node10&#45;&gt;Node11 -->
<g id="edge14" class="edge">
<title>Node10&#45;&gt;Node11</title>
<path fill="none" stroke="midnightblue" d="M251.5,-280.08C251.5,-273.01 251.5,-262.86 251.5,-253.99"/>
<polygon fill="midnightblue" stroke="midnightblue" points="255,-253.75 251.5,-243.75 248,-253.75 255,-253.75"/>
</g>
<!-- Node12&#45;&gt;Node3 -->
<g id="edge17" class="edge">
<title>Node12&#45;&gt;Node3</title>
<path fill="none" stroke="midnightblue" d="M148.5,-280.08C148.5,-273.01 148.5,-262.86 148.5,-253.99"/>
<polygon fill="midnightblue" stroke="midnightblue" points="152,-253.75 148.5,-243.75 145,-253.75 152,-253.75"/>
</g>
</g>
</svg>
