<?xml version="1.0" encoding="UTF-8" standalone="no"?>
<!DOCTYPE svg PUBLIC "-//W3C//DTD SVG 1.1//EN"
 "http://www.w3.org/Graphics/SVG/1.1/DTD/svg11.dtd">
<!-- Generated by graphviz version 3.0.0 (20220226.1711)
 -->
<!-- Title: libccc/math/complex.h Pages: 1 -->
<svg width="278pt" height="364pt"
 viewBox="0.00 0.00 278.00 364.00" xmlns="http://www.w3.org/2000/svg" xmlns:xlink="http://www.w3.org/1999/xlink">
<g id="graph0" class="graph" transform="scale(1 1) rotate(0) translate(4 360)">
<title>libccc/math/complex.h</title>
<polygon fill="white" stroke="transparent" points="-4,4 -4,-360 274,-360 274,4 -4,4"/>
<!-- Node1 -->
<g id="node1" class="node">
<title>Node1</title>
<g id="a_node1"><a xlink:title=" ">
<polygon fill="#bfbfbf" stroke="black" points="68,-336.5 68,-355.5 183,-355.5 183,-336.5 68,-336.5"/>
<text text-anchor="middle" x="125.5" y="-343.5" font-family="Consolas" font-size="10.00">libccc/math/complex.h</text>
</a>
</g>
</g>
<!-- Node2 -->
<g id="node2" class="node">
<title>Node2</title>
<g id="a_node2"><a xlink:href="$bool_8h.html" xlink:title=" ">
<polygon fill="white" stroke="black" points="0,-280.5 0,-299.5 71,-299.5 71,-280.5 0,-280.5"/>
<text text-anchor="middle" x="35.5" y="-287.5" font-family="Consolas" font-size="10.00">libccc/bool.h</text>
</a>
</g>
</g>
<!-- Node1&#45;&gt;Node2 -->
<g id="edge1" class="edge">
<title>Node1&#45;&gt;Node2</title>
<path fill="none" stroke="midnightblue" d="M111.04,-336.32C97,-327.9 75.45,-314.97 58.96,-305.07"/>
<polygon fill="midnightblue" stroke="midnightblue" points="60.3,-301.8 49.92,-299.65 56.7,-307.8 60.3,-301.8"/>
</g>
<!-- Node11 -->
<g id="node11" class="node">
<title>Node11</title>
<g id="a_node11"><a xlink:href="$int_8h.html" xlink:title=" ">
<polygon fill="white" stroke="black" points="179.5,-280.5 179.5,-299.5 243.5,-299.5 243.5,-280.5 179.5,-280.5"/>
<text text-anchor="middle" x="211.5" y="-287.5" font-family="Consolas" font-size="10.00">libccc/int.h</text>
</a>
</g>
</g>
<!-- Node1&#45;&gt;Node11 -->
<g id="edge14" class="edge">
<title>Node1&#45;&gt;Node11</title>
<path fill="none" stroke="midnightblue" d="M139.32,-336.32C152.73,-327.9 173.32,-314.97 189.09,-305.07"/>
<polygon fill="midnightblue" stroke="midnightblue" points="191.11,-307.94 197.72,-299.65 187.39,-302.01 191.11,-307.94"/>
</g>
<!-- Node13 -->
<g id="node13" class="node">
<title>Node13</title>
<g id="a_node13"><a xlink:href="$float_8h.html" xlink:title=" ">
<polygon fill="white" stroke="black" points="89.5,-280.5 89.5,-299.5 161.5,-299.5 161.5,-280.5 89.5,-280.5"/>
<text text-anchor="middle" x="125.5" y="-287.5" font-family="Consolas" font-size="10.00">libccc/float.h</text>
</a>
</g>
</g>
<!-- Node1&#45;&gt;Node13 -->
<g id="edge17" class="edge">
<title>Node1&#45;&gt;Node13</title>
<path fill="none" stroke="midnightblue" d="M125.5,-336.08C125.5,-329.01 125.5,-318.86 125.5,-309.99"/>
<polygon fill="midnightblue" stroke="midnightblue" points="129,-309.75 125.5,-299.75 122,-309.75 129,-309.75"/>
</g>
<!-- Node3 -->
<g id="node3" class="node">
<title>Node3</title>
<g id="a_node3"><a xlink:href="$libccc_8h.html" xlink:title=" ">
<polygon fill="white" stroke="black" points="100.5,-224.5 100.5,-243.5 150.5,-243.5 150.5,-224.5 100.5,-224.5"/>
<text text-anchor="middle" x="125.5" y="-231.5" font-family="Consolas" font-size="10.00">libccc.h</text>
</a>
</g>
</g>
<!-- Node2&#45;&gt;Node3 -->
<g id="edge2" class="edge">
<title>Node2&#45;&gt;Node3</title>
<path fill="none" stroke="midnightblue" d="M49.96,-280.32C64,-271.9 85.55,-258.97 102.04,-249.07"/>
<polygon fill="midnightblue" stroke="midnightblue" points="104.3,-251.8 111.08,-243.65 100.7,-245.8 104.3,-251.8"/>
</g>
<!-- Node10 -->
<g id="node10" class="node">
<title>Node10</title>
<g id="a_node10"><a xlink:title=" ">
<polygon fill="white" stroke="#bfbfbf" points="7.5,-224.5 7.5,-243.5 63.5,-243.5 63.5,-224.5 7.5,-224.5"/>
<text text-anchor="middle" x="35.5" y="-231.5" font-family="Consolas" font-size="10.00">stdbool.h</text>
</a>
</g>
</g>
<!-- Node2&#45;&gt;Node10 -->
<g id="edge13" class="edge">
<title>Node2&#45;&gt;Node10</title>
<path fill="none" stroke="midnightblue" d="M35.5,-280.08C35.5,-273.01 35.5,-262.86 35.5,-253.99"/>
<polygon fill="midnightblue" stroke="midnightblue" points="39,-253.75 35.5,-243.75 32,-253.75 39,-253.75"/>
</g>
<!-- Node4 -->
<g id="node4" class="node">
<title>Node4</title>
<g id="a_node4"><a xlink:href="$libccc__define_8h.html" xlink:title=" ">
<polygon fill="white" stroke="black" points="50.5,-56.5 50.5,-75.5 132.5,-75.5 132.5,-56.5 50.5,-56.5"/>
<text text-anchor="middle" x="91.5" y="-63.5" font-family="Consolas" font-size="10.00">libccc_define.h</text>
</a>
</g>
</g>
<!-- Node3&#45;&gt;Node4 -->
<g id="edge3" class="edge">
<title>Node3&#45;&gt;Node4</title>
<path fill="none" stroke="midnightblue" d="M107.38,-224.37C79.46,-209.88 27.19,-177.7 8.5,-132 5.14,-123.77 3.95,-119.64 8.5,-112 17.6,-96.72 33.89,-86.31 49.64,-79.39"/>
<polygon fill="midnightblue" stroke="midnightblue" points="51.33,-82.48 59.32,-75.51 48.73,-75.98 51.33,-82.48"/>
</g>
<!-- Node6 -->
<g id="node6" class="node">
<title>Node6</title>
<g id="a_node6"><a xlink:href="$libccc__errors_8h.html" xlink:title=" ">
<polygon fill="white" stroke="black" points="17.5,-112.5 17.5,-131.5 97.5,-131.5 97.5,-112.5 17.5,-112.5"/>
<text text-anchor="middle" x="57.5" y="-119.5" font-family="Consolas" font-size="10.00">libccc_errors.h</text>
</a>
</g>
</g>
<!-- Node3&#45;&gt;Node6 -->
<g id="edge5" class="edge">
<title>Node3&#45;&gt;Node6</title>
<path fill="none" stroke="midnightblue" d="M112.07,-224.23C100.72,-216.13 84.84,-203.1 75.5,-188 66.74,-173.84 62.16,-155.36 59.82,-141.72"/>
<polygon fill="midnightblue" stroke="midnightblue" points="63.25,-141 58.33,-131.61 56.32,-142.01 63.25,-141"/>
</g>
<!-- Node7 -->
<g id="node7" class="node">
<title>Node7</title>
<g id="a_node7"><a xlink:href="$libccc__config_8h.html" xlink:title=" ">
<polygon fill="white" stroke="black" points="84.5,-168.5 84.5,-187.5 166.5,-187.5 166.5,-168.5 84.5,-168.5"/>
<text text-anchor="middle" x="125.5" y="-175.5" font-family="Consolas" font-size="10.00">libccc_config.h</text>
</a>
</g>
</g>
<!-- Node3&#45;&gt;Node7 -->
<g id="edge7" class="edge">
<title>Node3&#45;&gt;Node7</title>
<path fill="none" stroke="midnightblue" d="M125.5,-224.08C125.5,-217.01 125.5,-206.86 125.5,-197.99"/>
<polygon fill="midnightblue" stroke="midnightblue" points="129,-197.75 125.5,-187.75 122,-197.75 129,-197.75"/>
</g>
<!-- Node8 -->
<g id="node8" class="node">
<title>Node8</title>
<g id="a_node8"><a xlink:href="$libccc__naming_8h.html" xlink:title=" ">
<polygon fill="white" stroke="black" points="154,-112.5 154,-131.5 241,-131.5 241,-112.5 154,-112.5"/>
<text text-anchor="middle" x="197.5" y="-119.5" font-family="Consolas" font-size="10.00">libccc_naming.h</text>
</a>
</g>
</g>
<!-- Node3&#45;&gt;Node8 -->
<g id="edge10" class="edge">
<title>Node3&#45;&gt;Node8</title>
<path fill="none" stroke="midnightblue" d="M138.28,-224.42C149.53,-216.26 165.61,-203.02 175.5,-188 184.81,-173.85 190.57,-155.37 193.84,-141.73"/>
<polygon fill="midnightblue" stroke="midnightblue" points="197.34,-142.13 196.04,-131.61 190.5,-140.65 197.34,-142.13"/>
</g>
<!-- Node9 -->
<g id="node9" class="node">
<title>Node9</title>
<g id="a_node9"><a xlink:title=" ">
<polygon fill="white" stroke="#bfbfbf" points="223,-168.5 223,-187.5 270,-187.5 270,-168.5 223,-168.5"/>
<text text-anchor="middle" x="246.5" y="-175.5" font-family="Consolas" font-size="10.00">math.h</text>
</a>
</g>
</g>
<!-- Node3&#45;&gt;Node9 -->
<g id="edge12" class="edge">
<title>Node3&#45;&gt;Node9</title>
<path fill="none" stroke="midnightblue" d="M144.67,-224.44C164.41,-215.64 195.39,-201.81 217.99,-191.72"/>
<polygon fill="midnightblue" stroke="midnightblue" points="219.71,-194.79 227.42,-187.52 216.86,-188.4 219.71,-194.79"/>
</g>
<!-- Node5 -->
<g id="node5" class="node">
<title>Node5</title>
<g id="a_node5"><a xlink:title=" ">
<polygon fill="white" stroke="#bfbfbf" points="62,-0.5 62,-19.5 121,-19.5 121,-0.5 62,-0.5"/>
<text text-anchor="middle" x="91.5" y="-7.5" font-family="Consolas" font-size="10.00">stdalign.h</text>
</a>
</g>
</g>
<!-- Node4&#45;&gt;Node5 -->
<g id="edge4" class="edge">
<title>Node4&#45;&gt;Node5</title>
<path fill="none" stroke="midnightblue" d="M91.5,-56.08C91.5,-49.01 91.5,-38.86 91.5,-29.99"/>
<polygon fill="midnightblue" stroke="midnightblue" points="95,-29.75 91.5,-19.75 88,-29.75 95,-29.75"/>
</g>
<!-- Node6&#45;&gt;Node4 -->
<g id="edge6" class="edge">
<title>Node6&#45;&gt;Node4</title>
<path fill="none" stroke="midnightblue" d="M63.11,-112.08C67.87,-104.53 74.82,-93.49 80.65,-84.23"/>
<polygon fill="midnightblue" stroke="midnightblue" points="83.62,-86.08 85.99,-75.75 77.7,-82.35 83.62,-86.08"/>
</g>
<!-- Node7&#45;&gt;Node4 -->
<g id="edge8" class="edge">
<title>Node7&#45;&gt;Node4</title>
<path fill="none" stroke="midnightblue" d="M123.02,-168.14C119.49,-155.6 112.75,-131.97 106.5,-112 103.73,-103.15 100.5,-93.37 97.74,-85.2"/>
<polygon fill="midnightblue" stroke="midnightblue" points="101.01,-83.94 94.47,-75.6 94.38,-86.19 101.01,-83.94"/>
</g>
<!-- Node7&#45;&gt;Node6 -->
<g id="edge9" class="edge">
<title>Node7&#45;&gt;Node6</title>
<path fill="none" stroke="midnightblue" d="M114.57,-168.32C104.33,-160.18 88.78,-147.84 76.5,-138.09"/>
<polygon fill="midnightblue" stroke="midnightblue" points="78.63,-135.31 68.62,-131.83 74.28,-140.79 78.63,-135.31"/>
</g>
<!-- Node8&#45;&gt;Node4 -->
<g id="edge11" class="edge">
<title>Node8&#45;&gt;Node4</title>
<path fill="none" stroke="midnightblue" d="M180.47,-112.32C163.47,-103.66 137.12,-90.24 117.51,-80.25"/>
<polygon fill="midnightblue" stroke="midnightblue" points="118.99,-77.08 108.49,-75.65 115.81,-83.31 118.99,-77.08"/>
</g>
<!-- Node11&#45;&gt;Node3 -->
<g id="edge16" class="edge">
<title>Node11&#45;&gt;Node3</title>
<path fill="none" stroke="midnightblue" d="M197.68,-280.32C184.27,-271.9 163.68,-258.97 147.91,-249.07"/>
<polygon fill="midnightblue" stroke="midnightblue" points="149.61,-246.01 139.28,-243.65 145.89,-251.94 149.61,-246.01"/>
</g>
<!-- Node12 -->
<g id="node12" class="node">
<title>Node12</title>
<g id="a_node12"><a xlink:title=" ">
<polygon fill="white" stroke="#bfbfbf" points="187,-224.5 187,-243.5 236,-243.5 236,-224.5 187,-224.5"/>
<text text-anchor="middle" x="211.5" y="-231.5" font-family="Consolas" font-size="10.00">stdint.h</text>
</a>
</g>
</g>
<!-- Node11&#45;&gt;Node12 -->
<g id="edge15" class="edge">
<title>Node11&#45;&gt;Node12</title>
<path fill="none" stroke="midnightblue" d="M211.5,-280.08C211.5,-273.01 211.5,-262.86 211.5,-253.99"/>
<polygon fill="midnightblue" stroke="midnightblue" points="215,-253.75 211.5,-243.75 208,-253.75 215,-253.75"/>
</g>
<!-- Node13&#45;&gt;Node3 -->
<g id="edge18" class="edge">
<title>Node13&#45;&gt;Node3</title>
<path fill="none" stroke="midnightblue" d="M125.5,-280.08C125.5,-273.01 125.5,-262.86 125.5,-253.99"/>
<polygon fill="midnightblue" stroke="midnightblue" points="129,-253.75 125.5,-243.75 122,-253.75 129,-253.75"/>
</g>
</g>
</svg>
