<?xml version="1.0" encoding="UTF-8" standalone="no"?>
<!DOCTYPE svg PUBLIC "-//W3C//DTD SVG 1.1//EN"
 "http://www.w3.org/Graphics/SVG/1.1/DTD/svg11.dtd">
<!-- Generated by graphviz version 2.50.0 (20211204.2007)
 -->
<!-- Title: libccc/math/complex.h Pages: 1 -->
<svg width="284pt" height="364pt"
 viewBox="0.00 0.00 284.00 364.00" xmlns="http://www.w3.org/2000/svg" xmlns:xlink="http://www.w3.org/1999/xlink">
<g id="graph0" class="graph" transform="scale(1 1) rotate(0) translate(4 360)">
<title>libccc/math/complex.h</title>
<polygon fill="white" stroke="transparent" points="-4,4 -4,-360 280,-360 280,4 -4,4"/>
<!-- Node1 -->
<g id="node1" class="node">
<title>Node1</title>
<g id="a_node1"><a xlink:title=" ">
<polygon fill="#bfbfbf" stroke="black" points="68,-336.5 68,-355.5 183,-355.5 183,-336.5 68,-336.5"/>
<text text-anchor="middle" x="125.5" y="-343.5" font-family="Consolas" font-size="10.00">libccc/math/complex.h</text>
</a>
</g>
</g>
<!-- Node2 -->
<g id="node2" class="node">
<title>Node2</title>
<g id="a_node2"><a xlink:href="bool_8h.html" target="_top" xlink:title=" ">
<polygon fill="white" stroke="black" points="0,-280.5 0,-299.5 71,-299.5 71,-280.5 0,-280.5"/>
<text text-anchor="middle" x="35.5" y="-287.5" font-family="Consolas" font-size="10.00">libccc/bool.h</text>
</a>
</g>
</g>
<!-- Node1&#45;&gt;Node2 -->
<g id="edge1" class="edge">
<title>Node1&#45;&gt;Node2</title>
<path fill="none" stroke="midnightblue" d="M111.04,-336.32C97,-327.9 75.45,-314.97 58.96,-305.07"/>
<polygon fill="midnightblue" stroke="midnightblue" points="60.3,-301.8 49.92,-299.65 56.7,-307.8 60.3,-301.8"/>
</g>
<!-- Node10 -->
<g id="node10" class="node">
<title>Node10</title>
<g id="a_node10"><a xlink:href="int_8h.html" target="_top" xlink:title=" ">
<polygon fill="white" stroke="black" points="179.5,-280.5 179.5,-299.5 243.5,-299.5 243.5,-280.5 179.5,-280.5"/>
<text text-anchor="middle" x="211.5" y="-287.5" font-family="Consolas" font-size="10.00">libccc/int.h</text>
</a>
</g>
</g>
<!-- Node1&#45;&gt;Node10 -->
<g id="edge13" class="edge">
<title>Node1&#45;&gt;Node10</title>
<path fill="none" stroke="midnightblue" d="M139.32,-336.32C152.73,-327.9 173.32,-314.97 189.09,-305.07"/>
<polygon fill="midnightblue" stroke="midnightblue" points="191.11,-307.94 197.72,-299.65 187.39,-302.01 191.11,-307.94"/>
</g>
<!-- Node12 -->
<g id="node12" class="node">
<title>Node12</title>
<g id="a_node12"><a xlink:href="float_8h.html" target="_top" xlink:title=" ">
<polygon fill="white" stroke="black" points="89.5,-280.5 89.5,-299.5 161.5,-299.5 161.5,-280.5 89.5,-280.5"/>
<text text-anchor="middle" x="125.5" y="-287.5" font-family="Consolas" font-size="10.00">libccc/float.h</text>
</a>
</g>
</g>
<!-- Node1&#45;&gt;Node12 -->
<g id="edge16" class="edge">
<title>Node1&#45;&gt;Node12</title>
<path fill="none" stroke="midnightblue" d="M125.5,-336.08C125.5,-329.01 125.5,-318.86 125.5,-309.99"/>
<polygon fill="midnightblue" stroke="midnightblue" points="129,-309.75 125.5,-299.75 122,-309.75 129,-309.75"/>
</g>
<!-- Node3 -->
<g id="node3" class="node">
<title>Node3</title>
<g id="a_node3"><a xlink:href="libccc_8h.html" target="_top" xlink:title=" ">
<polygon fill="white" stroke="black" points="100.5,-224.5 100.5,-243.5 150.5,-243.5 150.5,-224.5 100.5,-224.5"/>
<text text-anchor="middle" x="125.5" y="-231.5" font-family="Consolas" font-size="10.00">libccc.h</text>
</a>
</g>
</g>
<!-- Node2&#45;&gt;Node3 -->
<g id="edge2" class="edge">
<title>Node2&#45;&gt;Node3</title>
<path fill="none" stroke="midnightblue" d="M49.96,-280.32C64,-271.9 85.55,-258.97 102.04,-249.07"/>
<polygon fill="midnightblue" stroke="midnightblue" points="104.3,-251.8 111.08,-243.65 100.7,-245.8 104.3,-251.8"/>
</g>
<!-- Node9 -->
<g id="node9" class="node">
<title>Node9</title>
<g id="a_node9"><a xlink:title=" ">
<polygon fill="white" stroke="#bfbfbf" points="7.5,-224.5 7.5,-243.5 63.5,-243.5 63.5,-224.5 7.5,-224.5"/>
<text text-anchor="middle" x="35.5" y="-231.5" font-family="Consolas" font-size="10.00">stdbool.h</text>
</a>
</g>
</g>
<!-- Node2&#45;&gt;Node9 -->
<g id="edge12" class="edge">
<title>Node2&#45;&gt;Node9</title>
<path fill="none" stroke="midnightblue" d="M35.5,-280.08C35.5,-273.01 35.5,-262.86 35.5,-253.99"/>
<polygon fill="midnightblue" stroke="midnightblue" points="39,-253.75 35.5,-243.75 32,-253.75 39,-253.75"/>
</g>
<!-- Node4 -->
<g id="node4" class="node">
<title>Node4</title>
<g id="a_node4"><a xlink:href="libccc__define_8h.html" target="_top" xlink:title=" ">
<polygon fill="white" stroke="black" points="85.5,-56.5 85.5,-75.5 167.5,-75.5 167.5,-56.5 85.5,-56.5"/>
<text text-anchor="middle" x="126.5" y="-63.5" font-family="Consolas" font-size="10.00">libccc_define.h</text>
</a>
</g>
</g>
<!-- Node3&#45;&gt;Node4 -->
<g id="edge3" class="edge">
<title>Node3&#45;&gt;Node4</title>
<path fill="none" stroke="midnightblue" d="M111.72,-224.42C82.19,-204.93 17.54,-155.61 43.5,-112 52.6,-96.72 68.89,-86.31 84.64,-79.39"/>
<polygon fill="midnightblue" stroke="midnightblue" points="86.33,-82.48 94.32,-75.51 83.73,-75.98 86.33,-82.48"/>
</g>
<!-- Node6 -->
<g id="node6" class="node">
<title>Node6</title>
<g id="a_node6"><a xlink:href="libccc__errors_8h.html" target="_top" xlink:title=" ">
<polygon fill="white" stroke="black" points="52.5,-112.5 52.5,-131.5 132.5,-131.5 132.5,-112.5 52.5,-112.5"/>
<text text-anchor="middle" x="92.5" y="-119.5" font-family="Consolas" font-size="10.00">libccc_errors.h</text>
</a>
</g>
</g>
<!-- Node3&#45;&gt;Node6 -->
<g id="edge5" class="edge">
<title>Node3&#45;&gt;Node6</title>
<path fill="none" stroke="midnightblue" d="M122.49,-224.42C119.36,-215.39 114.39,-200.76 110.5,-188 105.75,-172.42 100.85,-154.59 97.36,-141.55"/>
<polygon fill="midnightblue" stroke="midnightblue" points="100.74,-140.64 94.8,-131.87 93.98,-142.44 100.74,-140.64"/>
</g>
<!-- Node7 -->
<g id="node7" class="node">
<title>Node7</title>
<g id="a_node7"><a xlink:href="libccc__config_8h.html" target="_top" xlink:title=" ">
<polygon fill="white" stroke="black" points="119.5,-168.5 119.5,-187.5 201.5,-187.5 201.5,-168.5 119.5,-168.5"/>
<text text-anchor="middle" x="160.5" y="-175.5" font-family="Consolas" font-size="10.00">libccc_config.h</text>
</a>
</g>
</g>
<!-- Node3&#45;&gt;Node7 -->
<g id="edge7" class="edge">
<title>Node3&#45;&gt;Node7</title>
<path fill="none" stroke="midnightblue" d="M131.28,-224.08C136.17,-216.53 143.33,-205.49 149.33,-196.23"/>
<polygon fill="midnightblue" stroke="midnightblue" points="152.33,-198.05 154.83,-187.75 146.45,-194.24 152.33,-198.05"/>
</g>
<!-- Node8 -->
<g id="node8" class="node">
<title>Node8</title>
<g id="a_node8"><a xlink:href="libccc__naming_8h.html" target="_top" xlink:title=" ">
<polygon fill="white" stroke="black" points="189,-112.5 189,-131.5 276,-131.5 276,-112.5 189,-112.5"/>
<text text-anchor="middle" x="232.5" y="-119.5" font-family="Consolas" font-size="10.00">libccc_naming.h</text>
</a>
</g>
</g>
<!-- Node3&#45;&gt;Node8 -->
<g id="edge10" class="edge">
<title>Node3&#45;&gt;Node8</title>
<path fill="none" stroke="midnightblue" d="M150.73,-225.36C169.62,-218.43 194.81,-206.44 210.5,-188 221.71,-174.83 227.28,-155.69 230,-141.59"/>
<polygon fill="midnightblue" stroke="midnightblue" points="233.48,-142 231.63,-131.57 226.57,-140.88 233.48,-142"/>
</g>
<!-- Node5 -->
<g id="node5" class="node">
<title>Node5</title>
<g id="a_node5"><a xlink:title=" ">
<polygon fill="white" stroke="#bfbfbf" points="97,-0.5 97,-19.5 156,-19.5 156,-0.5 97,-0.5"/>
<text text-anchor="middle" x="126.5" y="-7.5" font-family="Consolas" font-size="10.00">stdalign.h</text>
</a>
</g>
</g>
<!-- Node4&#45;&gt;Node5 -->
<g id="edge4" class="edge">
<title>Node4&#45;&gt;Node5</title>
<path fill="none" stroke="midnightblue" d="M126.5,-56.08C126.5,-49.01 126.5,-38.86 126.5,-29.99"/>
<polygon fill="midnightblue" stroke="midnightblue" points="130,-29.75 126.5,-19.75 123,-29.75 130,-29.75"/>
</g>
<!-- Node6&#45;&gt;Node4 -->
<g id="edge6" class="edge">
<title>Node6&#45;&gt;Node4</title>
<path fill="none" stroke="midnightblue" d="M98.11,-112.08C102.87,-104.53 109.82,-93.49 115.65,-84.23"/>
<polygon fill="midnightblue" stroke="midnightblue" points="118.62,-86.08 120.99,-75.75 112.7,-82.35 118.62,-86.08"/>
</g>
<!-- Node7&#45;&gt;Node4 -->
<g id="edge8" class="edge">
<title>Node7&#45;&gt;Node4</title>
<path fill="none" stroke="midnightblue" d="M158.02,-168.14C154.49,-155.6 147.75,-131.97 141.5,-112 138.73,-103.15 135.5,-93.37 132.74,-85.2"/>
<polygon fill="midnightblue" stroke="midnightblue" points="136.01,-83.94 129.47,-75.6 129.38,-86.19 136.01,-83.94"/>
</g>
<!-- Node7&#45;&gt;Node6 -->
<g id="edge9" class="edge">
<title>Node7&#45;&gt;Node6</title>
<path fill="none" stroke="midnightblue" d="M149.57,-168.32C139.33,-160.18 123.78,-147.84 111.5,-138.09"/>
<polygon fill="midnightblue" stroke="midnightblue" points="113.63,-135.31 103.62,-131.83 109.28,-140.79 113.63,-135.31"/>
</g>
<!-- Node8&#45;&gt;Node4 -->
<g id="edge11" class="edge">
<title>Node8&#45;&gt;Node4</title>
<path fill="none" stroke="midnightblue" d="M215.47,-112.32C198.47,-103.66 172.12,-90.24 152.51,-80.25"/>
<polygon fill="midnightblue" stroke="midnightblue" points="153.99,-77.08 143.49,-75.65 150.81,-83.31 153.99,-77.08"/>
</g>
<!-- Node10&#45;&gt;Node3 -->
<g id="edge15" class="edge">
<title>Node10&#45;&gt;Node3</title>
<path fill="none" stroke="midnightblue" d="M197.68,-280.32C184.27,-271.9 163.68,-258.97 147.91,-249.07"/>
<polygon fill="midnightblue" stroke="midnightblue" points="149.61,-246.01 139.28,-243.65 145.89,-251.94 149.61,-246.01"/>
</g>
<!-- Node11 -->
<g id="node11" class="node">
<title>Node11</title>
<g id="a_node11"><a xlink:title=" ">
<polygon fill="white" stroke="#bfbfbf" points="187,-224.5 187,-243.5 236,-243.5 236,-224.5 187,-224.5"/>
<text text-anchor="middle" x="211.5" y="-231.5" font-family="Consolas" font-size="10.00">stdint.h</text>
</a>
</g>
</g>
<!-- Node10&#45;&gt;Node11 -->
<g id="edge14" class="edge">
<title>Node10&#45;&gt;Node11</title>
<path fill="none" stroke="midnightblue" d="M211.5,-280.08C211.5,-273.01 211.5,-262.86 211.5,-253.99"/>
<polygon fill="midnightblue" stroke="midnightblue" points="215,-253.75 211.5,-243.75 208,-253.75 215,-253.75"/>
</g>
<!-- Node12&#45;&gt;Node3 -->
<g id="edge17" class="edge">
<title>Node12&#45;&gt;Node3</title>
<path fill="none" stroke="midnightblue" d="M125.5,-280.08C125.5,-273.01 125.5,-262.86 125.5,-253.99"/>
<polygon fill="midnightblue" stroke="midnightblue" points="129,-253.75 125.5,-243.75 122,-253.75 129,-253.75"/>
</g>
</g>
</svg>
