<?xml version="1.0" encoding="UTF-8" standalone="no"?>
<!DOCTYPE svg PUBLIC "-//W3C//DTD SVG 1.1//EN"
 "http://www.w3.org/Graphics/SVG/1.1/DTD/svg11.dtd">
<!-- Generated by graphviz version 2.49.3 (20211023.0002)
 -->
<!-- Title: hdr/libccc/math/complex.h Pages: 1 -->
<!--zoomable 364 -->
<svg id="main" version="1.1" xmlns="http://www.w3.org/2000/svg" xmlns:xlink="http://www.w3.org/1999/xlink" xml:space="preserve" onload="init(evt)">
<style type="text/css"><![CDATA[
.edge:hover path { stroke: red; }
.edge:hover polygon { stroke: red; fill: red; }
]]></style>
<script type="text/javascript"><![CDATA[
var edges = document.getElementsByTagName('g');
if (edges && edges.length) {
  for (var i=0;i<edges.length;i++) {
    if (edges[i].id.substr(0,4)=='edge') {
      edges[i].setAttribute('class','edge');
    }
  }
}
]]></script>
        <defs>
                <circle id="rim" cx="0" cy="0" r="7"/>
                <circle id="rim2" cx="0" cy="0" r="3.5"/>
                <g id="zoomPlus">
                        <use xlink:href="#rim" fill="#404040">
                                <set attributeName="fill" to="#808080" begin="zoomplus.mouseover" end="zoomplus.mouseout"/>
                        </use>
                        <path d="M-4,0h8M0,-4v8" fill="none" stroke="white" stroke-width="1.5" pointer-events="none"/>
                </g>
                <g id="zoomMin">
                        <use xlink:href="#rim" fill="#404040">
                                <set attributeName="fill" to="#808080" begin="zoomminus.mouseover" end="zoomminus.mouseout"/>
                        </use>
                        <path d="M-4,0h8" fill="none" stroke="white" stroke-width="1.5" pointer-events="none"/>
                </g>
                <g id="dirArrow">
                        <path fill="none" stroke="white" stroke-width="1.5" d="M0,-3.0v7 M-2.5,-0.5L0,-3.0L2.5,-0.5"/>
                </g>
               <g id="resetDef">
                       <use xlink:href="#rim2" fill="#404040">
                               <set attributeName="fill" to="#808080" begin="reset.mouseover" end="reset.mouseout"/>
                       </use>
               </g>
        </defs>

<script type="text/javascript">
var viewWidth = 700;
var viewHeight = 364;
var sectionId = 'dynsection-0';
</script>
<script xlink:href="svgpan.js"/>
<svg id="graph" class="graph">
<g id="viewport">
<title>hdr/libccc/math/complex.h</title>
<polygon fill="white" stroke="transparent" points="-4,4 -4,-360 696.34,-360 696.34,4 -4,4"/>
<!-- Node1 -->
<g id="node1" class="node">
<title>Node1</title>
<g id="a_node1"><a xlink:title=" ">
<polygon fill="#bfbfbf" stroke="black" points="504.84,-336.5 504.84,-355.5 635.84,-355.5 635.84,-336.5 504.84,-336.5"/>
<text text-anchor="middle" x="570.34" y="-343.5" font-family="Consolas" font-size="10.00">hdr/libccc/math/complex.h</text>
</a>
</g>
</g>
<!-- Node2 -->
<g id="node2" class="node">
<title>Node2</title>
<g id="a_node2"><a xlink:href="bool_8h.html" target="_top" xlink:title=" ">
<polygon fill="white" stroke="black" points="351.84,-280.5 351.84,-299.5 422.84,-299.5 422.84,-280.5 351.84,-280.5"/>
<text text-anchor="middle" x="387.34" y="-287.5" font-family="Consolas" font-size="10.00">libccc/bool.h</text>
</a>
</g>
</g>
<!-- Node1&#45;&gt;Node2 -->
<g id="edge1" class="edge">
<title>Node1&#45;&gt;Node2</title>
<path fill="none" stroke="midnightblue" d="M541.35,-336.44C510.16,-327.24 460.41,-312.56 425.94,-302.39"/>
<polygon fill="midnightblue" stroke="midnightblue" points="426.79,-298.99 416.2,-299.52 424.8,-305.7 426.79,-298.99"/>
</g>
<!-- Node13 -->
<g id="node13" class="node">
<title>Node13</title>
<g id="a_node13"><a xlink:href="int_8h.html" target="_top" xlink:title=" ">
<polygon fill="white" stroke="black" points="538.34,-168.5 538.34,-187.5 602.34,-187.5 602.34,-168.5 538.34,-168.5"/>
<text text-anchor="middle" x="570.34" y="-175.5" font-family="Consolas" font-size="10.00">libccc/int.h</text>
</a>
</g>
</g>
<!-- Node1&#45;&gt;Node13 -->
<g id="edge29" class="edge">
<title>Node1&#45;&gt;Node13</title>
<path fill="none" stroke="midnightblue" d="M570.34,-336.08C570.34,-309.95 570.34,-233.21 570.34,-197.58"/>
<polygon fill="midnightblue" stroke="midnightblue" points="573.84,-197.57 570.34,-187.57 566.84,-197.57 573.84,-197.57"/>
</g>
<!-- Node15 -->
<g id="node15" class="node">
<title>Node15</title>
<g id="a_node15"><a xlink:href="float_8h.html" target="_top" xlink:title=" ">
<polygon fill="white" stroke="black" points="620.34,-168.5 620.34,-187.5 692.34,-187.5 692.34,-168.5 620.34,-168.5"/>
<text text-anchor="middle" x="656.34" y="-175.5" font-family="Consolas" font-size="10.00">libccc/float.h</text>
</a>
</g>
</g>
<!-- Node1&#45;&gt;Node15 -->
<g id="edge30" class="edge">
<title>Node1&#45;&gt;Node15</title>
<path fill="none" stroke="midnightblue" d="M574.97,-336.08C588.62,-309.72 628.95,-231.88 647.19,-196.66"/>
<polygon fill="midnightblue" stroke="midnightblue" points="650.41,-198.06 651.9,-187.57 644.2,-194.84 650.41,-198.06"/>
</g>
<!-- Node3 -->
<g id="node3" class="node">
<title>Node3</title>
<g id="a_node3"><a xlink:href="libccc_8h.html" target="_top" xlink:title=" ">
<polygon fill="white" stroke="black" points="362.34,-224.5 362.34,-243.5 412.34,-243.5 412.34,-224.5 362.34,-224.5"/>
<text text-anchor="middle" x="387.34" y="-231.5" font-family="Consolas" font-size="10.00">libccc.h</text>
</a>
</g>
</g>
<!-- Node2&#45;&gt;Node3 -->
<g id="edge2" class="edge">
<title>Node2&#45;&gt;Node3</title>
<path fill="none" stroke="midnightblue" d="M382.18,-280.08C380.67,-272.93 380.24,-262.64 380.89,-253.69"/>
<polygon fill="midnightblue" stroke="midnightblue" points="384.36,-254.13 382.21,-243.75 377.42,-253.2 384.36,-254.13"/>
</g>
<!-- Node3&#45;&gt;Node2 -->
<g id="edge12" class="edge">
<title>Node3&#45;&gt;Node2</title>
<path fill="none" stroke="midnightblue" d="M392.47,-243.75C394,-250.86 394.45,-261.14 393.82,-270.1"/>
<polygon fill="midnightblue" stroke="midnightblue" points="390.34,-269.71 392.51,-280.08 397.28,-270.62 390.34,-269.71"/>
</g>
<!-- Node4 -->
<g id="node4" class="node">
<title>Node4</title>
<g id="a_node4"><a xlink:href="libccc__define_8h.html" target="_top" xlink:title=" ">
<polygon fill="white" stroke="black" points="48.34,-56.5 48.34,-75.5 130.34,-75.5 130.34,-56.5 48.34,-56.5"/>
<text text-anchor="middle" x="89.34" y="-63.5" font-family="Consolas" font-size="10.00">libccc_define.h</text>
</a>
</g>
</g>
<!-- Node3&#45;&gt;Node4 -->
<g id="edge3" class="edge">
<title>Node3&#45;&gt;Node4</title>
<path fill="none" stroke="midnightblue" d="M362.11,-231.74C294.6,-228.01 111.42,-215.58 58.34,-188 22.02,-169.13 -14.59,-147.17 6.34,-112 15.44,-96.72 31.73,-86.31 47.49,-79.39"/>
<polygon fill="midnightblue" stroke="midnightblue" points="49.18,-82.48 57.16,-75.51 46.57,-75.98 49.18,-82.48"/>
</g>
<!-- Node6 -->
<g id="node6" class="node">
<title>Node6</title>
<g id="a_node6"><a xlink:href="libccc__errors_8h.html" target="_top" xlink:title=" ">
<polygon fill="white" stroke="black" points="15.34,-112.5 15.34,-131.5 95.34,-131.5 95.34,-112.5 15.34,-112.5"/>
<text text-anchor="middle" x="55.34" y="-119.5" font-family="Consolas" font-size="10.00">libccc_errors.h</text>
</a>
</g>
</g>
<!-- Node3&#45;&gt;Node6 -->
<g id="edge5" class="edge">
<title>Node3&#45;&gt;Node6</title>
<path fill="none" stroke="midnightblue" d="M362.05,-232.78C295.42,-231.68 117.26,-225.24 74.34,-188 61.18,-176.58 56.89,-156.6 55.61,-141.79"/>
<polygon fill="midnightblue" stroke="midnightblue" points="59.1,-141.53 55.12,-131.71 52.11,-141.87 59.1,-141.53"/>
</g>
<!-- Node7 -->
<g id="node7" class="node">
<title>Node7</title>
<g id="a_node7"><a xlink:href="libccc__config_8h.html" target="_top" xlink:title=" ">
<polygon fill="white" stroke="black" points="83.34,-168.5 83.34,-187.5 165.34,-187.5 165.34,-168.5 83.34,-168.5"/>
<text text-anchor="middle" x="124.34" y="-175.5" font-family="Consolas" font-size="10.00">libccc_config.h</text>
</a>
</g>
</g>
<!-- Node3&#45;&gt;Node7 -->
<g id="edge7" class="edge">
<title>Node3&#45;&gt;Node7</title>
<path fill="none" stroke="midnightblue" d="M362.13,-227.82C319.4,-219.05 231.97,-201.1 175.86,-189.58"/>
<polygon fill="midnightblue" stroke="midnightblue" points="176.26,-186.09 165.76,-187.5 174.86,-192.94 176.26,-186.09"/>
</g>
<!-- Node8 -->
<g id="node8" class="node">
<title>Node8</title>
<g id="a_node8"><a xlink:href="libccc__naming_8h.html" target="_top" xlink:title=" ">
<polygon fill="white" stroke="black" points="151.84,-112.5 151.84,-131.5 238.84,-131.5 238.84,-112.5 151.84,-112.5"/>
<text text-anchor="middle" x="195.34" y="-119.5" font-family="Consolas" font-size="10.00">libccc_naming.h</text>
</a>
</g>
</g>
<!-- Node3&#45;&gt;Node8 -->
<g id="edge10" class="edge">
<title>Node3&#45;&gt;Node8</title>
<path fill="none" stroke="midnightblue" d="M362.13,-229.43C332.5,-224.26 282.87,-212.49 247.34,-188 229.19,-175.49 214.2,-154.8 205.06,-140.13"/>
<polygon fill="midnightblue" stroke="midnightblue" points="208.04,-138.3 199.92,-131.5 202.03,-141.88 208.04,-138.3"/>
</g>
<!-- Node9 -->
<g id="node9" class="node">
<title>Node9</title>
<g id="a_node9"><a xlink:href="char_8h.html" target="_top" xlink:title=" ">
<polygon fill="white" stroke="black" points="256.84,-168.5 256.84,-187.5 327.84,-187.5 327.84,-168.5 256.84,-168.5"/>
<text text-anchor="middle" x="292.34" y="-175.5" font-family="Consolas" font-size="10.00">libccc/char.h</text>
</a>
</g>
</g>
<!-- Node3&#45;&gt;Node9 -->
<g id="edge13" class="edge">
<title>Node3&#45;&gt;Node9</title>
<path fill="none" stroke="midnightblue" d="M366.96,-224.32C350.32,-215.9 327.28,-202.97 311.09,-193.07"/>
<polygon fill="midnightblue" stroke="midnightblue" points="312.79,-190.01 302.46,-187.65 309.07,-195.93 312.79,-190.01"/>
</g>
<!-- Node3&#45;&gt;Node13 -->
<g id="edge18" class="edge">
<title>Node3&#45;&gt;Node13</title>
<path fill="none" stroke="midnightblue" d="M411.25,-224.44C441.06,-215.04 492.18,-199.91 528.49,-189.72"/>
<polygon fill="midnightblue" stroke="midnightblue" points="529.62,-193.04 538.31,-186.99 527.74,-186.3 529.62,-193.04"/>
</g>
<!-- Node14 -->
<g id="node14" class="node">
<title>Node14</title>
<g id="a_node14"><a xlink:href="fixed_8h.html" target="_top" xlink:title=" ">
<polygon fill="white" stroke="black" points="446.34,-168.5 446.34,-187.5 520.34,-187.5 520.34,-168.5 446.34,-168.5"/>
<text text-anchor="middle" x="483.34" y="-175.5" font-family="Consolas" font-size="10.00">libccc/fixed.h</text>
</a>
</g>
</g>
<!-- Node3&#45;&gt;Node14 -->
<g id="edge21" class="edge">
<title>Node3&#45;&gt;Node14</title>
<path fill="none" stroke="midnightblue" d="M397.65,-224.32C411.17,-215.66 434.77,-202.24 453.89,-192.25"/>
<polygon fill="midnightblue" stroke="midnightblue" points="455.55,-195.33 462.85,-187.65 452.35,-189.1 455.55,-195.33"/>
</g>
<!-- Node3&#45;&gt;Node15 -->
<g id="edge23" class="edge">
<title>Node3&#45;&gt;Node15</title>
<path fill="none" stroke="midnightblue" d="M412.73,-227.01C458.11,-217.33 553.24,-198.19 610.34,-187.23"/>
<polygon fill="midnightblue" stroke="midnightblue" points="611.03,-190.66 620.19,-185.35 609.72,-183.78 611.03,-190.66"/>
</g>
<!-- Node16 -->
<g id="node16" class="node">
<title>Node16</title>
<g id="a_node16"><a xlink:href="pointer_8h.html" target="_top" xlink:title=" ">
<polygon fill="white" stroke="black" points="346.34,-168.5 346.34,-187.5 428.34,-187.5 428.34,-168.5 346.34,-168.5"/>
<text text-anchor="middle" x="387.34" y="-175.5" font-family="Consolas" font-size="10.00">libccc/pointer.h</text>
</a>
</g>
</g>
<!-- Node3&#45;&gt;Node16 -->
<g id="edge25" class="edge">
<title>Node3&#45;&gt;Node16</title>
<path fill="none" stroke="midnightblue" d="M382.18,-224.08C380.67,-216.93 380.24,-206.64 380.89,-197.69"/>
<polygon fill="midnightblue" stroke="midnightblue" points="384.36,-198.13 382.21,-187.75 377.42,-197.2 384.36,-198.13"/>
</g>
<!-- Node5 -->
<g id="node5" class="node">
<title>Node5</title>
<g id="a_node5"><a xlink:title=" ">
<polygon fill="white" stroke="#bfbfbf" points="59.84,-0.5 59.84,-19.5 118.84,-19.5 118.84,-0.5 59.84,-0.5"/>
<text text-anchor="middle" x="89.34" y="-7.5" font-family="Consolas" font-size="10.00">stdalign.h</text>
</a>
</g>
</g>
<!-- Node4&#45;&gt;Node5 -->
<g id="edge4" class="edge">
<title>Node4&#45;&gt;Node5</title>
<path fill="none" stroke="midnightblue" d="M89.34,-56.08C89.34,-49.01 89.34,-38.86 89.34,-29.99"/>
<polygon fill="midnightblue" stroke="midnightblue" points="92.84,-29.75 89.34,-19.75 85.84,-29.75 92.84,-29.75"/>
</g>
<!-- Node6&#45;&gt;Node4 -->
<g id="edge6" class="edge">
<title>Node6&#45;&gt;Node4</title>
<path fill="none" stroke="midnightblue" d="M60.96,-112.08C65.71,-104.53 72.66,-93.49 78.49,-84.23"/>
<polygon fill="midnightblue" stroke="midnightblue" points="81.47,-86.08 83.83,-75.75 75.54,-82.35 81.47,-86.08"/>
</g>
<!-- Node7&#45;&gt;Node4 -->
<g id="edge8" class="edge">
<title>Node7&#45;&gt;Node4</title>
<path fill="none" stroke="midnightblue" d="M121.69,-168.15C117.92,-155.62 110.76,-132.01 104.34,-112 101.51,-103.17 98.27,-93.39 95.52,-85.22"/>
<polygon fill="midnightblue" stroke="midnightblue" points="98.79,-83.96 92.28,-75.61 92.16,-86.2 98.79,-83.96"/>
</g>
<!-- Node7&#45;&gt;Node6 -->
<g id="edge9" class="edge">
<title>Node7&#45;&gt;Node6</title>
<path fill="none" stroke="midnightblue" d="M113.26,-168.32C102.86,-160.18 87.08,-147.84 74.62,-138.09"/>
<polygon fill="midnightblue" stroke="midnightblue" points="76.66,-135.24 66.63,-131.83 72.35,-140.75 76.66,-135.24"/>
</g>
<!-- Node8&#45;&gt;Node4 -->
<g id="edge11" class="edge">
<title>Node8&#45;&gt;Node4</title>
<path fill="none" stroke="midnightblue" d="M178.31,-112.32C161.31,-103.66 134.97,-90.24 115.35,-80.25"/>
<polygon fill="midnightblue" stroke="midnightblue" points="116.83,-77.08 106.33,-75.65 113.65,-83.31 116.83,-77.08"/>
</g>
<!-- Node9&#45;&gt;Node3 -->
<g id="edge15" class="edge">
<title>Node9&#45;&gt;Node3</title>
<path fill="none" stroke="midnightblue" d="M312.68,-187.65C329.31,-196.07 352.36,-209 368.55,-218.9"/>
<polygon fill="midnightblue" stroke="midnightblue" points="366.86,-221.97 377.19,-224.32 370.58,-216.04 366.86,-221.97"/>
</g>
<!-- Node10 -->
<g id="node10" class="node">
<title>Node10</title>
<g id="a_node10"><a xlink:title=" ">
<polygon fill="white" stroke="#bfbfbf" points="492.84,-112.5 492.84,-131.5 541.84,-131.5 541.84,-112.5 492.84,-112.5"/>
<text text-anchor="middle" x="517.34" y="-119.5" font-family="Consolas" font-size="10.00">stdint.h</text>
</a>
</g>
</g>
<!-- Node9&#45;&gt;Node10 -->
<g id="edge14" class="edge">
<title>Node9&#45;&gt;Node10</title>
<path fill="none" stroke="midnightblue" d="M327.97,-168.91C364.36,-160.59 422.74,-147.04 482.49,-132.16"/>
<polygon fill="midnightblue" stroke="midnightblue" points="483.63,-135.49 492.48,-129.67 481.93,-128.69 483.63,-135.49"/>
</g>
<!-- Node11 -->
<g id="node11" class="node">
<title>Node11</title>
<g id="a_node11"><a xlink:title=" ">
<polygon fill="white" stroke="#bfbfbf" points="256.84,-112.5 256.84,-131.5 349.84,-131.5 349.84,-112.5 256.84,-112.5"/>
<text text-anchor="middle" x="303.34" y="-119.5" font-family="Consolas" font-size="10.00">libccc/text/ascii.h</text>
</a>
</g>
</g>
<!-- Node9&#45;&gt;Node11 -->
<g id="edge16" class="edge">
<title>Node9&#45;&gt;Node11</title>
<path fill="none" stroke="midnightblue" d="M294.16,-168.08C295.62,-160.93 297.71,-150.64 299.54,-141.69"/>
<polygon fill="midnightblue" stroke="midnightblue" points="302.99,-142.25 301.56,-131.75 296.13,-140.85 302.99,-142.25"/>
</g>
<!-- Node12 -->
<g id="node12" class="node">
<title>Node12</title>
<g id="a_node12"><a xlink:title=" ">
<polygon fill="white" stroke="#bfbfbf" points="367.84,-112.5 367.84,-131.5 474.84,-131.5 474.84,-112.5 367.84,-112.5"/>
<text text-anchor="middle" x="421.34" y="-119.5" font-family="Consolas" font-size="10.00">libccc/text/unicode.h</text>
</a>
</g>
</g>
<!-- Node9&#45;&gt;Node12 -->
<g id="edge17" class="edge">
<title>Node9&#45;&gt;Node12</title>
<path fill="none" stroke="midnightblue" d="M312.78,-168.44C334.01,-159.56 367.44,-145.56 391.6,-135.45"/>
<polygon fill="midnightblue" stroke="midnightblue" points="393.13,-138.61 401,-131.52 390.42,-132.15 393.13,-138.61"/>
</g>
<!-- Node13&#45;&gt;Node3 -->
<g id="edge20" class="edge">
<title>Node13&#45;&gt;Node3</title>
<path fill="none" stroke="midnightblue" d="M546.46,-187.55C514.67,-197.58 458.64,-214.12 422.17,-224.24"/>
<polygon fill="midnightblue" stroke="midnightblue" points="421.16,-220.89 412.44,-226.91 423.01,-227.64 421.16,-220.89"/>
</g>
<!-- Node13&#45;&gt;Node10 -->
<g id="edge19" class="edge">
<title>Node13&#45;&gt;Node10</title>
<path fill="none" stroke="midnightblue" d="M561.59,-168.08C553.87,-160.22 542.44,-148.57 533.13,-139.08"/>
<polygon fill="midnightblue" stroke="midnightblue" points="535.43,-136.44 525.93,-131.75 530.44,-141.34 535.43,-136.44"/>
</g>
<!-- Node14&#45;&gt;Node3 -->
<g id="edge22" class="edge">
<title>Node14&#45;&gt;Node3</title>
<path fill="none" stroke="midnightblue" d="M473.07,-187.65C459.56,-196.31 435.97,-209.73 416.85,-219.73"/>
<polygon fill="midnightblue" stroke="midnightblue" points="415.18,-216.65 407.88,-224.32 418.38,-222.87 415.18,-216.65"/>
</g>
<!-- Node15&#45;&gt;Node3 -->
<g id="edge24" class="edge">
<title>Node15&#45;&gt;Node3</title>
<path fill="none" stroke="midnightblue" d="M620.27,-187.25C568.53,-198.13 474.15,-217.04 422.76,-226.79"/>
<polygon fill="midnightblue" stroke="midnightblue" points="421.96,-223.38 412.78,-228.67 423.25,-230.26 421.96,-223.38"/>
</g>
<!-- Node16&#45;&gt;Node3 -->
<g id="edge28" class="edge">
<title>Node16&#45;&gt;Node3</title>
<path fill="none" stroke="midnightblue" d="M392.47,-187.75C394,-194.86 394.45,-205.14 393.82,-214.1"/>
<polygon fill="midnightblue" stroke="midnightblue" points="390.34,-213.71 392.51,-224.08 397.28,-214.62 390.34,-213.71"/>
</g>
<!-- Node16&#45;&gt;Node10 -->
<g id="edge27" class="edge">
<title>Node16&#45;&gt;Node10</title>
<path fill="none" stroke="midnightblue" d="M407.94,-168.44C429.34,-159.56 463.02,-145.56 487.37,-135.45"/>
<polygon fill="midnightblue" stroke="midnightblue" points="488.95,-138.58 496.84,-131.52 486.26,-132.12 488.95,-138.58"/>
</g>
<!-- Node17 -->
<g id="node17" class="node">
<title>Node17</title>
<g id="a_node17"><a xlink:title=" ">
<polygon fill="white" stroke="#bfbfbf" points="560.34,-112.5 560.34,-131.5 612.34,-131.5 612.34,-112.5 560.34,-112.5"/>
<text text-anchor="middle" x="586.34" y="-119.5" font-family="Consolas" font-size="10.00">stddef.h</text>
</a>
</g>
</g>
<!-- Node16&#45;&gt;Node17 -->
<g id="edge26" class="edge">
<title>Node16&#45;&gt;Node17</title>
<path fill="none" stroke="midnightblue" d="M418.88,-168.44C454.54,-158.77 512.52,-143.03 550.04,-132.85"/>
<polygon fill="midnightblue" stroke="midnightblue" points="551.31,-136.13 560.04,-130.14 549.47,-129.38 551.31,-136.13"/>
</g>
</g>
</svg>
        <g id="navigator" transform="translate(0 0)" fill="#404254">
                <rect fill="#f2f5e9" fill-opacity="0.5" stroke="#606060" stroke-width=".5" x="0" y="0" width="60" height="60"/>
                <use id="zoomplus" xlink:href="#zoomPlus" x="17" y="9" onmousedown="handleZoom(evt,'in')"/>
                <use id="zoomminus" xlink:href="#zoomMin" x="42" y="9" onmousedown="handleZoom(evt,'out')"/>
                <use id="reset" xlink:href="#resetDef" x="30" y="36" onmousedown="handleReset()"/>
                <g id="arrowUp" xlink:href="#dirArrow" transform="translate(30 24)" onmousedown="handlePan(0,-1)">
                  <use xlink:href="#rim" fill="#404040">
                        <set attributeName="fill" to="#808080" begin="arrowUp.mouseover" end="arrowUp.mouseout"/>
                  </use>
                  <path fill="none" stroke="white" stroke-width="1.5" d="M0,-3.0v7 M-2.5,-0.5L0,-3.0L2.5,-0.5"/>
                </g>
                <g id="arrowRight" xlink:href="#dirArrow" transform="rotate(90) translate(36 -43)" onmousedown="handlePan(1,0)">
                  <use xlink:href="#rim" fill="#404040">
                        <set attributeName="fill" to="#808080" begin="arrowRight.mouseover" end="arrowRight.mouseout"/>
                  </use>
                  <path fill="none" stroke="white" stroke-width="1.5" d="M0,-3.0v7 M-2.5,-0.5L0,-3.0L2.5,-0.5"/>
                </g>
                <g id="arrowDown" xlink:href="#dirArrow" transform="rotate(180) translate(-30 -48)" onmousedown="handlePan(0,1)">
                  <use xlink:href="#rim" fill="#404040">
                        <set attributeName="fill" to="#808080" begin="arrowDown.mouseover" end="arrowDown.mouseout"/>
                  </use>
                  <path fill="none" stroke="white" stroke-width="1.5" d="M0,-3.0v7 M-2.5,-0.5L0,-3.0L2.5,-0.5"/>
                </g>
                <g id="arrowLeft" xlink:href="#dirArrow" transform="rotate(270) translate(-36 17)" onmousedown="handlePan(-1,0)">
                  <use xlink:href="#rim" fill="#404040">
                        <set attributeName="fill" to="#808080" begin="arrowLeft.mouseover" end="arrowLeft.mouseout"/>
                  </use>
                  <path fill="none" stroke="white" stroke-width="1.5" d="M0,-3.0v7 M-2.5,-0.5L0,-3.0L2.5,-0.5"/>
                </g>
        </g>
        <svg viewBox="0 0 15 15" width="100%" height="30px" preserveAspectRatio="xMaxYMin meet">
         <g id="arrow_out" transform="scale(0.3 0.3)">
          <a xlink:href="complex_8h__incl_org.svg" target="_base">
           <rect id="button" ry="5" rx="5" y="6" x="6" height="38" width="38"
                fill="#f2f5e9" fill-opacity="0.5" stroke="#606060" stroke-width="1.0"/>
           <path id="arrow"
             d="M 11.500037,31.436501 C 11.940474,20.09759 22.043105,11.32322 32.158766,21.979434 L 37.068811,17.246167 C 37.068811,17.246167 37.088388,32 37.088388,32 L 22.160133,31.978069 C 22.160133,31.978069 26.997745,27.140456 26.997745,27.140456 C 18.528582,18.264221 13.291696,25.230495 11.500037,31.436501 z"
             style="fill:#404040;"/>
          </a>
         </g>
        </svg>
</svg>
