<?xml version="1.0" encoding="UTF-8" standalone="no"?>
<!DOCTYPE svg PUBLIC "-//W3C//DTD SVG 1.1//EN"
 "http://www.w3.org/Graphics/SVG/1.1/DTD/svg11.dtd">
<!-- Generated by graphviz version 2.43.0 (0)
 -->
<!-- Title: libccc/math/complex.h Pages: 1 -->
<svg width="1047pt" height="364pt"
 viewBox="0.00 0.00 1047.00 364.00" xmlns="http://www.w3.org/2000/svg" xmlns:xlink="http://www.w3.org/1999/xlink">
<g id="graph0" class="graph" transform="scale(1 1) rotate(0) translate(4 360)">
<title>libccc/math/complex.h</title>
<polygon fill="white" stroke="transparent" points="-4,4 -4,-360 1043,-360 1043,4 -4,4"/>
<!-- Node1 -->
<g id="node1" class="node">
<title>Node1</title>
<g id="a_node1"><a xlink:title=" ">
<polygon fill="#bfbfbf" stroke="black" points="912,-336.5 912,-355.5 1039,-355.5 1039,-336.5 912,-336.5"/>
<text text-anchor="middle" x="975.5" y="-343.5" font-family="Consolas" font-size="10.00">libccc/math/complex.h</text>
</a>
</g>
</g>
<!-- Node2 -->
<g id="node2" class="node">
<title>Node2</title>
<g id="a_node2"><a xlink:href="bool_8h.html" target="_top" xlink:title=" ">
<polygon fill="white" stroke="black" points="607,-280.5 607,-299.5 692,-299.5 692,-280.5 607,-280.5"/>
<text text-anchor="middle" x="649.5" y="-287.5" font-family="Consolas" font-size="10.00">libccc/bool.h</text>
</a>
</g>
</g>
<!-- Node1&#45;&gt;Node2 -->
<g id="edge1" class="edge">
<title>Node1&#45;&gt;Node2</title>
<path fill="none" stroke="midnightblue" d="M923.84,-336.44C863.25,-326.41 763.35,-309.86 702.28,-299.74"/>
<polygon fill="midnightblue" stroke="midnightblue" points="702.52,-296.24 692.08,-298.05 701.38,-303.14 702.52,-296.24"/>
</g>
<!-- Node11 -->
<g id="node11" class="node">
<title>Node11</title>
<g id="a_node11"><a xlink:href="float_8h.html" target="_top" xlink:title=" ">
<polygon fill="white" stroke="black" points="681.5,-56.5 681.5,-75.5 771.5,-75.5 771.5,-56.5 681.5,-56.5"/>
<text text-anchor="middle" x="726.5" y="-63.5" font-family="Consolas" font-size="10.00">libccc/float.h</text>
</a>
</g>
</g>
<!-- Node1&#45;&gt;Node11 -->
<g id="edge27" class="edge">
<title>Node1&#45;&gt;Node11</title>
<path fill="none" stroke="midnightblue" d="M975.5,-336.44C975.5,-317.94 975.5,-272.81 975.5,-235 975.5,-235 975.5,-235 975.5,-177 975.5,-92.82 854.95,-72.53 781.61,-67.97"/>
<polygon fill="midnightblue" stroke="midnightblue" points="781.77,-64.48 771.59,-67.43 781.39,-71.47 781.77,-64.48"/>
</g>
<!-- Node13 -->
<g id="node13" class="node">
<title>Node13</title>
<g id="a_node13"><a xlink:href="int_8h.html" target="_top" xlink:title=" ">
<polygon fill="white" stroke="black" points="897.5,-56.5 897.5,-75.5 977.5,-75.5 977.5,-56.5 897.5,-56.5"/>
<text text-anchor="middle" x="937.5" y="-63.5" font-family="Consolas" font-size="10.00">libccc/int.h</text>
</a>
</g>
</g>
<!-- Node1&#45;&gt;Node13 -->
<g id="edge26" class="edge">
<title>Node1&#45;&gt;Node13</title>
<path fill="none" stroke="midnightblue" d="M980.78,-336.23C991.23,-318.04 1013.5,-274.6 1013.5,-235 1013.5,-235 1013.5,-235 1013.5,-177 1013.5,-146.2 1007.03,-137.32 989.5,-112 981.32,-100.19 969.35,-89.54 958.95,-81.57"/>
<polygon fill="midnightblue" stroke="midnightblue" points="960.84,-78.62 950.7,-75.54 956.71,-84.27 960.84,-78.62"/>
</g>
<!-- Node3 -->
<g id="node3" class="node">
<title>Node3</title>
<g id="a_node3"><a xlink:href="libccc_8h.html" target="_top" xlink:title=" ">
<polygon fill="white" stroke="black" points="284,-224.5 284,-243.5 343,-243.5 343,-224.5 284,-224.5"/>
<text text-anchor="middle" x="313.5" y="-231.5" font-family="Consolas" font-size="10.00">libccc.h</text>
</a>
</g>
</g>
<!-- Node2&#45;&gt;Node3 -->
<g id="edge2" class="edge">
<title>Node2&#45;&gt;Node3</title>
<path fill="none" stroke="midnightblue" d="M606.95,-282.16C541.54,-271.65 417.2,-251.67 353.42,-241.42"/>
<polygon fill="midnightblue" stroke="midnightblue" points="353.78,-237.93 343.35,-239.8 352.67,-244.84 353.78,-237.93"/>
</g>
<!-- Node18 -->
<g id="node18" class="node">
<title>Node18</title>
<g id="a_node18"><a xlink:title=" ">
<polygon fill="white" stroke="#bfbfbf" points="617.5,-224.5 617.5,-243.5 681.5,-243.5 681.5,-224.5 617.5,-224.5"/>
<text text-anchor="middle" x="649.5" y="-231.5" font-family="Consolas" font-size="10.00">stdbool.h</text>
</a>
</g>
</g>
<!-- Node2&#45;&gt;Node18 -->
<g id="edge25" class="edge">
<title>Node2&#45;&gt;Node18</title>
<path fill="none" stroke="midnightblue" d="M649.5,-280.08C649.5,-273.01 649.5,-262.86 649.5,-253.99"/>
<polygon fill="midnightblue" stroke="midnightblue" points="653,-253.75 649.5,-243.75 646,-253.75 653,-253.75"/>
</g>
<!-- Node4 -->
<g id="node4" class="node">
<title>Node4</title>
<g id="a_node4"><a xlink:href="libccc__define_8h.html" target="_top" xlink:title=" ">
<polygon fill="white" stroke="black" points="95,-56.5 95,-75.5 190,-75.5 190,-56.5 95,-56.5"/>
<text text-anchor="middle" x="142.5" y="-63.5" font-family="Consolas" font-size="10.00">libccc_define.h</text>
</a>
</g>
</g>
<!-- Node3&#45;&gt;Node4 -->
<g id="edge3" class="edge">
<title>Node3&#45;&gt;Node4</title>
<path fill="none" stroke="midnightblue" d="M283.9,-229.54C239.66,-223.68 159.65,-210.25 142.5,-188 119.61,-158.3 128.64,-111.19 136.21,-85.39"/>
<polygon fill="midnightblue" stroke="midnightblue" points="139.58,-86.34 139.26,-75.75 132.9,-84.22 139.58,-86.34"/>
</g>
<!-- Node6 -->
<g id="node6" class="node">
<title>Node6</title>
<g id="a_node6"><a xlink:href="libccc__errors_8h.html" target="_top" xlink:title=" ">
<polygon fill="white" stroke="black" points="190,-112.5 190,-131.5 285,-131.5 285,-112.5 190,-112.5"/>
<text text-anchor="middle" x="237.5" y="-119.5" font-family="Consolas" font-size="10.00">libccc_errors.h</text>
</a>
</g>
</g>
<!-- Node3&#45;&gt;Node6 -->
<g id="edge5" class="edge">
<title>Node3&#45;&gt;Node6</title>
<path fill="none" stroke="midnightblue" d="M307.54,-224.37C294.99,-206.22 265.69,-163.8 249.24,-139.99"/>
<polygon fill="midnightblue" stroke="midnightblue" points="252,-137.83 243.44,-131.59 246.24,-141.81 252,-137.83"/>
</g>
<!-- Node7 -->
<g id="node7" class="node">
<title>Node7</title>
<g id="a_node7"><a xlink:href="libccc__config_8h.html" target="_top" xlink:title=" ">
<polygon fill="white" stroke="black" points="152,-168.5 152,-187.5 247,-187.5 247,-168.5 152,-168.5"/>
<text text-anchor="middle" x="199.5" y="-175.5" font-family="Consolas" font-size="10.00">libccc_config.h</text>
</a>
</g>
</g>
<!-- Node3&#45;&gt;Node7 -->
<g id="edge7" class="edge">
<title>Node3&#45;&gt;Node7</title>
<path fill="none" stroke="midnightblue" d="M295.44,-224.44C276.93,-215.68 247.92,-201.94 226.64,-191.86"/>
<polygon fill="midnightblue" stroke="midnightblue" points="228.01,-188.63 217.48,-187.52 225.02,-194.96 228.01,-188.63"/>
</g>
<!-- Node8 -->
<g id="node8" class="node">
<title>Node8</title>
<g id="a_node8"><a xlink:href="libccc__naming_8h.html" target="_top" xlink:title=" ">
<polygon fill="white" stroke="black" points="0,-168.5 0,-187.5 95,-187.5 95,-168.5 0,-168.5"/>
<text text-anchor="middle" x="47.5" y="-175.5" font-family="Consolas" font-size="10.00">libccc_naming.h</text>
</a>
</g>
</g>
<!-- Node3&#45;&gt;Node8 -->
<g id="edge10" class="edge">
<title>Node3&#45;&gt;Node8</title>
<path fill="none" stroke="midnightblue" d="M283.76,-226.96C239.22,-217.92 154.55,-200.73 99.6,-189.58"/>
<polygon fill="midnightblue" stroke="midnightblue" points="100.2,-186.13 89.7,-187.57 98.81,-192.99 100.2,-186.13"/>
</g>
<!-- Node9 -->
<g id="node9" class="node">
<title>Node9</title>
<g id="a_node9"><a xlink:href="math_8h.html" target="_top" xlink:title=" ">
<polygon fill="white" stroke="black" points="509.5,-168.5 509.5,-187.5 557.5,-187.5 557.5,-168.5 509.5,-168.5"/>
<text text-anchor="middle" x="533.5" y="-175.5" font-family="Consolas" font-size="10.00">math.h</text>
</a>
</g>
</g>
<!-- Node3&#45;&gt;Node9 -->
<g id="edge12" class="edge">
<title>Node3&#45;&gt;Node9</title>
<path fill="none" stroke="midnightblue" d="M343.17,-225.72C383.8,-215.74 456.59,-197.88 499.41,-187.37"/>
<polygon fill="midnightblue" stroke="midnightblue" points="500.48,-190.71 509.36,-184.93 498.81,-183.91 500.48,-190.71"/>
</g>
<!-- Node5 -->
<g id="node5" class="node">
<title>Node5</title>
<g id="a_node5"><a xlink:title=" ">
<polygon fill="white" stroke="#bfbfbf" points="108,-0.5 108,-19.5 177,-19.5 177,-0.5 108,-0.5"/>
<text text-anchor="middle" x="142.5" y="-7.5" font-family="Consolas" font-size="10.00">stdalign.h</text>
</a>
</g>
</g>
<!-- Node4&#45;&gt;Node5 -->
<g id="edge4" class="edge">
<title>Node4&#45;&gt;Node5</title>
<path fill="none" stroke="midnightblue" d="M142.5,-56.08C142.5,-49.01 142.5,-38.86 142.5,-29.99"/>
<polygon fill="midnightblue" stroke="midnightblue" points="146,-29.75 142.5,-19.75 139,-29.75 146,-29.75"/>
</g>
<!-- Node6&#45;&gt;Node4 -->
<g id="edge6" class="edge">
<title>Node6&#45;&gt;Node4</title>
<path fill="none" stroke="midnightblue" d="M222.24,-112.32C207.28,-103.82 184.25,-90.73 166.77,-80.8"/>
<polygon fill="midnightblue" stroke="midnightblue" points="168.15,-77.55 157.73,-75.65 164.69,-83.64 168.15,-77.55"/>
</g>
<!-- Node7&#45;&gt;Node4 -->
<g id="edge8" class="edge">
<title>Node7&#45;&gt;Node4</title>
<path fill="none" stroke="midnightblue" d="M195.03,-168.37C185.7,-150.38 164.03,-108.55 151.63,-84.63"/>
<polygon fill="midnightblue" stroke="midnightblue" points="154.66,-82.86 146.95,-75.59 148.45,-86.08 154.66,-82.86"/>
</g>
<!-- Node7&#45;&gt;Node6 -->
<g id="edge9" class="edge">
<title>Node7&#45;&gt;Node6</title>
<path fill="none" stroke="midnightblue" d="M205.77,-168.08C211.14,-160.46 219.02,-149.26 225.58,-139.94"/>
<polygon fill="midnightblue" stroke="midnightblue" points="228.45,-141.94 231.34,-131.75 222.72,-137.91 228.45,-141.94"/>
</g>
<!-- Node8&#45;&gt;Node4 -->
<g id="edge11" class="edge">
<title>Node8&#45;&gt;Node4</title>
<path fill="none" stroke="midnightblue" d="M54.95,-168.37C70.77,-150.05 107.91,-107.05 128.37,-83.36"/>
<polygon fill="midnightblue" stroke="midnightblue" points="131.19,-85.45 135.08,-75.59 125.9,-80.87 131.19,-85.45"/>
</g>
<!-- Node10 -->
<g id="node10" class="node">
<title>Node10</title>
<g id="a_node10"><a xlink:href="constants_8h.html" target="_top" xlink:title=" ">
<polygon fill="white" stroke="black" points="610,-112.5 610,-131.5 747,-131.5 747,-112.5 610,-112.5"/>
<text text-anchor="middle" x="678.5" y="-119.5" font-family="Consolas" font-size="10.00">libccc/math/constants.h</text>
</a>
</g>
</g>
<!-- Node9&#45;&gt;Node10 -->
<g id="edge13" class="edge">
<title>Node9&#45;&gt;Node10</title>
<path fill="none" stroke="midnightblue" d="M556.48,-168.44C580.66,-159.44 618.92,-145.19 646.15,-135.05"/>
<polygon fill="midnightblue" stroke="midnightblue" points="647.48,-138.29 655.63,-131.52 645.04,-131.73 647.48,-138.29"/>
</g>
<!-- Node12 -->
<g id="node12" class="node">
<title>Node12</title>
<g id="a_node12"><a xlink:href="math_2int_8h.html" target="_top" xlink:title=" ">
<polygon fill="white" stroke="black" points="803.5,-112.5 803.5,-131.5 909.5,-131.5 909.5,-112.5 803.5,-112.5"/>
<text text-anchor="middle" x="856.5" y="-119.5" font-family="Consolas" font-size="10.00">libccc/math/int.h</text>
</a>
</g>
</g>
<!-- Node9&#45;&gt;Node12 -->
<g id="edge16" class="edge">
<title>Node9&#45;&gt;Node12</title>
<path fill="none" stroke="midnightblue" d="M557.51,-172.99C607.33,-164.66 723.26,-145.27 795.25,-133.24"/>
<polygon fill="midnightblue" stroke="midnightblue" points="796.25,-136.62 805.53,-131.52 795.09,-129.72 796.25,-136.62"/>
</g>
<!-- Node15 -->
<g id="node15" class="node">
<title>Node15</title>
<g id="a_node15"><a xlink:href="math_2fixed_8h.html" target="_top" xlink:title=" ">
<polygon fill="white" stroke="black" points="341.5,-112.5 341.5,-131.5 457.5,-131.5 457.5,-112.5 341.5,-112.5"/>
<text text-anchor="middle" x="399.5" y="-119.5" font-family="Consolas" font-size="10.00">libccc/math/fixed.h</text>
</a>
</g>
</g>
<!-- Node9&#45;&gt;Node15 -->
<g id="edge20" class="edge">
<title>Node9&#45;&gt;Node15</title>
<path fill="none" stroke="midnightblue" d="M512.27,-168.44C490.12,-159.52 455.18,-145.44 430.06,-135.32"/>
<polygon fill="midnightblue" stroke="midnightblue" points="431.22,-132.01 420.63,-131.52 428.6,-138.5 431.22,-132.01"/>
</g>
<!-- Node17 -->
<g id="node17" class="node">
<title>Node17</title>
<g id="a_node17"><a xlink:href="math_2float_8h.html" target="_top" xlink:title=" ">
<polygon fill="white" stroke="black" points="475.5,-112.5 475.5,-131.5 591.5,-131.5 591.5,-112.5 475.5,-112.5"/>
<text text-anchor="middle" x="533.5" y="-119.5" font-family="Consolas" font-size="10.00">libccc/math/float.h</text>
</a>
</g>
</g>
<!-- Node9&#45;&gt;Node17 -->
<g id="edge23" class="edge">
<title>Node9&#45;&gt;Node17</title>
<path fill="none" stroke="midnightblue" d="M533.5,-168.08C533.5,-161.01 533.5,-150.86 533.5,-141.99"/>
<polygon fill="midnightblue" stroke="midnightblue" points="537,-141.75 533.5,-131.75 530,-141.75 537,-141.75"/>
</g>
<!-- Node10&#45;&gt;Node11 -->
<g id="edge14" class="edge">
<title>Node10&#45;&gt;Node11</title>
<path fill="none" stroke="midnightblue" d="M686.43,-112.08C693.35,-104.3 703.57,-92.8 711.95,-83.37"/>
<polygon fill="midnightblue" stroke="midnightblue" points="714.69,-85.55 718.72,-75.75 709.46,-80.9 714.69,-85.55"/>
</g>
<!-- Node11&#45;&gt;Node3 -->
<g id="edge15" class="edge">
<title>Node11&#45;&gt;Node3</title>
<path fill="none" stroke="midnightblue" d="M735.97,-75.61C749.17,-88.67 770.05,-113.88 756.5,-132 708.07,-196.76 453.06,-222.57 353.43,-230.28"/>
<polygon fill="midnightblue" stroke="midnightblue" points="352.89,-226.82 343.18,-231.06 353.41,-233.8 352.89,-226.82"/>
</g>
<!-- Node12&#45;&gt;Node13 -->
<g id="edge17" class="edge">
<title>Node12&#45;&gt;Node13</title>
<path fill="none" stroke="midnightblue" d="M869.51,-112.32C882.03,-103.98 901.18,-91.21 915.97,-81.35"/>
<polygon fill="midnightblue" stroke="midnightblue" points="918.14,-84.11 924.52,-75.65 914.26,-78.29 918.14,-84.11"/>
</g>
<!-- Node13&#45;&gt;Node3 -->
<g id="edge19" class="edge">
<title>Node13&#45;&gt;Node3</title>
<path fill="none" stroke="midnightblue" d="M937.57,-75.54C937.19,-89.44 934.34,-116.92 918.5,-132 836.7,-209.85 475.15,-228.03 353.56,-231.98"/>
<polygon fill="midnightblue" stroke="midnightblue" points="353.1,-228.49 343.22,-232.3 353.32,-235.49 353.1,-228.49"/>
</g>
<!-- Node14 -->
<g id="node14" class="node">
<title>Node14</title>
<g id="a_node14"><a xlink:title=" ">
<polygon fill="white" stroke="#bfbfbf" points="908,-0.5 908,-19.5 967,-19.5 967,-0.5 908,-0.5"/>
<text text-anchor="middle" x="937.5" y="-7.5" font-family="Consolas" font-size="10.00">stdint.h</text>
</a>
</g>
</g>
<!-- Node13&#45;&gt;Node14 -->
<g id="edge18" class="edge">
<title>Node13&#45;&gt;Node14</title>
<path fill="none" stroke="midnightblue" d="M937.5,-56.08C937.5,-49.01 937.5,-38.86 937.5,-29.99"/>
<polygon fill="midnightblue" stroke="midnightblue" points="941,-29.75 937.5,-19.75 934,-29.75 941,-29.75"/>
</g>
<!-- Node16 -->
<g id="node16" class="node">
<title>Node16</title>
<g id="a_node16"><a xlink:href="fixed_8h.html" target="_top" xlink:title=" ">
<polygon fill="white" stroke="black" points="311.5,-56.5 311.5,-75.5 401.5,-75.5 401.5,-56.5 311.5,-56.5"/>
<text text-anchor="middle" x="356.5" y="-63.5" font-family="Consolas" font-size="10.00">libccc/fixed.h</text>
</a>
</g>
</g>
<!-- Node15&#45;&gt;Node16 -->
<g id="edge21" class="edge">
<title>Node15&#45;&gt;Node16</title>
<path fill="none" stroke="midnightblue" d="M392.4,-112.08C386.26,-104.38 377.23,-93.03 369.76,-83.65"/>
<polygon fill="midnightblue" stroke="midnightblue" points="372.44,-81.39 363.47,-75.75 366.96,-85.75 372.44,-81.39"/>
</g>
<!-- Node16&#45;&gt;Node3 -->
<g id="edge22" class="edge">
<title>Node16&#45;&gt;Node3</title>
<path fill="none" stroke="midnightblue" d="M350.8,-75.57C345.25,-84.35 336.99,-98.57 332.5,-112 320.85,-146.83 316.27,-189.75 314.52,-213.98"/>
<polygon fill="midnightblue" stroke="midnightblue" points="311.01,-214.06 313.88,-224.26 318,-214.5 311.01,-214.06"/>
</g>
<!-- Node17&#45;&gt;Node11 -->
<g id="edge24" class="edge">
<title>Node17&#45;&gt;Node11</title>
<path fill="none" stroke="midnightblue" d="M564.08,-112.44C597.11,-103.2 649.89,-88.44 686.27,-78.26"/>
<polygon fill="midnightblue" stroke="midnightblue" points="687.37,-81.58 696.06,-75.52 685.49,-74.84 687.37,-81.58"/>
</g>
</g>
</svg>
