<?xml version="1.0" encoding="UTF-8" standalone="no"?>
<!DOCTYPE svg PUBLIC "-//W3C//DTD SVG 1.1//EN"
 "http://www.w3.org/Graphics/SVG/1.1/DTD/svg11.dtd">
<!-- Generated by graphviz version 2.43.0 (0)
 -->
<!-- Title: libccc/math/constants.h Pages: 1 -->
<!--zoomable 364 -->
<svg id="main" version="1.1" xmlns="http://www.w3.org/2000/svg" xmlns:xlink="http://www.w3.org/1999/xlink" xml:space="preserve" onload="init(evt)">
<style type="text/css"><![CDATA[
.edge:hover path { stroke: red; }
.edge:hover polygon { stroke: red; fill: red; }
]]></style>
<script type="text/javascript"><![CDATA[
var edges = document.getElementsByTagName('g');
if (edges && edges.length) {
  for (var i=0;i<edges.length;i++) {
    if (edges[i].id.substr(0,4)=='edge') {
      edges[i].setAttribute('class','edge');
    }
  }
}
]]></script>
        <defs>
                <circle id="rim" cx="0" cy="0" r="7"/>
                <circle id="rim2" cx="0" cy="0" r="3.5"/>
                <g id="zoomPlus">
                        <use xlink:href="#rim" fill="#404040">
                                <set attributeName="fill" to="#808080" begin="zoomplus.mouseover" end="zoomplus.mouseout"/>
                        </use>
                        <path d="M-4,0h8M0,-4v8" fill="none" stroke="white" stroke-width="1.5" pointer-events="none"/>
                </g>
                <g id="zoomMin">
                        <use xlink:href="#rim" fill="#404040">
                                <set attributeName="fill" to="#808080" begin="zoomminus.mouseover" end="zoomminus.mouseout"/>
                        </use>
                        <path d="M-4,0h8" fill="none" stroke="white" stroke-width="1.5" pointer-events="none"/>
                </g>
                <g id="dirArrow">
                        <path fill="none" stroke="white" stroke-width="1.5" d="M0,-3.0v7 M-2.5,-0.5L0,-3.0L2.5,-0.5"/>
                </g>
               <g id="resetDef">
                       <use xlink:href="#rim2" fill="#404040">
                               <set attributeName="fill" to="#808080" begin="reset.mouseover" end="reset.mouseout"/>
                       </use>
               </g>
        </defs>

<script type="text/javascript">
var viewWidth = 741;
var viewHeight = 364;
var sectionId = 'dynsection-0';
</script>
<script xlink:href="svgpan.js"/>
<svg id="graph" class="graph">
<g id="viewport">
<title>libccc/math/constants.h</title>
<polygon fill="white" stroke="transparent" points="-4,4 -4,-360 737.01,-360 737.01,4 -4,4"/>
<!-- Node1 -->
<g id="node1" class="node">
<title>Node1</title>
<g id="a_node1"><a xlink:title=" ">
<polygon fill="#bfbfbf" stroke="black" points="224.5,-336.5 224.5,-355.5 361.5,-355.5 361.5,-336.5 224.5,-336.5"/>
<text text-anchor="middle" x="293" y="-343.5" font-family="Consolas" font-size="10.00">libccc/math/constants.h</text>
</a>
</g>
</g>
<!-- Node2 -->
<g id="node2" class="node">
<title>Node2</title>
<g id="a_node2"><a xlink:href="float_8h.html" target="_top" xlink:title=" ">
<polygon fill="white" stroke="black" points="285,-280.5 285,-299.5 375,-299.5 375,-280.5 285,-280.5"/>
<text text-anchor="middle" x="330" y="-287.5" font-family="Consolas" font-size="10.00">libccc/float.h</text>
</a>
</g>
</g>
<!-- Node1&#45;&gt;Node2 -->
<g id="edge1" class="edge">
<title>Node1&#45;&gt;Node2</title>
<path fill="none" stroke="midnightblue" d="M299.11,-336.08C304.28,-328.53 311.85,-317.49 318.19,-308.23"/>
<polygon fill="midnightblue" stroke="midnightblue" points="321.24,-309.98 324,-299.75 315.46,-306.02 321.24,-309.98"/>
</g>
<!-- Node3 -->
<g id="node3" class="node">
<title>Node3</title>
<g id="a_node3"><a xlink:href="libccc_8h.html" target="_top" xlink:title=" ">
<polygon fill="white" stroke="black" points="429.5,-224.5 429.5,-243.5 488.5,-243.5 488.5,-224.5 429.5,-224.5"/>
<text text-anchor="middle" x="459" y="-231.5" font-family="Consolas" font-size="10.00">libccc.h</text>
</a>
</g>
</g>
<!-- Node2&#45;&gt;Node3 -->
<g id="edge2" class="edge">
<title>Node2&#45;&gt;Node3</title>
<path fill="none" stroke="midnightblue" d="M350.44,-280.44C371.67,-271.56 405.1,-257.56 429.25,-247.45"/>
<polygon fill="midnightblue" stroke="midnightblue" points="430.78,-250.61 438.66,-243.52 428.08,-244.15 430.78,-250.61"/>
</g>
<!-- Node4 -->
<g id="node4" class="node">
<title>Node4</title>
<g id="a_node4"><a xlink:href="libccc__define_8h.html" target="_top" xlink:title=" ">
<polygon fill="white" stroke="black" points="600.5,-56.5 600.5,-75.5 695.5,-75.5 695.5,-56.5 600.5,-56.5"/>
<text text-anchor="middle" x="648" y="-63.5" font-family="Consolas" font-size="10.00">libccc_define.h</text>
</a>
</g>
</g>
<!-- Node3&#45;&gt;Node4 -->
<g id="edge3" class="edge">
<title>Node3&#45;&gt;Node4</title>
<path fill="none" stroke="midnightblue" d="M488.58,-232.56C551.25,-230.95 694.12,-223.39 724,-188 753.55,-153.01 700.94,-105.55 669.31,-81.81"/>
<polygon fill="midnightblue" stroke="midnightblue" points="671.18,-78.83 661.03,-75.77 667.05,-84.49 671.18,-78.83"/>
</g>
<!-- Node6 -->
<g id="node6" class="node">
<title>Node6</title>
<g id="a_node6"><a xlink:href="libccc__errors_8h.html" target="_top" xlink:title=" ">
<polygon fill="white" stroke="black" points="505.5,-112.5 505.5,-131.5 600.5,-131.5 600.5,-112.5 505.5,-112.5"/>
<text text-anchor="middle" x="553" y="-119.5" font-family="Consolas" font-size="10.00">libccc_errors.h</text>
</a>
</g>
</g>
<!-- Node3&#45;&gt;Node6 -->
<g id="edge5" class="edge">
<title>Node3&#45;&gt;Node6</title>
<path fill="none" stroke="midnightblue" d="M462.97,-224.39C469.23,-211.33 482.34,-186.12 498,-168 507.93,-156.51 521.03,-145.67 531.95,-137.5"/>
<polygon fill="midnightblue" stroke="midnightblue" points="534.1,-140.27 540.14,-131.57 529.99,-134.6 534.1,-140.27"/>
</g>
<!-- Node7 -->
<g id="node7" class="node">
<title>Node7</title>
<g id="a_node7"><a xlink:href="libccc__config_8h.html" target="_top" xlink:title=" ">
<polygon fill="white" stroke="black" points="506.5,-168.5 506.5,-187.5 601.5,-187.5 601.5,-168.5 506.5,-168.5"/>
<text text-anchor="middle" x="554" y="-175.5" font-family="Consolas" font-size="10.00">libccc_config.h</text>
</a>
</g>
</g>
<!-- Node3&#45;&gt;Node7 -->
<g id="edge7" class="edge">
<title>Node3&#45;&gt;Node7</title>
<path fill="none" stroke="midnightblue" d="M474.26,-224.32C489.22,-215.82 512.25,-202.73 529.73,-192.8"/>
<polygon fill="midnightblue" stroke="midnightblue" points="531.81,-195.64 538.77,-187.65 528.35,-189.55 531.81,-195.64"/>
</g>
<!-- Node8 -->
<g id="node8" class="node">
<title>Node8</title>
<g id="a_node8"><a xlink:href="libccc__naming_8h.html" target="_top" xlink:title=" ">
<polygon fill="white" stroke="black" points="619.5,-168.5 619.5,-187.5 714.5,-187.5 714.5,-168.5 619.5,-168.5"/>
<text text-anchor="middle" x="667" y="-175.5" font-family="Consolas" font-size="10.00">libccc_naming.h</text>
</a>
</g>
</g>
<!-- Node3&#45;&gt;Node8 -->
<g id="edge10" class="edge">
<title>Node3&#45;&gt;Node8</title>
<path fill="none" stroke="midnightblue" d="M488.8,-225.26C524.32,-216.04 583.93,-200.57 624.33,-190.08"/>
<polygon fill="midnightblue" stroke="midnightblue" points="625.37,-193.42 634.17,-187.52 623.61,-186.65 625.37,-193.42"/>
</g>
<!-- Node9 -->
<g id="node9" class="node">
<title>Node9</title>
<g id="a_node9"><a xlink:href="math_8h.html" target="_top" xlink:title=" ">
<polygon fill="white" stroke="black" points="233,-168.5 233,-187.5 281,-187.5 281,-168.5 233,-168.5"/>
<text text-anchor="middle" x="257" y="-175.5" font-family="Consolas" font-size="10.00">math.h</text>
</a>
</g>
</g>
<!-- Node3&#45;&gt;Node9 -->
<g id="edge12" class="edge">
<title>Node3&#45;&gt;Node9</title>
<path fill="none" stroke="midnightblue" d="M429.19,-225.03C392.32,-215.18 329.69,-198.43 290.99,-188.09"/>
<polygon fill="midnightblue" stroke="midnightblue" points="291.79,-184.68 281.22,-185.48 289.98,-191.44 291.79,-184.68"/>
</g>
<!-- Node5 -->
<g id="node5" class="node">
<title>Node5</title>
<g id="a_node5"><a xlink:title=" ">
<polygon fill="white" stroke="#bfbfbf" points="613.5,-0.5 613.5,-19.5 682.5,-19.5 682.5,-0.5 613.5,-0.5"/>
<text text-anchor="middle" x="648" y="-7.5" font-family="Consolas" font-size="10.00">stdalign.h</text>
</a>
</g>
</g>
<!-- Node4&#45;&gt;Node5 -->
<g id="edge4" class="edge">
<title>Node4&#45;&gt;Node5</title>
<path fill="none" stroke="midnightblue" d="M648,-56.08C648,-49.01 648,-38.86 648,-29.99"/>
<polygon fill="midnightblue" stroke="midnightblue" points="651.5,-29.75 648,-19.75 644.5,-29.75 651.5,-29.75"/>
</g>
<!-- Node6&#45;&gt;Node4 -->
<g id="edge6" class="edge">
<title>Node6&#45;&gt;Node4</title>
<path fill="none" stroke="midnightblue" d="M568.26,-112.32C583.22,-103.82 606.25,-90.73 623.73,-80.8"/>
<polygon fill="midnightblue" stroke="midnightblue" points="625.81,-83.64 632.77,-75.65 622.35,-77.55 625.81,-83.64"/>
</g>
<!-- Node7&#45;&gt;Node4 -->
<g id="edge8" class="edge">
<title>Node7&#45;&gt;Node4</title>
<path fill="none" stroke="midnightblue" d="M567.61,-168.19C579.74,-159.88 597.46,-146.55 610,-132 622.38,-117.64 632.93,-98.69 639.75,-84.96"/>
<polygon fill="midnightblue" stroke="midnightblue" points="643.05,-86.17 644.2,-75.64 636.73,-83.15 643.05,-86.17"/>
</g>
<!-- Node7&#45;&gt;Node6 -->
<g id="edge9" class="edge">
<title>Node7&#45;&gt;Node6</title>
<path fill="none" stroke="midnightblue" d="M553.83,-168.08C553.7,-161.01 553.52,-150.86 553.35,-141.99"/>
<polygon fill="midnightblue" stroke="midnightblue" points="556.85,-141.68 553.16,-131.75 549.85,-141.81 556.85,-141.68"/>
</g>
<!-- Node8&#45;&gt;Node4 -->
<g id="edge11" class="edge">
<title>Node8&#45;&gt;Node4</title>
<path fill="none" stroke="midnightblue" d="M665.51,-168.37C662.44,-150.62 655.37,-109.67 651.21,-85.6"/>
<polygon fill="midnightblue" stroke="midnightblue" points="654.64,-84.85 649.48,-75.59 647.74,-86.04 654.64,-84.85"/>
</g>
<!-- Node9&#45;&gt;Node1 -->
<g id="edge13" class="edge">
<title>Node9&#45;&gt;Node1</title>
<path fill="none" stroke="midnightblue" d="M257.74,-187.63C259.59,-207.65 265.07,-258.68 276,-300 278.37,-308.98 281.9,-318.66 285.12,-326.72"/>
<polygon fill="midnightblue" stroke="midnightblue" points="281.99,-328.32 289.06,-336.21 288.46,-325.63 281.99,-328.32"/>
</g>
<!-- Node10 -->
<g id="node10" class="node">
<title>Node10</title>
<g id="a_node10"><a xlink:href="math_2int_8h.html" target="_top" xlink:title=" ">
<polygon fill="white" stroke="black" points="268,-112.5 268,-131.5 374,-131.5 374,-112.5 268,-112.5"/>
<text text-anchor="middle" x="321" y="-119.5" font-family="Consolas" font-size="10.00">libccc/math/int.h</text>
</a>
</g>
</g>
<!-- Node9&#45;&gt;Node10 -->
<g id="edge14" class="edge">
<title>Node9&#45;&gt;Node10</title>
<path fill="none" stroke="midnightblue" d="M267.28,-168.32C276.84,-160.26 291.28,-148.08 302.78,-138.37"/>
<polygon fill="midnightblue" stroke="midnightblue" points="305.14,-140.96 310.53,-131.83 300.63,-135.61 305.14,-140.96"/>
</g>
<!-- Node13 -->
<g id="node13" class="node">
<title>Node13</title>
<g id="a_node13"><a xlink:href="math_2fixed_8h.html" target="_top" xlink:title=" ">
<polygon fill="white" stroke="black" points="134,-112.5 134,-131.5 250,-131.5 250,-112.5 134,-112.5"/>
<text text-anchor="middle" x="192" y="-119.5" font-family="Consolas" font-size="10.00">libccc/math/fixed.h</text>
</a>
</g>
</g>
<!-- Node9&#45;&gt;Node13 -->
<g id="edge18" class="edge">
<title>Node9&#45;&gt;Node13</title>
<path fill="none" stroke="midnightblue" d="M246.56,-168.32C236.85,-160.26 222.18,-148.08 210.5,-138.37"/>
<polygon fill="midnightblue" stroke="midnightblue" points="212.56,-135.53 202.63,-131.83 208.09,-140.92 212.56,-135.53"/>
</g>
<!-- Node15 -->
<g id="node15" class="node">
<title>Node15</title>
<g id="a_node15"><a xlink:href="math_2float_8h.html" target="_top" xlink:title=" ">
<polygon fill="white" stroke="black" points="0,-112.5 0,-131.5 116,-131.5 116,-112.5 0,-112.5"/>
<text text-anchor="middle" x="58" y="-119.5" font-family="Consolas" font-size="10.00">libccc/math/float.h</text>
</a>
</g>
</g>
<!-- Node9&#45;&gt;Node15 -->
<g id="edge21" class="edge">
<title>Node9&#45;&gt;Node15</title>
<path fill="none" stroke="midnightblue" d="M233,-170.49C199.93,-161.51 139.87,-145.22 99.46,-134.25"/>
<polygon fill="midnightblue" stroke="midnightblue" points="100.2,-130.82 89.63,-131.58 98.37,-137.58 100.2,-130.82"/>
</g>
<!-- Node11 -->
<g id="node11" class="node">
<title>Node11</title>
<g id="a_node11"><a xlink:href="int_8h.html" target="_top" xlink:title=" ">
<polygon fill="white" stroke="black" points="364,-56.5 364,-75.5 444,-75.5 444,-56.5 364,-56.5"/>
<text text-anchor="middle" x="404" y="-63.5" font-family="Consolas" font-size="10.00">libccc/int.h</text>
</a>
</g>
</g>
<!-- Node10&#45;&gt;Node11 -->
<g id="edge15" class="edge">
<title>Node10&#45;&gt;Node11</title>
<path fill="none" stroke="midnightblue" d="M334.34,-112.32C347.16,-103.98 366.78,-91.21 381.94,-81.35"/>
<polygon fill="midnightblue" stroke="midnightblue" points="384.22,-84.04 390.7,-75.65 380.41,-78.17 384.22,-84.04"/>
</g>
<!-- Node11&#45;&gt;Node3 -->
<g id="edge17" class="edge">
<title>Node11&#45;&gt;Node3</title>
<path fill="none" stroke="midnightblue" d="M406.84,-75.57C415.38,-101.34 440.97,-178.59 452.84,-214.39"/>
<polygon fill="midnightblue" stroke="midnightblue" points="449.58,-215.68 456.04,-224.08 456.22,-213.48 449.58,-215.68"/>
</g>
<!-- Node12 -->
<g id="node12" class="node">
<title>Node12</title>
<g id="a_node12"><a xlink:title=" ">
<polygon fill="white" stroke="#bfbfbf" points="374.5,-0.5 374.5,-19.5 433.5,-19.5 433.5,-0.5 374.5,-0.5"/>
<text text-anchor="middle" x="404" y="-7.5" font-family="Consolas" font-size="10.00">stdint.h</text>
</a>
</g>
</g>
<!-- Node11&#45;&gt;Node12 -->
<g id="edge16" class="edge">
<title>Node11&#45;&gt;Node12</title>
<path fill="none" stroke="midnightblue" d="M404,-56.08C404,-49.01 404,-38.86 404,-29.99"/>
<polygon fill="midnightblue" stroke="midnightblue" points="407.5,-29.75 404,-19.75 400.5,-29.75 407.5,-29.75"/>
</g>
<!-- Node14 -->
<g id="node14" class="node">
<title>Node14</title>
<g id="a_node14"><a xlink:href="fixed_8h.html" target="_top" xlink:title=" ">
<polygon fill="white" stroke="black" points="184,-56.5 184,-75.5 274,-75.5 274,-56.5 184,-56.5"/>
<text text-anchor="middle" x="229" y="-63.5" font-family="Consolas" font-size="10.00">libccc/fixed.h</text>
</a>
</g>
</g>
<!-- Node13&#45;&gt;Node14 -->
<g id="edge19" class="edge">
<title>Node13&#45;&gt;Node14</title>
<path fill="none" stroke="midnightblue" d="M198.11,-112.08C203.28,-104.53 210.85,-93.49 217.19,-84.23"/>
<polygon fill="midnightblue" stroke="midnightblue" points="220.24,-85.98 223,-75.75 214.46,-82.02 220.24,-85.98"/>
</g>
<!-- Node14&#45;&gt;Node3 -->
<g id="edge20" class="edge">
<title>Node14&#45;&gt;Node3</title>
<path fill="none" stroke="midnightblue" d="M274.3,-71.58C307.2,-76.84 351.33,-88.07 383,-112 392.51,-119.18 430.55,-183.74 448.94,-215.5"/>
<polygon fill="midnightblue" stroke="midnightblue" points="445.94,-217.3 453.97,-224.21 452,-213.8 445.94,-217.3"/>
</g>
<!-- Node15&#45;&gt;Node2 -->
<g id="edge22" class="edge">
<title>Node15&#45;&gt;Node2</title>
<path fill="none" stroke="midnightblue" d="M72.1,-131.61C116.34,-158.6 252.67,-241.81 307.16,-275.06"/>
<polygon fill="midnightblue" stroke="midnightblue" points="305.4,-278.09 315.76,-280.31 309.05,-272.11 305.4,-278.09"/>
</g>
</g>
</svg>
        <g id="navigator" transform="translate(0 0)" fill="#404254">
                <rect fill="#f2f5e9" fill-opacity="0.5" stroke="#606060" stroke-width=".5" x="0" y="0" width="60" height="60"/>
                <use id="zoomplus" xlink:href="#zoomPlus" x="17" y="9" onmousedown="handleZoom(evt,'in')"/>
                <use id="zoomminus" xlink:href="#zoomMin" x="42" y="9" onmousedown="handleZoom(evt,'out')"/>
                <use id="reset" xlink:href="#resetDef" x="30" y="36" onmousedown="handleReset()"/>
                <g id="arrowUp" xlink:href="#dirArrow" transform="translate(30 24)" onmousedown="handlePan(0,-1)">
                  <use xlink:href="#rim" fill="#404040">
                        <set attributeName="fill" to="#808080" begin="arrowUp.mouseover" end="arrowUp.mouseout"/>
                  </use>
                  <path fill="none" stroke="white" stroke-width="1.5" d="M0,-3.0v7 M-2.5,-0.5L0,-3.0L2.5,-0.5"/>
                </g>
                <g id="arrowRight" xlink:href="#dirArrow" transform="rotate(90) translate(36 -43)" onmousedown="handlePan(1,0)">
                  <use xlink:href="#rim" fill="#404040">
                        <set attributeName="fill" to="#808080" begin="arrowRight.mouseover" end="arrowRight.mouseout"/>
                  </use>
                  <path fill="none" stroke="white" stroke-width="1.5" d="M0,-3.0v7 M-2.5,-0.5L0,-3.0L2.5,-0.5"/>
                </g>
                <g id="arrowDown" xlink:href="#dirArrow" transform="rotate(180) translate(-30 -48)" onmousedown="handlePan(0,1)">
                  <use xlink:href="#rim" fill="#404040">
                        <set attributeName="fill" to="#808080" begin="arrowDown.mouseover" end="arrowDown.mouseout"/>
                  </use>
                  <path fill="none" stroke="white" stroke-width="1.5" d="M0,-3.0v7 M-2.5,-0.5L0,-3.0L2.5,-0.5"/>
                </g>
                <g id="arrowLeft" xlink:href="#dirArrow" transform="rotate(270) translate(-36 17)" onmousedown="handlePan(-1,0)">
                  <use xlink:href="#rim" fill="#404040">
                        <set attributeName="fill" to="#808080" begin="arrowLeft.mouseover" end="arrowLeft.mouseout"/>
                  </use>
                  <path fill="none" stroke="white" stroke-width="1.5" d="M0,-3.0v7 M-2.5,-0.5L0,-3.0L2.5,-0.5"/>
                </g>
        </g>
        <svg viewBox="0 0 15 15" width="100%" height="30px" preserveAspectRatio="xMaxYMin meet">
         <g id="arrow_out" transform="scale(0.3 0.3)">
          <a xlink:href="constants_8h__incl_org.svg" target="_base">
           <rect id="button" ry="5" rx="5" y="6" x="6" height="38" width="38"
                fill="#f2f5e9" fill-opacity="0.5" stroke="#606060" stroke-width="1.0"/>
           <path id="arrow"
             d="M 11.500037,31.436501 C 11.940474,20.09759 22.043105,11.32322 32.158766,21.979434 L 37.068811,17.246167 C 37.068811,17.246167 37.088388,32 37.088388,32 L 22.160133,31.978069 C 22.160133,31.978069 26.997745,27.140456 26.997745,27.140456 C 18.528582,18.264221 13.291696,25.230495 11.500037,31.436501 z"
             style="fill:#404040;"/>
          </a>
         </g>
        </svg>
</svg>
