<?xml version="1.0" encoding="UTF-8" standalone="no"?>
<!DOCTYPE svg PUBLIC "-//W3C//DTD SVG 1.1//EN"
 "http://www.w3.org/Graphics/SVG/1.1/DTD/svg11.dtd">
<!-- Generated by graphviz version 3.0.0 (20220226.1711)
 -->
<!-- Title: libccc/math/constants.h Pages: 1 -->
<svg width="273pt" height="364pt"
 viewBox="0.00 0.00 272.61 364.00" xmlns="http://www.w3.org/2000/svg" xmlns:xlink="http://www.w3.org/1999/xlink">
<g id="graph0" class="graph" transform="scale(1 1) rotate(0) translate(4 360)">
<title>libccc/math/constants.h</title>
<polygon fill="white" stroke="transparent" points="-4,4 -4,-360 268.61,-360 268.61,4 -4,4"/>
<!-- Node1 -->
<g id="node1" class="node">
<title>Node1</title>
<g id="a_node1"><a xlink:title=" ">
<polygon fill="#bfbfbf" stroke="black" points="59.61,-336.5 59.61,-355.5 180.61,-355.5 180.61,-336.5 59.61,-336.5"/>
<text text-anchor="middle" x="120.11" y="-343.5" font-family="Consolas" font-size="10.00">libccc/math/constants.h</text>
</a>
</g>
</g>
<!-- Node2 -->
<g id="node2" class="node">
<title>Node2</title>
<g id="a_node2"><a xlink:href="float_8h.html" target="_top" xlink:title=" ">
<polygon fill="white" stroke="black" points="84.11,-280.5 84.11,-299.5 156.11,-299.5 156.11,-280.5 84.11,-280.5"/>
<text text-anchor="middle" x="120.11" y="-287.5" font-family="Consolas" font-size="10.00">libccc/float.h</text>
</a>
</g>
</g>
<!-- Node1&#45;&gt;Node2 -->
<g id="edge1" class="edge">
<title>Node1&#45;&gt;Node2</title>
<path fill="none" stroke="midnightblue" d="M120.11,-336.08C120.11,-329.01 120.11,-318.86 120.11,-309.99"/>
<polygon fill="midnightblue" stroke="midnightblue" points="123.61,-309.75 120.11,-299.75 116.61,-309.75 123.61,-309.75"/>
</g>
<!-- Node3 -->
<g id="node3" class="node">
<title>Node3</title>
<g id="a_node3"><a xlink:href="libccc_8h.html" target="_top" xlink:title=" ">
<polygon fill="white" stroke="black" points="95.11,-224.5 95.11,-243.5 145.11,-243.5 145.11,-224.5 95.11,-224.5"/>
<text text-anchor="middle" x="120.11" y="-231.5" font-family="Consolas" font-size="10.00">libccc.h</text>
</a>
</g>
</g>
<!-- Node2&#45;&gt;Node3 -->
<g id="edge2" class="edge">
<title>Node2&#45;&gt;Node3</title>
<path fill="none" stroke="midnightblue" d="M120.11,-280.08C120.11,-273.01 120.11,-262.86 120.11,-253.99"/>
<polygon fill="midnightblue" stroke="midnightblue" points="123.61,-253.75 120.11,-243.75 116.61,-253.75 123.61,-253.75"/>
</g>
<!-- Node4 -->
<g id="node4" class="node">
<title>Node4</title>
<g id="a_node4"><a xlink:href="libccc__define_8h.html" target="_top" xlink:title=" ">
<polygon fill="white" stroke="black" points="45.11,-56.5 45.11,-75.5 127.11,-75.5 127.11,-56.5 45.11,-56.5"/>
<text text-anchor="middle" x="86.11" y="-63.5" font-family="Consolas" font-size="10.00">libccc_define.h</text>
</a>
</g>
</g>
<!-- Node3&#45;&gt;Node4 -->
<g id="edge3" class="edge">
<title>Node3&#45;&gt;Node4</title>
<path fill="none" stroke="midnightblue" d="M101.93,-224.39C73.94,-209.93 21.58,-177.79 3.11,-132 -0.22,-123.76 -1.44,-119.64 3.11,-112 12.2,-96.72 28.49,-86.31 44.25,-79.39"/>
<polygon fill="midnightblue" stroke="midnightblue" points="45.94,-82.48 53.92,-75.51 43.34,-75.98 45.94,-82.48"/>
</g>
<!-- Node6 -->
<g id="node6" class="node">
<title>Node6</title>
<g id="a_node6"><a xlink:href="libccc__errors_8h.html" target="_top" xlink:title=" ">
<polygon fill="white" stroke="black" points="12.11,-112.5 12.11,-131.5 92.11,-131.5 92.11,-112.5 12.11,-112.5"/>
<text text-anchor="middle" x="52.11" y="-119.5" font-family="Consolas" font-size="10.00">libccc_errors.h</text>
</a>
</g>
</g>
<!-- Node3&#45;&gt;Node6 -->
<g id="edge5" class="edge">
<title>Node3&#45;&gt;Node6</title>
<path fill="none" stroke="midnightblue" d="M106.68,-224.23C95.32,-216.13 79.45,-203.1 70.11,-188 61.35,-173.84 56.76,-155.36 54.42,-141.72"/>
<polygon fill="midnightblue" stroke="midnightblue" points="57.85,-141 52.94,-131.61 50.93,-142.01 57.85,-141"/>
</g>
<!-- Node7 -->
<g id="node7" class="node">
<title>Node7</title>
<g id="a_node7"><a xlink:href="libccc__config_8h.html" target="_top" xlink:title=" ">
<polygon fill="white" stroke="black" points="79.11,-168.5 79.11,-187.5 161.11,-187.5 161.11,-168.5 79.11,-168.5"/>
<text text-anchor="middle" x="120.11" y="-175.5" font-family="Consolas" font-size="10.00">libccc_config.h</text>
</a>
</g>
</g>
<!-- Node3&#45;&gt;Node7 -->
<g id="edge7" class="edge">
<title>Node3&#45;&gt;Node7</title>
<path fill="none" stroke="midnightblue" d="M120.11,-224.08C120.11,-217.01 120.11,-206.86 120.11,-197.99"/>
<polygon fill="midnightblue" stroke="midnightblue" points="123.61,-197.75 120.11,-187.75 116.61,-197.75 123.61,-197.75"/>
</g>
<!-- Node8 -->
<g id="node8" class="node">
<title>Node8</title>
<g id="a_node8"><a xlink:href="libccc__naming_8h.html" target="_top" xlink:title=" ">
<polygon fill="white" stroke="black" points="148.61,-112.5 148.61,-131.5 235.61,-131.5 235.61,-112.5 148.61,-112.5"/>
<text text-anchor="middle" x="192.11" y="-119.5" font-family="Consolas" font-size="10.00">libccc_naming.h</text>
</a>
</g>
</g>
<!-- Node3&#45;&gt;Node8 -->
<g id="edge10" class="edge">
<title>Node3&#45;&gt;Node8</title>
<path fill="none" stroke="midnightblue" d="M132.88,-224.42C144.13,-216.26 160.22,-203.02 170.11,-188 179.42,-173.85 185.17,-155.37 188.45,-141.73"/>
<polygon fill="midnightblue" stroke="midnightblue" points="191.94,-142.13 190.64,-131.61 185.1,-140.65 191.94,-142.13"/>
</g>
<!-- Node9 -->
<g id="node9" class="node">
<title>Node9</title>
<g id="a_node9"><a xlink:title=" ">
<polygon fill="white" stroke="#bfbfbf" points="217.61,-168.5 217.61,-187.5 264.61,-187.5 264.61,-168.5 217.61,-168.5"/>
<text text-anchor="middle" x="241.11" y="-175.5" font-family="Consolas" font-size="10.00">math.h</text>
</a>
</g>
</g>
<!-- Node3&#45;&gt;Node9 -->
<g id="edge12" class="edge">
<title>Node3&#45;&gt;Node9</title>
<path fill="none" stroke="midnightblue" d="M139.28,-224.44C159.01,-215.64 189.99,-201.81 212.6,-191.72"/>
<polygon fill="midnightblue" stroke="midnightblue" points="214.32,-194.79 222.02,-187.52 211.46,-188.4 214.32,-194.79"/>
</g>
<!-- Node5 -->
<g id="node5" class="node">
<title>Node5</title>
<g id="a_node5"><a xlink:title=" ">
<polygon fill="white" stroke="#bfbfbf" points="56.61,-0.5 56.61,-19.5 115.61,-19.5 115.61,-0.5 56.61,-0.5"/>
<text text-anchor="middle" x="86.11" y="-7.5" font-family="Consolas" font-size="10.00">stdalign.h</text>
</a>
</g>
</g>
<!-- Node4&#45;&gt;Node5 -->
<g id="edge4" class="edge">
<title>Node4&#45;&gt;Node5</title>
<path fill="none" stroke="midnightblue" d="M86.11,-56.08C86.11,-49.01 86.11,-38.86 86.11,-29.99"/>
<polygon fill="midnightblue" stroke="midnightblue" points="89.61,-29.75 86.11,-19.75 82.61,-29.75 89.61,-29.75"/>
</g>
<!-- Node6&#45;&gt;Node4 -->
<g id="edge6" class="edge">
<title>Node6&#45;&gt;Node4</title>
<path fill="none" stroke="midnightblue" d="M57.72,-112.08C62.47,-104.53 69.42,-93.49 75.26,-84.23"/>
<polygon fill="midnightblue" stroke="midnightblue" points="78.23,-86.08 80.6,-75.75 72.31,-82.35 78.23,-86.08"/>
</g>
<!-- Node7&#45;&gt;Node4 -->
<g id="edge8" class="edge">
<title>Node7&#45;&gt;Node4</title>
<path fill="none" stroke="midnightblue" d="M117.63,-168.14C114.1,-155.6 107.35,-131.97 101.11,-112 98.34,-103.15 95.1,-93.37 92.34,-85.2"/>
<polygon fill="midnightblue" stroke="midnightblue" points="95.61,-83.94 89.08,-75.6 88.98,-86.19 95.61,-83.94"/>
</g>
<!-- Node7&#45;&gt;Node6 -->
<g id="edge9" class="edge">
<title>Node7&#45;&gt;Node6</title>
<path fill="none" stroke="midnightblue" d="M109.18,-168.32C98.93,-160.18 83.38,-147.84 71.1,-138.09"/>
<polygon fill="midnightblue" stroke="midnightblue" points="73.24,-135.31 63.23,-131.83 68.88,-140.79 73.24,-135.31"/>
</g>
<!-- Node8&#45;&gt;Node4 -->
<g id="edge11" class="edge">
<title>Node8&#45;&gt;Node4</title>
<path fill="none" stroke="midnightblue" d="M175.07,-112.32C158.08,-103.66 131.73,-90.24 112.11,-80.25"/>
<polygon fill="midnightblue" stroke="midnightblue" points="113.59,-77.08 103.09,-75.65 110.42,-83.31 113.59,-77.08"/>
</g>
</g>
</svg>
