<?xml version="1.0" encoding="UTF-8" standalone="no"?>
<!DOCTYPE svg PUBLIC "-//W3C//DTD SVG 1.1//EN"
 "http://www.w3.org/Graphics/SVG/1.1/DTD/svg11.dtd">
<!-- Generated by graphviz version 2.43.0 (0)
 -->
<!-- Title: libccc/monad/convert.h Pages: 1 -->
<!--zoomable 420 -->
<svg id="main" version="1.1" xmlns="http://www.w3.org/2000/svg" xmlns:xlink="http://www.w3.org/1999/xlink" xml:space="preserve" onload="init(evt)">
<style type="text/css"><![CDATA[
.edge:hover path { stroke: red; }
.edge:hover polygon { stroke: red; fill: red; }
]]></style>
<script type="text/javascript"><![CDATA[
var edges = document.getElementsByTagName('g');
if (edges && edges.length) {
  for (var i=0;i<edges.length;i++) {
    if (edges[i].id.substr(0,4)=='edge') {
      edges[i].setAttribute('class','edge');
    }
  }
}
]]></script>
        <defs>
                <circle id="rim" cx="0" cy="0" r="7"/>
                <circle id="rim2" cx="0" cy="0" r="3.5"/>
                <g id="zoomPlus">
                        <use xlink:href="#rim" fill="#404040">
                                <set attributeName="fill" to="#808080" begin="zoomplus.mouseover" end="zoomplus.mouseout"/>
                        </use>
                        <path d="M-4,0h8M0,-4v8" fill="none" stroke="white" stroke-width="1.5" pointer-events="none"/>
                </g>
                <g id="zoomMin">
                        <use xlink:href="#rim" fill="#404040">
                                <set attributeName="fill" to="#808080" begin="zoomminus.mouseover" end="zoomminus.mouseout"/>
                        </use>
                        <path d="M-4,0h8" fill="none" stroke="white" stroke-width="1.5" pointer-events="none"/>
                </g>
                <g id="dirArrow">
                        <path fill="none" stroke="white" stroke-width="1.5" d="M0,-3.0v7 M-2.5,-0.5L0,-3.0L2.5,-0.5"/>
                </g>
               <g id="resetDef">
                       <use xlink:href="#rim2" fill="#404040">
                               <set attributeName="fill" to="#808080" begin="reset.mouseover" end="reset.mouseout"/>
                       </use>
               </g>
        </defs>

<script type="text/javascript">
var viewWidth = 1575;
var viewHeight = 420;
var sectionId = 'dynsection-0';
</script>
<script xlink:href="svgpan.js"/>
<svg id="graph" class="graph">
<g id="viewport">
<title>libccc/monad/convert.h</title>
<polygon fill="white" stroke="transparent" points="-4,4 -4,-416 1571.17,-416 1571.17,4 -4,4"/>
<!-- Node1 -->
<g id="node1" class="node">
<title>Node1</title>
<g id="a_node1"><a xlink:title=" ">
<polygon fill="#bfbfbf" stroke="black" points="570.67,-392.5 570.67,-411.5 702.67,-411.5 702.67,-392.5 570.67,-392.5"/>
<text text-anchor="middle" x="636.67" y="-399.5" font-family="Consolas" font-size="10.00">libccc/monad/convert.h</text>
</a>
</g>
</g>
<!-- Node2 -->
<g id="node2" class="node">
<title>Node2</title>
<g id="a_node2"><a xlink:href="libccc_8h.html" target="_top" xlink:title=" ">
<polygon fill="white" stroke="black" points="967.17,-224.5 967.17,-243.5 1026.17,-243.5 1026.17,-224.5 967.17,-224.5"/>
<text text-anchor="middle" x="996.67" y="-231.5" font-family="Consolas" font-size="10.00">libccc.h</text>
</a>
</g>
</g>
<!-- Node1&#45;&gt;Node2 -->
<g id="edge1" class="edge">
<title>Node1&#45;&gt;Node2</title>
<path fill="none" stroke="midnightblue" d="M702.87,-399.52C779.37,-394.2 904.13,-373.81 977.67,-300 989.72,-287.91 994.21,-268.63 995.85,-254.2"/>
<polygon fill="midnightblue" stroke="midnightblue" points="999.36,-254.13 996.63,-243.9 992.38,-253.6 999.36,-254.13"/>
</g>
<!-- Node17 -->
<g id="node17" class="node">
<title>Node17</title>
<g id="a_node17"><a xlink:title=" ">
<polygon fill="white" stroke="#bfbfbf" points="1024.67,-336.5 1024.67,-355.5 1156.67,-355.5 1156.67,-336.5 1024.67,-336.5"/>
<text text-anchor="middle" x="1090.67" y="-343.5" font-family="Consolas" font-size="10.00">libccc/monad/convert.c</text>
</a>
</g>
</g>
<!-- Node1&#45;&gt;Node17 -->
<g id="edge24" class="edge">
<title>Node1&#45;&gt;Node17</title>
<path fill="none" stroke="midnightblue" d="M702.69,-393.15C785.48,-383.3 927.15,-366.45 1014.47,-356.06"/>
<polygon fill="midnightblue" stroke="midnightblue" points="1015.06,-359.52 1024.58,-354.86 1014.23,-352.57 1015.06,-359.52"/>
</g>
<!-- Node18 -->
<g id="node18" class="node">
<title>Node18</title>
<g id="a_node18"><a xlink:href="array_8h.html" target="_top" xlink:title=" ">
<polygon fill="white" stroke="black" points="137.67,-336.5 137.67,-355.5 259.67,-355.5 259.67,-336.5 137.67,-336.5"/>
<text text-anchor="middle" x="198.67" y="-343.5" font-family="Consolas" font-size="10.00">libccc/monad/array.h</text>
</a>
</g>
</g>
<!-- Node1&#45;&gt;Node18 -->
<g id="edge25" class="edge">
<title>Node1&#45;&gt;Node18</title>
<path fill="none" stroke="midnightblue" d="M570.62,-392.86C489.76,-382.89 353.31,-366.07 270.07,-355.8"/>
<polygon fill="midnightblue" stroke="midnightblue" points="270.3,-352.3 259.95,-354.55 269.44,-359.25 270.3,-352.3"/>
</g>
<!-- Node23 -->
<g id="node23" class="node">
<title>Node23</title>
<g id="a_node23"><a xlink:href="list_8h.html" target="_top" xlink:title=" ">
<polygon fill="white" stroke="black" points="284.67,-336.5 284.67,-355.5 400.67,-355.5 400.67,-336.5 284.67,-336.5"/>
<text text-anchor="middle" x="342.67" y="-343.5" font-family="Consolas" font-size="10.00">libccc/monad/list.h</text>
</a>
</g>
</g>
<!-- Node1&#45;&gt;Node23 -->
<g id="edge32" class="edge">
<title>Node1&#45;&gt;Node23</title>
<path fill="none" stroke="midnightblue" d="M590.09,-392.44C538.26,-382.92 454.54,-367.55 399.06,-357.36"/>
<polygon fill="midnightblue" stroke="midnightblue" points="399.51,-353.88 389.04,-355.52 398.24,-360.77 399.51,-353.88"/>
</g>
<!-- Node25 -->
<g id="node25" class="node">
<title>Node25</title>
<g id="a_node25"><a xlink:href="dict_8h.html" target="_top" xlink:title=" ">
<polygon fill="white" stroke="black" points="476.67,-336.5 476.67,-355.5 592.67,-355.5 592.67,-336.5 476.67,-336.5"/>
<text text-anchor="middle" x="534.67" y="-343.5" font-family="Consolas" font-size="10.00">libccc/monad/dict.h</text>
</a>
</g>
</g>
<!-- Node1&#45;&gt;Node25 -->
<g id="edge37" class="edge">
<title>Node1&#45;&gt;Node25</title>
<path fill="none" stroke="midnightblue" d="M620.28,-392.32C604,-383.7 578.8,-370.36 559.95,-360.39"/>
<polygon fill="midnightblue" stroke="midnightblue" points="561.49,-357.24 551.02,-355.65 558.22,-363.43 561.49,-357.24"/>
</g>
<!-- Node27 -->
<g id="node27" class="node">
<title>Node27</title>
<g id="a_node27"><a xlink:href="tree_8h.html" target="_top" xlink:title=" ">
<polygon fill="white" stroke="black" points="646.67,-336.5 646.67,-355.5 762.67,-355.5 762.67,-336.5 646.67,-336.5"/>
<text text-anchor="middle" x="704.67" y="-343.5" font-family="Consolas" font-size="10.00">libccc/monad/tree.h</text>
</a>
</g>
</g>
<!-- Node1&#45;&gt;Node27 -->
<g id="edge41" class="edge">
<title>Node1&#45;&gt;Node27</title>
<path fill="none" stroke="midnightblue" d="M647.6,-392.32C657.85,-384.18 673.39,-371.84 685.67,-362.09"/>
<polygon fill="midnightblue" stroke="midnightblue" points="687.89,-364.79 693.55,-355.83 683.54,-359.31 687.89,-364.79"/>
</g>
<!-- Node3 -->
<g id="node3" class="node">
<title>Node3</title>
<g id="a_node3"><a xlink:href="libccc__define_8h.html" target="_top" xlink:title=" ">
<polygon fill="white" stroke="black" points="1358.17,-56.5 1358.17,-75.5 1453.17,-75.5 1453.17,-56.5 1358.17,-56.5"/>
<text text-anchor="middle" x="1405.67" y="-63.5" font-family="Consolas" font-size="10.00">libccc_define.h</text>
</a>
</g>
</g>
<!-- Node2&#45;&gt;Node3 -->
<g id="edge2" class="edge">
<title>Node2&#45;&gt;Node3</title>
<path fill="none" stroke="midnightblue" d="M1026.38,-225.94C1073.57,-214.67 1161.75,-193.32 1175.67,-188 1255.65,-157.41 1343.45,-105.67 1383.52,-80.96"/>
<polygon fill="midnightblue" stroke="midnightblue" points="1385.56,-83.81 1392.21,-75.56 1381.87,-77.86 1385.56,-83.81"/>
</g>
<!-- Node5 -->
<g id="node5" class="node">
<title>Node5</title>
<g id="a_node5"><a xlink:href="libccc__errors_8h.html" target="_top" xlink:title=" ">
<polygon fill="white" stroke="black" points="1396.17,-112.5 1396.17,-131.5 1491.17,-131.5 1491.17,-112.5 1396.17,-112.5"/>
<text text-anchor="middle" x="1443.67" y="-119.5" font-family="Consolas" font-size="10.00">libccc_errors.h</text>
</a>
</g>
</g>
<!-- Node2&#45;&gt;Node5 -->
<g id="edge4" class="edge">
<title>Node2&#45;&gt;Node5</title>
<path fill="none" stroke="midnightblue" d="M1026.4,-225.71C1029.52,-225.07 1032.65,-224.49 1035.67,-224 1121.38,-210.21 1357.68,-243.22 1424.67,-188 1438.12,-176.92 1442.36,-156.88 1443.55,-141.97"/>
<polygon fill="midnightblue" stroke="midnightblue" points="1447.06,-141.94 1443.97,-131.8 1440.06,-141.65 1447.06,-141.94"/>
</g>
<!-- Node6 -->
<g id="node6" class="node">
<title>Node6</title>
<g id="a_node6"><a xlink:href="libccc__config_8h.html" target="_top" xlink:title=" ">
<polygon fill="white" stroke="black" points="1472.17,-168.5 1472.17,-187.5 1567.17,-187.5 1567.17,-168.5 1472.17,-168.5"/>
<text text-anchor="middle" x="1519.67" y="-175.5" font-family="Consolas" font-size="10.00">libccc_config.h</text>
</a>
</g>
</g>
<!-- Node2&#45;&gt;Node6 -->
<g id="edge6" class="edge">
<title>Node2&#45;&gt;Node6</title>
<path fill="none" stroke="midnightblue" d="M1026.4,-225.68C1029.52,-225.05 1032.65,-224.47 1035.67,-224 1221.62,-194.76 1270.67,-209.53 1457.67,-188 1458.98,-187.85 1460.3,-187.69 1461.63,-187.53"/>
<polygon fill="midnightblue" stroke="midnightblue" points="1462.5,-190.95 1471.98,-186.21 1461.62,-184.01 1462.5,-190.95"/>
</g>
<!-- Node7 -->
<g id="node7" class="node">
<title>Node7</title>
<g id="a_node7"><a xlink:href="libccc__naming_8h.html" target="_top" xlink:title=" ">
<polygon fill="white" stroke="black" points="1320.17,-168.5 1320.17,-187.5 1415.17,-187.5 1415.17,-168.5 1320.17,-168.5"/>
<text text-anchor="middle" x="1367.67" y="-175.5" font-family="Consolas" font-size="10.00">libccc_naming.h</text>
</a>
</g>
</g>
<!-- Node2&#45;&gt;Node7 -->
<g id="edge9" class="edge">
<title>Node2&#45;&gt;Node7</title>
<path fill="none" stroke="midnightblue" d="M1026.42,-225.83C1029.54,-225.17 1032.66,-224.55 1035.67,-224 1154.78,-202.37 1185.77,-204.7 1305.67,-188 1306.97,-187.82 1308.29,-187.63 1309.62,-187.45"/>
<polygon fill="midnightblue" stroke="midnightblue" points="1310.54,-190.85 1319.95,-185.98 1309.56,-183.92 1310.54,-190.85"/>
</g>
<!-- Node8 -->
<g id="node8" class="node">
<title>Node8</title>
<g id="a_node8"><a xlink:href="math_8h.html" target="_top" xlink:title=" ">
<polygon fill="white" stroke="black" points="972.67,-168.5 972.67,-187.5 1020.67,-187.5 1020.67,-168.5 972.67,-168.5"/>
<text text-anchor="middle" x="996.67" y="-175.5" font-family="Consolas" font-size="10.00">math.h</text>
</a>
</g>
</g>
<!-- Node2&#45;&gt;Node8 -->
<g id="edge11" class="edge">
<title>Node2&#45;&gt;Node8</title>
<path fill="none" stroke="midnightblue" d="M996.67,-224.08C996.67,-217.01 996.67,-206.86 996.67,-197.99"/>
<polygon fill="midnightblue" stroke="midnightblue" points="1000.17,-197.75 996.67,-187.75 993.17,-197.75 1000.17,-197.75"/>
</g>
<!-- Node4 -->
<g id="node4" class="node">
<title>Node4</title>
<g id="a_node4"><a xlink:title=" ">
<polygon fill="white" stroke="#bfbfbf" points="1371.17,-0.5 1371.17,-19.5 1440.17,-19.5 1440.17,-0.5 1371.17,-0.5"/>
<text text-anchor="middle" x="1405.67" y="-7.5" font-family="Consolas" font-size="10.00">stdalign.h</text>
</a>
</g>
</g>
<!-- Node3&#45;&gt;Node4 -->
<g id="edge3" class="edge">
<title>Node3&#45;&gt;Node4</title>
<path fill="none" stroke="midnightblue" d="M1405.67,-56.08C1405.67,-49.01 1405.67,-38.86 1405.67,-29.99"/>
<polygon fill="midnightblue" stroke="midnightblue" points="1409.17,-29.75 1405.67,-19.75 1402.17,-29.75 1409.17,-29.75"/>
</g>
<!-- Node5&#45;&gt;Node3 -->
<g id="edge5" class="edge">
<title>Node5&#45;&gt;Node3</title>
<path fill="none" stroke="midnightblue" d="M1437.4,-112.08C1432.03,-104.46 1424.15,-93.26 1417.59,-83.94"/>
<polygon fill="midnightblue" stroke="midnightblue" points="1420.45,-81.91 1411.83,-75.75 1414.72,-85.94 1420.45,-81.91"/>
</g>
<!-- Node6&#45;&gt;Node3 -->
<g id="edge7" class="edge">
<title>Node6&#45;&gt;Node3</title>
<path fill="none" stroke="midnightblue" d="M1519.34,-168.37C1518.38,-154.84 1514.71,-128.46 1500.67,-112 1487.48,-96.54 1467.78,-86.01 1449.74,-79.05"/>
<polygon fill="midnightblue" stroke="midnightblue" points="1450.53,-75.62 1439.94,-75.55 1448.18,-82.21 1450.53,-75.62"/>
</g>
<!-- Node6&#45;&gt;Node5 -->
<g id="edge8" class="edge">
<title>Node6&#45;&gt;Node5</title>
<path fill="none" stroke="midnightblue" d="M1507.46,-168.32C1495.9,-160.11 1478.3,-147.6 1464.51,-137.81"/>
<polygon fill="midnightblue" stroke="midnightblue" points="1466.28,-134.77 1456.1,-131.83 1462.23,-140.48 1466.28,-134.77"/>
</g>
<!-- Node7&#45;&gt;Node3 -->
<g id="edge10" class="edge">
<title>Node7&#45;&gt;Node3</title>
<path fill="none" stroke="midnightblue" d="M1370.16,-168.09C1373.74,-155.5 1380.67,-131.82 1387.67,-112 1390.86,-102.96 1394.78,-93.06 1398.14,-84.85"/>
<polygon fill="midnightblue" stroke="midnightblue" points="1401.4,-86.12 1402.01,-75.55 1394.94,-83.44 1401.4,-86.12"/>
</g>
<!-- Node9 -->
<g id="node9" class="node">
<title>Node9</title>
<g id="a_node9"><a xlink:href="constants_8h.html" target="_top" xlink:title=" ">
<polygon fill="white" stroke="black" points="954.17,-112.5 954.17,-131.5 1091.17,-131.5 1091.17,-112.5 954.17,-112.5"/>
<text text-anchor="middle" x="1022.67" y="-119.5" font-family="Consolas" font-size="10.00">libccc/math/constants.h</text>
</a>
</g>
</g>
<!-- Node8&#45;&gt;Node9 -->
<g id="edge12" class="edge">
<title>Node8&#45;&gt;Node9</title>
<path fill="none" stroke="midnightblue" d="M1000.96,-168.08C1004.52,-160.69 1009.69,-149.95 1014.1,-140.81"/>
<polygon fill="midnightblue" stroke="midnightblue" points="1017.27,-142.28 1018.46,-131.75 1010.97,-139.24 1017.27,-142.28"/>
</g>
<!-- Node11 -->
<g id="node11" class="node">
<title>Node11</title>
<g id="a_node11"><a xlink:href="math_2int_8h.html" target="_top" xlink:title=" ">
<polygon fill="white" stroke="black" points="695.67,-112.5 695.67,-131.5 801.67,-131.5 801.67,-112.5 695.67,-112.5"/>
<text text-anchor="middle" x="748.67" y="-119.5" font-family="Consolas" font-size="10.00">libccc/math/int.h</text>
</a>
</g>
</g>
<!-- Node8&#45;&gt;Node11 -->
<g id="edge15" class="edge">
<title>Node8&#45;&gt;Node11</title>
<path fill="none" stroke="midnightblue" d="M972.44,-171.72C932.14,-162.95 850.55,-145.18 797.82,-133.7"/>
<polygon fill="midnightblue" stroke="midnightblue" points="798.52,-130.27 788,-131.56 797.03,-137.11 798.52,-130.27"/>
</g>
<!-- Node14 -->
<g id="node14" class="node">
<title>Node14</title>
<g id="a_node14"><a xlink:href="math_2fixed_8h.html" target="_top" xlink:title=" ">
<polygon fill="white" stroke="black" points="819.67,-112.5 819.67,-131.5 935.67,-131.5 935.67,-112.5 819.67,-112.5"/>
<text text-anchor="middle" x="877.67" y="-119.5" font-family="Consolas" font-size="10.00">libccc/math/fixed.h</text>
</a>
</g>
</g>
<!-- Node8&#45;&gt;Node14 -->
<g id="edge19" class="edge">
<title>Node8&#45;&gt;Node14</title>
<path fill="none" stroke="midnightblue" d="M977.82,-168.44C958.4,-159.64 927.94,-145.81 905.71,-135.72"/>
<polygon fill="midnightblue" stroke="midnightblue" points="906.99,-132.46 896.44,-131.52 904.1,-138.84 906.99,-132.46"/>
</g>
<!-- Node16 -->
<g id="node16" class="node">
<title>Node16</title>
<g id="a_node16"><a xlink:href="math_2float_8h.html" target="_top" xlink:title=" ">
<polygon fill="white" stroke="black" points="1109.67,-112.5 1109.67,-131.5 1225.67,-131.5 1225.67,-112.5 1109.67,-112.5"/>
<text text-anchor="middle" x="1167.67" y="-119.5" font-family="Consolas" font-size="10.00">libccc/math/float.h</text>
</a>
</g>
</g>
<!-- Node8&#45;&gt;Node16 -->
<g id="edge22" class="edge">
<title>Node8&#45;&gt;Node16</title>
<path fill="none" stroke="midnightblue" d="M1020.81,-169.38C1049.43,-160.34 1097.43,-145.18 1130.73,-134.67"/>
<polygon fill="midnightblue" stroke="midnightblue" points="1132.07,-137.91 1140.55,-131.56 1129.96,-131.24 1132.07,-137.91"/>
</g>
<!-- Node10 -->
<g id="node10" class="node">
<title>Node10</title>
<g id="a_node10"><a xlink:href="float_8h.html" target="_top" xlink:title=" ">
<polygon fill="white" stroke="black" points="1122.67,-56.5 1122.67,-75.5 1212.67,-75.5 1212.67,-56.5 1122.67,-56.5"/>
<text text-anchor="middle" x="1167.67" y="-63.5" font-family="Consolas" font-size="10.00">libccc/float.h</text>
</a>
</g>
</g>
<!-- Node9&#45;&gt;Node10 -->
<g id="edge13" class="edge">
<title>Node9&#45;&gt;Node10</title>
<path fill="none" stroke="midnightblue" d="M1045.65,-112.44C1069.83,-103.44 1108.09,-89.19 1135.32,-79.05"/>
<polygon fill="midnightblue" stroke="midnightblue" points="1136.65,-82.29 1144.8,-75.52 1134.21,-75.73 1136.65,-82.29"/>
</g>
<!-- Node10&#45;&gt;Node2 -->
<g id="edge14" class="edge">
<title>Node10&#45;&gt;Node2</title>
<path fill="none" stroke="midnightblue" d="M1189.11,-75.69C1214.11,-87.16 1250.15,-108.62 1234.67,-132 1211.73,-166.66 1097.43,-204.03 1035.96,-222.05"/>
<polygon fill="midnightblue" stroke="midnightblue" points="1034.84,-218.73 1026.21,-224.87 1036.79,-225.45 1034.84,-218.73"/>
</g>
<!-- Node12 -->
<g id="node12" class="node">
<title>Node12</title>
<g id="a_node12"><a xlink:href="int_8h.html" target="_top" xlink:title=" ">
<polygon fill="white" stroke="black" points="483.67,-56.5 483.67,-75.5 563.67,-75.5 563.67,-56.5 483.67,-56.5"/>
<text text-anchor="middle" x="523.67" y="-63.5" font-family="Consolas" font-size="10.00">libccc/int.h</text>
</a>
</g>
</g>
<!-- Node11&#45;&gt;Node12 -->
<g id="edge16" class="edge">
<title>Node11&#45;&gt;Node12</title>
<path fill="none" stroke="midnightblue" d="M713.02,-112.44C674.02,-103.08 611.4,-88.06 568.95,-77.87"/>
<polygon fill="midnightblue" stroke="midnightblue" points="569.7,-74.45 559.16,-75.52 568.06,-81.25 569.7,-74.45"/>
</g>
<!-- Node12&#45;&gt;Node2 -->
<g id="edge18" class="edge">
<title>Node12&#45;&gt;Node2</title>
<path fill="none" stroke="midnightblue" d="M534.41,-75.74C562.84,-98.39 643.18,-159.17 720.67,-188 801.08,-217.92 902,-227.98 956.79,-231.33"/>
<polygon fill="midnightblue" stroke="midnightblue" points="956.93,-234.85 967.11,-231.92 957.33,-227.86 956.93,-234.85"/>
</g>
<!-- Node13 -->
<g id="node13" class="node">
<title>Node13</title>
<g id="a_node13"><a xlink:title=" ">
<polygon fill="white" stroke="#bfbfbf" points="528.17,-0.5 528.17,-19.5 587.17,-19.5 587.17,-0.5 528.17,-0.5"/>
<text text-anchor="middle" x="557.67" y="-7.5" font-family="Consolas" font-size="10.00">stdint.h</text>
</a>
</g>
</g>
<!-- Node12&#45;&gt;Node13 -->
<g id="edge17" class="edge">
<title>Node12&#45;&gt;Node13</title>
<path fill="none" stroke="midnightblue" d="M529.29,-56.08C534.04,-48.53 540.99,-37.49 546.82,-28.23"/>
<polygon fill="midnightblue" stroke="midnightblue" points="549.79,-30.08 552.16,-19.75 543.87,-26.35 549.79,-30.08"/>
</g>
<!-- Node15 -->
<g id="node15" class="node">
<title>Node15</title>
<g id="a_node15"><a xlink:href="fixed_8h.html" target="_top" xlink:title=" ">
<polygon fill="white" stroke="black" points="727.67,-56.5 727.67,-75.5 817.67,-75.5 817.67,-56.5 727.67,-56.5"/>
<text text-anchor="middle" x="772.67" y="-63.5" font-family="Consolas" font-size="10.00">libccc/fixed.h</text>
</a>
</g>
</g>
<!-- Node14&#45;&gt;Node15 -->
<g id="edge20" class="edge">
<title>Node14&#45;&gt;Node15</title>
<path fill="none" stroke="midnightblue" d="M860.8,-112.32C843.96,-103.66 817.86,-90.24 798.43,-80.25"/>
<polygon fill="midnightblue" stroke="midnightblue" points="799.99,-77.12 789.5,-75.65 796.79,-83.34 799.99,-77.12"/>
</g>
<!-- Node15&#45;&gt;Node2 -->
<g id="edge21" class="edge">
<title>Node15&#45;&gt;Node2</title>
<path fill="none" stroke="midnightblue" d="M743.19,-75.55C711.52,-86.28 668.09,-106.4 686.67,-132 749.33,-218.31 887.68,-232.28 956.37,-233.64"/>
<polygon fill="midnightblue" stroke="midnightblue" points="956.73,-237.15 966.77,-233.76 956.81,-230.15 956.73,-237.15"/>
</g>
<!-- Node16&#45;&gt;Node10 -->
<g id="edge23" class="edge">
<title>Node16&#45;&gt;Node10</title>
<path fill="none" stroke="midnightblue" d="M1167.67,-112.08C1167.67,-105.01 1167.67,-94.86 1167.67,-85.99"/>
<polygon fill="midnightblue" stroke="midnightblue" points="1171.17,-85.75 1167.67,-75.75 1164.17,-85.75 1171.17,-85.75"/>
</g>
<!-- Node18&#45;&gt;Node12 -->
<g id="edge30" class="edge">
<title>Node18&#45;&gt;Node12</title>
<path fill="none" stroke="midnightblue" d="M138.64,-336.43C93.53,-328.83 36.7,-316.39 19.67,-300 -2.01,-279.13 0.67,-265.1 0.67,-235 0.67,-235 0.67,-235 0.67,-177 0.67,-81.02 342.28,-68.33 473.33,-66.99"/>
<polygon fill="midnightblue" stroke="midnightblue" points="473.53,-70.49 483.5,-66.91 473.47,-63.49 473.53,-70.49"/>
</g>
<!-- Node19 -->
<g id="node19" class="node">
<title>Node19</title>
<g id="a_node19"><a xlink:title=" ">
<polygon fill="white" stroke="#bfbfbf" points="169.17,-280.5 169.17,-299.5 228.17,-299.5 228.17,-280.5 169.17,-280.5"/>
<text text-anchor="middle" x="198.67" y="-287.5" font-family="Consolas" font-size="10.00">stdarg.h</text>
</a>
</g>
</g>
<!-- Node18&#45;&gt;Node19 -->
<g id="edge26" class="edge">
<title>Node18&#45;&gt;Node19</title>
<path fill="none" stroke="midnightblue" d="M198.67,-336.08C198.67,-329.01 198.67,-318.86 198.67,-309.99"/>
<polygon fill="midnightblue" stroke="midnightblue" points="202.17,-309.75 198.67,-299.75 195.17,-309.75 202.17,-309.75"/>
</g>
<!-- Node20 -->
<g id="node20" class="node">
<title>Node20</title>
<g id="a_node20"><a xlink:href="bool_8h.html" target="_top" xlink:title=" ">
<polygon fill="white" stroke="black" points="457.17,-280.5 457.17,-299.5 542.17,-299.5 542.17,-280.5 457.17,-280.5"/>
<text text-anchor="middle" x="499.67" y="-287.5" font-family="Consolas" font-size="10.00">libccc/bool.h</text>
</a>
</g>
</g>
<!-- Node18&#45;&gt;Node20 -->
<g id="edge27" class="edge">
<title>Node18&#45;&gt;Node20</title>
<path fill="none" stroke="midnightblue" d="M246.37,-336.44C300.98,-326.64 390.21,-310.64 446.88,-300.47"/>
<polygon fill="midnightblue" stroke="midnightblue" points="447.84,-303.85 457.07,-298.64 446.61,-296.96 447.84,-303.85"/>
</g>
<!-- Node22 -->
<g id="node22" class="node">
<title>Node22</title>
<g id="a_node22"><a xlink:title=" ">
<polygon fill="white" stroke="#bfbfbf" points="28.67,-280.5 28.67,-299.5 150.67,-299.5 150.67,-280.5 28.67,-280.5"/>
<text text-anchor="middle" x="89.67" y="-287.5" font-family="Consolas" font-size="10.00">libccc/monad/array.c</text>
</a>
</g>
</g>
<!-- Node18&#45;&gt;Node22 -->
<g id="edge31" class="edge">
<title>Node18&#45;&gt;Node22</title>
<path fill="none" stroke="midnightblue" d="M181.16,-336.32C163.6,-327.62 136.34,-314.12 116.14,-304.11"/>
<polygon fill="midnightblue" stroke="midnightblue" points="117.65,-300.96 107.14,-299.65 114.55,-307.23 117.65,-300.96"/>
</g>
<!-- Node20&#45;&gt;Node2 -->
<g id="edge28" class="edge">
<title>Node20&#45;&gt;Node2</title>
<path fill="none" stroke="midnightblue" d="M542.2,-281.39C545.4,-280.89 548.58,-280.42 551.67,-280 700.65,-259.6 878.86,-244.32 956.84,-238.08"/>
<polygon fill="midnightblue" stroke="midnightblue" points="957.47,-241.54 967.17,-237.26 956.92,-234.56 957.47,-241.54"/>
</g>
<!-- Node21 -->
<g id="node21" class="node">
<title>Node21</title>
<g id="a_node21"><a xlink:title=" ">
<polygon fill="white" stroke="#bfbfbf" points="461.67,-224.5 461.67,-243.5 525.67,-243.5 525.67,-224.5 461.67,-224.5"/>
<text text-anchor="middle" x="493.67" y="-231.5" font-family="Consolas" font-size="10.00">stdbool.h</text>
</a>
</g>
</g>
<!-- Node20&#45;&gt;Node21 -->
<g id="edge29" class="edge">
<title>Node20&#45;&gt;Node21</title>
<path fill="none" stroke="midnightblue" d="M498.68,-280.08C497.89,-272.93 496.74,-262.64 495.75,-253.69"/>
<polygon fill="midnightblue" stroke="midnightblue" points="499.23,-253.3 494.64,-243.75 492.27,-254.08 499.23,-253.3"/>
</g>
<!-- Node23&#45;&gt;Node12 -->
<g id="edge35" class="edge">
<title>Node23&#45;&gt;Node12</title>
<path fill="none" stroke="midnightblue" d="M322.88,-336.36C307.85,-328.82 287.75,-316.51 275.67,-300 257.89,-275.71 256.67,-265.1 256.67,-235 256.67,-235 256.67,-235 256.67,-177 256.67,-84.28 396.03,-68.12 473.38,-66.29"/>
<polygon fill="midnightblue" stroke="midnightblue" points="473.47,-69.79 483.41,-66.12 473.35,-62.79 473.47,-69.79"/>
</g>
<!-- Node23&#45;&gt;Node19 -->
<g id="edge33" class="edge">
<title>Node23&#45;&gt;Node19</title>
<path fill="none" stroke="midnightblue" d="M319.85,-336.44C295.84,-327.44 257.84,-313.19 230.8,-303.05"/>
<polygon fill="midnightblue" stroke="midnightblue" points="231.97,-299.75 221.38,-299.52 229.52,-306.3 231.97,-299.75"/>
</g>
<!-- Node23&#45;&gt;Node20 -->
<g id="edge34" class="edge">
<title>Node23&#45;&gt;Node20</title>
<path fill="none" stroke="midnightblue" d="M367.55,-336.44C393.96,-327.36 435.89,-312.94 465.41,-302.78"/>
<polygon fill="midnightblue" stroke="midnightblue" points="466.59,-306.08 474.91,-299.52 464.32,-299.46 466.59,-306.08"/>
</g>
<!-- Node24 -->
<g id="node24" class="node">
<title>Node24</title>
<g id="a_node24"><a xlink:title=" ">
<polygon fill="white" stroke="#bfbfbf" points="284.67,-280.5 284.67,-299.5 400.67,-299.5 400.67,-280.5 284.67,-280.5"/>
<text text-anchor="middle" x="342.67" y="-287.5" font-family="Consolas" font-size="10.00">libccc/monad/list.c</text>
</a>
</g>
</g>
<!-- Node23&#45;&gt;Node24 -->
<g id="edge36" class="edge">
<title>Node23&#45;&gt;Node24</title>
<path fill="none" stroke="midnightblue" d="M342.67,-336.08C342.67,-329.01 342.67,-318.86 342.67,-309.99"/>
<polygon fill="midnightblue" stroke="midnightblue" points="346.17,-309.75 342.67,-299.75 339.17,-309.75 346.17,-309.75"/>
</g>
<!-- Node25&#45;&gt;Node12 -->
<g id="edge39" class="edge">
<title>Node25&#45;&gt;Node12</title>
<path fill="none" stroke="midnightblue" d="M504.93,-336.37C486.01,-329.44 462.37,-317.85 447.67,-300 428.54,-276.77 428.67,-265.1 428.67,-235 428.67,-235 428.67,-235 428.67,-177 428.67,-133.74 471.28,-99.09 499.43,-80.91"/>
<polygon fill="midnightblue" stroke="midnightblue" points="501.33,-83.85 507.98,-75.6 497.64,-77.9 501.33,-83.85"/>
</g>
<!-- Node25&#45;&gt;Node20 -->
<g id="edge38" class="edge">
<title>Node25&#45;&gt;Node20</title>
<path fill="none" stroke="midnightblue" d="M528.89,-336.08C524,-328.53 516.84,-317.49 510.84,-308.23"/>
<polygon fill="midnightblue" stroke="midnightblue" points="513.72,-306.24 505.34,-299.75 507.84,-310.05 513.72,-306.24"/>
</g>
<!-- Node26 -->
<g id="node26" class="node">
<title>Node26</title>
<g id="a_node26"><a xlink:title=" ">
<polygon fill="white" stroke="#bfbfbf" points="560.67,-280.5 560.67,-299.5 676.67,-299.5 676.67,-280.5 560.67,-280.5"/>
<text text-anchor="middle" x="618.67" y="-287.5" font-family="Consolas" font-size="10.00">libccc/monad/dict.c</text>
</a>
</g>
</g>
<!-- Node25&#45;&gt;Node26 -->
<g id="edge40" class="edge">
<title>Node25&#45;&gt;Node26</title>
<path fill="none" stroke="midnightblue" d="M548.17,-336.32C561.27,-327.9 581.38,-314.97 596.78,-305.07"/>
<polygon fill="midnightblue" stroke="midnightblue" points="598.69,-308.01 605.21,-299.65 594.9,-302.12 598.69,-308.01"/>
</g>
<!-- Node27&#45;&gt;Node12 -->
<g id="edge43" class="edge">
<title>Node27&#45;&gt;Node12</title>
<path fill="none" stroke="midnightblue" d="M704.57,-336.16C703.93,-322.34 700.68,-295.58 685.67,-280 650.57,-243.56 612.99,-280.23 577.67,-244 534.37,-199.57 525.67,-121.46 524.01,-85.76"/>
<polygon fill="midnightblue" stroke="midnightblue" points="527.5,-85.63 523.68,-75.75 520.51,-85.86 527.5,-85.63"/>
</g>
<!-- Node27&#45;&gt;Node20 -->
<g id="edge42" class="edge">
<title>Node27&#45;&gt;Node20</title>
<path fill="none" stroke="midnightblue" d="M672.19,-336.44C636.95,-327.16 580.57,-312.31 541.91,-302.13"/>
<polygon fill="midnightblue" stroke="midnightblue" points="542.56,-298.68 532,-299.52 540.78,-305.45 542.56,-298.68"/>
</g>
<!-- Node28 -->
<g id="node28" class="node">
<title>Node28</title>
<g id="a_node28"><a xlink:href="pointer_8h.html" target="_top" xlink:title=" ">
<polygon fill="white" stroke="black" points="733.17,-280.5 733.17,-299.5 834.17,-299.5 834.17,-280.5 733.17,-280.5"/>
<text text-anchor="middle" x="783.67" y="-287.5" font-family="Consolas" font-size="10.00">libccc/pointer.h</text>
</a>
</g>
</g>
<!-- Node27&#45;&gt;Node28 -->
<g id="edge44" class="edge">
<title>Node27&#45;&gt;Node28</title>
<path fill="none" stroke="midnightblue" d="M717.36,-336.32C729.57,-327.98 748.25,-315.21 762.67,-305.35"/>
<polygon fill="midnightblue" stroke="midnightblue" points="764.73,-308.19 771.01,-299.65 760.78,-302.41 764.73,-308.19"/>
</g>
<!-- Node30 -->
<g id="node30" class="node">
<title>Node30</title>
<g id="a_node30"><a xlink:title=" ">
<polygon fill="white" stroke="#bfbfbf" points="852.67,-280.5 852.67,-299.5 968.67,-299.5 968.67,-280.5 852.67,-280.5"/>
<text text-anchor="middle" x="910.67" y="-287.5" font-family="Consolas" font-size="10.00">libccc/monad/tree.c</text>
</a>
</g>
</g>
<!-- Node27&#45;&gt;Node30 -->
<g id="edge48" class="edge">
<title>Node27&#45;&gt;Node30</title>
<path fill="none" stroke="midnightblue" d="M737.31,-336.44C772.72,-327.16 829.38,-312.31 868.22,-302.13"/>
<polygon fill="midnightblue" stroke="midnightblue" points="869.4,-305.44 878.18,-299.52 867.62,-298.67 869.4,-305.44"/>
</g>
<!-- Node28&#45;&gt;Node2 -->
<g id="edge47" class="edge">
<title>Node28&#45;&gt;Node2</title>
<path fill="none" stroke="midnightblue" d="M817.42,-280.44C855.38,-270.82 916.95,-255.21 957.13,-245.02"/>
<polygon fill="midnightblue" stroke="midnightblue" points="958.03,-248.41 966.86,-242.56 956.31,-241.62 958.03,-248.41"/>
</g>
<!-- Node28&#45;&gt;Node13 -->
<g id="edge46" class="edge">
<title>Node28&#45;&gt;Node13</title>
<path fill="none" stroke="midnightblue" d="M732.97,-282.16C676.09,-271.31 591.67,-244.21 591.67,-179 591.67,-179 591.67,-179 591.67,-121 591.67,-87.16 576.8,-49.97 566.73,-28.66"/>
<polygon fill="midnightblue" stroke="midnightblue" points="569.81,-26.99 562.26,-19.56 563.53,-30.08 569.81,-26.99"/>
</g>
<!-- Node29 -->
<g id="node29" class="node">
<title>Node29</title>
<g id="a_node29"><a xlink:title=" ">
<polygon fill="white" stroke="#bfbfbf" points="1044.17,-224.5 1044.17,-243.5 1103.17,-243.5 1103.17,-224.5 1044.17,-224.5"/>
<text text-anchor="middle" x="1073.67" y="-231.5" font-family="Consolas" font-size="10.00">stddef.h</text>
</a>
</g>
</g>
<!-- Node28&#45;&gt;Node29 -->
<g id="edge45" class="edge">
<title>Node28&#45;&gt;Node29</title>
<path fill="none" stroke="midnightblue" d="M834.51,-280.78C883.33,-272.69 959.38,-259.59 1033.82,-244.3"/>
<polygon fill="midnightblue" stroke="midnightblue" points="1034.75,-247.69 1043.84,-242.23 1033.33,-240.83 1034.75,-247.69"/>
</g>
</g>
</svg>
        <g id="navigator" transform="translate(0 0)" fill="#404254">
                <rect fill="#f2f5e9" fill-opacity="0.5" stroke="#606060" stroke-width=".5" x="0" y="0" width="60" height="60"/>
                <use id="zoomplus" xlink:href="#zoomPlus" x="17" y="9" onmousedown="handleZoom(evt,'in')"/>
                <use id="zoomminus" xlink:href="#zoomMin" x="42" y="9" onmousedown="handleZoom(evt,'out')"/>
                <use id="reset" xlink:href="#resetDef" x="30" y="36" onmousedown="handleReset()"/>
                <g id="arrowUp" xlink:href="#dirArrow" transform="translate(30 24)" onmousedown="handlePan(0,-1)">
                  <use xlink:href="#rim" fill="#404040">
                        <set attributeName="fill" to="#808080" begin="arrowUp.mouseover" end="arrowUp.mouseout"/>
                  </use>
                  <path fill="none" stroke="white" stroke-width="1.5" d="M0,-3.0v7 M-2.5,-0.5L0,-3.0L2.5,-0.5"/>
                </g>
                <g id="arrowRight" xlink:href="#dirArrow" transform="rotate(90) translate(36 -43)" onmousedown="handlePan(1,0)">
                  <use xlink:href="#rim" fill="#404040">
                        <set attributeName="fill" to="#808080" begin="arrowRight.mouseover" end="arrowRight.mouseout"/>
                  </use>
                  <path fill="none" stroke="white" stroke-width="1.5" d="M0,-3.0v7 M-2.5,-0.5L0,-3.0L2.5,-0.5"/>
                </g>
                <g id="arrowDown" xlink:href="#dirArrow" transform="rotate(180) translate(-30 -48)" onmousedown="handlePan(0,1)">
                  <use xlink:href="#rim" fill="#404040">
                        <set attributeName="fill" to="#808080" begin="arrowDown.mouseover" end="arrowDown.mouseout"/>
                  </use>
                  <path fill="none" stroke="white" stroke-width="1.5" d="M0,-3.0v7 M-2.5,-0.5L0,-3.0L2.5,-0.5"/>
                </g>
                <g id="arrowLeft" xlink:href="#dirArrow" transform="rotate(270) translate(-36 17)" onmousedown="handlePan(-1,0)">
                  <use xlink:href="#rim" fill="#404040">
                        <set attributeName="fill" to="#808080" begin="arrowLeft.mouseover" end="arrowLeft.mouseout"/>
                  </use>
                  <path fill="none" stroke="white" stroke-width="1.5" d="M0,-3.0v7 M-2.5,-0.5L0,-3.0L2.5,-0.5"/>
                </g>
        </g>
        <svg viewBox="0 0 15 15" width="100%" height="30px" preserveAspectRatio="xMaxYMin meet">
         <g id="arrow_out" transform="scale(0.3 0.3)">
          <a xlink:href="convert_8h__incl_org.svg" target="_base">
           <rect id="button" ry="5" rx="5" y="6" x="6" height="38" width="38"
                fill="#f2f5e9" fill-opacity="0.5" stroke="#606060" stroke-width="1.0"/>
           <path id="arrow"
             d="M 11.500037,31.436501 C 11.940474,20.09759 22.043105,11.32322 32.158766,21.979434 L 37.068811,17.246167 C 37.068811,17.246167 37.088388,32 37.088388,32 L 22.160133,31.978069 C 22.160133,31.978069 26.997745,27.140456 26.997745,27.140456 C 18.528582,18.264221 13.291696,25.230495 11.500037,31.436501 z"
             style="fill:#404040;"/>
          </a>
         </g>
        </svg>
</svg>
