<?xml version="1.0" encoding="UTF-8" standalone="no"?>
<!DOCTYPE svg PUBLIC "-//W3C//DTD SVG 1.1//EN"
 "http://www.w3.org/Graphics/SVG/1.1/DTD/svg11.dtd">
<!-- Generated by graphviz version 2.43.0 (0)
 -->
<!-- Title: libccc/generic/convert.h Pages: 1 -->
<svg width="998pt" height="420pt"
 viewBox="0.00 0.00 997.95 420.00" xmlns="http://www.w3.org/2000/svg" xmlns:xlink="http://www.w3.org/1999/xlink">
<g id="graph0" class="graph" transform="scale(1 1) rotate(0) translate(4 416)">
<title>libccc/generic/convert.h</title>
<polygon fill="white" stroke="transparent" points="-4,4 -4,-416 993.95,-416 993.95,4 -4,4"/>
<!-- Node1 -->
<g id="node1" class="node">
<title>Node1</title>
<g id="a_node1"><a xlink:title=" ">
<polygon fill="#bfbfbf" stroke="black" points="252.95,-392.5 252.95,-411.5 395.95,-411.5 395.95,-392.5 252.95,-392.5"/>
<text text-anchor="middle" x="324.45" y="-399.5" font-family="Consolas" font-size="10.00">libccc/generic/convert.h</text>
</a>
</g>
</g>
<!-- Node2 -->
<g id="node2" class="node">
<title>Node2</title>
<g id="a_node2"><a xlink:href="libccc_8h.html" target="_top" xlink:title=" ">
<polygon fill="white" stroke="black" points="500.95,-224.5 500.95,-243.5 559.95,-243.5 559.95,-224.5 500.95,-224.5"/>
<text text-anchor="middle" x="530.45" y="-231.5" font-family="Consolas" font-size="10.00">libccc.h</text>
</a>
</g>
</g>
<!-- Node1&#45;&gt;Node2 -->
<g id="edge1" class="edge">
<title>Node1&#45;&gt;Node2</title>
<path fill="none" stroke="midnightblue" d="M252.65,-401.04C170.61,-399.37 43.75,-391.01 13.45,-356 3.04,-343.98 -10.72,-307.27 15.45,-280 51.32,-242.6 429.05,-250.6 480.45,-244 483.88,-243.56 487.43,-243.04 490.98,-242.48"/>
<polygon fill="midnightblue" stroke="midnightblue" points="491.63,-245.93 500.91,-240.83 490.47,-239.02 491.63,-245.93"/>
</g>
<!-- Node8 -->
<g id="node8" class="node">
<title>Node8</title>
<g id="a_node8"><a xlink:title=" ">
<polygon fill="white" stroke="#bfbfbf" points="22.95,-336.5 22.95,-355.5 165.95,-355.5 165.95,-336.5 22.95,-336.5"/>
<text text-anchor="middle" x="94.45" y="-343.5" font-family="Consolas" font-size="10.00">libccc/generic/convert.c</text>
</a>
</g>
</g>
<!-- Node1&#45;&gt;Node8 -->
<g id="edge11" class="edge">
<title>Node1&#45;&gt;Node8</title>
<path fill="none" stroke="midnightblue" d="M288,-392.44C248.05,-383.06 183.86,-367.99 140.46,-357.8"/>
<polygon fill="midnightblue" stroke="midnightblue" points="141.26,-354.39 130.72,-355.52 139.66,-361.21 141.26,-354.39"/>
</g>
<!-- Node9 -->
<g id="node9" class="node">
<title>Node9</title>
<g id="a_node9"><a xlink:href="array_8h.html" target="_top" xlink:title=" ">
<polygon fill="white" stroke="black" points="184.45,-336.5 184.45,-355.5 316.45,-355.5 316.45,-336.5 184.45,-336.5"/>
<text text-anchor="middle" x="250.45" y="-343.5" font-family="Consolas" font-size="10.00">libccc/generic/array.h</text>
</a>
</g>
</g>
<!-- Node1&#45;&gt;Node9 -->
<g id="edge12" class="edge">
<title>Node1&#45;&gt;Node9</title>
<path fill="none" stroke="midnightblue" d="M312.56,-392.32C301.3,-384.11 284.16,-371.6 270.74,-361.81"/>
<polygon fill="midnightblue" stroke="midnightblue" points="272.69,-358.9 262.55,-355.83 268.57,-364.56 272.69,-358.9"/>
</g>
<!-- Node16 -->
<g id="node16" class="node">
<title>Node16</title>
<g id="a_node16"><a xlink:href="list_8h.html" target="_top" xlink:title=" ">
<polygon fill="white" stroke="black" points="334.95,-336.5 334.95,-355.5 461.95,-355.5 461.95,-336.5 334.95,-336.5"/>
<text text-anchor="middle" x="398.45" y="-343.5" font-family="Consolas" font-size="10.00">libccc/generic/list.h</text>
</a>
</g>
</g>
<!-- Node1&#45;&gt;Node16 -->
<g id="edge21" class="edge">
<title>Node1&#45;&gt;Node16</title>
<path fill="none" stroke="midnightblue" d="M336.34,-392.32C347.6,-384.11 364.73,-371.6 378.16,-361.81"/>
<polygon fill="midnightblue" stroke="midnightblue" points="380.33,-364.56 386.34,-355.83 376.2,-358.9 380.33,-364.56"/>
</g>
<!-- Node18 -->
<g id="node18" class="node">
<title>Node18</title>
<g id="a_node18"><a xlink:href="dict_8h.html" target="_top" xlink:title=" ">
<polygon fill="white" stroke="black" points="479.95,-336.5 479.95,-355.5 606.95,-355.5 606.95,-336.5 479.95,-336.5"/>
<text text-anchor="middle" x="543.45" y="-343.5" font-family="Consolas" font-size="10.00">libccc/generic/dict.h</text>
</a>
</g>
</g>
<!-- Node1&#45;&gt;Node18 -->
<g id="edge26" class="edge">
<title>Node1&#45;&gt;Node18</title>
<path fill="none" stroke="midnightblue" d="M359.15,-392.44C397.03,-383.1 457.8,-368.12 499.11,-357.93"/>
<polygon fill="midnightblue" stroke="midnightblue" points="500.04,-361.31 508.91,-355.52 498.36,-354.51 500.04,-361.31"/>
</g>
<!-- Node20 -->
<g id="node20" class="node">
<title>Node20</title>
<g id="a_node20"><a xlink:href="tree_8h.html" target="_top" xlink:title=" ">
<polygon fill="white" stroke="black" points="624.95,-336.5 624.95,-355.5 751.95,-355.5 751.95,-336.5 624.95,-336.5"/>
<text text-anchor="middle" x="688.45" y="-343.5" font-family="Consolas" font-size="10.00">libccc/generic/tree.h</text>
</a>
</g>
</g>
<!-- Node1&#45;&gt;Node20 -->
<g id="edge30" class="edge">
<title>Node1&#45;&gt;Node20</title>
<path fill="none" stroke="midnightblue" d="M382.12,-392.44C446.95,-382.83 552.1,-367.23 620.76,-357.04"/>
<polygon fill="midnightblue" stroke="midnightblue" points="621.66,-360.45 631.04,-355.52 620.63,-353.52 621.66,-360.45"/>
</g>
<!-- Node3 -->
<g id="node3" class="node">
<title>Node3</title>
<g id="a_node3"><a xlink:href="libccc__define_8h.html" target="_top" xlink:title=" ">
<polygon fill="white" stroke="black" points="482.95,-56.5 482.95,-75.5 577.95,-75.5 577.95,-56.5 482.95,-56.5"/>
<text text-anchor="middle" x="530.45" y="-63.5" font-family="Consolas" font-size="10.00">libccc_define.h</text>
</a>
</g>
</g>
<!-- Node2&#45;&gt;Node3 -->
<g id="edge2" class="edge">
<title>Node2&#45;&gt;Node3</title>
<path fill="none" stroke="midnightblue" d="M514.44,-224.5C480.56,-205.36 406.95,-157.02 435.45,-112 445.49,-96.13 462.82,-85.74 479.95,-79"/>
<polygon fill="midnightblue" stroke="midnightblue" points="481.16,-82.28 489.4,-75.62 478.8,-75.69 481.16,-82.28"/>
</g>
<!-- Node5 -->
<g id="node5" class="node">
<title>Node5</title>
<g id="a_node5"><a xlink:href="libccc__errors_8h.html" target="_top" xlink:title=" ">
<polygon fill="white" stroke="black" points="444.95,-112.5 444.95,-131.5 539.95,-131.5 539.95,-112.5 444.95,-112.5"/>
<text text-anchor="middle" x="492.45" y="-119.5" font-family="Consolas" font-size="10.00">libccc_errors.h</text>
</a>
</g>
</g>
<!-- Node2&#45;&gt;Node5 -->
<g id="edge4" class="edge">
<title>Node2&#45;&gt;Node5</title>
<path fill="none" stroke="midnightblue" d="M526.51,-224.49C522.44,-215.53 516.05,-200.94 511.45,-188 505.9,-172.42 500.72,-154.35 497.17,-141.22"/>
<polygon fill="midnightblue" stroke="midnightblue" points="500.54,-140.29 494.6,-131.51 493.78,-142.08 500.54,-140.29"/>
</g>
<!-- Node6 -->
<g id="node6" class="node">
<title>Node6</title>
<g id="a_node6"><a xlink:href="libccc__config_8h.html" target="_top" xlink:title=" ">
<polygon fill="white" stroke="black" points="520.95,-168.5 520.95,-187.5 615.95,-187.5 615.95,-168.5 520.95,-168.5"/>
<text text-anchor="middle" x="568.45" y="-175.5" font-family="Consolas" font-size="10.00">libccc_config.h</text>
</a>
</g>
</g>
<!-- Node2&#45;&gt;Node6 -->
<g id="edge6" class="edge">
<title>Node2&#45;&gt;Node6</title>
<path fill="none" stroke="midnightblue" d="M536.72,-224.08C542.09,-216.46 549.96,-205.26 556.53,-195.94"/>
<polygon fill="midnightblue" stroke="midnightblue" points="559.4,-197.94 562.29,-187.75 553.67,-193.91 559.4,-197.94"/>
</g>
<!-- Node7 -->
<g id="node7" class="node">
<title>Node7</title>
<g id="a_node7"><a xlink:href="libccc__naming_8h.html" target="_top" xlink:title=" ">
<polygon fill="white" stroke="black" points="596.95,-112.5 596.95,-131.5 691.95,-131.5 691.95,-112.5 596.95,-112.5"/>
<text text-anchor="middle" x="644.45" y="-119.5" font-family="Consolas" font-size="10.00">libccc_naming.h</text>
</a>
</g>
</g>
<!-- Node2&#45;&gt;Node7 -->
<g id="edge9" class="edge">
<title>Node2&#45;&gt;Node7</title>
<path fill="none" stroke="midnightblue" d="M560.18,-225.9C581.24,-219.4 608.63,-207.71 625.45,-188 636.53,-175.02 641.15,-155.85 643.08,-141.69"/>
<polygon fill="midnightblue" stroke="midnightblue" points="646.57,-141.93 644.12,-131.63 639.61,-141.22 646.57,-141.93"/>
</g>
<!-- Node4 -->
<g id="node4" class="node">
<title>Node4</title>
<g id="a_node4"><a xlink:title=" ">
<polygon fill="white" stroke="#bfbfbf" points="495.95,-0.5 495.95,-19.5 564.95,-19.5 564.95,-0.5 495.95,-0.5"/>
<text text-anchor="middle" x="530.45" y="-7.5" font-family="Consolas" font-size="10.00">stdalign.h</text>
</a>
</g>
</g>
<!-- Node3&#45;&gt;Node4 -->
<g id="edge3" class="edge">
<title>Node3&#45;&gt;Node4</title>
<path fill="none" stroke="midnightblue" d="M530.45,-56.08C530.45,-49.01 530.45,-38.86 530.45,-29.99"/>
<polygon fill="midnightblue" stroke="midnightblue" points="533.95,-29.75 530.45,-19.75 526.95,-29.75 533.95,-29.75"/>
</g>
<!-- Node5&#45;&gt;Node3 -->
<g id="edge5" class="edge">
<title>Node5&#45;&gt;Node3</title>
<path fill="none" stroke="midnightblue" d="M498.72,-112.08C504.09,-104.46 511.96,-93.26 518.53,-83.94"/>
<polygon fill="midnightblue" stroke="midnightblue" points="521.4,-85.94 524.29,-75.75 515.67,-81.91 521.4,-85.94"/>
</g>
<!-- Node6&#45;&gt;Node3 -->
<g id="edge7" class="edge">
<title>Node6&#45;&gt;Node3</title>
<path fill="none" stroke="midnightblue" d="M566.29,-168.49C563.05,-155.97 556.54,-131.94 549.45,-112 546.21,-102.9 542.09,-92.99 538.52,-84.79"/>
<polygon fill="midnightblue" stroke="midnightblue" points="541.65,-83.22 534.39,-75.51 535.26,-86.07 541.65,-83.22"/>
</g>
<!-- Node6&#45;&gt;Node5 -->
<g id="edge8" class="edge">
<title>Node6&#45;&gt;Node5</title>
<path fill="none" stroke="midnightblue" d="M556.24,-168.32C544.67,-160.11 527.07,-147.6 513.29,-137.81"/>
<polygon fill="midnightblue" stroke="midnightblue" points="515.06,-134.77 504.88,-131.83 511,-140.48 515.06,-134.77"/>
</g>
<!-- Node7&#45;&gt;Node3 -->
<g id="edge10" class="edge">
<title>Node7&#45;&gt;Node3</title>
<path fill="none" stroke="midnightblue" d="M626.38,-112.44C607.87,-103.68 578.87,-89.94 557.59,-79.86"/>
<polygon fill="midnightblue" stroke="midnightblue" points="558.96,-76.63 548.43,-75.52 555.97,-82.96 558.96,-76.63"/>
</g>
<!-- Node10 -->
<g id="node10" class="node">
<title>Node10</title>
<g id="a_node10"><a xlink:title=" ">
<polygon fill="white" stroke="#bfbfbf" points="174.95,-280.5 174.95,-299.5 233.95,-299.5 233.95,-280.5 174.95,-280.5"/>
<text text-anchor="middle" x="204.45" y="-287.5" font-family="Consolas" font-size="10.00">stdarg.h</text>
</a>
</g>
</g>
<!-- Node9&#45;&gt;Node10 -->
<g id="edge13" class="edge">
<title>Node9&#45;&gt;Node10</title>
<path fill="none" stroke="midnightblue" d="M242.85,-336.08C236.22,-328.3 226.43,-316.8 218.39,-307.37"/>
<polygon fill="midnightblue" stroke="midnightblue" points="221.05,-305.09 211.9,-299.75 215.72,-309.63 221.05,-305.09"/>
</g>
<!-- Node11 -->
<g id="node11" class="node">
<title>Node11</title>
<g id="a_node11"><a xlink:href="bool_8h.html" target="_top" xlink:title=" ">
<polygon fill="white" stroke="black" points="396.95,-280.5 396.95,-299.5 481.95,-299.5 481.95,-280.5 396.95,-280.5"/>
<text text-anchor="middle" x="439.45" y="-287.5" font-family="Consolas" font-size="10.00">libccc/bool.h</text>
</a>
</g>
</g>
<!-- Node9&#45;&gt;Node11 -->
<g id="edge14" class="edge">
<title>Node9&#45;&gt;Node11</title>
<path fill="none" stroke="midnightblue" d="M280.39,-336.44C312.61,-327.24 363.98,-312.56 399.59,-302.39"/>
<polygon fill="midnightblue" stroke="midnightblue" points="400.99,-305.63 409.64,-299.52 399.06,-298.9 400.99,-305.63"/>
</g>
<!-- Node13 -->
<g id="node13" class="node">
<title>Node13</title>
<g id="a_node13"><a xlink:href="int_8h.html" target="_top" xlink:title=" ">
<polygon fill="white" stroke="black" points="500.45,-280.5 500.45,-299.5 580.45,-299.5 580.45,-280.5 500.45,-280.5"/>
<text text-anchor="middle" x="540.45" y="-287.5" font-family="Consolas" font-size="10.00">libccc/int.h</text>
</a>
</g>
</g>
<!-- Node9&#45;&gt;Node13 -->
<g id="edge17" class="edge">
<title>Node9&#45;&gt;Node13</title>
<path fill="none" stroke="midnightblue" d="M296.4,-336.44C349.21,-326.61 435.61,-310.52 490.18,-300.36"/>
<polygon fill="midnightblue" stroke="midnightblue" points="491.12,-303.74 500.31,-298.47 489.84,-296.86 491.12,-303.74"/>
</g>
<!-- Node15 -->
<g id="node15" class="node">
<title>Node15</title>
<g id="a_node15"><a xlink:title=" ">
<polygon fill="white" stroke="#bfbfbf" points="24.45,-280.5 24.45,-299.5 156.45,-299.5 156.45,-280.5 24.45,-280.5"/>
<text text-anchor="middle" x="90.45" y="-287.5" font-family="Consolas" font-size="10.00">libccc/generic/array.c</text>
</a>
</g>
</g>
<!-- Node9&#45;&gt;Node15 -->
<g id="edge20" class="edge">
<title>Node9&#45;&gt;Node15</title>
<path fill="none" stroke="midnightblue" d="M225.09,-336.44C198.18,-327.36 155.45,-312.94 125.36,-302.78"/>
<polygon fill="midnightblue" stroke="midnightblue" points="126.28,-299.4 115.68,-299.52 124.04,-306.03 126.28,-299.4"/>
</g>
<!-- Node11&#45;&gt;Node2 -->
<g id="edge15" class="edge">
<title>Node11&#45;&gt;Node2</title>
<path fill="none" stroke="midnightblue" d="M454.07,-280.32C468.4,-271.82 490.46,-258.73 507.2,-248.8"/>
<polygon fill="midnightblue" stroke="midnightblue" points="509.05,-251.77 515.86,-243.65 505.48,-245.75 509.05,-251.77"/>
</g>
<!-- Node12 -->
<g id="node12" class="node">
<title>Node12</title>
<g id="a_node12"><a xlink:title=" ">
<polygon fill="white" stroke="#bfbfbf" points="407.45,-224.5 407.45,-243.5 471.45,-243.5 471.45,-224.5 407.45,-224.5"/>
<text text-anchor="middle" x="439.45" y="-231.5" font-family="Consolas" font-size="10.00">stdbool.h</text>
</a>
</g>
</g>
<!-- Node11&#45;&gt;Node12 -->
<g id="edge16" class="edge">
<title>Node11&#45;&gt;Node12</title>
<path fill="none" stroke="midnightblue" d="M439.45,-280.08C439.45,-273.01 439.45,-262.86 439.45,-253.99"/>
<polygon fill="midnightblue" stroke="midnightblue" points="442.95,-253.75 439.45,-243.75 435.95,-253.75 442.95,-253.75"/>
</g>
<!-- Node13&#45;&gt;Node2 -->
<g id="edge19" class="edge">
<title>Node13&#45;&gt;Node2</title>
<path fill="none" stroke="midnightblue" d="M538.8,-280.08C537.47,-272.93 535.57,-262.64 533.91,-253.69"/>
<polygon fill="midnightblue" stroke="midnightblue" points="537.33,-252.95 532.07,-243.75 530.45,-254.22 537.33,-252.95"/>
</g>
<!-- Node14 -->
<g id="node14" class="node">
<title>Node14</title>
<g id="a_node14"><a xlink:title=" ">
<polygon fill="white" stroke="#bfbfbf" points="632.95,-224.5 632.95,-243.5 691.95,-243.5 691.95,-224.5 632.95,-224.5"/>
<text text-anchor="middle" x="662.45" y="-231.5" font-family="Consolas" font-size="10.00">stdint.h</text>
</a>
</g>
</g>
<!-- Node13&#45;&gt;Node14 -->
<g id="edge18" class="edge">
<title>Node13&#45;&gt;Node14</title>
<path fill="none" stroke="midnightblue" d="M559.78,-280.44C579.77,-271.6 611.19,-257.69 634.01,-247.59"/>
<polygon fill="midnightblue" stroke="midnightblue" points="635.48,-250.76 643.21,-243.52 632.65,-244.36 635.48,-250.76"/>
</g>
<!-- Node16&#45;&gt;Node10 -->
<g id="edge22" class="edge">
<title>Node16&#45;&gt;Node10</title>
<path fill="none" stroke="midnightblue" d="M367.71,-336.44C334.21,-327.12 280.52,-312.17 243.93,-301.99"/>
<polygon fill="midnightblue" stroke="midnightblue" points="244.66,-298.56 234.09,-299.25 242.78,-305.3 244.66,-298.56"/>
</g>
<!-- Node16&#45;&gt;Node11 -->
<g id="edge23" class="edge">
<title>Node16&#45;&gt;Node11</title>
<path fill="none" stroke="midnightblue" d="M405.22,-336.08C411.01,-328.46 419.51,-317.26 426.58,-307.94"/>
<polygon fill="midnightblue" stroke="midnightblue" points="429.54,-309.83 432.8,-299.75 423.97,-305.6 429.54,-309.83"/>
</g>
<!-- Node16&#45;&gt;Node13 -->
<g id="edge24" class="edge">
<title>Node16&#45;&gt;Node13</title>
<path fill="none" stroke="midnightblue" d="M420.95,-336.44C444.52,-327.48 481.77,-313.31 508.41,-303.18"/>
<polygon fill="midnightblue" stroke="midnightblue" points="509.95,-306.34 518.05,-299.52 507.46,-299.8 509.95,-306.34"/>
</g>
<!-- Node17 -->
<g id="node17" class="node">
<title>Node17</title>
<g id="a_node17"><a xlink:title=" ">
<polygon fill="white" stroke="#bfbfbf" points="251.95,-280.5 251.95,-299.5 378.95,-299.5 378.95,-280.5 251.95,-280.5"/>
<text text-anchor="middle" x="315.45" y="-287.5" font-family="Consolas" font-size="10.00">libccc/generic/list.c</text>
</a>
</g>
</g>
<!-- Node16&#45;&gt;Node17 -->
<g id="edge25" class="edge">
<title>Node16&#45;&gt;Node17</title>
<path fill="none" stroke="midnightblue" d="M385.11,-336.32C372.29,-327.98 352.66,-315.21 337.51,-305.35"/>
<polygon fill="midnightblue" stroke="midnightblue" points="339.04,-302.17 328.75,-299.65 335.22,-308.04 339.04,-302.17"/>
</g>
<!-- Node18&#45;&gt;Node11 -->
<g id="edge27" class="edge">
<title>Node18&#45;&gt;Node11</title>
<path fill="none" stroke="midnightblue" d="M526.74,-336.32C510.14,-327.7 484.45,-314.36 465.23,-304.39"/>
<polygon fill="midnightblue" stroke="midnightblue" points="466.6,-301.16 456.12,-299.65 463.38,-307.37 466.6,-301.16"/>
</g>
<!-- Node18&#45;&gt;Node13 -->
<g id="edge28" class="edge">
<title>Node18&#45;&gt;Node13</title>
<path fill="none" stroke="midnightblue" d="M542.95,-336.08C542.56,-329.01 542,-318.86 541.5,-309.99"/>
<polygon fill="midnightblue" stroke="midnightblue" points="544.98,-309.54 540.93,-299.75 537.99,-309.93 544.98,-309.54"/>
</g>
<!-- Node19 -->
<g id="node19" class="node">
<title>Node19</title>
<g id="a_node19"><a xlink:title=" ">
<polygon fill="white" stroke="#bfbfbf" points="598.95,-280.5 598.95,-299.5 725.95,-299.5 725.95,-280.5 598.95,-280.5"/>
<text text-anchor="middle" x="662.45" y="-287.5" font-family="Consolas" font-size="10.00">libccc/generic/dict.c</text>
</a>
</g>
</g>
<!-- Node18&#45;&gt;Node19 -->
<g id="edge29" class="edge">
<title>Node18&#45;&gt;Node19</title>
<path fill="none" stroke="midnightblue" d="M562.3,-336.44C581.71,-327.64 612.18,-313.81 634.41,-303.72"/>
<polygon fill="midnightblue" stroke="midnightblue" points="636.02,-306.84 643.68,-299.52 633.13,-300.46 636.02,-306.84"/>
</g>
<!-- Node20&#45;&gt;Node11 -->
<g id="edge31" class="edge">
<title>Node20&#45;&gt;Node11</title>
<path fill="none" stroke="midnightblue" d="M648.99,-336.44C605.56,-327.02 535.66,-311.87 488.67,-301.68"/>
<polygon fill="midnightblue" stroke="midnightblue" points="489.23,-298.22 478.72,-299.52 487.75,-305.06 489.23,-298.22"/>
</g>
<!-- Node20&#45;&gt;Node13 -->
<g id="edge32" class="edge">
<title>Node20&#45;&gt;Node13</title>
<path fill="none" stroke="midnightblue" d="M665,-336.44C640.31,-327.44 601.26,-313.19 573.47,-303.05"/>
<polygon fill="midnightblue" stroke="midnightblue" points="574.38,-299.66 563.79,-299.52 571.98,-306.23 574.38,-299.66"/>
</g>
<!-- Node21 -->
<g id="node21" class="node">
<title>Node21</title>
<g id="a_node21"><a xlink:href="pointer_8h.html" target="_top" xlink:title=" ">
<polygon fill="white" stroke="black" points="743.95,-280.5 743.95,-299.5 844.95,-299.5 844.95,-280.5 743.95,-280.5"/>
<text text-anchor="middle" x="794.45" y="-287.5" font-family="Consolas" font-size="10.00">libccc/pointer.h</text>
</a>
</g>
</g>
<!-- Node20&#45;&gt;Node21 -->
<g id="edge33" class="edge">
<title>Node20&#45;&gt;Node21</title>
<path fill="none" stroke="midnightblue" d="M705.48,-336.32C722.48,-327.66 748.82,-314.24 768.44,-304.25"/>
<polygon fill="midnightblue" stroke="midnightblue" points="770.14,-307.31 777.46,-299.65 766.96,-301.08 770.14,-307.31"/>
</g>
<!-- Node23 -->
<g id="node23" class="node">
<title>Node23</title>
<g id="a_node23"><a xlink:title=" ">
<polygon fill="white" stroke="#bfbfbf" points="862.95,-280.5 862.95,-299.5 989.95,-299.5 989.95,-280.5 862.95,-280.5"/>
<text text-anchor="middle" x="926.45" y="-287.5" font-family="Consolas" font-size="10.00">libccc/generic/tree.c</text>
</a>
</g>
</g>
<!-- Node20&#45;&gt;Node23 -->
<g id="edge37" class="edge">
<title>Node20&#45;&gt;Node23</title>
<path fill="none" stroke="midnightblue" d="M726.16,-336.44C767.59,-327.04 834.2,-311.93 879.11,-301.74"/>
<polygon fill="midnightblue" stroke="midnightblue" points="879.93,-305.14 888.91,-299.52 878.39,-298.32 879.93,-305.14"/>
</g>
<!-- Node21&#45;&gt;Node2 -->
<g id="edge36" class="edge">
<title>Node21&#45;&gt;Node2</title>
<path fill="none" stroke="midnightblue" d="M752.62,-280.44C702.53,-270.2 619.26,-253.17 570.14,-243.12"/>
<polygon fill="midnightblue" stroke="midnightblue" points="570.7,-239.66 560.2,-241.09 569.3,-246.52 570.7,-239.66"/>
</g>
<!-- Node21&#45;&gt;Node14 -->
<g id="edge35" class="edge">
<title>Node21&#45;&gt;Node14</title>
<path fill="none" stroke="midnightblue" d="M773.53,-280.44C751.71,-271.52 717.3,-257.44 692.56,-247.32"/>
<polygon fill="midnightblue" stroke="midnightblue" points="693.85,-244.06 683.27,-243.52 691.2,-250.54 693.85,-244.06"/>
</g>
<!-- Node22 -->
<g id="node22" class="node">
<title>Node22</title>
<g id="a_node22"><a xlink:title=" ">
<polygon fill="white" stroke="#bfbfbf" points="764.95,-224.5 764.95,-243.5 823.95,-243.5 823.95,-224.5 764.95,-224.5"/>
<text text-anchor="middle" x="794.45" y="-231.5" font-family="Consolas" font-size="10.00">stddef.h</text>
</a>
</g>
</g>
<!-- Node21&#45;&gt;Node22 -->
<g id="edge34" class="edge">
<title>Node21&#45;&gt;Node22</title>
<path fill="none" stroke="midnightblue" d="M794.45,-280.08C794.45,-273.01 794.45,-262.86 794.45,-253.99"/>
<polygon fill="midnightblue" stroke="midnightblue" points="797.95,-253.75 794.45,-243.75 790.95,-253.75 797.95,-253.75"/>
</g>
</g>
</svg>
