<?xml version="1.0" encoding="UTF-8" standalone="no"?>
<!DOCTYPE svg PUBLIC "-//W3C//DTD SVG 1.1//EN"
 "http://www.w3.org/Graphics/SVG/1.1/DTD/svg11.dtd">
<!-- Generated by graphviz version 2.49.3 (20211023.0002)
 -->
<!-- Title: libccc/monad/convert.h Pages: 1 -->
<svg width="837pt" height="420pt"
 viewBox="0.00 0.00 837.15 420.00" xmlns="http://www.w3.org/2000/svg" xmlns:xlink="http://www.w3.org/1999/xlink">
<g id="graph0" class="graph" transform="scale(1 1) rotate(0) translate(4 416)">
<title>libccc/monad/convert.h</title>
<polygon fill="white" stroke="transparent" points="-4,4 -4,-416 833.15,-416 833.15,4 -4,4"/>
<!-- Node1 -->
<g id="node1" class="node">
<title>Node1</title>
<g id="a_node1"><a xlink:title=" ">
<polygon fill="#bfbfbf" stroke="black" points="217.15,-392.5 217.15,-411.5 335.15,-411.5 335.15,-392.5 217.15,-392.5"/>
<text text-anchor="middle" x="276.15" y="-399.5" font-family="Consolas" font-size="10.00">libccc/monad/convert.h</text>
</a>
</g>
</g>
<!-- Node2 -->
<g id="node2" class="node">
<title>Node2</title>
<g id="a_node2"><a xlink:href="libccc_8h.html" target="_top" xlink:title=" ">
<polygon fill="white" stroke="black" points="425.15,-224.5 425.15,-243.5 475.15,-243.5 475.15,-224.5 425.15,-224.5"/>
<text text-anchor="middle" x="450.15" y="-231.5" font-family="Consolas" font-size="10.00">libccc.h</text>
</a>
</g>
</g>
<!-- Node1&#45;&gt;Node2 -->
<g id="edge1" class="edge">
<title>Node1&#45;&gt;Node2</title>
<path fill="none" stroke="midnightblue" d="M216.96,-399.04C148.99,-395.42 43.55,-385.13 18.15,-356 -4.05,-330.53 -6.62,-304.96 16.15,-280 45.63,-247.69 364.91,-250.59 408.15,-244 410.37,-243.66 412.64,-243.28 414.93,-242.87"/>
<polygon fill="midnightblue" stroke="midnightblue" points="415.78,-246.27 424.92,-240.92 414.44,-239.4 415.78,-246.27"/>
</g>
<!-- Node8 -->
<g id="node8" class="node">
<title>Node8</title>
<g id="a_node8"><a xlink:title=" ">
<polygon fill="white" stroke="#bfbfbf" points="27.15,-336.5 27.15,-355.5 145.15,-355.5 145.15,-336.5 27.15,-336.5"/>
<text text-anchor="middle" x="86.15" y="-343.5" font-family="Consolas" font-size="10.00">libccc/monad/convert.c</text>
</a>
</g>
</g>
<!-- Node1&#45;&gt;Node8 -->
<g id="edge11" class="edge">
<title>Node1&#45;&gt;Node8</title>
<path fill="none" stroke="midnightblue" d="M246.05,-392.44C213.53,-383.2 161.57,-368.44 125.76,-358.26"/>
<polygon fill="midnightblue" stroke="midnightblue" points="126.69,-354.88 116.12,-355.52 124.78,-361.62 126.69,-354.88"/>
</g>
<!-- Node9 -->
<g id="node9" class="node">
<title>Node9</title>
<g id="a_node9"><a xlink:href="array_8h.html" target="_top" xlink:title=" ">
<polygon fill="white" stroke="black" points="163.15,-336.5 163.15,-355.5 269.15,-355.5 269.15,-336.5 163.15,-336.5"/>
<text text-anchor="middle" x="216.15" y="-343.5" font-family="Consolas" font-size="10.00">libccc/monad/array.h</text>
</a>
</g>
</g>
<!-- Node1&#45;&gt;Node9 -->
<g id="edge12" class="edge">
<title>Node1&#45;&gt;Node9</title>
<path fill="none" stroke="midnightblue" d="M266.51,-392.32C257.64,-384.34 244.28,-372.31 233.54,-362.65"/>
<polygon fill="midnightblue" stroke="midnightblue" points="235.74,-359.92 225.97,-355.83 231.06,-365.13 235.74,-359.92"/>
</g>
<!-- Node16 -->
<g id="node16" class="node">
<title>Node16</title>
<g id="a_node16"><a xlink:href="list_8h.html" target="_top" xlink:title=" ">
<polygon fill="white" stroke="black" points="287.15,-336.5 287.15,-355.5 385.15,-355.5 385.15,-336.5 287.15,-336.5"/>
<text text-anchor="middle" x="336.15" y="-343.5" font-family="Consolas" font-size="10.00">libccc/monad/list.h</text>
</a>
</g>
</g>
<!-- Node1&#45;&gt;Node16 -->
<g id="edge21" class="edge">
<title>Node1&#45;&gt;Node16</title>
<path fill="none" stroke="midnightblue" d="M285.79,-392.32C294.66,-384.34 308.03,-372.31 318.76,-362.65"/>
<polygon fill="midnightblue" stroke="midnightblue" points="321.24,-365.13 326.34,-355.83 316.56,-359.92 321.24,-365.13"/>
</g>
<!-- Node18 -->
<g id="node18" class="node">
<title>Node18</title>
<g id="a_node18"><a xlink:href="dict_8h.html" target="_top" xlink:title=" ">
<polygon fill="white" stroke="black" points="403.65,-336.5 403.65,-355.5 504.65,-355.5 504.65,-336.5 403.65,-336.5"/>
<text text-anchor="middle" x="454.15" y="-343.5" font-family="Consolas" font-size="10.00">libccc/monad/dict.h</text>
</a>
</g>
</g>
<!-- Node1&#45;&gt;Node18 -->
<g id="edge26" class="edge">
<title>Node1&#45;&gt;Node18</title>
<path fill="none" stroke="midnightblue" d="M304.36,-392.44C334.56,-383.28 382.66,-368.69 416.18,-358.52"/>
<polygon fill="midnightblue" stroke="midnightblue" points="417.53,-361.77 426.08,-355.52 415.49,-355.07 417.53,-361.77"/>
</g>
<!-- Node20 -->
<g id="node20" class="node">
<title>Node20</title>
<g id="a_node20"><a xlink:href="tree_8h.html" target="_top" xlink:title=" ">
<polygon fill="white" stroke="black" points="523.15,-336.5 523.15,-355.5 625.15,-355.5 625.15,-336.5 523.15,-336.5"/>
<text text-anchor="middle" x="574.15" y="-343.5" font-family="Consolas" font-size="10.00">libccc/monad/tree.h</text>
</a>
</g>
</g>
<!-- Node1&#45;&gt;Node20 -->
<g id="edge30" class="edge">
<title>Node1&#45;&gt;Node20</title>
<path fill="none" stroke="midnightblue" d="M323.37,-392.44C375.9,-382.92 460.76,-367.55 517,-357.36"/>
<polygon fill="midnightblue" stroke="midnightblue" points="517.94,-360.74 527.15,-355.52 516.69,-353.86 517.94,-360.74"/>
</g>
<!-- Node3 -->
<g id="node3" class="node">
<title>Node3</title>
<g id="a_node3"><a xlink:href="libccc__define_8h.html" target="_top" xlink:title=" ">
<polygon fill="white" stroke="black" points="410.15,-56.5 410.15,-75.5 492.15,-75.5 492.15,-56.5 410.15,-56.5"/>
<text text-anchor="middle" x="451.15" y="-63.5" font-family="Consolas" font-size="10.00">libccc_define.h</text>
</a>
</g>
</g>
<!-- Node2&#45;&gt;Node3 -->
<g id="edge2" class="edge">
<title>Node2&#45;&gt;Node3</title>
<path fill="none" stroke="midnightblue" d="M436.37,-224.42C406.84,-204.93 342.19,-155.61 368.15,-112 377.25,-96.72 393.54,-86.31 409.3,-79.39"/>
<polygon fill="midnightblue" stroke="midnightblue" points="410.99,-82.48 418.97,-75.51 408.38,-75.98 410.99,-82.48"/>
</g>
<!-- Node5 -->
<g id="node5" class="node">
<title>Node5</title>
<g id="a_node5"><a xlink:href="libccc__errors_8h.html" target="_top" xlink:title=" ">
<polygon fill="white" stroke="black" points="377.15,-112.5 377.15,-131.5 457.15,-131.5 457.15,-112.5 377.15,-112.5"/>
<text text-anchor="middle" x="417.15" y="-119.5" font-family="Consolas" font-size="10.00">libccc_errors.h</text>
</a>
</g>
</g>
<!-- Node2&#45;&gt;Node5 -->
<g id="edge4" class="edge">
<title>Node2&#45;&gt;Node5</title>
<path fill="none" stroke="midnightblue" d="M447.14,-224.42C444.02,-215.39 439.04,-200.76 435.15,-188 430.4,-172.42 425.5,-154.59 422.02,-141.55"/>
<polygon fill="midnightblue" stroke="midnightblue" points="425.4,-140.64 419.45,-131.87 418.63,-142.44 425.4,-140.64"/>
</g>
<!-- Node6 -->
<g id="node6" class="node">
<title>Node6</title>
<g id="a_node6"><a xlink:href="libccc__config_8h.html" target="_top" xlink:title=" ">
<polygon fill="white" stroke="black" points="444.15,-168.5 444.15,-187.5 526.15,-187.5 526.15,-168.5 444.15,-168.5"/>
<text text-anchor="middle" x="485.15" y="-175.5" font-family="Consolas" font-size="10.00">libccc_config.h</text>
</a>
</g>
</g>
<!-- Node2&#45;&gt;Node6 -->
<g id="edge6" class="edge">
<title>Node2&#45;&gt;Node6</title>
<path fill="none" stroke="midnightblue" d="M455.93,-224.08C460.82,-216.53 467.98,-205.49 473.98,-196.23"/>
<polygon fill="midnightblue" stroke="midnightblue" points="476.98,-198.05 479.48,-187.75 471.1,-194.24 476.98,-198.05"/>
</g>
<!-- Node7 -->
<g id="node7" class="node">
<title>Node7</title>
<g id="a_node7"><a xlink:href="libccc__naming_8h.html" target="_top" xlink:title=" ">
<polygon fill="white" stroke="black" points="513.65,-112.5 513.65,-131.5 600.65,-131.5 600.65,-112.5 513.65,-112.5"/>
<text text-anchor="middle" x="557.15" y="-119.5" font-family="Consolas" font-size="10.00">libccc_naming.h</text>
</a>
</g>
</g>
<!-- Node2&#45;&gt;Node7 -->
<g id="edge9" class="edge">
<title>Node2&#45;&gt;Node7</title>
<path fill="none" stroke="midnightblue" d="M475.38,-225.36C494.27,-218.43 519.46,-206.44 535.15,-188 546.36,-174.83 551.93,-155.69 554.66,-141.59"/>
<polygon fill="midnightblue" stroke="midnightblue" points="558.13,-142 556.28,-131.57 551.22,-140.88 558.13,-142"/>
</g>
<!-- Node4 -->
<g id="node4" class="node">
<title>Node4</title>
<g id="a_node4"><a xlink:title=" ">
<polygon fill="white" stroke="#bfbfbf" points="421.65,-0.5 421.65,-19.5 480.65,-19.5 480.65,-0.5 421.65,-0.5"/>
<text text-anchor="middle" x="451.15" y="-7.5" font-family="Consolas" font-size="10.00">stdalign.h</text>
</a>
</g>
</g>
<!-- Node3&#45;&gt;Node4 -->
<g id="edge3" class="edge">
<title>Node3&#45;&gt;Node4</title>
<path fill="none" stroke="midnightblue" d="M451.15,-56.08C451.15,-49.01 451.15,-38.86 451.15,-29.99"/>
<polygon fill="midnightblue" stroke="midnightblue" points="454.65,-29.75 451.15,-19.75 447.65,-29.75 454.65,-29.75"/>
</g>
<!-- Node5&#45;&gt;Node3 -->
<g id="edge5" class="edge">
<title>Node5&#45;&gt;Node3</title>
<path fill="none" stroke="midnightblue" d="M422.77,-112.08C427.52,-104.53 434.47,-93.49 440.3,-84.23"/>
<polygon fill="midnightblue" stroke="midnightblue" points="443.28,-86.08 445.64,-75.75 437.35,-82.35 443.28,-86.08"/>
</g>
<!-- Node6&#45;&gt;Node3 -->
<g id="edge7" class="edge">
<title>Node6&#45;&gt;Node3</title>
<path fill="none" stroke="midnightblue" d="M482.67,-168.14C479.14,-155.6 472.4,-131.97 466.15,-112 463.38,-103.15 460.15,-93.37 457.39,-85.2"/>
<polygon fill="midnightblue" stroke="midnightblue" points="460.66,-83.94 454.12,-75.6 454.03,-86.19 460.66,-83.94"/>
</g>
<!-- Node6&#45;&gt;Node5 -->
<g id="edge8" class="edge">
<title>Node6&#45;&gt;Node5</title>
<path fill="none" stroke="midnightblue" d="M474.23,-168.32C463.98,-160.18 448.43,-147.84 436.15,-138.09"/>
<polygon fill="midnightblue" stroke="midnightblue" points="438.28,-135.31 428.28,-131.83 433.93,-140.79 438.28,-135.31"/>
</g>
<!-- Node7&#45;&gt;Node3 -->
<g id="edge10" class="edge">
<title>Node7&#45;&gt;Node3</title>
<path fill="none" stroke="midnightblue" d="M540.12,-112.32C523.12,-103.66 496.78,-90.24 477.16,-80.25"/>
<polygon fill="midnightblue" stroke="midnightblue" points="478.64,-77.08 468.14,-75.65 475.46,-83.31 478.64,-77.08"/>
</g>
<!-- Node10 -->
<g id="node10" class="node">
<title>Node10</title>
<g id="a_node10"><a xlink:title=" ">
<polygon fill="white" stroke="#bfbfbf" points="149.15,-280.5 149.15,-299.5 201.15,-299.5 201.15,-280.5 149.15,-280.5"/>
<text text-anchor="middle" x="175.15" y="-287.5" font-family="Consolas" font-size="10.00">stdarg.h</text>
</a>
</g>
</g>
<!-- Node9&#45;&gt;Node10 -->
<g id="edge13" class="edge">
<title>Node9&#45;&gt;Node10</title>
<path fill="none" stroke="midnightblue" d="M209.38,-336.08C203.59,-328.46 195.09,-317.26 188.01,-307.94"/>
<polygon fill="midnightblue" stroke="midnightblue" points="190.63,-305.6 181.8,-299.75 185.06,-309.83 190.63,-305.6"/>
</g>
<!-- Node11 -->
<g id="node11" class="node">
<title>Node11</title>
<g id="a_node11"><a xlink:href="bool_8h.html" target="_top" xlink:title=" ">
<polygon fill="white" stroke="black" points="335.65,-280.5 335.65,-299.5 406.65,-299.5 406.65,-280.5 335.65,-280.5"/>
<text text-anchor="middle" x="371.15" y="-287.5" font-family="Consolas" font-size="10.00">libccc/bool.h</text>
</a>
</g>
</g>
<!-- Node9&#45;&gt;Node11 -->
<g id="edge14" class="edge">
<title>Node9&#45;&gt;Node11</title>
<path fill="none" stroke="midnightblue" d="M240.71,-336.44C266.67,-327.4 307.82,-313.06 336.95,-302.92"/>
<polygon fill="midnightblue" stroke="midnightblue" points="338.41,-306.11 346.71,-299.52 336.11,-299.5 338.41,-306.11"/>
</g>
<!-- Node13 -->
<g id="node13" class="node">
<title>Node13</title>
<g id="a_node13"><a xlink:href="int_8h.html" target="_top" xlink:title=" ">
<polygon fill="white" stroke="black" points="425.15,-280.5 425.15,-299.5 489.15,-299.5 489.15,-280.5 425.15,-280.5"/>
<text text-anchor="middle" x="457.15" y="-287.5" font-family="Consolas" font-size="10.00">libccc/int.h</text>
</a>
</g>
</g>
<!-- Node9&#45;&gt;Node13 -->
<g id="edge17" class="edge">
<title>Node9&#45;&gt;Node13</title>
<path fill="none" stroke="midnightblue" d="M254.34,-336.44C298.14,-326.63 369.75,-310.58 415.11,-300.42"/>
<polygon fill="midnightblue" stroke="midnightblue" points="415.93,-303.82 424.93,-298.22 414.4,-296.99 415.93,-303.82"/>
</g>
<!-- Node15 -->
<g id="node15" class="node">
<title>Node15</title>
<g id="a_node15"><a xlink:title=" ">
<polygon fill="white" stroke="#bfbfbf" points="25.15,-280.5 25.15,-299.5 131.15,-299.5 131.15,-280.5 25.15,-280.5"/>
<text text-anchor="middle" x="78.15" y="-287.5" font-family="Consolas" font-size="10.00">libccc/monad/array.c</text>
</a>
</g>
</g>
<!-- Node9&#45;&gt;Node15 -->
<g id="edge20" class="edge">
<title>Node9&#45;&gt;Node15</title>
<path fill="none" stroke="midnightblue" d="M194.29,-336.44C171.37,-327.48 135.18,-313.31 109.29,-303.18"/>
<polygon fill="midnightblue" stroke="midnightblue" points="110.5,-299.9 99.92,-299.52 107.95,-306.42 110.5,-299.9"/>
</g>
<!-- Node11&#45;&gt;Node2 -->
<g id="edge15" class="edge">
<title>Node11&#45;&gt;Node2</title>
<path fill="none" stroke="midnightblue" d="M383.84,-280.32C396.05,-271.98 414.73,-259.21 429.15,-249.35"/>
<polygon fill="midnightblue" stroke="midnightblue" points="431.21,-252.19 437.49,-243.65 427.26,-246.41 431.21,-252.19"/>
</g>
<!-- Node12 -->
<g id="node12" class="node">
<title>Node12</title>
<g id="a_node12"><a xlink:title=" ">
<polygon fill="white" stroke="#bfbfbf" points="343.15,-224.5 343.15,-243.5 399.15,-243.5 399.15,-224.5 343.15,-224.5"/>
<text text-anchor="middle" x="371.15" y="-231.5" font-family="Consolas" font-size="10.00">stdbool.h</text>
</a>
</g>
</g>
<!-- Node11&#45;&gt;Node12 -->
<g id="edge16" class="edge">
<title>Node11&#45;&gt;Node12</title>
<path fill="none" stroke="midnightblue" d="M371.15,-280.08C371.15,-273.01 371.15,-262.86 371.15,-253.99"/>
<polygon fill="midnightblue" stroke="midnightblue" points="374.65,-253.75 371.15,-243.75 367.65,-253.75 374.65,-253.75"/>
</g>
<!-- Node13&#45;&gt;Node2 -->
<g id="edge19" class="edge">
<title>Node13&#45;&gt;Node2</title>
<path fill="none" stroke="midnightblue" d="M456,-280.08C455.07,-272.93 453.73,-262.64 452.57,-253.69"/>
<polygon fill="midnightblue" stroke="midnightblue" points="456.04,-253.22 451.29,-243.75 449.1,-254.12 456.04,-253.22"/>
</g>
<!-- Node14 -->
<g id="node14" class="node">
<title>Node14</title>
<g id="a_node14"><a xlink:title=" ">
<polygon fill="white" stroke="#bfbfbf" points="534.65,-224.5 534.65,-243.5 583.65,-243.5 583.65,-224.5 534.65,-224.5"/>
<text text-anchor="middle" x="559.15" y="-231.5" font-family="Consolas" font-size="10.00">stdint.h</text>
</a>
</g>
</g>
<!-- Node13&#45;&gt;Node14 -->
<g id="edge18" class="edge">
<title>Node13&#45;&gt;Node14</title>
<path fill="none" stroke="midnightblue" d="M473.54,-280.32C489.82,-271.7 515.02,-258.36 533.87,-248.39"/>
<polygon fill="midnightblue" stroke="midnightblue" points="535.6,-251.43 542.8,-243.65 532.33,-245.24 535.6,-251.43"/>
</g>
<!-- Node16&#45;&gt;Node10 -->
<g id="edge22" class="edge">
<title>Node16&#45;&gt;Node10</title>
<path fill="none" stroke="midnightblue" d="M310.64,-336.44C283.56,-327.36 240.56,-312.94 210.28,-302.78"/>
<polygon fill="midnightblue" stroke="midnightblue" points="211.14,-299.38 200.54,-299.52 208.91,-306.01 211.14,-299.38"/>
</g>
<!-- Node16&#45;&gt;Node11 -->
<g id="edge23" class="edge">
<title>Node16&#45;&gt;Node11</title>
<path fill="none" stroke="midnightblue" d="M341.93,-336.08C346.82,-328.53 353.98,-317.49 359.98,-308.23"/>
<polygon fill="midnightblue" stroke="midnightblue" points="362.98,-310.05 365.48,-299.75 357.1,-306.24 362.98,-310.05"/>
</g>
<!-- Node16&#45;&gt;Node13 -->
<g id="edge24" class="edge">
<title>Node16&#45;&gt;Node13</title>
<path fill="none" stroke="midnightblue" d="M355.32,-336.44C375.06,-327.64 406.04,-313.81 428.64,-303.72"/>
<polygon fill="midnightblue" stroke="midnightblue" points="430.36,-306.79 438.07,-299.52 427.51,-300.4 430.36,-306.79"/>
</g>
<!-- Node17 -->
<g id="node17" class="node">
<title>Node17</title>
<g id="a_node17"><a xlink:title=" ">
<polygon fill="white" stroke="#bfbfbf" points="219.15,-280.5 219.15,-299.5 317.15,-299.5 317.15,-280.5 219.15,-280.5"/>
<text text-anchor="middle" x="268.15" y="-287.5" font-family="Consolas" font-size="10.00">libccc/monad/list.c</text>
</a>
</g>
</g>
<!-- Node16&#45;&gt;Node17 -->
<g id="edge25" class="edge">
<title>Node16&#45;&gt;Node17</title>
<path fill="none" stroke="midnightblue" d="M325.23,-336.32C314.98,-328.18 299.43,-315.84 287.15,-306.09"/>
<polygon fill="midnightblue" stroke="midnightblue" points="289.28,-303.31 279.28,-299.83 284.93,-308.79 289.28,-303.31"/>
</g>
<!-- Node18&#45;&gt;Node11 -->
<g id="edge27" class="edge">
<title>Node18&#45;&gt;Node11</title>
<path fill="none" stroke="midnightblue" d="M440.82,-336.32C427.99,-327.98 408.37,-315.21 393.21,-305.35"/>
<polygon fill="midnightblue" stroke="midnightblue" points="394.74,-302.17 384.45,-299.65 390.93,-308.04 394.74,-302.17"/>
</g>
<!-- Node18&#45;&gt;Node13 -->
<g id="edge28" class="edge">
<title>Node18&#45;&gt;Node13</title>
<path fill="none" stroke="midnightblue" d="M454.65,-336.08C455.04,-329.01 455.6,-318.86 456.1,-309.99"/>
<polygon fill="midnightblue" stroke="midnightblue" points="459.61,-309.93 456.67,-299.75 452.62,-309.54 459.61,-309.93"/>
</g>
<!-- Node19 -->
<g id="node19" class="node">
<title>Node19</title>
<g id="a_node19"><a xlink:title=" ">
<polygon fill="white" stroke="#bfbfbf" points="507.65,-280.5 507.65,-299.5 608.65,-299.5 608.65,-280.5 507.65,-280.5"/>
<text text-anchor="middle" x="558.15" y="-287.5" font-family="Consolas" font-size="10.00">libccc/monad/dict.c</text>
</a>
</g>
</g>
<!-- Node18&#45;&gt;Node19 -->
<g id="edge29" class="edge">
<title>Node18&#45;&gt;Node19</title>
<path fill="none" stroke="midnightblue" d="M470.86,-336.32C487.46,-327.7 513.15,-314.36 532.37,-304.39"/>
<polygon fill="midnightblue" stroke="midnightblue" points="534.22,-307.37 541.48,-299.65 531,-301.16 534.22,-307.37"/>
</g>
<!-- Node20&#45;&gt;Node11 -->
<g id="edge31" class="edge">
<title>Node20&#45;&gt;Node11</title>
<path fill="none" stroke="midnightblue" d="M541.99,-336.44C507.09,-327.16 451.26,-312.31 412.98,-302.13"/>
<polygon fill="midnightblue" stroke="midnightblue" points="413.73,-298.7 403.17,-299.52 411.93,-305.47 413.73,-298.7"/>
</g>
<!-- Node20&#45;&gt;Node13 -->
<g id="edge32" class="edge">
<title>Node20&#45;&gt;Node13</title>
<path fill="none" stroke="midnightblue" d="M555.61,-336.44C536.53,-327.64 506.58,-313.81 484.72,-303.72"/>
<polygon fill="midnightblue" stroke="midnightblue" points="486.15,-300.53 475.6,-299.52 483.22,-306.88 486.15,-300.53"/>
</g>
<!-- Node21 -->
<g id="node21" class="node">
<title>Node21</title>
<g id="a_node21"><a xlink:href="pointer_8h.html" target="_top" xlink:title=" ">
<polygon fill="white" stroke="black" points="627.15,-280.5 627.15,-299.5 709.15,-299.5 709.15,-280.5 627.15,-280.5"/>
<text text-anchor="middle" x="668.15" y="-287.5" font-family="Consolas" font-size="10.00">libccc/pointer.h</text>
</a>
</g>
</g>
<!-- Node20&#45;&gt;Node21 -->
<g id="edge33" class="edge">
<title>Node20&#45;&gt;Node21</title>
<path fill="none" stroke="midnightblue" d="M589.25,-336.32C604.05,-327.82 626.85,-314.73 644.13,-304.8"/>
<polygon fill="midnightblue" stroke="midnightblue" points="646.16,-307.67 653.09,-299.65 642.67,-301.6 646.16,-307.67"/>
</g>
<!-- Node23 -->
<g id="node23" class="node">
<title>Node23</title>
<g id="a_node23"><a xlink:title=" ">
<polygon fill="white" stroke="#bfbfbf" points="727.15,-280.5 727.15,-299.5 829.15,-299.5 829.15,-280.5 727.15,-280.5"/>
<text text-anchor="middle" x="778.15" y="-287.5" font-family="Consolas" font-size="10.00">libccc/monad/tree.c</text>
</a>
</g>
</g>
<!-- Node20&#45;&gt;Node23 -->
<g id="edge37" class="edge">
<title>Node20&#45;&gt;Node23</title>
<path fill="none" stroke="midnightblue" d="M606.48,-336.44C641.54,-327.16 697.65,-312.31 736.12,-302.13"/>
<polygon fill="midnightblue" stroke="midnightblue" points="737.21,-305.46 745.98,-299.52 735.42,-298.69 737.21,-305.46"/>
</g>
<!-- Node21&#45;&gt;Node2 -->
<g id="edge36" class="edge">
<title>Node21&#45;&gt;Node2</title>
<path fill="none" stroke="midnightblue" d="M633.61,-280.44C592.99,-270.38 525.95,-253.77 485.14,-243.67"/>
<polygon fill="midnightblue" stroke="midnightblue" points="485.91,-240.25 475.36,-241.24 484.22,-247.05 485.91,-240.25"/>
</g>
<!-- Node21&#45;&gt;Node14 -->
<g id="edge35" class="edge">
<title>Node21&#45;&gt;Node14</title>
<path fill="none" stroke="midnightblue" d="M650.64,-280.32C633.08,-271.62 605.82,-258.12 585.62,-248.11"/>
<polygon fill="midnightblue" stroke="midnightblue" points="587.14,-244.96 576.62,-243.65 584.03,-251.23 587.14,-244.96"/>
</g>
<!-- Node22 -->
<g id="node22" class="node">
<title>Node22</title>
<g id="a_node22"><a xlink:title=" ">
<polygon fill="white" stroke="#bfbfbf" points="642.15,-224.5 642.15,-243.5 694.15,-243.5 694.15,-224.5 642.15,-224.5"/>
<text text-anchor="middle" x="668.15" y="-231.5" font-family="Consolas" font-size="10.00">stddef.h</text>
</a>
</g>
</g>
<!-- Node21&#45;&gt;Node22 -->
<g id="edge34" class="edge">
<title>Node21&#45;&gt;Node22</title>
<path fill="none" stroke="midnightblue" d="M668.15,-280.08C668.15,-273.01 668.15,-262.86 668.15,-253.99"/>
<polygon fill="midnightblue" stroke="midnightblue" points="671.65,-253.75 668.15,-243.75 664.65,-253.75 671.65,-253.75"/>
</g>
</g>
</svg>
