<?xml version="1.0" encoding="UTF-8" standalone="no"?>
<!DOCTYPE svg PUBLIC "-//W3C//DTD SVG 1.1//EN"
 "http://www.w3.org/Graphics/SVG/1.1/DTD/svg11.dtd">
<!-- Generated by graphviz version 3.0.0 (20220226.1711)
 -->
<!-- Title: libccc/random/csprng.h Pages: 1 -->
<svg width="357pt" height="364pt"
 viewBox="0.00 0.00 356.50 364.00" xmlns="http://www.w3.org/2000/svg" xmlns:xlink="http://www.w3.org/1999/xlink">
<g id="graph0" class="graph" transform="scale(1 1) rotate(0) translate(4 360)">
<title>libccc/random/csprng.h</title>
<polygon fill="white" stroke="transparent" points="-4,4 -4,-360 352.5,-360 352.5,4 -4,4"/>
<!-- Node1 -->
<g id="node1" class="node">
<title>Node1</title>
<g id="a_node1"><a xlink:title=" ">
<polygon fill="#bfbfbf" stroke="black" points="116,-336.5 116,-355.5 234,-355.5 234,-336.5 116,-336.5"/>
<text text-anchor="middle" x="175" y="-343.5" font-family="Consolas" font-size="10.00">libccc/random/csprng.h</text>
</a>
</g>
</g>
<!-- Node2 -->
<g id="node2" class="node">
<title>Node2</title>
<g id="a_node2"><a xlink:href="$int_8h.html" xlink:title=" ">
<polygon fill="white" stroke="black" points="100,-280.5 100,-299.5 164,-299.5 164,-280.5 100,-280.5"/>
<text text-anchor="middle" x="132" y="-287.5" font-family="Consolas" font-size="10.00">libccc/int.h</text>
</a>
</g>
</g>
<!-- Node1&#45;&gt;Node2 -->
<g id="edge1" class="edge">
<title>Node1&#45;&gt;Node2</title>
<path fill="none" stroke="midnightblue" d="M167.9,-336.08C161.76,-328.38 152.73,-317.03 145.26,-307.65"/>
<polygon fill="midnightblue" stroke="midnightblue" points="147.94,-305.39 138.97,-299.75 142.46,-309.75 147.94,-305.39"/>
</g>
<!-- Node11 -->
<g id="node11" class="node">
<title>Node11</title>
<g id="a_node11"><a xlink:href="$fixed_8h.html" xlink:title=" ">
<polygon fill="white" stroke="black" points="182,-280.5 182,-299.5 256,-299.5 256,-280.5 182,-280.5"/>
<text text-anchor="middle" x="219" y="-287.5" font-family="Consolas" font-size="10.00">libccc/fixed.h</text>
</a>
</g>
</g>
<!-- Node1&#45;&gt;Node11 -->
<g id="edge14" class="edge">
<title>Node1&#45;&gt;Node11</title>
<path fill="none" stroke="midnightblue" d="M182.27,-336.08C188.54,-328.38 197.79,-317.03 205.43,-307.65"/>
<polygon fill="midnightblue" stroke="midnightblue" points="208.27,-309.71 211.87,-299.75 202.84,-305.29 208.27,-309.71"/>
</g>
<!-- Node12 -->
<g id="node12" class="node">
<title>Node12</title>
<g id="a_node12"><a xlink:href="$float_8h.html" xlink:title=" ">
<polygon fill="white" stroke="black" points="274,-280.5 274,-299.5 346,-299.5 346,-280.5 274,-280.5"/>
<text text-anchor="middle" x="310" y="-287.5" font-family="Consolas" font-size="10.00">libccc/float.h</text>
</a>
</g>
</g>
<!-- Node1&#45;&gt;Node12 -->
<g id="edge16" class="edge">
<title>Node1&#45;&gt;Node12</title>
<path fill="none" stroke="midnightblue" d="M196.39,-336.44C218.71,-327.52 253.9,-313.44 279.21,-303.32"/>
<polygon fill="midnightblue" stroke="midnightblue" points="280.72,-306.48 288.71,-299.52 278.12,-299.98 280.72,-306.48"/>
</g>
<!-- Node13 -->
<g id="node13" class="node">
<title>Node13</title>
<g id="a_node13"><a xlink:href="$pointer_8h.html" xlink:title=" ">
<polygon fill="white" stroke="black" points="0,-280.5 0,-299.5 82,-299.5 82,-280.5 0,-280.5"/>
<text text-anchor="middle" x="41" y="-287.5" font-family="Consolas" font-size="10.00">libccc/pointer.h</text>
</a>
</g>
</g>
<!-- Node1&#45;&gt;Node13 -->
<g id="edge18" class="edge">
<title>Node1&#45;&gt;Node13</title>
<path fill="none" stroke="midnightblue" d="M153.77,-336.44C131.62,-327.52 96.68,-313.44 71.56,-303.32"/>
<polygon fill="midnightblue" stroke="midnightblue" points="72.72,-300.01 62.13,-299.52 70.1,-306.5 72.72,-300.01"/>
</g>
<!-- Node3 -->
<g id="node3" class="node">
<title>Node3</title>
<g id="a_node3"><a xlink:title=" ">
<polygon fill="white" stroke="#bfbfbf" points="96.5,-224.5 96.5,-243.5 145.5,-243.5 145.5,-224.5 96.5,-224.5"/>
<text text-anchor="middle" x="121" y="-231.5" font-family="Consolas" font-size="10.00">stdint.h</text>
</a>
</g>
</g>
<!-- Node2&#45;&gt;Node3 -->
<g id="edge2" class="edge">
<title>Node2&#45;&gt;Node3</title>
<path fill="none" stroke="midnightblue" d="M130.18,-280.08C128.73,-272.93 126.63,-262.64 124.81,-253.69"/>
<polygon fill="midnightblue" stroke="midnightblue" points="128.21,-252.85 122.78,-243.75 121.35,-254.25 128.21,-252.85"/>
</g>
<!-- Node4 -->
<g id="node4" class="node">
<title>Node4</title>
<g id="a_node4"><a xlink:href="$libccc_8h.html" xlink:title=" ">
<polygon fill="white" stroke="black" points="179,-224.5 179,-243.5 229,-243.5 229,-224.5 179,-224.5"/>
<text text-anchor="middle" x="204" y="-231.5" font-family="Consolas" font-size="10.00">libccc.h</text>
</a>
</g>
</g>
<!-- Node2&#45;&gt;Node4 -->
<g id="edge3" class="edge">
<title>Node2&#45;&gt;Node4</title>
<path fill="none" stroke="midnightblue" d="M143.57,-280.32C154.42,-272.18 170.88,-259.84 183.88,-250.09"/>
<polygon fill="midnightblue" stroke="midnightblue" points="186.32,-252.63 192.22,-243.83 182.12,-247.03 186.32,-252.63"/>
</g>
<!-- Node5 -->
<g id="node5" class="node">
<title>Node5</title>
<g id="a_node5"><a xlink:href="$libccc__define_8h.html" xlink:title=" ">
<polygon fill="white" stroke="black" points="129,-56.5 129,-75.5 211,-75.5 211,-56.5 129,-56.5"/>
<text text-anchor="middle" x="170" y="-63.5" font-family="Consolas" font-size="10.00">libccc_define.h</text>
</a>
</g>
</g>
<!-- Node4&#45;&gt;Node5 -->
<g id="edge4" class="edge">
<title>Node4&#45;&gt;Node5</title>
<path fill="none" stroke="midnightblue" d="M185.88,-224.37C157.96,-209.88 105.69,-177.7 87,-132 83.64,-123.77 82.45,-119.64 87,-112 96.1,-96.72 112.39,-86.31 128.14,-79.39"/>
<polygon fill="midnightblue" stroke="midnightblue" points="129.83,-82.48 137.82,-75.51 127.23,-75.98 129.83,-82.48"/>
</g>
<!-- Node7 -->
<g id="node7" class="node">
<title>Node7</title>
<g id="a_node7"><a xlink:href="$libccc__errors_8h.html" xlink:title=" ">
<polygon fill="white" stroke="black" points="96,-112.5 96,-131.5 176,-131.5 176,-112.5 96,-112.5"/>
<text text-anchor="middle" x="136" y="-119.5" font-family="Consolas" font-size="10.00">libccc_errors.h</text>
</a>
</g>
</g>
<!-- Node4&#45;&gt;Node7 -->
<g id="edge6" class="edge">
<title>Node4&#45;&gt;Node7</title>
<path fill="none" stroke="midnightblue" d="M190.57,-224.23C179.22,-216.13 163.34,-203.1 154,-188 145.24,-173.84 140.66,-155.36 138.32,-141.72"/>
<polygon fill="midnightblue" stroke="midnightblue" points="141.75,-141 136.83,-131.61 134.82,-142.01 141.75,-141"/>
</g>
<!-- Node8 -->
<g id="node8" class="node">
<title>Node8</title>
<g id="a_node8"><a xlink:href="$libccc__config_8h.html" xlink:title=" ">
<polygon fill="white" stroke="black" points="163,-168.5 163,-187.5 245,-187.5 245,-168.5 163,-168.5"/>
<text text-anchor="middle" x="204" y="-175.5" font-family="Consolas" font-size="10.00">libccc_config.h</text>
</a>
</g>
</g>
<!-- Node4&#45;&gt;Node8 -->
<g id="edge8" class="edge">
<title>Node4&#45;&gt;Node8</title>
<path fill="none" stroke="midnightblue" d="M204,-224.08C204,-217.01 204,-206.86 204,-197.99"/>
<polygon fill="midnightblue" stroke="midnightblue" points="207.5,-197.75 204,-187.75 200.5,-197.75 207.5,-197.75"/>
</g>
<!-- Node9 -->
<g id="node9" class="node">
<title>Node9</title>
<g id="a_node9"><a xlink:href="$libccc__naming_8h.html" xlink:title=" ">
<polygon fill="white" stroke="black" points="232.5,-112.5 232.5,-131.5 319.5,-131.5 319.5,-112.5 232.5,-112.5"/>
<text text-anchor="middle" x="276" y="-119.5" font-family="Consolas" font-size="10.00">libccc_naming.h</text>
</a>
</g>
</g>
<!-- Node4&#45;&gt;Node9 -->
<g id="edge11" class="edge">
<title>Node4&#45;&gt;Node9</title>
<path fill="none" stroke="midnightblue" d="M216.78,-224.42C228.03,-216.26 244.11,-203.02 254,-188 263.31,-173.85 269.07,-155.37 272.34,-141.73"/>
<polygon fill="midnightblue" stroke="midnightblue" points="275.84,-142.13 274.54,-131.61 269,-140.65 275.84,-142.13"/>
</g>
<!-- Node10 -->
<g id="node10" class="node">
<title>Node10</title>
<g id="a_node10"><a xlink:title=" ">
<polygon fill="white" stroke="#bfbfbf" points="301.5,-168.5 301.5,-187.5 348.5,-187.5 348.5,-168.5 301.5,-168.5"/>
<text text-anchor="middle" x="325" y="-175.5" font-family="Consolas" font-size="10.00">math.h</text>
</a>
</g>
</g>
<!-- Node4&#45;&gt;Node10 -->
<g id="edge13" class="edge">
<title>Node4&#45;&gt;Node10</title>
<path fill="none" stroke="midnightblue" d="M223.17,-224.44C242.91,-215.64 273.89,-201.81 296.49,-191.72"/>
<polygon fill="midnightblue" stroke="midnightblue" points="298.21,-194.79 305.92,-187.52 295.36,-188.4 298.21,-194.79"/>
</g>
<!-- Node6 -->
<g id="node6" class="node">
<title>Node6</title>
<g id="a_node6"><a xlink:title=" ">
<polygon fill="white" stroke="#bfbfbf" points="140.5,-0.5 140.5,-19.5 199.5,-19.5 199.5,-0.5 140.5,-0.5"/>
<text text-anchor="middle" x="170" y="-7.5" font-family="Consolas" font-size="10.00">stdalign.h</text>
</a>
</g>
</g>
<!-- Node5&#45;&gt;Node6 -->
<g id="edge5" class="edge">
<title>Node5&#45;&gt;Node6</title>
<path fill="none" stroke="midnightblue" d="M170,-56.08C170,-49.01 170,-38.86 170,-29.99"/>
<polygon fill="midnightblue" stroke="midnightblue" points="173.5,-29.75 170,-19.75 166.5,-29.75 173.5,-29.75"/>
</g>
<!-- Node7&#45;&gt;Node5 -->
<g id="edge7" class="edge">
<title>Node7&#45;&gt;Node5</title>
<path fill="none" stroke="midnightblue" d="M141.61,-112.08C146.37,-104.53 153.32,-93.49 159.15,-84.23"/>
<polygon fill="midnightblue" stroke="midnightblue" points="162.12,-86.08 164.49,-75.75 156.2,-82.35 162.12,-86.08"/>
</g>
<!-- Node8&#45;&gt;Node5 -->
<g id="edge9" class="edge">
<title>Node8&#45;&gt;Node5</title>
<path fill="none" stroke="midnightblue" d="M201.52,-168.14C197.99,-155.6 191.25,-131.97 185,-112 182.23,-103.15 179,-93.37 176.24,-85.2"/>
<polygon fill="midnightblue" stroke="midnightblue" points="179.51,-83.94 172.97,-75.6 172.88,-86.19 179.51,-83.94"/>
</g>
<!-- Node8&#45;&gt;Node7 -->
<g id="edge10" class="edge">
<title>Node8&#45;&gt;Node7</title>
<path fill="none" stroke="midnightblue" d="M193.07,-168.32C182.83,-160.18 167.28,-147.84 155,-138.09"/>
<polygon fill="midnightblue" stroke="midnightblue" points="157.13,-135.31 147.12,-131.83 152.78,-140.79 157.13,-135.31"/>
</g>
<!-- Node9&#45;&gt;Node5 -->
<g id="edge12" class="edge">
<title>Node9&#45;&gt;Node5</title>
<path fill="none" stroke="midnightblue" d="M258.97,-112.32C241.97,-103.66 215.62,-90.24 196.01,-80.25"/>
<polygon fill="midnightblue" stroke="midnightblue" points="197.49,-77.08 186.99,-75.65 194.31,-83.31 197.49,-77.08"/>
</g>
<!-- Node11&#45;&gt;Node4 -->
<g id="edge15" class="edge">
<title>Node11&#45;&gt;Node4</title>
<path fill="none" stroke="midnightblue" d="M216.52,-280.08C214.51,-272.85 211.61,-262.41 209.11,-253.4"/>
<polygon fill="midnightblue" stroke="midnightblue" points="212.48,-252.45 206.43,-243.75 205.74,-254.32 212.48,-252.45"/>
</g>
<!-- Node12&#45;&gt;Node4 -->
<g id="edge17" class="edge">
<title>Node12&#45;&gt;Node4</title>
<path fill="none" stroke="midnightblue" d="M292.97,-280.32C275.97,-271.66 249.62,-258.24 230.01,-248.25"/>
<polygon fill="midnightblue" stroke="midnightblue" points="231.49,-245.08 220.99,-243.65 228.31,-251.31 231.49,-245.08"/>
</g>
<!-- Node13&#45;&gt;Node3 -->
<g id="edge20" class="edge">
<title>Node13&#45;&gt;Node3</title>
<path fill="none" stroke="midnightblue" d="M53.85,-280.32C66.22,-271.98 85.13,-259.21 99.74,-249.35"/>
<polygon fill="midnightblue" stroke="midnightblue" points="101.85,-252.15 108.18,-243.65 97.93,-246.35 101.85,-252.15"/>
</g>
<!-- Node13&#45;&gt;Node4 -->
<g id="edge21" class="edge">
<title>Node13&#45;&gt;Node4</title>
<path fill="none" stroke="midnightblue" d="M66.83,-280.44C94.41,-271.31 138.29,-256.77 168.97,-246.6"/>
<polygon fill="midnightblue" stroke="midnightblue" points="170.44,-249.81 178.83,-243.34 168.24,-243.16 170.44,-249.81"/>
</g>
<!-- Node14 -->
<g id="node14" class="node">
<title>Node14</title>
<g id="a_node14"><a xlink:title=" ">
<polygon fill="white" stroke="#bfbfbf" points="15,-224.5 15,-243.5 67,-243.5 67,-224.5 15,-224.5"/>
<text text-anchor="middle" x="41" y="-231.5" font-family="Consolas" font-size="10.00">stddef.h</text>
</a>
</g>
</g>
<!-- Node13&#45;&gt;Node14 -->
<g id="edge19" class="edge">
<title>Node13&#45;&gt;Node14</title>
<path fill="none" stroke="midnightblue" d="M41,-280.08C41,-273.01 41,-262.86 41,-253.99"/>
<polygon fill="midnightblue" stroke="midnightblue" points="44.5,-253.75 41,-243.75 37.5,-253.75 44.5,-253.75"/>
</g>
</g>
</svg>
