<?xml version="1.0" encoding="UTF-8" standalone="no"?>
<!DOCTYPE svg PUBLIC "-//W3C//DTD SVG 1.1//EN"
 "http://www.w3.org/Graphics/SVG/1.1/DTD/svg11.dtd">
<!-- Generated by graphviz version 2.43.0 (0)
 -->
<!-- Title: libccc/random/csprng.h Pages: 1 -->
<svg width="391pt" height="420pt"
 viewBox="0.00 0.00 391.00 420.00" xmlns="http://www.w3.org/2000/svg" xmlns:xlink="http://www.w3.org/1999/xlink">
<g id="graph0" class="graph" transform="scale(1 1) rotate(0) translate(4 416)">
<title>libccc/random/csprng.h</title>
<polygon fill="white" stroke="transparent" points="-4,4 -4,-416 387,-416 387,4 -4,4"/>
<!-- Node1 -->
<g id="node1" class="node">
<title>Node1</title>
<g id="a_node1"><a xlink:title=" ">
<polygon fill="#bfbfbf" stroke="black" points="58.5,-392.5 58.5,-411.5 190.5,-411.5 190.5,-392.5 58.5,-392.5"/>
<text text-anchor="middle" x="124.5" y="-399.5" font-family="Consolas" font-size="10.00">libccc/random/csprng.h</text>
</a>
</g>
</g>
<!-- Node2 -->
<g id="node2" class="node">
<title>Node2</title>
<g id="a_node2"><a xlink:href="int_8h.html" target="_top" xlink:title=" ">
<polygon fill="white" stroke="black" points="119.5,-280.5 119.5,-299.5 199.5,-299.5 199.5,-280.5 119.5,-280.5"/>
<text text-anchor="middle" x="159.5" y="-287.5" font-family="Consolas" font-size="10.00">libccc/int.h</text>
</a>
</g>
</g>
<!-- Node1&#45;&gt;Node2 -->
<g id="edge1" class="edge">
<title>Node1&#45;&gt;Node2</title>
<path fill="none" stroke="midnightblue" d="M118.59,-392.26C110.72,-379.47 98.77,-355.1 107.5,-336 113.28,-323.36 124.55,-312.91 135.13,-305.27"/>
<polygon fill="midnightblue" stroke="midnightblue" points="137.35,-308 143.72,-299.53 133.46,-302.18 137.35,-308"/>
</g>
<!-- Node10 -->
<g id="node10" class="node">
<title>Node10</title>
<g id="a_node10"><a xlink:href="fixed_8h.html" target="_top" xlink:title=" ">
<polygon fill="white" stroke="black" points="116.5,-336.5 116.5,-355.5 206.5,-355.5 206.5,-336.5 116.5,-336.5"/>
<text text-anchor="middle" x="161.5" y="-343.5" font-family="Consolas" font-size="10.00">libccc/fixed.h</text>
</a>
</g>
</g>
<!-- Node1&#45;&gt;Node10 -->
<g id="edge13" class="edge">
<title>Node1&#45;&gt;Node10</title>
<path fill="none" stroke="midnightblue" d="M130.61,-392.08C135.78,-384.53 143.35,-373.49 149.69,-364.23"/>
<polygon fill="midnightblue" stroke="midnightblue" points="152.74,-365.98 155.5,-355.75 146.96,-362.02 152.74,-365.98"/>
</g>
<!-- Node11 -->
<g id="node11" class="node">
<title>Node11</title>
<g id="a_node11"><a xlink:href="float_8h.html" target="_top" xlink:title=" ">
<polygon fill="white" stroke="black" points="224.5,-336.5 224.5,-355.5 314.5,-355.5 314.5,-336.5 224.5,-336.5"/>
<text text-anchor="middle" x="269.5" y="-343.5" font-family="Consolas" font-size="10.00">libccc/float.h</text>
</a>
</g>
</g>
<!-- Node1&#45;&gt;Node11 -->
<g id="edge16" class="edge">
<title>Node1&#45;&gt;Node11</title>
<path fill="none" stroke="midnightblue" d="M147.48,-392.44C171.66,-383.44 209.92,-369.19 237.15,-359.05"/>
<polygon fill="midnightblue" stroke="midnightblue" points="238.48,-362.29 246.63,-355.52 236.04,-355.73 238.48,-362.29"/>
</g>
<!-- Node12 -->
<g id="node12" class="node">
<title>Node12</title>
<g id="a_node12"><a xlink:href="pointer_8h.html" target="_top" xlink:title=" ">
<polygon fill="white" stroke="black" points="0,-280.5 0,-299.5 101,-299.5 101,-280.5 0,-280.5"/>
<text text-anchor="middle" x="50.5" y="-287.5" font-family="Consolas" font-size="10.00">libccc/pointer.h</text>
</a>
</g>
</g>
<!-- Node1&#45;&gt;Node12 -->
<g id="edge18" class="edge">
<title>Node1&#45;&gt;Node12</title>
<path fill="none" stroke="midnightblue" d="M118.69,-392.37C106.48,-374.22 77.95,-331.8 61.93,-307.99"/>
<polygon fill="midnightblue" stroke="midnightblue" points="64.77,-305.94 56.28,-299.59 58.96,-309.84 64.77,-305.94"/>
</g>
<!-- Node3 -->
<g id="node3" class="node">
<title>Node3</title>
<g id="a_node3"><a xlink:title=" ">
<polygon fill="white" stroke="#bfbfbf" points="109,-224.5 109,-243.5 168,-243.5 168,-224.5 109,-224.5"/>
<text text-anchor="middle" x="138.5" y="-231.5" font-family="Consolas" font-size="10.00">stdint.h</text>
</a>
</g>
</g>
<!-- Node2&#45;&gt;Node3 -->
<g id="edge2" class="edge">
<title>Node2&#45;&gt;Node3</title>
<path fill="none" stroke="midnightblue" d="M156.03,-280.08C153.19,-272.77 149.07,-262.18 145.54,-253.1"/>
<polygon fill="midnightblue" stroke="midnightblue" points="148.79,-251.8 141.9,-243.75 142.27,-254.34 148.79,-251.8"/>
</g>
<!-- Node4 -->
<g id="node4" class="node">
<title>Node4</title>
<g id="a_node4"><a xlink:href="libccc_8h.html" target="_top" xlink:title=" ">
<polygon fill="white" stroke="black" points="192,-224.5 192,-243.5 251,-243.5 251,-224.5 192,-224.5"/>
<text text-anchor="middle" x="221.5" y="-231.5" font-family="Consolas" font-size="10.00">libccc.h</text>
</a>
</g>
</g>
<!-- Node2&#45;&gt;Node4 -->
<g id="edge3" class="edge">
<title>Node2&#45;&gt;Node4</title>
<path fill="none" stroke="midnightblue" d="M169.46,-280.32C178.63,-272.34 192.44,-260.31 203.53,-250.65"/>
<polygon fill="midnightblue" stroke="midnightblue" points="206.12,-253.04 211.36,-243.83 201.52,-247.76 206.12,-253.04"/>
</g>
<!-- Node5 -->
<g id="node5" class="node">
<title>Node5</title>
<g id="a_node5"><a xlink:href="libccc__define_8h.html" target="_top" xlink:title=" ">
<polygon fill="white" stroke="black" points="174,-56.5 174,-75.5 269,-75.5 269,-56.5 174,-56.5"/>
<text text-anchor="middle" x="221.5" y="-63.5" font-family="Consolas" font-size="10.00">libccc_define.h</text>
</a>
</g>
</g>
<!-- Node4&#45;&gt;Node5 -->
<g id="edge4" class="edge">
<title>Node4&#45;&gt;Node5</title>
<path fill="none" stroke="midnightblue" d="M205.5,-224.5C171.62,-205.36 98.01,-157.02 126.5,-112 136.55,-96.13 153.87,-85.74 171,-79"/>
<polygon fill="midnightblue" stroke="midnightblue" points="172.21,-82.28 180.45,-75.62 169.85,-75.69 172.21,-82.28"/>
</g>
<!-- Node7 -->
<g id="node7" class="node">
<title>Node7</title>
<g id="a_node7"><a xlink:href="libccc__errors_8h.html" target="_top" xlink:title=" ">
<polygon fill="white" stroke="black" points="136,-112.5 136,-131.5 231,-131.5 231,-112.5 136,-112.5"/>
<text text-anchor="middle" x="183.5" y="-119.5" font-family="Consolas" font-size="10.00">libccc_errors.h</text>
</a>
</g>
</g>
<!-- Node4&#45;&gt;Node7 -->
<g id="edge6" class="edge">
<title>Node4&#45;&gt;Node7</title>
<path fill="none" stroke="midnightblue" d="M217.56,-224.49C213.49,-215.53 207.11,-200.94 202.5,-188 196.96,-172.42 191.77,-154.35 188.22,-141.22"/>
<polygon fill="midnightblue" stroke="midnightblue" points="191.6,-140.29 185.65,-131.51 184.83,-142.08 191.6,-140.29"/>
</g>
<!-- Node8 -->
<g id="node8" class="node">
<title>Node8</title>
<g id="a_node8"><a xlink:href="libccc__config_8h.html" target="_top" xlink:title=" ">
<polygon fill="white" stroke="black" points="212,-168.5 212,-187.5 307,-187.5 307,-168.5 212,-168.5"/>
<text text-anchor="middle" x="259.5" y="-175.5" font-family="Consolas" font-size="10.00">libccc_config.h</text>
</a>
</g>
</g>
<!-- Node4&#45;&gt;Node8 -->
<g id="edge8" class="edge">
<title>Node4&#45;&gt;Node8</title>
<path fill="none" stroke="midnightblue" d="M227.77,-224.08C233.14,-216.46 241.02,-205.26 247.58,-195.94"/>
<polygon fill="midnightblue" stroke="midnightblue" points="250.45,-197.94 253.34,-187.75 244.72,-193.91 250.45,-197.94"/>
</g>
<!-- Node9 -->
<g id="node9" class="node">
<title>Node9</title>
<g id="a_node9"><a xlink:href="libccc__naming_8h.html" target="_top" xlink:title=" ">
<polygon fill="white" stroke="black" points="288,-112.5 288,-131.5 383,-131.5 383,-112.5 288,-112.5"/>
<text text-anchor="middle" x="335.5" y="-119.5" font-family="Consolas" font-size="10.00">libccc_naming.h</text>
</a>
</g>
</g>
<!-- Node4&#45;&gt;Node9 -->
<g id="edge11" class="edge">
<title>Node4&#45;&gt;Node9</title>
<path fill="none" stroke="midnightblue" d="M251.23,-225.9C272.29,-219.4 299.68,-207.71 316.5,-188 327.58,-175.02 332.2,-155.85 334.13,-141.69"/>
<polygon fill="midnightblue" stroke="midnightblue" points="337.62,-141.93 335.17,-131.63 330.66,-141.22 337.62,-141.93"/>
</g>
<!-- Node6 -->
<g id="node6" class="node">
<title>Node6</title>
<g id="a_node6"><a xlink:title=" ">
<polygon fill="white" stroke="#bfbfbf" points="187,-0.5 187,-19.5 256,-19.5 256,-0.5 187,-0.5"/>
<text text-anchor="middle" x="221.5" y="-7.5" font-family="Consolas" font-size="10.00">stdalign.h</text>
</a>
</g>
</g>
<!-- Node5&#45;&gt;Node6 -->
<g id="edge5" class="edge">
<title>Node5&#45;&gt;Node6</title>
<path fill="none" stroke="midnightblue" d="M221.5,-56.08C221.5,-49.01 221.5,-38.86 221.5,-29.99"/>
<polygon fill="midnightblue" stroke="midnightblue" points="225,-29.75 221.5,-19.75 218,-29.75 225,-29.75"/>
</g>
<!-- Node7&#45;&gt;Node5 -->
<g id="edge7" class="edge">
<title>Node7&#45;&gt;Node5</title>
<path fill="none" stroke="midnightblue" d="M189.77,-112.08C195.14,-104.46 203.02,-93.26 209.58,-83.94"/>
<polygon fill="midnightblue" stroke="midnightblue" points="212.45,-85.94 215.34,-75.75 206.72,-81.91 212.45,-85.94"/>
</g>
<!-- Node8&#45;&gt;Node5 -->
<g id="edge9" class="edge">
<title>Node8&#45;&gt;Node5</title>
<path fill="none" stroke="midnightblue" d="M257.01,-168.09C253.43,-155.5 246.5,-131.82 239.5,-112 236.31,-102.96 232.39,-93.06 229.03,-84.85"/>
<polygon fill="midnightblue" stroke="midnightblue" points="232.23,-83.44 225.16,-75.55 225.77,-86.12 232.23,-83.44"/>
</g>
<!-- Node8&#45;&gt;Node7 -->
<g id="edge10" class="edge">
<title>Node8&#45;&gt;Node7</title>
<path fill="none" stroke="midnightblue" d="M247.29,-168.32C235.72,-160.11 218.12,-147.6 204.34,-137.81"/>
<polygon fill="midnightblue" stroke="midnightblue" points="206.11,-134.77 195.93,-131.83 202.06,-140.48 206.11,-134.77"/>
</g>
<!-- Node9&#45;&gt;Node5 -->
<g id="edge12" class="edge">
<title>Node9&#45;&gt;Node5</title>
<path fill="none" stroke="midnightblue" d="M317.44,-112.44C298.93,-103.68 269.92,-89.94 248.64,-79.86"/>
<polygon fill="midnightblue" stroke="midnightblue" points="250.01,-76.63 239.48,-75.52 247.02,-82.96 250.01,-76.63"/>
</g>
<!-- Node10&#45;&gt;Node2 -->
<g id="edge15" class="edge">
<title>Node10&#45;&gt;Node2</title>
<path fill="none" stroke="midnightblue" d="M161.17,-336.08C160.91,-329.01 160.53,-318.86 160.2,-309.99"/>
<polygon fill="midnightblue" stroke="midnightblue" points="163.69,-309.61 159.82,-299.75 156.7,-309.87 163.69,-309.61"/>
</g>
<!-- Node10&#45;&gt;Node4 -->
<g id="edge14" class="edge">
<title>Node10&#45;&gt;Node4</title>
<path fill="none" stroke="midnightblue" d="M174.38,-336.21C185.21,-328.09 200.23,-315.05 208.5,-300 216.38,-285.66 219.51,-267.2 220.75,-253.61"/>
<polygon fill="midnightblue" stroke="midnightblue" points="224.25,-253.76 221.4,-243.55 217.26,-253.31 224.25,-253.76"/>
</g>
<!-- Node11&#45;&gt;Node4 -->
<g id="edge17" class="edge">
<title>Node11&#45;&gt;Node4</title>
<path fill="none" stroke="midnightblue" d="M265.73,-336.15C260.38,-323.63 250.27,-300.04 241.5,-280 237.6,-271.08 233.21,-261.19 229.54,-252.96"/>
<polygon fill="midnightblue" stroke="midnightblue" points="232.64,-251.32 225.36,-243.61 226.25,-254.17 232.64,-251.32"/>
</g>
<!-- Node12&#45;&gt;Node3 -->
<g id="edge20" class="edge">
<title>Node12&#45;&gt;Node3</title>
<path fill="none" stroke="midnightblue" d="M64.64,-280.32C78.37,-271.9 99.44,-258.97 115.56,-249.07"/>
<polygon fill="midnightblue" stroke="midnightblue" points="117.7,-251.87 124.4,-243.65 114.04,-245.9 117.7,-251.87"/>
</g>
<!-- Node12&#45;&gt;Node4 -->
<g id="edge21" class="edge">
<title>Node12&#45;&gt;Node4</title>
<path fill="none" stroke="midnightblue" d="M77.6,-280.44C106.49,-271.32 152.42,-256.81 184.61,-246.65"/>
<polygon fill="midnightblue" stroke="midnightblue" points="186.05,-249.87 194.53,-243.52 183.94,-243.19 186.05,-249.87"/>
</g>
<!-- Node13 -->
<g id="node13" class="node">
<title>Node13</title>
<g id="a_node13"><a xlink:title=" ">
<polygon fill="white" stroke="#bfbfbf" points="21,-224.5 21,-243.5 80,-243.5 80,-224.5 21,-224.5"/>
<text text-anchor="middle" x="50.5" y="-231.5" font-family="Consolas" font-size="10.00">stddef.h</text>
</a>
</g>
</g>
<!-- Node12&#45;&gt;Node13 -->
<g id="edge19" class="edge">
<title>Node12&#45;&gt;Node13</title>
<path fill="none" stroke="midnightblue" d="M50.5,-280.08C50.5,-273.01 50.5,-262.86 50.5,-253.99"/>
<polygon fill="midnightblue" stroke="midnightblue" points="54,-253.75 50.5,-243.75 47,-253.75 54,-253.75"/>
</g>
</g>
</svg>
