<?xml version="1.0" encoding="UTF-8" standalone="no"?>
<!DOCTYPE svg PUBLIC "-//W3C//DTD SVG 1.1//EN"
 "http://www.w3.org/Graphics/SVG/1.1/DTD/svg11.dtd">
<!-- Generated by graphviz version 2.43.0 (0)
 -->
<!-- Title: libccc/random/csprng.h Pages: 1 -->
<svg width="933pt" height="364pt"
 viewBox="0.00 0.00 932.52 364.00" xmlns="http://www.w3.org/2000/svg" xmlns:xlink="http://www.w3.org/1999/xlink">
<g id="graph0" class="graph" transform="scale(1 1) rotate(0) translate(4 360)">
<title>libccc/random/csprng.h</title>
<polygon fill="white" stroke="transparent" points="-4,4 -4,-360 928.52,-360 928.52,4 -4,4"/>
<!-- Node1 -->
<g id="node1" class="node">
<title>Node1</title>
<g id="a_node1"><a xlink:title=" ">
<polygon fill="#bfbfbf" stroke="black" points="140,-336.5 140,-355.5 272,-355.5 272,-336.5 140,-336.5"/>
<text text-anchor="middle" x="206" y="-343.5" font-family="Consolas" font-size="10.00">libccc/random/csprng.h</text>
</a>
</g>
</g>
<!-- Node2 -->
<g id="node2" class="node">
<title>Node2</title>
<g id="a_node2"><a xlink:href="int_8h.html" target="_top" xlink:title=" ">
<polygon fill="white" stroke="black" points="263,-280.5 263,-299.5 343,-299.5 343,-280.5 263,-280.5"/>
<text text-anchor="middle" x="303" y="-287.5" font-family="Consolas" font-size="10.00">libccc/int.h</text>
</a>
</g>
</g>
<!-- Node1&#45;&gt;Node2 -->
<g id="edge1" class="edge">
<title>Node1&#45;&gt;Node2</title>
<path fill="none" stroke="midnightblue" d="M221.58,-336.32C237,-327.74 260.81,-314.49 278.71,-304.52"/>
<polygon fill="midnightblue" stroke="midnightblue" points="280.42,-307.58 287.45,-299.65 277.01,-301.46 280.42,-307.58"/>
</g>
<!-- Node12 -->
<g id="node12" class="node">
<title>Node12</title>
<g id="a_node12"><a xlink:href="float_8h.html" target="_top" xlink:title=" ">
<polygon fill="white" stroke="black" points="465,-56.5 465,-75.5 555,-75.5 555,-56.5 465,-56.5"/>
<text text-anchor="middle" x="510" y="-63.5" font-family="Consolas" font-size="10.00">libccc/float.h</text>
</a>
</g>
</g>
<!-- Node1&#45;&gt;Node12 -->
<g id="edge25" class="edge">
<title>Node1&#45;&gt;Node12</title>
<path fill="none" stroke="midnightblue" d="M182.58,-336.42C146.89,-321.66 83,-287.86 83,-235 83,-235 83,-235 83,-177 83,-146.9 78.94,-131.35 102,-112 128.48,-89.78 349.22,-75.39 454.52,-69.73"/>
<polygon fill="midnightblue" stroke="midnightblue" points="454.84,-73.22 464.64,-69.19 454.47,-66.22 454.84,-73.22"/>
</g>
<!-- Node15 -->
<g id="node15" class="node">
<title>Node15</title>
<g id="a_node15"><a xlink:href="fixed_8h.html" target="_top" xlink:title=" ">
<polygon fill="white" stroke="black" points="0,-56.5 0,-75.5 90,-75.5 90,-56.5 0,-56.5"/>
<text text-anchor="middle" x="45" y="-63.5" font-family="Consolas" font-size="10.00">libccc/fixed.h</text>
</a>
</g>
</g>
<!-- Node1&#45;&gt;Node15 -->
<g id="edge24" class="edge">
<title>Node1&#45;&gt;Node15</title>
<path fill="none" stroke="midnightblue" d="M141.12,-336.46C83.04,-324.74 7,-297.47 7,-235 7,-235 7,-235 7,-177 7,-142.81 23.6,-105.76 34.86,-84.57"/>
<polygon fill="midnightblue" stroke="midnightblue" points="37.95,-86.22 39.72,-75.77 31.82,-82.83 37.95,-86.22"/>
</g>
<!-- Node17 -->
<g id="node17" class="node">
<title>Node17</title>
<g id="a_node17"><a xlink:href="pointer_8h.html" target="_top" xlink:title=" ">
<polygon fill="white" stroke="black" points="422.5,-280.5 422.5,-299.5 523.5,-299.5 523.5,-280.5 422.5,-280.5"/>
<text text-anchor="middle" x="473" y="-287.5" font-family="Consolas" font-size="10.00">libccc/pointer.h</text>
</a>
</g>
</g>
<!-- Node1&#45;&gt;Node17 -->
<g id="edge26" class="edge">
<title>Node1&#45;&gt;Node17</title>
<path fill="none" stroke="midnightblue" d="M248.31,-336.44C295.08,-326.98 370.46,-311.74 420.85,-301.55"/>
<polygon fill="midnightblue" stroke="midnightblue" points="421.78,-304.93 430.89,-299.52 420.4,-298.07 421.78,-304.93"/>
</g>
<!-- Node3 -->
<g id="node3" class="node">
<title>Node3</title>
<g id="a_node3"><a xlink:title=" ">
<polygon fill="white" stroke="#bfbfbf" points="381.5,-224.5 381.5,-243.5 440.5,-243.5 440.5,-224.5 381.5,-224.5"/>
<text text-anchor="middle" x="411" y="-231.5" font-family="Consolas" font-size="10.00">stdint.h</text>
</a>
</g>
</g>
<!-- Node2&#45;&gt;Node3 -->
<g id="edge2" class="edge">
<title>Node2&#45;&gt;Node3</title>
<path fill="none" stroke="midnightblue" d="M320.35,-280.32C337.67,-271.66 364.52,-258.24 384.5,-248.25"/>
<polygon fill="midnightblue" stroke="midnightblue" points="386.31,-251.26 393.69,-243.65 383.18,-245 386.31,-251.26"/>
</g>
<!-- Node4 -->
<g id="node4" class="node">
<title>Node4</title>
<g id="a_node4"><a xlink:href="libccc_8h.html" target="_top" xlink:title=" ">
<polygon fill="white" stroke="black" points="504.5,-224.5 504.5,-243.5 563.5,-243.5 563.5,-224.5 504.5,-224.5"/>
<text text-anchor="middle" x="534" y="-231.5" font-family="Consolas" font-size="10.00">libccc.h</text>
</a>
</g>
</g>
<!-- Node2&#45;&gt;Node4 -->
<g id="edge3" class="edge">
<title>Node2&#45;&gt;Node4</title>
<path fill="none" stroke="midnightblue" d="M339.6,-280.44C381.77,-270.59 450.8,-254.45 494.25,-244.29"/>
<polygon fill="midnightblue" stroke="midnightblue" points="495.24,-247.66 504.18,-241.97 493.65,-240.84 495.24,-247.66"/>
</g>
<!-- Node5 -->
<g id="node5" class="node">
<title>Node5</title>
<g id="a_node5"><a xlink:href="libccc__define_8h.html" target="_top" xlink:title=" ">
<polygon fill="white" stroke="black" points="792.5,-56.5 792.5,-75.5 887.5,-75.5 887.5,-56.5 792.5,-56.5"/>
<text text-anchor="middle" x="840" y="-63.5" font-family="Consolas" font-size="10.00">libccc_define.h</text>
</a>
</g>
</g>
<!-- Node4&#45;&gt;Node5 -->
<g id="edge4" class="edge">
<title>Node4&#45;&gt;Node5</title>
<path fill="none" stroke="midnightblue" d="M563.74,-225.74C566.85,-225.1 569.98,-224.5 573,-224 648.37,-211.38 863.87,-244.8 915,-188 945.68,-153.92 892.48,-105.67 860.88,-81.7"/>
<polygon fill="midnightblue" stroke="midnightblue" points="862.76,-78.73 852.63,-75.62 858.6,-84.37 862.76,-78.73"/>
</g>
<!-- Node7 -->
<g id="node7" class="node">
<title>Node7</title>
<g id="a_node7"><a xlink:href="libccc__errors_8h.html" target="_top" xlink:title=" ">
<polygon fill="white" stroke="black" points="697.5,-112.5 697.5,-131.5 792.5,-131.5 792.5,-112.5 697.5,-112.5"/>
<text text-anchor="middle" x="745" y="-119.5" font-family="Consolas" font-size="10.00">libccc_errors.h</text>
</a>
</g>
</g>
<!-- Node4&#45;&gt;Node7 -->
<g id="edge6" class="edge">
<title>Node4&#45;&gt;Node7</title>
<path fill="none" stroke="midnightblue" d="M558.86,-224.47C581.76,-216.26 616.42,-202.91 645,-188 674.14,-172.8 705.58,-151.47 725.27,-137.45"/>
<polygon fill="midnightblue" stroke="midnightblue" points="727.37,-140.25 733.44,-131.57 723.28,-134.57 727.37,-140.25"/>
</g>
<!-- Node8 -->
<g id="node8" class="node">
<title>Node8</title>
<g id="a_node8"><a xlink:href="libccc__config_8h.html" target="_top" xlink:title=" ">
<polygon fill="white" stroke="black" points="697.5,-168.5 697.5,-187.5 792.5,-187.5 792.5,-168.5 697.5,-168.5"/>
<text text-anchor="middle" x="745" y="-175.5" font-family="Consolas" font-size="10.00">libccc_config.h</text>
</a>
</g>
</g>
<!-- Node4&#45;&gt;Node8 -->
<g id="edge8" class="edge">
<title>Node4&#45;&gt;Node8</title>
<path fill="none" stroke="midnightblue" d="M563.78,-225.38C599.78,-216.17 660.63,-200.59 701.79,-190.06"/>
<polygon fill="midnightblue" stroke="midnightblue" points="702.72,-193.43 711.54,-187.56 700.98,-186.65 702.72,-193.43"/>
</g>
<!-- Node9 -->
<g id="node9" class="node">
<title>Node9</title>
<g id="a_node9"><a xlink:href="libccc__naming_8h.html" target="_top" xlink:title=" ">
<polygon fill="white" stroke="black" points="810.5,-168.5 810.5,-187.5 905.5,-187.5 905.5,-168.5 810.5,-168.5"/>
<text text-anchor="middle" x="858" y="-175.5" font-family="Consolas" font-size="10.00">libccc_naming.h</text>
</a>
</g>
</g>
<!-- Node4&#45;&gt;Node9 -->
<g id="edge11" class="edge">
<title>Node4&#45;&gt;Node9</title>
<path fill="none" stroke="midnightblue" d="M563.76,-225.9C566.88,-225.23 570,-224.58 573,-224 670.99,-205.02 698.55,-204.21 800.26,-188.26"/>
<polygon fill="midnightblue" stroke="midnightblue" points="801.01,-191.69 810.34,-186.67 799.92,-184.77 801.01,-191.69"/>
</g>
<!-- Node10 -->
<g id="node10" class="node">
<title>Node10</title>
<g id="a_node10"><a xlink:href="math_8h.html" target="_top" xlink:title=" ">
<polygon fill="white" stroke="black" points="414,-168.5 414,-187.5 462,-187.5 462,-168.5 414,-168.5"/>
<text text-anchor="middle" x="438" y="-175.5" font-family="Consolas" font-size="10.00">math.h</text>
</a>
</g>
</g>
<!-- Node4&#45;&gt;Node10 -->
<g id="edge13" class="edge">
<title>Node4&#45;&gt;Node10</title>
<path fill="none" stroke="midnightblue" d="M518.58,-224.32C503.46,-215.82 480.18,-202.73 462.53,-192.8"/>
<polygon fill="midnightblue" stroke="midnightblue" points="463.82,-189.51 453.39,-187.65 460.39,-195.61 463.82,-189.51"/>
</g>
<!-- Node6 -->
<g id="node6" class="node">
<title>Node6</title>
<g id="a_node6"><a xlink:title=" ">
<polygon fill="white" stroke="#bfbfbf" points="805.5,-0.5 805.5,-19.5 874.5,-19.5 874.5,-0.5 805.5,-0.5"/>
<text text-anchor="middle" x="840" y="-7.5" font-family="Consolas" font-size="10.00">stdalign.h</text>
</a>
</g>
</g>
<!-- Node5&#45;&gt;Node6 -->
<g id="edge5" class="edge">
<title>Node5&#45;&gt;Node6</title>
<path fill="none" stroke="midnightblue" d="M840,-56.08C840,-49.01 840,-38.86 840,-29.99"/>
<polygon fill="midnightblue" stroke="midnightblue" points="843.5,-29.75 840,-19.75 836.5,-29.75 843.5,-29.75"/>
</g>
<!-- Node7&#45;&gt;Node5 -->
<g id="edge7" class="edge">
<title>Node7&#45;&gt;Node5</title>
<path fill="none" stroke="midnightblue" d="M760.26,-112.32C775.22,-103.82 798.25,-90.73 815.73,-80.8"/>
<polygon fill="midnightblue" stroke="midnightblue" points="817.81,-83.64 824.77,-75.65 814.35,-77.55 817.81,-83.64"/>
</g>
<!-- Node8&#45;&gt;Node5 -->
<g id="edge9" class="edge">
<title>Node8&#45;&gt;Node5</title>
<path fill="none" stroke="midnightblue" d="M758.87,-168.24C771.22,-159.96 789.26,-146.65 802,-132 814.44,-117.69 824.98,-98.74 831.78,-84.99"/>
<polygon fill="midnightblue" stroke="midnightblue" points="835.09,-86.19 836.22,-75.65 828.77,-83.18 835.09,-86.19"/>
</g>
<!-- Node8&#45;&gt;Node7 -->
<g id="edge10" class="edge">
<title>Node8&#45;&gt;Node7</title>
<path fill="none" stroke="midnightblue" d="M745,-168.08C745,-161.01 745,-150.86 745,-141.99"/>
<polygon fill="midnightblue" stroke="midnightblue" points="748.5,-141.75 745,-131.75 741.5,-141.75 748.5,-141.75"/>
</g>
<!-- Node9&#45;&gt;Node5 -->
<g id="edge12" class="edge">
<title>Node9&#45;&gt;Node5</title>
<path fill="none" stroke="midnightblue" d="M856.59,-168.37C853.68,-150.62 846.98,-109.67 843.04,-85.6"/>
<polygon fill="midnightblue" stroke="midnightblue" points="846.47,-84.89 841.41,-75.59 839.57,-86.03 846.47,-84.89"/>
</g>
<!-- Node11 -->
<g id="node11" class="node">
<title>Node11</title>
<g id="a_node11"><a xlink:href="constants_8h.html" target="_top" xlink:title=" ">
<polygon fill="white" stroke="black" points="369.5,-112.5 369.5,-131.5 506.5,-131.5 506.5,-112.5 369.5,-112.5"/>
<text text-anchor="middle" x="438" y="-119.5" font-family="Consolas" font-size="10.00">libccc/math/constants.h</text>
</a>
</g>
</g>
<!-- Node10&#45;&gt;Node11 -->
<g id="edge14" class="edge">
<title>Node10&#45;&gt;Node11</title>
<path fill="none" stroke="midnightblue" d="M438,-168.08C438,-161.01 438,-150.86 438,-141.99"/>
<polygon fill="midnightblue" stroke="midnightblue" points="441.5,-141.75 438,-131.75 434.5,-141.75 441.5,-141.75"/>
</g>
<!-- Node13 -->
<g id="node13" class="node">
<title>Node13</title>
<g id="a_node13"><a xlink:href="math_2int_8h.html" target="_top" xlink:title=" ">
<polygon fill="white" stroke="black" points="111,-112.5 111,-131.5 217,-131.5 217,-112.5 111,-112.5"/>
<text text-anchor="middle" x="164" y="-119.5" font-family="Consolas" font-size="10.00">libccc/math/int.h</text>
</a>
</g>
</g>
<!-- Node10&#45;&gt;Node13 -->
<g id="edge17" class="edge">
<title>Node10&#45;&gt;Node13</title>
<path fill="none" stroke="midnightblue" d="M413.68,-172.21C369.86,-163.57 276.66,-145.2 217.35,-133.51"/>
<polygon fill="midnightblue" stroke="midnightblue" points="217.9,-130.06 207.41,-131.56 216.55,-136.92 217.9,-130.06"/>
</g>
<!-- Node14 -->
<g id="node14" class="node">
<title>Node14</title>
<g id="a_node14"><a xlink:href="math_2fixed_8h.html" target="_top" xlink:title=" ">
<polygon fill="white" stroke="black" points="235,-112.5 235,-131.5 351,-131.5 351,-112.5 235,-112.5"/>
<text text-anchor="middle" x="293" y="-119.5" font-family="Consolas" font-size="10.00">libccc/math/fixed.h</text>
</a>
</g>
</g>
<!-- Node10&#45;&gt;Node14 -->
<g id="edge19" class="edge">
<title>Node10&#45;&gt;Node14</title>
<path fill="none" stroke="midnightblue" d="M415.02,-168.44C390.84,-159.44 352.58,-145.19 325.35,-135.05"/>
<polygon fill="midnightblue" stroke="midnightblue" points="326.46,-131.73 315.87,-131.52 324.02,-138.29 326.46,-131.73"/>
</g>
<!-- Node16 -->
<g id="node16" class="node">
<title>Node16</title>
<g id="a_node16"><a xlink:href="math_2float_8h.html" target="_top" xlink:title=" ">
<polygon fill="white" stroke="black" points="525,-112.5 525,-131.5 641,-131.5 641,-112.5 525,-112.5"/>
<text text-anchor="middle" x="583" y="-119.5" font-family="Consolas" font-size="10.00">libccc/math/float.h</text>
</a>
</g>
</g>
<!-- Node10&#45;&gt;Node16 -->
<g id="edge22" class="edge">
<title>Node10&#45;&gt;Node16</title>
<path fill="none" stroke="midnightblue" d="M460.98,-168.44C485.16,-159.44 523.42,-145.19 550.65,-135.05"/>
<polygon fill="midnightblue" stroke="midnightblue" points="551.98,-138.29 560.13,-131.52 549.54,-131.73 551.98,-138.29"/>
</g>
<!-- Node11&#45;&gt;Node12 -->
<g id="edge15" class="edge">
<title>Node11&#45;&gt;Node12</title>
<path fill="none" stroke="midnightblue" d="M449.57,-112.32C460.42,-104.18 476.88,-91.84 489.88,-82.09"/>
<polygon fill="midnightblue" stroke="midnightblue" points="492.32,-84.63 498.22,-75.83 488.12,-79.03 492.32,-84.63"/>
</g>
<!-- Node12&#45;&gt;Node4 -->
<g id="edge16" class="edge">
<title>Node12&#45;&gt;Node4</title>
<path fill="none" stroke="midnightblue" d="M555.18,-68.32C587.33,-71.91 628.49,-82.5 650,-112 681.7,-155.49 607.07,-199.29 563.19,-220.26"/>
<polygon fill="midnightblue" stroke="midnightblue" points="561.67,-217.1 554.08,-224.49 564.62,-223.45 561.67,-217.1"/>
</g>
<!-- Node13&#45;&gt;Node2 -->
<g id="edge18" class="edge">
<title>Node13&#45;&gt;Node2</title>
<path fill="none" stroke="midnightblue" d="M171.17,-131.57C193.13,-157.79 259.68,-237.26 288.94,-272.21"/>
<polygon fill="midnightblue" stroke="midnightblue" points="286.42,-274.66 295.53,-280.08 291.79,-270.16 286.42,-274.66"/>
</g>
<!-- Node14&#45;&gt;Node15 -->
<g id="edge20" class="edge">
<title>Node14&#45;&gt;Node15</title>
<path fill="none" stroke="midnightblue" d="M253.7,-112.44C210.44,-103.02 140.83,-87.87 94.03,-77.68"/>
<polygon fill="midnightblue" stroke="midnightblue" points="94.63,-74.22 84.11,-75.52 93.14,-81.06 94.63,-74.22"/>
</g>
<!-- Node15&#45;&gt;Node4 -->
<g id="edge21" class="edge">
<title>Node15&#45;&gt;Node4</title>
<path fill="none" stroke="midnightblue" d="M50.08,-75.7C58.82,-89.83 78.06,-117.64 102,-132 169.01,-172.19 401.16,-212.12 494.59,-226.95"/>
<polygon fill="midnightblue" stroke="midnightblue" points="494.08,-230.41 504.5,-228.51 495.17,-223.5 494.08,-230.41"/>
</g>
<!-- Node16&#45;&gt;Node12 -->
<g id="edge23" class="edge">
<title>Node16&#45;&gt;Node12</title>
<path fill="none" stroke="midnightblue" d="M571.27,-112.32C560.16,-104.11 543.26,-91.6 530.02,-81.81"/>
<polygon fill="midnightblue" stroke="midnightblue" points="532.06,-78.97 521.94,-75.83 527.9,-84.59 532.06,-78.97"/>
</g>
<!-- Node17&#45;&gt;Node3 -->
<g id="edge28" class="edge">
<title>Node17&#45;&gt;Node3</title>
<path fill="none" stroke="midnightblue" d="M463.04,-280.32C453.87,-272.34 440.06,-260.31 428.97,-250.65"/>
<polygon fill="midnightblue" stroke="midnightblue" points="430.98,-247.76 421.14,-243.83 426.38,-253.04 430.98,-247.76"/>
</g>
<!-- Node17&#45;&gt;Node4 -->
<g id="edge29" class="edge">
<title>Node17&#45;&gt;Node4</title>
<path fill="none" stroke="midnightblue" d="M482.8,-280.32C491.82,-272.34 505.41,-260.31 516.32,-250.65"/>
<polygon fill="midnightblue" stroke="midnightblue" points="518.85,-253.08 524.02,-243.83 514.21,-247.84 518.85,-253.08"/>
</g>
<!-- Node18 -->
<g id="node18" class="node">
<title>Node18</title>
<g id="a_node18"><a xlink:title=" ">
<polygon fill="white" stroke="#bfbfbf" points="581.5,-224.5 581.5,-243.5 640.5,-243.5 640.5,-224.5 581.5,-224.5"/>
<text text-anchor="middle" x="611" y="-231.5" font-family="Consolas" font-size="10.00">stddef.h</text>
</a>
</g>
</g>
<!-- Node17&#45;&gt;Node18 -->
<g id="edge27" class="edge">
<title>Node17&#45;&gt;Node18</title>
<path fill="none" stroke="midnightblue" d="M494.87,-280.44C517.78,-271.48 553.98,-257.31 579.87,-247.18"/>
<polygon fill="midnightblue" stroke="midnightblue" points="581.2,-250.42 589.24,-243.52 578.65,-243.9 581.2,-250.42"/>
</g>
</g>
</svg>
