<?xml version="1.0" encoding="UTF-8" standalone="no"?>
<!DOCTYPE svg PUBLIC "-//W3C//DTD SVG 1.1//EN"
 "http://www.w3.org/Graphics/SVG/1.1/DTD/svg11.dtd">
<!-- Generated by graphviz version 2.49.3 (20211023.0002)
 -->
<!-- Title: libccc/monad/dict.h Pages: 1 -->
<svg width="300pt" height="364pt"
 viewBox="0.00 0.00 299.50 364.00" xmlns="http://www.w3.org/2000/svg" xmlns:xlink="http://www.w3.org/1999/xlink">
<g id="graph0" class="graph" transform="scale(1 1) rotate(0) translate(4 360)">
<title>libccc/monad/dict.h</title>
<polygon fill="white" stroke="transparent" points="-4,4 -4,-360 295.5,-360 295.5,4 -4,4"/>
<!-- Node1 -->
<g id="node1" class="node">
<title>Node1</title>
<g id="a_node1"><a xlink:title=" ">
<polygon fill="#bfbfbf" stroke="black" points="89.5,-336.5 89.5,-355.5 190.5,-355.5 190.5,-336.5 89.5,-336.5"/>
<text text-anchor="middle" x="140" y="-343.5" font-family="Consolas" font-size="10.00">libccc/monad/dict.h</text>
</a>
</g>
</g>
<!-- Node2 -->
<g id="node2" class="node">
<title>Node2</title>
<g id="a_node2"><a xlink:href="bool_8h.html" target="_top" xlink:title=" ">
<polygon fill="white" stroke="black" points="18.5,-280.5 18.5,-299.5 89.5,-299.5 89.5,-280.5 18.5,-280.5"/>
<text text-anchor="middle" x="54" y="-287.5" font-family="Consolas" font-size="10.00">libccc/bool.h</text>
</a>
</g>
</g>
<!-- Node1&#45;&gt;Node2 -->
<g id="edge1" class="edge">
<title>Node1&#45;&gt;Node2</title>
<path fill="none" stroke="midnightblue" d="M126.18,-336.32C112.77,-327.9 92.18,-314.97 76.41,-305.07"/>
<polygon fill="midnightblue" stroke="midnightblue" points="78.11,-302.01 67.78,-299.65 74.39,-307.94 78.11,-302.01"/>
</g>
<!-- Node10 -->
<g id="node10" class="node">
<title>Node10</title>
<g id="a_node10"><a xlink:href="int_8h.html" target="_top" xlink:title=" ">
<polygon fill="white" stroke="black" points="108,-280.5 108,-299.5 172,-299.5 172,-280.5 108,-280.5"/>
<text text-anchor="middle" x="140" y="-287.5" font-family="Consolas" font-size="10.00">libccc/int.h</text>
</a>
</g>
</g>
<!-- Node1&#45;&gt;Node10 -->
<g id="edge13" class="edge">
<title>Node1&#45;&gt;Node10</title>
<path fill="none" stroke="midnightblue" d="M140,-336.08C140,-329.01 140,-318.86 140,-309.99"/>
<polygon fill="midnightblue" stroke="midnightblue" points="143.5,-309.75 140,-299.75 136.5,-309.75 143.5,-309.75"/>
</g>
<!-- Node12 -->
<g id="node12" class="node">
<title>Node12</title>
<g id="a_node12"><a xlink:title=" ">
<polygon fill="white" stroke="#bfbfbf" points="190.5,-280.5 190.5,-299.5 291.5,-299.5 291.5,-280.5 190.5,-280.5"/>
<text text-anchor="middle" x="241" y="-287.5" font-family="Consolas" font-size="10.00">libccc/monad/dict.c</text>
</a>
</g>
</g>
<!-- Node1&#45;&gt;Node12 -->
<g id="edge16" class="edge">
<title>Node1&#45;&gt;Node12</title>
<path fill="none" stroke="midnightblue" d="M156.23,-336.32C172.35,-327.7 197.3,-314.36 215.96,-304.39"/>
<polygon fill="midnightblue" stroke="midnightblue" points="217.64,-307.46 224.81,-299.65 214.34,-301.28 217.64,-307.46"/>
</g>
<!-- Node3 -->
<g id="node3" class="node">
<title>Node3</title>
<g id="a_node3"><a xlink:href="libccc_8h.html" target="_top" xlink:title=" ">
<polygon fill="white" stroke="black" points="74,-224.5 74,-243.5 124,-243.5 124,-224.5 74,-224.5"/>
<text text-anchor="middle" x="99" y="-231.5" font-family="Consolas" font-size="10.00">libccc.h</text>
</a>
</g>
</g>
<!-- Node2&#45;&gt;Node3 -->
<g id="edge2" class="edge">
<title>Node2&#45;&gt;Node3</title>
<path fill="none" stroke="midnightblue" d="M61.43,-280.08C67.85,-272.38 77.31,-261.03 85.12,-251.65"/>
<polygon fill="midnightblue" stroke="midnightblue" points="87.99,-253.67 91.71,-243.75 82.62,-249.19 87.99,-253.67"/>
</g>
<!-- Node9 -->
<g id="node9" class="node">
<title>Node9</title>
<g id="a_node9"><a xlink:title=" ">
<polygon fill="white" stroke="#bfbfbf" points="0,-224.5 0,-243.5 56,-243.5 56,-224.5 0,-224.5"/>
<text text-anchor="middle" x="28" y="-231.5" font-family="Consolas" font-size="10.00">stdbool.h</text>
</a>
</g>
</g>
<!-- Node2&#45;&gt;Node9 -->
<g id="edge12" class="edge">
<title>Node2&#45;&gt;Node9</title>
<path fill="none" stroke="midnightblue" d="M49.71,-280.08C46.15,-272.69 40.98,-261.95 36.58,-252.81"/>
<polygon fill="midnightblue" stroke="midnightblue" points="39.71,-251.24 32.21,-243.75 33.4,-254.28 39.71,-251.24"/>
</g>
<!-- Node4 -->
<g id="node4" class="node">
<title>Node4</title>
<g id="a_node4"><a xlink:href="libccc__define_8h.html" target="_top" xlink:title=" ">
<polygon fill="white" stroke="black" points="59,-56.5 59,-75.5 141,-75.5 141,-56.5 59,-56.5"/>
<text text-anchor="middle" x="100" y="-63.5" font-family="Consolas" font-size="10.00">libccc_define.h</text>
</a>
</g>
</g>
<!-- Node3&#45;&gt;Node4 -->
<g id="edge3" class="edge">
<title>Node3&#45;&gt;Node4</title>
<path fill="none" stroke="midnightblue" d="M85.22,-224.42C55.69,-204.93 -8.96,-155.61 17,-112 26.1,-96.72 42.39,-86.31 58.14,-79.39"/>
<polygon fill="midnightblue" stroke="midnightblue" points="59.83,-82.48 67.82,-75.51 57.23,-75.98 59.83,-82.48"/>
</g>
<!-- Node6 -->
<g id="node6" class="node">
<title>Node6</title>
<g id="a_node6"><a xlink:href="libccc__errors_8h.html" target="_top" xlink:title=" ">
<polygon fill="white" stroke="black" points="26,-112.5 26,-131.5 106,-131.5 106,-112.5 26,-112.5"/>
<text text-anchor="middle" x="66" y="-119.5" font-family="Consolas" font-size="10.00">libccc_errors.h</text>
</a>
</g>
</g>
<!-- Node3&#45;&gt;Node6 -->
<g id="edge5" class="edge">
<title>Node3&#45;&gt;Node6</title>
<path fill="none" stroke="midnightblue" d="M95.99,-224.42C92.86,-215.39 87.89,-200.76 84,-188 79.25,-172.42 74.35,-154.59 70.86,-141.55"/>
<polygon fill="midnightblue" stroke="midnightblue" points="74.24,-140.64 68.3,-131.87 67.48,-142.44 74.24,-140.64"/>
</g>
<!-- Node7 -->
<g id="node7" class="node">
<title>Node7</title>
<g id="a_node7"><a xlink:href="libccc__config_8h.html" target="_top" xlink:title=" ">
<polygon fill="white" stroke="black" points="93,-168.5 93,-187.5 175,-187.5 175,-168.5 93,-168.5"/>
<text text-anchor="middle" x="134" y="-175.5" font-family="Consolas" font-size="10.00">libccc_config.h</text>
</a>
</g>
</g>
<!-- Node3&#45;&gt;Node7 -->
<g id="edge7" class="edge">
<title>Node3&#45;&gt;Node7</title>
<path fill="none" stroke="midnightblue" d="M104.78,-224.08C109.67,-216.53 116.83,-205.49 122.83,-196.23"/>
<polygon fill="midnightblue" stroke="midnightblue" points="125.83,-198.05 128.33,-187.75 119.95,-194.24 125.83,-198.05"/>
</g>
<!-- Node8 -->
<g id="node8" class="node">
<title>Node8</title>
<g id="a_node8"><a xlink:href="libccc__naming_8h.html" target="_top" xlink:title=" ">
<polygon fill="white" stroke="black" points="162.5,-112.5 162.5,-131.5 249.5,-131.5 249.5,-112.5 162.5,-112.5"/>
<text text-anchor="middle" x="206" y="-119.5" font-family="Consolas" font-size="10.00">libccc_naming.h</text>
</a>
</g>
</g>
<!-- Node3&#45;&gt;Node8 -->
<g id="edge10" class="edge">
<title>Node3&#45;&gt;Node8</title>
<path fill="none" stroke="midnightblue" d="M124.23,-225.36C143.12,-218.43 168.31,-206.44 184,-188 195.21,-174.83 200.78,-155.69 203.5,-141.59"/>
<polygon fill="midnightblue" stroke="midnightblue" points="206.98,-142 205.13,-131.57 200.07,-140.88 206.98,-142"/>
</g>
<!-- Node5 -->
<g id="node5" class="node">
<title>Node5</title>
<g id="a_node5"><a xlink:title=" ">
<polygon fill="white" stroke="#bfbfbf" points="70.5,-0.5 70.5,-19.5 129.5,-19.5 129.5,-0.5 70.5,-0.5"/>
<text text-anchor="middle" x="100" y="-7.5" font-family="Consolas" font-size="10.00">stdalign.h</text>
</a>
</g>
</g>
<!-- Node4&#45;&gt;Node5 -->
<g id="edge4" class="edge">
<title>Node4&#45;&gt;Node5</title>
<path fill="none" stroke="midnightblue" d="M100,-56.08C100,-49.01 100,-38.86 100,-29.99"/>
<polygon fill="midnightblue" stroke="midnightblue" points="103.5,-29.75 100,-19.75 96.5,-29.75 103.5,-29.75"/>
</g>
<!-- Node6&#45;&gt;Node4 -->
<g id="edge6" class="edge">
<title>Node6&#45;&gt;Node4</title>
<path fill="none" stroke="midnightblue" d="M71.61,-112.08C76.37,-104.53 83.32,-93.49 89.15,-84.23"/>
<polygon fill="midnightblue" stroke="midnightblue" points="92.12,-86.08 94.49,-75.75 86.2,-82.35 92.12,-86.08"/>
</g>
<!-- Node7&#45;&gt;Node4 -->
<g id="edge8" class="edge">
<title>Node7&#45;&gt;Node4</title>
<path fill="none" stroke="midnightblue" d="M131.52,-168.14C127.99,-155.6 121.25,-131.97 115,-112 112.23,-103.15 109,-93.37 106.24,-85.2"/>
<polygon fill="midnightblue" stroke="midnightblue" points="109.51,-83.94 102.97,-75.6 102.88,-86.19 109.51,-83.94"/>
</g>
<!-- Node7&#45;&gt;Node6 -->
<g id="edge9" class="edge">
<title>Node7&#45;&gt;Node6</title>
<path fill="none" stroke="midnightblue" d="M123.07,-168.32C112.83,-160.18 97.28,-147.84 85,-138.09"/>
<polygon fill="midnightblue" stroke="midnightblue" points="87.13,-135.31 77.12,-131.83 82.78,-140.79 87.13,-135.31"/>
</g>
<!-- Node8&#45;&gt;Node4 -->
<g id="edge11" class="edge">
<title>Node8&#45;&gt;Node4</title>
<path fill="none" stroke="midnightblue" d="M188.97,-112.32C171.97,-103.66 145.62,-90.24 126.01,-80.25"/>
<polygon fill="midnightblue" stroke="midnightblue" points="127.49,-77.08 116.99,-75.65 124.31,-83.31 127.49,-77.08"/>
</g>
<!-- Node10&#45;&gt;Node3 -->
<g id="edge15" class="edge">
<title>Node10&#45;&gt;Node3</title>
<path fill="none" stroke="midnightblue" d="M133.23,-280.08C127.44,-272.46 118.94,-261.26 111.86,-251.94"/>
<polygon fill="midnightblue" stroke="midnightblue" points="114.48,-249.6 105.64,-243.75 108.9,-253.83 114.48,-249.6"/>
</g>
<!-- Node11 -->
<g id="node11" class="node">
<title>Node11</title>
<g id="a_node11"><a xlink:title=" ">
<polygon fill="white" stroke="#bfbfbf" points="142.5,-224.5 142.5,-243.5 191.5,-243.5 191.5,-224.5 142.5,-224.5"/>
<text text-anchor="middle" x="167" y="-231.5" font-family="Consolas" font-size="10.00">stdint.h</text>
</a>
</g>
</g>
<!-- Node10&#45;&gt;Node11 -->
<g id="edge14" class="edge">
<title>Node10&#45;&gt;Node11</title>
<path fill="none" stroke="midnightblue" d="M144.46,-280.08C148.15,-272.69 153.52,-261.95 158.09,-252.81"/>
<polygon fill="midnightblue" stroke="midnightblue" points="161.28,-254.26 162.62,-243.75 155.02,-251.13 161.28,-254.26"/>
</g>
</g>
</svg>
