<?xml version="1.0" encoding="UTF-8" standalone="no"?>
<!DOCTYPE svg PUBLIC "-//W3C//DTD SVG 1.1//EN"
 "http://www.w3.org/Graphics/SVG/1.1/DTD/svg11.dtd">
<!-- Generated by graphviz version 2.43.0 (0)
 -->
<!-- Title: libccc/monad/dict.h Pages: 1 -->
<svg width="1099pt" height="364pt"
 viewBox="0.00 0.00 1098.50 364.00" xmlns="http://www.w3.org/2000/svg" xmlns:xlink="http://www.w3.org/1999/xlink">
<g id="graph0" class="graph" transform="scale(1 1) rotate(0) translate(4 360)">
<title>libccc/monad/dict.h</title>
<polygon fill="white" stroke="transparent" points="-4,4 -4,-360 1094.5,-360 1094.5,4 -4,4"/>
<!-- Node1 -->
<g id="node1" class="node">
<title>Node1</title>
<g id="a_node1"><a xlink:title=" ">
<polygon fill="#bfbfbf" stroke="black" points="888.5,-336.5 888.5,-355.5 1004.5,-355.5 1004.5,-336.5 888.5,-336.5"/>
<text text-anchor="middle" x="946.5" y="-343.5" font-family="Consolas" font-size="10.00">libccc/monad/dict.h</text>
</a>
</g>
</g>
<!-- Node2 -->
<g id="node2" class="node">
<title>Node2</title>
<g id="a_node2"><a xlink:href="bool_8h.html" target="_top" xlink:title=" ">
<polygon fill="white" stroke="black" points="271,-280.5 271,-299.5 356,-299.5 356,-280.5 271,-280.5"/>
<text text-anchor="middle" x="313.5" y="-287.5" font-family="Consolas" font-size="10.00">libccc/bool.h</text>
</a>
</g>
</g>
<!-- Node1&#45;&gt;Node2 -->
<g id="edge1" class="edge">
<title>Node1&#45;&gt;Node2</title>
<path fill="none" stroke="midnightblue" d="M888.37,-340.04C766.13,-329.61 484.11,-305.55 366.5,-295.52"/>
<polygon fill="midnightblue" stroke="midnightblue" points="366.57,-292.01 356.31,-294.65 365.98,-298.99 366.57,-292.01"/>
</g>
<!-- Node13 -->
<g id="node13" class="node">
<title>Node13</title>
<g id="a_node13"><a xlink:href="int_8h.html" target="_top" xlink:title=" ">
<polygon fill="white" stroke="black" points="868.5,-56.5 868.5,-75.5 948.5,-75.5 948.5,-56.5 868.5,-56.5"/>
<text text-anchor="middle" x="908.5" y="-63.5" font-family="Consolas" font-size="10.00">libccc/int.h</text>
</a>
</g>
</g>
<!-- Node1&#45;&gt;Node13 -->
<g id="edge26" class="edge">
<title>Node1&#45;&gt;Node13</title>
<path fill="none" stroke="midnightblue" d="M946.5,-336.44C946.5,-317.94 946.5,-272.81 946.5,-235 946.5,-235 946.5,-235 946.5,-177 946.5,-142.81 929.9,-105.76 918.64,-84.57"/>
<polygon fill="midnightblue" stroke="midnightblue" points="921.68,-82.83 913.78,-75.77 915.55,-86.22 921.68,-82.83"/>
</g>
<!-- Node19 -->
<g id="node19" class="node">
<title>Node19</title>
<g id="a_node19"><a xlink:title=" ">
<polygon fill="white" stroke="#bfbfbf" points="974.5,-280.5 974.5,-299.5 1090.5,-299.5 1090.5,-280.5 974.5,-280.5"/>
<text text-anchor="middle" x="1032.5" y="-287.5" font-family="Consolas" font-size="10.00">libccc/monad/dict.c</text>
</a>
</g>
</g>
<!-- Node1&#45;&gt;Node19 -->
<g id="edge27" class="edge">
<title>Node1&#45;&gt;Node19</title>
<path fill="none" stroke="midnightblue" d="M960.32,-336.32C973.73,-327.9 994.32,-314.97 1010.09,-305.07"/>
<polygon fill="midnightblue" stroke="midnightblue" points="1012.11,-307.94 1018.72,-299.65 1008.39,-302.01 1012.11,-307.94"/>
</g>
<!-- Node3 -->
<g id="node3" class="node">
<title>Node3</title>
<g id="a_node3"><a xlink:href="libccc_8h.html" target="_top" xlink:title=" ">
<polygon fill="white" stroke="black" points="284,-224.5 284,-243.5 343,-243.5 343,-224.5 284,-224.5"/>
<text text-anchor="middle" x="313.5" y="-231.5" font-family="Consolas" font-size="10.00">libccc.h</text>
</a>
</g>
</g>
<!-- Node2&#45;&gt;Node3 -->
<g id="edge2" class="edge">
<title>Node2&#45;&gt;Node3</title>
<path fill="none" stroke="midnightblue" d="M313.5,-280.08C313.5,-273.01 313.5,-262.86 313.5,-253.99"/>
<polygon fill="midnightblue" stroke="midnightblue" points="317,-253.75 313.5,-243.75 310,-253.75 317,-253.75"/>
</g>
<!-- Node18 -->
<g id="node18" class="node">
<title>Node18</title>
<g id="a_node18"><a xlink:title=" ">
<polygon fill="white" stroke="#bfbfbf" points="201.5,-224.5 201.5,-243.5 265.5,-243.5 265.5,-224.5 201.5,-224.5"/>
<text text-anchor="middle" x="233.5" y="-231.5" font-family="Consolas" font-size="10.00">stdbool.h</text>
</a>
</g>
</g>
<!-- Node2&#45;&gt;Node18 -->
<g id="edge25" class="edge">
<title>Node2&#45;&gt;Node18</title>
<path fill="none" stroke="midnightblue" d="M300.65,-280.32C288.28,-271.98 269.37,-259.21 254.76,-249.35"/>
<polygon fill="midnightblue" stroke="midnightblue" points="256.57,-246.35 246.32,-243.65 252.65,-252.15 256.57,-246.35"/>
</g>
<!-- Node4 -->
<g id="node4" class="node">
<title>Node4</title>
<g id="a_node4"><a xlink:href="libccc__define_8h.html" target="_top" xlink:title=" ">
<polygon fill="white" stroke="black" points="95,-56.5 95,-75.5 190,-75.5 190,-56.5 95,-56.5"/>
<text text-anchor="middle" x="142.5" y="-63.5" font-family="Consolas" font-size="10.00">libccc_define.h</text>
</a>
</g>
</g>
<!-- Node3&#45;&gt;Node4 -->
<g id="edge3" class="edge">
<title>Node3&#45;&gt;Node4</title>
<path fill="none" stroke="midnightblue" d="M283.77,-226.27C249.2,-217.88 195.03,-202.85 180.5,-188 153,-159.89 145.38,-112.12 143.28,-85.8"/>
<polygon fill="midnightblue" stroke="midnightblue" points="146.76,-85.42 142.67,-75.65 139.78,-85.85 146.76,-85.42"/>
</g>
<!-- Node6 -->
<g id="node6" class="node">
<title>Node6</title>
<g id="a_node6"><a xlink:href="libccc__errors_8h.html" target="_top" xlink:title=" ">
<polygon fill="white" stroke="black" points="0,-112.5 0,-131.5 95,-131.5 95,-112.5 0,-112.5"/>
<text text-anchor="middle" x="47.5" y="-119.5" font-family="Consolas" font-size="10.00">libccc_errors.h</text>
</a>
</g>
</g>
<!-- Node3&#45;&gt;Node6 -->
<g id="edge5" class="edge">
<title>Node3&#45;&gt;Node6</title>
<path fill="none" stroke="midnightblue" d="M283.74,-225.87C280.63,-225.2 277.5,-224.57 274.5,-224 220.2,-213.78 64.63,-229.8 28.5,-188 16.9,-174.57 25.58,-154.38 34.66,-140.07"/>
<polygon fill="midnightblue" stroke="midnightblue" points="37.68,-141.87 40.48,-131.65 31.92,-137.89 37.68,-141.87"/>
</g>
<!-- Node7 -->
<g id="node7" class="node">
<title>Node7</title>
<g id="a_node7"><a xlink:href="libccc__config_8h.html" target="_top" xlink:title=" ">
<polygon fill="white" stroke="black" points="38,-168.5 38,-187.5 133,-187.5 133,-168.5 38,-168.5"/>
<text text-anchor="middle" x="85.5" y="-175.5" font-family="Consolas" font-size="10.00">libccc_config.h</text>
</a>
</g>
</g>
<!-- Node3&#45;&gt;Node7 -->
<g id="edge7" class="edge">
<title>Node3&#45;&gt;Node7</title>
<path fill="none" stroke="midnightblue" d="M283.69,-225.94C244.98,-216.77 176.99,-200.67 131.6,-189.92"/>
<polygon fill="midnightblue" stroke="midnightblue" points="132.25,-186.47 121.71,-187.58 130.63,-193.29 132.25,-186.47"/>
</g>
<!-- Node8 -->
<g id="node8" class="node">
<title>Node8</title>
<g id="a_node8"><a xlink:href="libccc__naming_8h.html" target="_top" xlink:title=" ">
<polygon fill="white" stroke="black" points="190,-168.5 190,-187.5 285,-187.5 285,-168.5 190,-168.5"/>
<text text-anchor="middle" x="237.5" y="-175.5" font-family="Consolas" font-size="10.00">libccc_naming.h</text>
</a>
</g>
</g>
<!-- Node3&#45;&gt;Node8 -->
<g id="edge10" class="edge">
<title>Node3&#45;&gt;Node8</title>
<path fill="none" stroke="midnightblue" d="M301.29,-224.32C289.72,-216.11 272.12,-203.6 258.34,-193.81"/>
<polygon fill="midnightblue" stroke="midnightblue" points="260.11,-190.77 249.93,-187.83 256.06,-196.48 260.11,-190.77"/>
</g>
<!-- Node9 -->
<g id="node9" class="node">
<title>Node9</title>
<g id="a_node9"><a xlink:href="math_8h.html" target="_top" xlink:title=" ">
<polygon fill="white" stroke="black" points="502.5,-168.5 502.5,-187.5 550.5,-187.5 550.5,-168.5 502.5,-168.5"/>
<text text-anchor="middle" x="526.5" y="-175.5" font-family="Consolas" font-size="10.00">math.h</text>
</a>
</g>
</g>
<!-- Node3&#45;&gt;Node9 -->
<g id="edge12" class="edge">
<title>Node3&#45;&gt;Node9</title>
<path fill="none" stroke="midnightblue" d="M343.12,-225.49C382.32,-215.55 451.28,-198.07 492.54,-187.61"/>
<polygon fill="midnightblue" stroke="midnightblue" points="493.57,-190.96 502.4,-185.11 491.85,-184.17 493.57,-190.96"/>
</g>
<!-- Node5 -->
<g id="node5" class="node">
<title>Node5</title>
<g id="a_node5"><a xlink:title=" ">
<polygon fill="white" stroke="#bfbfbf" points="108,-0.5 108,-19.5 177,-19.5 177,-0.5 108,-0.5"/>
<text text-anchor="middle" x="142.5" y="-7.5" font-family="Consolas" font-size="10.00">stdalign.h</text>
</a>
</g>
</g>
<!-- Node4&#45;&gt;Node5 -->
<g id="edge4" class="edge">
<title>Node4&#45;&gt;Node5</title>
<path fill="none" stroke="midnightblue" d="M142.5,-56.08C142.5,-49.01 142.5,-38.86 142.5,-29.99"/>
<polygon fill="midnightblue" stroke="midnightblue" points="146,-29.75 142.5,-19.75 139,-29.75 146,-29.75"/>
</g>
<!-- Node6&#45;&gt;Node4 -->
<g id="edge6" class="edge">
<title>Node6&#45;&gt;Node4</title>
<path fill="none" stroke="midnightblue" d="M62.76,-112.32C77.72,-103.82 100.75,-90.73 118.23,-80.8"/>
<polygon fill="midnightblue" stroke="midnightblue" points="120.31,-83.64 127.27,-75.65 116.85,-77.55 120.31,-83.64"/>
</g>
<!-- Node7&#45;&gt;Node4 -->
<g id="edge8" class="edge">
<title>Node7&#45;&gt;Node4</title>
<path fill="none" stroke="midnightblue" d="M89.97,-168.37C99.3,-150.38 120.97,-108.55 133.37,-84.63"/>
<polygon fill="midnightblue" stroke="midnightblue" points="136.55,-86.08 138.05,-75.59 130.34,-82.86 136.55,-86.08"/>
</g>
<!-- Node7&#45;&gt;Node6 -->
<g id="edge9" class="edge">
<title>Node7&#45;&gt;Node6</title>
<path fill="none" stroke="midnightblue" d="M79.23,-168.08C73.86,-160.46 65.98,-149.26 59.42,-139.94"/>
<polygon fill="midnightblue" stroke="midnightblue" points="62.28,-137.91 53.66,-131.75 56.55,-141.94 62.28,-137.91"/>
</g>
<!-- Node8&#45;&gt;Node4 -->
<g id="edge11" class="edge">
<title>Node8&#45;&gt;Node4</title>
<path fill="none" stroke="midnightblue" d="M230.05,-168.37C214.23,-150.05 177.09,-107.05 156.63,-83.36"/>
<polygon fill="midnightblue" stroke="midnightblue" points="159.1,-80.87 149.92,-75.59 153.81,-85.45 159.1,-80.87"/>
</g>
<!-- Node10 -->
<g id="node10" class="node">
<title>Node10</title>
<g id="a_node10"><a xlink:href="constants_8h.html" target="_top" xlink:title=" ">
<polygon fill="white" stroke="black" points="313,-112.5 313,-131.5 450,-131.5 450,-112.5 313,-112.5"/>
<text text-anchor="middle" x="381.5" y="-119.5" font-family="Consolas" font-size="10.00">libccc/math/constants.h</text>
</a>
</g>
</g>
<!-- Node9&#45;&gt;Node10 -->
<g id="edge13" class="edge">
<title>Node9&#45;&gt;Node10</title>
<path fill="none" stroke="midnightblue" d="M503.52,-168.44C479.34,-159.44 441.08,-145.19 413.85,-135.05"/>
<polygon fill="midnightblue" stroke="midnightblue" points="414.96,-131.73 404.37,-131.52 412.52,-138.29 414.96,-131.73"/>
</g>
<!-- Node12 -->
<g id="node12" class="node">
<title>Node12</title>
<g id="a_node12"><a xlink:href="math_2int_8h.html" target="_top" xlink:title=" ">
<polygon fill="white" stroke="black" points="736.5,-112.5 736.5,-131.5 842.5,-131.5 842.5,-112.5 736.5,-112.5"/>
<text text-anchor="middle" x="789.5" y="-119.5" font-family="Consolas" font-size="10.00">libccc/math/int.h</text>
</a>
</g>
</g>
<!-- Node9&#45;&gt;Node12 -->
<g id="edge16" class="edge">
<title>Node9&#45;&gt;Node12</title>
<path fill="none" stroke="midnightblue" d="M550.77,-172.02C593.12,-163.32 681.37,-145.2 737.9,-133.6"/>
<polygon fill="midnightblue" stroke="midnightblue" points="738.63,-137.02 747.72,-131.58 737.22,-130.16 738.63,-137.02"/>
</g>
<!-- Node15 -->
<g id="node15" class="node">
<title>Node15</title>
<g id="a_node15"><a xlink:href="math_2fixed_8h.html" target="_top" xlink:title=" ">
<polygon fill="white" stroke="black" points="602.5,-112.5 602.5,-131.5 718.5,-131.5 718.5,-112.5 602.5,-112.5"/>
<text text-anchor="middle" x="660.5" y="-119.5" font-family="Consolas" font-size="10.00">libccc/math/fixed.h</text>
</a>
</g>
</g>
<!-- Node9&#45;&gt;Node15 -->
<g id="edge20" class="edge">
<title>Node9&#45;&gt;Node15</title>
<path fill="none" stroke="midnightblue" d="M547.73,-168.44C569.88,-159.52 604.82,-145.44 629.94,-135.32"/>
<polygon fill="midnightblue" stroke="midnightblue" points="631.4,-138.5 639.37,-131.52 628.78,-132.01 631.4,-138.5"/>
</g>
<!-- Node17 -->
<g id="node17" class="node">
<title>Node17</title>
<g id="a_node17"><a xlink:href="math_2float_8h.html" target="_top" xlink:title=" ">
<polygon fill="white" stroke="black" points="468.5,-112.5 468.5,-131.5 584.5,-131.5 584.5,-112.5 468.5,-112.5"/>
<text text-anchor="middle" x="526.5" y="-119.5" font-family="Consolas" font-size="10.00">libccc/math/float.h</text>
</a>
</g>
</g>
<!-- Node9&#45;&gt;Node17 -->
<g id="edge23" class="edge">
<title>Node9&#45;&gt;Node17</title>
<path fill="none" stroke="midnightblue" d="M526.5,-168.08C526.5,-161.01 526.5,-150.86 526.5,-141.99"/>
<polygon fill="midnightblue" stroke="midnightblue" points="530,-141.75 526.5,-131.75 523,-141.75 530,-141.75"/>
</g>
<!-- Node11 -->
<g id="node11" class="node">
<title>Node11</title>
<g id="a_node11"><a xlink:href="float_8h.html" target="_top" xlink:title=" ">
<polygon fill="white" stroke="black" points="336.5,-56.5 336.5,-75.5 426.5,-75.5 426.5,-56.5 336.5,-56.5"/>
<text text-anchor="middle" x="381.5" y="-63.5" font-family="Consolas" font-size="10.00">libccc/float.h</text>
</a>
</g>
</g>
<!-- Node10&#45;&gt;Node11 -->
<g id="edge14" class="edge">
<title>Node10&#45;&gt;Node11</title>
<path fill="none" stroke="midnightblue" d="M381.5,-112.08C381.5,-105.01 381.5,-94.86 381.5,-85.99"/>
<polygon fill="midnightblue" stroke="midnightblue" points="385,-85.75 381.5,-75.75 378,-85.75 385,-85.75"/>
</g>
<!-- Node11&#45;&gt;Node3 -->
<g id="edge15" class="edge">
<title>Node11&#45;&gt;Node3</title>
<path fill="none" stroke="midnightblue" d="M352.38,-75.56C334.86,-82.38 313.98,-93.86 303.5,-112 284.77,-144.42 296.85,-190.1 306,-215.04"/>
<polygon fill="midnightblue" stroke="midnightblue" points="302.74,-216.31 309.64,-224.35 309.26,-213.77 302.74,-216.31"/>
</g>
<!-- Node12&#45;&gt;Node13 -->
<g id="edge17" class="edge">
<title>Node12&#45;&gt;Node13</title>
<path fill="none" stroke="midnightblue" d="M808.36,-112.44C827.77,-103.64 858.23,-89.81 880.46,-79.72"/>
<polygon fill="midnightblue" stroke="midnightblue" points="882.07,-82.84 889.73,-75.52 879.18,-76.46 882.07,-82.84"/>
</g>
<!-- Node13&#45;&gt;Node3 -->
<g id="edge19" class="edge">
<title>Node13&#45;&gt;Node3</title>
<path fill="none" stroke="midnightblue" d="M904.67,-75.87C898.55,-89.26 885.51,-114.91 868.5,-132 835.27,-165.39 823.12,-172.89 778.5,-188 700.03,-214.58 450.64,-227.39 353.13,-231.49"/>
<polygon fill="midnightblue" stroke="midnightblue" points="352.93,-227.99 343.09,-231.9 353.22,-234.99 352.93,-227.99"/>
</g>
<!-- Node14 -->
<g id="node14" class="node">
<title>Node14</title>
<g id="a_node14"><a xlink:title=" ">
<polygon fill="white" stroke="#bfbfbf" points="879,-0.5 879,-19.5 938,-19.5 938,-0.5 879,-0.5"/>
<text text-anchor="middle" x="908.5" y="-7.5" font-family="Consolas" font-size="10.00">stdint.h</text>
</a>
</g>
</g>
<!-- Node13&#45;&gt;Node14 -->
<g id="edge18" class="edge">
<title>Node13&#45;&gt;Node14</title>
<path fill="none" stroke="midnightblue" d="M908.5,-56.08C908.5,-49.01 908.5,-38.86 908.5,-29.99"/>
<polygon fill="midnightblue" stroke="midnightblue" points="912,-29.75 908.5,-19.75 905,-29.75 912,-29.75"/>
</g>
<!-- Node16 -->
<g id="node16" class="node">
<title>Node16</title>
<g id="a_node16"><a xlink:href="fixed_8h.html" target="_top" xlink:title=" ">
<polygon fill="white" stroke="black" points="687.5,-56.5 687.5,-75.5 777.5,-75.5 777.5,-56.5 687.5,-56.5"/>
<text text-anchor="middle" x="732.5" y="-63.5" font-family="Consolas" font-size="10.00">libccc/fixed.h</text>
</a>
</g>
</g>
<!-- Node15&#45;&gt;Node16 -->
<g id="edge21" class="edge">
<title>Node15&#45;&gt;Node16</title>
<path fill="none" stroke="midnightblue" d="M672.07,-112.32C682.92,-104.18 699.38,-91.84 712.38,-82.09"/>
<polygon fill="midnightblue" stroke="midnightblue" points="714.82,-84.63 720.72,-75.83 710.62,-79.03 714.82,-84.63"/>
</g>
<!-- Node16&#45;&gt;Node3 -->
<g id="edge22" class="edge">
<title>Node16&#45;&gt;Node3</title>
<path fill="none" stroke="midnightblue" d="M777.88,-74.79C821.02,-84.16 875.94,-102.42 851.5,-132 787.95,-208.9 466.79,-227.6 353.3,-231.84"/>
<polygon fill="midnightblue" stroke="midnightblue" points="353.16,-228.34 343.29,-232.19 353.41,-235.33 353.16,-228.34"/>
</g>
<!-- Node17&#45;&gt;Node11 -->
<g id="edge24" class="edge">
<title>Node17&#45;&gt;Node11</title>
<path fill="none" stroke="midnightblue" d="M503.52,-112.44C479.34,-103.44 441.08,-89.19 413.85,-79.05"/>
<polygon fill="midnightblue" stroke="midnightblue" points="414.96,-75.73 404.37,-75.52 412.52,-82.29 414.96,-75.73"/>
</g>
</g>
</svg>
