<?xml version="1.0" encoding="UTF-8" standalone="no"?>
<!DOCTYPE svg PUBLIC "-//W3C//DTD SVG 1.1//EN"
 "http://www.w3.org/Graphics/SVG/1.1/DTD/svg11.dtd">
<!-- Generated by graphviz version 3.0.0 (20220226.1711)
 -->
<!-- Title: libccc/sys Pages: 1 -->
<svg width="94pt" height="167pt"
 viewBox="0.00 0.00 94.00 167.00" xmlns="http://www.w3.org/2000/svg" xmlns:xlink="http://www.w3.org/1999/xlink">
<g id="graph0" class="graph" transform="scale(1 1) rotate(0) translate(4 163)">
<title>libccc/sys</title>
<polygon fill="white" stroke="transparent" points="-4,4 -4,-163 90,-163 90,4 -4,4"/>
<g id="clust1" class="cluster">
<title>clusterdir_c91b9cc10373ff0ff775332a50dfdee2</title>
<g id="a_clust1"><a xlink:href="dir_c91b9cc10373ff0ff775332a50dfdee2.html" xlink:title="libccc">
<polygon fill="#edf0f7" stroke="#404040" stroke-dasharray="5,2" points="8,-8 8,-151 78,-151 78,-8 8,-8"/>
<text text-anchor="middle" x="43" y="-139" font-family="Consolas" font-size="10.00">libccc</text>
</a>
</g>
</g>
<!-- dir_c37fc63e945164a7ea17e99ab9df01fc -->
<g id="node1" class="node">
<title>dir_c37fc63e945164a7ea17e99ab9df01fc</title>
<g id="a_node1"><a xlink:href="dir_c37fc63e945164a7ea17e99ab9df01fc.html" xlink:title="image">
<polygon fill="#a2b4d6" stroke="#404040" points="70,-52 16,-52 16,-16 70,-16 70,-52"/>
<text text-anchor="middle" x="43" y="-31.5" font-family="Consolas" font-size="10.00">image</text>
</a>
</g>
</g>
<!-- dir_cb9e44b6848161082ae6376d9df943fa -->
<g id="node2" class="node">
<title>dir_cb9e44b6848161082ae6376d9df943fa</title>
<g id="a_node2"><a xlink:href="dir_cb9e44b6848161082ae6376d9df943fa.html" xlink:title="sys">
<polygon fill="#edf0f7" stroke="#404040" stroke-width="2" points="70,-124 16,-124 16,-88 70,-88 70,-124"/>
<text text-anchor="middle" x="43" y="-103.5" font-family="Consolas" font-size="10.00">sys</text>
</a>
</g>
</g>
<!-- dir_cb9e44b6848161082ae6376d9df943fa&#45;&gt;dir_c37fc63e945164a7ea17e99ab9df01fc -->
<g id="edge1" class="edge">
<title>dir_cb9e44b6848161082ae6376d9df943fa&#45;&gt;dir_c37fc63e945164a7ea17e99ab9df01fc</title>
<path fill="none" stroke="black" d="M43,-87.7C43,-79.98 43,-70.71 43,-62.11"/>
<polygon fill="black" stroke="black" points="46.5,-62.1 43,-52.1 39.5,-62.1 46.5,-62.1"/>
<g id="a_edge1&#45;headlabel"><a xlink:href="dir_000007_000002.html" xlink:title="1">
<text text-anchor="middle" x="49.34" y="-63.2" font-family="Consolas" font-size="10.00">1</text>
</a>
</g>
</g>
</g>
</svg>
