<?xml version="1.0" encoding="UTF-8" standalone="no"?>
<!DOCTYPE svg PUBLIC "-//W3C//DTD SVG 1.1//EN"
 "http://www.w3.org/Graphics/SVG/1.1/DTD/svg11.dtd">
<!-- Generated by graphviz version 3.0.0 (20220226.1711)
 -->
<!-- Title: libccc Pages: 1 -->
<svg width="310pt" height="220pt"
 viewBox="0.00 0.00 310.00 220.00" xmlns="http://www.w3.org/2000/svg" xmlns:xlink="http://www.w3.org/1999/xlink">
<g id="graph0" class="graph" transform="scale(1 1) rotate(0) translate(4 216)">
<title>libccc</title>
<polygon fill="white" stroke="transparent" points="-4,4 -4,-216 306,-216 306,4 -4,4"/>
<g id="clust1" class="cluster">
<title>clusterdir_c91b9cc10373ff0ff775332a50dfdee2</title>
<g id="a_clust1"><a xlink:href="dir_c91b9cc10373ff0ff775332a50dfdee2.html">
<polygon fill="#edf0f7" stroke="#404040" stroke-width="2" points="8,-8 8,-204 294,-204 294,-8 8,-8"/>
</a>
</g>
</g>
<!-- dir_c91b9cc10373ff0ff775332a50dfdee2 -->
<g id="node1" class="node">
<title>dir_c91b9cc10373ff0ff775332a50dfdee2</title>
<text text-anchor="middle" x="259" y="-175.5" font-family="Consolas" font-size="10.00">libccc</text>
</g>
<!-- dir_0d635f2cc23728660326cdb373135025 -->
<g id="node4" class="node">
<title>dir_0d635f2cc23728660326cdb373135025</title>
<g id="a_node4"><a xlink:href="dir_0d635f2cc23728660326cdb373135025.html" xlink:title="math">
<polygon fill="#a2b4d6" stroke="#404040" points="214,-124 160,-124 160,-88 214,-88 214,-124"/>
<text text-anchor="middle" x="187" y="-103.5" font-family="Consolas" font-size="10.00">math</text>
</a>
</g>
</g>
<!-- dir_c91b9cc10373ff0ff775332a50dfdee2&#45;&gt;dir_0d635f2cc23728660326cdb373135025 -->
<g id="edge1" class="edge">
<title>dir_c91b9cc10373ff0ff775332a50dfdee2&#45;&gt;dir_0d635f2cc23728660326cdb373135025</title>
<path fill="none" stroke="black" d="M241.2,-159.7C232.4,-151.14 221.62,-140.66 212,-131.3"/>
<polygon fill="black" stroke="black" points="214.2,-128.57 204.59,-124.1 209.32,-133.58 214.2,-128.57"/>
<g id="a_edge1&#45;headlabel"><a xlink:href="dir_000003_000004.html" xlink:title="7">
<text text-anchor="middle" x="218.76" y="-126.54" font-family="Consolas" font-size="10.00">7</text>
</a>
</g>
</g>
<!-- dir_cb9e44b6848161082ae6376d9df943fa -->
<g id="node7" class="node">
<title>dir_cb9e44b6848161082ae6376d9df943fa</title>
<g id="a_node7"><a xlink:href="dir_cb9e44b6848161082ae6376d9df943fa.html" xlink:title="sys">
<polygon fill="#a2b4d6" stroke="#404040" points="286,-124 232,-124 232,-88 286,-88 286,-124"/>
<text text-anchor="middle" x="259" y="-103.5" font-family="Consolas" font-size="10.00">sys</text>
</a>
</g>
</g>
<!-- dir_c91b9cc10373ff0ff775332a50dfdee2&#45;&gt;dir_cb9e44b6848161082ae6376d9df943fa -->
<g id="edge2" class="edge">
<title>dir_c91b9cc10373ff0ff775332a50dfdee2&#45;&gt;dir_cb9e44b6848161082ae6376d9df943fa</title>
<path fill="none" stroke="black" d="M259,-159.7C259,-151.98 259,-142.71 259,-134.11"/>
<polygon fill="black" stroke="black" points="262.5,-134.1 259,-124.1 255.5,-134.1 262.5,-134.1"/>
<g id="a_edge2&#45;headlabel"><a xlink:href="dir_000003_000007.html" xlink:title="1">
<text text-anchor="middle" x="265.34" y="-135.2" font-family="Consolas" font-size="10.00">1</text>
</a>
</g>
</g>
<!-- dir_d6df185c05155cc25a6063b3ffec8107 -->
<g id="node2" class="node">
<title>dir_d6df185c05155cc25a6063b3ffec8107</title>
<g id="a_node2"><a xlink:href="dir_d6df185c05155cc25a6063b3ffec8107.html" xlink:title="encode">
<polygon fill="#a2b4d6" stroke="#404040" points="214,-196 160,-196 160,-160 214,-160 214,-196"/>
<text text-anchor="middle" x="187" y="-175.5" font-family="Consolas" font-size="10.00">encode</text>
</a>
</g>
</g>
<!-- dir_c37fc63e945164a7ea17e99ab9df01fc -->
<g id="node3" class="node">
<title>dir_c37fc63e945164a7ea17e99ab9df01fc</title>
<g id="a_node3"><a xlink:href="dir_c37fc63e945164a7ea17e99ab9df01fc.html" xlink:title="image">
<polygon fill="#a2b4d6" stroke="#404040" points="286,-52 232,-52 232,-16 286,-16 286,-52"/>
<text text-anchor="middle" x="259" y="-31.5" font-family="Consolas" font-size="10.00">image</text>
</a>
</g>
</g>
<!-- dir_6ab6982fc79c074882a5f665edcf2594 -->
<g id="node5" class="node">
<title>dir_6ab6982fc79c074882a5f665edcf2594</title>
<g id="a_node5"><a xlink:href="dir_6ab6982fc79c074882a5f665edcf2594.html" xlink:title="monad">
<polygon fill="#a2b4d6" stroke="#404040" points="142,-196 88,-196 88,-160 142,-160 142,-196"/>
<text text-anchor="middle" x="115" y="-175.5" font-family="Consolas" font-size="10.00">monad</text>
</a>
</g>
</g>
<!-- dir_4f2944236d2c525a0d023b83029b43e5 -->
<g id="node6" class="node">
<title>dir_4f2944236d2c525a0d023b83029b43e5</title>
<g id="a_node6"><a xlink:href="dir_4f2944236d2c525a0d023b83029b43e5.html" xlink:title="random">
<polygon fill="#a2b4d6" stroke="#404040" points="70,-196 16,-196 16,-160 70,-160 70,-196"/>
<text text-anchor="middle" x="43" y="-175.5" font-family="Consolas" font-size="10.00">random</text>
</a>
</g>
</g>
<!-- dir_cb9e44b6848161082ae6376d9df943fa&#45;&gt;dir_c37fc63e945164a7ea17e99ab9df01fc -->
<g id="edge3" class="edge">
<title>dir_cb9e44b6848161082ae6376d9df943fa&#45;&gt;dir_c37fc63e945164a7ea17e99ab9df01fc</title>
<path fill="none" stroke="black" d="M259,-87.7C259,-79.98 259,-70.71 259,-62.11"/>
<polygon fill="black" stroke="black" points="262.5,-62.1 259,-52.1 255.5,-62.1 262.5,-62.1"/>
<g id="a_edge3&#45;headlabel"><a xlink:href="dir_000007_000002.html" xlink:title="1">
<text text-anchor="middle" x="265.34" y="-63.2" font-family="Consolas" font-size="10.00">1</text>
</a>
</g>
</g>
</g>
</svg>
