<?xml version="1.0" encoding="UTF-8" standalone="no"?>
<!DOCTYPE svg PUBLIC "-//W3C//DTD SVG 1.1//EN"
 "http://www.w3.org/Graphics/SVG/1.1/DTD/svg11.dtd">
<!-- Generated by graphviz version 2.49.3 (20211023.0002)
 -->
<!-- Title: libccc Pages: 1 -->
<svg width="382pt" height="148pt"
 viewBox="0.00 0.00 382.00 148.00" xmlns="http://www.w3.org/2000/svg" xmlns:xlink="http://www.w3.org/1999/xlink">
<g id="graph0" class="graph" transform="scale(1 1) rotate(0) translate(4 144)">
<title>libccc</title>
<polygon fill="white" stroke="transparent" points="-4,4 -4,-144 378,-144 378,4 -4,4"/>
<g id="clust1" class="cluster">
<title>clusterdir_c91b9cc10373ff0ff775332a50dfdee2</title>
<g id="a_clust1"><a xlink:href="dir_c91b9cc10373ff0ff775332a50dfdee2.html" target="_top">
<polygon fill="#eeeeff" stroke="black" points="8,-8 8,-132 366,-132 366,-8 8,-8"/>
</a>
</g>
</g>
<!-- dir_c91b9cc10373ff0ff775332a50dfdee2 -->
<g id="node1" class="node">
<title>dir_c91b9cc10373ff0ff775332a50dfdee2</title>
<text text-anchor="middle" x="331" y="-103.5" font-family="Consolas" font-size="10.00">libccc</text>
</g>
<!-- dir_cb9e44b6848161082ae6376d9df943fa -->
<g id="node6" class="node">
<title>dir_cb9e44b6848161082ae6376d9df943fa</title>
<g id="a_node6"><a xlink:href="dir_cb9e44b6848161082ae6376d9df943fa.html" target="_top" xlink:title="sys">
<polygon fill="white" stroke="black" points="358,-52 304,-52 304,-16 358,-16 358,-52"/>
<text text-anchor="middle" x="331" y="-31.5" font-family="Consolas" font-size="10.00">sys</text>
</a>
</g>
</g>
<!-- dir_c91b9cc10373ff0ff775332a50dfdee2&#45;&gt;dir_cb9e44b6848161082ae6376d9df943fa -->
<g id="edge1" class="edge">
<title>dir_c91b9cc10373ff0ff775332a50dfdee2&#45;&gt;dir_cb9e44b6848161082ae6376d9df943fa</title>
<path fill="none" stroke="black" d="M331,-87.7C331,-79.98 331,-70.71 331,-62.11"/>
<polygon fill="black" stroke="black" points="334.5,-62.1 331,-52.1 327.5,-62.1 334.5,-62.1"/>
<g id="a_edge1&#45;headlabel"><a xlink:href="dir_000000_000006.html" target="_top" xlink:title="1">
<text text-anchor="middle" x="337.34" y="-63.2" font-family="Consolas" font-size="10.00">1</text>
</a>
</g>
</g>
<!-- dir_d6df185c05155cc25a6063b3ffec8107 -->
<g id="node2" class="node">
<title>dir_d6df185c05155cc25a6063b3ffec8107</title>
<g id="a_node2"><a xlink:href="dir_d6df185c05155cc25a6063b3ffec8107.html" target="_top" xlink:title="encode">
<polygon fill="white" stroke="black" points="286,-124 232,-124 232,-88 286,-88 286,-124"/>
<text text-anchor="middle" x="259" y="-103.5" font-family="Consolas" font-size="10.00">encode</text>
</a>
</g>
</g>
<!-- dir_0d635f2cc23728660326cdb373135025 -->
<g id="node3" class="node">
<title>dir_0d635f2cc23728660326cdb373135025</title>
<g id="a_node3"><a xlink:href="dir_0d635f2cc23728660326cdb373135025.html" target="_top" xlink:title="math">
<polygon fill="white" stroke="red" points="214,-124 160,-124 160,-88 214,-88 214,-124"/>
<text text-anchor="middle" x="187" y="-103.5" font-family="Consolas" font-size="10.00">math</text>
</a>
</g>
</g>
<!-- dir_6ab6982fc79c074882a5f665edcf2594 -->
<g id="node4" class="node">
<title>dir_6ab6982fc79c074882a5f665edcf2594</title>
<g id="a_node4"><a xlink:href="dir_6ab6982fc79c074882a5f665edcf2594.html" target="_top" xlink:title="monad">
<polygon fill="white" stroke="black" points="142,-124 88,-124 88,-88 142,-88 142,-124"/>
<text text-anchor="middle" x="115" y="-103.5" font-family="Consolas" font-size="10.00">monad</text>
</a>
</g>
</g>
<!-- dir_4f2944236d2c525a0d023b83029b43e5 -->
<g id="node5" class="node">
<title>dir_4f2944236d2c525a0d023b83029b43e5</title>
<g id="a_node5"><a xlink:href="dir_4f2944236d2c525a0d023b83029b43e5.html" target="_top" xlink:title="random">
<polygon fill="white" stroke="black" points="70,-124 16,-124 16,-88 70,-88 70,-124"/>
<text text-anchor="middle" x="43" y="-103.5" font-family="Consolas" font-size="10.00">random</text>
</a>
</g>
</g>
</g>
</svg>
