<?xml version="1.0" encoding="UTF-8" standalone="no"?>
<!DOCTYPE svg PUBLIC "-//W3C//DTD SVG 1.1//EN"
 "http://www.w3.org/Graphics/SVG/1.1/DTD/svg11.dtd">
<!-- Generated by graphviz version 2.49.3 (20211023.0002)
 -->
<!-- Title: hdr/libccc Pages: 1 -->
<svg width="398pt" height="183pt"
 viewBox="0.00 0.00 398.00 183.00" xmlns="http://www.w3.org/2000/svg" xmlns:xlink="http://www.w3.org/1999/xlink">
<g id="graph0" class="graph" transform="scale(1 1) rotate(0) translate(4 179)">
<title>hdr/libccc</title>
<polygon fill="white" stroke="transparent" points="-4,4 -4,-179 394,-179 394,4 -4,4"/>
<g id="clust1" class="cluster">
<title>clusterdir_0045f852bf8045b6d5abd9c9eb54a446</title>
<g id="a_clust1"><a xlink:href="dir_0045f852bf8045b6d5abd9c9eb54a446.html" target="_top" xlink:title="hdr">
<polygon fill="#ddddee" stroke="black" points="8,-8 8,-167 382,-167 382,-8 8,-8"/>
<text text-anchor="middle" x="195" y="-155" font-family="Consolas" font-size="10.00">hdr</text>
</a>
</g>
</g>
<g id="clust2" class="cluster">
<title>clusterdir_769289bab6d29f7dad64fd8f1acfa1bf</title>
<g id="a_clust2"><a xlink:href="dir_769289bab6d29f7dad64fd8f1acfa1bf.html" target="_top">
<polygon fill="#eeeeff" stroke="black" points="16,-16 16,-140 374,-140 374,-16 16,-16"/>
</a>
</g>
</g>
<!-- dir_769289bab6d29f7dad64fd8f1acfa1bf -->
<g id="node1" class="node">
<title>dir_769289bab6d29f7dad64fd8f1acfa1bf</title>
<text text-anchor="middle" x="339" y="-111.5" font-family="Consolas" font-size="10.00">libccc</text>
</g>
<!-- dir_55c2735e4cf9d150a3f56576f648017b -->
<g id="node6" class="node">
<title>dir_55c2735e4cf9d150a3f56576f648017b</title>
<g id="a_node6"><a xlink:href="dir_55c2735e4cf9d150a3f56576f648017b.html" target="_top" xlink:title="sys">
<polygon fill="white" stroke="black" points="366,-60 312,-60 312,-24 366,-24 366,-60"/>
<text text-anchor="middle" x="339" y="-39.5" font-family="Consolas" font-size="10.00">sys</text>
</a>
</g>
</g>
<!-- dir_769289bab6d29f7dad64fd8f1acfa1bf&#45;&gt;dir_55c2735e4cf9d150a3f56576f648017b -->
<g id="edge1" class="edge">
<title>dir_769289bab6d29f7dad64fd8f1acfa1bf&#45;&gt;dir_55c2735e4cf9d150a3f56576f648017b</title>
<path fill="none" stroke="black" d="M339,-95.7C339,-87.98 339,-78.71 339,-70.11"/>
<polygon fill="black" stroke="black" points="342.5,-70.1 339,-60.1 335.5,-70.1 342.5,-70.1"/>
<g id="a_edge1&#45;headlabel"><a xlink:href="dir_000001_000007.html" target="_top" xlink:title="1">
<text text-anchor="middle" x="345.34" y="-71.2" font-family="Consolas" font-size="10.00">1</text>
</a>
</g>
</g>
<!-- dir_30a2f238cb724f787293ed63dd2d7966 -->
<g id="node2" class="node">
<title>dir_30a2f238cb724f787293ed63dd2d7966</title>
<g id="a_node2"><a xlink:href="dir_30a2f238cb724f787293ed63dd2d7966.html" target="_top" xlink:title="encode">
<polygon fill="white" stroke="black" points="294,-132 240,-132 240,-96 294,-96 294,-132"/>
<text text-anchor="middle" x="267" y="-111.5" font-family="Consolas" font-size="10.00">encode</text>
</a>
</g>
</g>
<!-- dir_95a5c7608f44570f25f009355c401eb3 -->
<g id="node3" class="node">
<title>dir_95a5c7608f44570f25f009355c401eb3</title>
<g id="a_node3"><a xlink:href="dir_95a5c7608f44570f25f009355c401eb3.html" target="_top" xlink:title="math">
<polygon fill="white" stroke="red" points="222,-132 168,-132 168,-96 222,-96 222,-132"/>
<text text-anchor="middle" x="195" y="-111.5" font-family="Consolas" font-size="10.00">math</text>
</a>
</g>
</g>
<!-- dir_e24cf0de90354a2d5cfac55fe9be57d6 -->
<g id="node4" class="node">
<title>dir_e24cf0de90354a2d5cfac55fe9be57d6</title>
<g id="a_node4"><a xlink:href="dir_e24cf0de90354a2d5cfac55fe9be57d6.html" target="_top" xlink:title="monad">
<polygon fill="white" stroke="black" points="150,-132 96,-132 96,-96 150,-96 150,-132"/>
<text text-anchor="middle" x="123" y="-111.5" font-family="Consolas" font-size="10.00">monad</text>
</a>
</g>
</g>
<!-- dir_71ecd33d167cbecc24fcd8dae37d6c8f -->
<g id="node5" class="node">
<title>dir_71ecd33d167cbecc24fcd8dae37d6c8f</title>
<g id="a_node5"><a xlink:href="dir_71ecd33d167cbecc24fcd8dae37d6c8f.html" target="_top" xlink:title="random">
<polygon fill="white" stroke="black" points="78,-132 24,-132 24,-96 78,-96 78,-132"/>
<text text-anchor="middle" x="51" y="-111.5" font-family="Consolas" font-size="10.00">random</text>
</a>
</g>
</g>
</g>
</svg>
