<?xml version="1.0" encoding="UTF-8" standalone="no"?>
<!DOCTYPE svg PUBLIC "-//W3C//DTD SVG 1.1//EN"
 "http://www.w3.org/Graphics/SVG/1.1/DTD/svg11.dtd">
<!-- Generated by graphviz version 3.0.0 (20220226.1711)
 -->
<!-- Title: libccc/error.h Pages: 1 -->
<svg width="794pt" height="431pt"
 viewBox="0.00 0.00 793.50 431.00" xmlns="http://www.w3.org/2000/svg" xmlns:xlink="http://www.w3.org/1999/xlink">
<g id="graph0" class="graph" transform="scale(1 1) rotate(0) translate(4 427)">
<title>libccc/error.h</title>
<polygon fill="white" stroke="transparent" points="-4,4 -4,-427 789.5,-427 789.5,4 -4,4"/>
<!-- Node1 -->
<g id="node1" class="node">
<title>Node1</title>
<g id="a_node1"><a xlink:title=" ">
<polygon fill="#bfbfbf" stroke="black" points="433.5,-403.5 433.5,-422.5 505.5,-422.5 505.5,-403.5 433.5,-403.5"/>
<text text-anchor="middle" x="469.5" y="-410.5" font-family="Consolas" font-size="10.00">libccc/error.h</text>
</a>
</g>
</g>
<!-- Node2 -->
<g id="node2" class="node">
<title>Node2</title>
<g id="a_node2"><a xlink:href="libccc_8h.html" target="_top" xlink:title=" ">
<polygon fill="white" stroke="black" points="479.5,-224.5 479.5,-243.5 529.5,-243.5 529.5,-224.5 479.5,-224.5"/>
<text text-anchor="middle" x="504.5" y="-231.5" font-family="Consolas" font-size="10.00">libccc.h</text>
</a>
</g>
</g>
<!-- Node1&#45;&gt;Node2 -->
<g id="edge1" class="edge">
<title>Node1&#45;&gt;Node2</title>
<path fill="none" stroke="midnightblue" d="M471.19,-403.46C476.53,-376.43 493.18,-292.24 500.72,-254.11"/>
<polygon fill="midnightblue" stroke="midnightblue" points="504.24,-254.36 502.75,-243.87 497.37,-253 504.24,-254.36"/>
</g>
<!-- Node9 -->
<g id="node9" class="node">
<title>Node9</title>
<g id="a_node9"><a xlink:href="string_8h.html" target="_top" xlink:title=" ">
<polygon fill="white" stroke="black" points="171,-347.5 171,-366.5 248,-366.5 248,-347.5 171,-347.5"/>
<text text-anchor="middle" x="209.5" y="-354.5" font-family="Consolas" font-size="10.00">libccc/string.h</text>
</a>
</g>
</g>
<!-- Node1&#45;&gt;Node9 -->
<g id="edge12" class="edge">
<title>Node1&#45;&gt;Node9</title>
<path fill="none" stroke="midnightblue" d="M433.35,-404.49C387.79,-395.03 309.3,-378.73 258.42,-368.16"/>
<polygon fill="midnightblue" stroke="midnightblue" points="258.81,-364.67 248.31,-366.06 257.39,-371.52 258.81,-364.67"/>
</g>
<!-- Node14 -->
<g id="node14" class="node">
<title>Node14</title>
<g id="a_node14"><a xlink:href="format_8h.html" target="_top" xlink:title=" ">
<polygon fill="white" stroke="black" points="365,-347.5 365,-366.5 446,-366.5 446,-347.5 365,-347.5"/>
<text text-anchor="middle" x="405.5" y="-354.5" font-family="Consolas" font-size="10.00">libccc/format.h</text>
</a>
</g>
</g>
<!-- Node1&#45;&gt;Node14 -->
<g id="edge19" class="edge">
<title>Node1&#45;&gt;Node14</title>
<path fill="none" stroke="midnightblue" d="M459.22,-403.32C449.66,-395.26 435.22,-383.08 423.72,-373.37"/>
<polygon fill="midnightblue" stroke="midnightblue" points="425.87,-370.61 415.97,-366.83 421.36,-375.96 425.87,-370.61"/>
</g>
<!-- Node17 -->
<g id="node17" class="node">
<title>Node17</title>
<g id="a_node17"><a xlink:href="io_8h.html" target="_top" xlink:title=" ">
<polygon fill="white" stroke="black" points="582.5,-347.5 582.5,-366.5 662.5,-366.5 662.5,-347.5 582.5,-347.5"/>
<text text-anchor="middle" x="622.5" y="-354.5" font-family="Consolas" font-size="10.00">libccc/sys/io.h</text>
</a>
</g>
</g>
<!-- Node1&#45;&gt;Node17 -->
<g id="edge23" class="edge">
<title>Node1&#45;&gt;Node17</title>
<path fill="none" stroke="midnightblue" d="M493.74,-403.44C519.37,-394.4 559.99,-380.06 588.74,-369.92"/>
<polygon fill="midnightblue" stroke="midnightblue" points="590.11,-373.15 598.37,-366.52 587.78,-366.54 590.11,-373.15"/>
</g>
<!-- Node3 -->
<g id="node3" class="node">
<title>Node3</title>
<g id="a_node3"><a xlink:href="libccc__define_8h.html" target="_top" xlink:title=" ">
<polygon fill="white" stroke="black" points="514.5,-56.5 514.5,-75.5 596.5,-75.5 596.5,-56.5 514.5,-56.5"/>
<text text-anchor="middle" x="555.5" y="-63.5" font-family="Consolas" font-size="10.00">libccc_define.h</text>
</a>
</g>
</g>
<!-- Node2&#45;&gt;Node3 -->
<g id="edge2" class="edge">
<title>Node2&#45;&gt;Node3</title>
<path fill="none" stroke="midnightblue" d="M529.54,-231.53C557.75,-228.37 602.41,-218.53 623.5,-188 635.35,-170.85 620.54,-131.03 608.5,-112 600.83,-99.89 588.88,-89.33 578.26,-81.49"/>
<polygon fill="midnightblue" stroke="midnightblue" points="579.98,-78.42 569.78,-75.57 575.97,-84.16 579.98,-78.42"/>
</g>
<!-- Node5 -->
<g id="node5" class="node">
<title>Node5</title>
<g id="a_node5"><a xlink:href="libccc__errors_8h.html" target="_top" xlink:title=" ">
<polygon fill="white" stroke="black" points="375.5,-112.5 375.5,-131.5 455.5,-131.5 455.5,-112.5 375.5,-112.5"/>
<text text-anchor="middle" x="415.5" y="-119.5" font-family="Consolas" font-size="10.00">libccc_errors.h</text>
</a>
</g>
</g>
<!-- Node2&#45;&gt;Node5 -->
<g id="edge4" class="edge">
<title>Node2&#45;&gt;Node5</title>
<path fill="none" stroke="midnightblue" d="M479.43,-226.95C459.56,-220.72 432.98,-208.91 419.5,-188 410.79,-174.49 410.52,-155.93 412,-142.11"/>
<polygon fill="midnightblue" stroke="midnightblue" points="415.52,-142.22 413.51,-131.82 408.6,-141.2 415.52,-142.22"/>
</g>
<!-- Node6 -->
<g id="node6" class="node">
<title>Node6</title>
<g id="a_node6"><a xlink:href="libccc__config_8h.html" target="_top" xlink:title=" ">
<polygon fill="white" stroke="black" points="428.5,-168.5 428.5,-187.5 510.5,-187.5 510.5,-168.5 428.5,-168.5"/>
<text text-anchor="middle" x="469.5" y="-175.5" font-family="Consolas" font-size="10.00">libccc_config.h</text>
</a>
</g>
</g>
<!-- Node2&#45;&gt;Node6 -->
<g id="edge6" class="edge">
<title>Node2&#45;&gt;Node6</title>
<path fill="none" stroke="midnightblue" d="M498.72,-224.08C493.83,-216.53 486.67,-205.49 480.67,-196.23"/>
<polygon fill="midnightblue" stroke="midnightblue" points="483.55,-194.24 475.17,-187.75 477.67,-198.05 483.55,-194.24"/>
</g>
<!-- Node7 -->
<g id="node7" class="node">
<title>Node7</title>
<g id="a_node7"><a xlink:href="libccc__naming_8h.html" target="_top" xlink:title=" ">
<polygon fill="white" stroke="black" points="512,-112.5 512,-131.5 599,-131.5 599,-112.5 512,-112.5"/>
<text text-anchor="middle" x="555.5" y="-119.5" font-family="Consolas" font-size="10.00">libccc_naming.h</text>
</a>
</g>
</g>
<!-- Node2&#45;&gt;Node7 -->
<g id="edge9" class="edge">
<title>Node2&#45;&gt;Node7</title>
<path fill="none" stroke="midnightblue" d="M508.5,-224.37C516.81,-206.46 536.06,-164.92 547.18,-140.95"/>
<polygon fill="midnightblue" stroke="midnightblue" points="550.49,-142.14 551.52,-131.59 544.14,-139.19 550.49,-142.14"/>
</g>
<!-- Node8 -->
<g id="node8" class="node">
<title>Node8</title>
<g id="a_node8"><a xlink:title=" ">
<polygon fill="white" stroke="#bfbfbf" points="567,-168.5 567,-187.5 614,-187.5 614,-168.5 567,-168.5"/>
<text text-anchor="middle" x="590.5" y="-175.5" font-family="Consolas" font-size="10.00">math.h</text>
</a>
</g>
</g>
<!-- Node2&#45;&gt;Node8 -->
<g id="edge11" class="edge">
<title>Node2&#45;&gt;Node8</title>
<path fill="none" stroke="midnightblue" d="M518.32,-224.32C531.73,-215.9 552.32,-202.97 568.09,-193.07"/>
<polygon fill="midnightblue" stroke="midnightblue" points="570.11,-195.94 576.72,-187.65 566.39,-190.01 570.11,-195.94"/>
</g>
<!-- Node4 -->
<g id="node4" class="node">
<title>Node4</title>
<g id="a_node4"><a xlink:title=" ">
<polygon fill="white" stroke="#bfbfbf" points="526,-0.5 526,-19.5 585,-19.5 585,-0.5 526,-0.5"/>
<text text-anchor="middle" x="555.5" y="-7.5" font-family="Consolas" font-size="10.00">stdalign.h</text>
</a>
</g>
</g>
<!-- Node3&#45;&gt;Node4 -->
<g id="edge3" class="edge">
<title>Node3&#45;&gt;Node4</title>
<path fill="none" stroke="midnightblue" d="M555.5,-56.08C555.5,-49.01 555.5,-38.86 555.5,-29.99"/>
<polygon fill="midnightblue" stroke="midnightblue" points="559,-29.75 555.5,-19.75 552,-29.75 559,-29.75"/>
</g>
<!-- Node5&#45;&gt;Node3 -->
<g id="edge5" class="edge">
<title>Node5&#45;&gt;Node3</title>
<path fill="none" stroke="midnightblue" d="M437.68,-112.44C460.93,-103.48 497.65,-89.31 523.92,-79.18"/>
<polygon fill="midnightblue" stroke="midnightblue" points="525.35,-82.38 533.42,-75.52 522.83,-75.85 525.35,-82.38"/>
</g>
<!-- Node6&#45;&gt;Node3 -->
<g id="edge7" class="edge">
<title>Node6&#45;&gt;Node3</title>
<path fill="none" stroke="midnightblue" d="M472.77,-168.4C478,-155.36 489.11,-130.17 503.5,-112 512.53,-100.59 524.75,-89.85 535.07,-81.72"/>
<polygon fill="midnightblue" stroke="midnightblue" points="537.34,-84.39 543.19,-75.55 533.11,-78.82 537.34,-84.39"/>
</g>
<!-- Node6&#45;&gt;Node5 -->
<g id="edge8" class="edge">
<title>Node6&#45;&gt;Node5</title>
<path fill="none" stroke="midnightblue" d="M460.58,-168.08C452.72,-160.22 441.07,-148.57 431.58,-139.08"/>
<polygon fill="midnightblue" stroke="midnightblue" points="433.8,-136.35 424.25,-131.75 428.85,-141.3 433.8,-136.35"/>
</g>
<!-- Node7&#45;&gt;Node3 -->
<g id="edge10" class="edge">
<title>Node7&#45;&gt;Node3</title>
<path fill="none" stroke="midnightblue" d="M555.5,-112.08C555.5,-105.01 555.5,-94.86 555.5,-85.99"/>
<polygon fill="midnightblue" stroke="midnightblue" points="559,-85.75 555.5,-75.75 552,-85.75 559,-85.75"/>
</g>
<!-- Node9&#45;&gt;Node2 -->
<g id="edge13" class="edge">
<title>Node9&#45;&gt;Node2</title>
<path fill="none" stroke="midnightblue" d="M203.16,-347.33C192.72,-331.9 174.63,-299.47 191.5,-280 227.05,-238.97 394.48,-234.48 468.81,-234.56"/>
<polygon fill="midnightblue" stroke="midnightblue" points="469.06,-238.06 479.07,-234.6 469.08,-231.06 469.06,-238.06"/>
</g>
<!-- Node10 -->
<g id="node10" class="node">
<title>Node10</title>
<g id="a_node10"><a xlink:title=" ">
<polygon fill="white" stroke="#bfbfbf" points="201,-280.5 201,-310.5 290,-310.5 290,-280.5 201,-280.5"/>
<text text-anchor="start" x="209" y="-298.5" font-family="Consolas" font-size="10.00">libccc/text/string</text>
<text text-anchor="middle" x="245.5" y="-287.5" font-family="Consolas" font-size="10.00">_ascii.h</text>
</a>
</g>
</g>
<!-- Node9&#45;&gt;Node10 -->
<g id="edge14" class="edge">
<title>Node9&#45;&gt;Node10</title>
<path fill="none" stroke="midnightblue" d="M214.66,-347.48C219.12,-340.09 225.79,-329.08 231.78,-319.17"/>
<polygon fill="midnightblue" stroke="midnightblue" points="234.83,-320.89 237.02,-310.52 228.84,-317.27 234.83,-320.89"/>
</g>
<!-- Node11 -->
<g id="node11" class="node">
<title>Node11</title>
<g id="a_node11"><a xlink:href="char_8h.html" target="_top" xlink:title=" ">
<polygon fill="white" stroke="black" points="73,-286 73,-305 144,-305 144,-286 73,-286"/>
<text text-anchor="middle" x="108.5" y="-293" font-family="Consolas" font-size="10.00">libccc/char.h</text>
</a>
</g>
</g>
<!-- Node9&#45;&gt;Node11 -->
<g id="edge15" class="edge">
<title>Node9&#45;&gt;Node11</title>
<path fill="none" stroke="midnightblue" d="M195.03,-347.48C178.53,-337.75 151.32,-321.73 131.82,-310.24"/>
<polygon fill="midnightblue" stroke="midnightblue" points="133.34,-307.07 122.94,-305.01 129.78,-313.1 133.34,-307.07"/>
</g>
<!-- Node11&#45;&gt;Node2 -->
<g id="edge17" class="edge">
<title>Node11&#45;&gt;Node2</title>
<path fill="none" stroke="midnightblue" d="M135.04,-285.99C142.56,-283.8 150.8,-281.61 158.5,-280 270.61,-256.6 405.84,-243.22 468.9,-237.82"/>
<polygon fill="midnightblue" stroke="midnightblue" points="469.43,-241.29 479.1,-236.96 468.84,-234.31 469.43,-241.29"/>
</g>
<!-- Node12 -->
<g id="node12" class="node">
<title>Node12</title>
<g id="a_node12"><a xlink:title=" ">
<polygon fill="white" stroke="#bfbfbf" points="135,-224.5 135,-243.5 184,-243.5 184,-224.5 135,-224.5"/>
<text text-anchor="middle" x="159.5" y="-231.5" font-family="Consolas" font-size="10.00">stdint.h</text>
</a>
</g>
</g>
<!-- Node11&#45;&gt;Node12 -->
<g id="edge16" class="edge">
<title>Node11&#45;&gt;Node12</title>
<path fill="none" stroke="midnightblue" d="M115.81,-285.98C123.53,-276.96 135.91,-262.52 145.52,-251.31"/>
<polygon fill="midnightblue" stroke="midnightblue" points="148.36,-253.38 152.21,-243.51 143.04,-248.82 148.36,-253.38"/>
</g>
<!-- Node13 -->
<g id="node13" class="node">
<title>Node13</title>
<g id="a_node13"><a xlink:title=" ">
<polygon fill="white" stroke="#bfbfbf" points="0,-224.5 0,-243.5 117,-243.5 117,-224.5 0,-224.5"/>
<text text-anchor="middle" x="58.5" y="-231.5" font-family="Consolas" font-size="10.00">libccc/text/char_ascii.h</text>
</a>
</g>
</g>
<!-- Node11&#45;&gt;Node13 -->
<g id="edge18" class="edge">
<title>Node11&#45;&gt;Node13</title>
<path fill="none" stroke="midnightblue" d="M101.34,-285.98C93.76,-276.96 81.63,-262.52 72.21,-251.31"/>
<polygon fill="midnightblue" stroke="midnightblue" points="74.76,-248.91 65.65,-243.51 69.4,-253.42 74.76,-248.91"/>
</g>
<!-- Node14&#45;&gt;Node2 -->
<g id="edge22" class="edge">
<title>Node14&#45;&gt;Node2</title>
<path fill="none" stroke="midnightblue" d="M382.05,-347.41C366.34,-340.28 346.88,-328.46 337.5,-311 330.98,-298.86 329.12,-290.94 337.5,-280 353.44,-259.2 425.25,-245.85 469.35,-239.45"/>
<polygon fill="midnightblue" stroke="midnightblue" points="469.96,-242.9 479.38,-238.05 468.99,-235.97 469.96,-242.9"/>
</g>
<!-- Node15 -->
<g id="node15" class="node">
<title>Node15</title>
<g id="a_node15"><a xlink:title=" ">
<polygon fill="white" stroke="#bfbfbf" points="424.5,-286 424.5,-305 476.5,-305 476.5,-286 424.5,-286"/>
<text text-anchor="middle" x="450.5" y="-293" font-family="Consolas" font-size="10.00">stdarg.h</text>
</a>
</g>
</g>
<!-- Node14&#45;&gt;Node15 -->
<g id="edge20" class="edge">
<title>Node14&#45;&gt;Node15</title>
<path fill="none" stroke="midnightblue" d="M411.95,-347.48C418.7,-338.55 429.47,-324.31 437.91,-313.14"/>
<polygon fill="midnightblue" stroke="midnightblue" points="440.82,-315.1 444.06,-305.01 435.24,-310.87 440.82,-315.1"/>
</g>
<!-- Node16 -->
<g id="node16" class="node">
<title>Node16</title>
<g id="a_node16"><a xlink:title=" ">
<polygon fill="white" stroke="#bfbfbf" points="347,-286 347,-305 406,-305 406,-286 347,-286"/>
<text text-anchor="middle" x="376.5" y="-293" font-family="Consolas" font-size="10.00">inttypes.h</text>
</a>
</g>
</g>
<!-- Node14&#45;&gt;Node16 -->
<g id="edge21" class="edge">
<title>Node14&#45;&gt;Node16</title>
<path fill="none" stroke="midnightblue" d="M401.35,-347.48C397.12,-338.82 390.46,-325.15 385.1,-314.15"/>
<polygon fill="midnightblue" stroke="midnightblue" points="388.17,-312.46 380.65,-305.01 381.88,-315.53 388.17,-312.46"/>
</g>
<!-- Node17&#45;&gt;Node2 -->
<g id="edge25" class="edge">
<title>Node17&#45;&gt;Node2</title>
<path fill="none" stroke="midnightblue" d="M608.79,-347.31C596.05,-338.88 576.92,-325.3 562.5,-311 543.98,-292.63 526.34,-268.17 515.48,-252.03"/>
<polygon fill="midnightblue" stroke="midnightblue" points="518.34,-250.01 509.91,-243.59 512.5,-253.86 518.34,-250.01"/>
</g>
<!-- Node18 -->
<g id="node18" class="node">
<title>Node18</title>
<g id="a_node18"><a xlink:title=" ">
<polygon fill="white" stroke="#bfbfbf" points="692.5,-286 692.5,-305 736.5,-305 736.5,-286 692.5,-286"/>
<text text-anchor="middle" x="714.5" y="-293" font-family="Consolas" font-size="10.00">fcntl.h</text>
</a>
</g>
</g>
<!-- Node17&#45;&gt;Node18 -->
<g id="edge24" class="edge">
<title>Node17&#45;&gt;Node18</title>
<path fill="none" stroke="midnightblue" d="M635.68,-347.48C650.57,-337.84 675.04,-322.02 692.77,-310.55"/>
<polygon fill="midnightblue" stroke="midnightblue" points="694.85,-313.38 701.34,-305.01 691.05,-307.5 694.85,-313.38"/>
</g>
<!-- Node19 -->
<g id="node19" class="node">
<title>Node19</title>
<g id="a_node19"><a xlink:href="ansi_8h.html" target="_top" xlink:title=" ">
<polygon fill="white" stroke="black" points="695.5,-112.5 695.5,-131.5 785.5,-131.5 785.5,-112.5 695.5,-112.5"/>
<text text-anchor="middle" x="740.5" y="-119.5" font-family="Consolas" font-size="10.00">libccc/sys/ansi.h</text>
</a>
</g>
</g>
<!-- Node17&#45;&gt;Node19 -->
<g id="edge26" class="edge">
<title>Node17&#45;&gt;Node19</title>
<path fill="none" stroke="midnightblue" d="M662.65,-352.97C690.93,-348.49 726.94,-337.56 745.5,-311 781.78,-259.1 760.22,-177.94 747.64,-141.64"/>
<polygon fill="midnightblue" stroke="midnightblue" points="750.8,-140.1 744.09,-131.9 744.22,-142.49 750.8,-140.1"/>
</g>
<!-- Node20 -->
<g id="node20" class="node">
<title>Node20</title>
<g id="a_node20"><a xlink:href="image_2color_8h.html" target="_top" xlink:title=" ">
<polygon fill="white" stroke="black" points="571,-286 571,-305 674,-305 674,-286 571,-286"/>
<text text-anchor="middle" x="622.5" y="-293" font-family="Consolas" font-size="10.00">libccc/image/color.h</text>
</a>
</g>
</g>
<!-- Node17&#45;&gt;Node20 -->
<g id="edge28" class="edge">
<title>Node17&#45;&gt;Node20</title>
<path fill="none" stroke="midnightblue" d="M622.5,-347.48C622.5,-339.08 622.5,-325.98 622.5,-315.16"/>
<polygon fill="midnightblue" stroke="midnightblue" points="626,-315.01 622.5,-305.01 619,-315.01 626,-315.01"/>
</g>
<!-- Node19&#45;&gt;Node3 -->
<g id="edge27" class="edge">
<title>Node19&#45;&gt;Node3</title>
<path fill="none" stroke="midnightblue" d="M711.19,-112.44C679.66,-103.24 629.37,-88.56 594.51,-78.39"/>
<polygon fill="midnightblue" stroke="midnightblue" points="595.26,-74.96 584.68,-75.52 593.3,-81.68 595.26,-74.96"/>
</g>
<!-- Node20&#45;&gt;Node2 -->
<g id="edge29" class="edge">
<title>Node20&#45;&gt;Node2</title>
<path fill="none" stroke="midnightblue" d="M605.59,-285.98C585.97,-276.08 553.37,-259.64 530.51,-248.12"/>
<polygon fill="midnightblue" stroke="midnightblue" points="531.88,-244.89 521.38,-243.51 528.73,-251.14 531.88,-244.89"/>
</g>
</g>
</svg>
