<?xml version="1.0" encoding="UTF-8" standalone="no"?>
<!DOCTYPE svg PUBLIC "-//W3C//DTD SVG 1.1//EN"
 "http://www.w3.org/Graphics/SVG/1.1/DTD/svg11.dtd">
<!-- Generated by graphviz version 2.50.0 (20211204.2007)
 -->
<!-- Title: libccc/error.h Pages: 1 -->
<!--zoomable 420 -->
<svg id="main" version="1.1" xmlns="http://www.w3.org/2000/svg" xmlns:xlink="http://www.w3.org/1999/xlink" xml:space="preserve" onload="init(evt)">
<style type="text/css"><![CDATA[
.edge:hover path { stroke: red; }
.edge:hover polygon { stroke: red; fill: red; }
]]></style>
<script type="text/javascript"><![CDATA[
var edges = document.getElementsByTagName('g');
if (edges && edges.length) {
  for (var i=0;i<edges.length;i++) {
    if (edges[i].id.substr(0,4)=='edge') {
      edges[i].setAttribute('class','edge');
    }
  }
}
]]></script>
        <defs>
                <circle id="rim" cx="0" cy="0" r="7"/>
                <circle id="rim2" cx="0" cy="0" r="3.5"/>
                <g id="zoomPlus">
                        <use xlink:href="#rim" fill="#404040">
                                <set attributeName="fill" to="#808080" begin="zoomplus.mouseover" end="zoomplus.mouseout"/>
                        </use>
                        <path d="M-4,0h8M0,-4v8" fill="none" stroke="white" stroke-width="1.5" pointer-events="none"/>
                </g>
                <g id="zoomMin">
                        <use xlink:href="#rim" fill="#404040">
                                <set attributeName="fill" to="#808080" begin="zoomminus.mouseover" end="zoomminus.mouseout"/>
                        </use>
                        <path d="M-4,0h8" fill="none" stroke="white" stroke-width="1.5" pointer-events="none"/>
                </g>
                <g id="dirArrow">
                        <path fill="none" stroke="white" stroke-width="1.5" d="M0,-3.0v7 M-2.5,-0.5L0,-3.0L2.5,-0.5"/>
                </g>
               <g id="resetDef">
                       <use xlink:href="#rim2" fill="#404040">
                               <set attributeName="fill" to="#808080" begin="reset.mouseover" end="reset.mouseout"/>
                       </use>
               </g>
        </defs>

<script type="text/javascript">
var viewWidth = 503;
var viewHeight = 420;
var sectionId = 'dynsection-0';
</script>
<script xlink:href="svgpan.js"/>
<svg id="graph" class="graph">
<g id="viewport">
<title>libccc/error.h</title>
<polygon fill="white" stroke="transparent" points="-4,4 -4,-416 499,-416 499,4 -4,4"/>
<!-- Node1 -->
<g id="node1" class="node">
<title>Node1</title>
<g id="a_node1"><a xlink:title=" ">
<polygon fill="#bfbfbf" stroke="black" points="123,-392.5 123,-411.5 195,-411.5 195,-392.5 123,-392.5"/>
<text text-anchor="middle" x="159" y="-399.5" font-family="Consolas" font-size="10.00">libccc/error.h</text>
</a>
</g>
</g>
<!-- Node2 -->
<g id="node2" class="node">
<title>Node2</title>
<g id="a_node2"><a xlink:href="libccc_8h.html" target="_top" xlink:title=" ">
<polygon fill="white" stroke="black" points="171,-224.5 171,-243.5 221,-243.5 221,-224.5 171,-224.5"/>
<text text-anchor="middle" x="196" y="-231.5" font-family="Consolas" font-size="10.00">libccc.h</text>
</a>
</g>
</g>
<!-- Node1&#45;&gt;Node2 -->
<g id="edge1" class="edge">
<title>Node1&#45;&gt;Node2</title>
<path fill="none" stroke="midnightblue" d="M162.24,-392.48C165.56,-383.51 170.69,-368.92 174,-356 183.15,-320.27 189.97,-277.67 193.44,-253.74"/>
<polygon fill="midnightblue" stroke="midnightblue" points="196.94,-253.99 194.86,-243.6 190,-253.01 196.94,-253.99"/>
</g>
<!-- Node8 -->
<g id="node8" class="node">
<title>Node8</title>
<g id="a_node8"><a xlink:href="string_8h.html" target="_top" xlink:title=" ">
<polygon fill="white" stroke="black" points="87.5,-336.5 87.5,-355.5 164.5,-355.5 164.5,-336.5 87.5,-336.5"/>
<text text-anchor="middle" x="126" y="-343.5" font-family="Consolas" font-size="10.00">libccc/string.h</text>
</a>
</g>
</g>
<!-- Node1&#45;&gt;Node8 -->
<g id="edge11" class="edge">
<title>Node1&#45;&gt;Node8</title>
<path fill="none" stroke="midnightblue" d="M153.55,-392.08C148.99,-384.61 142.33,-373.72 136.71,-364.52"/>
<polygon fill="midnightblue" stroke="midnightblue" points="139.55,-362.46 131.35,-355.75 133.58,-366.11 139.55,-362.46"/>
</g>
<!-- Node9 -->
<g id="node9" class="node">
<title>Node9</title>
<g id="a_node9"><a xlink:href="format_8h.html" target="_top" xlink:title=" ">
<polygon fill="white" stroke="black" points="45.5,-280.5 45.5,-299.5 126.5,-299.5 126.5,-280.5 45.5,-280.5"/>
<text text-anchor="middle" x="86" y="-287.5" font-family="Consolas" font-size="10.00">libccc/format.h</text>
</a>
</g>
</g>
<!-- Node1&#45;&gt;Node9 -->
<g id="edge17" class="edge">
<title>Node1&#45;&gt;Node9</title>
<path fill="none" stroke="midnightblue" d="M127.98,-392.44C109.97,-385.69 88.77,-374.3 78,-356 69.64,-341.79 73.32,-322.82 78.08,-309.04"/>
<polygon fill="midnightblue" stroke="midnightblue" points="81.36,-310.27 81.75,-299.68 74.84,-307.71 81.36,-310.27"/>
</g>
<!-- Node12 -->
<g id="node12" class="node">
<title>Node12</title>
<g id="a_node12"><a xlink:href="io_8h.html" target="_top" xlink:title=" ">
<polygon fill="white" stroke="black" points="313,-336.5 313,-355.5 393,-355.5 393,-336.5 313,-336.5"/>
<text text-anchor="middle" x="353" y="-343.5" font-family="Consolas" font-size="10.00">libccc/sys/io.h</text>
</a>
</g>
</g>
<!-- Node1&#45;&gt;Node12 -->
<g id="edge18" class="edge">
<title>Node1&#45;&gt;Node12</title>
<path fill="none" stroke="midnightblue" d="M189.74,-392.44C222.94,-383.2 275.99,-368.44 312.56,-358.26"/>
<polygon fill="midnightblue" stroke="midnightblue" points="313.71,-361.57 322.4,-355.52 311.83,-354.83 313.71,-361.57"/>
</g>
<!-- Node3 -->
<g id="node3" class="node">
<title>Node3</title>
<g id="a_node3"><a xlink:href="libccc__define_8h.html" target="_top" xlink:title=" ">
<polygon fill="white" stroke="black" points="259,-56.5 259,-75.5 341,-75.5 341,-56.5 259,-56.5"/>
<text text-anchor="middle" x="300" y="-63.5" font-family="Consolas" font-size="10.00">libccc_define.h</text>
</a>
</g>
</g>
<!-- Node2&#45;&gt;Node3 -->
<g id="edge2" class="edge">
<title>Node2&#45;&gt;Node3</title>
<path fill="none" stroke="midnightblue" d="M221.08,-229.45C261.03,-223.21 336.24,-208.95 352,-188 377.07,-154.68 340.03,-107.42 316.65,-83"/>
<polygon fill="midnightblue" stroke="midnightblue" points="318.88,-80.28 309.35,-75.64 313.91,-85.21 318.88,-80.28"/>
</g>
<!-- Node5 -->
<g id="node5" class="node">
<title>Node5</title>
<g id="a_node5"><a xlink:href="libccc__errors_8h.html" target="_top" xlink:title=" ">
<polygon fill="white" stroke="black" points="154,-112.5 154,-131.5 234,-131.5 234,-112.5 154,-112.5"/>
<text text-anchor="middle" x="194" y="-119.5" font-family="Consolas" font-size="10.00">libccc_errors.h</text>
</a>
</g>
</g>
<!-- Node2&#45;&gt;Node5 -->
<g id="edge4" class="edge">
<title>Node2&#45;&gt;Node5</title>
<path fill="none" stroke="midnightblue" d="M181.05,-224.47C169.07,-216.7 153.13,-204 146,-188 137.49,-168.9 155.16,-150.01 171.4,-137.56"/>
<polygon fill="midnightblue" stroke="midnightblue" points="173.54,-140.34 179.63,-131.67 169.46,-134.65 173.54,-140.34"/>
</g>
<!-- Node6 -->
<g id="node6" class="node">
<title>Node6</title>
<g id="a_node6"><a xlink:href="libccc__config_8h.html" target="_top" xlink:title=" ">
<polygon fill="white" stroke="black" points="155,-168.5 155,-187.5 237,-187.5 237,-168.5 155,-168.5"/>
<text text-anchor="middle" x="196" y="-175.5" font-family="Consolas" font-size="10.00">libccc_config.h</text>
</a>
</g>
</g>
<!-- Node2&#45;&gt;Node6 -->
<g id="edge6" class="edge">
<title>Node2&#45;&gt;Node6</title>
<path fill="none" stroke="midnightblue" d="M196,-224.08C196,-217.01 196,-206.86 196,-197.99"/>
<polygon fill="midnightblue" stroke="midnightblue" points="199.5,-197.75 196,-187.75 192.5,-197.75 199.5,-197.75"/>
</g>
<!-- Node7 -->
<g id="node7" class="node">
<title>Node7</title>
<g id="a_node7"><a xlink:href="libccc__naming_8h.html" target="_top" xlink:title=" ">
<polygon fill="white" stroke="black" points="255.5,-168.5 255.5,-187.5 342.5,-187.5 342.5,-168.5 255.5,-168.5"/>
<text text-anchor="middle" x="299" y="-175.5" font-family="Consolas" font-size="10.00">libccc_naming.h</text>
</a>
</g>
</g>
<!-- Node2&#45;&gt;Node7 -->
<g id="edge9" class="edge">
<title>Node2&#45;&gt;Node7</title>
<path fill="none" stroke="midnightblue" d="M212.55,-224.32C228.99,-215.7 254.43,-202.36 273.47,-192.39"/>
<polygon fill="midnightblue" stroke="midnightblue" points="275.26,-195.4 282.49,-187.65 272.01,-189.2 275.26,-195.4"/>
</g>
<!-- Node4 -->
<g id="node4" class="node">
<title>Node4</title>
<g id="a_node4"><a xlink:title=" ">
<polygon fill="white" stroke="#bfbfbf" points="270.5,-0.5 270.5,-19.5 329.5,-19.5 329.5,-0.5 270.5,-0.5"/>
<text text-anchor="middle" x="300" y="-7.5" font-family="Consolas" font-size="10.00">stdalign.h</text>
</a>
</g>
</g>
<!-- Node3&#45;&gt;Node4 -->
<g id="edge3" class="edge">
<title>Node3&#45;&gt;Node4</title>
<path fill="none" stroke="midnightblue" d="M300,-56.08C300,-49.01 300,-38.86 300,-29.99"/>
<polygon fill="midnightblue" stroke="midnightblue" points="303.5,-29.75 300,-19.75 296.5,-29.75 303.5,-29.75"/>
</g>
<!-- Node5&#45;&gt;Node3 -->
<g id="edge5" class="edge">
<title>Node5&#45;&gt;Node3</title>
<path fill="none" stroke="midnightblue" d="M211.03,-112.32C228.03,-103.66 254.38,-90.24 273.99,-80.25"/>
<polygon fill="midnightblue" stroke="midnightblue" points="275.69,-83.31 283.01,-75.65 272.51,-77.08 275.69,-83.31"/>
</g>
<!-- Node6&#45;&gt;Node3 -->
<g id="edge7" class="edge">
<title>Node6&#45;&gt;Node3</title>
<path fill="none" stroke="midnightblue" d="M205.6,-168.27C215.27,-159.37 230.5,-145.06 243,-132 258.32,-115.99 274.93,-96.82 286.25,-83.47"/>
<polygon fill="midnightblue" stroke="midnightblue" points="289.09,-85.53 292.85,-75.62 283.73,-81.02 289.09,-85.53"/>
</g>
<!-- Node6&#45;&gt;Node5 -->
<g id="edge8" class="edge">
<title>Node6&#45;&gt;Node5</title>
<path fill="none" stroke="midnightblue" d="M195.67,-168.08C195.41,-161.01 195.03,-150.86 194.7,-141.99"/>
<polygon fill="midnightblue" stroke="midnightblue" points="198.19,-141.61 194.32,-131.75 191.2,-141.87 198.19,-141.61"/>
</g>
<!-- Node7&#45;&gt;Node3 -->
<g id="edge10" class="edge">
<title>Node7&#45;&gt;Node3</title>
<path fill="none" stroke="midnightblue" d="M299.08,-168.37C299.24,-150.62 299.61,-109.67 299.83,-85.6"/>
<polygon fill="midnightblue" stroke="midnightblue" points="303.33,-85.62 299.92,-75.59 296.33,-85.56 303.33,-85.62"/>
</g>
<!-- Node8&#45;&gt;Node2 -->
<g id="edge12" class="edge">
<title>Node8&#45;&gt;Node2</title>
<path fill="none" stroke="midnightblue" d="M131.49,-336.37C142.99,-318.3 169.8,-276.18 184.99,-252.31"/>
<polygon fill="midnightblue" stroke="midnightblue" points="188.12,-253.91 190.53,-243.59 182.21,-250.15 188.12,-253.91"/>
</g>
<!-- Node8&#45;&gt;Node9 -->
<g id="edge13" class="edge">
<title>Node8&#45;&gt;Node9</title>
<path fill="none" stroke="midnightblue" d="M119.39,-336.08C113.74,-328.46 105.46,-317.26 98.55,-307.94"/>
<polygon fill="midnightblue" stroke="midnightblue" points="101.25,-305.7 92.48,-299.75 95.62,-309.87 101.25,-305.7"/>
</g>
<!-- Node9&#45;&gt;Node2 -->
<g id="edge16" class="edge">
<title>Node9&#45;&gt;Node2</title>
<path fill="none" stroke="midnightblue" d="M103.67,-280.32C121.39,-271.62 148.9,-258.12 169.29,-248.11"/>
<polygon fill="midnightblue" stroke="midnightblue" points="170.94,-251.2 178.37,-243.65 167.85,-244.92 170.94,-251.2"/>
</g>
<!-- Node10 -->
<g id="node10" class="node">
<title>Node10</title>
<g id="a_node10"><a xlink:title=" ">
<polygon fill="white" stroke="#bfbfbf" points="0,-224.5 0,-243.5 52,-243.5 52,-224.5 0,-224.5"/>
<text text-anchor="middle" x="26" y="-231.5" font-family="Consolas" font-size="10.00">stdarg.h</text>
</a>
</g>
</g>
<!-- Node9&#45;&gt;Node10 -->
<g id="edge14" class="edge">
<title>Node9&#45;&gt;Node10</title>
<path fill="none" stroke="midnightblue" d="M76.36,-280.32C67.49,-272.34 54.13,-260.31 43.39,-250.65"/>
<polygon fill="midnightblue" stroke="midnightblue" points="45.59,-247.92 35.82,-243.83 40.91,-253.13 45.59,-247.92"/>
</g>
<!-- Node11 -->
<g id="node11" class="node">
<title>Node11</title>
<g id="a_node11"><a xlink:title=" ">
<polygon fill="white" stroke="#bfbfbf" points="70.5,-224.5 70.5,-243.5 129.5,-243.5 129.5,-224.5 70.5,-224.5"/>
<text text-anchor="middle" x="100" y="-231.5" font-family="Consolas" font-size="10.00">inttypes.h</text>
</a>
</g>
</g>
<!-- Node9&#45;&gt;Node11 -->
<g id="edge15" class="edge">
<title>Node9&#45;&gt;Node11</title>
<path fill="none" stroke="midnightblue" d="M88.31,-280.08C90.17,-272.93 92.84,-262.64 95.15,-253.69"/>
<polygon fill="midnightblue" stroke="midnightblue" points="98.61,-254.31 97.73,-243.75 91.83,-252.55 98.61,-254.31"/>
</g>
<!-- Node12&#45;&gt;Node2 -->
<g id="edge20" class="edge">
<title>Node12&#45;&gt;Node2</title>
<path fill="none" stroke="midnightblue" d="M352.91,-336.15C352.29,-322.32 349.06,-295.53 334,-280 306.89,-252.04 262.23,-241.44 231.08,-237.43"/>
<polygon fill="midnightblue" stroke="midnightblue" points="231.41,-233.94 221.08,-236.3 230.62,-240.9 231.41,-233.94"/>
</g>
<!-- Node13 -->
<g id="node13" class="node">
<title>Node13</title>
<g id="a_node13"><a xlink:title=" ">
<polygon fill="white" stroke="#bfbfbf" points="381,-280.5 381,-299.5 425,-299.5 425,-280.5 381,-280.5"/>
<text text-anchor="middle" x="403" y="-287.5" font-family="Consolas" font-size="10.00">fcntl.h</text>
</a>
</g>
</g>
<!-- Node12&#45;&gt;Node13 -->
<g id="edge19" class="edge">
<title>Node12&#45;&gt;Node13</title>
<path fill="none" stroke="midnightblue" d="M361.26,-336.08C368.46,-328.3 379.11,-316.8 387.85,-307.37"/>
<polygon fill="midnightblue" stroke="midnightblue" points="390.67,-309.47 394.9,-299.75 385.53,-304.71 390.67,-309.47"/>
</g>
<!-- Node14 -->
<g id="node14" class="node">
<title>Node14</title>
<g id="a_node14"><a xlink:href="ansi_8h.html" target="_top" xlink:title=" ">
<polygon fill="white" stroke="black" points="405,-112.5 405,-131.5 495,-131.5 495,-112.5 405,-112.5"/>
<text text-anchor="middle" x="450" y="-119.5" font-family="Consolas" font-size="10.00">libccc/sys/ansi.h</text>
</a>
</g>
</g>
<!-- Node12&#45;&gt;Node14 -->
<g id="edge21" class="edge">
<title>Node12&#45;&gt;Node14</title>
<path fill="none" stroke="midnightblue" d="M382.64,-336.39C400.6,-329.55 422.24,-318.07 434,-300 466.21,-250.51 459.2,-176.1 453.61,-141.69"/>
<polygon fill="midnightblue" stroke="midnightblue" points="457.02,-140.88 451.83,-131.64 450.13,-142.1 457.02,-140.88"/>
</g>
<!-- Node15 -->
<g id="node15" class="node">
<title>Node15</title>
<g id="a_node15"><a xlink:href="image_2color_8h.html" target="_top" xlink:title=" ">
<polygon fill="white" stroke="black" points="221.5,-280.5 221.5,-299.5 324.5,-299.5 324.5,-280.5 221.5,-280.5"/>
<text text-anchor="middle" x="273" y="-287.5" font-family="Consolas" font-size="10.00">libccc/image/color.h</text>
</a>
</g>
</g>
<!-- Node12&#45;&gt;Node15 -->
<g id="edge23" class="edge">
<title>Node12&#45;&gt;Node15</title>
<path fill="none" stroke="midnightblue" d="M340.15,-336.32C327.78,-327.98 308.87,-315.21 294.26,-305.35"/>
<polygon fill="midnightblue" stroke="midnightblue" points="296.07,-302.35 285.82,-299.65 292.15,-308.15 296.07,-302.35"/>
</g>
<!-- Node14&#45;&gt;Node3 -->
<g id="edge22" class="edge">
<title>Node14&#45;&gt;Node3</title>
<path fill="none" stroke="midnightblue" d="M426.23,-112.44C401.11,-103.4 361.29,-89.06 333.1,-78.92"/>
<polygon fill="midnightblue" stroke="midnightblue" points="334.25,-75.61 323.66,-75.52 331.88,-82.2 334.25,-75.61"/>
</g>
<!-- Node15&#45;&gt;Node2 -->
<g id="edge24" class="edge">
<title>Node15&#45;&gt;Node2</title>
<path fill="none" stroke="midnightblue" d="M260.63,-280.32C248.84,-272.06 230.87,-259.45 216.86,-249.63"/>
<polygon fill="midnightblue" stroke="midnightblue" points="218.54,-246.53 208.34,-243.65 214.52,-252.26 218.54,-246.53"/>
</g>
</g>
</svg>
        <g id="navigator" transform="translate(0 0)" fill="#404254">
                <rect fill="#f2f5e9" fill-opacity="0.5" stroke="#606060" stroke-width=".5" x="0" y="0" width="60" height="60"/>
                <use id="zoomplus" xlink:href="#zoomPlus" x="17" y="9" onmousedown="handleZoom(evt,'in')"/>
                <use id="zoomminus" xlink:href="#zoomMin" x="42" y="9" onmousedown="handleZoom(evt,'out')"/>
                <use id="reset" xlink:href="#resetDef" x="30" y="36" onmousedown="handleReset()"/>
                <g id="arrowUp" xlink:href="#dirArrow" transform="translate(30 24)" onmousedown="handlePan(0,-1)">
                  <use xlink:href="#rim" fill="#404040">
                        <set attributeName="fill" to="#808080" begin="arrowUp.mouseover" end="arrowUp.mouseout"/>
                  </use>
                  <path fill="none" stroke="white" stroke-width="1.5" d="M0,-3.0v7 M-2.5,-0.5L0,-3.0L2.5,-0.5"/>
                </g>
                <g id="arrowRight" xlink:href="#dirArrow" transform="rotate(90) translate(36 -43)" onmousedown="handlePan(1,0)">
                  <use xlink:href="#rim" fill="#404040">
                        <set attributeName="fill" to="#808080" begin="arrowRight.mouseover" end="arrowRight.mouseout"/>
                  </use>
                  <path fill="none" stroke="white" stroke-width="1.5" d="M0,-3.0v7 M-2.5,-0.5L0,-3.0L2.5,-0.5"/>
                </g>
                <g id="arrowDown" xlink:href="#dirArrow" transform="rotate(180) translate(-30 -48)" onmousedown="handlePan(0,1)">
                  <use xlink:href="#rim" fill="#404040">
                        <set attributeName="fill" to="#808080" begin="arrowDown.mouseover" end="arrowDown.mouseout"/>
                  </use>
                  <path fill="none" stroke="white" stroke-width="1.5" d="M0,-3.0v7 M-2.5,-0.5L0,-3.0L2.5,-0.5"/>
                </g>
                <g id="arrowLeft" xlink:href="#dirArrow" transform="rotate(270) translate(-36 17)" onmousedown="handlePan(-1,0)">
                  <use xlink:href="#rim" fill="#404040">
                        <set attributeName="fill" to="#808080" begin="arrowLeft.mouseover" end="arrowLeft.mouseout"/>
                  </use>
                  <path fill="none" stroke="white" stroke-width="1.5" d="M0,-3.0v7 M-2.5,-0.5L0,-3.0L2.5,-0.5"/>
                </g>
        </g>
        <svg viewBox="0 0 15 15" width="100%" height="30px" preserveAspectRatio="xMaxYMin meet">
         <g id="arrow_out" transform="scale(0.3 0.3)">
          <a xlink:href="error_8h__incl_org.svg" target="_base">
           <rect id="button" ry="5" rx="5" y="6" x="6" height="38" width="38"
                fill="#f2f5e9" fill-opacity="0.5" stroke="#606060" stroke-width="1.0"/>
           <path id="arrow"
             d="M 11.500037,31.436501 C 11.940474,20.09759 22.043105,11.32322 32.158766,21.979434 L 37.068811,17.246167 C 37.068811,17.246167 37.088388,32 37.088388,32 L 22.160133,31.978069 C 22.160133,31.978069 26.997745,27.140456 26.997745,27.140456 C 18.528582,18.264221 13.291696,25.230495 11.500037,31.436501 z"
             style="fill:#404040;"/>
          </a>
         </g>
        </svg>
</svg>
