<?xml version="1.0" encoding="UTF-8" standalone="no"?>
<!DOCTYPE svg PUBLIC "-//W3C//DTD SVG 1.1//EN"
 "http://www.w3.org/Graphics/SVG/1.1/DTD/svg11.dtd">
<!-- Generated by graphviz version 2.49.3 (20211023.0002)
 -->
<!-- Title: hdr/libccc/error.h Pages: 1 -->
<svg width="794pt" height="420pt"
 viewBox="0.00 0.00 794.00 420.00" xmlns="http://www.w3.org/2000/svg" xmlns:xlink="http://www.w3.org/1999/xlink">
<g id="graph0" class="graph" transform="scale(1 1) rotate(0) translate(4 416)">
<title>hdr/libccc/error.h</title>
<polygon fill="white" stroke="transparent" points="-4,4 -4,-416 790,-416 790,4 -4,4"/>
<!-- Node1 -->
<g id="node1" class="node">
<title>Node1</title>
<g id="a_node1"><a xlink:title=" ">
<polygon fill="#bfbfbf" stroke="black" points="371.5,-392.5 371.5,-411.5 460.5,-411.5 460.5,-392.5 371.5,-392.5"/>
<text text-anchor="middle" x="416" y="-399.5" font-family="Consolas" font-size="10.00">hdr/libccc/error.h</text>
</a>
</g>
</g>
<!-- Node2 -->
<g id="node2" class="node">
<title>Node2</title>
<g id="a_node2"><a xlink:href="libccc_8h.html" target="_top" xlink:title=" ">
<polygon fill="white" stroke="black" points="406,-224.5 406,-243.5 456,-243.5 456,-224.5 406,-224.5"/>
<text text-anchor="middle" x="431" y="-231.5" font-family="Consolas" font-size="10.00">libccc.h</text>
</a>
</g>
</g>
<!-- Node1&#45;&gt;Node2 -->
<g id="edge1" class="edge">
<title>Node1&#45;&gt;Node2</title>
<path fill="none" stroke="midnightblue" d="M419.86,-392.25C423.56,-383.33 428.89,-369.01 431,-356 436.81,-320.18 434.78,-277.61 432.84,-253.71"/>
<polygon fill="midnightblue" stroke="midnightblue" points="436.32,-253.23 431.94,-243.58 429.34,-253.86 436.32,-253.23"/>
</g>
<!-- Node18 -->
<g id="node18" class="node">
<title>Node18</title>
<g id="a_node18"><a xlink:href="string_8h.html" target="_top" xlink:title=" ">
<polygon fill="white" stroke="black" points="344.5,-336.5 344.5,-355.5 421.5,-355.5 421.5,-336.5 344.5,-336.5"/>
<text text-anchor="middle" x="383" y="-343.5" font-family="Consolas" font-size="10.00">libccc/string.h</text>
</a>
</g>
</g>
<!-- Node1&#45;&gt;Node18 -->
<g id="edge29" class="edge">
<title>Node1&#45;&gt;Node18</title>
<path fill="none" stroke="midnightblue" d="M410.55,-392.08C405.99,-384.61 399.33,-373.72 393.71,-364.52"/>
<polygon fill="midnightblue" stroke="midnightblue" points="396.55,-362.46 388.35,-355.75 390.58,-366.11 396.55,-362.46"/>
</g>
<!-- Node19 -->
<g id="node19" class="node">
<title>Node19</title>
<g id="a_node19"><a xlink:href="format_8h.html" target="_top" xlink:title=" ">
<polygon fill="white" stroke="black" points="302.5,-280.5 302.5,-299.5 383.5,-299.5 383.5,-280.5 302.5,-280.5"/>
<text text-anchor="middle" x="343" y="-287.5" font-family="Consolas" font-size="10.00">libccc/format.h</text>
</a>
</g>
</g>
<!-- Node1&#45;&gt;Node19 -->
<g id="edge34" class="edge">
<title>Node1&#45;&gt;Node19</title>
<path fill="none" stroke="midnightblue" d="M384.98,-392.44C366.97,-385.69 345.77,-374.3 335,-356 326.64,-341.79 330.32,-322.82 335.08,-309.04"/>
<polygon fill="midnightblue" stroke="midnightblue" points="338.36,-310.27 338.75,-299.68 331.84,-307.71 338.36,-310.27"/>
</g>
<!-- Node21 -->
<g id="node21" class="node">
<title>Node21</title>
<g id="a_node21"><a xlink:href="io_8h.html" target="_top" xlink:title=" ">
<polygon fill="white" stroke="black" points="540,-336.5 540,-355.5 620,-355.5 620,-336.5 540,-336.5"/>
<text text-anchor="middle" x="580" y="-343.5" font-family="Consolas" font-size="10.00">libccc/sys/io.h</text>
</a>
</g>
</g>
<!-- Node1&#45;&gt;Node21 -->
<g id="edge35" class="edge">
<title>Node1&#45;&gt;Node21</title>
<path fill="none" stroke="midnightblue" d="M441.99,-392.44C469.7,-383.32 513.75,-368.81 544.62,-358.65"/>
<polygon fill="midnightblue" stroke="midnightblue" points="545.73,-361.97 554.14,-355.52 543.54,-355.32 545.73,-361.97"/>
</g>
<!-- Node3 -->
<g id="node3" class="node">
<title>Node3</title>
<g id="a_node3"><a xlink:href="libccc__define_8h.html" target="_top" xlink:title=" ">
<polygon fill="white" stroke="black" points="611,-56.5 611,-75.5 693,-75.5 693,-56.5 611,-56.5"/>
<text text-anchor="middle" x="652" y="-63.5" font-family="Consolas" font-size="10.00">libccc_define.h</text>
</a>
</g>
</g>
<!-- Node2&#45;&gt;Node3 -->
<g id="edge2" class="edge">
<title>Node2&#45;&gt;Node3</title>
<path fill="none" stroke="midnightblue" d="M456.11,-231.58C512.81,-227.91 648.46,-216.31 683,-188 710.2,-165.71 719.77,-143.91 705,-112 699.08,-99.21 687.53,-88.72 676.72,-81.1"/>
<polygon fill="midnightblue" stroke="midnightblue" points="678.62,-78.16 668.33,-75.61 674.79,-84.02 678.62,-78.16"/>
</g>
<!-- Node5 -->
<g id="node5" class="node">
<title>Node5</title>
<g id="a_node5"><a xlink:href="libccc__errors_8h.html" target="_top" xlink:title=" ">
<polygon fill="white" stroke="black" points="0,-112.5 0,-131.5 80,-131.5 80,-112.5 0,-112.5"/>
<text text-anchor="middle" x="40" y="-119.5" font-family="Consolas" font-size="10.00">libccc_errors.h</text>
</a>
</g>
</g>
<!-- Node2&#45;&gt;Node5 -->
<g id="edge4" class="edge">
<title>Node2&#45;&gt;Node5</title>
<path fill="none" stroke="midnightblue" d="M405.98,-228.4C397.16,-226.87 387.16,-225.24 378,-224 338.82,-218.69 50.5,-217.34 24,-188 12.24,-174.98 19.91,-154.72 28.19,-140.28"/>
<polygon fill="midnightblue" stroke="midnightblue" points="31.18,-142.1 33.51,-131.77 25.24,-138.39 31.18,-142.1"/>
</g>
<!-- Node6 -->
<g id="node6" class="node">
<title>Node6</title>
<g id="a_node6"><a xlink:href="libccc__config_8h.html" target="_top" xlink:title=" ">
<polygon fill="white" stroke="black" points="33,-168.5 33,-187.5 115,-187.5 115,-168.5 33,-168.5"/>
<text text-anchor="middle" x="74" y="-175.5" font-family="Consolas" font-size="10.00">libccc_config.h</text>
</a>
</g>
</g>
<!-- Node2&#45;&gt;Node6 -->
<g id="edge6" class="edge">
<title>Node2&#45;&gt;Node6</title>
<path fill="none" stroke="midnightblue" d="M405.95,-228.6C397.12,-227.09 387.13,-225.42 378,-224 268.53,-206.95 238.27,-206.14 125.27,-188.15"/>
<polygon fill="midnightblue" stroke="midnightblue" points="125.61,-184.66 115.18,-186.54 124.5,-191.58 125.61,-184.66"/>
</g>
<!-- Node7 -->
<g id="node7" class="node">
<title>Node7</title>
<g id="a_node7"><a xlink:href="libccc__naming_8h.html" target="_top" xlink:title=" ">
<polygon fill="white" stroke="black" points="608.5,-112.5 608.5,-131.5 695.5,-131.5 695.5,-112.5 608.5,-112.5"/>
<text text-anchor="middle" x="652" y="-119.5" font-family="Consolas" font-size="10.00">libccc_naming.h</text>
</a>
</g>
</g>
<!-- Node2&#45;&gt;Node7 -->
<g id="edge9" class="edge">
<title>Node2&#45;&gt;Node7</title>
<path fill="none" stroke="midnightblue" d="M456.12,-232.1C511.32,-229.53 640.41,-220.14 667,-188 678.04,-174.66 671.07,-154.73 663.36,-140.46"/>
<polygon fill="midnightblue" stroke="midnightblue" points="666.23,-138.45 658.12,-131.64 660.21,-142.02 666.23,-138.45"/>
</g>
<!-- Node8 -->
<g id="node8" class="node">
<title>Node8</title>
<g id="a_node8"><a xlink:href="bool_8h.html" target="_top" xlink:title=" ">
<polygon fill="white" stroke="black" points="133.5,-168.5 133.5,-187.5 204.5,-187.5 204.5,-168.5 133.5,-168.5"/>
<text text-anchor="middle" x="169" y="-175.5" font-family="Consolas" font-size="10.00">libccc/bool.h</text>
</a>
</g>
</g>
<!-- Node2&#45;&gt;Node8 -->
<g id="edge11" class="edge">
<title>Node2&#45;&gt;Node8</title>
<path fill="none" stroke="midnightblue" d="M405.65,-228.58C361.42,-220.12 270.09,-201.4 214.65,-189.54"/>
<polygon fill="midnightblue" stroke="midnightblue" points="215.25,-186.09 204.74,-187.41 213.78,-192.93 215.25,-186.09"/>
</g>
<!-- Node9 -->
<g id="node9" class="node">
<title>Node9</title>
<g id="a_node9"><a xlink:href="char_8h.html" target="_top" xlink:title=" ">
<polygon fill="white" stroke="black" points="222.5,-168.5 222.5,-187.5 293.5,-187.5 293.5,-168.5 222.5,-168.5"/>
<text text-anchor="middle" x="258" y="-175.5" font-family="Consolas" font-size="10.00">libccc/char.h</text>
</a>
</g>
</g>
<!-- Node2&#45;&gt;Node9 -->
<g id="edge13" class="edge">
<title>Node2&#45;&gt;Node9</title>
<path fill="none" stroke="midnightblue" d="M405.92,-226.59C375.21,-217.78 323.53,-201.77 290.01,-190.77"/>
<polygon fill="midnightblue" stroke="midnightblue" points="290.83,-187.35 280.24,-187.53 288.63,-194 290.83,-187.35"/>
</g>
<!-- Node13 -->
<g id="node13" class="node">
<title>Node13</title>
<g id="a_node13"><a xlink:href="int_8h.html" target="_top" xlink:title=" ">
<polygon fill="white" stroke="black" points="312,-168.5 312,-187.5 376,-187.5 376,-168.5 312,-168.5"/>
<text text-anchor="middle" x="344" y="-175.5" font-family="Consolas" font-size="10.00">libccc/int.h</text>
</a>
</g>
</g>
<!-- Node2&#45;&gt;Node13 -->
<g id="edge18" class="edge">
<title>Node2&#45;&gt;Node13</title>
<path fill="none" stroke="midnightblue" d="M411.91,-224.32C396.75,-216.03 376.02,-203.36 361.34,-193.53"/>
<polygon fill="midnightblue" stroke="midnightblue" points="363.3,-190.63 353.08,-187.83 359.33,-196.39 363.3,-190.63"/>
</g>
<!-- Node14 -->
<g id="node14" class="node">
<title>Node14</title>
<g id="a_node14"><a xlink:href="fixed_8h.html" target="_top" xlink:title=" ">
<polygon fill="white" stroke="black" points="394,-168.5 394,-187.5 468,-187.5 468,-168.5 394,-168.5"/>
<text text-anchor="middle" x="431" y="-175.5" font-family="Consolas" font-size="10.00">libccc/fixed.h</text>
</a>
</g>
</g>
<!-- Node2&#45;&gt;Node14 -->
<g id="edge21" class="edge">
<title>Node2&#45;&gt;Node14</title>
<path fill="none" stroke="midnightblue" d="M425.83,-224.08C424.32,-216.93 423.89,-206.64 424.54,-197.69"/>
<polygon fill="midnightblue" stroke="midnightblue" points="428.02,-198.13 425.87,-187.75 421.08,-197.2 428.02,-198.13"/>
</g>
<!-- Node15 -->
<g id="node15" class="node">
<title>Node15</title>
<g id="a_node15"><a xlink:href="float_8h.html" target="_top" xlink:title=" ">
<polygon fill="white" stroke="black" points="486,-168.5 486,-187.5 558,-187.5 558,-168.5 486,-168.5"/>
<text text-anchor="middle" x="522" y="-175.5" font-family="Consolas" font-size="10.00">libccc/float.h</text>
</a>
</g>
</g>
<!-- Node2&#45;&gt;Node15 -->
<g id="edge23" class="edge">
<title>Node2&#45;&gt;Node15</title>
<path fill="none" stroke="midnightblue" d="M440.51,-224.32C453.11,-215.74 475.17,-202.49 493.27,-192.52"/>
<polygon fill="midnightblue" stroke="midnightblue" points="495.16,-195.48 502.31,-187.65 491.84,-189.32 495.16,-195.48"/>
</g>
<!-- Node16 -->
<g id="node16" class="node">
<title>Node16</title>
<g id="a_node16"><a xlink:href="pointer_8h.html" target="_top" xlink:title=" ">
<polygon fill="white" stroke="black" points="576,-168.5 576,-187.5 658,-187.5 658,-168.5 576,-168.5"/>
<text text-anchor="middle" x="617" y="-175.5" font-family="Consolas" font-size="10.00">libccc/pointer.h</text>
</a>
</g>
</g>
<!-- Node2&#45;&gt;Node16 -->
<g id="edge25" class="edge">
<title>Node2&#45;&gt;Node16</title>
<path fill="none" stroke="midnightblue" d="M455.38,-224.44C485.19,-215.2 535.88,-200.44 572.62,-190.26"/>
<polygon fill="midnightblue" stroke="midnightblue" points="573.87,-193.54 582.59,-187.52 572.02,-186.79 573.87,-193.54"/>
</g>
<!-- Node4 -->
<g id="node4" class="node">
<title>Node4</title>
<g id="a_node4"><a xlink:title=" ">
<polygon fill="white" stroke="#bfbfbf" points="622.5,-0.5 622.5,-19.5 681.5,-19.5 681.5,-0.5 622.5,-0.5"/>
<text text-anchor="middle" x="652" y="-7.5" font-family="Consolas" font-size="10.00">stdalign.h</text>
</a>
</g>
</g>
<!-- Node3&#45;&gt;Node4 -->
<g id="edge3" class="edge">
<title>Node3&#45;&gt;Node4</title>
<path fill="none" stroke="midnightblue" d="M652,-56.08C652,-49.01 652,-38.86 652,-29.99"/>
<polygon fill="midnightblue" stroke="midnightblue" points="655.5,-29.75 652,-19.75 648.5,-29.75 655.5,-29.75"/>
</g>
<!-- Node5&#45;&gt;Node3 -->
<g id="edge5" class="edge">
<title>Node5&#45;&gt;Node3</title>
<path fill="none" stroke="midnightblue" d="M80.05,-113.94C84.74,-113.22 89.47,-112.56 94,-112 279.9,-89.05 502.15,-75.15 600.66,-69.68"/>
<polygon fill="midnightblue" stroke="midnightblue" points="601.13,-73.16 610.93,-69.12 600.75,-66.17 601.13,-73.16"/>
</g>
<!-- Node6&#45;&gt;Node3 -->
<g id="edge7" class="edge">
<title>Node6&#45;&gt;Node3</title>
<path fill="none" stroke="midnightblue" d="M78.11,-168.38C85.56,-153.85 102.8,-124.79 127,-112 208.26,-69.06 485.4,-65.8 600.86,-66.39"/>
<polygon fill="midnightblue" stroke="midnightblue" points="600.84,-69.89 610.86,-66.45 600.88,-62.89 600.84,-69.89"/>
</g>
<!-- Node6&#45;&gt;Node5 -->
<g id="edge8" class="edge">
<title>Node6&#45;&gt;Node5</title>
<path fill="none" stroke="midnightblue" d="M68.39,-168.08C63.63,-160.53 56.68,-149.49 50.85,-140.23"/>
<polygon fill="midnightblue" stroke="midnightblue" points="53.8,-138.35 45.51,-131.75 47.88,-142.08 53.8,-138.35"/>
</g>
<!-- Node7&#45;&gt;Node3 -->
<g id="edge10" class="edge">
<title>Node7&#45;&gt;Node3</title>
<path fill="none" stroke="midnightblue" d="M652,-112.08C652,-105.01 652,-94.86 652,-85.99"/>
<polygon fill="midnightblue" stroke="midnightblue" points="655.5,-85.75 652,-75.75 648.5,-85.75 655.5,-85.75"/>
</g>
<!-- Node8&#45;&gt;Node2 -->
<g id="edge12" class="edge">
<title>Node8&#45;&gt;Node2</title>
<path fill="none" stroke="midnightblue" d="M204.61,-185.4C254.91,-195.2 345.87,-213.91 395.89,-224.73"/>
<polygon fill="midnightblue" stroke="midnightblue" points="395.4,-228.2 405.92,-226.91 396.89,-221.36 395.4,-228.2"/>
</g>
<!-- Node9&#45;&gt;Node2 -->
<g id="edge15" class="edge">
<title>Node9&#45;&gt;Node2</title>
<path fill="none" stroke="midnightblue" d="M290.36,-187.52C321.42,-196.59 367.81,-211 398.8,-221.17"/>
<polygon fill="midnightblue" stroke="midnightblue" points="398.08,-224.62 408.68,-224.44 400.28,-217.98 398.08,-224.62"/>
</g>
<!-- Node10 -->
<g id="node10" class="node">
<title>Node10</title>
<g id="a_node10"><a xlink:title=" ">
<polygon fill="white" stroke="#bfbfbf" points="372.5,-112.5 372.5,-131.5 421.5,-131.5 421.5,-112.5 372.5,-112.5"/>
<text text-anchor="middle" x="397" y="-119.5" font-family="Consolas" font-size="10.00">stdint.h</text>
</a>
</g>
</g>
<!-- Node9&#45;&gt;Node10 -->
<g id="edge14" class="edge">
<title>Node9&#45;&gt;Node10</title>
<path fill="none" stroke="midnightblue" d="M280.02,-168.44C303.1,-159.48 339.56,-145.31 365.64,-135.18"/>
<polygon fill="midnightblue" stroke="midnightblue" points="367.02,-138.4 375.08,-131.52 364.49,-131.88 367.02,-138.4"/>
</g>
<!-- Node11 -->
<g id="node11" class="node">
<title>Node11</title>
<g id="a_node11"><a xlink:title=" ">
<polygon fill="white" stroke="#bfbfbf" points="261.5,-112.5 261.5,-131.5 354.5,-131.5 354.5,-112.5 261.5,-112.5"/>
<text text-anchor="middle" x="308" y="-119.5" font-family="Consolas" font-size="10.00">libccc/text/ascii.h</text>
</a>
</g>
</g>
<!-- Node9&#45;&gt;Node11 -->
<g id="edge16" class="edge">
<title>Node9&#45;&gt;Node11</title>
<path fill="none" stroke="midnightblue" d="M266.26,-168.08C273.46,-160.3 284.11,-148.8 292.85,-139.37"/>
<polygon fill="midnightblue" stroke="midnightblue" points="295.67,-141.47 299.9,-131.75 290.53,-136.71 295.67,-141.47"/>
</g>
<!-- Node12 -->
<g id="node12" class="node">
<title>Node12</title>
<g id="a_node12"><a xlink:title=" ">
<polygon fill="white" stroke="#bfbfbf" points="136.5,-112.5 136.5,-131.5 243.5,-131.5 243.5,-112.5 136.5,-112.5"/>
<text text-anchor="middle" x="190" y="-119.5" font-family="Consolas" font-size="10.00">libccc/text/unicode.h</text>
</a>
</g>
</g>
<!-- Node9&#45;&gt;Node12 -->
<g id="edge17" class="edge">
<title>Node9&#45;&gt;Node12</title>
<path fill="none" stroke="midnightblue" d="M247.07,-168.32C236.83,-160.18 221.28,-147.84 209,-138.09"/>
<polygon fill="midnightblue" stroke="midnightblue" points="211.13,-135.31 201.12,-131.83 206.78,-140.79 211.13,-135.31"/>
</g>
<!-- Node13&#45;&gt;Node2 -->
<g id="edge20" class="edge">
<title>Node13&#45;&gt;Node2</title>
<path fill="none" stroke="midnightblue" d="M363.05,-187.65C378.3,-195.99 399.17,-208.76 413.88,-218.62"/>
<polygon fill="midnightblue" stroke="midnightblue" points="411.92,-221.52 422.14,-224.32 415.9,-215.76 411.92,-221.52"/>
</g>
<!-- Node13&#45;&gt;Node10 -->
<g id="edge19" class="edge">
<title>Node13&#45;&gt;Node10</title>
<path fill="none" stroke="midnightblue" d="M352.75,-168.08C360.47,-160.22 371.9,-148.57 381.22,-139.08"/>
<polygon fill="midnightblue" stroke="midnightblue" points="383.9,-141.34 388.41,-131.75 378.91,-136.44 383.9,-141.34"/>
</g>
<!-- Node14&#45;&gt;Node2 -->
<g id="edge22" class="edge">
<title>Node14&#45;&gt;Node2</title>
<path fill="none" stroke="midnightblue" d="M436.13,-187.75C437.66,-194.86 438.1,-205.14 437.47,-214.1"/>
<polygon fill="midnightblue" stroke="midnightblue" points="433.99,-213.71 436.17,-224.08 440.93,-214.62 433.99,-213.71"/>
</g>
<!-- Node15&#45;&gt;Node2 -->
<g id="edge24" class="edge">
<title>Node15&#45;&gt;Node2</title>
<path fill="none" stroke="midnightblue" d="M512.53,-187.65C499.94,-196.23 477.88,-209.48 459.77,-219.45"/>
<polygon fill="midnightblue" stroke="midnightblue" points="457.88,-216.5 450.74,-224.32 461.2,-222.66 457.88,-216.5"/>
</g>
<!-- Node16&#45;&gt;Node2 -->
<g id="edge28" class="edge">
<title>Node16&#45;&gt;Node2</title>
<path fill="none" stroke="midnightblue" d="M592.52,-187.59C560.04,-197.66 502.88,-214.25 465.9,-224.35"/>
<polygon fill="midnightblue" stroke="midnightblue" points="464.79,-221.03 456.05,-227.01 466.62,-227.78 464.79,-221.03"/>
</g>
<!-- Node16&#45;&gt;Node10 -->
<g id="edge27" class="edge">
<title>Node16&#45;&gt;Node10</title>
<path fill="none" stroke="midnightblue" d="M582.14,-168.44C540.93,-158.33 472.75,-141.59 431.63,-131.5"/>
<polygon fill="midnightblue" stroke="midnightblue" points="432.34,-128.07 421.8,-129.09 430.67,-134.87 432.34,-128.07"/>
</g>
<!-- Node17 -->
<g id="node17" class="node">
<title>Node17</title>
<g id="a_node17"><a xlink:title=" ">
<polygon fill="white" stroke="#bfbfbf" points="538,-112.5 538,-131.5 590,-131.5 590,-112.5 538,-112.5"/>
<text text-anchor="middle" x="564" y="-119.5" font-family="Consolas" font-size="10.00">stddef.h</text>
</a>
</g>
</g>
<!-- Node16&#45;&gt;Node17 -->
<g id="edge26" class="edge">
<title>Node16&#45;&gt;Node17</title>
<path fill="none" stroke="midnightblue" d="M608.25,-168.08C600.53,-160.22 589.1,-148.57 579.78,-139.08"/>
<polygon fill="midnightblue" stroke="midnightblue" points="582.09,-136.44 572.59,-131.75 577.1,-141.34 582.09,-136.44"/>
</g>
<!-- Node18&#45;&gt;Node2 -->
<g id="edge30" class="edge">
<title>Node18&#45;&gt;Node2</title>
<path fill="none" stroke="midnightblue" d="M386.77,-336.37C394.58,-318.46 412.71,-276.92 423.17,-252.95"/>
<polygon fill="midnightblue" stroke="midnightblue" points="426.46,-254.16 427.25,-243.59 420.04,-251.36 426.46,-254.16"/>
</g>
<!-- Node18&#45;&gt;Node19 -->
<g id="edge31" class="edge">
<title>Node18&#45;&gt;Node19</title>
<path fill="none" stroke="midnightblue" d="M376.39,-336.08C370.74,-328.46 362.46,-317.26 355.55,-307.94"/>
<polygon fill="midnightblue" stroke="midnightblue" points="358.25,-305.7 349.48,-299.75 352.62,-309.87 358.25,-305.7"/>
</g>
<!-- Node19&#45;&gt;Node2 -->
<g id="edge33" class="edge">
<title>Node19&#45;&gt;Node2</title>
<path fill="none" stroke="midnightblue" d="M357.14,-280.32C370.87,-271.9 391.94,-258.97 408.06,-249.07"/>
<polygon fill="midnightblue" stroke="midnightblue" points="410.2,-251.87 416.9,-243.65 406.54,-245.9 410.2,-251.87"/>
</g>
<!-- Node20 -->
<g id="node20" class="node">
<title>Node20</title>
<g id="a_node20"><a xlink:title=" ">
<polygon fill="white" stroke="#bfbfbf" points="317,-224.5 317,-243.5 369,-243.5 369,-224.5 317,-224.5"/>
<text text-anchor="middle" x="343" y="-231.5" font-family="Consolas" font-size="10.00">stdarg.h</text>
</a>
</g>
</g>
<!-- Node19&#45;&gt;Node20 -->
<g id="edge32" class="edge">
<title>Node19&#45;&gt;Node20</title>
<path fill="none" stroke="midnightblue" d="M343,-280.08C343,-273.01 343,-262.86 343,-253.99"/>
<polygon fill="midnightblue" stroke="midnightblue" points="346.5,-253.75 343,-243.75 339.5,-253.75 346.5,-253.75"/>
</g>
<!-- Node21&#45;&gt;Node2 -->
<g id="edge37" class="edge">
<title>Node21&#45;&gt;Node2</title>
<path fill="none" stroke="midnightblue" d="M579.88,-336.18C579.21,-322.39 575.92,-295.67 561,-280 536.21,-253.97 495.63,-242.99 466.4,-238.36"/>
<polygon fill="midnightblue" stroke="midnightblue" points="466.58,-234.86 456.19,-236.93 465.61,-241.79 466.58,-234.86"/>
</g>
<!-- Node22 -->
<g id="node22" class="node">
<title>Node22</title>
<g id="a_node22"><a xlink:title=" ">
<polygon fill="white" stroke="#bfbfbf" points="608,-280.5 608,-299.5 652,-299.5 652,-280.5 608,-280.5"/>
<text text-anchor="middle" x="630" y="-287.5" font-family="Consolas" font-size="10.00">fcntl.h</text>
</a>
</g>
</g>
<!-- Node21&#45;&gt;Node22 -->
<g id="edge36" class="edge">
<title>Node21&#45;&gt;Node22</title>
<path fill="none" stroke="midnightblue" d="M588.26,-336.08C595.46,-328.3 606.11,-316.8 614.85,-307.37"/>
<polygon fill="midnightblue" stroke="midnightblue" points="617.67,-309.47 621.9,-299.75 612.53,-304.71 617.67,-309.47"/>
</g>
<!-- Node23 -->
<g id="node23" class="node">
<title>Node23</title>
<g id="a_node23"><a xlink:href="ansi_8h.html" target="_top" xlink:title=" ">
<polygon fill="white" stroke="black" points="696,-224.5 696,-243.5 786,-243.5 786,-224.5 696,-224.5"/>
<text text-anchor="middle" x="741" y="-231.5" font-family="Consolas" font-size="10.00">libccc/sys/ansi.h</text>
</a>
</g>
</g>
<!-- Node21&#45;&gt;Node23 -->
<g id="edge38" class="edge">
<title>Node21&#45;&gt;Node23</title>
<path fill="none" stroke="midnightblue" d="M597.59,-336.36C614.35,-327.87 640.08,-314.15 661,-300 683.76,-284.6 708,-264.29 723.76,-250.5"/>
<polygon fill="midnightblue" stroke="midnightblue" points="726.41,-252.83 731.57,-243.58 721.77,-247.59 726.41,-252.83"/>
</g>
<!-- Node24 -->
<g id="node24" class="node">
<title>Node24</title>
<g id="a_node24"><a xlink:href="color_8h.html" target="_top" xlink:title=" ">
<polygon fill="white" stroke="black" points="478,-280.5 478,-299.5 552,-299.5 552,-280.5 478,-280.5"/>
<text text-anchor="middle" x="515" y="-287.5" font-family="Consolas" font-size="10.00">libccc/color.h</text>
</a>
</g>
</g>
<!-- Node21&#45;&gt;Node24 -->
<g id="edge40" class="edge">
<title>Node21&#45;&gt;Node24</title>
<path fill="none" stroke="midnightblue" d="M569.56,-336.32C559.85,-328.26 545.18,-316.08 533.5,-306.37"/>
<polygon fill="midnightblue" stroke="midnightblue" points="535.56,-303.53 525.63,-299.83 531.09,-308.92 535.56,-303.53"/>
</g>
<!-- Node23&#45;&gt;Node3 -->
<g id="edge39" class="edge">
<title>Node23&#45;&gt;Node3</title>
<path fill="none" stroke="midnightblue" d="M743.57,-224.25C749.22,-203.08 760.54,-148.21 738,-112 728.4,-96.57 711.63,-86.16 695.43,-79.27"/>
<polygon fill="midnightblue" stroke="midnightblue" points="696.6,-75.97 686.01,-75.61 694.07,-82.5 696.6,-75.97"/>
</g>
<!-- Node24&#45;&gt;Node2 -->
<g id="edge41" class="edge">
<title>Node24&#45;&gt;Node2</title>
<path fill="none" stroke="midnightblue" d="M501.5,-280.32C488.4,-271.9 468.29,-258.97 452.89,-249.07"/>
<polygon fill="midnightblue" stroke="midnightblue" points="454.77,-246.12 444.46,-243.65 450.98,-252.01 454.77,-246.12"/>
</g>
</g>
</svg>
