<?xml version="1.0" encoding="UTF-8" standalone="no"?>
<!DOCTYPE svg PUBLIC "-//W3C//DTD SVG 1.1//EN"
 "http://www.w3.org/Graphics/SVG/1.1/DTD/svg11.dtd">
<!-- Generated by graphviz version 2.49.3 (20211023.0002)
 -->
<!-- Title: libccc/error.h Pages: 1 -->
<svg width="431pt" height="420pt"
 viewBox="0.00 0.00 430.50 420.00" xmlns="http://www.w3.org/2000/svg" xmlns:xlink="http://www.w3.org/1999/xlink">
<g id="graph0" class="graph" transform="scale(1 1) rotate(0) translate(4 416)">
<title>libccc/error.h</title>
<polygon fill="white" stroke="transparent" points="-4,4 -4,-416 426.5,-416 426.5,4 -4,4"/>
<!-- Node1 -->
<g id="node1" class="node">
<title>Node1</title>
<g id="a_node1"><a xlink:title=" ">
<polygon fill="#bfbfbf" stroke="black" points="77.5,-392.5 77.5,-411.5 149.5,-411.5 149.5,-392.5 77.5,-392.5"/>
<text text-anchor="middle" x="113.5" y="-399.5" font-family="Consolas" font-size="10.00">libccc/error.h</text>
</a>
</g>
</g>
<!-- Node2 -->
<g id="node2" class="node">
<title>Node2</title>
<g id="a_node2"><a xlink:href="libccc_8h.html" target="_top" xlink:title=" ">
<polygon fill="white" stroke="black" points="122.5,-224.5 122.5,-243.5 172.5,-243.5 172.5,-224.5 122.5,-224.5"/>
<text text-anchor="middle" x="147.5" y="-231.5" font-family="Consolas" font-size="10.00">libccc.h</text>
</a>
</g>
</g>
<!-- Node1&#45;&gt;Node2 -->
<g id="edge1" class="edge">
<title>Node1&#45;&gt;Node2</title>
<path fill="none" stroke="midnightblue" d="M116.81,-392.5C120.18,-383.54 125.35,-368.96 128.5,-356 137.19,-320.31 142.8,-277.7 145.53,-253.75"/>
<polygon fill="midnightblue" stroke="midnightblue" points="149.04,-253.93 146.65,-243.6 142.08,-253.16 149.04,-253.93"/>
</g>
<!-- Node8 -->
<g id="node8" class="node">
<title>Node8</title>
<g id="a_node8"><a xlink:href="string_8h.html" target="_top" xlink:title=" ">
<polygon fill="white" stroke="black" points="42,-336.5 42,-355.5 119,-355.5 119,-336.5 42,-336.5"/>
<text text-anchor="middle" x="80.5" y="-343.5" font-family="Consolas" font-size="10.00">libccc/string.h</text>
</a>
</g>
</g>
<!-- Node1&#45;&gt;Node8 -->
<g id="edge11" class="edge">
<title>Node1&#45;&gt;Node8</title>
<path fill="none" stroke="midnightblue" d="M108.05,-392.08C103.49,-384.61 96.83,-373.72 91.21,-364.52"/>
<polygon fill="midnightblue" stroke="midnightblue" points="94.05,-362.46 85.85,-355.75 88.08,-366.11 94.05,-362.46"/>
</g>
<!-- Node9 -->
<g id="node9" class="node">
<title>Node9</title>
<g id="a_node9"><a xlink:href="format_8h.html" target="_top" xlink:title=" ">
<polygon fill="white" stroke="black" points="0,-280.5 0,-299.5 81,-299.5 81,-280.5 0,-280.5"/>
<text text-anchor="middle" x="40.5" y="-287.5" font-family="Consolas" font-size="10.00">libccc/format.h</text>
</a>
</g>
</g>
<!-- Node1&#45;&gt;Node9 -->
<g id="edge16" class="edge">
<title>Node1&#45;&gt;Node9</title>
<path fill="none" stroke="midnightblue" d="M82.48,-392.44C64.47,-385.69 43.27,-374.3 32.5,-356 24.14,-341.79 27.82,-322.82 32.58,-309.04"/>
<polygon fill="midnightblue" stroke="midnightblue" points="35.86,-310.27 36.25,-299.68 29.34,-307.71 35.86,-310.27"/>
</g>
<!-- Node11 -->
<g id="node11" class="node">
<title>Node11</title>
<g id="a_node11"><a xlink:href="io_8h.html" target="_top" xlink:title=" ">
<polygon fill="white" stroke="black" points="237.5,-336.5 237.5,-355.5 317.5,-355.5 317.5,-336.5 237.5,-336.5"/>
<text text-anchor="middle" x="277.5" y="-343.5" font-family="Consolas" font-size="10.00">libccc/sys/io.h</text>
</a>
</g>
</g>
<!-- Node1&#45;&gt;Node11 -->
<g id="edge17" class="edge">
<title>Node1&#45;&gt;Node11</title>
<path fill="none" stroke="midnightblue" d="M139.49,-392.44C167.2,-383.32 211.25,-368.81 242.12,-358.65"/>
<polygon fill="midnightblue" stroke="midnightblue" points="243.23,-361.97 251.64,-355.52 241.04,-355.32 243.23,-361.97"/>
</g>
<!-- Node3 -->
<g id="node3" class="node">
<title>Node3</title>
<g id="a_node3"><a xlink:href="libccc__define_8h.html" target="_top" xlink:title=" ">
<polygon fill="white" stroke="black" points="192.5,-56.5 192.5,-75.5 274.5,-75.5 274.5,-56.5 192.5,-56.5"/>
<text text-anchor="middle" x="233.5" y="-63.5" font-family="Consolas" font-size="10.00">libccc_define.h</text>
</a>
</g>
</g>
<!-- Node2&#45;&gt;Node3 -->
<g id="edge2" class="edge">
<title>Node2&#45;&gt;Node3</title>
<path fill="none" stroke="midnightblue" d="M172.7,-233.04C204.94,-231.57 259.67,-223.59 285.5,-188 309.99,-154.25 273.19,-107.17 250,-82.89"/>
<polygon fill="midnightblue" stroke="midnightblue" points="252.29,-80.23 242.77,-75.58 247.32,-85.15 252.29,-80.23"/>
</g>
<!-- Node5 -->
<g id="node5" class="node">
<title>Node5</title>
<g id="a_node5"><a xlink:href="libccc__errors_8h.html" target="_top" xlink:title=" ">
<polygon fill="white" stroke="black" points="87.5,-112.5 87.5,-131.5 167.5,-131.5 167.5,-112.5 87.5,-112.5"/>
<text text-anchor="middle" x="127.5" y="-119.5" font-family="Consolas" font-size="10.00">libccc_errors.h</text>
</a>
</g>
</g>
<!-- Node2&#45;&gt;Node5 -->
<g id="edge4" class="edge">
<title>Node2&#45;&gt;Node5</title>
<path fill="none" stroke="midnightblue" d="M124.05,-224.41C108.34,-217.28 88.88,-205.46 79.5,-188 69.49,-169.37 87.91,-150.15 104.75,-137.49"/>
<polygon fill="midnightblue" stroke="midnightblue" points="107.09,-140.12 113.25,-131.5 103.06,-134.4 107.09,-140.12"/>
</g>
<!-- Node6 -->
<g id="node6" class="node">
<title>Node6</title>
<g id="a_node6"><a xlink:href="libccc__config_8h.html" target="_top" xlink:title=" ">
<polygon fill="white" stroke="black" points="88.5,-168.5 88.5,-187.5 170.5,-187.5 170.5,-168.5 88.5,-168.5"/>
<text text-anchor="middle" x="129.5" y="-175.5" font-family="Consolas" font-size="10.00">libccc_config.h</text>
</a>
</g>
</g>
<!-- Node2&#45;&gt;Node6 -->
<g id="edge6" class="edge">
<title>Node2&#45;&gt;Node6</title>
<path fill="none" stroke="midnightblue" d="M144.53,-224.08C142.12,-216.85 138.64,-206.41 135.63,-197.4"/>
<polygon fill="midnightblue" stroke="midnightblue" points="138.9,-196.13 132.42,-187.75 132.26,-198.34 138.9,-196.13"/>
</g>
<!-- Node7 -->
<g id="node7" class="node">
<title>Node7</title>
<g id="a_node7"><a xlink:href="libccc__naming_8h.html" target="_top" xlink:title=" ">
<polygon fill="white" stroke="black" points="189,-168.5 189,-187.5 276,-187.5 276,-168.5 189,-168.5"/>
<text text-anchor="middle" x="232.5" y="-175.5" font-family="Consolas" font-size="10.00">libccc_naming.h</text>
</a>
</g>
</g>
<!-- Node2&#45;&gt;Node7 -->
<g id="edge9" class="edge">
<title>Node2&#45;&gt;Node7</title>
<path fill="none" stroke="midnightblue" d="M161.16,-224.32C174.42,-215.9 194.77,-202.97 210.35,-193.07"/>
<polygon fill="midnightblue" stroke="midnightblue" points="212.31,-195.97 218.88,-187.65 208.56,-190.06 212.31,-195.97"/>
</g>
<!-- Node4 -->
<g id="node4" class="node">
<title>Node4</title>
<g id="a_node4"><a xlink:title=" ">
<polygon fill="white" stroke="#bfbfbf" points="204,-0.5 204,-19.5 263,-19.5 263,-0.5 204,-0.5"/>
<text text-anchor="middle" x="233.5" y="-7.5" font-family="Consolas" font-size="10.00">stdalign.h</text>
</a>
</g>
</g>
<!-- Node3&#45;&gt;Node4 -->
<g id="edge3" class="edge">
<title>Node3&#45;&gt;Node4</title>
<path fill="none" stroke="midnightblue" d="M233.5,-56.08C233.5,-49.01 233.5,-38.86 233.5,-29.99"/>
<polygon fill="midnightblue" stroke="midnightblue" points="237,-29.75 233.5,-19.75 230,-29.75 237,-29.75"/>
</g>
<!-- Node5&#45;&gt;Node3 -->
<g id="edge5" class="edge">
<title>Node5&#45;&gt;Node3</title>
<path fill="none" stroke="midnightblue" d="M144.53,-112.32C161.53,-103.66 187.88,-90.24 207.49,-80.25"/>
<polygon fill="midnightblue" stroke="midnightblue" points="209.19,-83.31 216.51,-75.65 206.01,-77.08 209.19,-83.31"/>
</g>
<!-- Node6&#45;&gt;Node3 -->
<g id="edge7" class="edge">
<title>Node6&#45;&gt;Node3</title>
<path fill="none" stroke="midnightblue" d="M139.1,-168.27C148.77,-159.37 164,-145.06 176.5,-132 191.82,-115.99 208.43,-96.82 219.75,-83.47"/>
<polygon fill="midnightblue" stroke="midnightblue" points="222.59,-85.53 226.35,-75.62 217.23,-81.02 222.59,-85.53"/>
</g>
<!-- Node6&#45;&gt;Node5 -->
<g id="edge8" class="edge">
<title>Node6&#45;&gt;Node5</title>
<path fill="none" stroke="midnightblue" d="M129.17,-168.08C128.91,-161.01 128.53,-150.86 128.2,-141.99"/>
<polygon fill="midnightblue" stroke="midnightblue" points="131.69,-141.61 127.82,-131.75 124.7,-141.87 131.69,-141.61"/>
</g>
<!-- Node7&#45;&gt;Node3 -->
<g id="edge10" class="edge">
<title>Node7&#45;&gt;Node3</title>
<path fill="none" stroke="midnightblue" d="M232.58,-168.37C232.74,-150.62 233.11,-109.67 233.33,-85.6"/>
<polygon fill="midnightblue" stroke="midnightblue" points="236.83,-85.62 233.42,-75.59 229.83,-85.56 236.83,-85.62"/>
</g>
<!-- Node8&#45;&gt;Node2 -->
<g id="edge12" class="edge">
<title>Node8&#45;&gt;Node2</title>
<path fill="none" stroke="midnightblue" d="M85.76,-336.37C96.77,-318.3 122.42,-276.18 136.96,-252.31"/>
<polygon fill="midnightblue" stroke="midnightblue" points="140.05,-253.95 142.27,-243.59 134.08,-250.31 140.05,-253.95"/>
</g>
<!-- Node8&#45;&gt;Node9 -->
<g id="edge13" class="edge">
<title>Node8&#45;&gt;Node9</title>
<path fill="none" stroke="midnightblue" d="M73.89,-336.08C68.24,-328.46 59.96,-317.26 53.05,-307.94"/>
<polygon fill="midnightblue" stroke="midnightblue" points="55.75,-305.7 46.98,-299.75 50.12,-309.87 55.75,-305.7"/>
</g>
<!-- Node9&#45;&gt;Node2 -->
<g id="edge15" class="edge">
<title>Node9&#45;&gt;Node2</title>
<path fill="none" stroke="midnightblue" d="M57.69,-280.32C74.85,-271.66 101.45,-258.24 121.25,-248.25"/>
<polygon fill="midnightblue" stroke="midnightblue" points="123,-251.28 130.35,-243.65 119.85,-245.04 123,-251.28"/>
</g>
<!-- Node10 -->
<g id="node10" class="node">
<title>Node10</title>
<g id="a_node10"><a xlink:title=" ">
<polygon fill="white" stroke="#bfbfbf" points="14.5,-224.5 14.5,-243.5 66.5,-243.5 66.5,-224.5 14.5,-224.5"/>
<text text-anchor="middle" x="40.5" y="-231.5" font-family="Consolas" font-size="10.00">stdarg.h</text>
</a>
</g>
</g>
<!-- Node9&#45;&gt;Node10 -->
<g id="edge14" class="edge">
<title>Node9&#45;&gt;Node10</title>
<path fill="none" stroke="midnightblue" d="M40.5,-280.08C40.5,-273.01 40.5,-262.86 40.5,-253.99"/>
<polygon fill="midnightblue" stroke="midnightblue" points="44,-253.75 40.5,-243.75 37,-253.75 44,-253.75"/>
</g>
<!-- Node11&#45;&gt;Node2 -->
<g id="edge19" class="edge">
<title>Node11&#45;&gt;Node2</title>
<path fill="none" stroke="midnightblue" d="M277.28,-336.28C276.48,-322.61 273.01,-296.05 258.5,-280 238.86,-258.27 207.22,-246.83 182.74,-240.93"/>
<polygon fill="midnightblue" stroke="midnightblue" points="183.26,-237.46 172.74,-238.73 181.75,-244.3 183.26,-237.46"/>
</g>
<!-- Node12 -->
<g id="node12" class="node">
<title>Node12</title>
<g id="a_node12"><a xlink:title=" ">
<polygon fill="white" stroke="#bfbfbf" points="305.5,-280.5 305.5,-299.5 349.5,-299.5 349.5,-280.5 305.5,-280.5"/>
<text text-anchor="middle" x="327.5" y="-287.5" font-family="Consolas" font-size="10.00">fcntl.h</text>
</a>
</g>
</g>
<!-- Node11&#45;&gt;Node12 -->
<g id="edge18" class="edge">
<title>Node11&#45;&gt;Node12</title>
<path fill="none" stroke="midnightblue" d="M285.76,-336.08C292.96,-328.3 303.61,-316.8 312.35,-307.37"/>
<polygon fill="midnightblue" stroke="midnightblue" points="315.17,-309.47 319.4,-299.75 310.03,-304.71 315.17,-309.47"/>
</g>
<!-- Node13 -->
<g id="node13" class="node">
<title>Node13</title>
<g id="a_node13"><a xlink:href="ansi_8h.html" target="_top" xlink:title=" ">
<polygon fill="white" stroke="black" points="332.5,-112.5 332.5,-131.5 422.5,-131.5 422.5,-112.5 332.5,-112.5"/>
<text text-anchor="middle" x="377.5" y="-119.5" font-family="Consolas" font-size="10.00">libccc/sys/ansi.h</text>
</a>
</g>
</g>
<!-- Node11&#45;&gt;Node13 -->
<g id="edge20" class="edge">
<title>Node11&#45;&gt;Node13</title>
<path fill="none" stroke="midnightblue" d="M306.64,-336.48C324.63,-329.63 346.5,-318.1 358.5,-300 391.17,-250.7 385.62,-176.2 380.73,-141.72"/>
<polygon fill="midnightblue" stroke="midnightblue" points="384.16,-141 379.15,-131.66 377.24,-142.08 384.16,-141"/>
</g>
<!-- Node14 -->
<g id="node14" class="node">
<title>Node14</title>
<g id="a_node14"><a xlink:href="color_8h.html" target="_top" xlink:title=" ">
<polygon fill="white" stroke="black" points="175.5,-280.5 175.5,-299.5 249.5,-299.5 249.5,-280.5 175.5,-280.5"/>
<text text-anchor="middle" x="212.5" y="-287.5" font-family="Consolas" font-size="10.00">libccc/color.h</text>
</a>
</g>
</g>
<!-- Node11&#45;&gt;Node14 -->
<g id="edge22" class="edge">
<title>Node11&#45;&gt;Node14</title>
<path fill="none" stroke="midnightblue" d="M267.06,-336.32C257.35,-328.26 242.68,-316.08 231,-306.37"/>
<polygon fill="midnightblue" stroke="midnightblue" points="233.06,-303.53 223.13,-299.83 228.59,-308.92 233.06,-303.53"/>
</g>
<!-- Node13&#45;&gt;Node3 -->
<g id="edge21" class="edge">
<title>Node13&#45;&gt;Node3</title>
<path fill="none" stroke="midnightblue" d="M354.68,-112.44C330.67,-103.44 292.67,-89.19 265.63,-79.05"/>
<polygon fill="midnightblue" stroke="midnightblue" points="266.8,-75.75 256.21,-75.52 264.34,-82.3 266.8,-75.75"/>
</g>
<!-- Node14&#45;&gt;Node2 -->
<g id="edge23" class="edge">
<title>Node14&#45;&gt;Node2</title>
<path fill="none" stroke="midnightblue" d="M202.06,-280.32C192.35,-272.26 177.68,-260.08 166,-250.37"/>
<polygon fill="midnightblue" stroke="midnightblue" points="168.06,-247.53 158.13,-243.83 163.59,-252.92 168.06,-247.53"/>
</g>
</g>
</svg>
