<?xml version="1.0" encoding="UTF-8" standalone="no"?>
<!DOCTYPE svg PUBLIC "-//W3C//DTD SVG 1.1//EN"
 "http://www.w3.org/Graphics/SVG/1.1/DTD/svg11.dtd">
<!-- Generated by graphviz version 2.43.0 (0)
 -->
<!-- Title: libccc/sys/error.h Pages: 1 -->
<!--zoomable 554 -->
<svg id="main" version="1.1" xmlns="http://www.w3.org/2000/svg" xmlns:xlink="http://www.w3.org/1999/xlink" xml:space="preserve" onload="init(evt)">
<style type="text/css"><![CDATA[
.edge:hover path { stroke: red; }
.edge:hover polygon { stroke: red; fill: red; }
]]></style>
<script type="text/javascript"><![CDATA[
var edges = document.getElementsByTagName('g');
if (edges && edges.length) {
  for (var i=0;i<edges.length;i++) {
    if (edges[i].id.substr(0,4)=='edge') {
      edges[i].setAttribute('class','edge');
    }
  }
}
]]></script>
        <defs>
                <circle id="rim" cx="0" cy="0" r="7"/>
                <circle id="rim2" cx="0" cy="0" r="3.5"/>
                <g id="zoomPlus">
                        <use xlink:href="#rim" fill="#404040">
                                <set attributeName="fill" to="#808080" begin="zoomplus.mouseover" end="zoomplus.mouseout"/>
                        </use>
                        <path d="M-4,0h8M0,-4v8" fill="none" stroke="white" stroke-width="1.5" pointer-events="none"/>
                </g>
                <g id="zoomMin">
                        <use xlink:href="#rim" fill="#404040">
                                <set attributeName="fill" to="#808080" begin="zoomminus.mouseover" end="zoomminus.mouseout"/>
                        </use>
                        <path d="M-4,0h8" fill="none" stroke="white" stroke-width="1.5" pointer-events="none"/>
                </g>
                <g id="dirArrow">
                        <path fill="none" stroke="white" stroke-width="1.5" d="M0,-3.0v7 M-2.5,-0.5L0,-3.0L2.5,-0.5"/>
                </g>
               <g id="resetDef">
                       <use xlink:href="#rim2" fill="#404040">
                               <set attributeName="fill" to="#808080" begin="reset.mouseover" end="reset.mouseout"/>
                       </use>
               </g>
        </defs>

<script type="text/javascript">
var viewWidth = 990;
var viewHeight = 554;
var sectionId = 'dynsection-0';
</script>
<script xlink:href="svgpan.js"/>
<svg id="graph" class="graph">
<g id="viewport">
<title>libccc/sys/error.h</title>
<polygon fill="white" stroke="transparent" points="-4,4 -4,-550 986.18,-550 986.18,4 -4,4"/>
<!-- Node1 -->
<g id="node1" class="node">
<title>Node1</title>
<g id="a_node1"><a xlink:title=" ">
<polygon fill="#bfbfbf" stroke="black" points="630.68,-526.5 630.68,-545.5 741.68,-545.5 741.68,-526.5 630.68,-526.5"/>
<text text-anchor="middle" x="686.18" y="-533.5" font-family="Consolas" font-size="10.00">libccc/sys/error.h</text>
</a>
</g>
</g>
<!-- Node2 -->
<g id="node2" class="node">
<title>Node2</title>
<g id="a_node2"><a xlink:href="libccc_8h.html" target="_top" xlink:title=" ">
<polygon fill="white" stroke="black" points="588.68,-224.5 588.68,-243.5 647.68,-243.5 647.68,-224.5 588.68,-224.5"/>
<text text-anchor="middle" x="618.18" y="-231.5" font-family="Consolas" font-size="10.00">libccc.h</text>
</a>
</g>
</g>
<!-- Node1&#45;&gt;Node2 -->
<g id="edge1" class="edge">
<title>Node1&#45;&gt;Node2</title>
<path fill="none" stroke="midnightblue" d="M734.73,-526.44C818.7,-510.24 982.18,-471.97 982.18,-419.5 982.18,-419.5 982.18,-419.5 982.18,-350.5 982.18,-310.21 960.18,-299.96 925.18,-280 880.3,-254.41 730.32,-241.9 657.93,-237.24"/>
<polygon fill="midnightblue" stroke="midnightblue" points="658.04,-233.74 647.84,-236.61 657.6,-240.73 658.04,-233.74"/>
</g>
<!-- Node8 -->
<g id="node8" class="node">
<title>Node8</title>
<g id="a_node8"><a xlink:href="string_8h.html" target="_top" xlink:title=" ">
<polygon fill="white" stroke="black" points="571.68,-470.5 571.68,-489.5 666.68,-489.5 666.68,-470.5 571.68,-470.5"/>
<text text-anchor="middle" x="619.18" y="-477.5" font-family="Consolas" font-size="10.00">libccc/string.h</text>
</a>
</g>
</g>
<!-- Node1&#45;&gt;Node8 -->
<g id="edge11" class="edge">
<title>Node1&#45;&gt;Node8</title>
<path fill="none" stroke="midnightblue" d="M675.42,-526.32C665.42,-518.26 650.3,-506.08 638.25,-496.37"/>
<polygon fill="midnightblue" stroke="midnightblue" points="640.12,-493.38 630.14,-489.83 635.73,-498.83 640.12,-493.38"/>
</g>
<!-- Node10 -->
<g id="node10" class="node">
<title>Node10</title>
<g id="a_node10"><a xlink:href="text_2format_8h.html" target="_top" xlink:title=" ">
<polygon fill="white" stroke="black" points="61.18,-342 61.18,-361 183.18,-361 183.18,-342 61.18,-342"/>
<text text-anchor="middle" x="122.18" y="-349" font-family="Consolas" font-size="10.00">libccc/text/format.h</text>
</a>
</g>
</g>
<!-- Node1&#45;&gt;Node10 -->
<g id="edge29" class="edge">
<title>Node1&#45;&gt;Node10</title>
<path fill="none" stroke="midnightblue" d="M634.46,-526.47C555.49,-512.52 400.85,-481.52 276.18,-434 226.96,-415.24 173.44,-384.29 144.25,-366.41"/>
<polygon fill="midnightblue" stroke="midnightblue" points="146.01,-363.38 135.66,-361.1 142.32,-369.34 146.01,-363.38"/>
</g>
<!-- Node18 -->
<g id="node18" class="node">
<title>Node18</title>
<g id="a_node18"><a xlink:href="io_8h.html" target="_top" xlink:title=" ">
<polygon fill="white" stroke="black" points="718.68,-342 718.68,-361 813.68,-361 813.68,-342 718.68,-342"/>
<text text-anchor="middle" x="766.18" y="-349" font-family="Consolas" font-size="10.00">libccc/sys/io.h</text>
</a>
</g>
</g>
<!-- Node1&#45;&gt;Node18 -->
<g id="edge30" class="edge">
<title>Node1&#45;&gt;Node18</title>
<path fill="none" stroke="midnightblue" d="M690.04,-526.2C702.42,-497.95 741.33,-409.2 758.22,-370.66"/>
<polygon fill="midnightblue" stroke="midnightblue" points="761.55,-371.78 762.36,-361.21 755.14,-368.97 761.55,-371.78"/>
</g>
<!-- Node3 -->
<g id="node3" class="node">
<title>Node3</title>
<g id="a_node3"><a xlink:href="libccc__define_8h.html" target="_top" xlink:title=" ">
<polygon fill="white" stroke="black" points="627.68,-56.5 627.68,-75.5 722.68,-75.5 722.68,-56.5 627.68,-56.5"/>
<text text-anchor="middle" x="675.18" y="-63.5" font-family="Consolas" font-size="10.00">libccc_define.h</text>
</a>
</g>
</g>
<!-- Node2&#45;&gt;Node3 -->
<g id="edge2" class="edge">
<title>Node2&#45;&gt;Node3</title>
<path fill="none" stroke="midnightblue" d="M621.66,-224.43C628.62,-207.12 644.62,-166.65 656.18,-132 661.36,-116.49 666.52,-98.65 670.15,-85.59"/>
<polygon fill="midnightblue" stroke="midnightblue" points="673.54,-86.47 672.81,-75.9 666.79,-84.61 673.54,-86.47"/>
</g>
<!-- Node5 -->
<g id="node5" class="node">
<title>Node5</title>
<g id="a_node5"><a xlink:href="libccc__errors_8h.html" target="_top" xlink:title=" ">
<polygon fill="white" stroke="black" points="551.68,-112.5 551.68,-131.5 646.68,-131.5 646.68,-112.5 551.68,-112.5"/>
<text text-anchor="middle" x="599.18" y="-119.5" font-family="Consolas" font-size="10.00">libccc_errors.h</text>
</a>
</g>
</g>
<!-- Node2&#45;&gt;Node5 -->
<g id="edge4" class="edge">
<title>Node2&#45;&gt;Node5</title>
<path fill="none" stroke="midnightblue" d="M616.69,-224.37C613.62,-206.62 606.55,-165.67 602.39,-141.6"/>
<polygon fill="midnightblue" stroke="midnightblue" points="605.82,-140.85 600.67,-131.59 598.92,-142.04 605.82,-140.85"/>
</g>
<!-- Node6 -->
<g id="node6" class="node">
<title>Node6</title>
<g id="a_node6"><a xlink:href="libccc__config_8h.html" target="_top" xlink:title=" ">
<polygon fill="white" stroke="black" points="494.68,-168.5 494.68,-187.5 589.68,-187.5 589.68,-168.5 494.68,-168.5"/>
<text text-anchor="middle" x="542.18" y="-175.5" font-family="Consolas" font-size="10.00">libccc_config.h</text>
</a>
</g>
</g>
<!-- Node2&#45;&gt;Node6 -->
<g id="edge6" class="edge">
<title>Node2&#45;&gt;Node6</title>
<path fill="none" stroke="midnightblue" d="M605.97,-224.32C594.41,-216.11 576.81,-203.6 563.02,-193.81"/>
<polygon fill="midnightblue" stroke="midnightblue" points="564.79,-190.77 554.61,-187.83 560.74,-196.48 564.79,-190.77"/>
</g>
<!-- Node7 -->
<g id="node7" class="node">
<title>Node7</title>
<g id="a_node7"><a xlink:href="libccc__naming_8h.html" target="_top" xlink:title=" ">
<polygon fill="white" stroke="black" points="703.68,-112.5 703.68,-131.5 798.68,-131.5 798.68,-112.5 703.68,-112.5"/>
<text text-anchor="middle" x="751.18" y="-119.5" font-family="Consolas" font-size="10.00">libccc_naming.h</text>
</a>
</g>
</g>
<!-- Node2&#45;&gt;Node7 -->
<g id="edge9" class="edge">
<title>Node2&#45;&gt;Node7</title>
<path fill="none" stroke="midnightblue" d="M634.16,-224.37C649.06,-215.99 671.58,-202.44 689.18,-188 707.36,-173.09 725.62,-153.21 737.57,-139.37"/>
<polygon fill="midnightblue" stroke="midnightblue" points="740.33,-141.53 744.14,-131.64 735,-137 740.33,-141.53"/>
</g>
<!-- Node4 -->
<g id="node4" class="node">
<title>Node4</title>
<g id="a_node4"><a xlink:title=" ">
<polygon fill="white" stroke="#bfbfbf" points="640.68,-0.5 640.68,-19.5 709.68,-19.5 709.68,-0.5 640.68,-0.5"/>
<text text-anchor="middle" x="675.18" y="-7.5" font-family="Consolas" font-size="10.00">stdalign.h</text>
</a>
</g>
</g>
<!-- Node3&#45;&gt;Node4 -->
<g id="edge3" class="edge">
<title>Node3&#45;&gt;Node4</title>
<path fill="none" stroke="midnightblue" d="M675.18,-56.08C675.18,-49.01 675.18,-38.86 675.18,-29.99"/>
<polygon fill="midnightblue" stroke="midnightblue" points="678.68,-29.75 675.18,-19.75 671.68,-29.75 678.68,-29.75"/>
</g>
<!-- Node5&#45;&gt;Node3 -->
<g id="edge5" class="edge">
<title>Node5&#45;&gt;Node3</title>
<path fill="none" stroke="midnightblue" d="M611.39,-112.32C622.96,-104.11 640.56,-91.6 654.34,-81.81"/>
<polygon fill="midnightblue" stroke="midnightblue" points="656.62,-84.48 662.75,-75.83 652.57,-78.77 656.62,-84.48"/>
</g>
<!-- Node6&#45;&gt;Node3 -->
<g id="edge7" class="edge">
<title>Node6&#45;&gt;Node3</title>
<path fill="none" stroke="midnightblue" d="M539.48,-168.45C535.79,-155.03 530.97,-128.79 543.18,-112 560.23,-88.56 590.2,-77.2 617.27,-71.75"/>
<polygon fill="midnightblue" stroke="midnightblue" points="618.24,-75.13 627.48,-69.94 617.02,-68.24 618.24,-75.13"/>
</g>
<!-- Node6&#45;&gt;Node5 -->
<g id="edge8" class="edge">
<title>Node6&#45;&gt;Node5</title>
<path fill="none" stroke="midnightblue" d="M551.34,-168.32C559.68,-160.42 572.21,-148.55 582.36,-138.94"/>
<polygon fill="midnightblue" stroke="midnightblue" points="585,-141.25 589.86,-131.83 580.19,-136.17 585,-141.25"/>
</g>
<!-- Node7&#45;&gt;Node3 -->
<g id="edge10" class="edge">
<title>Node7&#45;&gt;Node3</title>
<path fill="none" stroke="midnightblue" d="M738.97,-112.32C727.41,-104.11 709.81,-91.6 696.02,-81.81"/>
<polygon fill="midnightblue" stroke="midnightblue" points="697.79,-78.77 687.61,-75.83 693.74,-84.48 697.79,-78.77"/>
</g>
<!-- Node8&#45;&gt;Node2 -->
<g id="edge12" class="edge">
<title>Node8&#45;&gt;Node2</title>
<path fill="none" stroke="midnightblue" d="M620.54,-470.24C624.65,-442.36 636.22,-353.22 628.18,-280 627.21,-271.14 625.19,-261.47 623.22,-253.38"/>
<polygon fill="midnightblue" stroke="midnightblue" points="626.56,-252.33 620.66,-243.53 619.79,-254.09 626.56,-252.33"/>
</g>
<!-- Node9 -->
<g id="node9" class="node">
<title>Node9</title>
<g id="a_node9"><a xlink:href="string__ascii_8h.html" target="_top" xlink:title=" ">
<polygon fill="white" stroke="black" points="285.68,-403.5 285.68,-433.5 396.68,-433.5 396.68,-403.5 285.68,-403.5"/>
<text text-anchor="start" x="293.68" y="-421.5" font-family="Consolas" font-size="10.00">libccc/text/string</text>
<text text-anchor="middle" x="341.18" y="-410.5" font-family="Consolas" font-size="10.00">_ascii.h</text>
</a>
</g>
</g>
<!-- Node8&#45;&gt;Node9 -->
<g id="edge13" class="edge">
<title>Node8&#45;&gt;Node9</title>
<path fill="none" stroke="midnightblue" d="M579.35,-470.48C534.36,-460.85 460.44,-445.02 406.87,-433.56"/>
<polygon fill="midnightblue" stroke="midnightblue" points="407.29,-430.07 396.78,-431.4 405.82,-436.91 407.29,-430.07"/>
</g>
<!-- Node16 -->
<g id="node16" class="node">
<title>Node16</title>
<g id="a_node16"><a xlink:href="char_8h.html" target="_top" xlink:title=" ">
<polygon fill="white" stroke="black" points="529.68,-409 529.68,-428 614.68,-428 614.68,-409 529.68,-409"/>
<text text-anchor="middle" x="572.18" y="-416" font-family="Consolas" font-size="10.00">libccc/char.h</text>
</a>
</g>
</g>
<!-- Node8&#45;&gt;Node16 -->
<g id="edge25" class="edge">
<title>Node8&#45;&gt;Node16</title>
<path fill="none" stroke="midnightblue" d="M612.45,-470.48C605.4,-461.55 594.15,-447.31 585.33,-436.14"/>
<polygon fill="midnightblue" stroke="midnightblue" points="587.85,-433.69 578.9,-428.01 582.36,-438.03 587.85,-433.69"/>
</g>
<!-- Node9&#45;&gt;Node2 -->
<g id="edge14" class="edge">
<title>Node9&#45;&gt;Node2</title>
<path fill="none" stroke="midnightblue" d="M340.69,-403.35C340.84,-385.54 343.73,-355.01 360.18,-336 416.78,-270.6 521.15,-247.24 578.26,-239.13"/>
<polygon fill="midnightblue" stroke="midnightblue" points="578.91,-242.58 588.36,-237.79 577.98,-235.64 578.91,-242.58"/>
</g>
<!-- Node9&#45;&gt;Node10 -->
<g id="edge15" class="edge">
<title>Node9&#45;&gt;Node10</title>
<path fill="none" stroke="midnightblue" d="M293.93,-403.48C254.16,-391.67 197.99,-375 160.86,-363.98"/>
<polygon fill="midnightblue" stroke="midnightblue" points="161.5,-360.52 150.92,-361.03 159.51,-367.23 161.5,-360.52"/>
</g>
<!-- Node13 -->
<g id="node13" class="node">
<title>Node13</title>
<g id="a_node13"><a xlink:href="char__ascii_8h.html" target="_top" xlink:title=" ">
<polygon fill="white" stroke="black" points="369.68,-342 369.68,-361 512.68,-361 512.68,-342 369.68,-342"/>
<text text-anchor="middle" x="441.18" y="-349" font-family="Consolas" font-size="10.00">libccc/text/char_ascii.h</text>
</a>
</g>
</g>
<!-- Node9&#45;&gt;Node13 -->
<g id="edge19" class="edge">
<title>Node9&#45;&gt;Node13</title>
<path fill="none" stroke="midnightblue" d="M362.88,-403.4C379.65,-392.5 402.75,-377.48 419.51,-366.58"/>
<polygon fill="midnightblue" stroke="midnightblue" points="421.62,-369.39 428.09,-361.01 417.8,-363.52 421.62,-369.39"/>
</g>
<!-- Node14 -->
<g id="node14" class="node">
<title>Node14</title>
<g id="a_node14"><a xlink:href="string__utf8_8h.html" target="_top" xlink:title=" ">
<polygon fill="white" stroke="black" points="201.68,-336.5 201.68,-366.5 312.68,-366.5 312.68,-336.5 201.68,-336.5"/>
<text text-anchor="start" x="209.68" y="-354.5" font-family="Consolas" font-size="10.00">libccc/text/string</text>
<text text-anchor="middle" x="257.18" y="-343.5" font-family="Consolas" font-size="10.00">_utf8.h</text>
</a>
</g>
</g>
<!-- Node9&#45;&gt;Node14 -->
<g id="edge21" class="edge">
<title>Node9&#45;&gt;Node14</title>
<path fill="none" stroke="midnightblue" d="M322.95,-403.4C311.4,-394.45 296.26,-382.74 283.42,-372.8"/>
<polygon fill="midnightblue" stroke="midnightblue" points="285.42,-369.93 275.37,-366.58 281.14,-375.46 285.42,-369.93"/>
</g>
<!-- Node10&#45;&gt;Node2 -->
<g id="edge18" class="edge">
<title>Node10&#45;&gt;Node2</title>
<path fill="none" stroke="midnightblue" d="M83.17,-341.95C40.04,-330.81 -20,-309.25 7.18,-280 46,-238.22 448.62,-234.86 578.22,-234.87"/>
<polygon fill="midnightblue" stroke="midnightblue" points="578.49,-238.37 588.49,-234.88 578.5,-231.37 578.49,-238.37"/>
</g>
<!-- Node11 -->
<g id="node11" class="node">
<title>Node11</title>
<g id="a_node11"><a xlink:title=" ">
<polygon fill="white" stroke="#bfbfbf" points="16.68,-280.5 16.68,-299.5 75.68,-299.5 75.68,-280.5 16.68,-280.5"/>
<text text-anchor="middle" x="46.18" y="-287.5" font-family="Consolas" font-size="10.00">stdarg.h</text>
</a>
</g>
</g>
<!-- Node10&#45;&gt;Node11 -->
<g id="edge16" class="edge">
<title>Node10&#45;&gt;Node11</title>
<path fill="none" stroke="midnightblue" d="M111.29,-341.98C99.22,-332.52 79.51,-317.1 64.94,-305.69"/>
<polygon fill="midnightblue" stroke="midnightblue" points="67.08,-302.92 57.05,-299.51 62.77,-308.43 67.08,-302.92"/>
</g>
<!-- Node12 -->
<g id="node12" class="node">
<title>Node12</title>
<g id="a_node12"><a xlink:title=" ">
<polygon fill="white" stroke="#bfbfbf" points="93.68,-280.5 93.68,-299.5 162.68,-299.5 162.68,-280.5 93.68,-280.5"/>
<text text-anchor="middle" x="128.18" y="-287.5" font-family="Consolas" font-size="10.00">inttypes.h</text>
</a>
</g>
</g>
<!-- Node10&#45;&gt;Node12 -->
<g id="edge17" class="edge">
<title>Node10&#45;&gt;Node12</title>
<path fill="none" stroke="midnightblue" d="M123.04,-341.98C123.89,-333.58 125.21,-320.48 126.3,-309.66"/>
<polygon fill="midnightblue" stroke="midnightblue" points="129.8,-309.81 127.32,-299.51 122.84,-309.11 129.8,-309.81"/>
</g>
<!-- Node13&#45;&gt;Node2 -->
<g id="edge20" class="edge">
<title>Node13&#45;&gt;Node2</title>
<path fill="none" stroke="midnightblue" d="M454.49,-341.82C484.72,-322.09 558.88,-273.7 596.1,-249.41"/>
<polygon fill="midnightblue" stroke="midnightblue" points="598.26,-252.18 604.72,-243.78 594.44,-246.32 598.26,-252.18"/>
</g>
<!-- Node14&#45;&gt;Node2 -->
<g id="edge22" class="edge">
<title>Node14&#45;&gt;Node2</title>
<path fill="none" stroke="midnightblue" d="M280.91,-336.38C312,-318.08 365.05,-287.61 386.18,-280 451.31,-256.53 531.38,-244.45 578.39,-238.94"/>
<polygon fill="midnightblue" stroke="midnightblue" points="578.93,-242.4 588.47,-237.8 578.14,-235.45 578.93,-242.4"/>
</g>
<!-- Node15 -->
<g id="node15" class="node">
<title>Node15</title>
<g id="a_node15"><a xlink:href="char__unicode_8h.html" target="_top" xlink:title=" ">
<polygon fill="white" stroke="black" points="180.68,-280.5 180.68,-299.5 333.68,-299.5 333.68,-280.5 180.68,-280.5"/>
<text text-anchor="middle" x="257.18" y="-287.5" font-family="Consolas" font-size="10.00">libccc/text/char_unicode.h</text>
</a>
</g>
</g>
<!-- Node14&#45;&gt;Node15 -->
<g id="edge23" class="edge">
<title>Node14&#45;&gt;Node15</title>
<path fill="none" stroke="midnightblue" d="M257.18,-336.4C257.18,-328.47 257.18,-318.46 257.18,-309.86"/>
<polygon fill="midnightblue" stroke="midnightblue" points="260.68,-309.66 257.18,-299.66 253.68,-309.66 260.68,-309.66"/>
</g>
<!-- Node15&#45;&gt;Node2 -->
<g id="edge24" class="edge">
<title>Node15&#45;&gt;Node2</title>
<path fill="none" stroke="midnightblue" d="M314.38,-280.44C388.02,-269.43 514.1,-250.57 578.21,-240.98"/>
<polygon fill="midnightblue" stroke="midnightblue" points="578.95,-244.41 588.32,-239.47 577.92,-237.48 578.95,-244.41"/>
</g>
<!-- Node16&#45;&gt;Node2 -->
<g id="edge27" class="edge">
<title>Node16&#45;&gt;Node2</title>
<path fill="none" stroke="midnightblue" d="M577.94,-408.98C584.21,-399.26 594.04,-382.68 599.18,-367 611.95,-328.08 616.14,-279.92 617.52,-253.87"/>
<polygon fill="midnightblue" stroke="midnightblue" points="621.03,-253.72 617.97,-243.57 614.03,-253.41 621.03,-253.72"/>
</g>
<!-- Node16&#45;&gt;Node13 -->
<g id="edge28" class="edge">
<title>Node16&#45;&gt;Node13</title>
<path fill="none" stroke="midnightblue" d="M554.79,-408.87C532.57,-397.84 493.89,-378.66 467.92,-365.77"/>
<polygon fill="midnightblue" stroke="midnightblue" points="469.16,-362.48 458.65,-361.17 466.05,-368.75 469.16,-362.48"/>
</g>
<!-- Node17 -->
<g id="node17" class="node">
<title>Node17</title>
<g id="a_node17"><a xlink:title=" ">
<polygon fill="white" stroke="#bfbfbf" points="530.68,-342 530.68,-361 589.68,-361 589.68,-342 530.68,-342"/>
<text text-anchor="middle" x="560.18" y="-349" font-family="Consolas" font-size="10.00">stdint.h</text>
</a>
</g>
</g>
<!-- Node16&#45;&gt;Node17 -->
<g id="edge26" class="edge">
<title>Node16&#45;&gt;Node17</title>
<path fill="none" stroke="midnightblue" d="M570.56,-408.73C568.8,-399.18 565.93,-383.62 563.65,-371.28"/>
<polygon fill="midnightblue" stroke="midnightblue" points="567.03,-370.33 561.77,-361.13 560.15,-371.6 567.03,-370.33"/>
</g>
<!-- Node18&#45;&gt;Node2 -->
<g id="edge32" class="edge">
<title>Node18&#45;&gt;Node2</title>
<path fill="none" stroke="midnightblue" d="M766.31,-341.91C766.05,-327.29 763.41,-297.45 747.18,-280 724.09,-255.17 686.57,-244.04 657.93,-239.05"/>
<polygon fill="midnightblue" stroke="midnightblue" points="658.24,-235.56 647.82,-237.48 657.16,-242.47 658.24,-235.56"/>
</g>
<!-- Node19 -->
<g id="node19" class="node">
<title>Node19</title>
<g id="a_node19"><a xlink:title=" ">
<polygon fill="white" stroke="#bfbfbf" points="684.68,-280.5 684.68,-299.5 737.68,-299.5 737.68,-280.5 684.68,-280.5"/>
<text text-anchor="middle" x="711.18" y="-287.5" font-family="Consolas" font-size="10.00">fcntl.h</text>
</a>
</g>
</g>
<!-- Node18&#45;&gt;Node19 -->
<g id="edge31" class="edge">
<title>Node18&#45;&gt;Node19</title>
<path fill="none" stroke="midnightblue" d="M758.3,-341.98C749.89,-332.87 736.36,-318.24 725.96,-306.98"/>
<polygon fill="midnightblue" stroke="midnightblue" points="728.41,-304.48 719.05,-299.51 723.27,-309.23 728.41,-304.48"/>
</g>
<!-- Node20 -->
<g id="node20" class="node">
<title>Node20</title>
<g id="a_node20"><a xlink:href="ansi_8h.html" target="_top" xlink:title=" ">
<polygon fill="white" stroke="black" points="866.18,-224.5 866.18,-243.5 972.18,-243.5 972.18,-224.5 866.18,-224.5"/>
<text text-anchor="middle" x="919.18" y="-231.5" font-family="Consolas" font-size="10.00">libccc/sys/ansi.h</text>
</a>
</g>
</g>
<!-- Node18&#45;&gt;Node20 -->
<g id="edge33" class="edge">
<title>Node18&#45;&gt;Node20</title>
<path fill="none" stroke="midnightblue" d="M813.69,-349.59C850.68,-346.07 899.87,-334.6 925.18,-300 934.99,-286.59 931.6,-267.22 926.9,-253.11"/>
<polygon fill="midnightblue" stroke="midnightblue" points="930.09,-251.64 923.26,-243.54 923.55,-254.13 930.09,-251.64"/>
</g>
<!-- Node21 -->
<g id="node21" class="node">
<title>Node21</title>
<g id="a_node21"><a xlink:href="color_8h.html" target="_top" xlink:title=" ">
<polygon fill="white" stroke="black" points="794.18,-280.5 794.18,-299.5 916.18,-299.5 916.18,-280.5 794.18,-280.5"/>
<text text-anchor="middle" x="855.18" y="-287.5" font-family="Consolas" font-size="10.00">libccc/image/color.h</text>
</a>
</g>
</g>
<!-- Node18&#45;&gt;Node21 -->
<g id="edge35" class="edge">
<title>Node18&#45;&gt;Node21</title>
<path fill="none" stroke="midnightblue" d="M778.93,-341.98C793.21,-332.43 816.58,-316.81 833.69,-305.37"/>
<polygon fill="midnightblue" stroke="midnightblue" points="836.09,-307.98 842.45,-299.51 832.2,-302.16 836.09,-307.98"/>
</g>
<!-- Node20&#45;&gt;Node3 -->
<g id="edge34" class="edge">
<title>Node20&#45;&gt;Node3</title>
<path fill="none" stroke="midnightblue" d="M913.55,-224.3C898.87,-202.3 857.15,-143.9 808.18,-112 783.75,-96.08 753.11,-85.22 727.4,-78.16"/>
<polygon fill="midnightblue" stroke="midnightblue" points="728.01,-74.7 717.45,-75.54 726.23,-81.47 728.01,-74.7"/>
</g>
<!-- Node21&#45;&gt;Node2 -->
<g id="edge36" class="edge">
<title>Node21&#45;&gt;Node2</title>
<path fill="none" stroke="midnightblue" d="M817.63,-280.44C773.91,-270.48 702.05,-254.11 657.57,-243.97"/>
<polygon fill="midnightblue" stroke="midnightblue" points="658.22,-240.53 647.7,-241.73 656.67,-247.36 658.22,-240.53"/>
</g>
</g>
</svg>
        <g id="navigator" transform="translate(0 0)" fill="#404254">
                <rect fill="#f2f5e9" fill-opacity="0.5" stroke="#606060" stroke-width=".5" x="0" y="0" width="60" height="60"/>
                <use id="zoomplus" xlink:href="#zoomPlus" x="17" y="9" onmousedown="handleZoom(evt,'in')"/>
                <use id="zoomminus" xlink:href="#zoomMin" x="42" y="9" onmousedown="handleZoom(evt,'out')"/>
                <use id="reset" xlink:href="#resetDef" x="30" y="36" onmousedown="handleReset()"/>
                <g id="arrowUp" xlink:href="#dirArrow" transform="translate(30 24)" onmousedown="handlePan(0,-1)">
                  <use xlink:href="#rim" fill="#404040">
                        <set attributeName="fill" to="#808080" begin="arrowUp.mouseover" end="arrowUp.mouseout"/>
                  </use>
                  <path fill="none" stroke="white" stroke-width="1.5" d="M0,-3.0v7 M-2.5,-0.5L0,-3.0L2.5,-0.5"/>
                </g>
                <g id="arrowRight" xlink:href="#dirArrow" transform="rotate(90) translate(36 -43)" onmousedown="handlePan(1,0)">
                  <use xlink:href="#rim" fill="#404040">
                        <set attributeName="fill" to="#808080" begin="arrowRight.mouseover" end="arrowRight.mouseout"/>
                  </use>
                  <path fill="none" stroke="white" stroke-width="1.5" d="M0,-3.0v7 M-2.5,-0.5L0,-3.0L2.5,-0.5"/>
                </g>
                <g id="arrowDown" xlink:href="#dirArrow" transform="rotate(180) translate(-30 -48)" onmousedown="handlePan(0,1)">
                  <use xlink:href="#rim" fill="#404040">
                        <set attributeName="fill" to="#808080" begin="arrowDown.mouseover" end="arrowDown.mouseout"/>
                  </use>
                  <path fill="none" stroke="white" stroke-width="1.5" d="M0,-3.0v7 M-2.5,-0.5L0,-3.0L2.5,-0.5"/>
                </g>
                <g id="arrowLeft" xlink:href="#dirArrow" transform="rotate(270) translate(-36 17)" onmousedown="handlePan(-1,0)">
                  <use xlink:href="#rim" fill="#404040">
                        <set attributeName="fill" to="#808080" begin="arrowLeft.mouseover" end="arrowLeft.mouseout"/>
                  </use>
                  <path fill="none" stroke="white" stroke-width="1.5" d="M0,-3.0v7 M-2.5,-0.5L0,-3.0L2.5,-0.5"/>
                </g>
        </g>
        <svg viewBox="0 0 15 15" width="100%" height="30px" preserveAspectRatio="xMaxYMin meet">
         <g id="arrow_out" transform="scale(0.3 0.3)">
          <a xlink:href="error_8h__incl_org.svg" target="_base">
           <rect id="button" ry="5" rx="5" y="6" x="6" height="38" width="38"
                fill="#f2f5e9" fill-opacity="0.5" stroke="#606060" stroke-width="1.0"/>
           <path id="arrow"
             d="M 11.500037,31.436501 C 11.940474,20.09759 22.043105,11.32322 32.158766,21.979434 L 37.068811,17.246167 C 37.068811,17.246167 37.088388,32 37.088388,32 L 22.160133,31.978069 C 22.160133,31.978069 26.997745,27.140456 26.997745,27.140456 C 18.528582,18.264221 13.291696,25.230495 11.500037,31.436501 z"
             style="fill:#404040;"/>
          </a>
         </g>
        </svg>
</svg>
