<?xml version="1.0" encoding="UTF-8" standalone="no"?>
<!DOCTYPE svg PUBLIC "-//W3C//DTD SVG 1.1//EN"
 "http://www.w3.org/Graphics/SVG/1.1/DTD/svg11.dtd">
<!-- Generated by graphviz version 2.43.0 (0)
 -->
<!-- Title: libccc/sys/error.h Pages: 1 -->
<svg width="964pt" height="420pt"
 viewBox="0.00 0.00 963.50 420.00" xmlns="http://www.w3.org/2000/svg" xmlns:xlink="http://www.w3.org/1999/xlink">
<g id="graph0" class="graph" transform="scale(1 1) rotate(0) translate(4 416)">
<title>libccc/sys/error.h</title>
<polygon fill="white" stroke="transparent" points="-4,4 -4,-416 959.5,-416 959.5,4 -4,4"/>
<!-- Node1 -->
<g id="node1" class="node">
<title>Node1</title>
<g id="a_node1"><a xlink:title=" ">
<polygon fill="#bfbfbf" stroke="black" points="125,-392.5 125,-411.5 236,-411.5 236,-392.5 125,-392.5"/>
<text text-anchor="middle" x="180.5" y="-399.5" font-family="Consolas" font-size="10.00">libccc/sys/error.h</text>
</a>
</g>
</g>
<!-- Node2 -->
<g id="node2" class="node">
<title>Node2</title>
<g id="a_node2"><a xlink:href="libccc_8h.html" target="_top" xlink:title=" ">
<polygon fill="white" stroke="black" points="246,-224.5 246,-243.5 305,-243.5 305,-224.5 246,-224.5"/>
<text text-anchor="middle" x="275.5" y="-231.5" font-family="Consolas" font-size="10.00">libccc.h</text>
</a>
</g>
</g>
<!-- Node1&#45;&gt;Node2 -->
<g id="edge1" class="edge">
<title>Node1&#45;&gt;Node2</title>
<path fill="none" stroke="midnightblue" d="M184.23,-392.33C194.69,-368.15 224.39,-300.42 237.5,-280 244.05,-269.8 252.67,-259.4 260.05,-251.18"/>
<polygon fill="midnightblue" stroke="midnightblue" points="262.69,-253.48 266.89,-243.76 257.54,-248.74 262.69,-253.48"/>
</g>
<!-- Node17 -->
<g id="node17" class="node">
<title>Node17</title>
<g id="a_node17"><a xlink:href="string_8h.html" target="_top" xlink:title=" ">
<polygon fill="white" stroke="black" points="95,-336.5 95,-355.5 190,-355.5 190,-336.5 95,-336.5"/>
<text text-anchor="middle" x="142.5" y="-343.5" font-family="Consolas" font-size="10.00">libccc/string.h</text>
</a>
</g>
</g>
<!-- Node1&#45;&gt;Node17 -->
<g id="edge24" class="edge">
<title>Node1&#45;&gt;Node17</title>
<path fill="none" stroke="midnightblue" d="M174.23,-392.08C168.86,-384.46 160.98,-373.26 154.42,-363.94"/>
<polygon fill="midnightblue" stroke="midnightblue" points="157.28,-361.91 148.66,-355.75 151.55,-365.94 157.28,-361.91"/>
</g>
<!-- Node18 -->
<g id="node18" class="node">
<title>Node18</title>
<g id="a_node18"><a xlink:href="format_8h.html" target="_top" xlink:title=" ">
<polygon fill="white" stroke="black" points="57,-280.5 57,-299.5 152,-299.5 152,-280.5 57,-280.5"/>
<text text-anchor="middle" x="104.5" y="-287.5" font-family="Consolas" font-size="10.00">libccc/format.h</text>
</a>
</g>
</g>
<!-- Node1&#45;&gt;Node18 -->
<g id="edge30" class="edge">
<title>Node1&#45;&gt;Node18</title>
<path fill="none" stroke="midnightblue" d="M139.45,-392.38C119.54,-385.92 97.41,-374.81 85.5,-356 76.2,-341.31 83.99,-321.9 92.22,-308.13"/>
<polygon fill="midnightblue" stroke="midnightblue" points="95.24,-309.91 97.79,-299.62 89.38,-306.07 95.24,-309.91"/>
</g>
<!-- Node21 -->
<g id="node21" class="node">
<title>Node21</title>
<g id="a_node21"><a xlink:href="io_8h.html" target="_top" xlink:title=" ">
<polygon fill="white" stroke="black" points="349,-336.5 349,-355.5 444,-355.5 444,-336.5 349,-336.5"/>
<text text-anchor="middle" x="396.5" y="-343.5" font-family="Consolas" font-size="10.00">libccc/sys/io.h</text>
</a>
</g>
</g>
<!-- Node1&#45;&gt;Node21 -->
<g id="edge31" class="edge">
<title>Node1&#45;&gt;Node21</title>
<path fill="none" stroke="midnightblue" d="M214.73,-392.44C252.01,-383.12 311.77,-368.18 352.51,-358"/>
<polygon fill="midnightblue" stroke="midnightblue" points="353.58,-361.34 362.43,-355.52 351.88,-354.55 353.58,-361.34"/>
</g>
<!-- Node3 -->
<g id="node3" class="node">
<title>Node3</title>
<g id="a_node3"><a xlink:href="libccc__define_8h.html" target="_top" xlink:title=" ">
<polygon fill="white" stroke="black" points="114,-56.5 114,-75.5 209,-75.5 209,-56.5 114,-56.5"/>
<text text-anchor="middle" x="161.5" y="-63.5" font-family="Consolas" font-size="10.00">libccc_define.h</text>
</a>
</g>
</g>
<!-- Node2&#45;&gt;Node3 -->
<g id="edge2" class="edge">
<title>Node2&#45;&gt;Node3</title>
<path fill="none" stroke="midnightblue" d="M245.8,-227.05C210.72,-219.34 155.58,-204.88 143.5,-188 121.34,-157.03 139.05,-110.09 151.65,-84.74"/>
<polygon fill="midnightblue" stroke="midnightblue" points="154.91,-86.07 156.45,-75.59 148.71,-82.82 154.91,-86.07"/>
</g>
<!-- Node5 -->
<g id="node5" class="node">
<title>Node5</title>
<g id="a_node5"><a xlink:href="libccc__errors_8h.html" target="_top" xlink:title=" ">
<polygon fill="white" stroke="black" points="190,-112.5 190,-131.5 285,-131.5 285,-112.5 190,-112.5"/>
<text text-anchor="middle" x="237.5" y="-119.5" font-family="Consolas" font-size="10.00">libccc_errors.h</text>
</a>
</g>
</g>
<!-- Node2&#45;&gt;Node5 -->
<g id="edge4" class="edge">
<title>Node2&#45;&gt;Node5</title>
<path fill="none" stroke="midnightblue" d="M273.35,-224.49C270.11,-211.97 263.6,-187.94 256.5,-168 253.26,-158.9 249.14,-148.99 245.57,-140.79"/>
<polygon fill="midnightblue" stroke="midnightblue" points="248.7,-139.22 241.44,-131.51 242.31,-142.07 248.7,-139.22"/>
</g>
<!-- Node6 -->
<g id="node6" class="node">
<title>Node6</title>
<g id="a_node6"><a xlink:href="libccc__config_8h.html" target="_top" xlink:title=" ">
<polygon fill="white" stroke="black" points="152,-168.5 152,-187.5 247,-187.5 247,-168.5 152,-168.5"/>
<text text-anchor="middle" x="199.5" y="-175.5" font-family="Consolas" font-size="10.00">libccc_config.h</text>
</a>
</g>
</g>
<!-- Node2&#45;&gt;Node6 -->
<g id="edge6" class="edge">
<title>Node2&#45;&gt;Node6</title>
<path fill="none" stroke="midnightblue" d="M263.29,-224.32C251.72,-216.11 234.12,-203.6 220.34,-193.81"/>
<polygon fill="midnightblue" stroke="midnightblue" points="222.11,-190.77 211.93,-187.83 218.06,-196.48 222.11,-190.77"/>
</g>
<!-- Node7 -->
<g id="node7" class="node">
<title>Node7</title>
<g id="a_node7"><a xlink:href="libccc__naming_8h.html" target="_top" xlink:title=" ">
<polygon fill="white" stroke="black" points="0,-168.5 0,-187.5 95,-187.5 95,-168.5 0,-168.5"/>
<text text-anchor="middle" x="47.5" y="-175.5" font-family="Consolas" font-size="10.00">libccc_naming.h</text>
</a>
</g>
</g>
<!-- Node2&#45;&gt;Node7 -->
<g id="edge9" class="edge">
<title>Node2&#45;&gt;Node7</title>
<path fill="none" stroke="midnightblue" d="M245.69,-225.94C206.98,-216.77 138.99,-200.67 93.6,-189.92"/>
<polygon fill="midnightblue" stroke="midnightblue" points="94.25,-186.47 83.71,-187.58 92.63,-193.29 94.25,-186.47"/>
</g>
<!-- Node8 -->
<g id="node8" class="node">
<title>Node8</title>
<g id="a_node8"><a xlink:href="math_8h.html" target="_top" xlink:title=" ">
<polygon fill="white" stroke="black" points="569.5,-168.5 569.5,-187.5 617.5,-187.5 617.5,-168.5 569.5,-168.5"/>
<text text-anchor="middle" x="593.5" y="-175.5" font-family="Consolas" font-size="10.00">math.h</text>
</a>
</g>
</g>
<!-- Node2&#45;&gt;Node8 -->
<g id="edge11" class="edge">
<title>Node2&#45;&gt;Node8</title>
<path fill="none" stroke="midnightblue" d="M305.13,-227.97C364.16,-217.94 496.15,-195.53 558.98,-184.86"/>
<polygon fill="midnightblue" stroke="midnightblue" points="559.89,-188.26 569.16,-183.13 558.72,-181.36 559.89,-188.26"/>
</g>
<!-- Node4 -->
<g id="node4" class="node">
<title>Node4</title>
<g id="a_node4"><a xlink:title=" ">
<polygon fill="white" stroke="#bfbfbf" points="127,-0.5 127,-19.5 196,-19.5 196,-0.5 127,-0.5"/>
<text text-anchor="middle" x="161.5" y="-7.5" font-family="Consolas" font-size="10.00">stdalign.h</text>
</a>
</g>
</g>
<!-- Node3&#45;&gt;Node4 -->
<g id="edge3" class="edge">
<title>Node3&#45;&gt;Node4</title>
<path fill="none" stroke="midnightblue" d="M161.5,-56.08C161.5,-49.01 161.5,-38.86 161.5,-29.99"/>
<polygon fill="midnightblue" stroke="midnightblue" points="165,-29.75 161.5,-19.75 158,-29.75 165,-29.75"/>
</g>
<!-- Node5&#45;&gt;Node3 -->
<g id="edge5" class="edge">
<title>Node5&#45;&gt;Node3</title>
<path fill="none" stroke="midnightblue" d="M225.29,-112.32C213.72,-104.11 196.12,-91.6 182.34,-81.81"/>
<polygon fill="midnightblue" stroke="midnightblue" points="184.11,-78.77 173.93,-75.83 180.06,-84.48 184.11,-78.77"/>
</g>
<!-- Node6&#45;&gt;Node3 -->
<g id="edge7" class="edge">
<title>Node6&#45;&gt;Node3</title>
<path fill="none" stroke="midnightblue" d="M195.84,-168.45C192.04,-159.46 186.04,-144.85 181.5,-132 176.03,-116.52 170.6,-98.68 166.78,-85.61"/>
<polygon fill="midnightblue" stroke="midnightblue" points="170.12,-84.55 163.99,-75.91 163.4,-86.48 170.12,-84.55"/>
</g>
<!-- Node6&#45;&gt;Node5 -->
<g id="edge8" class="edge">
<title>Node6&#45;&gt;Node5</title>
<path fill="none" stroke="midnightblue" d="M205.77,-168.08C211.14,-160.46 219.02,-149.26 225.58,-139.94"/>
<polygon fill="midnightblue" stroke="midnightblue" points="228.45,-141.94 231.34,-131.75 222.72,-137.91 228.45,-141.94"/>
</g>
<!-- Node7&#45;&gt;Node3 -->
<g id="edge10" class="edge">
<title>Node7&#45;&gt;Node3</title>
<path fill="none" stroke="midnightblue" d="M55.27,-168.33C66.78,-155.63 89.18,-131.36 109.5,-112 120.3,-101.71 132.96,-90.74 143.07,-82.2"/>
<polygon fill="midnightblue" stroke="midnightblue" points="145.45,-84.78 150.88,-75.68 140.96,-79.41 145.45,-84.78"/>
</g>
<!-- Node9 -->
<g id="node9" class="node">
<title>Node9</title>
<g id="a_node9"><a xlink:href="constants_8h.html" target="_top" xlink:title=" ">
<polygon fill="white" stroke="black" points="380,-112.5 380,-131.5 517,-131.5 517,-112.5 380,-112.5"/>
<text text-anchor="middle" x="448.5" y="-119.5" font-family="Consolas" font-size="10.00">libccc/math/constants.h</text>
</a>
</g>
</g>
<!-- Node8&#45;&gt;Node9 -->
<g id="edge12" class="edge">
<title>Node8&#45;&gt;Node9</title>
<path fill="none" stroke="midnightblue" d="M570.52,-168.44C546.34,-159.44 508.08,-145.19 480.85,-135.05"/>
<polygon fill="midnightblue" stroke="midnightblue" points="481.96,-131.73 471.37,-131.52 479.52,-138.29 481.96,-131.73"/>
</g>
<!-- Node11 -->
<g id="node11" class="node">
<title>Node11</title>
<g id="a_node11"><a xlink:href="math_2int_8h.html" target="_top" xlink:title=" ">
<polygon fill="white" stroke="black" points="803.5,-112.5 803.5,-131.5 909.5,-131.5 909.5,-112.5 803.5,-112.5"/>
<text text-anchor="middle" x="856.5" y="-119.5" font-family="Consolas" font-size="10.00">libccc/math/int.h</text>
</a>
</g>
</g>
<!-- Node8&#45;&gt;Node11 -->
<g id="edge15" class="edge">
<title>Node8&#45;&gt;Node11</title>
<path fill="none" stroke="midnightblue" d="M617.77,-172.02C660.12,-163.32 748.37,-145.2 804.9,-133.6"/>
<polygon fill="midnightblue" stroke="midnightblue" points="805.63,-137.02 814.72,-131.58 804.22,-130.16 805.63,-137.02"/>
</g>
<!-- Node14 -->
<g id="node14" class="node">
<title>Node14</title>
<g id="a_node14"><a xlink:href="math_2fixed_8h.html" target="_top" xlink:title=" ">
<polygon fill="white" stroke="black" points="669.5,-112.5 669.5,-131.5 785.5,-131.5 785.5,-112.5 669.5,-112.5"/>
<text text-anchor="middle" x="727.5" y="-119.5" font-family="Consolas" font-size="10.00">libccc/math/fixed.h</text>
</a>
</g>
</g>
<!-- Node8&#45;&gt;Node14 -->
<g id="edge19" class="edge">
<title>Node8&#45;&gt;Node14</title>
<path fill="none" stroke="midnightblue" d="M614.73,-168.44C636.88,-159.52 671.82,-145.44 696.94,-135.32"/>
<polygon fill="midnightblue" stroke="midnightblue" points="698.4,-138.5 706.37,-131.52 695.78,-132.01 698.4,-138.5"/>
</g>
<!-- Node16 -->
<g id="node16" class="node">
<title>Node16</title>
<g id="a_node16"><a xlink:href="math_2float_8h.html" target="_top" xlink:title=" ">
<polygon fill="white" stroke="black" points="535.5,-112.5 535.5,-131.5 651.5,-131.5 651.5,-112.5 535.5,-112.5"/>
<text text-anchor="middle" x="593.5" y="-119.5" font-family="Consolas" font-size="10.00">libccc/math/float.h</text>
</a>
</g>
</g>
<!-- Node8&#45;&gt;Node16 -->
<g id="edge22" class="edge">
<title>Node8&#45;&gt;Node16</title>
<path fill="none" stroke="midnightblue" d="M593.5,-168.08C593.5,-161.01 593.5,-150.86 593.5,-141.99"/>
<polygon fill="midnightblue" stroke="midnightblue" points="597,-141.75 593.5,-131.75 590,-141.75 597,-141.75"/>
</g>
<!-- Node10 -->
<g id="node10" class="node">
<title>Node10</title>
<g id="a_node10"><a xlink:href="float_8h.html" target="_top" xlink:title=" ">
<polygon fill="white" stroke="black" points="403.5,-56.5 403.5,-75.5 493.5,-75.5 493.5,-56.5 403.5,-56.5"/>
<text text-anchor="middle" x="448.5" y="-63.5" font-family="Consolas" font-size="10.00">libccc/float.h</text>
</a>
</g>
</g>
<!-- Node9&#45;&gt;Node10 -->
<g id="edge13" class="edge">
<title>Node9&#45;&gt;Node10</title>
<path fill="none" stroke="midnightblue" d="M448.5,-112.08C448.5,-105.01 448.5,-94.86 448.5,-85.99"/>
<polygon fill="midnightblue" stroke="midnightblue" points="452,-85.75 448.5,-75.75 445,-85.75 452,-85.75"/>
</g>
<!-- Node10&#45;&gt;Node2 -->
<g id="edge14" class="edge">
<title>Node10&#45;&gt;Node2</title>
<path fill="none" stroke="midnightblue" d="M429.5,-75.61C413.09,-83.61 389.28,-96.58 371.5,-112 335.02,-143.64 302.36,-190.65 286.19,-215.74"/>
<polygon fill="midnightblue" stroke="midnightblue" points="283.05,-214.17 280.66,-224.49 288.96,-217.91 283.05,-214.17"/>
</g>
<!-- Node12 -->
<g id="node12" class="node">
<title>Node12</title>
<g id="a_node12"><a xlink:href="int_8h.html" target="_top" xlink:title=" ">
<polygon fill="white" stroke="black" points="875.5,-56.5 875.5,-75.5 955.5,-75.5 955.5,-56.5 875.5,-56.5"/>
<text text-anchor="middle" x="915.5" y="-63.5" font-family="Consolas" font-size="10.00">libccc/int.h</text>
</a>
</g>
</g>
<!-- Node11&#45;&gt;Node12 -->
<g id="edge16" class="edge">
<title>Node11&#45;&gt;Node12</title>
<path fill="none" stroke="midnightblue" d="M865.98,-112.32C874.7,-104.34 887.84,-92.31 898.4,-82.65"/>
<polygon fill="midnightblue" stroke="midnightblue" points="900.83,-85.17 905.85,-75.83 896.11,-80 900.83,-85.17"/>
</g>
<!-- Node12&#45;&gt;Node2 -->
<g id="edge18" class="edge">
<title>Node12&#45;&gt;Node2</title>
<path fill="none" stroke="midnightblue" d="M922.45,-75.86C931.68,-88.8 945.73,-113.37 935.5,-132 913.19,-172.64 891.52,-173.46 847.5,-188 740.88,-223.22 455.21,-212.63 343.5,-224 334.38,-224.93 324.59,-226.11 315.36,-227.32"/>
<polygon fill="midnightblue" stroke="midnightblue" points="314.69,-223.87 305.24,-228.67 315.62,-230.81 314.69,-223.87"/>
</g>
<!-- Node13 -->
<g id="node13" class="node">
<title>Node13</title>
<g id="a_node13"><a xlink:title=" ">
<polygon fill="white" stroke="#bfbfbf" points="886,-0.5 886,-19.5 945,-19.5 945,-0.5 886,-0.5"/>
<text text-anchor="middle" x="915.5" y="-7.5" font-family="Consolas" font-size="10.00">stdint.h</text>
</a>
</g>
</g>
<!-- Node12&#45;&gt;Node13 -->
<g id="edge17" class="edge">
<title>Node12&#45;&gt;Node13</title>
<path fill="none" stroke="midnightblue" d="M915.5,-56.08C915.5,-49.01 915.5,-38.86 915.5,-29.99"/>
<polygon fill="midnightblue" stroke="midnightblue" points="919,-29.75 915.5,-19.75 912,-29.75 919,-29.75"/>
</g>
<!-- Node15 -->
<g id="node15" class="node">
<title>Node15</title>
<g id="a_node15"><a xlink:href="fixed_8h.html" target="_top" xlink:title=" ">
<polygon fill="white" stroke="black" points="724.5,-56.5 724.5,-75.5 814.5,-75.5 814.5,-56.5 724.5,-56.5"/>
<text text-anchor="middle" x="769.5" y="-63.5" font-family="Consolas" font-size="10.00">libccc/fixed.h</text>
</a>
</g>
</g>
<!-- Node14&#45;&gt;Node15 -->
<g id="edge20" class="edge">
<title>Node14&#45;&gt;Node15</title>
<path fill="none" stroke="midnightblue" d="M734.44,-112.08C740.43,-104.38 749.25,-93.03 756.55,-83.65"/>
<polygon fill="midnightblue" stroke="midnightblue" points="759.32,-85.79 762.69,-75.75 753.79,-81.5 759.32,-85.79"/>
</g>
<!-- Node15&#45;&gt;Node2 -->
<g id="edge21" class="edge">
<title>Node15&#45;&gt;Node2</title>
<path fill="none" stroke="midnightblue" d="M814.73,-71.03C869.25,-77.63 949.87,-94.04 918.5,-132 836.06,-231.75 471.83,-207.35 343.5,-224 334.4,-225.18 324.63,-226.47 315.4,-227.68"/>
<polygon fill="midnightblue" stroke="midnightblue" points="314.74,-224.24 305.29,-229.02 315.66,-231.18 314.74,-224.24"/>
</g>
<!-- Node16&#45;&gt;Node10 -->
<g id="edge23" class="edge">
<title>Node16&#45;&gt;Node10</title>
<path fill="none" stroke="midnightblue" d="M570.52,-112.44C546.34,-103.44 508.08,-89.19 480.85,-79.05"/>
<polygon fill="midnightblue" stroke="midnightblue" points="481.96,-75.73 471.37,-75.52 479.52,-82.29 481.96,-75.73"/>
</g>
<!-- Node17&#45;&gt;Node2 -->
<g id="edge25" class="edge">
<title>Node17&#45;&gt;Node2</title>
<path fill="none" stroke="midnightblue" d="M149.55,-336.36C160.48,-323.26 182.55,-298 204.5,-280 218.94,-268.16 236.68,-256.91 250.82,-248.62"/>
<polygon fill="midnightblue" stroke="midnightblue" points="252.59,-251.64 259.52,-243.63 249.11,-245.57 252.59,-251.64"/>
</g>
<!-- Node17&#45;&gt;Node18 -->
<g id="edge26" class="edge">
<title>Node17&#45;&gt;Node18</title>
<path fill="none" stroke="midnightblue" d="M136.23,-336.08C130.86,-328.46 122.98,-317.26 116.42,-307.94"/>
<polygon fill="midnightblue" stroke="midnightblue" points="119.28,-305.91 110.66,-299.75 113.55,-309.94 119.28,-305.91"/>
</g>
<!-- Node18&#45;&gt;Node2 -->
<g id="edge29" class="edge">
<title>Node18&#45;&gt;Node2</title>
<path fill="none" stroke="midnightblue" d="M131.6,-280.44C160.49,-271.32 206.42,-256.81 238.61,-246.65"/>
<polygon fill="midnightblue" stroke="midnightblue" points="240.05,-249.87 248.53,-243.52 237.94,-243.19 240.05,-249.87"/>
</g>
<!-- Node19 -->
<g id="node19" class="node">
<title>Node19</title>
<g id="a_node19"><a xlink:title=" ">
<polygon fill="white" stroke="#bfbfbf" points="50,-224.5 50,-243.5 109,-243.5 109,-224.5 50,-224.5"/>
<text text-anchor="middle" x="79.5" y="-231.5" font-family="Consolas" font-size="10.00">stdarg.h</text>
</a>
</g>
</g>
<!-- Node18&#45;&gt;Node19 -->
<g id="edge27" class="edge">
<title>Node18&#45;&gt;Node19</title>
<path fill="none" stroke="midnightblue" d="M100.37,-280.08C96.99,-272.77 92.08,-262.18 87.88,-253.1"/>
<polygon fill="midnightblue" stroke="midnightblue" points="90.93,-251.36 83.55,-243.75 84.58,-254.3 90.93,-251.36"/>
</g>
<!-- Node20 -->
<g id="node20" class="node">
<title>Node20</title>
<g id="a_node20"><a xlink:title=" ">
<polygon fill="white" stroke="#bfbfbf" points="127,-224.5 127,-243.5 196,-243.5 196,-224.5 127,-224.5"/>
<text text-anchor="middle" x="161.5" y="-231.5" font-family="Consolas" font-size="10.00">inttypes.h</text>
</a>
</g>
</g>
<!-- Node18&#45;&gt;Node20 -->
<g id="edge28" class="edge">
<title>Node18&#45;&gt;Node20</title>
<path fill="none" stroke="midnightblue" d="M113.66,-280.32C122,-272.42 134.53,-260.55 144.68,-250.94"/>
<polygon fill="midnightblue" stroke="midnightblue" points="147.32,-253.25 152.18,-243.83 142.51,-248.17 147.32,-253.25"/>
</g>
<!-- Node21&#45;&gt;Node2 -->
<g id="edge33" class="edge">
<title>Node21&#45;&gt;Node2</title>
<path fill="none" stroke="midnightblue" d="M396.22,-336.33C395.34,-322.73 391.76,-296.27 377.5,-280 361.31,-261.53 336.1,-250.32 314.8,-243.7"/>
<polygon fill="midnightblue" stroke="midnightblue" points="315.6,-240.29 305.03,-240.89 313.67,-247.02 315.6,-240.29"/>
</g>
<!-- Node22 -->
<g id="node22" class="node">
<title>Node22</title>
<g id="a_node22"><a xlink:title=" ">
<polygon fill="white" stroke="#bfbfbf" points="463,-280.5 463,-299.5 516,-299.5 516,-280.5 463,-280.5"/>
<text text-anchor="middle" x="489.5" y="-287.5" font-family="Consolas" font-size="10.00">fcntl.h</text>
</a>
</g>
</g>
<!-- Node21&#45;&gt;Node22 -->
<g id="edge32" class="edge">
<title>Node21&#45;&gt;Node22</title>
<path fill="none" stroke="midnightblue" d="M411.44,-336.32C426.09,-327.82 448.63,-314.73 465.74,-304.8"/>
<polygon fill="midnightblue" stroke="midnightblue" points="467.7,-307.7 474.6,-299.65 464.19,-301.65 467.7,-307.7"/>
</g>
<!-- Node23 -->
<g id="node23" class="node">
<title>Node23</title>
<g id="a_node23"><a xlink:href="ansi_8h.html" target="_top" xlink:title=" ">
<polygon fill="white" stroke="black" points="352.5,-224.5 352.5,-243.5 458.5,-243.5 458.5,-224.5 352.5,-224.5"/>
<text text-anchor="middle" x="405.5" y="-231.5" font-family="Consolas" font-size="10.00">libccc/sys/ansi.h</text>
</a>
</g>
</g>
<!-- Node21&#45;&gt;Node23 -->
<g id="edge34" class="edge">
<title>Node21&#45;&gt;Node23</title>
<path fill="none" stroke="midnightblue" d="M400.1,-336.22C403.56,-327.28 408.53,-312.94 410.5,-300 412.84,-284.6 411.22,-266.96 409.22,-253.95"/>
<polygon fill="midnightblue" stroke="midnightblue" points="412.63,-253.12 407.45,-243.88 405.73,-254.33 412.63,-253.12"/>
</g>
<!-- Node24 -->
<g id="node24" class="node">
<title>Node24</title>
<g id="a_node24"><a xlink:href="color_8h.html" target="_top" xlink:title=" ">
<polygon fill="white" stroke="black" points="246.5,-280.5 246.5,-299.5 368.5,-299.5 368.5,-280.5 246.5,-280.5"/>
<text text-anchor="middle" x="307.5" y="-287.5" font-family="Consolas" font-size="10.00">libccc/image/color.h</text>
</a>
</g>
</g>
<!-- Node21&#45;&gt;Node24 -->
<g id="edge36" class="edge">
<title>Node21&#45;&gt;Node24</title>
<path fill="none" stroke="midnightblue" d="M382.2,-336.32C368.32,-327.9 347.01,-314.97 330.7,-305.07"/>
<polygon fill="midnightblue" stroke="midnightblue" points="332.13,-301.85 321.76,-299.65 328.5,-307.83 332.13,-301.85"/>
</g>
<!-- Node23&#45;&gt;Node3 -->
<g id="edge35" class="edge">
<title>Node23&#45;&gt;Node3</title>
<path fill="none" stroke="midnightblue" d="M399.87,-224.3C385.19,-202.3 343.47,-143.9 294.5,-112 270.07,-96.08 239.43,-85.22 213.72,-78.16"/>
<polygon fill="midnightblue" stroke="midnightblue" points="214.33,-74.7 203.77,-75.54 212.55,-81.47 214.33,-74.7"/>
</g>
<!-- Node24&#45;&gt;Node2 -->
<g id="edge37" class="edge">
<title>Node24&#45;&gt;Node2</title>
<path fill="none" stroke="midnightblue" d="M302.22,-280.08C297.79,-272.61 291.34,-261.72 285.88,-252.52"/>
<polygon fill="midnightblue" stroke="midnightblue" points="288.79,-250.57 280.69,-243.75 282.77,-254.14 288.79,-250.57"/>
</g>
</g>
</svg>
