<?xml version="1.0" encoding="UTF-8" standalone="no"?>
<!DOCTYPE svg PUBLIC "-//W3C//DTD SVG 1.1//EN"
 "http://www.w3.org/Graphics/SVG/1.1/DTD/svg11.dtd">
<!-- Generated by graphviz version 2.43.0 (0)
 -->
<!-- Title: libccc/fixed.h Pages: 1 -->
<svg width="869pt" height="308pt"
 viewBox="0.00 0.00 869.31 308.00" xmlns="http://www.w3.org/2000/svg" xmlns:xlink="http://www.w3.org/1999/xlink">
<g id="graph0" class="graph" transform="scale(1 1) rotate(0) translate(4 304)">
<title>libccc/fixed.h</title>
<polygon fill="white" stroke="transparent" points="-4,4 -4,-304 865.31,-304 865.31,4 -4,4"/>
<!-- Node1 -->
<g id="node1" class="node">
<title>Node1</title>
<g id="a_node1"><a xlink:title=" ">
<polygon fill="#bfbfbf" stroke="black" points="536.82,-280.5 536.82,-299.5 626.82,-299.5 626.82,-280.5 536.82,-280.5"/>
<text text-anchor="middle" x="581.82" y="-287.5" font-family="Consolas" font-size="10.00">libccc/fixed.h</text>
</a>
</g>
</g>
<!-- Node2 -->
<g id="node2" class="node">
<title>Node2</title>
<g id="a_node2"><a xlink:href="libccc_8h.html" target="_top" xlink:title=" ">
<polygon fill="white" stroke="black" points="240.32,-224.5 240.32,-243.5 299.32,-243.5 299.32,-224.5 240.32,-224.5"/>
<text text-anchor="middle" x="269.82" y="-231.5" font-family="Consolas" font-size="10.00">libccc.h</text>
</a>
</g>
</g>
<!-- Node1&#45;&gt;Node2 -->
<g id="edge1" class="edge">
<title>Node1&#45;&gt;Node2</title>
<path fill="none" stroke="midnightblue" d="M536.78,-281.21C475.65,-270.63 367.39,-251.89 309.28,-241.83"/>
<polygon fill="midnightblue" stroke="midnightblue" points="309.83,-238.37 299.38,-240.12 308.64,-245.27 309.83,-238.37"/>
</g>
<!-- Node3 -->
<g id="node3" class="node">
<title>Node3</title>
<g id="a_node3"><a xlink:href="libccc__define_8h.html" target="_top" xlink:title=" ">
<polygon fill="white" stroke="black" points="108.32,-56.5 108.32,-75.5 203.32,-75.5 203.32,-56.5 108.32,-56.5"/>
<text text-anchor="middle" x="155.82" y="-63.5" font-family="Consolas" font-size="10.00">libccc_define.h</text>
</a>
</g>
</g>
<!-- Node2&#45;&gt;Node3 -->
<g id="edge2" class="edge">
<title>Node2&#45;&gt;Node3</title>
<path fill="none" stroke="midnightblue" d="M265.03,-224.42C257.92,-211.83 243.99,-187.69 230.82,-168 210.39,-137.46 184.42,-103.44 169.02,-83.7"/>
<polygon fill="midnightblue" stroke="midnightblue" points="171.67,-81.41 162.74,-75.71 166.16,-85.73 171.67,-81.41"/>
</g>
<!-- Node5 -->
<g id="node5" class="node">
<title>Node5</title>
<g id="a_node5"><a xlink:href="libccc__errors_8h.html" target="_top" xlink:title=" ">
<polygon fill="white" stroke="black" points="13.32,-112.5 13.32,-131.5 108.32,-131.5 108.32,-112.5 13.32,-112.5"/>
<text text-anchor="middle" x="60.82" y="-119.5" font-family="Consolas" font-size="10.00">libccc_errors.h</text>
</a>
</g>
</g>
<!-- Node2&#45;&gt;Node5 -->
<g id="edge4" class="edge">
<title>Node2&#45;&gt;Node5</title>
<path fill="none" stroke="midnightblue" d="M240.24,-232.56C177.57,-230.95 34.7,-223.39 4.82,-188 -10.23,-170.18 14.09,-149.83 35.25,-136.72"/>
<polygon fill="midnightblue" stroke="midnightblue" points="37.15,-139.66 44,-131.58 33.6,-133.63 37.15,-139.66"/>
</g>
<!-- Node6 -->
<g id="node6" class="node">
<title>Node6</title>
<g id="a_node6"><a xlink:href="libccc__config_8h.html" target="_top" xlink:title=" ">
<polygon fill="white" stroke="black" points="14.32,-168.5 14.32,-187.5 109.32,-187.5 109.32,-168.5 14.32,-168.5"/>
<text text-anchor="middle" x="61.82" y="-175.5" font-family="Consolas" font-size="10.00">libccc_config.h</text>
</a>
</g>
</g>
<!-- Node2&#45;&gt;Node6 -->
<g id="edge6" class="edge">
<title>Node2&#45;&gt;Node6</title>
<path fill="none" stroke="midnightblue" d="M240.02,-225.26C204.5,-216.04 144.88,-200.57 104.48,-190.08"/>
<polygon fill="midnightblue" stroke="midnightblue" points="105.21,-186.65 94.65,-187.52 103.45,-193.42 105.21,-186.65"/>
</g>
<!-- Node7 -->
<g id="node7" class="node">
<title>Node7</title>
<g id="a_node7"><a xlink:href="libccc__naming_8h.html" target="_top" xlink:title=" ">
<polygon fill="white" stroke="black" points="127.32,-168.5 127.32,-187.5 222.32,-187.5 222.32,-168.5 127.32,-168.5"/>
<text text-anchor="middle" x="174.82" y="-175.5" font-family="Consolas" font-size="10.00">libccc_naming.h</text>
</a>
</g>
</g>
<!-- Node2&#45;&gt;Node7 -->
<g id="edge9" class="edge">
<title>Node2&#45;&gt;Node7</title>
<path fill="none" stroke="midnightblue" d="M254.55,-224.32C239.6,-215.82 216.56,-202.73 199.09,-192.8"/>
<polygon fill="midnightblue" stroke="midnightblue" points="200.47,-189.55 190.04,-187.65 197.01,-195.64 200.47,-189.55"/>
</g>
<!-- Node8 -->
<g id="node8" class="node">
<title>Node8</title>
<g id="a_node8"><a xlink:href="math_8h.html" target="_top" xlink:title=" ">
<polygon fill="white" stroke="black" points="495.82,-168.5 495.82,-187.5 543.82,-187.5 543.82,-168.5 495.82,-168.5"/>
<text text-anchor="middle" x="519.82" y="-175.5" font-family="Consolas" font-size="10.00">math.h</text>
</a>
</g>
</g>
<!-- Node2&#45;&gt;Node8 -->
<g id="edge11" class="edge">
<title>Node2&#45;&gt;Node8</title>
<path fill="none" stroke="midnightblue" d="M299.48,-226.59C346.21,-216.5 436.71,-196.95 485.93,-186.32"/>
<polygon fill="midnightblue" stroke="midnightblue" points="486.75,-189.72 495.78,-184.19 485.27,-182.88 486.75,-189.72"/>
</g>
<!-- Node4 -->
<g id="node4" class="node">
<title>Node4</title>
<g id="a_node4"><a xlink:title=" ">
<polygon fill="white" stroke="#bfbfbf" points="121.32,-0.5 121.32,-19.5 190.32,-19.5 190.32,-0.5 121.32,-0.5"/>
<text text-anchor="middle" x="155.82" y="-7.5" font-family="Consolas" font-size="10.00">stdalign.h</text>
</a>
</g>
</g>
<!-- Node3&#45;&gt;Node4 -->
<g id="edge3" class="edge">
<title>Node3&#45;&gt;Node4</title>
<path fill="none" stroke="midnightblue" d="M155.82,-56.08C155.82,-49.01 155.82,-38.86 155.82,-29.99"/>
<polygon fill="midnightblue" stroke="midnightblue" points="159.32,-29.75 155.82,-19.75 152.32,-29.75 159.32,-29.75"/>
</g>
<!-- Node5&#45;&gt;Node3 -->
<g id="edge5" class="edge">
<title>Node5&#45;&gt;Node3</title>
<path fill="none" stroke="midnightblue" d="M76.08,-112.32C91.04,-103.82 114.07,-90.73 131.54,-80.8"/>
<polygon fill="midnightblue" stroke="midnightblue" points="133.63,-83.64 140.59,-75.65 130.17,-77.55 133.63,-83.64"/>
</g>
<!-- Node6&#45;&gt;Node3 -->
<g id="edge7" class="edge">
<title>Node6&#45;&gt;Node3</title>
<path fill="none" stroke="midnightblue" d="M74.68,-168.43C86.56,-160.09 104.23,-146.56 116.82,-132 129.3,-117.56 140.15,-98.62 147.22,-84.91"/>
<polygon fill="midnightblue" stroke="midnightblue" points="150.53,-86.12 151.85,-75.61 144.26,-83 150.53,-86.12"/>
</g>
<!-- Node6&#45;&gt;Node5 -->
<g id="edge8" class="edge">
<title>Node6&#45;&gt;Node5</title>
<path fill="none" stroke="midnightblue" d="M61.65,-168.08C61.52,-161.01 61.33,-150.86 61.17,-141.99"/>
<polygon fill="midnightblue" stroke="midnightblue" points="64.66,-141.68 60.98,-131.75 57.67,-141.81 64.66,-141.68"/>
</g>
<!-- Node7&#45;&gt;Node3 -->
<g id="edge10" class="edge">
<title>Node7&#45;&gt;Node3</title>
<path fill="none" stroke="midnightblue" d="M173.33,-168.37C170.26,-150.62 163.19,-109.67 159.03,-85.6"/>
<polygon fill="midnightblue" stroke="midnightblue" points="162.45,-84.85 157.3,-75.59 155.55,-86.04 162.45,-84.85"/>
</g>
<!-- Node9 -->
<g id="node9" class="node">
<title>Node9</title>
<g id="a_node9"><a xlink:href="constants_8h.html" target="_top" xlink:title=" ">
<polygon fill="white" stroke="black" points="451.32,-112.5 451.32,-131.5 588.32,-131.5 588.32,-112.5 451.32,-112.5"/>
<text text-anchor="middle" x="519.82" y="-119.5" font-family="Consolas" font-size="10.00">libccc/math/constants.h</text>
</a>
</g>
</g>
<!-- Node8&#45;&gt;Node9 -->
<g id="edge12" class="edge">
<title>Node8&#45;&gt;Node9</title>
<path fill="none" stroke="midnightblue" d="M519.82,-168.08C519.82,-161.01 519.82,-150.86 519.82,-141.99"/>
<polygon fill="midnightblue" stroke="midnightblue" points="523.32,-141.75 519.82,-131.75 516.32,-141.75 523.32,-141.75"/>
</g>
<!-- Node11 -->
<g id="node11" class="node">
<title>Node11</title>
<g id="a_node11"><a xlink:href="math_2int_8h.html" target="_top" xlink:title=" ">
<polygon fill="white" stroke="black" points="606.82,-112.5 606.82,-131.5 712.82,-131.5 712.82,-112.5 606.82,-112.5"/>
<text text-anchor="middle" x="659.82" y="-119.5" font-family="Consolas" font-size="10.00">libccc/math/int.h</text>
</a>
</g>
</g>
<!-- Node8&#45;&gt;Node11 -->
<g id="edge15" class="edge">
<title>Node8&#45;&gt;Node11</title>
<path fill="none" stroke="midnightblue" d="M542,-168.44C565.25,-159.48 601.97,-145.31 628.23,-135.18"/>
<polygon fill="midnightblue" stroke="midnightblue" points="629.67,-138.38 637.74,-131.52 627.15,-131.85 629.67,-138.38"/>
</g>
<!-- Node14 -->
<g id="node14" class="node">
<title>Node14</title>
<g id="a_node14"><a xlink:href="math_2fixed_8h.html" target="_top" xlink:title=" ">
<polygon fill="white" stroke="black" points="730.82,-112.5 730.82,-131.5 846.82,-131.5 846.82,-112.5 730.82,-112.5"/>
<text text-anchor="middle" x="788.82" y="-119.5" font-family="Consolas" font-size="10.00">libccc/math/fixed.h</text>
</a>
</g>
</g>
<!-- Node8&#45;&gt;Node14 -->
<g id="edge19" class="edge">
<title>Node8&#45;&gt;Node14</title>
<path fill="none" stroke="midnightblue" d="M544.16,-172.11C587.35,-163.44 678.28,-145.19 736.3,-133.54"/>
<polygon fill="midnightblue" stroke="midnightblue" points="737.27,-136.92 746.38,-131.52 735.89,-130.06 737.27,-136.92"/>
</g>
<!-- Node15 -->
<g id="node15" class="node">
<title>Node15</title>
<g id="a_node15"><a xlink:href="math_2float_8h.html" target="_top" xlink:title=" ">
<polygon fill="white" stroke="black" points="316.82,-112.5 316.82,-131.5 432.82,-131.5 432.82,-112.5 316.82,-112.5"/>
<text text-anchor="middle" x="374.82" y="-119.5" font-family="Consolas" font-size="10.00">libccc/math/float.h</text>
</a>
</g>
</g>
<!-- Node8&#45;&gt;Node15 -->
<g id="edge21" class="edge">
<title>Node8&#45;&gt;Node15</title>
<path fill="none" stroke="midnightblue" d="M496.84,-168.44C472.66,-159.44 434.4,-145.19 407.17,-135.05"/>
<polygon fill="midnightblue" stroke="midnightblue" points="408.28,-131.73 397.69,-131.52 405.84,-138.29 408.28,-131.73"/>
</g>
<!-- Node10 -->
<g id="node10" class="node">
<title>Node10</title>
<g id="a_node10"><a xlink:href="float_8h.html" target="_top" xlink:title=" ">
<polygon fill="white" stroke="black" points="329.82,-56.5 329.82,-75.5 419.82,-75.5 419.82,-56.5 329.82,-56.5"/>
<text text-anchor="middle" x="374.82" y="-63.5" font-family="Consolas" font-size="10.00">libccc/float.h</text>
</a>
</g>
</g>
<!-- Node9&#45;&gt;Node10 -->
<g id="edge13" class="edge">
<title>Node9&#45;&gt;Node10</title>
<path fill="none" stroke="midnightblue" d="M496.84,-112.44C472.66,-103.44 434.4,-89.19 407.17,-79.05"/>
<polygon fill="midnightblue" stroke="midnightblue" points="408.28,-75.73 397.69,-75.52 405.84,-82.29 408.28,-75.73"/>
</g>
<!-- Node10&#45;&gt;Node2 -->
<g id="edge14" class="edge">
<title>Node10&#45;&gt;Node2</title>
<path fill="none" stroke="midnightblue" d="M355.43,-75.55C340.41,-83.11 320.15,-95.5 307.82,-112 284.61,-143.05 275.35,-188.61 271.83,-214.05"/>
<polygon fill="midnightblue" stroke="midnightblue" points="268.33,-213.84 270.59,-224.19 275.28,-214.69 268.33,-213.84"/>
</g>
<!-- Node12 -->
<g id="node12" class="node">
<title>Node12</title>
<g id="a_node12"><a xlink:href="int_8h.html" target="_top" xlink:title=" ">
<polygon fill="white" stroke="black" points="726.82,-56.5 726.82,-75.5 806.82,-75.5 806.82,-56.5 726.82,-56.5"/>
<text text-anchor="middle" x="766.82" y="-63.5" font-family="Consolas" font-size="10.00">libccc/int.h</text>
</a>
</g>
</g>
<!-- Node11&#45;&gt;Node12 -->
<g id="edge16" class="edge">
<title>Node11&#45;&gt;Node12</title>
<path fill="none" stroke="midnightblue" d="M677.01,-112.32C694.17,-103.66 720.76,-90.24 740.56,-80.25"/>
<polygon fill="midnightblue" stroke="midnightblue" points="742.32,-83.28 749.67,-75.65 739.16,-77.04 742.32,-83.28"/>
</g>
<!-- Node12&#45;&gt;Node2 -->
<g id="edge18" class="edge">
<title>Node12&#45;&gt;Node2</title>
<path fill="none" stroke="midnightblue" d="M796.95,-75.52C830.28,-86.42 876.68,-106.92 855.82,-132 785.87,-216.06 430.37,-230.16 309.84,-232.52"/>
<polygon fill="midnightblue" stroke="midnightblue" points="309.52,-229.03 299.59,-232.71 309.65,-236.03 309.52,-229.03"/>
</g>
<!-- Node13 -->
<g id="node13" class="node">
<title>Node13</title>
<g id="a_node13"><a xlink:title=" ">
<polygon fill="white" stroke="#bfbfbf" points="737.32,-0.5 737.32,-19.5 796.32,-19.5 796.32,-0.5 737.32,-0.5"/>
<text text-anchor="middle" x="766.82" y="-7.5" font-family="Consolas" font-size="10.00">stdint.h</text>
</a>
</g>
</g>
<!-- Node12&#45;&gt;Node13 -->
<g id="edge17" class="edge">
<title>Node12&#45;&gt;Node13</title>
<path fill="none" stroke="midnightblue" d="M766.82,-56.08C766.82,-49.01 766.82,-38.86 766.82,-29.99"/>
<polygon fill="midnightblue" stroke="midnightblue" points="770.32,-29.75 766.82,-19.75 763.32,-29.75 770.32,-29.75"/>
</g>
<!-- Node14&#45;&gt;Node1 -->
<g id="edge20" class="edge">
<title>Node14&#45;&gt;Node1</title>
<path fill="none" stroke="midnightblue" d="M778.09,-131.61C744.77,-158.32 642.8,-240.1 600.51,-274.01"/>
<polygon fill="midnightblue" stroke="midnightblue" points="598.27,-271.32 592.66,-280.31 602.65,-276.78 598.27,-271.32"/>
</g>
<!-- Node15&#45;&gt;Node10 -->
<g id="edge22" class="edge">
<title>Node15&#45;&gt;Node10</title>
<path fill="none" stroke="midnightblue" d="M374.82,-112.08C374.82,-105.01 374.82,-94.86 374.82,-85.99"/>
<polygon fill="midnightblue" stroke="midnightblue" points="378.32,-85.75 374.82,-75.75 371.32,-85.75 378.32,-85.75"/>
</g>
</g>
</svg>
