<?xml version="1.0" encoding="UTF-8" standalone="no"?>
<!DOCTYPE svg PUBLIC "-//W3C//DTD SVG 1.1//EN"
 "http://www.w3.org/Graphics/SVG/1.1/DTD/svg11.dtd">
<!-- Generated by graphviz version 2.43.0 (0)
 -->
<!-- Title: libccc/float.h Pages: 1 -->
<svg width="893pt" height="308pt"
 viewBox="0.00 0.00 892.82 308.00" xmlns="http://www.w3.org/2000/svg" xmlns:xlink="http://www.w3.org/1999/xlink">
<g id="graph0" class="graph" transform="scale(1 1) rotate(0) translate(4 304)">
<title>libccc/float.h</title>
<polygon fill="white" stroke="transparent" points="-4,4 -4,-304 888.82,-304 888.82,4 -4,4"/>
<!-- Node1 -->
<g id="node1" class="node">
<title>Node1</title>
<g id="a_node1"><a xlink:title=" ">
<polygon fill="#bfbfbf" stroke="black" points="636.82,-280.5 636.82,-299.5 726.82,-299.5 726.82,-280.5 636.82,-280.5"/>
<text text-anchor="middle" x="681.82" y="-287.5" font-family="Consolas" font-size="10.00">libccc/float.h</text>
</a>
</g>
</g>
<!-- Node2 -->
<g id="node2" class="node">
<title>Node2</title>
<g id="a_node2"><a xlink:href="libccc_8h.html" target="_top" xlink:title=" ">
<polygon fill="white" stroke="black" points="240.32,-224.5 240.32,-243.5 299.32,-243.5 299.32,-224.5 240.32,-224.5"/>
<text text-anchor="middle" x="269.82" y="-231.5" font-family="Consolas" font-size="10.00">libccc.h</text>
</a>
</g>
</g>
<!-- Node1&#45;&gt;Node2 -->
<g id="edge1" class="edge">
<title>Node1&#45;&gt;Node2</title>
<path fill="none" stroke="midnightblue" d="M636.55,-283.07C555.49,-272.44 386.86,-250.34 309.8,-240.24"/>
<polygon fill="midnightblue" stroke="midnightblue" points="309.92,-236.73 299.55,-238.9 309.01,-243.67 309.92,-236.73"/>
</g>
<!-- Node3 -->
<g id="node3" class="node">
<title>Node3</title>
<g id="a_node3"><a xlink:href="libccc__define_8h.html" target="_top" xlink:title=" ">
<polygon fill="white" stroke="black" points="108.32,-56.5 108.32,-75.5 203.32,-75.5 203.32,-56.5 108.32,-56.5"/>
<text text-anchor="middle" x="155.82" y="-63.5" font-family="Consolas" font-size="10.00">libccc_define.h</text>
</a>
</g>
</g>
<!-- Node2&#45;&gt;Node3 -->
<g id="edge2" class="edge">
<title>Node2&#45;&gt;Node3</title>
<path fill="none" stroke="midnightblue" d="M265.03,-224.42C257.92,-211.83 243.99,-187.69 230.82,-168 210.39,-137.46 184.42,-103.44 169.02,-83.7"/>
<polygon fill="midnightblue" stroke="midnightblue" points="171.67,-81.41 162.74,-75.71 166.16,-85.73 171.67,-81.41"/>
</g>
<!-- Node5 -->
<g id="node5" class="node">
<title>Node5</title>
<g id="a_node5"><a xlink:href="libccc__errors_8h.html" target="_top" xlink:title=" ">
<polygon fill="white" stroke="black" points="13.32,-112.5 13.32,-131.5 108.32,-131.5 108.32,-112.5 13.32,-112.5"/>
<text text-anchor="middle" x="60.82" y="-119.5" font-family="Consolas" font-size="10.00">libccc_errors.h</text>
</a>
</g>
</g>
<!-- Node2&#45;&gt;Node5 -->
<g id="edge4" class="edge">
<title>Node2&#45;&gt;Node5</title>
<path fill="none" stroke="midnightblue" d="M240.24,-232.56C177.57,-230.95 34.7,-223.39 4.82,-188 -10.23,-170.18 14.09,-149.83 35.25,-136.72"/>
<polygon fill="midnightblue" stroke="midnightblue" points="37.15,-139.66 44,-131.58 33.6,-133.63 37.15,-139.66"/>
</g>
<!-- Node6 -->
<g id="node6" class="node">
<title>Node6</title>
<g id="a_node6"><a xlink:href="libccc__config_8h.html" target="_top" xlink:title=" ">
<polygon fill="white" stroke="black" points="14.32,-168.5 14.32,-187.5 109.32,-187.5 109.32,-168.5 14.32,-168.5"/>
<text text-anchor="middle" x="61.82" y="-175.5" font-family="Consolas" font-size="10.00">libccc_config.h</text>
</a>
</g>
</g>
<!-- Node2&#45;&gt;Node6 -->
<g id="edge6" class="edge">
<title>Node2&#45;&gt;Node6</title>
<path fill="none" stroke="midnightblue" d="M240.02,-225.26C204.5,-216.04 144.88,-200.57 104.48,-190.08"/>
<polygon fill="midnightblue" stroke="midnightblue" points="105.21,-186.65 94.65,-187.52 103.45,-193.42 105.21,-186.65"/>
</g>
<!-- Node7 -->
<g id="node7" class="node">
<title>Node7</title>
<g id="a_node7"><a xlink:href="libccc__naming_8h.html" target="_top" xlink:title=" ">
<polygon fill="white" stroke="black" points="127.32,-168.5 127.32,-187.5 222.32,-187.5 222.32,-168.5 127.32,-168.5"/>
<text text-anchor="middle" x="174.82" y="-175.5" font-family="Consolas" font-size="10.00">libccc_naming.h</text>
</a>
</g>
</g>
<!-- Node2&#45;&gt;Node7 -->
<g id="edge9" class="edge">
<title>Node2&#45;&gt;Node7</title>
<path fill="none" stroke="midnightblue" d="M254.55,-224.32C239.6,-215.82 216.56,-202.73 199.09,-192.8"/>
<polygon fill="midnightblue" stroke="midnightblue" points="200.47,-189.55 190.04,-187.65 197.01,-195.64 200.47,-189.55"/>
</g>
<!-- Node8 -->
<g id="node8" class="node">
<title>Node8</title>
<g id="a_node8"><a xlink:href="math_8h.html" target="_top" xlink:title=" ">
<polygon fill="white" stroke="black" points="474.82,-168.5 474.82,-187.5 522.82,-187.5 522.82,-168.5 474.82,-168.5"/>
<text text-anchor="middle" x="498.82" y="-175.5" font-family="Consolas" font-size="10.00">math.h</text>
</a>
</g>
</g>
<!-- Node2&#45;&gt;Node8 -->
<g id="edge11" class="edge">
<title>Node2&#45;&gt;Node8</title>
<path fill="none" stroke="midnightblue" d="M299.76,-225.94C342.38,-215.89 420.34,-197.5 465,-186.97"/>
<polygon fill="midnightblue" stroke="midnightblue" points="465.87,-190.37 474.8,-184.66 464.26,-183.55 465.87,-190.37"/>
</g>
<!-- Node4 -->
<g id="node4" class="node">
<title>Node4</title>
<g id="a_node4"><a xlink:title=" ">
<polygon fill="white" stroke="#bfbfbf" points="121.32,-0.5 121.32,-19.5 190.32,-19.5 190.32,-0.5 121.32,-0.5"/>
<text text-anchor="middle" x="155.82" y="-7.5" font-family="Consolas" font-size="10.00">stdalign.h</text>
</a>
</g>
</g>
<!-- Node3&#45;&gt;Node4 -->
<g id="edge3" class="edge">
<title>Node3&#45;&gt;Node4</title>
<path fill="none" stroke="midnightblue" d="M155.82,-56.08C155.82,-49.01 155.82,-38.86 155.82,-29.99"/>
<polygon fill="midnightblue" stroke="midnightblue" points="159.32,-29.75 155.82,-19.75 152.32,-29.75 159.32,-29.75"/>
</g>
<!-- Node5&#45;&gt;Node3 -->
<g id="edge5" class="edge">
<title>Node5&#45;&gt;Node3</title>
<path fill="none" stroke="midnightblue" d="M76.08,-112.32C91.04,-103.82 114.07,-90.73 131.54,-80.8"/>
<polygon fill="midnightblue" stroke="midnightblue" points="133.63,-83.64 140.59,-75.65 130.17,-77.55 133.63,-83.64"/>
</g>
<!-- Node6&#45;&gt;Node3 -->
<g id="edge7" class="edge">
<title>Node6&#45;&gt;Node3</title>
<path fill="none" stroke="midnightblue" d="M74.68,-168.43C86.56,-160.09 104.23,-146.56 116.82,-132 129.3,-117.56 140.15,-98.62 147.22,-84.91"/>
<polygon fill="midnightblue" stroke="midnightblue" points="150.53,-86.12 151.85,-75.61 144.26,-83 150.53,-86.12"/>
</g>
<!-- Node6&#45;&gt;Node5 -->
<g id="edge8" class="edge">
<title>Node6&#45;&gt;Node5</title>
<path fill="none" stroke="midnightblue" d="M61.65,-168.08C61.52,-161.01 61.33,-150.86 61.17,-141.99"/>
<polygon fill="midnightblue" stroke="midnightblue" points="64.66,-141.68 60.98,-131.75 57.67,-141.81 64.66,-141.68"/>
</g>
<!-- Node7&#45;&gt;Node3 -->
<g id="edge10" class="edge">
<title>Node7&#45;&gt;Node3</title>
<path fill="none" stroke="midnightblue" d="M173.33,-168.37C170.26,-150.62 163.19,-109.67 159.03,-85.6"/>
<polygon fill="midnightblue" stroke="midnightblue" points="162.45,-84.85 157.3,-75.59 155.55,-86.04 162.45,-84.85"/>
</g>
<!-- Node9 -->
<g id="node9" class="node">
<title>Node9</title>
<g id="a_node9"><a xlink:href="constants_8h.html" target="_top" xlink:title=" ">
<polygon fill="white" stroke="black" points="613.32,-112.5 613.32,-131.5 750.32,-131.5 750.32,-112.5 613.32,-112.5"/>
<text text-anchor="middle" x="681.82" y="-119.5" font-family="Consolas" font-size="10.00">libccc/math/constants.h</text>
</a>
</g>
</g>
<!-- Node8&#45;&gt;Node9 -->
<g id="edge12" class="edge">
<title>Node8&#45;&gt;Node9</title>
<path fill="none" stroke="midnightblue" d="M523.12,-169.83C553.78,-160.78 606.87,-145.11 643.14,-134.41"/>
<polygon fill="midnightblue" stroke="midnightblue" points="644.29,-137.72 652.89,-131.54 642.3,-131.01 644.29,-137.72"/>
</g>
<!-- Node10 -->
<g id="node10" class="node">
<title>Node10</title>
<g id="a_node10"><a xlink:href="math_2int_8h.html" target="_top" xlink:title=" ">
<polygon fill="white" stroke="black" points="316.82,-112.5 316.82,-131.5 422.82,-131.5 422.82,-112.5 316.82,-112.5"/>
<text text-anchor="middle" x="369.82" y="-119.5" font-family="Consolas" font-size="10.00">libccc/math/int.h</text>
</a>
</g>
</g>
<!-- Node8&#45;&gt;Node10 -->
<g id="edge14" class="edge">
<title>Node8&#45;&gt;Node10</title>
<path fill="none" stroke="midnightblue" d="M478.38,-168.44C457.15,-159.56 423.72,-145.56 399.56,-135.45"/>
<polygon fill="midnightblue" stroke="midnightblue" points="400.74,-132.15 390.16,-131.52 398.04,-138.61 400.74,-132.15"/>
</g>
<!-- Node13 -->
<g id="node13" class="node">
<title>Node13</title>
<g id="a_node13"><a xlink:href="math_2fixed_8h.html" target="_top" xlink:title=" ">
<polygon fill="white" stroke="black" points="440.82,-112.5 440.82,-131.5 556.82,-131.5 556.82,-112.5 440.82,-112.5"/>
<text text-anchor="middle" x="498.82" y="-119.5" font-family="Consolas" font-size="10.00">libccc/math/fixed.h</text>
</a>
</g>
</g>
<!-- Node8&#45;&gt;Node13 -->
<g id="edge18" class="edge">
<title>Node8&#45;&gt;Node13</title>
<path fill="none" stroke="midnightblue" d="M498.82,-168.08C498.82,-161.01 498.82,-150.86 498.82,-141.99"/>
<polygon fill="midnightblue" stroke="midnightblue" points="502.32,-141.75 498.82,-131.75 495.32,-141.75 502.32,-141.75"/>
</g>
<!-- Node15 -->
<g id="node15" class="node">
<title>Node15</title>
<g id="a_node15"><a xlink:href="math_2float_8h.html" target="_top" xlink:title=" ">
<polygon fill="white" stroke="black" points="768.82,-112.5 768.82,-131.5 884.82,-131.5 884.82,-112.5 768.82,-112.5"/>
<text text-anchor="middle" x="826.82" y="-119.5" font-family="Consolas" font-size="10.00">libccc/math/float.h</text>
</a>
</g>
</g>
<!-- Node8&#45;&gt;Node15 -->
<g id="edge21" class="edge">
<title>Node8&#45;&gt;Node15</title>
<path fill="none" stroke="midnightblue" d="M522.94,-173.03C573.45,-164.71 691.73,-145.24 764.94,-133.19"/>
<polygon fill="midnightblue" stroke="midnightblue" points="765.65,-136.62 774.95,-131.54 764.52,-129.71 765.65,-136.62"/>
</g>
<!-- Node9&#45;&gt;Node1 -->
<g id="edge13" class="edge">
<title>Node9&#45;&gt;Node1</title>
<path fill="none" stroke="midnightblue" d="M681.82,-131.57C681.82,-157.23 681.82,-233.92 681.82,-269.93"/>
<polygon fill="midnightblue" stroke="midnightblue" points="678.32,-270.08 681.82,-280.08 685.32,-270.08 678.32,-270.08"/>
</g>
<!-- Node11 -->
<g id="node11" class="node">
<title>Node11</title>
<g id="a_node11"><a xlink:href="int_8h.html" target="_top" xlink:title=" ">
<polygon fill="white" stroke="black" points="288.82,-56.5 288.82,-75.5 368.82,-75.5 368.82,-56.5 288.82,-56.5"/>
<text text-anchor="middle" x="328.82" y="-63.5" font-family="Consolas" font-size="10.00">libccc/int.h</text>
</a>
</g>
</g>
<!-- Node10&#45;&gt;Node11 -->
<g id="edge15" class="edge">
<title>Node10&#45;&gt;Node11</title>
<path fill="none" stroke="midnightblue" d="M363.05,-112.08C357.26,-104.46 348.76,-93.26 341.68,-83.94"/>
<polygon fill="midnightblue" stroke="midnightblue" points="344.3,-81.6 335.46,-75.75 338.72,-85.83 344.3,-81.6"/>
</g>
<!-- Node11&#45;&gt;Node2 -->
<g id="edge17" class="edge">
<title>Node11&#45;&gt;Node2</title>
<path fill="none" stroke="midnightblue" d="M324.28,-75.81C319.77,-84.78 312.81,-99.14 307.82,-112 293.99,-147.61 281.45,-190.54 274.8,-214.5"/>
<polygon fill="midnightblue" stroke="midnightblue" points="271.37,-213.79 272.11,-224.36 278.12,-215.63 271.37,-213.79"/>
</g>
<!-- Node12 -->
<g id="node12" class="node">
<title>Node12</title>
<g id="a_node12"><a xlink:title=" ">
<polygon fill="white" stroke="#bfbfbf" points="299.32,-0.5 299.32,-19.5 358.32,-19.5 358.32,-0.5 299.32,-0.5"/>
<text text-anchor="middle" x="328.82" y="-7.5" font-family="Consolas" font-size="10.00">stdint.h</text>
</a>
</g>
</g>
<!-- Node11&#45;&gt;Node12 -->
<g id="edge16" class="edge">
<title>Node11&#45;&gt;Node12</title>
<path fill="none" stroke="midnightblue" d="M328.82,-56.08C328.82,-49.01 328.82,-38.86 328.82,-29.99"/>
<polygon fill="midnightblue" stroke="midnightblue" points="332.32,-29.75 328.82,-19.75 325.32,-29.75 332.32,-29.75"/>
</g>
<!-- Node14 -->
<g id="node14" class="node">
<title>Node14</title>
<g id="a_node14"><a xlink:href="fixed_8h.html" target="_top" xlink:title=" ">
<polygon fill="white" stroke="black" points="496.82,-56.5 496.82,-75.5 586.82,-75.5 586.82,-56.5 496.82,-56.5"/>
<text text-anchor="middle" x="541.82" y="-63.5" font-family="Consolas" font-size="10.00">libccc/fixed.h</text>
</a>
</g>
</g>
<!-- Node13&#45;&gt;Node14 -->
<g id="edge19" class="edge">
<title>Node13&#45;&gt;Node14</title>
<path fill="none" stroke="midnightblue" d="M505.92,-112.08C512.05,-104.38 521.09,-93.03 528.56,-83.65"/>
<polygon fill="midnightblue" stroke="midnightblue" points="531.36,-85.75 534.85,-75.75 525.88,-81.39 531.36,-85.75"/>
</g>
<!-- Node14&#45;&gt;Node2 -->
<g id="edge20" class="edge">
<title>Node14&#45;&gt;Node2</title>
<path fill="none" stroke="midnightblue" d="M548.18,-75.77C554.08,-84.47 562.42,-98.43 565.82,-112 574.79,-147.9 562.41,-167.18 531.82,-188 496.31,-212.17 373.92,-224.98 309.77,-230.17"/>
<polygon fill="midnightblue" stroke="midnightblue" points="309.32,-226.7 299.62,-230.97 309.87,-233.68 309.32,-226.7"/>
</g>
<!-- Node15&#45;&gt;Node1 -->
<g id="edge22" class="edge">
<title>Node15&#45;&gt;Node1</title>
<path fill="none" stroke="midnightblue" d="M819.33,-131.57C796.43,-157.79 727.01,-237.26 696.48,-272.21"/>
<polygon fill="midnightblue" stroke="midnightblue" points="693.56,-270.24 689.61,-280.08 698.83,-274.85 693.56,-270.24"/>
</g>
</g>
</svg>
