<?xml version="1.0" encoding="UTF-8" standalone="no"?>
<!DOCTYPE svg PUBLIC "-//W3C//DTD SVG 1.1//EN"
 "http://www.w3.org/Graphics/SVG/1.1/DTD/svg11.dtd">
<!-- Generated by graphviz version 2.43.0 (0)
 -->
<!-- Title: libccc/format.h Pages: 1 -->
<!--zoomable 308 -->
<svg id="main" version="1.1" xmlns="http://www.w3.org/2000/svg" xmlns:xlink="http://www.w3.org/1999/xlink" xml:space="preserve" onload="init(evt)">
<style type="text/css"><![CDATA[
.edge:hover path { stroke: red; }
.edge:hover polygon { stroke: red; fill: red; }
]]></style>
<script type="text/javascript"><![CDATA[
var edges = document.getElementsByTagName('g');
if (edges && edges.length) {
  for (var i=0;i<edges.length;i++) {
    if (edges[i].id.substr(0,4)=='edge') {
      edges[i].setAttribute('class','edge');
    }
  }
}
]]></script>
        <defs>
                <circle id="rim" cx="0" cy="0" r="7"/>
                <circle id="rim2" cx="0" cy="0" r="3.5"/>
                <g id="zoomPlus">
                        <use xlink:href="#rim" fill="#404040">
                                <set attributeName="fill" to="#808080" begin="zoomplus.mouseover" end="zoomplus.mouseout"/>
                        </use>
                        <path d="M-4,0h8M0,-4v8" fill="none" stroke="white" stroke-width="1.5" pointer-events="none"/>
                </g>
                <g id="zoomMin">
                        <use xlink:href="#rim" fill="#404040">
                                <set attributeName="fill" to="#808080" begin="zoomminus.mouseover" end="zoomminus.mouseout"/>
                        </use>
                        <path d="M-4,0h8" fill="none" stroke="white" stroke-width="1.5" pointer-events="none"/>
                </g>
                <g id="dirArrow">
                        <path fill="none" stroke="white" stroke-width="1.5" d="M0,-3.0v7 M-2.5,-0.5L0,-3.0L2.5,-0.5"/>
                </g>
               <g id="resetDef">
                       <use xlink:href="#rim2" fill="#404040">
                               <set attributeName="fill" to="#808080" begin="reset.mouseover" end="reset.mouseout"/>
                       </use>
               </g>
        </defs>

<script type="text/javascript">
var viewWidth = 901;
var viewHeight = 308;
var sectionId = 'dynsection-0';
</script>
<script xlink:href="svgpan.js"/>
<svg id="graph" class="graph">
<g id="viewport">
<title>libccc/format.h</title>
<polygon fill="white" stroke="transparent" points="-4,4 -4,-304 896.86,-304 896.86,4 -4,4"/>
<!-- Node1 -->
<g id="node1" class="node">
<title>Node1</title>
<g id="a_node1"><a xlink:title=" ">
<polygon fill="#bfbfbf" stroke="black" points="140.36,-280.5 140.36,-299.5 235.36,-299.5 235.36,-280.5 140.36,-280.5"/>
<text text-anchor="middle" x="187.86" y="-287.5" font-family="Consolas" font-size="10.00">libccc/format.h</text>
</a>
</g>
</g>
<!-- Node2 -->
<g id="node2" class="node">
<title>Node2</title>
<g id="a_node2"><a xlink:title=" ">
<polygon fill="white" stroke="#bfbfbf" points="76.36,-224.5 76.36,-243.5 135.36,-243.5 135.36,-224.5 76.36,-224.5"/>
<text text-anchor="middle" x="105.86" y="-231.5" font-family="Consolas" font-size="10.00">stdarg.h</text>
</a>
</g>
</g>
<!-- Node1&#45;&gt;Node2 -->
<g id="edge1" class="edge">
<title>Node1&#45;&gt;Node2</title>
<path fill="none" stroke="midnightblue" d="M174.69,-280.32C162.01,-271.98 142.63,-259.21 127.66,-249.35"/>
<polygon fill="midnightblue" stroke="midnightblue" points="129.28,-246.23 119,-243.65 125.43,-252.08 129.28,-246.23"/>
</g>
<!-- Node3 -->
<g id="node3" class="node">
<title>Node3</title>
<g id="a_node3"><a xlink:title=" ">
<polygon fill="white" stroke="#bfbfbf" points="153.36,-224.5 153.36,-243.5 222.36,-243.5 222.36,-224.5 153.36,-224.5"/>
<text text-anchor="middle" x="187.86" y="-231.5" font-family="Consolas" font-size="10.00">inttypes.h</text>
</a>
</g>
</g>
<!-- Node1&#45;&gt;Node3 -->
<g id="edge2" class="edge">
<title>Node1&#45;&gt;Node3</title>
<path fill="none" stroke="midnightblue" d="M187.86,-280.08C187.86,-273.01 187.86,-262.86 187.86,-253.99"/>
<polygon fill="midnightblue" stroke="midnightblue" points="191.36,-253.75 187.86,-243.75 184.36,-253.75 191.36,-253.75"/>
</g>
<!-- Node4 -->
<g id="node4" class="node">
<title>Node4</title>
<g id="a_node4"><a xlink:href="libccc_8h.html" target="_top" xlink:title=" ">
<polygon fill="white" stroke="black" points="240.36,-224.5 240.36,-243.5 299.36,-243.5 299.36,-224.5 240.36,-224.5"/>
<text text-anchor="middle" x="269.86" y="-231.5" font-family="Consolas" font-size="10.00">libccc.h</text>
</a>
</g>
</g>
<!-- Node1&#45;&gt;Node4 -->
<g id="edge3" class="edge">
<title>Node1&#45;&gt;Node4</title>
<path fill="none" stroke="midnightblue" d="M201.04,-280.32C213.71,-271.98 233.09,-259.21 248.07,-249.35"/>
<polygon fill="midnightblue" stroke="midnightblue" points="250.29,-252.08 256.72,-243.65 246.44,-246.23 250.29,-252.08"/>
</g>
<!-- Node5 -->
<g id="node5" class="node">
<title>Node5</title>
<g id="a_node5"><a xlink:href="libccc__define_8h.html" target="_top" xlink:title=" ">
<polygon fill="white" stroke="black" points="108.36,-56.5 108.36,-75.5 203.36,-75.5 203.36,-56.5 108.36,-56.5"/>
<text text-anchor="middle" x="155.86" y="-63.5" font-family="Consolas" font-size="10.00">libccc_define.h</text>
</a>
</g>
</g>
<!-- Node4&#45;&gt;Node5 -->
<g id="edge4" class="edge">
<title>Node4&#45;&gt;Node5</title>
<path fill="none" stroke="midnightblue" d="M265.07,-224.42C257.96,-211.83 244.03,-187.69 230.86,-168 210.43,-137.46 184.46,-103.44 169.06,-83.7"/>
<polygon fill="midnightblue" stroke="midnightblue" points="171.71,-81.41 162.78,-75.71 166.2,-85.73 171.71,-81.41"/>
</g>
<!-- Node7 -->
<g id="node7" class="node">
<title>Node7</title>
<g id="a_node7"><a xlink:href="libccc__errors_8h.html" target="_top" xlink:title=" ">
<polygon fill="white" stroke="black" points="13.36,-112.5 13.36,-131.5 108.36,-131.5 108.36,-112.5 13.36,-112.5"/>
<text text-anchor="middle" x="60.86" y="-119.5" font-family="Consolas" font-size="10.00">libccc_errors.h</text>
</a>
</g>
</g>
<!-- Node4&#45;&gt;Node7 -->
<g id="edge6" class="edge">
<title>Node4&#45;&gt;Node7</title>
<path fill="none" stroke="midnightblue" d="M240.1,-225.91C236.98,-225.23 233.86,-224.58 230.86,-224 180.94,-214.28 37.87,-226.69 4.86,-188 -10.28,-170.25 14.07,-149.89 35.25,-136.76"/>
<polygon fill="midnightblue" stroke="midnightblue" points="37.17,-139.69 44.01,-131.6 33.62,-133.66 37.17,-139.69"/>
</g>
<!-- Node8 -->
<g id="node8" class="node">
<title>Node8</title>
<g id="a_node8"><a xlink:href="libccc__config_8h.html" target="_top" xlink:title=" ">
<polygon fill="white" stroke="black" points="14.36,-168.5 14.36,-187.5 109.36,-187.5 109.36,-168.5 14.36,-168.5"/>
<text text-anchor="middle" x="61.86" y="-175.5" font-family="Consolas" font-size="10.00">libccc_config.h</text>
</a>
</g>
</g>
<!-- Node4&#45;&gt;Node8 -->
<g id="edge8" class="edge">
<title>Node4&#45;&gt;Node8</title>
<path fill="none" stroke="midnightblue" d="M240.06,-225.26C204.54,-216.04 144.93,-200.57 104.53,-190.08"/>
<polygon fill="midnightblue" stroke="midnightblue" points="105.25,-186.65 94.7,-187.52 103.5,-193.42 105.25,-186.65"/>
</g>
<!-- Node9 -->
<g id="node9" class="node">
<title>Node9</title>
<g id="a_node9"><a xlink:href="libccc__naming_8h.html" target="_top" xlink:title=" ">
<polygon fill="white" stroke="black" points="127.36,-168.5 127.36,-187.5 222.36,-187.5 222.36,-168.5 127.36,-168.5"/>
<text text-anchor="middle" x="174.86" y="-175.5" font-family="Consolas" font-size="10.00">libccc_naming.h</text>
</a>
</g>
</g>
<!-- Node4&#45;&gt;Node9 -->
<g id="edge11" class="edge">
<title>Node4&#45;&gt;Node9</title>
<path fill="none" stroke="midnightblue" d="M254.6,-224.32C239.64,-215.82 216.61,-202.73 199.13,-192.8"/>
<polygon fill="midnightblue" stroke="midnightblue" points="200.51,-189.55 190.09,-187.65 197.05,-195.64 200.51,-189.55"/>
</g>
<!-- Node10 -->
<g id="node10" class="node">
<title>Node10</title>
<g id="a_node10"><a xlink:href="math_8h.html" target="_top" xlink:title=" ">
<polygon fill="white" stroke="black" points="495.86,-168.5 495.86,-187.5 543.86,-187.5 543.86,-168.5 495.86,-168.5"/>
<text text-anchor="middle" x="519.86" y="-175.5" font-family="Consolas" font-size="10.00">math.h</text>
</a>
</g>
</g>
<!-- Node4&#45;&gt;Node10 -->
<g id="edge13" class="edge">
<title>Node4&#45;&gt;Node10</title>
<path fill="none" stroke="midnightblue" d="M299.52,-226.59C346.25,-216.5 436.75,-196.95 485.98,-186.32"/>
<polygon fill="midnightblue" stroke="midnightblue" points="486.79,-189.72 495.82,-184.19 485.31,-182.88 486.79,-189.72"/>
</g>
<!-- Node6 -->
<g id="node6" class="node">
<title>Node6</title>
<g id="a_node6"><a xlink:title=" ">
<polygon fill="white" stroke="#bfbfbf" points="121.36,-0.5 121.36,-19.5 190.36,-19.5 190.36,-0.5 121.36,-0.5"/>
<text text-anchor="middle" x="155.86" y="-7.5" font-family="Consolas" font-size="10.00">stdalign.h</text>
</a>
</g>
</g>
<!-- Node5&#45;&gt;Node6 -->
<g id="edge5" class="edge">
<title>Node5&#45;&gt;Node6</title>
<path fill="none" stroke="midnightblue" d="M155.86,-56.08C155.86,-49.01 155.86,-38.86 155.86,-29.99"/>
<polygon fill="midnightblue" stroke="midnightblue" points="159.36,-29.75 155.86,-19.75 152.36,-29.75 159.36,-29.75"/>
</g>
<!-- Node7&#45;&gt;Node5 -->
<g id="edge7" class="edge">
<title>Node7&#45;&gt;Node5</title>
<path fill="none" stroke="midnightblue" d="M76.12,-112.32C91.08,-103.82 114.12,-90.73 131.59,-80.8"/>
<polygon fill="midnightblue" stroke="midnightblue" points="133.67,-83.64 140.64,-75.65 130.21,-77.55 133.67,-83.64"/>
</g>
<!-- Node8&#45;&gt;Node5 -->
<g id="edge9" class="edge">
<title>Node8&#45;&gt;Node5</title>
<path fill="none" stroke="midnightblue" d="M74.72,-168.43C86.61,-160.09 104.28,-146.56 116.86,-132 129.34,-117.56 140.2,-98.62 147.27,-84.91"/>
<polygon fill="midnightblue" stroke="midnightblue" points="150.57,-86.12 151.9,-75.61 144.31,-83 150.57,-86.12"/>
</g>
<!-- Node8&#45;&gt;Node7 -->
<g id="edge10" class="edge">
<title>Node8&#45;&gt;Node7</title>
<path fill="none" stroke="midnightblue" d="M61.7,-168.08C61.57,-161.01 61.38,-150.86 61.21,-141.99"/>
<polygon fill="midnightblue" stroke="midnightblue" points="64.71,-141.68 61.02,-131.75 57.71,-141.81 64.71,-141.68"/>
</g>
<!-- Node9&#45;&gt;Node5 -->
<g id="edge12" class="edge">
<title>Node9&#45;&gt;Node5</title>
<path fill="none" stroke="midnightblue" d="M173.37,-168.37C170.3,-150.62 163.23,-109.67 159.07,-85.6"/>
<polygon fill="midnightblue" stroke="midnightblue" points="162.5,-84.85 157.35,-75.59 155.6,-86.04 162.5,-84.85"/>
</g>
<!-- Node11 -->
<g id="node11" class="node">
<title>Node11</title>
<g id="a_node11"><a xlink:href="constants_8h.html" target="_top" xlink:title=" ">
<polygon fill="white" stroke="black" points="451.36,-112.5 451.36,-131.5 588.36,-131.5 588.36,-112.5 451.36,-112.5"/>
<text text-anchor="middle" x="519.86" y="-119.5" font-family="Consolas" font-size="10.00">libccc/math/constants.h</text>
</a>
</g>
</g>
<!-- Node10&#45;&gt;Node11 -->
<g id="edge14" class="edge">
<title>Node10&#45;&gt;Node11</title>
<path fill="none" stroke="midnightblue" d="M519.86,-168.08C519.86,-161.01 519.86,-150.86 519.86,-141.99"/>
<polygon fill="midnightblue" stroke="midnightblue" points="523.36,-141.75 519.86,-131.75 516.36,-141.75 523.36,-141.75"/>
</g>
<!-- Node13 -->
<g id="node13" class="node">
<title>Node13</title>
<g id="a_node13"><a xlink:href="math_2int_8h.html" target="_top" xlink:title=" ">
<polygon fill="white" stroke="black" points="740.86,-112.5 740.86,-131.5 846.86,-131.5 846.86,-112.5 740.86,-112.5"/>
<text text-anchor="middle" x="793.86" y="-119.5" font-family="Consolas" font-size="10.00">libccc/math/int.h</text>
</a>
</g>
</g>
<!-- Node10&#45;&gt;Node13 -->
<g id="edge17" class="edge">
<title>Node10&#45;&gt;Node13</title>
<path fill="none" stroke="midnightblue" d="M544.18,-172.21C588.01,-163.57 681.2,-145.2 740.51,-133.51"/>
<polygon fill="midnightblue" stroke="midnightblue" points="741.32,-136.92 750.45,-131.56 739.96,-130.06 741.32,-136.92"/>
</g>
<!-- Node16 -->
<g id="node16" class="node">
<title>Node16</title>
<g id="a_node16"><a xlink:href="math_2fixed_8h.html" target="_top" xlink:title=" ">
<polygon fill="white" stroke="black" points="606.86,-112.5 606.86,-131.5 722.86,-131.5 722.86,-112.5 606.86,-112.5"/>
<text text-anchor="middle" x="664.86" y="-119.5" font-family="Consolas" font-size="10.00">libccc/math/fixed.h</text>
</a>
</g>
</g>
<!-- Node10&#45;&gt;Node16 -->
<g id="edge21" class="edge">
<title>Node10&#45;&gt;Node16</title>
<path fill="none" stroke="midnightblue" d="M542.84,-168.44C567.02,-159.44 605.28,-145.19 632.51,-135.05"/>
<polygon fill="midnightblue" stroke="midnightblue" points="633.84,-138.29 641.99,-131.52 631.4,-131.73 633.84,-138.29"/>
</g>
<!-- Node18 -->
<g id="node18" class="node">
<title>Node18</title>
<g id="a_node18"><a xlink:href="math_2float_8h.html" target="_top" xlink:title=" ">
<polygon fill="white" stroke="black" points="316.86,-112.5 316.86,-131.5 432.86,-131.5 432.86,-112.5 316.86,-112.5"/>
<text text-anchor="middle" x="374.86" y="-119.5" font-family="Consolas" font-size="10.00">libccc/math/float.h</text>
</a>
</g>
</g>
<!-- Node10&#45;&gt;Node18 -->
<g id="edge24" class="edge">
<title>Node10&#45;&gt;Node18</title>
<path fill="none" stroke="midnightblue" d="M496.89,-168.44C472.7,-159.44 434.44,-145.19 407.22,-135.05"/>
<polygon fill="midnightblue" stroke="midnightblue" points="408.32,-131.73 397.73,-131.52 405.88,-138.29 408.32,-131.73"/>
</g>
<!-- Node12 -->
<g id="node12" class="node">
<title>Node12</title>
<g id="a_node12"><a xlink:href="float_8h.html" target="_top" xlink:title=" ">
<polygon fill="white" stroke="black" points="329.86,-56.5 329.86,-75.5 419.86,-75.5 419.86,-56.5 329.86,-56.5"/>
<text text-anchor="middle" x="374.86" y="-63.5" font-family="Consolas" font-size="10.00">libccc/float.h</text>
</a>
</g>
</g>
<!-- Node11&#45;&gt;Node12 -->
<g id="edge15" class="edge">
<title>Node11&#45;&gt;Node12</title>
<path fill="none" stroke="midnightblue" d="M496.89,-112.44C472.7,-103.44 434.44,-89.19 407.22,-79.05"/>
<polygon fill="midnightblue" stroke="midnightblue" points="408.32,-75.73 397.73,-75.52 405.88,-82.29 408.32,-75.73"/>
</g>
<!-- Node12&#45;&gt;Node4 -->
<g id="edge16" class="edge">
<title>Node12&#45;&gt;Node4</title>
<path fill="none" stroke="midnightblue" d="M355.47,-75.55C340.45,-83.11 320.19,-95.5 307.86,-112 284.66,-143.05 275.4,-188.61 271.88,-214.05"/>
<polygon fill="midnightblue" stroke="midnightblue" points="268.37,-213.84 270.63,-224.19 275.32,-214.69 268.37,-213.84"/>
</g>
<!-- Node14 -->
<g id="node14" class="node">
<title>Node14</title>
<g id="a_node14"><a xlink:href="int_8h.html" target="_top" xlink:title=" ">
<polygon fill="white" stroke="black" points="812.86,-56.5 812.86,-75.5 892.86,-75.5 892.86,-56.5 812.86,-56.5"/>
<text text-anchor="middle" x="852.86" y="-63.5" font-family="Consolas" font-size="10.00">libccc/int.h</text>
</a>
</g>
</g>
<!-- Node13&#45;&gt;Node14 -->
<g id="edge18" class="edge">
<title>Node13&#45;&gt;Node14</title>
<path fill="none" stroke="midnightblue" d="M803.34,-112.32C812.06,-104.34 825.2,-92.31 835.76,-82.65"/>
<polygon fill="midnightblue" stroke="midnightblue" points="838.2,-85.17 843.21,-75.83 833.47,-80 838.2,-85.17"/>
</g>
<!-- Node14&#45;&gt;Node4 -->
<g id="edge20" class="edge">
<title>Node14&#45;&gt;Node4</title>
<path fill="none" stroke="midnightblue" d="M859.82,-75.87C869.07,-88.82 883.14,-113.4 872.86,-132 850.27,-172.91 828.16,-173.1 783.86,-188 696.03,-217.54 414.44,-228.73 309.65,-231.93"/>
<polygon fill="midnightblue" stroke="midnightblue" points="309.38,-228.44 299.49,-232.23 309.59,-235.43 309.38,-228.44"/>
</g>
<!-- Node15 -->
<g id="node15" class="node">
<title>Node15</title>
<g id="a_node15"><a xlink:title=" ">
<polygon fill="white" stroke="#bfbfbf" points="823.36,-0.5 823.36,-19.5 882.36,-19.5 882.36,-0.5 823.36,-0.5"/>
<text text-anchor="middle" x="852.86" y="-7.5" font-family="Consolas" font-size="10.00">stdint.h</text>
</a>
</g>
</g>
<!-- Node14&#45;&gt;Node15 -->
<g id="edge19" class="edge">
<title>Node14&#45;&gt;Node15</title>
<path fill="none" stroke="midnightblue" d="M852.86,-56.08C852.86,-49.01 852.86,-38.86 852.86,-29.99"/>
<polygon fill="midnightblue" stroke="midnightblue" points="856.36,-29.75 852.86,-19.75 849.36,-29.75 856.36,-29.75"/>
</g>
<!-- Node17 -->
<g id="node17" class="node">
<title>Node17</title>
<g id="a_node17"><a xlink:href="fixed_8h.html" target="_top" xlink:title=" ">
<polygon fill="white" stroke="black" points="661.86,-56.5 661.86,-75.5 751.86,-75.5 751.86,-56.5 661.86,-56.5"/>
<text text-anchor="middle" x="706.86" y="-63.5" font-family="Consolas" font-size="10.00">libccc/fixed.h</text>
</a>
</g>
</g>
<!-- Node16&#45;&gt;Node17 -->
<g id="edge22" class="edge">
<title>Node16&#45;&gt;Node17</title>
<path fill="none" stroke="midnightblue" d="M671.8,-112.08C677.79,-104.38 686.61,-93.03 693.91,-83.65"/>
<polygon fill="midnightblue" stroke="midnightblue" points="696.68,-85.79 700.06,-75.75 691.15,-81.5 696.68,-85.79"/>
</g>
<!-- Node17&#45;&gt;Node4 -->
<g id="edge23" class="edge">
<title>Node17&#45;&gt;Node4</title>
<path fill="none" stroke="midnightblue" d="M752.13,-71.06C806.69,-77.7 887.36,-94.14 855.86,-132 785.91,-216.06 430.41,-230.16 309.89,-232.52"/>
<polygon fill="midnightblue" stroke="midnightblue" points="309.57,-229.03 299.63,-232.71 309.69,-236.03 309.57,-229.03"/>
</g>
<!-- Node18&#45;&gt;Node12 -->
<g id="edge25" class="edge">
<title>Node18&#45;&gt;Node12</title>
<path fill="none" stroke="midnightblue" d="M374.86,-112.08C374.86,-105.01 374.86,-94.86 374.86,-85.99"/>
<polygon fill="midnightblue" stroke="midnightblue" points="378.36,-85.75 374.86,-75.75 371.36,-85.75 378.36,-85.75"/>
</g>
</g>
</svg>
        <g id="navigator" transform="translate(0 0)" fill="#404254">
                <rect fill="#f2f5e9" fill-opacity="0.5" stroke="#606060" stroke-width=".5" x="0" y="0" width="60" height="60"/>
                <use id="zoomplus" xlink:href="#zoomPlus" x="17" y="9" onmousedown="handleZoom(evt,'in')"/>
                <use id="zoomminus" xlink:href="#zoomMin" x="42" y="9" onmousedown="handleZoom(evt,'out')"/>
                <use id="reset" xlink:href="#resetDef" x="30" y="36" onmousedown="handleReset()"/>
                <g id="arrowUp" xlink:href="#dirArrow" transform="translate(30 24)" onmousedown="handlePan(0,-1)">
                  <use xlink:href="#rim" fill="#404040">
                        <set attributeName="fill" to="#808080" begin="arrowUp.mouseover" end="arrowUp.mouseout"/>
                  </use>
                  <path fill="none" stroke="white" stroke-width="1.5" d="M0,-3.0v7 M-2.5,-0.5L0,-3.0L2.5,-0.5"/>
                </g>
                <g id="arrowRight" xlink:href="#dirArrow" transform="rotate(90) translate(36 -43)" onmousedown="handlePan(1,0)">
                  <use xlink:href="#rim" fill="#404040">
                        <set attributeName="fill" to="#808080" begin="arrowRight.mouseover" end="arrowRight.mouseout"/>
                  </use>
                  <path fill="none" stroke="white" stroke-width="1.5" d="M0,-3.0v7 M-2.5,-0.5L0,-3.0L2.5,-0.5"/>
                </g>
                <g id="arrowDown" xlink:href="#dirArrow" transform="rotate(180) translate(-30 -48)" onmousedown="handlePan(0,1)">
                  <use xlink:href="#rim" fill="#404040">
                        <set attributeName="fill" to="#808080" begin="arrowDown.mouseover" end="arrowDown.mouseout"/>
                  </use>
                  <path fill="none" stroke="white" stroke-width="1.5" d="M0,-3.0v7 M-2.5,-0.5L0,-3.0L2.5,-0.5"/>
                </g>
                <g id="arrowLeft" xlink:href="#dirArrow" transform="rotate(270) translate(-36 17)" onmousedown="handlePan(-1,0)">
                  <use xlink:href="#rim" fill="#404040">
                        <set attributeName="fill" to="#808080" begin="arrowLeft.mouseover" end="arrowLeft.mouseout"/>
                  </use>
                  <path fill="none" stroke="white" stroke-width="1.5" d="M0,-3.0v7 M-2.5,-0.5L0,-3.0L2.5,-0.5"/>
                </g>
        </g>
        <svg viewBox="0 0 15 15" width="100%" height="30px" preserveAspectRatio="xMaxYMin meet">
         <g id="arrow_out" transform="scale(0.3 0.3)">
          <a xlink:href="format_8h__incl_org.svg" target="_base">
           <rect id="button" ry="5" rx="5" y="6" x="6" height="38" width="38"
                fill="#f2f5e9" fill-opacity="0.5" stroke="#606060" stroke-width="1.0"/>
           <path id="arrow"
             d="M 11.500037,31.436501 C 11.940474,20.09759 22.043105,11.32322 32.158766,21.979434 L 37.068811,17.246167 C 37.068811,17.246167 37.088388,32 37.088388,32 L 22.160133,31.978069 C 22.160133,31.978069 26.997745,27.140456 26.997745,27.140456 C 18.528582,18.264221 13.291696,25.230495 11.500037,31.436501 z"
             style="fill:#404040;"/>
          </a>
         </g>
        </svg>
</svg>
