<?xml version="1.0" encoding="UTF-8" standalone="no"?>
<!DOCTYPE svg PUBLIC "-//W3C//DTD SVG 1.1//EN"
 "http://www.w3.org/Graphics/SVG/1.1/DTD/svg11.dtd">
<!-- Generated by graphviz version 2.50.0 (20211204.2007)
 -->
<!-- Title: libccc/format.h Pages: 1 -->
<svg width="331pt" height="308pt"
 viewBox="0.00 0.00 330.50 308.00" xmlns="http://www.w3.org/2000/svg" xmlns:xlink="http://www.w3.org/1999/xlink">
<g id="graph0" class="graph" transform="scale(1 1) rotate(0) translate(4 304)">
<title>libccc/format.h</title>
<polygon fill="white" stroke="transparent" points="-4,4 -4,-304 326.5,-304 326.5,4 -4,4"/>
<!-- Node1 -->
<g id="node1" class="node">
<title>Node1</title>
<g id="a_node1"><a xlink:title=" ">
<polygon fill="#bfbfbf" stroke="black" points="59.5,-280.5 59.5,-299.5 140.5,-299.5 140.5,-280.5 59.5,-280.5"/>
<text text-anchor="middle" x="100" y="-287.5" font-family="Consolas" font-size="10.00">libccc/format.h</text>
</a>
</g>
</g>
<!-- Node2 -->
<g id="node2" class="node">
<title>Node2</title>
<g id="a_node2"><a xlink:title=" ">
<polygon fill="white" stroke="#bfbfbf" points="0,-224.5 0,-243.5 52,-243.5 52,-224.5 0,-224.5"/>
<text text-anchor="middle" x="26" y="-231.5" font-family="Consolas" font-size="10.00">stdarg.h</text>
</a>
</g>
</g>
<!-- Node1&#45;&gt;Node2 -->
<g id="edge1" class="edge">
<title>Node1&#45;&gt;Node2</title>
<path fill="none" stroke="midnightblue" d="M88.11,-280.32C76.85,-272.11 59.71,-259.6 46.29,-249.81"/>
<polygon fill="midnightblue" stroke="midnightblue" points="48.25,-246.9 38.11,-243.83 44.12,-252.56 48.25,-246.9"/>
</g>
<!-- Node3 -->
<g id="node3" class="node">
<title>Node3</title>
<g id="a_node3"><a xlink:title=" ">
<polygon fill="white" stroke="#bfbfbf" points="70.5,-224.5 70.5,-243.5 129.5,-243.5 129.5,-224.5 70.5,-224.5"/>
<text text-anchor="middle" x="100" y="-231.5" font-family="Consolas" font-size="10.00">inttypes.h</text>
</a>
</g>
</g>
<!-- Node1&#45;&gt;Node3 -->
<g id="edge2" class="edge">
<title>Node1&#45;&gt;Node3</title>
<path fill="none" stroke="midnightblue" d="M100,-280.08C100,-273.01 100,-262.86 100,-253.99"/>
<polygon fill="midnightblue" stroke="midnightblue" points="103.5,-253.75 100,-243.75 96.5,-253.75 103.5,-253.75"/>
</g>
<!-- Node4 -->
<g id="node4" class="node">
<title>Node4</title>
<g id="a_node4"><a xlink:href="libccc_8h.html" target="_top" xlink:title=" ">
<polygon fill="white" stroke="black" points="148,-224.5 148,-243.5 198,-243.5 198,-224.5 148,-224.5"/>
<text text-anchor="middle" x="173" y="-231.5" font-family="Consolas" font-size="10.00">libccc.h</text>
</a>
</g>
</g>
<!-- Node1&#45;&gt;Node4 -->
<g id="edge3" class="edge">
<title>Node1&#45;&gt;Node4</title>
<path fill="none" stroke="midnightblue" d="M111.73,-280.32C122.84,-272.11 139.74,-259.6 152.98,-249.81"/>
<polygon fill="midnightblue" stroke="midnightblue" points="155.1,-252.59 161.06,-243.83 150.94,-246.97 155.1,-252.59"/>
</g>
<!-- Node5 -->
<g id="node5" class="node">
<title>Node5</title>
<g id="a_node5"><a xlink:href="libccc__define_8h.html" target="_top" xlink:title=" ">
<polygon fill="white" stroke="black" points="132,-56.5 132,-75.5 214,-75.5 214,-56.5 132,-56.5"/>
<text text-anchor="middle" x="173" y="-63.5" font-family="Consolas" font-size="10.00">libccc_define.h</text>
</a>
</g>
</g>
<!-- Node4&#45;&gt;Node5 -->
<g id="edge4" class="edge">
<title>Node4&#45;&gt;Node5</title>
<path fill="none" stroke="midnightblue" d="M159.08,-224.45C129.26,-205.01 63.94,-155.78 90,-112 99.1,-96.72 115.39,-86.31 131.14,-79.39"/>
<polygon fill="midnightblue" stroke="midnightblue" points="132.83,-82.48 140.82,-75.51 130.23,-75.98 132.83,-82.48"/>
</g>
<!-- Node7 -->
<g id="node7" class="node">
<title>Node7</title>
<g id="a_node7"><a xlink:href="libccc__errors_8h.html" target="_top" xlink:title=" ">
<polygon fill="white" stroke="black" points="99,-112.5 99,-131.5 179,-131.5 179,-112.5 99,-112.5"/>
<text text-anchor="middle" x="139" y="-119.5" font-family="Consolas" font-size="10.00">libccc_errors.h</text>
</a>
</g>
</g>
<!-- Node4&#45;&gt;Node7 -->
<g id="edge6" class="edge">
<title>Node4&#45;&gt;Node7</title>
<path fill="none" stroke="midnightblue" d="M169.75,-224.43C166.38,-215.43 161.05,-200.81 157,-188 152.1,-172.47 147.21,-154.63 143.77,-141.58"/>
<polygon fill="midnightblue" stroke="midnightblue" points="147.15,-140.69 141.25,-131.89 140.38,-142.45 147.15,-140.69"/>
</g>
<!-- Node8 -->
<g id="node8" class="node">
<title>Node8</title>
<g id="a_node8"><a xlink:href="libccc__config_8h.html" target="_top" xlink:title=" ">
<polygon fill="white" stroke="black" points="166,-168.5 166,-187.5 248,-187.5 248,-168.5 166,-168.5"/>
<text text-anchor="middle" x="207" y="-175.5" font-family="Consolas" font-size="10.00">libccc_config.h</text>
</a>
</g>
</g>
<!-- Node4&#45;&gt;Node8 -->
<g id="edge8" class="edge">
<title>Node4&#45;&gt;Node8</title>
<path fill="none" stroke="midnightblue" d="M178.61,-224.08C183.37,-216.53 190.32,-205.49 196.15,-196.23"/>
<polygon fill="midnightblue" stroke="midnightblue" points="199.12,-198.08 201.49,-187.75 193.2,-194.35 199.12,-198.08"/>
</g>
<!-- Node9 -->
<g id="node9" class="node">
<title>Node9</title>
<g id="a_node9"><a xlink:href="libccc__naming_8h.html" target="_top" xlink:title=" ">
<polygon fill="white" stroke="black" points="235.5,-112.5 235.5,-131.5 322.5,-131.5 322.5,-112.5 235.5,-112.5"/>
<text text-anchor="middle" x="279" y="-119.5" font-family="Consolas" font-size="10.00">libccc_naming.h</text>
</a>
</g>
</g>
<!-- Node4&#45;&gt;Node9 -->
<g id="edge11" class="edge">
<title>Node4&#45;&gt;Node9</title>
<path fill="none" stroke="midnightblue" d="M198.33,-225.14C216.95,-218.15 241.6,-206.18 257,-188 268.18,-174.8 273.75,-155.67 276.49,-141.57"/>
<polygon fill="midnightblue" stroke="midnightblue" points="279.96,-142 278.12,-131.56 273.05,-140.87 279.96,-142"/>
</g>
<!-- Node6 -->
<g id="node6" class="node">
<title>Node6</title>
<g id="a_node6"><a xlink:title=" ">
<polygon fill="white" stroke="#bfbfbf" points="143.5,-0.5 143.5,-19.5 202.5,-19.5 202.5,-0.5 143.5,-0.5"/>
<text text-anchor="middle" x="173" y="-7.5" font-family="Consolas" font-size="10.00">stdalign.h</text>
</a>
</g>
</g>
<!-- Node5&#45;&gt;Node6 -->
<g id="edge5" class="edge">
<title>Node5&#45;&gt;Node6</title>
<path fill="none" stroke="midnightblue" d="M173,-56.08C173,-49.01 173,-38.86 173,-29.99"/>
<polygon fill="midnightblue" stroke="midnightblue" points="176.5,-29.75 173,-19.75 169.5,-29.75 176.5,-29.75"/>
</g>
<!-- Node7&#45;&gt;Node5 -->
<g id="edge7" class="edge">
<title>Node7&#45;&gt;Node5</title>
<path fill="none" stroke="midnightblue" d="M144.61,-112.08C149.37,-104.53 156.32,-93.49 162.15,-84.23"/>
<polygon fill="midnightblue" stroke="midnightblue" points="165.12,-86.08 167.49,-75.75 159.2,-82.35 165.12,-86.08"/>
</g>
<!-- Node8&#45;&gt;Node5 -->
<g id="edge9" class="edge">
<title>Node8&#45;&gt;Node5</title>
<path fill="none" stroke="midnightblue" d="M204.52,-168.14C200.99,-155.6 194.25,-131.97 188,-112 185.23,-103.15 182,-93.37 179.24,-85.2"/>
<polygon fill="midnightblue" stroke="midnightblue" points="182.51,-83.94 175.97,-75.6 175.88,-86.19 182.51,-83.94"/>
</g>
<!-- Node8&#45;&gt;Node7 -->
<g id="edge10" class="edge">
<title>Node8&#45;&gt;Node7</title>
<path fill="none" stroke="midnightblue" d="M196.07,-168.32C185.83,-160.18 170.28,-147.84 158,-138.09"/>
<polygon fill="midnightblue" stroke="midnightblue" points="160.13,-135.31 150.12,-131.83 155.78,-140.79 160.13,-135.31"/>
</g>
<!-- Node9&#45;&gt;Node5 -->
<g id="edge12" class="edge">
<title>Node9&#45;&gt;Node5</title>
<path fill="none" stroke="midnightblue" d="M261.97,-112.32C244.97,-103.66 218.62,-90.24 199.01,-80.25"/>
<polygon fill="midnightblue" stroke="midnightblue" points="200.49,-77.08 189.99,-75.65 197.31,-83.31 200.49,-77.08"/>
</g>
</g>
</svg>
