<?xml version="1.0" encoding="UTF-8" standalone="no"?>
<!DOCTYPE svg PUBLIC "-//W3C//DTD SVG 1.1//EN"
 "http://www.w3.org/Graphics/SVG/1.1/DTD/svg11.dtd">
<!-- Generated by graphviz version 2.49.3 (20211023.0002)
 -->
<!-- Title: libccc/format.h Pages: 1 -->
<svg width="254pt" height="308pt"
 viewBox="0.00 0.00 253.50 308.00" xmlns="http://www.w3.org/2000/svg" xmlns:xlink="http://www.w3.org/1999/xlink">
<g id="graph0" class="graph" transform="scale(1 1) rotate(0) translate(4 304)">
<title>libccc/format.h</title>
<polygon fill="white" stroke="transparent" points="-4,4 -4,-304 249.5,-304 249.5,4 -4,4"/>
<!-- Node1 -->
<g id="node1" class="node">
<title>Node1</title>
<g id="a_node1"><a xlink:title=" ">
<polygon fill="#bfbfbf" stroke="black" points="19.5,-280.5 19.5,-299.5 100.5,-299.5 100.5,-280.5 19.5,-280.5"/>
<text text-anchor="middle" x="60" y="-287.5" font-family="Consolas" font-size="10.00">libccc/format.h</text>
</a>
</g>
</g>
<!-- Node2 -->
<g id="node2" class="node">
<title>Node2</title>
<g id="a_node2"><a xlink:title=" ">
<polygon fill="white" stroke="#bfbfbf" points="0,-224.5 0,-243.5 52,-243.5 52,-224.5 0,-224.5"/>
<text text-anchor="middle" x="26" y="-231.5" font-family="Consolas" font-size="10.00">stdarg.h</text>
</a>
</g>
</g>
<!-- Node1&#45;&gt;Node2 -->
<g id="edge1" class="edge">
<title>Node1&#45;&gt;Node2</title>
<path fill="none" stroke="midnightblue" d="M54.39,-280.08C49.63,-272.53 42.68,-261.49 36.85,-252.23"/>
<polygon fill="midnightblue" stroke="midnightblue" points="39.8,-250.35 31.51,-243.75 33.88,-254.08 39.8,-250.35"/>
</g>
<!-- Node3 -->
<g id="node3" class="node">
<title>Node3</title>
<g id="a_node3"><a xlink:href="libccc_8h.html" target="_top" xlink:title=" ">
<polygon fill="white" stroke="black" points="70,-224.5 70,-243.5 120,-243.5 120,-224.5 70,-224.5"/>
<text text-anchor="middle" x="95" y="-231.5" font-family="Consolas" font-size="10.00">libccc.h</text>
</a>
</g>
</g>
<!-- Node1&#45;&gt;Node3 -->
<g id="edge2" class="edge">
<title>Node1&#45;&gt;Node3</title>
<path fill="none" stroke="midnightblue" d="M65.78,-280.08C70.67,-272.53 77.83,-261.49 83.83,-252.23"/>
<polygon fill="midnightblue" stroke="midnightblue" points="86.83,-254.05 89.33,-243.75 80.95,-250.24 86.83,-254.05"/>
</g>
<!-- Node4 -->
<g id="node4" class="node">
<title>Node4</title>
<g id="a_node4"><a xlink:href="libccc__define_8h.html" target="_top" xlink:title=" ">
<polygon fill="white" stroke="black" points="55,-56.5 55,-75.5 137,-75.5 137,-56.5 55,-56.5"/>
<text text-anchor="middle" x="96" y="-63.5" font-family="Consolas" font-size="10.00">libccc_define.h</text>
</a>
</g>
</g>
<!-- Node3&#45;&gt;Node4 -->
<g id="edge3" class="edge">
<title>Node3&#45;&gt;Node4</title>
<path fill="none" stroke="midnightblue" d="M81.22,-224.42C51.69,-204.93 -12.96,-155.61 13,-112 22.1,-96.72 38.39,-86.31 54.14,-79.39"/>
<polygon fill="midnightblue" stroke="midnightblue" points="55.83,-82.48 63.82,-75.51 53.23,-75.98 55.83,-82.48"/>
</g>
<!-- Node6 -->
<g id="node6" class="node">
<title>Node6</title>
<g id="a_node6"><a xlink:href="libccc__errors_8h.html" target="_top" xlink:title=" ">
<polygon fill="white" stroke="black" points="22,-112.5 22,-131.5 102,-131.5 102,-112.5 22,-112.5"/>
<text text-anchor="middle" x="62" y="-119.5" font-family="Consolas" font-size="10.00">libccc_errors.h</text>
</a>
</g>
</g>
<!-- Node3&#45;&gt;Node6 -->
<g id="edge5" class="edge">
<title>Node3&#45;&gt;Node6</title>
<path fill="none" stroke="midnightblue" d="M91.99,-224.42C88.86,-215.39 83.89,-200.76 80,-188 75.25,-172.42 70.35,-154.59 66.86,-141.55"/>
<polygon fill="midnightblue" stroke="midnightblue" points="70.24,-140.64 64.3,-131.87 63.48,-142.44 70.24,-140.64"/>
</g>
<!-- Node7 -->
<g id="node7" class="node">
<title>Node7</title>
<g id="a_node7"><a xlink:href="libccc__config_8h.html" target="_top" xlink:title=" ">
<polygon fill="white" stroke="black" points="89,-168.5 89,-187.5 171,-187.5 171,-168.5 89,-168.5"/>
<text text-anchor="middle" x="130" y="-175.5" font-family="Consolas" font-size="10.00">libccc_config.h</text>
</a>
</g>
</g>
<!-- Node3&#45;&gt;Node7 -->
<g id="edge7" class="edge">
<title>Node3&#45;&gt;Node7</title>
<path fill="none" stroke="midnightblue" d="M100.78,-224.08C105.67,-216.53 112.83,-205.49 118.83,-196.23"/>
<polygon fill="midnightblue" stroke="midnightblue" points="121.83,-198.05 124.33,-187.75 115.95,-194.24 121.83,-198.05"/>
</g>
<!-- Node8 -->
<g id="node8" class="node">
<title>Node8</title>
<g id="a_node8"><a xlink:href="libccc__naming_8h.html" target="_top" xlink:title=" ">
<polygon fill="white" stroke="black" points="158.5,-112.5 158.5,-131.5 245.5,-131.5 245.5,-112.5 158.5,-112.5"/>
<text text-anchor="middle" x="202" y="-119.5" font-family="Consolas" font-size="10.00">libccc_naming.h</text>
</a>
</g>
</g>
<!-- Node3&#45;&gt;Node8 -->
<g id="edge10" class="edge">
<title>Node3&#45;&gt;Node8</title>
<path fill="none" stroke="midnightblue" d="M120.23,-225.36C139.12,-218.43 164.31,-206.44 180,-188 191.21,-174.83 196.78,-155.69 199.5,-141.59"/>
<polygon fill="midnightblue" stroke="midnightblue" points="202.98,-142 201.13,-131.57 196.07,-140.88 202.98,-142"/>
</g>
<!-- Node5 -->
<g id="node5" class="node">
<title>Node5</title>
<g id="a_node5"><a xlink:title=" ">
<polygon fill="white" stroke="#bfbfbf" points="66.5,-0.5 66.5,-19.5 125.5,-19.5 125.5,-0.5 66.5,-0.5"/>
<text text-anchor="middle" x="96" y="-7.5" font-family="Consolas" font-size="10.00">stdalign.h</text>
</a>
</g>
</g>
<!-- Node4&#45;&gt;Node5 -->
<g id="edge4" class="edge">
<title>Node4&#45;&gt;Node5</title>
<path fill="none" stroke="midnightblue" d="M96,-56.08C96,-49.01 96,-38.86 96,-29.99"/>
<polygon fill="midnightblue" stroke="midnightblue" points="99.5,-29.75 96,-19.75 92.5,-29.75 99.5,-29.75"/>
</g>
<!-- Node6&#45;&gt;Node4 -->
<g id="edge6" class="edge">
<title>Node6&#45;&gt;Node4</title>
<path fill="none" stroke="midnightblue" d="M67.61,-112.08C72.37,-104.53 79.32,-93.49 85.15,-84.23"/>
<polygon fill="midnightblue" stroke="midnightblue" points="88.12,-86.08 90.49,-75.75 82.2,-82.35 88.12,-86.08"/>
</g>
<!-- Node7&#45;&gt;Node4 -->
<g id="edge8" class="edge">
<title>Node7&#45;&gt;Node4</title>
<path fill="none" stroke="midnightblue" d="M127.52,-168.14C123.99,-155.6 117.25,-131.97 111,-112 108.23,-103.15 105,-93.37 102.24,-85.2"/>
<polygon fill="midnightblue" stroke="midnightblue" points="105.51,-83.94 98.97,-75.6 98.88,-86.19 105.51,-83.94"/>
</g>
<!-- Node7&#45;&gt;Node6 -->
<g id="edge9" class="edge">
<title>Node7&#45;&gt;Node6</title>
<path fill="none" stroke="midnightblue" d="M119.07,-168.32C108.83,-160.18 93.28,-147.84 81,-138.09"/>
<polygon fill="midnightblue" stroke="midnightblue" points="83.13,-135.31 73.12,-131.83 78.78,-140.79 83.13,-135.31"/>
</g>
<!-- Node8&#45;&gt;Node4 -->
<g id="edge11" class="edge">
<title>Node8&#45;&gt;Node4</title>
<path fill="none" stroke="midnightblue" d="M184.97,-112.32C167.97,-103.66 141.62,-90.24 122.01,-80.25"/>
<polygon fill="midnightblue" stroke="midnightblue" points="123.49,-77.08 112.99,-75.65 120.31,-83.31 123.49,-77.08"/>
</g>
</g>
</svg>
