<?xml version="1.0" encoding="UTF-8" standalone="no"?>
<!DOCTYPE svg PUBLIC "-//W3C//DTD SVG 1.1//EN"
 "http://www.w3.org/Graphics/SVG/1.1/DTD/svg11.dtd">
<!-- Generated by graphviz version 3.0.0 (20220226.1711)
 -->
<!-- Title: libccc/format.h Pages: 1 -->
<svg width="326pt" height="308pt"
 viewBox="0.00 0.00 325.50 308.00" xmlns="http://www.w3.org/2000/svg" xmlns:xlink="http://www.w3.org/1999/xlink">
<g id="graph0" class="graph" transform="scale(1 1) rotate(0) translate(4 304)">
<title>libccc/format.h</title>
<polygon fill="white" stroke="transparent" points="-4,4 -4,-304 321.5,-304 321.5,4 -4,4"/>
<!-- Node1 -->
<g id="node1" class="node">
<title>Node1</title>
<g id="a_node1"><a xlink:title=" ">
<polygon fill="#bfbfbf" stroke="black" points="59.5,-280.5 59.5,-299.5 140.5,-299.5 140.5,-280.5 59.5,-280.5"/>
<text text-anchor="middle" x="100" y="-287.5" font-family="Consolas" font-size="10.00">libccc/format.h</text>
</a>
</g>
</g>
<!-- Node2 -->
<g id="node2" class="node">
<title>Node2</title>
<g id="a_node2"><a xlink:title=" ">
<polygon fill="white" stroke="#bfbfbf" points="0,-224.5 0,-243.5 52,-243.5 52,-224.5 0,-224.5"/>
<text text-anchor="middle" x="26" y="-231.5" font-family="Consolas" font-size="10.00">stdarg.h</text>
</a>
</g>
</g>
<!-- Node1&#45;&gt;Node2 -->
<g id="edge1" class="edge">
<title>Node1&#45;&gt;Node2</title>
<path fill="none" stroke="midnightblue" d="M88.11,-280.32C76.85,-272.11 59.71,-259.6 46.29,-249.81"/>
<polygon fill="midnightblue" stroke="midnightblue" points="48.25,-246.9 38.11,-243.83 44.12,-252.56 48.25,-246.9"/>
</g>
<!-- Node3 -->
<g id="node3" class="node">
<title>Node3</title>
<g id="a_node3"><a xlink:title=" ">
<polygon fill="white" stroke="#bfbfbf" points="70.5,-224.5 70.5,-243.5 129.5,-243.5 129.5,-224.5 70.5,-224.5"/>
<text text-anchor="middle" x="100" y="-231.5" font-family="Consolas" font-size="10.00">inttypes.h</text>
</a>
</g>
</g>
<!-- Node1&#45;&gt;Node3 -->
<g id="edge2" class="edge">
<title>Node1&#45;&gt;Node3</title>
<path fill="none" stroke="midnightblue" d="M100,-280.08C100,-273.01 100,-262.86 100,-253.99"/>
<polygon fill="midnightblue" stroke="midnightblue" points="103.5,-253.75 100,-243.75 96.5,-253.75 103.5,-253.75"/>
</g>
<!-- Node4 -->
<g id="node4" class="node">
<title>Node4</title>
<g id="a_node4"><a xlink:href="$libccc_8h.html" xlink:title=" ">
<polygon fill="white" stroke="black" points="148,-224.5 148,-243.5 198,-243.5 198,-224.5 148,-224.5"/>
<text text-anchor="middle" x="173" y="-231.5" font-family="Consolas" font-size="10.00">libccc.h</text>
</a>
</g>
</g>
<!-- Node1&#45;&gt;Node4 -->
<g id="edge3" class="edge">
<title>Node1&#45;&gt;Node4</title>
<path fill="none" stroke="midnightblue" d="M111.73,-280.32C122.84,-272.11 139.74,-259.6 152.98,-249.81"/>
<polygon fill="midnightblue" stroke="midnightblue" points="155.1,-252.59 161.06,-243.83 150.94,-246.97 155.1,-252.59"/>
</g>
<!-- Node5 -->
<g id="node5" class="node">
<title>Node5</title>
<g id="a_node5"><a xlink:href="$libccc__define_8h.html" xlink:title=" ">
<polygon fill="white" stroke="black" points="98,-56.5 98,-75.5 180,-75.5 180,-56.5 98,-56.5"/>
<text text-anchor="middle" x="139" y="-63.5" font-family="Consolas" font-size="10.00">libccc_define.h</text>
</a>
</g>
</g>
<!-- Node4&#45;&gt;Node5 -->
<g id="edge4" class="edge">
<title>Node4&#45;&gt;Node5</title>
<path fill="none" stroke="midnightblue" d="M154.83,-224.39C126.84,-209.93 74.48,-177.79 56,-132 52.67,-123.76 51.45,-119.64 56,-112 65.1,-96.72 81.39,-86.31 97.14,-79.39"/>
<polygon fill="midnightblue" stroke="midnightblue" points="98.83,-82.48 106.82,-75.51 96.23,-75.98 98.83,-82.48"/>
</g>
<!-- Node7 -->
<g id="node7" class="node">
<title>Node7</title>
<g id="a_node7"><a xlink:href="$libccc__errors_8h.html" xlink:title=" ">
<polygon fill="white" stroke="black" points="65,-112.5 65,-131.5 145,-131.5 145,-112.5 65,-112.5"/>
<text text-anchor="middle" x="105" y="-119.5" font-family="Consolas" font-size="10.00">libccc_errors.h</text>
</a>
</g>
</g>
<!-- Node4&#45;&gt;Node7 -->
<g id="edge6" class="edge">
<title>Node4&#45;&gt;Node7</title>
<path fill="none" stroke="midnightblue" d="M159.57,-224.23C148.22,-216.13 132.34,-203.1 123,-188 114.24,-173.84 109.66,-155.36 107.32,-141.72"/>
<polygon fill="midnightblue" stroke="midnightblue" points="110.75,-141 105.83,-131.61 103.82,-142.01 110.75,-141"/>
</g>
<!-- Node8 -->
<g id="node8" class="node">
<title>Node8</title>
<g id="a_node8"><a xlink:href="$libccc__config_8h.html" xlink:title=" ">
<polygon fill="white" stroke="black" points="132,-168.5 132,-187.5 214,-187.5 214,-168.5 132,-168.5"/>
<text text-anchor="middle" x="173" y="-175.5" font-family="Consolas" font-size="10.00">libccc_config.h</text>
</a>
</g>
</g>
<!-- Node4&#45;&gt;Node8 -->
<g id="edge8" class="edge">
<title>Node4&#45;&gt;Node8</title>
<path fill="none" stroke="midnightblue" d="M173,-224.08C173,-217.01 173,-206.86 173,-197.99"/>
<polygon fill="midnightblue" stroke="midnightblue" points="176.5,-197.75 173,-187.75 169.5,-197.75 176.5,-197.75"/>
</g>
<!-- Node9 -->
<g id="node9" class="node">
<title>Node9</title>
<g id="a_node9"><a xlink:href="$libccc__naming_8h.html" xlink:title=" ">
<polygon fill="white" stroke="black" points="201.5,-112.5 201.5,-131.5 288.5,-131.5 288.5,-112.5 201.5,-112.5"/>
<text text-anchor="middle" x="245" y="-119.5" font-family="Consolas" font-size="10.00">libccc_naming.h</text>
</a>
</g>
</g>
<!-- Node4&#45;&gt;Node9 -->
<g id="edge11" class="edge">
<title>Node4&#45;&gt;Node9</title>
<path fill="none" stroke="midnightblue" d="M185.78,-224.42C197.03,-216.26 213.11,-203.02 223,-188 232.31,-173.85 238.07,-155.37 241.34,-141.73"/>
<polygon fill="midnightblue" stroke="midnightblue" points="244.84,-142.13 243.54,-131.61 238,-140.65 244.84,-142.13"/>
</g>
<!-- Node10 -->
<g id="node10" class="node">
<title>Node10</title>
<g id="a_node10"><a xlink:title=" ">
<polygon fill="white" stroke="#bfbfbf" points="270.5,-168.5 270.5,-187.5 317.5,-187.5 317.5,-168.5 270.5,-168.5"/>
<text text-anchor="middle" x="294" y="-175.5" font-family="Consolas" font-size="10.00">math.h</text>
</a>
</g>
</g>
<!-- Node4&#45;&gt;Node10 -->
<g id="edge13" class="edge">
<title>Node4&#45;&gt;Node10</title>
<path fill="none" stroke="midnightblue" d="M192.17,-224.44C211.91,-215.64 242.89,-201.81 265.49,-191.72"/>
<polygon fill="midnightblue" stroke="midnightblue" points="267.21,-194.79 274.92,-187.52 264.36,-188.4 267.21,-194.79"/>
</g>
<!-- Node6 -->
<g id="node6" class="node">
<title>Node6</title>
<g id="a_node6"><a xlink:title=" ">
<polygon fill="white" stroke="#bfbfbf" points="109.5,-0.5 109.5,-19.5 168.5,-19.5 168.5,-0.5 109.5,-0.5"/>
<text text-anchor="middle" x="139" y="-7.5" font-family="Consolas" font-size="10.00">stdalign.h</text>
</a>
</g>
</g>
<!-- Node5&#45;&gt;Node6 -->
<g id="edge5" class="edge">
<title>Node5&#45;&gt;Node6</title>
<path fill="none" stroke="midnightblue" d="M139,-56.08C139,-49.01 139,-38.86 139,-29.99"/>
<polygon fill="midnightblue" stroke="midnightblue" points="142.5,-29.75 139,-19.75 135.5,-29.75 142.5,-29.75"/>
</g>
<!-- Node7&#45;&gt;Node5 -->
<g id="edge7" class="edge">
<title>Node7&#45;&gt;Node5</title>
<path fill="none" stroke="midnightblue" d="M110.61,-112.08C115.37,-104.53 122.32,-93.49 128.15,-84.23"/>
<polygon fill="midnightblue" stroke="midnightblue" points="131.12,-86.08 133.49,-75.75 125.2,-82.35 131.12,-86.08"/>
</g>
<!-- Node8&#45;&gt;Node5 -->
<g id="edge9" class="edge">
<title>Node8&#45;&gt;Node5</title>
<path fill="none" stroke="midnightblue" d="M170.52,-168.14C166.99,-155.6 160.25,-131.97 154,-112 151.23,-103.15 148,-93.37 145.24,-85.2"/>
<polygon fill="midnightblue" stroke="midnightblue" points="148.51,-83.94 141.97,-75.6 141.88,-86.19 148.51,-83.94"/>
</g>
<!-- Node8&#45;&gt;Node7 -->
<g id="edge10" class="edge">
<title>Node8&#45;&gt;Node7</title>
<path fill="none" stroke="midnightblue" d="M162.07,-168.32C151.83,-160.18 136.28,-147.84 124,-138.09"/>
<polygon fill="midnightblue" stroke="midnightblue" points="126.13,-135.31 116.12,-131.83 121.78,-140.79 126.13,-135.31"/>
</g>
<!-- Node9&#45;&gt;Node5 -->
<g id="edge12" class="edge">
<title>Node9&#45;&gt;Node5</title>
<path fill="none" stroke="midnightblue" d="M227.97,-112.32C210.97,-103.66 184.62,-90.24 165.01,-80.25"/>
<polygon fill="midnightblue" stroke="midnightblue" points="166.49,-77.08 155.99,-75.65 163.31,-83.31 166.49,-77.08"/>
</g>
</g>
</svg>
