<?xml version="1.0" encoding="UTF-8" standalone="no"?>
<!DOCTYPE svg PUBLIC "-//W3C//DTD SVG 1.1//EN"
 "http://www.w3.org/Graphics/SVG/1.1/DTD/svg11.dtd">
<!-- Generated by graphviz version 2.49.3 (20211023.0002)
 -->
<!-- Title: hdr/libccc/format.h Pages: 1 -->
<!--zoomable 308 -->
<svg id="main" version="1.1" xmlns="http://www.w3.org/2000/svg" xmlns:xlink="http://www.w3.org/1999/xlink" xml:space="preserve" onload="init(evt)">
<style type="text/css"><![CDATA[
.edge:hover path { stroke: red; }
.edge:hover polygon { stroke: red; fill: red; }
]]></style>
<script type="text/javascript"><![CDATA[
var edges = document.getElementsByTagName('g');
if (edges && edges.length) {
  for (var i=0;i<edges.length;i++) {
    if (edges[i].id.substr(0,4)=='edge') {
      edges[i].setAttribute('class','edge');
    }
  }
}
]]></script>
        <defs>
                <circle id="rim" cx="0" cy="0" r="7"/>
                <circle id="rim2" cx="0" cy="0" r="3.5"/>
                <g id="zoomPlus">
                        <use xlink:href="#rim" fill="#404040">
                                <set attributeName="fill" to="#808080" begin="zoomplus.mouseover" end="zoomplus.mouseout"/>
                        </use>
                        <path d="M-4,0h8M0,-4v8" fill="none" stroke="white" stroke-width="1.5" pointer-events="none"/>
                </g>
                <g id="zoomMin">
                        <use xlink:href="#rim" fill="#404040">
                                <set attributeName="fill" to="#808080" begin="zoomminus.mouseover" end="zoomminus.mouseout"/>
                        </use>
                        <path d="M-4,0h8" fill="none" stroke="white" stroke-width="1.5" pointer-events="none"/>
                </g>
                <g id="dirArrow">
                        <path fill="none" stroke="white" stroke-width="1.5" d="M0,-3.0v7 M-2.5,-0.5L0,-3.0L2.5,-0.5"/>
                </g>
               <g id="resetDef">
                       <use xlink:href="#rim2" fill="#404040">
                               <set attributeName="fill" to="#808080" begin="reset.mouseover" end="reset.mouseout"/>
                       </use>
               </g>
        </defs>

<script type="text/javascript">
var viewWidth = 753;
var viewHeight = 308;
var sectionId = 'dynsection-0';
</script>
<script xlink:href="svgpan.js"/>
<svg id="graph" class="graph">
<g id="viewport">
<title>hdr/libccc/format.h</title>
<polygon fill="white" stroke="transparent" points="-4,4 -4,-304 749.38,-304 749.38,4 -4,4"/>
<!-- Node1 -->
<g id="node1" class="node">
<title>Node1</title>
<g id="a_node1"><a xlink:title=" ">
<polygon fill="#bfbfbf" stroke="black" points="304.38,-280.5 304.38,-299.5 402.38,-299.5 402.38,-280.5 304.38,-280.5"/>
<text text-anchor="middle" x="353.38" y="-287.5" font-family="Consolas" font-size="10.00">hdr/libccc/format.h</text>
</a>
</g>
</g>
<!-- Node2 -->
<g id="node2" class="node">
<title>Node2</title>
<g id="a_node2"><a xlink:title=" ">
<polygon fill="white" stroke="#bfbfbf" points="293.38,-224.5 293.38,-243.5 345.38,-243.5 345.38,-224.5 293.38,-224.5"/>
<text text-anchor="middle" x="319.38" y="-231.5" font-family="Consolas" font-size="10.00">stdarg.h</text>
</a>
</g>
</g>
<!-- Node1&#45;&gt;Node2 -->
<g id="edge1" class="edge">
<title>Node1&#45;&gt;Node2</title>
<path fill="none" stroke="midnightblue" d="M347.77,-280.08C343.02,-272.53 336.07,-261.49 330.23,-252.23"/>
<polygon fill="midnightblue" stroke="midnightblue" points="333.18,-250.35 324.89,-243.75 327.26,-254.08 333.18,-250.35"/>
</g>
<!-- Node3 -->
<g id="node3" class="node">
<title>Node3</title>
<g id="a_node3"><a xlink:href="libccc_8h.html" target="_top" xlink:title=" ">
<polygon fill="white" stroke="black" points="363.38,-224.5 363.38,-243.5 413.38,-243.5 413.38,-224.5 363.38,-224.5"/>
<text text-anchor="middle" x="388.38" y="-231.5" font-family="Consolas" font-size="10.00">libccc.h</text>
</a>
</g>
</g>
<!-- Node1&#45;&gt;Node3 -->
<g id="edge2" class="edge">
<title>Node1&#45;&gt;Node3</title>
<path fill="none" stroke="midnightblue" d="M359.16,-280.08C364.06,-272.53 371.21,-261.49 377.22,-252.23"/>
<polygon fill="midnightblue" stroke="midnightblue" points="380.21,-254.05 382.71,-243.75 374.34,-250.24 380.21,-254.05"/>
</g>
<!-- Node4 -->
<g id="node4" class="node">
<title>Node4</title>
<g id="a_node4"><a xlink:href="libccc__define_8h.html" target="_top" xlink:title=" ">
<polygon fill="white" stroke="black" points="48.38,-56.5 48.38,-75.5 130.38,-75.5 130.38,-56.5 48.38,-56.5"/>
<text text-anchor="middle" x="89.38" y="-63.5" font-family="Consolas" font-size="10.00">libccc_define.h</text>
</a>
</g>
</g>
<!-- Node3&#45;&gt;Node4 -->
<g id="edge3" class="edge">
<title>Node3&#45;&gt;Node4</title>
<path fill="none" stroke="midnightblue" d="M363.22,-225.93C360.26,-225.21 357.26,-224.55 354.38,-224 223.8,-198.93 175.55,-248.97 57.38,-188 21.23,-169.35 -14.42,-146.95 6.38,-112 15.48,-96.72 31.77,-86.31 47.53,-79.39"/>
<polygon fill="midnightblue" stroke="midnightblue" points="49.22,-82.48 57.2,-75.51 46.62,-75.98 49.22,-82.48"/>
</g>
<!-- Node6 -->
<g id="node6" class="node">
<title>Node6</title>
<g id="a_node6"><a xlink:href="libccc__errors_8h.html" target="_top" xlink:title=" ">
<polygon fill="white" stroke="black" points="15.38,-112.5 15.38,-131.5 95.38,-131.5 95.38,-112.5 15.38,-112.5"/>
<text text-anchor="middle" x="55.38" y="-119.5" font-family="Consolas" font-size="10.00">libccc_errors.h</text>
</a>
</g>
</g>
<!-- Node3&#45;&gt;Node6 -->
<g id="edge5" class="edge">
<title>Node3&#45;&gt;Node6</title>
<path fill="none" stroke="midnightblue" d="M363.22,-225.94C360.25,-225.23 357.26,-224.56 354.38,-224 292.6,-211.92 120.96,-229.23 73.38,-188 60.27,-176.63 56.31,-156.64 55.29,-141.82"/>
<polygon fill="midnightblue" stroke="midnightblue" points="58.79,-141.61 54.99,-131.72 51.79,-141.82 58.79,-141.61"/>
</g>
<!-- Node7 -->
<g id="node7" class="node">
<title>Node7</title>
<g id="a_node7"><a xlink:href="libccc__config_8h.html" target="_top" xlink:title=" ">
<polygon fill="white" stroke="black" points="82.38,-168.5 82.38,-187.5 164.38,-187.5 164.38,-168.5 82.38,-168.5"/>
<text text-anchor="middle" x="123.38" y="-175.5" font-family="Consolas" font-size="10.00">libccc_config.h</text>
</a>
</g>
</g>
<!-- Node3&#45;&gt;Node7 -->
<g id="edge7" class="edge">
<title>Node3&#45;&gt;Node7</title>
<path fill="none" stroke="midnightblue" d="M363.18,-226.13C360.22,-225.38 357.24,-224.66 354.38,-224 292.8,-209.87 221.32,-196.39 174.37,-187.93"/>
<polygon fill="midnightblue" stroke="midnightblue" points="174.91,-184.47 164.45,-186.15 173.68,-191.36 174.91,-184.47"/>
</g>
<!-- Node8 -->
<g id="node8" class="node">
<title>Node8</title>
<g id="a_node8"><a xlink:href="libccc__naming_8h.html" target="_top" xlink:title=" ">
<polygon fill="white" stroke="black" points="151.88,-112.5 151.88,-131.5 238.88,-131.5 238.88,-112.5 151.88,-112.5"/>
<text text-anchor="middle" x="195.38" y="-119.5" font-family="Consolas" font-size="10.00">libccc_naming.h</text>
</a>
</g>
</g>
<!-- Node3&#45;&gt;Node8 -->
<g id="edge10" class="edge">
<title>Node3&#45;&gt;Node8</title>
<path fill="none" stroke="midnightblue" d="M363.14,-226.28C360.19,-225.51 357.22,-224.73 354.38,-224 290.93,-207.61 257.61,-234.46 211.38,-188 199.48,-176.04 195.94,-156.74 195.09,-142.27"/>
<polygon fill="midnightblue" stroke="midnightblue" points="198.59,-141.86 194.89,-131.94 191.59,-142 198.59,-141.86"/>
</g>
<!-- Node9 -->
<g id="node9" class="node">
<title>Node9</title>
<g id="a_node9"><a xlink:href="bool_8h.html" target="_top" xlink:title=" ">
<polygon fill="white" stroke="black" points="220.88,-168.5 220.88,-187.5 291.88,-187.5 291.88,-168.5 220.88,-168.5"/>
<text text-anchor="middle" x="256.38" y="-175.5" font-family="Consolas" font-size="10.00">libccc/bool.h</text>
</a>
</g>
</g>
<!-- Node3&#45;&gt;Node9 -->
<g id="edge12" class="edge">
<title>Node3&#45;&gt;Node9</title>
<path fill="none" stroke="midnightblue" d="M363.33,-224.8C339.87,-216.02 305.27,-201.98 281.74,-191.76"/>
<polygon fill="midnightblue" stroke="midnightblue" points="282.95,-188.47 272.39,-187.64 280.13,-194.87 282.95,-188.47"/>
</g>
<!-- Node10 -->
<g id="node10" class="node">
<title>Node10</title>
<g id="a_node10"><a xlink:href="char_8h.html" target="_top" xlink:title=" ">
<polygon fill="white" stroke="black" points="309.88,-168.5 309.88,-187.5 380.88,-187.5 380.88,-168.5 309.88,-168.5"/>
<text text-anchor="middle" x="345.38" y="-175.5" font-family="Consolas" font-size="10.00">libccc/char.h</text>
</a>
</g>
</g>
<!-- Node3&#45;&gt;Node10 -->
<g id="edge14" class="edge">
<title>Node3&#45;&gt;Node10</title>
<path fill="none" stroke="midnightblue" d="M376.12,-224.08C368.51,-216.53 359.33,-205.49 352.76,-196.23"/>
<polygon fill="midnightblue" stroke="midnightblue" points="355.62,-194.21 347.22,-187.75 349.76,-198.04 355.62,-194.21"/>
</g>
<!-- Node14 -->
<g id="node14" class="node">
<title>Node14</title>
<g id="a_node14"><a xlink:href="int_8h.html" target="_top" xlink:title=" ">
<polygon fill="white" stroke="black" points="399.38,-168.5 399.38,-187.5 463.38,-187.5 463.38,-168.5 399.38,-168.5"/>
<text text-anchor="middle" x="431.38" y="-175.5" font-family="Consolas" font-size="10.00">libccc/int.h</text>
</a>
</g>
</g>
<!-- Node3&#45;&gt;Node14 -->
<g id="edge19" class="edge">
<title>Node3&#45;&gt;Node14</title>
<path fill="none" stroke="midnightblue" d="M390.32,-224.08C394.92,-216.22 403.84,-204.57 412.35,-195.08"/>
<polygon fill="midnightblue" stroke="midnightblue" points="414.95,-197.42 419.28,-187.75 409.87,-192.61 414.95,-197.42"/>
</g>
<!-- Node15 -->
<g id="node15" class="node">
<title>Node15</title>
<g id="a_node15"><a xlink:href="fixed_8h.html" target="_top" xlink:title=" ">
<polygon fill="white" stroke="black" points="481.38,-168.5 481.38,-187.5 555.38,-187.5 555.38,-168.5 481.38,-168.5"/>
<text text-anchor="middle" x="518.38" y="-175.5" font-family="Consolas" font-size="10.00">libccc/fixed.h</text>
</a>
</g>
</g>
<!-- Node3&#45;&gt;Node15 -->
<g id="edge22" class="edge">
<title>Node3&#45;&gt;Node15</title>
<path fill="none" stroke="midnightblue" d="M403.89,-224.44C423.51,-215.48 457.39,-201.31 483.31,-191.18"/>
<polygon fill="midnightblue" stroke="midnightblue" points="484.73,-194.38 492.8,-187.52 482.21,-187.85 484.73,-194.38"/>
</g>
<!-- Node16 -->
<g id="node16" class="node">
<title>Node16</title>
<g id="a_node16"><a xlink:href="float_8h.html" target="_top" xlink:title=" ">
<polygon fill="white" stroke="black" points="573.38,-168.5 573.38,-187.5 645.38,-187.5 645.38,-168.5 573.38,-168.5"/>
<text text-anchor="middle" x="609.38" y="-175.5" font-family="Consolas" font-size="10.00">libccc/float.h</text>
</a>
</g>
</g>
<!-- Node3&#45;&gt;Node16 -->
<g id="edge24" class="edge">
<title>Node3&#45;&gt;Node16</title>
<path fill="none" stroke="midnightblue" d="M413.4,-225.72C449.78,-216.24 517.5,-199.65 563.09,-189"/>
<polygon fill="midnightblue" stroke="midnightblue" points="564.08,-192.36 573.03,-186.69 562.49,-185.54 564.08,-192.36"/>
</g>
<!-- Node17 -->
<g id="node17" class="node">
<title>Node17</title>
<g id="a_node17"><a xlink:href="pointer_8h.html" target="_top" xlink:title=" ">
<polygon fill="white" stroke="black" points="663.38,-168.5 663.38,-187.5 745.38,-187.5 745.38,-168.5 663.38,-168.5"/>
<text text-anchor="middle" x="704.38" y="-175.5" font-family="Consolas" font-size="10.00">libccc/pointer.h</text>
</a>
</g>
</g>
<!-- Node3&#45;&gt;Node17 -->
<g id="edge26" class="edge">
<title>Node3&#45;&gt;Node17</title>
<path fill="none" stroke="midnightblue" d="M413.49,-227.91C459.67,-219.68 560.26,-202.86 645.38,-188 647.98,-187.55 650.66,-187.08 653.37,-186.6"/>
<polygon fill="midnightblue" stroke="midnightblue" points="654.03,-190.04 663.27,-184.86 652.82,-183.14 654.03,-190.04"/>
</g>
<!-- Node5 -->
<g id="node5" class="node">
<title>Node5</title>
<g id="a_node5"><a xlink:title=" ">
<polygon fill="white" stroke="#bfbfbf" points="59.88,-0.5 59.88,-19.5 118.88,-19.5 118.88,-0.5 59.88,-0.5"/>
<text text-anchor="middle" x="89.38" y="-7.5" font-family="Consolas" font-size="10.00">stdalign.h</text>
</a>
</g>
</g>
<!-- Node4&#45;&gt;Node5 -->
<g id="edge4" class="edge">
<title>Node4&#45;&gt;Node5</title>
<path fill="none" stroke="midnightblue" d="M89.38,-56.08C89.38,-49.01 89.38,-38.86 89.38,-29.99"/>
<polygon fill="midnightblue" stroke="midnightblue" points="92.88,-29.75 89.38,-19.75 85.88,-29.75 92.88,-29.75"/>
</g>
<!-- Node6&#45;&gt;Node4 -->
<g id="edge6" class="edge">
<title>Node6&#45;&gt;Node4</title>
<path fill="none" stroke="midnightblue" d="M61,-112.08C65.75,-104.53 72.7,-93.49 78.54,-84.23"/>
<polygon fill="midnightblue" stroke="midnightblue" points="81.51,-86.08 83.87,-75.75 75.58,-82.35 81.51,-86.08"/>
</g>
<!-- Node7&#45;&gt;Node4 -->
<g id="edge8" class="edge">
<title>Node7&#45;&gt;Node4</title>
<path fill="none" stroke="midnightblue" d="M120.91,-168.14C117.38,-155.6 110.63,-131.97 104.38,-112 101.62,-103.15 98.38,-93.37 95.62,-85.2"/>
<polygon fill="midnightblue" stroke="midnightblue" points="98.89,-83.94 92.36,-75.6 92.26,-86.19 98.89,-83.94"/>
</g>
<!-- Node7&#45;&gt;Node6 -->
<g id="edge9" class="edge">
<title>Node7&#45;&gt;Node6</title>
<path fill="none" stroke="midnightblue" d="M112.46,-168.32C102.21,-160.18 86.66,-147.84 74.38,-138.09"/>
<polygon fill="midnightblue" stroke="midnightblue" points="76.52,-135.31 66.51,-131.83 72.16,-140.79 76.52,-135.31"/>
</g>
<!-- Node8&#45;&gt;Node4 -->
<g id="edge11" class="edge">
<title>Node8&#45;&gt;Node4</title>
<path fill="none" stroke="midnightblue" d="M178.35,-112.32C161.35,-103.66 135.01,-90.24 115.39,-80.25"/>
<polygon fill="midnightblue" stroke="midnightblue" points="116.87,-77.08 106.37,-75.65 113.69,-83.31 116.87,-77.08"/>
</g>
<!-- Node9&#45;&gt;Node3 -->
<g id="edge13" class="edge">
<title>Node9&#45;&gt;Node3</title>
<path fill="none" stroke="midnightblue" d="M282.28,-187.52C305.82,-196.35 340.06,-210.26 363.32,-220.37"/>
<polygon fill="midnightblue" stroke="midnightblue" points="362,-223.61 372.56,-224.44 364.82,-217.2 362,-223.61"/>
</g>
<!-- Node10&#45;&gt;Node3 -->
<g id="edge16" class="edge">
<title>Node10&#45;&gt;Node3</title>
<path fill="none" stroke="midnightblue" d="M357.48,-187.75C365.06,-195.25 374.25,-206.27 380.86,-215.57"/>
<polygon fill="midnightblue" stroke="midnightblue" points="378.04,-217.64 386.45,-224.08 383.89,-213.8 378.04,-217.64"/>
</g>
<!-- Node11 -->
<g id="node11" class="node">
<title>Node11</title>
<g id="a_node11"><a xlink:title=" ">
<polygon fill="white" stroke="#bfbfbf" points="492.88,-112.5 492.88,-131.5 541.88,-131.5 541.88,-112.5 492.88,-112.5"/>
<text text-anchor="middle" x="517.38" y="-119.5" font-family="Consolas" font-size="10.00">stdint.h</text>
</a>
</g>
</g>
<!-- Node10&#45;&gt;Node11 -->
<g id="edge15" class="edge">
<title>Node10&#45;&gt;Node11</title>
<path fill="none" stroke="midnightblue" d="M372.64,-168.44C402.47,-159.08 450.36,-144.04 482.81,-133.85"/>
<polygon fill="midnightblue" stroke="midnightblue" points="484.27,-137.06 492.77,-130.73 482.18,-130.39 484.27,-137.06"/>
</g>
<!-- Node12 -->
<g id="node12" class="node">
<title>Node12</title>
<g id="a_node12"><a xlink:title=" ">
<polygon fill="white" stroke="#bfbfbf" points="381.88,-112.5 381.88,-131.5 474.88,-131.5 474.88,-112.5 381.88,-112.5"/>
<text text-anchor="middle" x="428.38" y="-119.5" font-family="Consolas" font-size="10.00">libccc/text/ascii.h</text>
</a>
</g>
</g>
<!-- Node10&#45;&gt;Node12 -->
<g id="edge17" class="edge">
<title>Node10&#45;&gt;Node12</title>
<path fill="none" stroke="midnightblue" d="M358.72,-168.32C371.55,-159.98 391.17,-147.21 406.32,-137.35"/>
<polygon fill="midnightblue" stroke="midnightblue" points="408.61,-140.04 415.08,-131.65 404.79,-134.17 408.61,-140.04"/>
</g>
<!-- Node13 -->
<g id="node13" class="node">
<title>Node13</title>
<g id="a_node13"><a xlink:title=" ">
<polygon fill="white" stroke="#bfbfbf" points="256.88,-112.5 256.88,-131.5 363.88,-131.5 363.88,-112.5 256.88,-112.5"/>
<text text-anchor="middle" x="310.38" y="-119.5" font-family="Consolas" font-size="10.00">libccc/text/unicode.h</text>
</a>
</g>
</g>
<!-- Node10&#45;&gt;Node13 -->
<g id="edge18" class="edge">
<title>Node10&#45;&gt;Node13</title>
<path fill="none" stroke="midnightblue" d="M339.6,-168.08C334.71,-160.53 327.56,-149.49 321.55,-140.23"/>
<polygon fill="midnightblue" stroke="midnightblue" points="324.43,-138.24 316.06,-131.75 318.56,-142.05 324.43,-138.24"/>
</g>
<!-- Node14&#45;&gt;Node3 -->
<g id="edge21" class="edge">
<title>Node14&#45;&gt;Node3</title>
<path fill="none" stroke="midnightblue" d="M429.55,-187.75C425.01,-195.56 416.11,-207.2 407.6,-216.72"/>
<polygon fill="midnightblue" stroke="midnightblue" points="404.97,-214.41 400.65,-224.08 410.06,-219.21 404.97,-214.41"/>
</g>
<!-- Node14&#45;&gt;Node11 -->
<g id="edge20" class="edge">
<title>Node14&#45;&gt;Node11</title>
<path fill="none" stroke="midnightblue" d="M445.2,-168.32C458.62,-159.9 479.21,-146.97 494.97,-137.07"/>
<polygon fill="midnightblue" stroke="midnightblue" points="496.99,-139.94 503.6,-131.65 493.27,-134.01 496.99,-139.94"/>
</g>
<!-- Node15&#45;&gt;Node3 -->
<g id="edge23" class="edge">
<title>Node15&#45;&gt;Node3</title>
<path fill="none" stroke="midnightblue" d="M502.79,-187.6C483.02,-196.62 448.89,-210.89 422.94,-221.02"/>
<polygon fill="midnightblue" stroke="midnightblue" points="421.52,-217.82 413.45,-224.68 424.04,-224.35 421.52,-217.82"/>
</g>
<!-- Node16&#45;&gt;Node3 -->
<g id="edge25" class="edge">
<title>Node16&#45;&gt;Node3</title>
<path fill="none" stroke="midnightblue" d="M579.66,-187.5C539.07,-197.99 466.78,-215.63 423.56,-225.58"/>
<polygon fill="midnightblue" stroke="midnightblue" points="422.72,-222.18 413.75,-227.82 424.28,-229.01 422.72,-222.18"/>
</g>
<!-- Node17&#45;&gt;Node3 -->
<g id="edge29" class="edge">
<title>Node17&#45;&gt;Node3</title>
<path fill="none" stroke="midnightblue" d="M666.01,-187.54C665.13,-187.69 664.25,-187.85 663.38,-188 577.7,-202.96 476.35,-219.9 423.72,-228.07"/>
<polygon fill="midnightblue" stroke="midnightblue" points="422.91,-224.65 413.56,-229.63 423.97,-231.57 422.91,-224.65"/>
</g>
<!-- Node17&#45;&gt;Node11 -->
<g id="edge28" class="edge">
<title>Node17&#45;&gt;Node11</title>
<path fill="none" stroke="midnightblue" d="M674.75,-168.44C641.38,-158.81 587.23,-143.17 551.95,-132.98"/>
<polygon fill="midnightblue" stroke="midnightblue" points="552.68,-129.55 542.1,-130.14 550.74,-136.27 552.68,-129.55"/>
</g>
<!-- Node18 -->
<g id="node18" class="node">
<title>Node18</title>
<g id="a_node18"><a xlink:title=" ">
<polygon fill="white" stroke="#bfbfbf" points="678.38,-112.5 678.38,-131.5 730.38,-131.5 730.38,-112.5 678.38,-112.5"/>
<text text-anchor="middle" x="704.38" y="-119.5" font-family="Consolas" font-size="10.00">stddef.h</text>
</a>
</g>
</g>
<!-- Node17&#45;&gt;Node18 -->
<g id="edge27" class="edge">
<title>Node17&#45;&gt;Node18</title>
<path fill="none" stroke="midnightblue" d="M704.38,-168.08C704.38,-161.01 704.38,-150.86 704.38,-141.99"/>
<polygon fill="midnightblue" stroke="midnightblue" points="707.88,-141.75 704.38,-131.75 700.88,-141.75 707.88,-141.75"/>
</g>
</g>
</svg>
        <g id="navigator" transform="translate(0 0)" fill="#404254">
                <rect fill="#f2f5e9" fill-opacity="0.5" stroke="#606060" stroke-width=".5" x="0" y="0" width="60" height="60"/>
                <use id="zoomplus" xlink:href="#zoomPlus" x="17" y="9" onmousedown="handleZoom(evt,'in')"/>
                <use id="zoomminus" xlink:href="#zoomMin" x="42" y="9" onmousedown="handleZoom(evt,'out')"/>
                <use id="reset" xlink:href="#resetDef" x="30" y="36" onmousedown="handleReset()"/>
                <g id="arrowUp" xlink:href="#dirArrow" transform="translate(30 24)" onmousedown="handlePan(0,-1)">
                  <use xlink:href="#rim" fill="#404040">
                        <set attributeName="fill" to="#808080" begin="arrowUp.mouseover" end="arrowUp.mouseout"/>
                  </use>
                  <path fill="none" stroke="white" stroke-width="1.5" d="M0,-3.0v7 M-2.5,-0.5L0,-3.0L2.5,-0.5"/>
                </g>
                <g id="arrowRight" xlink:href="#dirArrow" transform="rotate(90) translate(36 -43)" onmousedown="handlePan(1,0)">
                  <use xlink:href="#rim" fill="#404040">
                        <set attributeName="fill" to="#808080" begin="arrowRight.mouseover" end="arrowRight.mouseout"/>
                  </use>
                  <path fill="none" stroke="white" stroke-width="1.5" d="M0,-3.0v7 M-2.5,-0.5L0,-3.0L2.5,-0.5"/>
                </g>
                <g id="arrowDown" xlink:href="#dirArrow" transform="rotate(180) translate(-30 -48)" onmousedown="handlePan(0,1)">
                  <use xlink:href="#rim" fill="#404040">
                        <set attributeName="fill" to="#808080" begin="arrowDown.mouseover" end="arrowDown.mouseout"/>
                  </use>
                  <path fill="none" stroke="white" stroke-width="1.5" d="M0,-3.0v7 M-2.5,-0.5L0,-3.0L2.5,-0.5"/>
                </g>
                <g id="arrowLeft" xlink:href="#dirArrow" transform="rotate(270) translate(-36 17)" onmousedown="handlePan(-1,0)">
                  <use xlink:href="#rim" fill="#404040">
                        <set attributeName="fill" to="#808080" begin="arrowLeft.mouseover" end="arrowLeft.mouseout"/>
                  </use>
                  <path fill="none" stroke="white" stroke-width="1.5" d="M0,-3.0v7 M-2.5,-0.5L0,-3.0L2.5,-0.5"/>
                </g>
        </g>
        <svg viewBox="0 0 15 15" width="100%" height="30px" preserveAspectRatio="xMaxYMin meet">
         <g id="arrow_out" transform="scale(0.3 0.3)">
          <a xlink:href="format_8h__incl_org.svg" target="_base">
           <rect id="button" ry="5" rx="5" y="6" x="6" height="38" width="38"
                fill="#f2f5e9" fill-opacity="0.5" stroke="#606060" stroke-width="1.0"/>
           <path id="arrow"
             d="M 11.500037,31.436501 C 11.940474,20.09759 22.043105,11.32322 32.158766,21.979434 L 37.068811,17.246167 C 37.068811,17.246167 37.088388,32 37.088388,32 L 22.160133,31.978069 C 22.160133,31.978069 26.997745,27.140456 26.997745,27.140456 C 18.528582,18.264221 13.291696,25.230495 11.500037,31.436501 z"
             style="fill:#404040;"/>
          </a>
         </g>
        </svg>
</svg>
