<?xml version="1.0" encoding="UTF-8" standalone="no"?>
<!DOCTYPE svg PUBLIC "-//W3C//DTD SVG 1.1//EN"
 "http://www.w3.org/Graphics/SVG/1.1/DTD/svg11.dtd">
<!-- Generated by graphviz version 3.0.0 (20220226.1711)
 -->
<!-- Title: libccc/monad/hashmap.h Pages: 1 -->
<svg width="345pt" height="364pt"
 viewBox="0.00 0.00 344.61 364.00" xmlns="http://www.w3.org/2000/svg" xmlns:xlink="http://www.w3.org/1999/xlink">
<g id="graph0" class="graph" transform="scale(1 1) rotate(0) translate(4 360)">
<title>libccc/monad/hashmap.h</title>
<polygon fill="white" stroke="transparent" points="-4,4 -4,-360 340.61,-360 340.61,4 -4,4"/>
<!-- Node1 -->
<g id="node1" class="node">
<title>Node1</title>
<g id="a_node1"><a xlink:title=" ">
<polygon fill="#bfbfbf" stroke="black" points="98.61,-336.5 98.61,-355.5 223.61,-355.5 223.61,-336.5 98.61,-336.5"/>
<text text-anchor="middle" x="161.11" y="-343.5" font-family="Consolas" font-size="10.00">libccc/monad/hashmap.h</text>
</a>
</g>
</g>
<!-- Node2 -->
<g id="node2" class="node">
<title>Node2</title>
<g id="a_node2"><a xlink:href="$bool_8h.html" xlink:title=" ">
<polygon fill="white" stroke="black" points="39.61,-280.5 39.61,-299.5 110.61,-299.5 110.61,-280.5 39.61,-280.5"/>
<text text-anchor="middle" x="75.11" y="-287.5" font-family="Consolas" font-size="10.00">libccc/bool.h</text>
</a>
</g>
</g>
<!-- Node1&#45;&gt;Node2 -->
<g id="edge1" class="edge">
<title>Node1&#45;&gt;Node2</title>
<path fill="none" stroke="midnightblue" d="M147.3,-336.32C133.88,-327.9 113.29,-314.97 97.53,-305.07"/>
<polygon fill="midnightblue" stroke="midnightblue" points="99.23,-302.01 88.9,-299.65 95.51,-307.94 99.23,-302.01"/>
</g>
<!-- Node11 -->
<g id="node11" class="node">
<title>Node11</title>
<g id="a_node11"><a xlink:href="$int_8h.html" xlink:title=" ">
<polygon fill="white" stroke="black" points="129.11,-280.5 129.11,-299.5 193.11,-299.5 193.11,-280.5 129.11,-280.5"/>
<text text-anchor="middle" x="161.11" y="-287.5" font-family="Consolas" font-size="10.00">libccc/int.h</text>
</a>
</g>
</g>
<!-- Node1&#45;&gt;Node11 -->
<g id="edge14" class="edge">
<title>Node1&#45;&gt;Node11</title>
<path fill="none" stroke="midnightblue" d="M161.11,-336.08C161.11,-329.01 161.11,-318.86 161.11,-309.99"/>
<polygon fill="midnightblue" stroke="midnightblue" points="164.61,-309.75 161.11,-299.75 157.61,-309.75 164.61,-309.75"/>
</g>
<!-- Node13 -->
<g id="node13" class="node">
<title>Node13</title>
<g id="a_node13"><a xlink:title=" ">
<polygon fill="white" stroke="#bfbfbf" points="211.61,-280.5 211.61,-299.5 336.61,-299.5 336.61,-280.5 211.61,-280.5"/>
<text text-anchor="middle" x="274.11" y="-287.5" font-family="Consolas" font-size="10.00">libccc/monad/hashmap.c</text>
</a>
</g>
</g>
<!-- Node1&#45;&gt;Node13 -->
<g id="edge17" class="edge">
<title>Node1&#45;&gt;Node13</title>
<path fill="none" stroke="midnightblue" d="M179.02,-336.44C197.37,-327.68 226.12,-313.94 247.21,-303.86"/>
<polygon fill="midnightblue" stroke="midnightblue" points="248.78,-306.99 256.29,-299.52 245.76,-300.67 248.78,-306.99"/>
</g>
<!-- Node3 -->
<g id="node3" class="node">
<title>Node3</title>
<g id="a_node3"><a xlink:href="$libccc_8h.html" xlink:title=" ">
<polygon fill="white" stroke="black" points="95.11,-224.5 95.11,-243.5 145.11,-243.5 145.11,-224.5 95.11,-224.5"/>
<text text-anchor="middle" x="120.11" y="-231.5" font-family="Consolas" font-size="10.00">libccc.h</text>
</a>
</g>
</g>
<!-- Node2&#45;&gt;Node3 -->
<g id="edge2" class="edge">
<title>Node2&#45;&gt;Node3</title>
<path fill="none" stroke="midnightblue" d="M82.55,-280.08C88.97,-272.38 98.42,-261.03 106.24,-251.65"/>
<polygon fill="midnightblue" stroke="midnightblue" points="109.11,-253.67 112.82,-243.75 103.73,-249.19 109.11,-253.67"/>
</g>
<!-- Node10 -->
<g id="node10" class="node">
<title>Node10</title>
<g id="a_node10"><a xlink:title=" ">
<polygon fill="white" stroke="#bfbfbf" points="21.11,-224.5 21.11,-243.5 77.11,-243.5 77.11,-224.5 21.11,-224.5"/>
<text text-anchor="middle" x="49.11" y="-231.5" font-family="Consolas" font-size="10.00">stdbool.h</text>
</a>
</g>
</g>
<!-- Node2&#45;&gt;Node10 -->
<g id="edge13" class="edge">
<title>Node2&#45;&gt;Node10</title>
<path fill="none" stroke="midnightblue" d="M70.82,-280.08C67.26,-272.69 62.09,-261.95 57.69,-252.81"/>
<polygon fill="midnightblue" stroke="midnightblue" points="60.82,-251.24 53.33,-243.75 54.51,-254.28 60.82,-251.24"/>
</g>
<!-- Node4 -->
<g id="node4" class="node">
<title>Node4</title>
<g id="a_node4"><a xlink:href="$libccc__define_8h.html" xlink:title=" ">
<polygon fill="white" stroke="black" points="45.11,-56.5 45.11,-75.5 127.11,-75.5 127.11,-56.5 45.11,-56.5"/>
<text text-anchor="middle" x="86.11" y="-63.5" font-family="Consolas" font-size="10.00">libccc_define.h</text>
</a>
</g>
</g>
<!-- Node3&#45;&gt;Node4 -->
<g id="edge3" class="edge">
<title>Node3&#45;&gt;Node4</title>
<path fill="none" stroke="midnightblue" d="M101.99,-224.37C74.07,-209.88 21.8,-177.7 3.11,-132 -0.25,-123.77 -1.43,-119.64 3.11,-112 12.21,-96.72 28.5,-86.31 44.26,-79.39"/>
<polygon fill="midnightblue" stroke="midnightblue" points="45.95,-82.48 53.93,-75.51 43.35,-75.98 45.95,-82.48"/>
</g>
<!-- Node6 -->
<g id="node6" class="node">
<title>Node6</title>
<g id="a_node6"><a xlink:href="$libccc__errors_8h.html" xlink:title=" ">
<polygon fill="white" stroke="black" points="12.11,-112.5 12.11,-131.5 92.11,-131.5 92.11,-112.5 12.11,-112.5"/>
<text text-anchor="middle" x="52.11" y="-119.5" font-family="Consolas" font-size="10.00">libccc_errors.h</text>
</a>
</g>
</g>
<!-- Node3&#45;&gt;Node6 -->
<g id="edge5" class="edge">
<title>Node3&#45;&gt;Node6</title>
<path fill="none" stroke="midnightblue" d="M106.69,-224.23C95.33,-216.13 79.45,-203.1 70.11,-188 61.35,-173.84 56.77,-155.36 54.43,-141.72"/>
<polygon fill="midnightblue" stroke="midnightblue" points="57.86,-141 52.95,-131.61 50.94,-142.01 57.86,-141"/>
</g>
<!-- Node7 -->
<g id="node7" class="node">
<title>Node7</title>
<g id="a_node7"><a xlink:href="$libccc__config_8h.html" xlink:title=" ">
<polygon fill="white" stroke="black" points="79.11,-168.5 79.11,-187.5 161.11,-187.5 161.11,-168.5 79.11,-168.5"/>
<text text-anchor="middle" x="120.11" y="-175.5" font-family="Consolas" font-size="10.00">libccc_config.h</text>
</a>
</g>
</g>
<!-- Node3&#45;&gt;Node7 -->
<g id="edge7" class="edge">
<title>Node3&#45;&gt;Node7</title>
<path fill="none" stroke="midnightblue" d="M120.11,-224.08C120.11,-217.01 120.11,-206.86 120.11,-197.99"/>
<polygon fill="midnightblue" stroke="midnightblue" points="123.61,-197.75 120.11,-187.75 116.61,-197.75 123.61,-197.75"/>
</g>
<!-- Node8 -->
<g id="node8" class="node">
<title>Node8</title>
<g id="a_node8"><a xlink:href="$libccc__naming_8h.html" xlink:title=" ">
<polygon fill="white" stroke="black" points="148.61,-112.5 148.61,-131.5 235.61,-131.5 235.61,-112.5 148.61,-112.5"/>
<text text-anchor="middle" x="192.11" y="-119.5" font-family="Consolas" font-size="10.00">libccc_naming.h</text>
</a>
</g>
</g>
<!-- Node3&#45;&gt;Node8 -->
<g id="edge10" class="edge">
<title>Node3&#45;&gt;Node8</title>
<path fill="none" stroke="midnightblue" d="M132.89,-224.42C144.14,-216.26 160.23,-203.02 170.11,-188 179.43,-173.85 185.18,-155.37 188.46,-141.73"/>
<polygon fill="midnightblue" stroke="midnightblue" points="191.95,-142.13 190.65,-131.61 185.11,-140.65 191.95,-142.13"/>
</g>
<!-- Node9 -->
<g id="node9" class="node">
<title>Node9</title>
<g id="a_node9"><a xlink:title=" ">
<polygon fill="white" stroke="#bfbfbf" points="217.61,-168.5 217.61,-187.5 264.61,-187.5 264.61,-168.5 217.61,-168.5"/>
<text text-anchor="middle" x="241.11" y="-175.5" font-family="Consolas" font-size="10.00">math.h</text>
</a>
</g>
</g>
<!-- Node3&#45;&gt;Node9 -->
<g id="edge12" class="edge">
<title>Node3&#45;&gt;Node9</title>
<path fill="none" stroke="midnightblue" d="M139.29,-224.44C159.02,-215.64 190,-201.81 212.61,-191.72"/>
<polygon fill="midnightblue" stroke="midnightblue" points="214.33,-194.79 222.03,-187.52 211.47,-188.4 214.33,-194.79"/>
</g>
<!-- Node5 -->
<g id="node5" class="node">
<title>Node5</title>
<g id="a_node5"><a xlink:title=" ">
<polygon fill="white" stroke="#bfbfbf" points="56.61,-0.5 56.61,-19.5 115.61,-19.5 115.61,-0.5 56.61,-0.5"/>
<text text-anchor="middle" x="86.11" y="-7.5" font-family="Consolas" font-size="10.00">stdalign.h</text>
</a>
</g>
</g>
<!-- Node4&#45;&gt;Node5 -->
<g id="edge4" class="edge">
<title>Node4&#45;&gt;Node5</title>
<path fill="none" stroke="midnightblue" d="M86.11,-56.08C86.11,-49.01 86.11,-38.86 86.11,-29.99"/>
<polygon fill="midnightblue" stroke="midnightblue" points="89.61,-29.75 86.11,-19.75 82.61,-29.75 89.61,-29.75"/>
</g>
<!-- Node6&#45;&gt;Node4 -->
<g id="edge6" class="edge">
<title>Node6&#45;&gt;Node4</title>
<path fill="none" stroke="midnightblue" d="M57.73,-112.08C62.48,-104.53 69.43,-93.49 75.27,-84.23"/>
<polygon fill="midnightblue" stroke="midnightblue" points="78.24,-86.08 80.6,-75.75 72.31,-82.35 78.24,-86.08"/>
</g>
<!-- Node7&#45;&gt;Node4 -->
<g id="edge8" class="edge">
<title>Node7&#45;&gt;Node4</title>
<path fill="none" stroke="midnightblue" d="M117.64,-168.14C114.11,-155.6 107.36,-131.97 101.11,-112 98.35,-103.15 95.11,-93.37 92.35,-85.2"/>
<polygon fill="midnightblue" stroke="midnightblue" points="95.62,-83.94 89.09,-75.6 88.99,-86.19 95.62,-83.94"/>
</g>
<!-- Node7&#45;&gt;Node6 -->
<g id="edge9" class="edge">
<title>Node7&#45;&gt;Node6</title>
<path fill="none" stroke="midnightblue" d="M109.19,-168.32C98.94,-160.18 83.39,-147.84 71.11,-138.09"/>
<polygon fill="midnightblue" stroke="midnightblue" points="73.25,-135.31 63.24,-131.83 68.89,-140.79 73.25,-135.31"/>
</g>
<!-- Node8&#45;&gt;Node4 -->
<g id="edge11" class="edge">
<title>Node8&#45;&gt;Node4</title>
<path fill="none" stroke="midnightblue" d="M175.08,-112.32C158.08,-103.66 131.74,-90.24 112.12,-80.25"/>
<polygon fill="midnightblue" stroke="midnightblue" points="113.6,-77.08 103.1,-75.65 110.42,-83.31 113.6,-77.08"/>
</g>
<!-- Node11&#45;&gt;Node3 -->
<g id="edge16" class="edge">
<title>Node11&#45;&gt;Node3</title>
<path fill="none" stroke="midnightblue" d="M154.34,-280.08C148.55,-272.46 140.06,-261.26 132.98,-251.94"/>
<polygon fill="midnightblue" stroke="midnightblue" points="135.59,-249.6 126.76,-243.75 130.02,-253.83 135.59,-249.6"/>
</g>
<!-- Node12 -->
<g id="node12" class="node">
<title>Node12</title>
<g id="a_node12"><a xlink:title=" ">
<polygon fill="white" stroke="#bfbfbf" points="163.61,-224.5 163.61,-243.5 212.61,-243.5 212.61,-224.5 163.61,-224.5"/>
<text text-anchor="middle" x="188.11" y="-231.5" font-family="Consolas" font-size="10.00">stdint.h</text>
</a>
</g>
</g>
<!-- Node11&#45;&gt;Node12 -->
<g id="edge15" class="edge">
<title>Node11&#45;&gt;Node12</title>
<path fill="none" stroke="midnightblue" d="M165.57,-280.08C169.27,-272.69 174.64,-261.95 179.21,-252.81"/>
<polygon fill="midnightblue" stroke="midnightblue" points="182.4,-254.26 183.74,-243.75 176.14,-251.13 182.4,-254.26"/>
</g>
</g>
</svg>
