<?xml version="1.0" encoding="UTF-8" standalone="no"?>
<!DOCTYPE svg PUBLIC "-//W3C//DTD SVG 1.1//EN"
 "http://www.w3.org/Graphics/SVG/1.1/DTD/svg11.dtd">
<!-- Generated by graphviz version 2.49.3 (20211023.0002)
 -->
<!-- Title: hdr/libccc/monad/hashmap.c Pages: 1 -->
<svg width="719pt" height="420pt"
 viewBox="0.00 0.00 718.50 420.00" xmlns="http://www.w3.org/2000/svg" xmlns:xlink="http://www.w3.org/1999/xlink">
<g id="graph0" class="graph" transform="scale(1 1) rotate(0) translate(4 416)">
<title>hdr/libccc/monad/hashmap.c</title>
<polygon fill="white" stroke="transparent" points="-4,4 -4,-416 714.5,-416 714.5,4 -4,4"/>
<!-- Node1 -->
<g id="node1" class="node">
<title>Node1</title>
<g id="a_node1"><a xlink:title=" ">
<polygon fill="#bfbfbf" stroke="black" points="117.5,-392.5 117.5,-411.5 259.5,-411.5 259.5,-392.5 117.5,-392.5"/>
<text text-anchor="middle" x="188.5" y="-399.5" font-family="Consolas" font-size="10.00">hdr/libccc/monad/hashmap.c</text>
</a>
</g>
</g>
<!-- Node2 -->
<g id="node2" class="node">
<title>Node2</title>
<g id="a_node2"><a xlink:href="hashmap_8h.html" target="_top" xlink:title=" ">
<polygon fill="white" stroke="black" points="126,-336.5 126,-355.5 251,-355.5 251,-336.5 126,-336.5"/>
<text text-anchor="middle" x="188.5" y="-343.5" font-family="Consolas" font-size="10.00">libccc/monad/hashmap.h</text>
</a>
</g>
</g>
<!-- Node1&#45;&gt;Node2 -->
<g id="edge1" class="edge">
<title>Node1&#45;&gt;Node2</title>
<path fill="none" stroke="midnightblue" d="M183.33,-392.08C181.82,-384.93 181.39,-374.64 182.04,-365.69"/>
<polygon fill="midnightblue" stroke="midnightblue" points="185.52,-366.13 183.37,-355.75 178.58,-365.2 185.52,-366.13"/>
</g>
<!-- Node2&#45;&gt;Node1 -->
<g id="edge31" class="edge">
<title>Node2&#45;&gt;Node1</title>
<path fill="none" stroke="midnightblue" d="M193.63,-355.75C195.16,-362.86 195.6,-373.14 194.97,-382.1"/>
<polygon fill="midnightblue" stroke="midnightblue" points="191.49,-381.71 193.67,-392.08 198.43,-382.62 191.49,-381.71"/>
</g>
<!-- Node3 -->
<g id="node3" class="node">
<title>Node3</title>
<g id="a_node3"><a xlink:href="bool_8h.html" target="_top" xlink:title=" ">
<polygon fill="white" stroke="black" points="0,-168.5 0,-187.5 71,-187.5 71,-168.5 0,-168.5"/>
<text text-anchor="middle" x="35.5" y="-175.5" font-family="Consolas" font-size="10.00">libccc/bool.h</text>
</a>
</g>
</g>
<!-- Node2&#45;&gt;Node3 -->
<g id="edge2" class="edge">
<title>Node2&#45;&gt;Node3</title>
<path fill="none" stroke="midnightblue" d="M180.27,-336.08C155.67,-309.38 82.38,-229.87 50.54,-195.32"/>
<polygon fill="midnightblue" stroke="midnightblue" points="52.75,-192.55 43.4,-187.57 47.6,-197.29 52.75,-192.55"/>
</g>
<!-- Node14 -->
<g id="node14" class="node">
<title>Node14</title>
<g id="a_node14"><a xlink:href="int_8h.html" target="_top" xlink:title=" ">
<polygon fill="white" stroke="black" points="322.5,-280.5 322.5,-299.5 386.5,-299.5 386.5,-280.5 322.5,-280.5"/>
<text text-anchor="middle" x="354.5" y="-287.5" font-family="Consolas" font-size="10.00">libccc/int.h</text>
</a>
</g>
</g>
<!-- Node2&#45;&gt;Node14 -->
<g id="edge30" class="edge">
<title>Node2&#45;&gt;Node14</title>
<path fill="none" stroke="midnightblue" d="M214.8,-336.44C242.85,-327.32 287.44,-312.81 318.68,-302.65"/>
<polygon fill="midnightblue" stroke="midnightblue" points="319.89,-305.94 328.32,-299.52 317.73,-299.28 319.89,-305.94"/>
</g>
<!-- Node4 -->
<g id="node4" class="node">
<title>Node4</title>
<g id="a_node4"><a xlink:href="libccc_8h.html" target="_top" xlink:title=" ">
<polygon fill="white" stroke="black" points="329.5,-224.5 329.5,-243.5 379.5,-243.5 379.5,-224.5 329.5,-224.5"/>
<text text-anchor="middle" x="354.5" y="-231.5" font-family="Consolas" font-size="10.00">libccc.h</text>
</a>
</g>
</g>
<!-- Node3&#45;&gt;Node4 -->
<g id="edge3" class="edge">
<title>Node3&#45;&gt;Node4</title>
<path fill="none" stroke="midnightblue" d="M71.14,-183.92C78.93,-185.26 87.03,-186.7 94.5,-188 175.08,-201.99 269.37,-217.59 319.43,-226.25"/>
<polygon fill="midnightblue" stroke="midnightblue" points="318.97,-229.73 329.42,-227.99 320.17,-222.83 318.97,-229.73"/>
</g>
<!-- Node4&#45;&gt;Node3 -->
<g id="edge13" class="edge">
<title>Node4&#45;&gt;Node3</title>
<path fill="none" stroke="midnightblue" d="M329.47,-229.7C282.07,-222.62 176.86,-205.35 81.31,-188.83"/>
<polygon fill="midnightblue" stroke="midnightblue" points="81.66,-185.33 71.21,-187.07 80.46,-192.23 81.66,-185.33"/>
</g>
<!-- Node5 -->
<g id="node5" class="node">
<title>Node5</title>
<g id="a_node5"><a xlink:href="libccc__define_8h.html" target="_top" xlink:title=" ">
<polygon fill="white" stroke="black" points="146.5,-56.5 146.5,-75.5 228.5,-75.5 228.5,-56.5 146.5,-56.5"/>
<text text-anchor="middle" x="187.5" y="-63.5" font-family="Consolas" font-size="10.00">libccc_define.h</text>
</a>
</g>
</g>
<!-- Node4&#45;&gt;Node5 -->
<g id="edge4" class="edge">
<title>Node4&#45;&gt;Node5</title>
<path fill="none" stroke="midnightblue" d="M329.12,-233.16C272.54,-231.91 138.38,-219.53 104.5,-132 101.29,-123.71 99.95,-119.64 104.5,-112 113.6,-96.72 129.89,-86.31 145.64,-79.39"/>
<polygon fill="midnightblue" stroke="midnightblue" points="147.33,-82.48 155.32,-75.51 144.73,-75.98 147.33,-82.48"/>
</g>
<!-- Node7 -->
<g id="node7" class="node">
<title>Node7</title>
<g id="a_node7"><a xlink:href="libccc__errors_8h.html" target="_top" xlink:title=" ">
<polygon fill="white" stroke="black" points="113.5,-112.5 113.5,-131.5 193.5,-131.5 193.5,-112.5 113.5,-112.5"/>
<text text-anchor="middle" x="153.5" y="-119.5" font-family="Consolas" font-size="10.00">libccc_errors.h</text>
</a>
</g>
</g>
<!-- Node4&#45;&gt;Node7 -->
<g id="edge6" class="edge">
<title>Node4&#45;&gt;Node7</title>
<path fill="none" stroke="midnightblue" d="M329.43,-229.98C284.75,-224.1 193.91,-209.77 171.5,-188 159.17,-176.03 155.06,-156.42 153.8,-141.86"/>
<polygon fill="midnightblue" stroke="midnightblue" points="157.28,-141.34 153.3,-131.52 150.29,-141.68 157.28,-141.34"/>
</g>
<!-- Node8 -->
<g id="node8" class="node">
<title>Node8</title>
<g id="a_node8"><a xlink:href="libccc__config_8h.html" target="_top" xlink:title=" ">
<polygon fill="white" stroke="black" points="180.5,-168.5 180.5,-187.5 262.5,-187.5 262.5,-168.5 180.5,-168.5"/>
<text text-anchor="middle" x="221.5" y="-175.5" font-family="Consolas" font-size="10.00">libccc_config.h</text>
</a>
</g>
</g>
<!-- Node4&#45;&gt;Node8 -->
<g id="edge8" class="edge">
<title>Node4&#45;&gt;Node8</title>
<path fill="none" stroke="midnightblue" d="M333.43,-224.44C311.44,-215.52 276.77,-201.44 251.84,-191.32"/>
<polygon fill="midnightblue" stroke="midnightblue" points="253.06,-188.04 242.48,-187.52 250.42,-194.52 253.06,-188.04"/>
</g>
<!-- Node9 -->
<g id="node9" class="node">
<title>Node9</title>
<g id="a_node9"><a xlink:href="libccc__naming_8h.html" target="_top" xlink:title=" ">
<polygon fill="white" stroke="black" points="250,-112.5 250,-131.5 337,-131.5 337,-112.5 250,-112.5"/>
<text text-anchor="middle" x="293.5" y="-119.5" font-family="Consolas" font-size="10.00">libccc_naming.h</text>
</a>
</g>
</g>
<!-- Node4&#45;&gt;Node9 -->
<g id="edge11" class="edge">
<title>Node4&#45;&gt;Node9</title>
<path fill="none" stroke="midnightblue" d="M342.74,-224.32C332.44,-216.1 317.86,-202.82 309.5,-188 301.38,-173.61 297.35,-155.15 295.36,-141.58"/>
<polygon fill="midnightblue" stroke="midnightblue" points="298.82,-141.04 294.13,-131.54 291.87,-141.89 298.82,-141.04"/>
</g>
<!-- Node10 -->
<g id="node10" class="node">
<title>Node10</title>
<g id="a_node10"><a xlink:href="char_8h.html" target="_top" xlink:title=" ">
<polygon fill="white" stroke="black" points="319,-168.5 319,-187.5 390,-187.5 390,-168.5 319,-168.5"/>
<text text-anchor="middle" x="354.5" y="-175.5" font-family="Consolas" font-size="10.00">libccc/char.h</text>
</a>
</g>
</g>
<!-- Node4&#45;&gt;Node10 -->
<g id="edge14" class="edge">
<title>Node4&#45;&gt;Node10</title>
<path fill="none" stroke="midnightblue" d="M349.33,-224.08C347.82,-216.93 347.39,-206.64 348.04,-197.69"/>
<polygon fill="midnightblue" stroke="midnightblue" points="351.52,-198.13 349.37,-187.75 344.58,-197.2 351.52,-198.13"/>
</g>
<!-- Node4&#45;&gt;Node14 -->
<g id="edge19" class="edge">
<title>Node4&#45;&gt;Node14</title>
<path fill="none" stroke="midnightblue" d="M359.63,-243.75C361.16,-250.86 361.6,-261.14 360.97,-270.1"/>
<polygon fill="midnightblue" stroke="midnightblue" points="357.49,-269.71 359.67,-280.08 364.43,-270.62 357.49,-269.71"/>
</g>
<!-- Node15 -->
<g id="node15" class="node">
<title>Node15</title>
<g id="a_node15"><a xlink:href="fixed_8h.html" target="_top" xlink:title=" ">
<polygon fill="white" stroke="black" points="508.5,-168.5 508.5,-187.5 582.5,-187.5 582.5,-168.5 508.5,-168.5"/>
<text text-anchor="middle" x="545.5" y="-175.5" font-family="Consolas" font-size="10.00">libccc/fixed.h</text>
</a>
</g>
</g>
<!-- Node4&#45;&gt;Node15 -->
<g id="edge22" class="edge">
<title>Node4&#45;&gt;Node15</title>
<path fill="none" stroke="midnightblue" d="M379.68,-224.44C410.47,-215.16 462.84,-200.31 500.56,-190.13"/>
<polygon fill="midnightblue" stroke="midnightblue" points="501.54,-193.49 510.3,-187.52 499.73,-186.73 501.54,-193.49"/>
</g>
<!-- Node16 -->
<g id="node16" class="node">
<title>Node16</title>
<g id="a_node16"><a xlink:href="float_8h.html" target="_top" xlink:title=" ">
<polygon fill="white" stroke="black" points="600.5,-168.5 600.5,-187.5 672.5,-187.5 672.5,-168.5 600.5,-168.5"/>
<text text-anchor="middle" x="636.5" y="-175.5" font-family="Consolas" font-size="10.00">libccc/float.h</text>
</a>
</g>
</g>
<!-- Node4&#45;&gt;Node16 -->
<g id="edge24" class="edge">
<title>Node4&#45;&gt;Node16</title>
<path fill="none" stroke="midnightblue" d="M379.68,-227.2C421.88,-218.72 508.71,-202.38 582.5,-188 584.96,-187.52 587.5,-187.02 590.08,-186.52"/>
<polygon fill="midnightblue" stroke="midnightblue" points="590.96,-189.91 600.1,-184.56 589.62,-183.04 590.96,-189.91"/>
</g>
<!-- Node17 -->
<g id="node17" class="node">
<title>Node17</title>
<g id="a_node17"><a xlink:href="pointer_8h.html" target="_top" xlink:title=" ">
<polygon fill="white" stroke="black" points="408.5,-168.5 408.5,-187.5 490.5,-187.5 490.5,-168.5 408.5,-168.5"/>
<text text-anchor="middle" x="449.5" y="-175.5" font-family="Consolas" font-size="10.00">libccc/pointer.h</text>
</a>
</g>
</g>
<!-- Node4&#45;&gt;Node17 -->
<g id="edge26" class="edge">
<title>Node4&#45;&gt;Node17</title>
<path fill="none" stroke="midnightblue" d="M364.65,-224.32C377.95,-215.7 401.15,-202.36 420.03,-192.39"/>
<polygon fill="midnightblue" stroke="midnightblue" points="421.89,-195.36 429.16,-187.65 418.68,-189.15 421.89,-195.36"/>
</g>
<!-- Node6 -->
<g id="node6" class="node">
<title>Node6</title>
<g id="a_node6"><a xlink:title=" ">
<polygon fill="white" stroke="#bfbfbf" points="158,-0.5 158,-19.5 217,-19.5 217,-0.5 158,-0.5"/>
<text text-anchor="middle" x="187.5" y="-7.5" font-family="Consolas" font-size="10.00">stdalign.h</text>
</a>
</g>
</g>
<!-- Node5&#45;&gt;Node6 -->
<g id="edge5" class="edge">
<title>Node5&#45;&gt;Node6</title>
<path fill="none" stroke="midnightblue" d="M187.5,-56.08C187.5,-49.01 187.5,-38.86 187.5,-29.99"/>
<polygon fill="midnightblue" stroke="midnightblue" points="191,-29.75 187.5,-19.75 184,-29.75 191,-29.75"/>
</g>
<!-- Node7&#45;&gt;Node5 -->
<g id="edge7" class="edge">
<title>Node7&#45;&gt;Node5</title>
<path fill="none" stroke="midnightblue" d="M159.11,-112.08C163.87,-104.53 170.82,-93.49 176.65,-84.23"/>
<polygon fill="midnightblue" stroke="midnightblue" points="179.62,-86.08 181.99,-75.75 173.7,-82.35 179.62,-86.08"/>
</g>
<!-- Node8&#45;&gt;Node5 -->
<g id="edge9" class="edge">
<title>Node8&#45;&gt;Node5</title>
<path fill="none" stroke="midnightblue" d="M219.02,-168.14C215.49,-155.6 208.75,-131.97 202.5,-112 199.73,-103.15 196.5,-93.37 193.74,-85.2"/>
<polygon fill="midnightblue" stroke="midnightblue" points="197.01,-83.94 190.47,-75.6 190.38,-86.19 197.01,-83.94"/>
</g>
<!-- Node8&#45;&gt;Node7 -->
<g id="edge10" class="edge">
<title>Node8&#45;&gt;Node7</title>
<path fill="none" stroke="midnightblue" d="M210.57,-168.32C200.33,-160.18 184.78,-147.84 172.5,-138.09"/>
<polygon fill="midnightblue" stroke="midnightblue" points="174.63,-135.31 164.62,-131.83 170.28,-140.79 174.63,-135.31"/>
</g>
<!-- Node9&#45;&gt;Node5 -->
<g id="edge12" class="edge">
<title>Node9&#45;&gt;Node5</title>
<path fill="none" stroke="midnightblue" d="M276.47,-112.32C259.47,-103.66 233.12,-90.24 213.51,-80.25"/>
<polygon fill="midnightblue" stroke="midnightblue" points="214.99,-77.08 204.49,-75.65 211.81,-83.31 214.99,-77.08"/>
</g>
<!-- Node10&#45;&gt;Node4 -->
<g id="edge16" class="edge">
<title>Node10&#45;&gt;Node4</title>
<path fill="none" stroke="midnightblue" d="M359.63,-187.75C361.16,-194.86 361.6,-205.14 360.97,-214.1"/>
<polygon fill="midnightblue" stroke="midnightblue" points="357.49,-213.71 359.67,-224.08 364.43,-214.62 357.49,-213.71"/>
</g>
<!-- Node11 -->
<g id="node11" class="node">
<title>Node11</title>
<g id="a_node11"><a xlink:title=" ">
<polygon fill="white" stroke="#bfbfbf" points="591,-112.5 591,-131.5 640,-131.5 640,-112.5 591,-112.5"/>
<text text-anchor="middle" x="615.5" y="-119.5" font-family="Consolas" font-size="10.00">stdint.h</text>
</a>
</g>
</g>
<!-- Node10&#45;&gt;Node11 -->
<g id="edge15" class="edge">
<title>Node10&#45;&gt;Node11</title>
<path fill="none" stroke="midnightblue" d="M390.36,-169.82C393.45,-169.2 396.53,-168.59 399.5,-168 477.63,-152.5 500.06,-151.02 580.57,-132.34"/>
<polygon fill="midnightblue" stroke="midnightblue" points="581.74,-135.66 590.68,-129.97 580.15,-128.84 581.74,-135.66"/>
</g>
<!-- Node12 -->
<g id="node12" class="node">
<title>Node12</title>
<g id="a_node12"><a xlink:title=" ">
<polygon fill="white" stroke="#bfbfbf" points="355,-112.5 355,-131.5 448,-131.5 448,-112.5 355,-112.5"/>
<text text-anchor="middle" x="401.5" y="-119.5" font-family="Consolas" font-size="10.00">libccc/text/ascii.h</text>
</a>
</g>
</g>
<!-- Node10&#45;&gt;Node12 -->
<g id="edge17" class="edge">
<title>Node10&#45;&gt;Node12</title>
<path fill="none" stroke="midnightblue" d="M362.26,-168.08C369.04,-160.3 379.04,-148.8 387.26,-139.37"/>
<polygon fill="midnightblue" stroke="midnightblue" points="389.96,-141.59 393.88,-131.75 384.68,-137 389.96,-141.59"/>
</g>
<!-- Node13 -->
<g id="node13" class="node">
<title>Node13</title>
<g id="a_node13"><a xlink:title=" ">
<polygon fill="white" stroke="#bfbfbf" points="466,-112.5 466,-131.5 573,-131.5 573,-112.5 466,-112.5"/>
<text text-anchor="middle" x="519.5" y="-119.5" font-family="Consolas" font-size="10.00">libccc/text/unicode.h</text>
</a>
</g>
</g>
<!-- Node10&#45;&gt;Node13 -->
<g id="edge18" class="edge">
<title>Node10&#45;&gt;Node13</title>
<path fill="none" stroke="midnightblue" d="M380.64,-168.44C408.52,-159.32 452.85,-144.81 483.9,-134.65"/>
<polygon fill="midnightblue" stroke="midnightblue" points="485.06,-137.95 493.48,-131.52 482.88,-131.3 485.06,-137.95"/>
</g>
<!-- Node14&#45;&gt;Node4 -->
<g id="edge21" class="edge">
<title>Node14&#45;&gt;Node4</title>
<path fill="none" stroke="midnightblue" d="M349.33,-280.08C347.82,-272.93 347.39,-262.64 348.04,-253.69"/>
<polygon fill="midnightblue" stroke="midnightblue" points="351.52,-254.13 349.37,-243.75 344.58,-253.2 351.52,-254.13"/>
</g>
<!-- Node14&#45;&gt;Node11 -->
<g id="edge20" class="edge">
<title>Node14&#45;&gt;Node11</title>
<path fill="none" stroke="midnightblue" d="M386.7,-283.95C461.97,-271.43 645.78,-236.41 681.5,-188 696.25,-168.01 669.16,-148.47 645.36,-136.12"/>
<polygon fill="midnightblue" stroke="midnightblue" points="646.68,-132.87 636.16,-131.6 643.59,-139.15 646.68,-132.87"/>
</g>
<!-- Node15&#45;&gt;Node4 -->
<g id="edge23" class="edge">
<title>Node15&#45;&gt;Node4</title>
<path fill="none" stroke="midnightblue" d="M520.41,-187.53C486.91,-197.63 427.78,-214.35 389.81,-224.45"/>
<polygon fill="midnightblue" stroke="midnightblue" points="388.48,-221.19 379.71,-227.12 390.27,-227.95 388.48,-221.19"/>
</g>
<!-- Node16&#45;&gt;Node4 -->
<g id="edge25" class="edge">
<title>Node16&#45;&gt;Node4</title>
<path fill="none" stroke="midnightblue" d="M602.87,-187.54C602.07,-187.69 601.28,-187.85 600.5,-188 525.82,-202.56 437.78,-219.12 389.73,-227.5"/>
<polygon fill="midnightblue" stroke="midnightblue" points="389.08,-224.06 379.82,-229.21 390.27,-230.96 389.08,-224.06"/>
</g>
<!-- Node17&#45;&gt;Node4 -->
<g id="edge29" class="edge">
<title>Node17&#45;&gt;Node4</title>
<path fill="none" stroke="midnightblue" d="M439.38,-187.65C426.1,-196.27 402.91,-209.61 384.02,-219.59"/>
<polygon fill="midnightblue" stroke="midnightblue" points="382.15,-216.62 374.88,-224.32 385.37,-222.83 382.15,-216.62"/>
</g>
<!-- Node17&#45;&gt;Node11 -->
<g id="edge28" class="edge">
<title>Node17&#45;&gt;Node11</title>
<path fill="none" stroke="midnightblue" d="M475.8,-168.44C504.35,-159.16 550.02,-144.3 581.33,-134.12"/>
<polygon fill="midnightblue" stroke="midnightblue" points="582.52,-137.41 590.94,-130.99 580.35,-130.75 582.52,-137.41"/>
</g>
<!-- Node18 -->
<g id="node18" class="node">
<title>Node18</title>
<g id="a_node18"><a xlink:title=" ">
<polygon fill="white" stroke="#bfbfbf" points="658.5,-112.5 658.5,-131.5 710.5,-131.5 710.5,-112.5 658.5,-112.5"/>
<text text-anchor="middle" x="684.5" y="-119.5" font-family="Consolas" font-size="10.00">stddef.h</text>
</a>
</g>
</g>
<!-- Node17&#45;&gt;Node18 -->
<g id="edge27" class="edge">
<title>Node17&#45;&gt;Node18</title>
<path fill="none" stroke="midnightblue" d="M489.05,-168.47C527.4,-160.12 587.48,-146.82 648.37,-132.22"/>
<polygon fill="midnightblue" stroke="midnightblue" points="649.25,-135.61 658.15,-129.87 647.61,-128.81 649.25,-135.61"/>
</g>
</g>
</svg>
