<?xml version="1.0" encoding="UTF-8" standalone="no"?>
<!DOCTYPE svg PUBLIC "-//W3C//DTD SVG 1.1//EN"
 "http://www.w3.org/Graphics/SVG/1.1/DTD/svg11.dtd">
<!-- Generated by graphviz version 2.43.0 (0)
 -->
<!-- Title: libccc/int.h Pages: 1 -->
<svg width="869pt" height="308pt"
 viewBox="0.00 0.00 869.27 308.00" xmlns="http://www.w3.org/2000/svg" xmlns:xlink="http://www.w3.org/1999/xlink">
<g id="graph0" class="graph" transform="scale(1 1) rotate(0) translate(4 304)">
<title>libccc/int.h</title>
<polygon fill="white" stroke="transparent" points="-4,4 -4,-304 865.27,-304 865.27,4 -4,4"/>
<!-- Node1 -->
<g id="node1" class="node">
<title>Node1</title>
<g id="a_node1"><a xlink:title=" ">
<polygon fill="#bfbfbf" stroke="black" points="229.86,-280.5 229.86,-299.5 309.86,-299.5 309.86,-280.5 229.86,-280.5"/>
<text text-anchor="middle" x="269.86" y="-287.5" font-family="Consolas" font-size="10.00">libccc/int.h</text>
</a>
</g>
</g>
<!-- Node2 -->
<g id="node2" class="node">
<title>Node2</title>
<g id="a_node2"><a xlink:title=" ">
<polygon fill="white" stroke="#bfbfbf" points="163.36,-224.5 163.36,-243.5 222.36,-243.5 222.36,-224.5 163.36,-224.5"/>
<text text-anchor="middle" x="192.86" y="-231.5" font-family="Consolas" font-size="10.00">stdint.h</text>
</a>
</g>
</g>
<!-- Node1&#45;&gt;Node2 -->
<g id="edge1" class="edge">
<title>Node1&#45;&gt;Node2</title>
<path fill="none" stroke="midnightblue" d="M257.49,-280.32C245.7,-272.06 227.73,-259.45 213.73,-249.63"/>
<polygon fill="midnightblue" stroke="midnightblue" points="215.4,-246.53 205.2,-243.65 211.38,-252.26 215.4,-246.53"/>
</g>
<!-- Node3 -->
<g id="node3" class="node">
<title>Node3</title>
<g id="a_node3"><a xlink:href="libccc_8h.html" target="_top" xlink:title=" ">
<polygon fill="white" stroke="black" points="240.36,-224.5 240.36,-243.5 299.36,-243.5 299.36,-224.5 240.36,-224.5"/>
<text text-anchor="middle" x="269.86" y="-231.5" font-family="Consolas" font-size="10.00">libccc.h</text>
</a>
</g>
</g>
<!-- Node1&#45;&gt;Node3 -->
<g id="edge2" class="edge">
<title>Node1&#45;&gt;Node3</title>
<path fill="none" stroke="midnightblue" d="M269.86,-280.08C269.86,-273.01 269.86,-262.86 269.86,-253.99"/>
<polygon fill="midnightblue" stroke="midnightblue" points="273.36,-253.75 269.86,-243.75 266.36,-253.75 273.36,-253.75"/>
</g>
<!-- Node4 -->
<g id="node4" class="node">
<title>Node4</title>
<g id="a_node4"><a xlink:href="libccc__define_8h.html" target="_top" xlink:title=" ">
<polygon fill="white" stroke="black" points="108.36,-56.5 108.36,-75.5 203.36,-75.5 203.36,-56.5 108.36,-56.5"/>
<text text-anchor="middle" x="155.86" y="-63.5" font-family="Consolas" font-size="10.00">libccc_define.h</text>
</a>
</g>
</g>
<!-- Node3&#45;&gt;Node4 -->
<g id="edge3" class="edge">
<title>Node3&#45;&gt;Node4</title>
<path fill="none" stroke="midnightblue" d="M265.07,-224.42C257.96,-211.83 244.03,-187.69 230.86,-168 210.43,-137.46 184.46,-103.44 169.06,-83.7"/>
<polygon fill="midnightblue" stroke="midnightblue" points="171.71,-81.41 162.78,-75.71 166.2,-85.73 171.71,-81.41"/>
</g>
<!-- Node6 -->
<g id="node6" class="node">
<title>Node6</title>
<g id="a_node6"><a xlink:href="libccc__errors_8h.html" target="_top" xlink:title=" ">
<polygon fill="white" stroke="black" points="13.36,-112.5 13.36,-131.5 108.36,-131.5 108.36,-112.5 13.36,-112.5"/>
<text text-anchor="middle" x="60.86" y="-119.5" font-family="Consolas" font-size="10.00">libccc_errors.h</text>
</a>
</g>
</g>
<!-- Node3&#45;&gt;Node6 -->
<g id="edge5" class="edge">
<title>Node3&#45;&gt;Node6</title>
<path fill="none" stroke="midnightblue" d="M240.1,-225.91C236.98,-225.23 233.86,-224.58 230.86,-224 180.94,-214.28 37.87,-226.69 4.86,-188 -10.28,-170.25 14.07,-149.89 35.25,-136.76"/>
<polygon fill="midnightblue" stroke="midnightblue" points="37.17,-139.69 44.01,-131.6 33.62,-133.66 37.17,-139.69"/>
</g>
<!-- Node7 -->
<g id="node7" class="node">
<title>Node7</title>
<g id="a_node7"><a xlink:href="libccc__config_8h.html" target="_top" xlink:title=" ">
<polygon fill="white" stroke="black" points="14.36,-168.5 14.36,-187.5 109.36,-187.5 109.36,-168.5 14.36,-168.5"/>
<text text-anchor="middle" x="61.86" y="-175.5" font-family="Consolas" font-size="10.00">libccc_config.h</text>
</a>
</g>
</g>
<!-- Node3&#45;&gt;Node7 -->
<g id="edge7" class="edge">
<title>Node3&#45;&gt;Node7</title>
<path fill="none" stroke="midnightblue" d="M240.06,-225.26C204.54,-216.04 144.93,-200.57 104.53,-190.08"/>
<polygon fill="midnightblue" stroke="midnightblue" points="105.25,-186.65 94.7,-187.52 103.5,-193.42 105.25,-186.65"/>
</g>
<!-- Node8 -->
<g id="node8" class="node">
<title>Node8</title>
<g id="a_node8"><a xlink:href="libccc__naming_8h.html" target="_top" xlink:title=" ">
<polygon fill="white" stroke="black" points="127.36,-168.5 127.36,-187.5 222.36,-187.5 222.36,-168.5 127.36,-168.5"/>
<text text-anchor="middle" x="174.86" y="-175.5" font-family="Consolas" font-size="10.00">libccc_naming.h</text>
</a>
</g>
</g>
<!-- Node3&#45;&gt;Node8 -->
<g id="edge10" class="edge">
<title>Node3&#45;&gt;Node8</title>
<path fill="none" stroke="midnightblue" d="M254.6,-224.32C239.64,-215.82 216.61,-202.73 199.13,-192.8"/>
<polygon fill="midnightblue" stroke="midnightblue" points="200.51,-189.55 190.09,-187.65 197.05,-195.64 200.51,-189.55"/>
</g>
<!-- Node9 -->
<g id="node9" class="node">
<title>Node9</title>
<g id="a_node9"><a xlink:href="math_8h.html" target="_top" xlink:title=" ">
<polygon fill="white" stroke="black" points="495.86,-168.5 495.86,-187.5 543.86,-187.5 543.86,-168.5 495.86,-168.5"/>
<text text-anchor="middle" x="519.86" y="-175.5" font-family="Consolas" font-size="10.00">math.h</text>
</a>
</g>
</g>
<!-- Node3&#45;&gt;Node9 -->
<g id="edge12" class="edge">
<title>Node3&#45;&gt;Node9</title>
<path fill="none" stroke="midnightblue" d="M299.52,-226.59C346.25,-216.5 436.75,-196.95 485.98,-186.32"/>
<polygon fill="midnightblue" stroke="midnightblue" points="486.79,-189.72 495.82,-184.19 485.31,-182.88 486.79,-189.72"/>
</g>
<!-- Node5 -->
<g id="node5" class="node">
<title>Node5</title>
<g id="a_node5"><a xlink:title=" ">
<polygon fill="white" stroke="#bfbfbf" points="121.36,-0.5 121.36,-19.5 190.36,-19.5 190.36,-0.5 121.36,-0.5"/>
<text text-anchor="middle" x="155.86" y="-7.5" font-family="Consolas" font-size="10.00">stdalign.h</text>
</a>
</g>
</g>
<!-- Node4&#45;&gt;Node5 -->
<g id="edge4" class="edge">
<title>Node4&#45;&gt;Node5</title>
<path fill="none" stroke="midnightblue" d="M155.86,-56.08C155.86,-49.01 155.86,-38.86 155.86,-29.99"/>
<polygon fill="midnightblue" stroke="midnightblue" points="159.36,-29.75 155.86,-19.75 152.36,-29.75 159.36,-29.75"/>
</g>
<!-- Node6&#45;&gt;Node4 -->
<g id="edge6" class="edge">
<title>Node6&#45;&gt;Node4</title>
<path fill="none" stroke="midnightblue" d="M76.12,-112.32C91.08,-103.82 114.12,-90.73 131.59,-80.8"/>
<polygon fill="midnightblue" stroke="midnightblue" points="133.67,-83.64 140.64,-75.65 130.21,-77.55 133.67,-83.64"/>
</g>
<!-- Node7&#45;&gt;Node4 -->
<g id="edge8" class="edge">
<title>Node7&#45;&gt;Node4</title>
<path fill="none" stroke="midnightblue" d="M74.72,-168.43C86.61,-160.09 104.28,-146.56 116.86,-132 129.34,-117.56 140.2,-98.62 147.27,-84.91"/>
<polygon fill="midnightblue" stroke="midnightblue" points="150.57,-86.12 151.9,-75.61 144.31,-83 150.57,-86.12"/>
</g>
<!-- Node7&#45;&gt;Node6 -->
<g id="edge9" class="edge">
<title>Node7&#45;&gt;Node6</title>
<path fill="none" stroke="midnightblue" d="M61.7,-168.08C61.57,-161.01 61.38,-150.86 61.21,-141.99"/>
<polygon fill="midnightblue" stroke="midnightblue" points="64.71,-141.68 61.02,-131.75 57.71,-141.81 64.71,-141.68"/>
</g>
<!-- Node8&#45;&gt;Node4 -->
<g id="edge11" class="edge">
<title>Node8&#45;&gt;Node4</title>
<path fill="none" stroke="midnightblue" d="M173.37,-168.37C170.3,-150.62 163.23,-109.67 159.07,-85.6"/>
<polygon fill="midnightblue" stroke="midnightblue" points="162.5,-84.85 157.35,-75.59 155.6,-86.04 162.5,-84.85"/>
</g>
<!-- Node10 -->
<g id="node10" class="node">
<title>Node10</title>
<g id="a_node10"><a xlink:href="constants_8h.html" target="_top" xlink:title=" ">
<polygon fill="white" stroke="black" points="451.36,-112.5 451.36,-131.5 588.36,-131.5 588.36,-112.5 451.36,-112.5"/>
<text text-anchor="middle" x="519.86" y="-119.5" font-family="Consolas" font-size="10.00">libccc/math/constants.h</text>
</a>
</g>
</g>
<!-- Node9&#45;&gt;Node10 -->
<g id="edge13" class="edge">
<title>Node9&#45;&gt;Node10</title>
<path fill="none" stroke="midnightblue" d="M519.86,-168.08C519.86,-161.01 519.86,-150.86 519.86,-141.99"/>
<polygon fill="midnightblue" stroke="midnightblue" points="523.36,-141.75 519.86,-131.75 516.36,-141.75 523.36,-141.75"/>
</g>
<!-- Node12 -->
<g id="node12" class="node">
<title>Node12</title>
<g id="a_node12"><a xlink:href="math_2int_8h.html" target="_top" xlink:title=" ">
<polygon fill="white" stroke="black" points="740.86,-112.5 740.86,-131.5 846.86,-131.5 846.86,-112.5 740.86,-112.5"/>
<text text-anchor="middle" x="793.86" y="-119.5" font-family="Consolas" font-size="10.00">libccc/math/int.h</text>
</a>
</g>
</g>
<!-- Node9&#45;&gt;Node12 -->
<g id="edge16" class="edge">
<title>Node9&#45;&gt;Node12</title>
<path fill="none" stroke="midnightblue" d="M544.18,-172.21C588.01,-163.57 681.2,-145.2 740.51,-133.51"/>
<polygon fill="midnightblue" stroke="midnightblue" points="741.32,-136.92 750.45,-131.56 739.96,-130.06 741.32,-136.92"/>
</g>
<!-- Node13 -->
<g id="node13" class="node">
<title>Node13</title>
<g id="a_node13"><a xlink:href="math_2fixed_8h.html" target="_top" xlink:title=" ">
<polygon fill="white" stroke="black" points="606.86,-112.5 606.86,-131.5 722.86,-131.5 722.86,-112.5 606.86,-112.5"/>
<text text-anchor="middle" x="664.86" y="-119.5" font-family="Consolas" font-size="10.00">libccc/math/fixed.h</text>
</a>
</g>
</g>
<!-- Node9&#45;&gt;Node13 -->
<g id="edge18" class="edge">
<title>Node9&#45;&gt;Node13</title>
<path fill="none" stroke="midnightblue" d="M542.84,-168.44C567.02,-159.44 605.28,-145.19 632.51,-135.05"/>
<polygon fill="midnightblue" stroke="midnightblue" points="633.84,-138.29 641.99,-131.52 631.4,-131.73 633.84,-138.29"/>
</g>
<!-- Node15 -->
<g id="node15" class="node">
<title>Node15</title>
<g id="a_node15"><a xlink:href="math_2float_8h.html" target="_top" xlink:title=" ">
<polygon fill="white" stroke="black" points="316.86,-112.5 316.86,-131.5 432.86,-131.5 432.86,-112.5 316.86,-112.5"/>
<text text-anchor="middle" x="374.86" y="-119.5" font-family="Consolas" font-size="10.00">libccc/math/float.h</text>
</a>
</g>
</g>
<!-- Node9&#45;&gt;Node15 -->
<g id="edge21" class="edge">
<title>Node9&#45;&gt;Node15</title>
<path fill="none" stroke="midnightblue" d="M496.89,-168.44C472.7,-159.44 434.44,-145.19 407.22,-135.05"/>
<polygon fill="midnightblue" stroke="midnightblue" points="408.32,-131.73 397.73,-131.52 405.88,-138.29 408.32,-131.73"/>
</g>
<!-- Node11 -->
<g id="node11" class="node">
<title>Node11</title>
<g id="a_node11"><a xlink:href="float_8h.html" target="_top" xlink:title=" ">
<polygon fill="white" stroke="black" points="329.86,-56.5 329.86,-75.5 419.86,-75.5 419.86,-56.5 329.86,-56.5"/>
<text text-anchor="middle" x="374.86" y="-63.5" font-family="Consolas" font-size="10.00">libccc/float.h</text>
</a>
</g>
</g>
<!-- Node10&#45;&gt;Node11 -->
<g id="edge14" class="edge">
<title>Node10&#45;&gt;Node11</title>
<path fill="none" stroke="midnightblue" d="M496.89,-112.44C472.7,-103.44 434.44,-89.19 407.22,-79.05"/>
<polygon fill="midnightblue" stroke="midnightblue" points="408.32,-75.73 397.73,-75.52 405.88,-82.29 408.32,-75.73"/>
</g>
<!-- Node11&#45;&gt;Node3 -->
<g id="edge15" class="edge">
<title>Node11&#45;&gt;Node3</title>
<path fill="none" stroke="midnightblue" d="M355.47,-75.55C340.45,-83.11 320.19,-95.5 307.86,-112 284.66,-143.05 275.4,-188.61 271.88,-214.05"/>
<polygon fill="midnightblue" stroke="midnightblue" points="268.37,-213.84 270.63,-224.19 275.32,-214.69 268.37,-213.84"/>
</g>
<!-- Node12&#45;&gt;Node1 -->
<g id="edge17" class="edge">
<title>Node12&#45;&gt;Node1</title>
<path fill="none" stroke="midnightblue" d="M766.95,-131.52C679.96,-159.08 406.18,-245.82 306.56,-277.37"/>
<polygon fill="midnightblue" stroke="midnightblue" points="305.41,-274.07 296.93,-280.42 307.52,-280.74 305.41,-274.07"/>
</g>
<!-- Node14 -->
<g id="node14" class="node">
<title>Node14</title>
<g id="a_node14"><a xlink:href="fixed_8h.html" target="_top" xlink:title=" ">
<polygon fill="white" stroke="black" points="724.86,-56.5 724.86,-75.5 814.86,-75.5 814.86,-56.5 724.86,-56.5"/>
<text text-anchor="middle" x="769.86" y="-63.5" font-family="Consolas" font-size="10.00">libccc/fixed.h</text>
</a>
</g>
</g>
<!-- Node13&#45;&gt;Node14 -->
<g id="edge19" class="edge">
<title>Node13&#45;&gt;Node14</title>
<path fill="none" stroke="midnightblue" d="M681.73,-112.32C698.57,-103.66 724.67,-90.24 744.1,-80.25"/>
<polygon fill="midnightblue" stroke="midnightblue" points="745.74,-83.34 753.03,-75.65 742.54,-77.12 745.74,-83.34"/>
</g>
<!-- Node14&#45;&gt;Node3 -->
<g id="edge20" class="edge">
<title>Node14&#45;&gt;Node3</title>
<path fill="none" stroke="midnightblue" d="M798.5,-75.51C830.82,-86.54 876.39,-107.33 855.86,-132 785.91,-216.06 430.41,-230.16 309.89,-232.52"/>
<polygon fill="midnightblue" stroke="midnightblue" points="309.57,-229.03 299.63,-232.71 309.69,-236.03 309.57,-229.03"/>
</g>
<!-- Node15&#45;&gt;Node11 -->
<g id="edge22" class="edge">
<title>Node15&#45;&gt;Node11</title>
<path fill="none" stroke="midnightblue" d="M374.86,-112.08C374.86,-105.01 374.86,-94.86 374.86,-85.99"/>
<polygon fill="midnightblue" stroke="midnightblue" points="378.36,-85.75 374.86,-75.75 371.36,-85.75 378.36,-85.75"/>
</g>
</g>
</svg>
