<?xml version="1.0" encoding="UTF-8" standalone="no"?>
<!DOCTYPE svg PUBLIC "-//W3C//DTD SVG 1.1//EN"
 "http://www.w3.org/Graphics/SVG/1.1/DTD/svg11.dtd">
<!-- Generated by graphviz version 2.49.3 (20211023.0002)
 -->
<!-- Title: hdr/libccc/int.h Pages: 1 -->
<svg width="692pt" height="308pt"
 viewBox="0.00 0.00 692.33 308.00" xmlns="http://www.w3.org/2000/svg" xmlns:xlink="http://www.w3.org/1999/xlink">
<g id="graph0" class="graph" transform="scale(1 1) rotate(0) translate(4 304)">
<title>hdr/libccc/int.h</title>
<polygon fill="white" stroke="transparent" points="-4,4 -4,-304 688.33,-304 688.33,4 -4,4"/>
<!-- Node1 -->
<g id="node1" class="node">
<title>Node1</title>
<g id="a_node1"><a xlink:title=" ">
<polygon fill="#bfbfbf" stroke="black" points="307.33,-280.5 307.33,-299.5 387.33,-299.5 387.33,-280.5 307.33,-280.5"/>
<text text-anchor="middle" x="347.33" y="-287.5" font-family="Consolas" font-size="10.00">hdr/libccc/int.h</text>
</a>
</g>
</g>
<!-- Node2 -->
<g id="node2" class="node">
<title>Node2</title>
<g id="a_node2"><a xlink:title=" ">
<polygon fill="white" stroke="#bfbfbf" points="564.83,-112.5 564.83,-131.5 613.83,-131.5 613.83,-112.5 564.83,-112.5"/>
<text text-anchor="middle" x="589.33" y="-119.5" font-family="Consolas" font-size="10.00">stdint.h</text>
</a>
</g>
</g>
<!-- Node1&#45;&gt;Node2 -->
<g id="edge1" class="edge">
<title>Node1&#45;&gt;Node2</title>
<path fill="none" stroke="midnightblue" d="M387.4,-282.63C466.88,-269.08 639.8,-234.8 674.33,-188 691.99,-164.06 654.28,-144.63 623.57,-133.44"/>
<polygon fill="midnightblue" stroke="midnightblue" points="624.52,-130.07 613.92,-130.1 622.23,-136.68 624.52,-130.07"/>
</g>
<!-- Node3 -->
<g id="node3" class="node">
<title>Node3</title>
<g id="a_node3"><a xlink:href="libccc_8h.html" target="_top" xlink:title=" ">
<polygon fill="white" stroke="black" points="322.33,-224.5 322.33,-243.5 372.33,-243.5 372.33,-224.5 322.33,-224.5"/>
<text text-anchor="middle" x="347.33" y="-231.5" font-family="Consolas" font-size="10.00">libccc.h</text>
</a>
</g>
</g>
<!-- Node1&#45;&gt;Node3 -->
<g id="edge2" class="edge">
<title>Node1&#45;&gt;Node3</title>
<path fill="none" stroke="midnightblue" d="M342.16,-280.08C340.65,-272.93 340.22,-262.64 340.87,-253.69"/>
<polygon fill="midnightblue" stroke="midnightblue" points="344.34,-254.13 342.19,-243.75 337.4,-253.2 344.34,-254.13"/>
</g>
<!-- Node3&#45;&gt;Node1 -->
<g id="edge19" class="edge">
<title>Node3&#45;&gt;Node1</title>
<path fill="none" stroke="midnightblue" d="M352.46,-243.75C353.98,-250.86 354.43,-261.14 353.8,-270.1"/>
<polygon fill="midnightblue" stroke="midnightblue" points="350.32,-269.71 352.49,-280.08 357.26,-270.62 350.32,-269.71"/>
</g>
<!-- Node4 -->
<g id="node4" class="node">
<title>Node4</title>
<g id="a_node4"><a xlink:href="libccc__define_8h.html" target="_top" xlink:title=" ">
<polygon fill="white" stroke="black" points="48.33,-56.5 48.33,-75.5 130.33,-75.5 130.33,-56.5 48.33,-56.5"/>
<text text-anchor="middle" x="89.33" y="-63.5" font-family="Consolas" font-size="10.00">libccc_define.h</text>
</a>
</g>
</g>
<!-- Node3&#45;&gt;Node4 -->
<g id="edge3" class="edge">
<title>Node3&#45;&gt;Node4</title>
<path fill="none" stroke="midnightblue" d="M322.06,-231.19C260.42,-226.45 104.06,-212.3 58.33,-188 22.18,-168.79 -14.61,-147.17 6.33,-112 15.42,-96.72 31.71,-86.31 47.47,-79.39"/>
<polygon fill="midnightblue" stroke="midnightblue" points="49.16,-82.48 57.14,-75.51 46.56,-75.98 49.16,-82.48"/>
</g>
<!-- Node6 -->
<g id="node6" class="node">
<title>Node6</title>
<g id="a_node6"><a xlink:href="libccc__errors_8h.html" target="_top" xlink:title=" ">
<polygon fill="white" stroke="black" points="15.33,-112.5 15.33,-131.5 95.33,-131.5 95.33,-112.5 15.33,-112.5"/>
<text text-anchor="middle" x="55.33" y="-119.5" font-family="Consolas" font-size="10.00">libccc_errors.h</text>
</a>
</g>
</g>
<!-- Node3&#45;&gt;Node6 -->
<g id="edge5" class="edge">
<title>Node3&#45;&gt;Node6</title>
<path fill="none" stroke="midnightblue" d="M322.21,-232.19C261.84,-229.73 110.91,-220.41 74.33,-188 61.28,-176.45 56.97,-156.48 55.66,-141.72"/>
<polygon fill="midnightblue" stroke="midnightblue" points="59.15,-141.48 55.14,-131.67 52.16,-141.84 59.15,-141.48"/>
</g>
<!-- Node7 -->
<g id="node7" class="node">
<title>Node7</title>
<g id="a_node7"><a xlink:href="libccc__config_8h.html" target="_top" xlink:title=" ">
<polygon fill="white" stroke="black" points="83.33,-168.5 83.33,-187.5 165.33,-187.5 165.33,-168.5 83.33,-168.5"/>
<text text-anchor="middle" x="124.33" y="-175.5" font-family="Consolas" font-size="10.00">libccc_config.h</text>
</a>
</g>
</g>
<!-- Node3&#45;&gt;Node7 -->
<g id="edge7" class="edge">
<title>Node3&#45;&gt;Node7</title>
<path fill="none" stroke="midnightblue" d="M322.18,-226.91C285.14,-217.94 215.35,-201.04 169.35,-189.9"/>
<polygon fill="midnightblue" stroke="midnightblue" points="170.17,-186.5 159.63,-187.55 168.52,-193.3 170.17,-186.5"/>
</g>
<!-- Node8 -->
<g id="node8" class="node">
<title>Node8</title>
<g id="a_node8"><a xlink:href="libccc__naming_8h.html" target="_top" xlink:title=" ">
<polygon fill="white" stroke="black" points="151.83,-112.5 151.83,-131.5 238.83,-131.5 238.83,-112.5 151.83,-112.5"/>
<text text-anchor="middle" x="195.33" y="-119.5" font-family="Consolas" font-size="10.00">libccc_naming.h</text>
</a>
</g>
</g>
<!-- Node3&#45;&gt;Node8 -->
<g id="edge10" class="edge">
<title>Node3&#45;&gt;Node8</title>
<path fill="none" stroke="midnightblue" d="M322.1,-231.46C291.99,-228.25 242.1,-218.37 213.33,-188 201.63,-175.66 197.41,-156.41 195.95,-142.06"/>
<polygon fill="midnightblue" stroke="midnightblue" points="199.43,-141.57 195.28,-131.82 192.44,-142.03 199.43,-141.57"/>
</g>
<!-- Node9 -->
<g id="node9" class="node">
<title>Node9</title>
<g id="a_node9"><a xlink:href="bool_8h.html" target="_top" xlink:title=" ">
<polygon fill="white" stroke="black" points="311.83,-168.5 311.83,-187.5 382.83,-187.5 382.83,-168.5 311.83,-168.5"/>
<text text-anchor="middle" x="347.33" y="-175.5" font-family="Consolas" font-size="10.00">libccc/bool.h</text>
</a>
</g>
</g>
<!-- Node3&#45;&gt;Node9 -->
<g id="edge12" class="edge">
<title>Node3&#45;&gt;Node9</title>
<path fill="none" stroke="midnightblue" d="M342.16,-224.08C340.65,-216.93 340.22,-206.64 340.87,-197.69"/>
<polygon fill="midnightblue" stroke="midnightblue" points="344.34,-198.13 342.19,-187.75 337.4,-197.2 344.34,-198.13"/>
</g>
<!-- Node10 -->
<g id="node10" class="node">
<title>Node10</title>
<g id="a_node10"><a xlink:href="char_8h.html" target="_top" xlink:title=" ">
<polygon fill="white" stroke="black" points="222.83,-168.5 222.83,-187.5 293.83,-187.5 293.83,-168.5 222.83,-168.5"/>
<text text-anchor="middle" x="258.33" y="-175.5" font-family="Consolas" font-size="10.00">libccc/char.h</text>
</a>
</g>
</g>
<!-- Node3&#45;&gt;Node10 -->
<g id="edge14" class="edge">
<title>Node3&#45;&gt;Node10</title>
<path fill="none" stroke="midnightblue" d="M327.91,-224.32C312.35,-215.98 291,-203.21 275.94,-193.35"/>
<polygon fill="midnightblue" stroke="midnightblue" points="277.73,-190.34 267.48,-187.65 273.82,-196.14 277.73,-190.34"/>
</g>
<!-- Node13 -->
<g id="node13" class="node">
<title>Node13</title>
<g id="a_node13"><a xlink:href="fixed_8h.html" target="_top" xlink:title=" ">
<polygon fill="white" stroke="black" points="401.33,-168.5 401.33,-187.5 475.33,-187.5 475.33,-168.5 401.33,-168.5"/>
<text text-anchor="middle" x="438.33" y="-175.5" font-family="Consolas" font-size="10.00">libccc/fixed.h</text>
</a>
</g>
</g>
<!-- Node3&#45;&gt;Node13 -->
<g id="edge20" class="edge">
<title>Node3&#45;&gt;Node13</title>
<path fill="none" stroke="midnightblue" d="M356.83,-224.32C369.43,-215.74 391.5,-202.49 409.6,-192.52"/>
<polygon fill="midnightblue" stroke="midnightblue" points="411.49,-195.48 418.63,-187.65 408.17,-189.32 411.49,-195.48"/>
</g>
<!-- Node14 -->
<g id="node14" class="node">
<title>Node14</title>
<g id="a_node14"><a xlink:href="float_8h.html" target="_top" xlink:title=" ">
<polygon fill="white" stroke="black" points="493.33,-168.5 493.33,-187.5 565.33,-187.5 565.33,-168.5 493.33,-168.5"/>
<text text-anchor="middle" x="529.33" y="-175.5" font-family="Consolas" font-size="10.00">libccc/float.h</text>
</a>
</g>
</g>
<!-- Node3&#45;&gt;Node14 -->
<g id="edge22" class="edge">
<title>Node3&#45;&gt;Node14</title>
<path fill="none" stroke="midnightblue" d="M371.07,-224.44C400.2,-215.2 449.79,-200.44 485.78,-190.26"/>
<polygon fill="midnightblue" stroke="midnightblue" points="486.86,-193.59 495.54,-187.52 484.97,-186.85 486.86,-193.59"/>
</g>
<!-- Node15 -->
<g id="node15" class="node">
<title>Node15</title>
<g id="a_node15"><a xlink:href="pointer_8h.html" target="_top" xlink:title=" ">
<polygon fill="white" stroke="black" points="583.33,-168.5 583.33,-187.5 665.33,-187.5 665.33,-168.5 583.33,-168.5"/>
<text text-anchor="middle" x="624.33" y="-175.5" font-family="Consolas" font-size="10.00">libccc/pointer.h</text>
</a>
</g>
</g>
<!-- Node3&#45;&gt;Node15 -->
<g id="edge24" class="edge">
<title>Node3&#45;&gt;Node15</title>
<path fill="none" stroke="midnightblue" d="M372.6,-227.22C418.01,-217.81 513.72,-199.1 573.23,-187.95"/>
<polygon fill="midnightblue" stroke="midnightblue" points="573.99,-191.37 583.18,-186.1 572.7,-184.49 573.99,-191.37"/>
</g>
<!-- Node5 -->
<g id="node5" class="node">
<title>Node5</title>
<g id="a_node5"><a xlink:title=" ">
<polygon fill="white" stroke="#bfbfbf" points="59.83,-0.5 59.83,-19.5 118.83,-19.5 118.83,-0.5 59.83,-0.5"/>
<text text-anchor="middle" x="89.33" y="-7.5" font-family="Consolas" font-size="10.00">stdalign.h</text>
</a>
</g>
</g>
<!-- Node4&#45;&gt;Node5 -->
<g id="edge4" class="edge">
<title>Node4&#45;&gt;Node5</title>
<path fill="none" stroke="midnightblue" d="M89.33,-56.08C89.33,-49.01 89.33,-38.86 89.33,-29.99"/>
<polygon fill="midnightblue" stroke="midnightblue" points="92.83,-29.75 89.33,-19.75 85.83,-29.75 92.83,-29.75"/>
</g>
<!-- Node6&#45;&gt;Node4 -->
<g id="edge6" class="edge">
<title>Node6&#45;&gt;Node4</title>
<path fill="none" stroke="midnightblue" d="M60.94,-112.08C65.69,-104.53 72.64,-93.49 78.48,-84.23"/>
<polygon fill="midnightblue" stroke="midnightblue" points="81.45,-86.08 83.82,-75.75 75.53,-82.35 81.45,-86.08"/>
</g>
<!-- Node7&#45;&gt;Node4 -->
<g id="edge8" class="edge">
<title>Node7&#45;&gt;Node4</title>
<path fill="none" stroke="midnightblue" d="M121.67,-168.15C117.9,-155.62 110.74,-132.01 104.33,-112 101.49,-103.17 98.25,-93.39 95.51,-85.22"/>
<polygon fill="midnightblue" stroke="midnightblue" points="98.77,-83.96 92.26,-75.61 92.14,-86.2 98.77,-83.96"/>
</g>
<!-- Node7&#45;&gt;Node6 -->
<g id="edge9" class="edge">
<title>Node7&#45;&gt;Node6</title>
<path fill="none" stroke="midnightblue" d="M113.24,-168.32C102.84,-160.18 87.06,-147.84 74.6,-138.09"/>
<polygon fill="midnightblue" stroke="midnightblue" points="76.65,-135.24 66.61,-131.83 72.33,-140.75 76.65,-135.24"/>
</g>
<!-- Node8&#45;&gt;Node4 -->
<g id="edge11" class="edge">
<title>Node8&#45;&gt;Node4</title>
<path fill="none" stroke="midnightblue" d="M178.29,-112.32C161.3,-103.66 134.95,-90.24 115.33,-80.25"/>
<polygon fill="midnightblue" stroke="midnightblue" points="116.81,-77.08 106.31,-75.65 113.64,-83.31 116.81,-77.08"/>
</g>
<!-- Node9&#45;&gt;Node3 -->
<g id="edge13" class="edge">
<title>Node9&#45;&gt;Node3</title>
<path fill="none" stroke="midnightblue" d="M352.46,-187.75C353.98,-194.86 354.43,-205.14 353.8,-214.1"/>
<polygon fill="midnightblue" stroke="midnightblue" points="350.32,-213.71 352.49,-224.08 357.26,-214.62 350.32,-213.71"/>
</g>
<!-- Node10&#45;&gt;Node2 -->
<g id="edge15" class="edge">
<title>Node10&#45;&gt;Node2</title>
<path fill="none" stroke="midnightblue" d="M293.84,-169.59C296.71,-169.04 299.56,-168.5 302.33,-168 393.06,-151.62 500.56,-135.68 554.61,-127.91"/>
<polygon fill="midnightblue" stroke="midnightblue" points="555.29,-131.35 564.69,-126.47 554.3,-124.42 555.29,-131.35"/>
</g>
<!-- Node10&#45;&gt;Node3 -->
<g id="edge16" class="edge">
<title>Node10&#45;&gt;Node3</title>
<path fill="none" stroke="midnightblue" d="M277.7,-187.65C293.25,-195.99 314.6,-208.76 329.67,-218.62"/>
<polygon fill="midnightblue" stroke="midnightblue" points="327.89,-221.64 338.14,-224.32 331.8,-215.83 327.89,-221.64"/>
</g>
<!-- Node11 -->
<g id="node11" class="node">
<title>Node11</title>
<g id="a_node11"><a xlink:title=" ">
<polygon fill="white" stroke="#bfbfbf" points="256.83,-112.5 256.83,-131.5 349.83,-131.5 349.83,-112.5 256.83,-112.5"/>
<text text-anchor="middle" x="303.33" y="-119.5" font-family="Consolas" font-size="10.00">libccc/text/ascii.h</text>
</a>
</g>
</g>
<!-- Node10&#45;&gt;Node11 -->
<g id="edge17" class="edge">
<title>Node10&#45;&gt;Node11</title>
<path fill="none" stroke="midnightblue" d="M265.76,-168.08C272.18,-160.38 281.63,-149.03 289.45,-139.65"/>
<polygon fill="midnightblue" stroke="midnightblue" points="292.32,-141.67 296.03,-131.75 286.94,-137.19 292.32,-141.67"/>
</g>
<!-- Node12 -->
<g id="node12" class="node">
<title>Node12</title>
<g id="a_node12"><a xlink:title=" ">
<polygon fill="white" stroke="#bfbfbf" points="367.83,-112.5 367.83,-131.5 474.83,-131.5 474.83,-112.5 367.83,-112.5"/>
<text text-anchor="middle" x="421.33" y="-119.5" font-family="Consolas" font-size="10.00">libccc/text/unicode.h</text>
</a>
</g>
</g>
<!-- Node10&#45;&gt;Node12 -->
<g id="edge18" class="edge">
<title>Node10&#45;&gt;Node12</title>
<path fill="none" stroke="midnightblue" d="M284.15,-168.44C311.57,-159.36 355.1,-144.94 385.76,-134.78"/>
<polygon fill="midnightblue" stroke="midnightblue" points="387.23,-137.98 395.62,-131.52 385.02,-131.34 387.23,-137.98"/>
</g>
<!-- Node13&#45;&gt;Node3 -->
<g id="edge21" class="edge">
<title>Node13&#45;&gt;Node3</title>
<path fill="none" stroke="midnightblue" d="M428.85,-187.65C416.26,-196.23 394.2,-209.48 376.1,-219.45"/>
<polygon fill="midnightblue" stroke="midnightblue" points="374.2,-216.5 367.06,-224.32 377.52,-222.66 374.2,-216.5"/>
</g>
<!-- Node14&#45;&gt;Node3 -->
<g id="edge23" class="edge">
<title>Node14&#45;&gt;Node3</title>
<path fill="none" stroke="midnightblue" d="M505.72,-187.51C474.26,-197.5 418.73,-213.98 382.4,-224.12"/>
<polygon fill="midnightblue" stroke="midnightblue" points="381.4,-220.77 372.7,-226.81 383.27,-227.51 381.4,-220.77"/>
</g>
<!-- Node15&#45;&gt;Node2 -->
<g id="edge26" class="edge">
<title>Node15&#45;&gt;Node2</title>
<path fill="none" stroke="midnightblue" d="M618.55,-168.08C613.65,-160.53 606.5,-149.49 600.49,-140.23"/>
<polygon fill="midnightblue" stroke="midnightblue" points="603.37,-138.24 595,-131.75 597.5,-142.05 603.37,-138.24"/>
</g>
<!-- Node15&#45;&gt;Node3 -->
<g id="edge27" class="edge">
<title>Node15&#45;&gt;Node3</title>
<path fill="none" stroke="midnightblue" d="M585.72,-187.52C531.7,-198.52 434.65,-217.4 382.52,-227"/>
<polygon fill="midnightblue" stroke="midnightblue" points="381.62,-223.61 372.41,-228.85 382.88,-230.5 381.62,-223.61"/>
</g>
<!-- Node16 -->
<g id="node16" class="node">
<title>Node16</title>
<g id="a_node16"><a xlink:title=" ">
<polygon fill="white" stroke="#bfbfbf" points="632.33,-112.5 632.33,-131.5 684.33,-131.5 684.33,-112.5 632.33,-112.5"/>
<text text-anchor="middle" x="658.33" y="-119.5" font-family="Consolas" font-size="10.00">stddef.h</text>
</a>
</g>
</g>
<!-- Node15&#45;&gt;Node16 -->
<g id="edge25" class="edge">
<title>Node15&#45;&gt;Node16</title>
<path fill="none" stroke="midnightblue" d="M629.94,-168.08C634.69,-160.53 641.64,-149.49 647.48,-140.23"/>
<polygon fill="midnightblue" stroke="midnightblue" points="650.45,-142.08 652.82,-131.75 644.53,-138.35 650.45,-142.08"/>
</g>
</g>
</svg>
