<?xml version="1.0" encoding="UTF-8" standalone="no"?>
<!DOCTYPE svg PUBLIC "-//W3C//DTD SVG 1.1//EN"
 "http://www.w3.org/Graphics/SVG/1.1/DTD/svg11.dtd">
<!-- Generated by graphviz version 2.43.0 (0)
 -->
<!-- Title: libccc/math/algebra/interval.h Pages: 1 -->
<svg width="394pt" height="498pt"
 viewBox="0.00 0.00 394.50 498.00" xmlns="http://www.w3.org/2000/svg" xmlns:xlink="http://www.w3.org/1999/xlink">
<g id="graph0" class="graph" transform="scale(1 1) rotate(0) translate(4 494)">
<title>libccc/math/algebra/interval.h</title>
<polygon fill="white" stroke="transparent" points="-4,4 -4,-494 390.5,-494 390.5,4 -4,4"/>
<!-- Node1 -->
<g id="node1" class="node">
<title>Node1</title>
<g id="a_node1"><a xlink:title=" ">
<polygon fill="#bfbfbf" stroke="black" points="98,-459.5 98,-489.5 214,-489.5 214,-459.5 98,-459.5"/>
<text text-anchor="start" x="106" y="-477.5" font-family="Consolas" font-size="10.00">libccc/math/algebra</text>
<text text-anchor="middle" x="156" y="-466.5" font-family="Consolas" font-size="10.00">/interval.h</text>
</a>
</g>
</g>
<!-- Node2 -->
<g id="node2" class="node">
<title>Node2</title>
<g id="a_node2"><a xlink:href="bool_8h.html" target="_top" xlink:title=" ">
<polygon fill="white" stroke="black" points="282.5,-336.5 282.5,-355.5 367.5,-355.5 367.5,-336.5 282.5,-336.5"/>
<text text-anchor="middle" x="325" y="-343.5" font-family="Consolas" font-size="10.00">libccc/bool.h</text>
</a>
</g>
</g>
<!-- Node1&#45;&gt;Node2 -->
<g id="edge1" class="edge">
<title>Node1&#45;&gt;Node2</title>
<path fill="none" stroke="midnightblue" d="M182.16,-459.46C199.16,-449.93 221.51,-436.63 240,-423 265.73,-404.02 292.84,-378.73 309.34,-362.65"/>
<polygon fill="midnightblue" stroke="midnightblue" points="311.86,-365.07 316.53,-355.56 306.95,-360.09 311.86,-365.07"/>
</g>
<!-- Node10 -->
<g id="node10" class="node">
<title>Node10</title>
<g id="a_node10"><a xlink:href="int_8h.html" target="_top" xlink:title=" ">
<polygon fill="white" stroke="black" points="184,-336.5 184,-355.5 264,-355.5 264,-336.5 184,-336.5"/>
<text text-anchor="middle" x="224" y="-343.5" font-family="Consolas" font-size="10.00">libccc/int.h</text>
</a>
</g>
</g>
<!-- Node1&#45;&gt;Node10 -->
<g id="edge13" class="edge">
<title>Node1&#45;&gt;Node10</title>
<path fill="none" stroke="midnightblue" d="M185.59,-459.3C199.62,-450.86 215.03,-438.72 223,-423 232.02,-405.19 230.73,-381.89 228.16,-365.81"/>
<polygon fill="midnightblue" stroke="midnightblue" points="231.51,-364.72 226.19,-355.55 224.64,-366.03 231.51,-364.72"/>
</g>
<!-- Node12 -->
<g id="node12" class="node">
<title>Node12</title>
<g id="a_node12"><a xlink:href="float_8h.html" target="_top" xlink:title=" ">
<polygon fill="white" stroke="black" points="28,-280.5 28,-299.5 118,-299.5 118,-280.5 28,-280.5"/>
<text text-anchor="middle" x="73" y="-287.5" font-family="Consolas" font-size="10.00">libccc/float.h</text>
</a>
</g>
</g>
<!-- Node1&#45;&gt;Node12 -->
<g id="edge16" class="edge">
<title>Node1&#45;&gt;Node12</title>
<path fill="none" stroke="midnightblue" d="M121.27,-459.45C83.25,-441.82 24.78,-407.51 3,-356 -0.47,-347.81 -1.26,-343.8 3,-336 10.81,-321.68 25.36,-311.24 39.17,-304.04"/>
<polygon fill="midnightblue" stroke="midnightblue" points="41.01,-307.03 48.53,-299.56 37.99,-300.72 41.01,-307.03"/>
</g>
<!-- Node13 -->
<g id="node13" class="node">
<title>Node13</title>
<g id="a_node13"><a xlink:href="math_2float_8h.html" target="_top" xlink:title=" ">
<polygon fill="white" stroke="black" points="12,-336.5 12,-355.5 128,-355.5 128,-336.5 12,-336.5"/>
<text text-anchor="middle" x="70" y="-343.5" font-family="Consolas" font-size="10.00">libccc/math/float.h</text>
</a>
</g>
</g>
<!-- Node1&#45;&gt;Node13 -->
<g id="edge18" class="edge">
<title>Node1&#45;&gt;Node13</title>
<path fill="none" stroke="midnightblue" d="M129.55,-459.5C115.52,-450.77 99.13,-438.3 89,-423 77.63,-405.85 73.07,-382.43 71.23,-366.14"/>
<polygon fill="midnightblue" stroke="midnightblue" points="74.68,-365.38 70.32,-355.73 67.7,-365.99 74.68,-365.38"/>
</g>
<!-- Node14 -->
<g id="node14" class="node">
<title>Node14</title>
<g id="a_node14"><a xlink:href="vector_8h.html" target="_top" xlink:title=" ">
<polygon fill="white" stroke="black" points="98,-392.5 98,-422.5 214,-422.5 214,-392.5 98,-392.5"/>
<text text-anchor="start" x="106" y="-410.5" font-family="Consolas" font-size="10.00">libccc/math/algebra</text>
<text text-anchor="middle" x="156" y="-399.5" font-family="Consolas" font-size="10.00">/vector.h</text>
</a>
</g>
</g>
<!-- Node1&#45;&gt;Node14 -->
<g id="edge20" class="edge">
<title>Node1&#45;&gt;Node14</title>
<path fill="none" stroke="midnightblue" d="M156,-459.4C156,-451.64 156,-441.81 156,-432.86"/>
<polygon fill="midnightblue" stroke="midnightblue" points="159.5,-432.58 156,-422.58 152.5,-432.58 159.5,-432.58"/>
</g>
<!-- Node3 -->
<g id="node3" class="node">
<title>Node3</title>
<g id="a_node3"><a xlink:href="libccc_8h.html" target="_top" xlink:title=" ">
<polygon fill="white" stroke="black" points="195.5,-224.5 195.5,-243.5 254.5,-243.5 254.5,-224.5 195.5,-224.5"/>
<text text-anchor="middle" x="225" y="-231.5" font-family="Consolas" font-size="10.00">libccc.h</text>
</a>
</g>
</g>
<!-- Node2&#45;&gt;Node3 -->
<g id="edge2" class="edge">
<title>Node2&#45;&gt;Node3</title>
<path fill="none" stroke="midnightblue" d="M317.13,-336.38C308.87,-327.32 295.51,-312.67 284,-300 269.02,-283.54 251.94,-264.71 240.02,-251.57"/>
<polygon fill="midnightblue" stroke="midnightblue" points="242.32,-248.89 233.01,-243.84 237.13,-253.59 242.32,-248.89"/>
</g>
<!-- Node9 -->
<g id="node9" class="node">
<title>Node9</title>
<g id="a_node9"><a xlink:title=" ">
<polygon fill="white" stroke="#bfbfbf" points="293,-280.5 293,-299.5 357,-299.5 357,-280.5 293,-280.5"/>
<text text-anchor="middle" x="325" y="-287.5" font-family="Consolas" font-size="10.00">stdbool.h</text>
</a>
</g>
</g>
<!-- Node2&#45;&gt;Node9 -->
<g id="edge12" class="edge">
<title>Node2&#45;&gt;Node9</title>
<path fill="none" stroke="midnightblue" d="M325,-336.08C325,-329.01 325,-318.86 325,-309.99"/>
<polygon fill="midnightblue" stroke="midnightblue" points="328.5,-309.75 325,-299.75 321.5,-309.75 328.5,-309.75"/>
</g>
<!-- Node4 -->
<g id="node4" class="node">
<title>Node4</title>
<g id="a_node4"><a xlink:href="libccc__define_8h.html" target="_top" xlink:title=" ">
<polygon fill="white" stroke="black" points="177.5,-56.5 177.5,-75.5 272.5,-75.5 272.5,-56.5 177.5,-56.5"/>
<text text-anchor="middle" x="225" y="-63.5" font-family="Consolas" font-size="10.00">libccc_define.h</text>
</a>
</g>
</g>
<!-- Node3&#45;&gt;Node4 -->
<g id="edge3" class="edge">
<title>Node3&#45;&gt;Node4</title>
<path fill="none" stroke="midnightblue" d="M209.15,-224.48C175.6,-205.3 102.71,-156.9 131,-112 141,-96.11 158.35,-85.71 175.43,-78.96"/>
<polygon fill="midnightblue" stroke="midnightblue" points="176.62,-82.25 184.85,-75.57 174.25,-75.66 176.62,-82.25"/>
</g>
<!-- Node6 -->
<g id="node6" class="node">
<title>Node6</title>
<g id="a_node6"><a xlink:href="libccc__errors_8h.html" target="_top" xlink:title=" ">
<polygon fill="white" stroke="black" points="139.5,-112.5 139.5,-131.5 234.5,-131.5 234.5,-112.5 139.5,-112.5"/>
<text text-anchor="middle" x="187" y="-119.5" font-family="Consolas" font-size="10.00">libccc_errors.h</text>
</a>
</g>
</g>
<!-- Node3&#45;&gt;Node6 -->
<g id="edge5" class="edge">
<title>Node3&#45;&gt;Node6</title>
<path fill="none" stroke="midnightblue" d="M221.33,-224.45C217.54,-215.46 211.53,-200.85 207,-188 201.53,-172.52 196.1,-154.68 192.28,-141.61"/>
<polygon fill="midnightblue" stroke="midnightblue" points="195.62,-140.55 189.48,-131.91 188.89,-142.48 195.62,-140.55"/>
</g>
<!-- Node7 -->
<g id="node7" class="node">
<title>Node7</title>
<g id="a_node7"><a xlink:href="libccc__config_8h.html" target="_top" xlink:title=" ">
<polygon fill="white" stroke="black" points="215.5,-168.5 215.5,-187.5 310.5,-187.5 310.5,-168.5 215.5,-168.5"/>
<text text-anchor="middle" x="263" y="-175.5" font-family="Consolas" font-size="10.00">libccc_config.h</text>
</a>
</g>
</g>
<!-- Node3&#45;&gt;Node7 -->
<g id="edge7" class="edge">
<title>Node3&#45;&gt;Node7</title>
<path fill="none" stroke="midnightblue" d="M231.27,-224.08C236.64,-216.46 244.51,-205.26 251.07,-195.94"/>
<polygon fill="midnightblue" stroke="midnightblue" points="253.94,-197.94 256.84,-187.75 248.22,-193.91 253.94,-197.94"/>
</g>
<!-- Node8 -->
<g id="node8" class="node">
<title>Node8</title>
<g id="a_node8"><a xlink:href="libccc__naming_8h.html" target="_top" xlink:title=" ">
<polygon fill="white" stroke="black" points="291.5,-112.5 291.5,-131.5 386.5,-131.5 386.5,-112.5 291.5,-112.5"/>
<text text-anchor="middle" x="339" y="-119.5" font-family="Consolas" font-size="10.00">libccc_naming.h</text>
</a>
</g>
</g>
<!-- Node3&#45;&gt;Node8 -->
<g id="edge10" class="edge">
<title>Node3&#45;&gt;Node8</title>
<path fill="none" stroke="midnightblue" d="M254.73,-225.9C275.78,-219.4 303.17,-207.71 320,-188 331.08,-175.02 335.7,-155.85 337.63,-141.69"/>
<polygon fill="midnightblue" stroke="midnightblue" points="341.12,-141.93 338.66,-131.63 334.16,-141.22 341.12,-141.93"/>
</g>
<!-- Node5 -->
<g id="node5" class="node">
<title>Node5</title>
<g id="a_node5"><a xlink:title=" ">
<polygon fill="white" stroke="#bfbfbf" points="190.5,-0.5 190.5,-19.5 259.5,-19.5 259.5,-0.5 190.5,-0.5"/>
<text text-anchor="middle" x="225" y="-7.5" font-family="Consolas" font-size="10.00">stdalign.h</text>
</a>
</g>
</g>
<!-- Node4&#45;&gt;Node5 -->
<g id="edge4" class="edge">
<title>Node4&#45;&gt;Node5</title>
<path fill="none" stroke="midnightblue" d="M225,-56.08C225,-49.01 225,-38.86 225,-29.99"/>
<polygon fill="midnightblue" stroke="midnightblue" points="228.5,-29.75 225,-19.75 221.5,-29.75 228.5,-29.75"/>
</g>
<!-- Node6&#45;&gt;Node4 -->
<g id="edge6" class="edge">
<title>Node6&#45;&gt;Node4</title>
<path fill="none" stroke="midnightblue" d="M193.27,-112.08C198.64,-104.46 206.51,-93.26 213.07,-83.94"/>
<polygon fill="midnightblue" stroke="midnightblue" points="215.94,-85.94 218.84,-75.75 210.22,-81.91 215.94,-85.94"/>
</g>
<!-- Node7&#45;&gt;Node4 -->
<g id="edge8" class="edge">
<title>Node7&#45;&gt;Node4</title>
<path fill="none" stroke="midnightblue" d="M260.84,-168.49C257.6,-155.97 251.09,-131.94 244,-112 240.76,-102.9 236.64,-92.99 233.06,-84.79"/>
<polygon fill="midnightblue" stroke="midnightblue" points="236.2,-83.22 228.94,-75.51 229.8,-86.07 236.2,-83.22"/>
</g>
<!-- Node7&#45;&gt;Node6 -->
<g id="edge9" class="edge">
<title>Node7&#45;&gt;Node6</title>
<path fill="none" stroke="midnightblue" d="M250.78,-168.32C239.22,-160.11 221.62,-147.6 207.83,-137.81"/>
<polygon fill="midnightblue" stroke="midnightblue" points="209.61,-134.77 199.43,-131.83 205.55,-140.48 209.61,-134.77"/>
</g>
<!-- Node8&#45;&gt;Node4 -->
<g id="edge11" class="edge">
<title>Node8&#45;&gt;Node4</title>
<path fill="none" stroke="midnightblue" d="M320.93,-112.44C302.42,-103.68 273.41,-89.94 252.14,-79.86"/>
<polygon fill="midnightblue" stroke="midnightblue" points="253.51,-76.63 242.97,-75.52 250.51,-82.96 253.51,-76.63"/>
</g>
<!-- Node10&#45;&gt;Node3 -->
<g id="edge15" class="edge">
<title>Node10&#45;&gt;Node3</title>
<path fill="none" stroke="midnightblue" d="M224.07,-336.37C224.24,-318.62 224.61,-277.67 224.83,-253.6"/>
<polygon fill="midnightblue" stroke="midnightblue" points="228.33,-253.62 224.92,-243.59 221.33,-253.56 228.33,-253.62"/>
</g>
<!-- Node11 -->
<g id="node11" class="node">
<title>Node11</title>
<g id="a_node11"><a xlink:title=" ">
<polygon fill="white" stroke="#bfbfbf" points="137.5,-280.5 137.5,-299.5 196.5,-299.5 196.5,-280.5 137.5,-280.5"/>
<text text-anchor="middle" x="167" y="-287.5" font-family="Consolas" font-size="10.00">stdint.h</text>
</a>
</g>
</g>
<!-- Node10&#45;&gt;Node11 -->
<g id="edge14" class="edge">
<title>Node10&#45;&gt;Node11</title>
<path fill="none" stroke="midnightblue" d="M214.84,-336.32C206.49,-328.42 193.96,-316.55 183.82,-306.94"/>
<polygon fill="midnightblue" stroke="midnightblue" points="185.99,-304.17 176.32,-299.83 181.17,-309.25 185.99,-304.17"/>
</g>
<!-- Node12&#45;&gt;Node3 -->
<g id="edge17" class="edge">
<title>Node12&#45;&gt;Node3</title>
<path fill="none" stroke="midnightblue" d="M97.08,-280.44C122.54,-271.4 162.89,-257.06 191.45,-246.92"/>
<polygon fill="midnightblue" stroke="midnightblue" points="192.77,-250.16 201.02,-243.52 190.43,-243.57 192.77,-250.16"/>
</g>
<!-- Node13&#45;&gt;Node12 -->
<g id="edge19" class="edge">
<title>Node13&#45;&gt;Node12</title>
<path fill="none" stroke="midnightblue" d="M70.49,-336.08C70.88,-329.01 71.45,-318.86 71.94,-309.99"/>
<polygon fill="midnightblue" stroke="midnightblue" points="75.45,-309.93 72.51,-299.75 68.46,-309.54 75.45,-309.93"/>
</g>
<!-- Node14&#45;&gt;Node2 -->
<g id="edge21" class="edge">
<title>Node14&#45;&gt;Node2</title>
<path fill="none" stroke="midnightblue" d="M196.05,-392.4C224.91,-382.24 263.44,-368.67 290.85,-359.02"/>
<polygon fill="midnightblue" stroke="midnightblue" points="292.13,-362.28 300.4,-355.66 289.81,-355.68 292.13,-362.28"/>
</g>
<!-- Node14&#45;&gt;Node10 -->
<g id="edge22" class="edge">
<title>Node14&#45;&gt;Node10</title>
<path fill="none" stroke="midnightblue" d="M172.11,-392.4C182.4,-383.4 195.74,-371.72 206.32,-362.47"/>
<polygon fill="midnightblue" stroke="midnightblue" points="208.88,-364.88 214.1,-355.66 204.27,-359.61 208.88,-364.88"/>
</g>
<!-- Node14&#45;&gt;Node12 -->
<g id="edge23" class="edge">
<title>Node14&#45;&gt;Node12</title>
<path fill="none" stroke="midnightblue" d="M155.02,-392.33C153.36,-377.18 148.92,-353.03 137,-336 127.78,-322.84 113.42,-312.23 100.63,-304.63"/>
<polygon fill="midnightblue" stroke="midnightblue" points="102.13,-301.46 91.7,-299.63 98.72,-307.57 102.13,-301.46"/>
</g>
<!-- Node14&#45;&gt;Node13 -->
<g id="edge24" class="edge">
<title>Node14&#45;&gt;Node13</title>
<path fill="none" stroke="midnightblue" d="M135.61,-392.4C122.09,-383.04 104.38,-370.79 90.78,-361.38"/>
<polygon fill="midnightblue" stroke="midnightblue" points="92.72,-358.47 82.51,-355.66 88.74,-364.23 92.72,-358.47"/>
</g>
</g>
</svg>
