<?xml version="1.0" encoding="UTF-8" standalone="no"?>
<!DOCTYPE svg PUBLIC "-//W3C//DTD SVG 1.1//EN"
 "http://www.w3.org/Graphics/SVG/1.1/DTD/svg11.dtd">
<!-- Generated by graphviz version 2.43.0 (0)
 -->
<!-- Title: libccc/math/algebra/interval.h Pages: 1 -->
<svg width="973pt" height="442pt"
 viewBox="0.00 0.00 972.57 442.00" xmlns="http://www.w3.org/2000/svg" xmlns:xlink="http://www.w3.org/1999/xlink">
<g id="graph0" class="graph" transform="scale(1 1) rotate(0) translate(4 438)">
<title>libccc/math/algebra/interval.h</title>
<polygon fill="white" stroke="transparent" points="-4,4 -4,-438 968.57,-438 968.57,4 -4,4"/>
<!-- Node1 -->
<g id="node1" class="node">
<title>Node1</title>
<g id="a_node1"><a xlink:title=" ">
<polygon fill="#bfbfbf" stroke="black" points="771,-403.5 771,-433.5 887,-433.5 887,-403.5 771,-403.5"/>
<text text-anchor="start" x="779" y="-421.5" font-family="Consolas" font-size="10.00">libccc/math/algebra</text>
<text text-anchor="middle" x="829" y="-410.5" font-family="Consolas" font-size="10.00">/interval.h</text>
</a>
</g>
</g>
<!-- Node2 -->
<g id="node2" class="node">
<title>Node2</title>
<g id="a_node2"><a xlink:href="bool_8h.html" target="_top" xlink:title=" ">
<polygon fill="white" stroke="black" points="450.5,-280.5 450.5,-299.5 535.5,-299.5 535.5,-280.5 450.5,-280.5"/>
<text text-anchor="middle" x="493" y="-287.5" font-family="Consolas" font-size="10.00">libccc/bool.h</text>
</a>
</g>
</g>
<!-- Node1&#45;&gt;Node2 -->
<g id="edge1" class="edge">
<title>Node1&#45;&gt;Node2</title>
<path fill="none" stroke="midnightblue" d="M791.76,-403.48C725.42,-378.5 587.91,-326.73 525.31,-303.16"/>
<polygon fill="midnightblue" stroke="midnightblue" points="526.52,-299.88 515.92,-299.63 524.05,-306.43 526.52,-299.88"/>
</g>
<!-- Node11 -->
<g id="node11" class="node">
<title>Node11</title>
<g id="a_node11"><a xlink:href="float_8h.html" target="_top" xlink:title=" ">
<polygon fill="white" stroke="black" points="835,-56.5 835,-75.5 925,-75.5 925,-56.5 835,-56.5"/>
<text text-anchor="middle" x="880" y="-63.5" font-family="Consolas" font-size="10.00">libccc/float.h</text>
</a>
</g>
</g>
<!-- Node1&#45;&gt;Node11 -->
<g id="edge27" class="edge">
<title>Node1&#45;&gt;Node11</title>
<path fill="none" stroke="midnightblue" d="M855.28,-403.38C869.25,-394.62 885.65,-382.15 896,-367 957.2,-277.42 947.19,-239.47 962,-132 963.21,-123.19 966.53,-119.65 962,-112 953.03,-96.84 936.93,-86.45 921.37,-79.5"/>
<polygon fill="midnightblue" stroke="midnightblue" points="922.39,-76.14 911.81,-75.62 919.75,-82.63 922.39,-76.14"/>
</g>
<!-- Node13 -->
<g id="node13" class="node">
<title>Node13</title>
<g id="a_node13"><a xlink:href="int_8h.html" target="_top" xlink:title=" ">
<polygon fill="white" stroke="black" points="17,-56.5 17,-75.5 97,-75.5 97,-56.5 17,-56.5"/>
<text text-anchor="middle" x="57" y="-63.5" font-family="Consolas" font-size="10.00">libccc/int.h</text>
</a>
</g>
</g>
<!-- Node1&#45;&gt;Node13 -->
<g id="edge26" class="edge">
<title>Node1&#45;&gt;Node13</title>
<path fill="none" stroke="midnightblue" d="M770.71,-414.76C582.01,-405.12 0,-369.07 0,-291 0,-291 0,-291 0,-177 0,-140.3 25.32,-103.66 42.21,-83.3"/>
<polygon fill="midnightblue" stroke="midnightblue" points="44.95,-85.48 48.83,-75.62 39.65,-80.9 44.95,-85.48"/>
</g>
<!-- Node17 -->
<g id="node17" class="node">
<title>Node17</title>
<g id="a_node17"><a xlink:href="math_2float_8h.html" target="_top" xlink:title=" ">
<polygon fill="white" stroke="black" points="822,-112.5 822,-131.5 938,-131.5 938,-112.5 822,-112.5"/>
<text text-anchor="middle" x="880" y="-119.5" font-family="Consolas" font-size="10.00">libccc/math/float.h</text>
</a>
</g>
</g>
<!-- Node1&#45;&gt;Node17 -->
<g id="edge28" class="edge">
<title>Node1&#45;&gt;Node17</title>
<path fill="none" stroke="midnightblue" d="M858.69,-403.34C872.74,-394.92 888.14,-382.77 896,-367 934.16,-290.46 902.35,-183.28 887.06,-141.08"/>
<polygon fill="midnightblue" stroke="midnightblue" points="890.3,-139.73 883.51,-131.6 883.74,-142.2 890.3,-139.73"/>
</g>
<!-- Node19 -->
<g id="node19" class="node">
<title>Node19</title>
<g id="a_node19"><a xlink:href="vector_8h.html" target="_top" xlink:title=" ">
<polygon fill="white" stroke="black" points="771,-336.5 771,-366.5 887,-366.5 887,-336.5 771,-336.5"/>
<text text-anchor="start" x="779" y="-354.5" font-family="Consolas" font-size="10.00">libccc/math/algebra</text>
<text text-anchor="middle" x="829" y="-343.5" font-family="Consolas" font-size="10.00">/vector.h</text>
</a>
</g>
</g>
<!-- Node1&#45;&gt;Node19 -->
<g id="edge29" class="edge">
<title>Node1&#45;&gt;Node19</title>
<path fill="none" stroke="midnightblue" d="M829,-403.4C829,-395.64 829,-385.81 829,-376.86"/>
<polygon fill="midnightblue" stroke="midnightblue" points="832.5,-376.58 829,-366.58 825.5,-376.58 832.5,-376.58"/>
</g>
<!-- Node3 -->
<g id="node3" class="node">
<title>Node3</title>
<g id="a_node3"><a xlink:href="libccc_8h.html" target="_top" xlink:title=" ">
<polygon fill="white" stroke="black" points="417.5,-224.5 417.5,-243.5 476.5,-243.5 476.5,-224.5 417.5,-224.5"/>
<text text-anchor="middle" x="447" y="-231.5" font-family="Consolas" font-size="10.00">libccc.h</text>
</a>
</g>
</g>
<!-- Node2&#45;&gt;Node3 -->
<g id="edge2" class="edge">
<title>Node2&#45;&gt;Node3</title>
<path fill="none" stroke="midnightblue" d="M485.4,-280.08C478.77,-272.3 468.98,-260.8 460.94,-251.37"/>
<polygon fill="midnightblue" stroke="midnightblue" points="463.6,-249.09 454.45,-243.75 458.27,-253.63 463.6,-249.09"/>
</g>
<!-- Node18 -->
<g id="node18" class="node">
<title>Node18</title>
<g id="a_node18"><a xlink:title=" ">
<polygon fill="white" stroke="#bfbfbf" points="335,-224.5 335,-243.5 399,-243.5 399,-224.5 335,-224.5"/>
<text text-anchor="middle" x="367" y="-231.5" font-family="Consolas" font-size="10.00">stdbool.h</text>
</a>
</g>
</g>
<!-- Node2&#45;&gt;Node18 -->
<g id="edge25" class="edge">
<title>Node2&#45;&gt;Node18</title>
<path fill="none" stroke="midnightblue" d="M473.03,-280.44C452.39,-271.6 419.94,-257.69 396.37,-247.59"/>
<polygon fill="midnightblue" stroke="midnightblue" points="397.44,-244.24 386.87,-243.52 394.68,-250.67 397.44,-244.24"/>
</g>
<!-- Node4 -->
<g id="node4" class="node">
<title>Node4</title>
<g id="a_node4"><a xlink:href="libccc__define_8h.html" target="_top" xlink:title=" ">
<polygon fill="white" stroke="black" points="243.5,-56.5 243.5,-75.5 338.5,-75.5 338.5,-56.5 243.5,-56.5"/>
<text text-anchor="middle" x="291" y="-63.5" font-family="Consolas" font-size="10.00">libccc_define.h</text>
</a>
</g>
</g>
<!-- Node3&#45;&gt;Node4 -->
<g id="edge3" class="edge">
<title>Node3&#45;&gt;Node4</title>
<path fill="none" stroke="midnightblue" d="M444.72,-224.2C438.69,-202.45 420.35,-145.52 386,-112 370.54,-96.91 349.07,-86.16 330.44,-78.95"/>
<polygon fill="midnightblue" stroke="midnightblue" points="331.61,-75.65 321.01,-75.51 329.2,-82.23 331.61,-75.65"/>
</g>
<!-- Node6 -->
<g id="node6" class="node">
<title>Node6</title>
<g id="a_node6"><a xlink:href="libccc__errors_8h.html" target="_top" xlink:title=" ">
<polygon fill="white" stroke="black" points="104.5,-112.5 104.5,-131.5 199.5,-131.5 199.5,-112.5 104.5,-112.5"/>
<text text-anchor="middle" x="152" y="-119.5" font-family="Consolas" font-size="10.00">libccc_errors.h</text>
</a>
</g>
</g>
<!-- Node3&#45;&gt;Node6 -->
<g id="edge5" class="edge">
<title>Node3&#45;&gt;Node6</title>
<path fill="none" stroke="midnightblue" d="M417.24,-225.89C414.13,-225.22 411,-224.57 408,-224 355.68,-214 211.1,-223.07 171,-188 157.88,-176.53 153.59,-156.55 152.29,-141.76"/>
<polygon fill="midnightblue" stroke="midnightblue" points="155.78,-141.51 151.79,-131.69 148.79,-141.85 155.78,-141.51"/>
</g>
<!-- Node7 -->
<g id="node7" class="node">
<title>Node7</title>
<g id="a_node7"><a xlink:href="libccc__config_8h.html" target="_top" xlink:title=" ">
<polygon fill="white" stroke="black" points="180.5,-168.5 180.5,-187.5 275.5,-187.5 275.5,-168.5 180.5,-168.5"/>
<text text-anchor="middle" x="228" y="-175.5" font-family="Consolas" font-size="10.00">libccc_config.h</text>
</a>
</g>
</g>
<!-- Node3&#45;&gt;Node7 -->
<g id="edge7" class="edge">
<title>Node3&#45;&gt;Node7</title>
<path fill="none" stroke="midnightblue" d="M417.46,-225.72C380.28,-216.55 316.05,-200.71 272.81,-190.05"/>
<polygon fill="midnightblue" stroke="midnightblue" points="273.38,-186.59 262.84,-187.59 271.71,-193.38 273.38,-186.59"/>
</g>
<!-- Node8 -->
<g id="node8" class="node">
<title>Node8</title>
<g id="a_node8"><a xlink:href="libccc__naming_8h.html" target="_top" xlink:title=" ">
<polygon fill="white" stroke="black" points="304.5,-168.5 304.5,-187.5 399.5,-187.5 399.5,-168.5 304.5,-168.5"/>
<text text-anchor="middle" x="352" y="-175.5" font-family="Consolas" font-size="10.00">libccc_naming.h</text>
</a>
</g>
</g>
<!-- Node3&#45;&gt;Node8 -->
<g id="edge10" class="edge">
<title>Node3&#45;&gt;Node8</title>
<path fill="none" stroke="midnightblue" d="M431.74,-224.32C416.78,-215.82 393.75,-202.73 376.27,-192.8"/>
<polygon fill="midnightblue" stroke="midnightblue" points="377.65,-189.55 367.23,-187.65 374.19,-195.64 377.65,-189.55"/>
</g>
<!-- Node9 -->
<g id="node9" class="node">
<title>Node9</title>
<g id="a_node9"><a xlink:href="math_8h.html" target="_top" xlink:title=" ">
<polygon fill="white" stroke="black" points="528,-168.5 528,-187.5 576,-187.5 576,-168.5 528,-168.5"/>
<text text-anchor="middle" x="552" y="-175.5" font-family="Consolas" font-size="10.00">math.h</text>
</a>
</g>
</g>
<!-- Node3&#45;&gt;Node9 -->
<g id="edge12" class="edge">
<title>Node3&#45;&gt;Node9</title>
<path fill="none" stroke="midnightblue" d="M463.87,-224.32C480.71,-215.66 506.81,-202.24 526.24,-192.25"/>
<polygon fill="midnightblue" stroke="midnightblue" points="527.88,-195.34 535.17,-187.65 524.68,-189.12 527.88,-195.34"/>
</g>
<!-- Node5 -->
<g id="node5" class="node">
<title>Node5</title>
<g id="a_node5"><a xlink:title=" ">
<polygon fill="white" stroke="#bfbfbf" points="256.5,-0.5 256.5,-19.5 325.5,-19.5 325.5,-0.5 256.5,-0.5"/>
<text text-anchor="middle" x="291" y="-7.5" font-family="Consolas" font-size="10.00">stdalign.h</text>
</a>
</g>
</g>
<!-- Node4&#45;&gt;Node5 -->
<g id="edge4" class="edge">
<title>Node4&#45;&gt;Node5</title>
<path fill="none" stroke="midnightblue" d="M291,-56.08C291,-49.01 291,-38.86 291,-29.99"/>
<polygon fill="midnightblue" stroke="midnightblue" points="294.5,-29.75 291,-19.75 287.5,-29.75 294.5,-29.75"/>
</g>
<!-- Node6&#45;&gt;Node4 -->
<g id="edge6" class="edge">
<title>Node6&#45;&gt;Node4</title>
<path fill="none" stroke="midnightblue" d="M174.02,-112.44C197.1,-103.48 233.56,-89.31 259.64,-79.18"/>
<polygon fill="midnightblue" stroke="midnightblue" points="261.02,-82.4 269.08,-75.52 258.49,-75.88 261.02,-82.4"/>
</g>
<!-- Node7&#45;&gt;Node4 -->
<g id="edge8" class="edge">
<title>Node7&#45;&gt;Node4</title>
<path fill="none" stroke="midnightblue" d="M229.14,-168.48C231.15,-155.53 236.2,-130.47 247,-112 253.5,-100.88 263.35,-90.46 272.08,-82.45"/>
<polygon fill="midnightblue" stroke="midnightblue" points="274.43,-85.04 279.66,-75.82 269.83,-79.77 274.43,-85.04"/>
</g>
<!-- Node7&#45;&gt;Node6 -->
<g id="edge9" class="edge">
<title>Node7&#45;&gt;Node6</title>
<path fill="none" stroke="midnightblue" d="M215.79,-168.32C204.22,-160.11 186.62,-147.6 172.84,-137.81"/>
<polygon fill="midnightblue" stroke="midnightblue" points="174.61,-134.77 164.43,-131.83 170.56,-140.48 174.61,-134.77"/>
</g>
<!-- Node8&#45;&gt;Node4 -->
<g id="edge11" class="edge">
<title>Node8&#45;&gt;Node4</title>
<path fill="none" stroke="midnightblue" d="M358.55,-168.48C367.64,-155.53 381.8,-130.47 371,-112 362.14,-96.85 346.09,-86.41 330.69,-79.42"/>
<polygon fill="midnightblue" stroke="midnightblue" points="331.83,-76.11 321.25,-75.51 329.15,-82.57 331.83,-76.11"/>
</g>
<!-- Node10 -->
<g id="node10" class="node">
<title>Node10</title>
<g id="a_node10"><a xlink:href="constants_8h.html" target="_top" xlink:title=" ">
<polygon fill="white" stroke="black" points="628.5,-112.5 628.5,-131.5 765.5,-131.5 765.5,-112.5 628.5,-112.5"/>
<text text-anchor="middle" x="697" y="-119.5" font-family="Consolas" font-size="10.00">libccc/math/constants.h</text>
</a>
</g>
</g>
<!-- Node9&#45;&gt;Node10 -->
<g id="edge13" class="edge">
<title>Node9&#45;&gt;Node10</title>
<path fill="none" stroke="midnightblue" d="M574.98,-168.44C599.16,-159.44 637.42,-145.19 664.65,-135.05"/>
<polygon fill="midnightblue" stroke="midnightblue" points="665.98,-138.29 674.13,-131.52 663.54,-131.73 665.98,-138.29"/>
</g>
<!-- Node12 -->
<g id="node12" class="node">
<title>Node12</title>
<g id="a_node12"><a xlink:href="math_2int_8h.html" target="_top" xlink:title=" ">
<polygon fill="white" stroke="black" points="256,-112.5 256,-131.5 362,-131.5 362,-112.5 256,-112.5"/>
<text text-anchor="middle" x="309" y="-119.5" font-family="Consolas" font-size="10.00">libccc/math/int.h</text>
</a>
</g>
</g>
<!-- Node9&#45;&gt;Node12 -->
<g id="edge16" class="edge">
<title>Node9&#45;&gt;Node12</title>
<path fill="none" stroke="midnightblue" d="M527.81,-171.62C488.2,-162.82 408.75,-145.17 357.27,-133.73"/>
<polygon fill="midnightblue" stroke="midnightblue" points="357.89,-130.28 347.37,-131.53 356.37,-137.11 357.89,-130.28"/>
</g>
<!-- Node15 -->
<g id="node15" class="node">
<title>Node15</title>
<g id="a_node15"><a xlink:href="math_2fixed_8h.html" target="_top" xlink:title=" ">
<polygon fill="white" stroke="black" points="494,-112.5 494,-131.5 610,-131.5 610,-112.5 494,-112.5"/>
<text text-anchor="middle" x="552" y="-119.5" font-family="Consolas" font-size="10.00">libccc/math/fixed.h</text>
</a>
</g>
</g>
<!-- Node9&#45;&gt;Node15 -->
<g id="edge20" class="edge">
<title>Node9&#45;&gt;Node15</title>
<path fill="none" stroke="midnightblue" d="M552,-168.08C552,-161.01 552,-150.86 552,-141.99"/>
<polygon fill="midnightblue" stroke="midnightblue" points="555.5,-141.75 552,-131.75 548.5,-141.75 555.5,-141.75"/>
</g>
<!-- Node9&#45;&gt;Node17 -->
<g id="edge23" class="edge">
<title>Node9&#45;&gt;Node17</title>
<path fill="none" stroke="midnightblue" d="M576.12,-173.03C626.63,-164.71 744.92,-145.24 818.12,-133.19"/>
<polygon fill="midnightblue" stroke="midnightblue" points="818.84,-136.62 828.14,-131.54 817.7,-129.71 818.84,-136.62"/>
</g>
<!-- Node10&#45;&gt;Node11 -->
<g id="edge14" class="edge">
<title>Node10&#45;&gt;Node11</title>
<path fill="none" stroke="midnightblue" d="M726,-112.44C757.18,-103.24 806.93,-88.56 841.41,-78.39"/>
<polygon fill="midnightblue" stroke="midnightblue" points="842.54,-81.7 851.14,-75.52 840.56,-74.99 842.54,-81.7"/>
</g>
<!-- Node11&#45;&gt;Node3 -->
<g id="edge15" class="edge">
<title>Node11&#45;&gt;Node3</title>
<path fill="none" stroke="midnightblue" d="M868.28,-75.66C849.45,-89.24 810.91,-115.68 775,-132 675.31,-177.3 549.73,-209.61 486.79,-224.23"/>
<polygon fill="midnightblue" stroke="midnightblue" points="485.84,-220.86 476.88,-226.51 487.41,-227.68 485.84,-220.86"/>
</g>
<!-- Node12&#45;&gt;Node13 -->
<g id="edge17" class="edge">
<title>Node12&#45;&gt;Node13</title>
<path fill="none" stroke="midnightblue" d="M269.07,-112.44C225.11,-103.02 154.37,-87.87 106.82,-77.68"/>
<polygon fill="midnightblue" stroke="midnightblue" points="107.25,-74.19 96.74,-75.52 105.79,-81.03 107.25,-74.19"/>
</g>
<!-- Node13&#45;&gt;Node3 -->
<g id="edge19" class="edge">
<title>Node13&#45;&gt;Node3</title>
<path fill="none" stroke="midnightblue" d="M60.69,-75.61C71.28,-99.02 104.28,-163.74 155,-188 254.56,-235.62 294.09,-205.06 407.17,-224.07"/>
<polygon fill="midnightblue" stroke="midnightblue" points="406.79,-227.55 417.24,-225.86 408.01,-220.66 406.79,-227.55"/>
</g>
<!-- Node14 -->
<g id="node14" class="node">
<title>Node14</title>
<g id="a_node14"><a xlink:title=" ">
<polygon fill="white" stroke="#bfbfbf" points="27.5,-0.5 27.5,-19.5 86.5,-19.5 86.5,-0.5 27.5,-0.5"/>
<text text-anchor="middle" x="57" y="-7.5" font-family="Consolas" font-size="10.00">stdint.h</text>
</a>
</g>
</g>
<!-- Node13&#45;&gt;Node14 -->
<g id="edge18" class="edge">
<title>Node13&#45;&gt;Node14</title>
<path fill="none" stroke="midnightblue" d="M57,-56.08C57,-49.01 57,-38.86 57,-29.99"/>
<polygon fill="midnightblue" stroke="midnightblue" points="60.5,-29.75 57,-19.75 53.5,-29.75 60.5,-29.75"/>
</g>
<!-- Node16 -->
<g id="node16" class="node">
<title>Node16</title>
<g id="a_node16"><a xlink:href="fixed_8h.html" target="_top" xlink:title=" ">
<polygon fill="white" stroke="black" points="464,-56.5 464,-75.5 554,-75.5 554,-56.5 464,-56.5"/>
<text text-anchor="middle" x="509" y="-63.5" font-family="Consolas" font-size="10.00">libccc/fixed.h</text>
</a>
</g>
</g>
<!-- Node15&#45;&gt;Node16 -->
<g id="edge21" class="edge">
<title>Node15&#45;&gt;Node16</title>
<path fill="none" stroke="midnightblue" d="M544.9,-112.08C538.76,-104.38 529.73,-93.03 522.26,-83.65"/>
<polygon fill="midnightblue" stroke="midnightblue" points="524.94,-81.39 515.97,-75.75 519.46,-85.75 524.94,-81.39"/>
</g>
<!-- Node16&#45;&gt;Node3 -->
<g id="edge22" class="edge">
<title>Node16&#45;&gt;Node3</title>
<path fill="none" stroke="midnightblue" d="M503.72,-75.73C498.48,-84.62 490.48,-98.94 485,-112 470.22,-147.23 458.02,-190.29 451.69,-214.38"/>
<polygon fill="midnightblue" stroke="midnightblue" points="448.24,-213.74 449.14,-224.3 455.02,-215.48 448.24,-213.74"/>
</g>
<!-- Node17&#45;&gt;Node11 -->
<g id="edge24" class="edge">
<title>Node17&#45;&gt;Node11</title>
<path fill="none" stroke="midnightblue" d="M880,-112.08C880,-105.01 880,-94.86 880,-85.99"/>
<polygon fill="midnightblue" stroke="midnightblue" points="883.5,-85.75 880,-75.75 876.5,-85.75 883.5,-85.75"/>
</g>
<!-- Node19&#45;&gt;Node2 -->
<g id="edge30" class="edge">
<title>Node19&#45;&gt;Node2</title>
<path fill="none" stroke="midnightblue" d="M770.86,-340.2C707.47,-328.98 606.93,-311.17 545.75,-300.34"/>
<polygon fill="midnightblue" stroke="midnightblue" points="546,-296.83 535.54,-298.53 544.78,-303.72 546,-296.83"/>
</g>
<!-- Node19&#45;&gt;Node11 -->
<g id="edge32" class="edge">
<title>Node19&#45;&gt;Node11</title>
<path fill="none" stroke="midnightblue" d="M840.06,-336.21C865.13,-302.8 925.76,-216.01 947,-132 949.18,-123.38 951.18,-119.84 947,-112 939.45,-97.83 925.24,-87.33 911.84,-80.06"/>
<polygon fill="midnightblue" stroke="midnightblue" points="913.3,-76.87 902.79,-75.53 910.17,-83.13 913.3,-76.87"/>
</g>
<!-- Node19&#45;&gt;Node13 -->
<g id="edge31" class="edge">
<title>Node19&#45;&gt;Node13</title>
<path fill="none" stroke="midnightblue" d="M770.84,-348.13C588.16,-339.93 38,-309.08 38,-235 38,-235 38,-235 38,-177 38,-144.49 46.16,-107.35 51.78,-85.61"/>
<polygon fill="midnightblue" stroke="midnightblue" points="55.22,-86.32 54.44,-75.75 48.46,-84.5 55.22,-86.32"/>
</g>
<!-- Node19&#45;&gt;Node17 -->
<g id="edge33" class="edge">
<title>Node19&#45;&gt;Node17</title>
<path fill="none" stroke="midnightblue" d="M832.19,-336.27C841.02,-296.89 865.77,-186.49 875.75,-141.97"/>
<polygon fill="midnightblue" stroke="midnightblue" points="879.23,-142.45 878,-131.93 872.4,-140.92 879.23,-142.45"/>
</g>
</g>
</svg>
