<?xml version="1.0" encoding="UTF-8" standalone="no"?>
<!DOCTYPE svg PUBLIC "-//W3C//DTD SVG 1.1//EN"
 "http://www.w3.org/Graphics/SVG/1.1/DTD/svg11.dtd">
<!-- Generated by graphviz version 2.49.3 (20211023.0002)
 -->
<!-- Title: libccc/math/algebra/interval.h Pages: 1 -->
<!--zoomable 498 -->
<svg id="main" version="1.1" xmlns="http://www.w3.org/2000/svg" xmlns:xlink="http://www.w3.org/1999/xlink" xml:space="preserve" onload="init(evt)">
<style type="text/css"><![CDATA[
.edge:hover path { stroke: red; }
.edge:hover polygon { stroke: red; fill: red; }
]]></style>
<script type="text/javascript"><![CDATA[
var edges = document.getElementsByTagName('g');
if (edges && edges.length) {
  for (var i=0;i<edges.length;i++) {
    if (edges[i].id.substr(0,4)=='edge') {
      edges[i].setAttribute('class','edge');
    }
  }
}
]]></script>
        <defs>
                <circle id="rim" cx="0" cy="0" r="7"/>
                <circle id="rim2" cx="0" cy="0" r="3.5"/>
                <g id="zoomPlus">
                        <use xlink:href="#rim" fill="#404040">
                                <set attributeName="fill" to="#808080" begin="zoomplus.mouseover" end="zoomplus.mouseout"/>
                        </use>
                        <path d="M-4,0h8M0,-4v8" fill="none" stroke="white" stroke-width="1.5" pointer-events="none"/>
                </g>
                <g id="zoomMin">
                        <use xlink:href="#rim" fill="#404040">
                                <set attributeName="fill" to="#808080" begin="zoomminus.mouseover" end="zoomminus.mouseout"/>
                        </use>
                        <path d="M-4,0h8" fill="none" stroke="white" stroke-width="1.5" pointer-events="none"/>
                </g>
                <g id="dirArrow">
                        <path fill="none" stroke="white" stroke-width="1.5" d="M0,-3.0v7 M-2.5,-0.5L0,-3.0L2.5,-0.5"/>
                </g>
               <g id="resetDef">
                       <use xlink:href="#rim2" fill="#404040">
                               <set attributeName="fill" to="#808080" begin="reset.mouseover" end="reset.mouseout"/>
                       </use>
               </g>
        </defs>

<script type="text/javascript">
var viewWidth = 356;
var viewHeight = 498;
var sectionId = 'dynsection-0';
</script>
<script xlink:href="svgpan.js"/>
<svg id="graph" class="graph">
<g id="viewport">
<title>libccc/math/algebra/interval.h</title>
<polygon fill="white" stroke="transparent" points="-4,4 -4,-494 352.3,-494 352.3,4 -4,4"/>
<!-- Node1 -->
<g id="node1" class="node">
<title>Node1</title>
<g id="a_node1"><a xlink:title=" ">
<polygon fill="#bfbfbf" stroke="black" points="88.3,-459.5 88.3,-489.5 189.3,-489.5 189.3,-459.5 88.3,-459.5"/>
<text text-anchor="start" x="96.3" y="-477.5" font-family="Consolas" font-size="10.00">libccc/math/algebra</text>
<text text-anchor="middle" x="138.8" y="-466.5" font-family="Consolas" font-size="10.00">/interval.h</text>
</a>
</g>
</g>
<!-- Node2 -->
<g id="node2" class="node">
<title>Node2</title>
<g id="a_node2"><a xlink:href="bool_8h.html" target="_top" xlink:title=" ">
<polygon fill="white" stroke="black" points="248.3,-336.5 248.3,-355.5 319.3,-355.5 319.3,-336.5 248.3,-336.5"/>
<text text-anchor="middle" x="283.8" y="-343.5" font-family="Consolas" font-size="10.00">libccc/bool.h</text>
</a>
</g>
</g>
<!-- Node1&#45;&gt;Node2 -->
<g id="edge1" class="edge">
<title>Node1&#45;&gt;Node2</title>
<path fill="none" stroke="midnightblue" d="M163.88,-459.33C179.53,-449.96 199.68,-436.87 215.8,-423 237.08,-404.68 258.1,-379.88 271.01,-363.67"/>
<polygon fill="midnightblue" stroke="midnightblue" points="273.88,-365.67 277.29,-355.64 268.37,-361.36 273.88,-365.67"/>
</g>
<!-- Node10 -->
<g id="node10" class="node">
<title>Node10</title>
<g id="a_node10"><a xlink:href="int_8h.html" target="_top" xlink:title=" ">
<polygon fill="white" stroke="black" points="165.8,-336.5 165.8,-355.5 229.8,-355.5 229.8,-336.5 165.8,-336.5"/>
<text text-anchor="middle" x="197.8" y="-343.5" font-family="Consolas" font-size="10.00">libccc/int.h</text>
</a>
</g>
</g>
<!-- Node1&#45;&gt;Node10 -->
<g id="edge13" class="edge">
<title>Node1&#45;&gt;Node10</title>
<path fill="none" stroke="midnightblue" d="M164.21,-459.48C177.14,-450.83 191.62,-438.43 198.8,-423 207.13,-405.09 205.38,-382.15 202.48,-366.17"/>
<polygon fill="midnightblue" stroke="midnightblue" points="205.81,-365 200.3,-355.95 198.97,-366.46 205.81,-365"/>
</g>
<!-- Node12 -->
<g id="node12" class="node">
<title>Node12</title>
<g id="a_node12"><a xlink:href="float_8h.html" target="_top" xlink:title=" ">
<polygon fill="white" stroke="black" points="27.8,-280.5 27.8,-299.5 99.8,-299.5 99.8,-280.5 27.8,-280.5"/>
<text text-anchor="middle" x="63.8" y="-287.5" font-family="Consolas" font-size="10.00">libccc/float.h</text>
</a>
</g>
</g>
<!-- Node1&#45;&gt;Node12 -->
<g id="edge16" class="edge">
<title>Node1&#45;&gt;Node12</title>
<path fill="none" stroke="midnightblue" d="M109.48,-459.4C75.5,-441.1 21.74,-405.55 2.8,-356 -0.38,-347.7 -1.21,-343.93 2.8,-336 9.6,-322.52 22.56,-312.08 34.79,-304.67"/>
<polygon fill="midnightblue" stroke="midnightblue" points="36.87,-307.52 43.89,-299.59 33.45,-301.41 36.87,-307.52"/>
</g>
<!-- Node13 -->
<g id="node13" class="node">
<title>Node13</title>
<g id="a_node13"><a xlink:href="math_2float_8h.html" target="_top" xlink:title=" ">
<polygon fill="white" stroke="black" points="12.3,-336.5 12.3,-355.5 109.3,-355.5 109.3,-336.5 12.3,-336.5"/>
<text text-anchor="middle" x="60.8" y="-343.5" font-family="Consolas" font-size="10.00">libccc/math/float.h</text>
</a>
</g>
</g>
<!-- Node1&#45;&gt;Node13 -->
<g id="edge18" class="edge">
<title>Node1&#45;&gt;Node13</title>
<path fill="none" stroke="midnightblue" d="M116.4,-459.47C103.86,-450.5 88.95,-437.79 79.8,-423 68.97,-405.5 64.31,-382.14 62.3,-365.96"/>
<polygon fill="midnightblue" stroke="midnightblue" points="65.74,-365.23 61.26,-355.64 58.78,-365.94 65.74,-365.23"/>
</g>
<!-- Node14 -->
<g id="node14" class="node">
<title>Node14</title>
<g id="a_node14"><a xlink:href="vector_8h.html" target="_top" xlink:title=" ">
<polygon fill="white" stroke="black" points="88.3,-392.5 88.3,-422.5 189.3,-422.5 189.3,-392.5 88.3,-392.5"/>
<text text-anchor="start" x="96.3" y="-410.5" font-family="Consolas" font-size="10.00">libccc/math/algebra</text>
<text text-anchor="middle" x="138.8" y="-399.5" font-family="Consolas" font-size="10.00">/vector.h</text>
</a>
</g>
</g>
<!-- Node1&#45;&gt;Node14 -->
<g id="edge20" class="edge">
<title>Node1&#45;&gt;Node14</title>
<path fill="none" stroke="midnightblue" d="M138.8,-459.4C138.8,-451.64 138.8,-441.81 138.8,-432.86"/>
<polygon fill="midnightblue" stroke="midnightblue" points="142.3,-432.58 138.8,-422.58 135.3,-432.58 142.3,-432.58"/>
</g>
<!-- Node3 -->
<g id="node3" class="node">
<title>Node3</title>
<g id="a_node3"><a xlink:href="libccc_8h.html" target="_top" xlink:title=" ">
<polygon fill="white" stroke="black" points="172.8,-224.5 172.8,-243.5 222.8,-243.5 222.8,-224.5 172.8,-224.5"/>
<text text-anchor="middle" x="197.8" y="-231.5" font-family="Consolas" font-size="10.00">libccc.h</text>
</a>
</g>
</g>
<!-- Node2&#45;&gt;Node3 -->
<g id="edge2" class="edge">
<title>Node2&#45;&gt;Node3</title>
<path fill="none" stroke="midnightblue" d="M277.05,-336.37C262.79,-318.14 229.4,-275.43 210.83,-251.68"/>
<polygon fill="midnightblue" stroke="midnightblue" points="213.43,-249.31 204.51,-243.59 207.92,-253.63 213.43,-249.31"/>
</g>
<!-- Node9 -->
<g id="node9" class="node">
<title>Node9</title>
<g id="a_node9"><a xlink:title=" ">
<polygon fill="white" stroke="#bfbfbf" points="263.8,-280.5 263.8,-299.5 319.8,-299.5 319.8,-280.5 263.8,-280.5"/>
<text text-anchor="middle" x="291.8" y="-287.5" font-family="Consolas" font-size="10.00">stdbool.h</text>
</a>
</g>
</g>
<!-- Node2&#45;&gt;Node9 -->
<g id="edge12" class="edge">
<title>Node2&#45;&gt;Node9</title>
<path fill="none" stroke="midnightblue" d="M285.12,-336.08C286.18,-328.93 287.7,-318.64 289.03,-309.69"/>
<polygon fill="midnightblue" stroke="midnightblue" points="292.5,-310.16 290.5,-299.75 285.57,-309.13 292.5,-310.16"/>
</g>
<!-- Node4 -->
<g id="node4" class="node">
<title>Node4</title>
<g id="a_node4"><a xlink:href="libccc__define_8h.html" target="_top" xlink:title=" ">
<polygon fill="white" stroke="black" points="157.8,-56.5 157.8,-75.5 239.8,-75.5 239.8,-56.5 157.8,-56.5"/>
<text text-anchor="middle" x="198.8" y="-63.5" font-family="Consolas" font-size="10.00">libccc_define.h</text>
</a>
</g>
</g>
<!-- Node3&#45;&gt;Node4 -->
<g id="edge3" class="edge">
<title>Node3&#45;&gt;Node4</title>
<path fill="none" stroke="midnightblue" d="M184.02,-224.42C154.49,-204.93 89.83,-155.61 115.8,-112 124.89,-96.72 141.19,-86.31 156.94,-79.39"/>
<polygon fill="midnightblue" stroke="midnightblue" points="158.63,-82.48 166.61,-75.51 156.03,-75.98 158.63,-82.48"/>
</g>
<!-- Node6 -->
<g id="node6" class="node">
<title>Node6</title>
<g id="a_node6"><a xlink:href="libccc__errors_8h.html" target="_top" xlink:title=" ">
<polygon fill="white" stroke="black" points="124.8,-112.5 124.8,-131.5 204.8,-131.5 204.8,-112.5 124.8,-112.5"/>
<text text-anchor="middle" x="164.8" y="-119.5" font-family="Consolas" font-size="10.00">libccc_errors.h</text>
</a>
</g>
</g>
<!-- Node3&#45;&gt;Node6 -->
<g id="edge5" class="edge">
<title>Node3&#45;&gt;Node6</title>
<path fill="none" stroke="midnightblue" d="M194.79,-224.42C191.66,-215.39 186.69,-200.76 182.8,-188 178.05,-172.42 173.15,-154.59 169.66,-141.55"/>
<polygon fill="midnightblue" stroke="midnightblue" points="173.04,-140.64 167.1,-131.87 166.28,-142.44 173.04,-140.64"/>
</g>
<!-- Node7 -->
<g id="node7" class="node">
<title>Node7</title>
<g id="a_node7"><a xlink:href="libccc__config_8h.html" target="_top" xlink:title=" ">
<polygon fill="white" stroke="black" points="191.8,-168.5 191.8,-187.5 273.8,-187.5 273.8,-168.5 191.8,-168.5"/>
<text text-anchor="middle" x="232.8" y="-175.5" font-family="Consolas" font-size="10.00">libccc_config.h</text>
</a>
</g>
</g>
<!-- Node3&#45;&gt;Node7 -->
<g id="edge7" class="edge">
<title>Node3&#45;&gt;Node7</title>
<path fill="none" stroke="midnightblue" d="M203.58,-224.08C208.47,-216.53 215.62,-205.49 221.63,-196.23"/>
<polygon fill="midnightblue" stroke="midnightblue" points="224.62,-198.05 227.12,-187.75 218.75,-194.24 224.62,-198.05"/>
</g>
<!-- Node8 -->
<g id="node8" class="node">
<title>Node8</title>
<g id="a_node8"><a xlink:href="libccc__naming_8h.html" target="_top" xlink:title=" ">
<polygon fill="white" stroke="black" points="261.3,-112.5 261.3,-131.5 348.3,-131.5 348.3,-112.5 261.3,-112.5"/>
<text text-anchor="middle" x="304.8" y="-119.5" font-family="Consolas" font-size="10.00">libccc_naming.h</text>
</a>
</g>
</g>
<!-- Node3&#45;&gt;Node8 -->
<g id="edge10" class="edge">
<title>Node3&#45;&gt;Node8</title>
<path fill="none" stroke="midnightblue" d="M223.03,-225.36C241.92,-218.43 267.1,-206.44 282.8,-188 294.01,-174.83 299.58,-155.69 302.3,-141.59"/>
<polygon fill="midnightblue" stroke="midnightblue" points="305.78,-142 303.93,-131.57 298.87,-140.88 305.78,-142"/>
</g>
<!-- Node5 -->
<g id="node5" class="node">
<title>Node5</title>
<g id="a_node5"><a xlink:title=" ">
<polygon fill="white" stroke="#bfbfbf" points="169.3,-0.5 169.3,-19.5 228.3,-19.5 228.3,-0.5 169.3,-0.5"/>
<text text-anchor="middle" x="198.8" y="-7.5" font-family="Consolas" font-size="10.00">stdalign.h</text>
</a>
</g>
</g>
<!-- Node4&#45;&gt;Node5 -->
<g id="edge4" class="edge">
<title>Node4&#45;&gt;Node5</title>
<path fill="none" stroke="midnightblue" d="M198.8,-56.08C198.8,-49.01 198.8,-38.86 198.8,-29.99"/>
<polygon fill="midnightblue" stroke="midnightblue" points="202.3,-29.75 198.8,-19.75 195.3,-29.75 202.3,-29.75"/>
</g>
<!-- Node6&#45;&gt;Node4 -->
<g id="edge6" class="edge">
<title>Node6&#45;&gt;Node4</title>
<path fill="none" stroke="midnightblue" d="M170.41,-112.08C175.16,-104.53 182.11,-93.49 187.95,-84.23"/>
<polygon fill="midnightblue" stroke="midnightblue" points="190.92,-86.08 193.29,-75.75 185,-82.35 190.92,-86.08"/>
</g>
<!-- Node7&#45;&gt;Node4 -->
<g id="edge8" class="edge">
<title>Node7&#45;&gt;Node4</title>
<path fill="none" stroke="midnightblue" d="M230.32,-168.14C226.79,-155.6 220.04,-131.97 213.8,-112 211.03,-103.15 207.79,-93.37 205.04,-85.2"/>
<polygon fill="midnightblue" stroke="midnightblue" points="208.3,-83.94 201.77,-75.6 201.68,-86.19 208.3,-83.94"/>
</g>
<!-- Node7&#45;&gt;Node6 -->
<g id="edge9" class="edge">
<title>Node7&#45;&gt;Node6</title>
<path fill="none" stroke="midnightblue" d="M221.87,-168.32C211.62,-160.18 196.08,-147.84 183.8,-138.09"/>
<polygon fill="midnightblue" stroke="midnightblue" points="185.93,-135.31 175.92,-131.83 181.58,-140.79 185.93,-135.31"/>
</g>
<!-- Node8&#45;&gt;Node4 -->
<g id="edge11" class="edge">
<title>Node8&#45;&gt;Node4</title>
<path fill="none" stroke="midnightblue" d="M287.77,-112.32C270.77,-103.66 244.42,-90.24 224.8,-80.25"/>
<polygon fill="midnightblue" stroke="midnightblue" points="226.28,-77.08 215.79,-75.65 223.11,-83.31 226.28,-77.08"/>
</g>
<!-- Node10&#45;&gt;Node3 -->
<g id="edge15" class="edge">
<title>Node10&#45;&gt;Node3</title>
<path fill="none" stroke="midnightblue" d="M197.8,-336.37C197.8,-318.62 197.8,-277.67 197.8,-253.6"/>
<polygon fill="midnightblue" stroke="midnightblue" points="201.3,-253.59 197.8,-243.59 194.3,-253.59 201.3,-253.59"/>
</g>
<!-- Node11 -->
<g id="node11" class="node">
<title>Node11</title>
<g id="a_node11"><a xlink:title=" ">
<polygon fill="white" stroke="#bfbfbf" points="120.3,-280.5 120.3,-299.5 169.3,-299.5 169.3,-280.5 120.3,-280.5"/>
<text text-anchor="middle" x="144.8" y="-287.5" font-family="Consolas" font-size="10.00">stdint.h</text>
</a>
</g>
</g>
<!-- Node10&#45;&gt;Node11 -->
<g id="edge14" class="edge">
<title>Node10&#45;&gt;Node11</title>
<path fill="none" stroke="midnightblue" d="M189.05,-336.08C181.33,-328.22 169.89,-316.57 160.58,-307.08"/>
<polygon fill="midnightblue" stroke="midnightblue" points="162.89,-304.44 153.39,-299.75 157.89,-309.34 162.89,-304.44"/>
</g>
<!-- Node12&#45;&gt;Node3 -->
<g id="edge17" class="edge">
<title>Node12&#45;&gt;Node3</title>
<path fill="none" stroke="midnightblue" d="M85.03,-280.44C107.18,-271.52 142.12,-257.44 167.23,-247.32"/>
<polygon fill="midnightblue" stroke="midnightblue" points="168.7,-250.5 176.66,-243.52 166.08,-244.01 168.7,-250.5"/>
</g>
<!-- Node13&#45;&gt;Node12 -->
<g id="edge19" class="edge">
<title>Node13&#45;&gt;Node12</title>
<path fill="none" stroke="midnightblue" d="M61.29,-336.08C61.69,-329.01 62.25,-318.86 62.74,-309.99"/>
<polygon fill="midnightblue" stroke="midnightblue" points="66.25,-309.93 63.31,-299.75 59.26,-309.54 66.25,-309.93"/>
</g>
<!-- Node14&#45;&gt;Node2 -->
<g id="edge21" class="edge">
<title>Node14&#45;&gt;Node2</title>
<path fill="none" stroke="midnightblue" d="M173.16,-392.4C197.49,-382.42 229.83,-369.15 253.25,-359.53"/>
<polygon fill="midnightblue" stroke="midnightblue" points="254.78,-362.69 262.7,-355.66 252.12,-356.22 254.78,-362.69"/>
</g>
<!-- Node14&#45;&gt;Node10 -->
<g id="edge22" class="edge">
<title>Node14&#45;&gt;Node10</title>
<path fill="none" stroke="midnightblue" d="M152.78,-392.4C161.53,-383.58 172.83,-372.18 181.91,-363.02"/>
<polygon fill="midnightblue" stroke="midnightblue" points="184.66,-365.22 189.21,-355.66 179.69,-360.29 184.66,-365.22"/>
</g>
<!-- Node14&#45;&gt;Node12 -->
<g id="edge23" class="edge">
<title>Node14&#45;&gt;Node12</title>
<path fill="none" stroke="midnightblue" d="M137.34,-392.49C135.23,-377.47 130.24,-353.44 118.8,-336 110.73,-323.71 98.26,-313.11 87.23,-305.29"/>
<polygon fill="midnightblue" stroke="midnightblue" points="89.06,-302.31 78.81,-299.64 85.16,-308.12 89.06,-302.31"/>
</g>
<!-- Node14&#45;&gt;Node13 -->
<g id="edge24" class="edge">
<title>Node14&#45;&gt;Node13</title>
<path fill="none" stroke="midnightblue" d="M120.31,-392.4C108.28,-383.22 92.6,-371.26 80.35,-361.92"/>
<polygon fill="midnightblue" stroke="midnightblue" points="82.22,-358.94 72.15,-355.66 77.97,-364.51 82.22,-358.94"/>
</g>
</g>
</svg>
        <g id="navigator" transform="translate(0 0)" fill="#404254">
                <rect fill="#f2f5e9" fill-opacity="0.5" stroke="#606060" stroke-width=".5" x="0" y="0" width="60" height="60"/>
                <use id="zoomplus" xlink:href="#zoomPlus" x="17" y="9" onmousedown="handleZoom(evt,'in')"/>
                <use id="zoomminus" xlink:href="#zoomMin" x="42" y="9" onmousedown="handleZoom(evt,'out')"/>
                <use id="reset" xlink:href="#resetDef" x="30" y="36" onmousedown="handleReset()"/>
                <g id="arrowUp" xlink:href="#dirArrow" transform="translate(30 24)" onmousedown="handlePan(0,-1)">
                  <use xlink:href="#rim" fill="#404040">
                        <set attributeName="fill" to="#808080" begin="arrowUp.mouseover" end="arrowUp.mouseout"/>
                  </use>
                  <path fill="none" stroke="white" stroke-width="1.5" d="M0,-3.0v7 M-2.5,-0.5L0,-3.0L2.5,-0.5"/>
                </g>
                <g id="arrowRight" xlink:href="#dirArrow" transform="rotate(90) translate(36 -43)" onmousedown="handlePan(1,0)">
                  <use xlink:href="#rim" fill="#404040">
                        <set attributeName="fill" to="#808080" begin="arrowRight.mouseover" end="arrowRight.mouseout"/>
                  </use>
                  <path fill="none" stroke="white" stroke-width="1.5" d="M0,-3.0v7 M-2.5,-0.5L0,-3.0L2.5,-0.5"/>
                </g>
                <g id="arrowDown" xlink:href="#dirArrow" transform="rotate(180) translate(-30 -48)" onmousedown="handlePan(0,1)">
                  <use xlink:href="#rim" fill="#404040">
                        <set attributeName="fill" to="#808080" begin="arrowDown.mouseover" end="arrowDown.mouseout"/>
                  </use>
                  <path fill="none" stroke="white" stroke-width="1.5" d="M0,-3.0v7 M-2.5,-0.5L0,-3.0L2.5,-0.5"/>
                </g>
                <g id="arrowLeft" xlink:href="#dirArrow" transform="rotate(270) translate(-36 17)" onmousedown="handlePan(-1,0)">
                  <use xlink:href="#rim" fill="#404040">
                        <set attributeName="fill" to="#808080" begin="arrowLeft.mouseover" end="arrowLeft.mouseout"/>
                  </use>
                  <path fill="none" stroke="white" stroke-width="1.5" d="M0,-3.0v7 M-2.5,-0.5L0,-3.0L2.5,-0.5"/>
                </g>
        </g>
        <svg viewBox="0 0 15 15" width="100%" height="30px" preserveAspectRatio="xMaxYMin meet">
         <g id="arrow_out" transform="scale(0.3 0.3)">
          <a xlink:href="interval_8h__incl_org.svg" target="_base">
           <rect id="button" ry="5" rx="5" y="6" x="6" height="38" width="38"
                fill="#f2f5e9" fill-opacity="0.5" stroke="#606060" stroke-width="1.0"/>
           <path id="arrow"
             d="M 11.500037,31.436501 C 11.940474,20.09759 22.043105,11.32322 32.158766,21.979434 L 37.068811,17.246167 C 37.068811,17.246167 37.088388,32 37.088388,32 L 22.160133,31.978069 C 22.160133,31.978069 26.997745,27.140456 26.997745,27.140456 C 18.528582,18.264221 13.291696,25.230495 11.500037,31.436501 z"
             style="fill:#404040;"/>
          </a>
         </g>
        </svg>
</svg>
