<?xml version="1.0" encoding="UTF-8" standalone="no"?>
<!DOCTYPE svg PUBLIC "-//W3C//DTD SVG 1.1//EN"
 "http://www.w3.org/Graphics/SVG/1.1/DTD/svg11.dtd">
<!-- Generated by graphviz version 2.49.3 (20211023.0002)
 -->
<!-- Title: hdr/libccc/sys/io.h Pages: 1 -->
<svg width="752pt" height="364pt"
 viewBox="0.00 0.00 752.05 364.00" xmlns="http://www.w3.org/2000/svg" xmlns:xlink="http://www.w3.org/1999/xlink">
<g id="graph0" class="graph" transform="scale(1 1) rotate(0) translate(4 360)">
<title>hdr/libccc/sys/io.h</title>
<polygon fill="white" stroke="transparent" points="-4,4 -4,-360 748.05,-360 748.05,4 -4,4"/>
<!-- Node1 -->
<g id="node1" class="node">
<title>Node1</title>
<g id="a_node1"><a xlink:title=" ">
<polygon fill="#bfbfbf" stroke="black" points="234.12,-336.5 234.12,-355.5 330.12,-355.5 330.12,-336.5 234.12,-336.5"/>
<text text-anchor="middle" x="282.12" y="-343.5" font-family="Consolas" font-size="10.00">hdr/libccc/sys/io.h</text>
</a>
</g>
</g>
<!-- Node2 -->
<g id="node2" class="node">
<title>Node2</title>
<g id="a_node2"><a xlink:title=" ">
<polygon fill="white" stroke="#bfbfbf" points="191.12,-280.5 191.12,-299.5 235.12,-299.5 235.12,-280.5 191.12,-280.5"/>
<text text-anchor="middle" x="213.12" y="-287.5" font-family="Consolas" font-size="10.00">fcntl.h</text>
</a>
</g>
</g>
<!-- Node1&#45;&gt;Node2 -->
<g id="edge1" class="edge">
<title>Node1&#45;&gt;Node2</title>
<path fill="none" stroke="midnightblue" d="M271.03,-336.32C260.63,-328.18 244.86,-315.84 232.4,-306.09"/>
<polygon fill="midnightblue" stroke="midnightblue" points="234.44,-303.24 224.41,-299.83 230.13,-308.75 234.44,-303.24"/>
</g>
<!-- Node3 -->
<g id="node3" class="node">
<title>Node3</title>
<g id="a_node3"><a xlink:href="libccc_8h.html" target="_top" xlink:title=" ">
<polygon fill="white" stroke="black" points="341.12,-224.5 341.12,-243.5 391.12,-243.5 391.12,-224.5 341.12,-224.5"/>
<text text-anchor="middle" x="366.12" y="-231.5" font-family="Consolas" font-size="10.00">libccc.h</text>
</a>
</g>
</g>
<!-- Node1&#45;&gt;Node3 -->
<g id="edge2" class="edge">
<title>Node1&#45;&gt;Node3</title>
<path fill="none" stroke="midnightblue" d="M286.35,-336.12C292.74,-323.15 305.64,-298.55 320.12,-280 328.44,-269.35 339.16,-258.71 348.17,-250.46"/>
<polygon fill="midnightblue" stroke="midnightblue" points="350.7,-252.89 355.83,-243.62 346.04,-247.67 350.7,-252.89"/>
</g>
<!-- Node19 -->
<g id="node19" class="node">
<title>Node19</title>
<g id="a_node19"><a xlink:href="ansi_8h.html" target="_top" xlink:title=" ">
<polygon fill="white" stroke="black" points="81.12,-224.5 81.12,-243.5 171.12,-243.5 171.12,-224.5 81.12,-224.5"/>
<text text-anchor="middle" x="126.12" y="-231.5" font-family="Consolas" font-size="10.00">libccc/sys/ansi.h</text>
</a>
</g>
</g>
<!-- Node1&#45;&gt;Node19 -->
<g id="edge30" class="edge">
<title>Node1&#45;&gt;Node19</title>
<path fill="none" stroke="midnightblue" d="M279.15,-336.16C274.07,-322.33 262.47,-295.55 244.12,-280 225.11,-263.89 199.71,-253.21 177.35,-246.32"/>
<polygon fill="midnightblue" stroke="midnightblue" points="178.23,-242.93 167.66,-243.5 176.28,-249.65 178.23,-242.93"/>
</g>
<!-- Node20 -->
<g id="node20" class="node">
<title>Node20</title>
<g id="a_node20"><a xlink:href="color_8h.html" target="_top" xlink:title=" ">
<polygon fill="white" stroke="black" points="329.12,-280.5 329.12,-299.5 403.12,-299.5 403.12,-280.5 329.12,-280.5"/>
<text text-anchor="middle" x="366.12" y="-287.5" font-family="Consolas" font-size="10.00">libccc/color.h</text>
</a>
</g>
</g>
<!-- Node1&#45;&gt;Node20 -->
<g id="edge32" class="edge">
<title>Node1&#45;&gt;Node20</title>
<path fill="none" stroke="midnightblue" d="M295.62,-336.32C308.72,-327.9 328.83,-314.97 344.23,-305.07"/>
<polygon fill="midnightblue" stroke="midnightblue" points="346.14,-308.01 352.66,-299.65 342.35,-302.12 346.14,-308.01"/>
</g>
<!-- Node4 -->
<g id="node4" class="node">
<title>Node4</title>
<g id="a_node4"><a xlink:href="libccc__define_8h.html" target="_top" xlink:title=" ">
<polygon fill="white" stroke="black" points="84.12,-56.5 84.12,-75.5 166.12,-75.5 166.12,-56.5 84.12,-56.5"/>
<text text-anchor="middle" x="125.12" y="-63.5" font-family="Consolas" font-size="10.00">libccc_define.h</text>
</a>
</g>
</g>
<!-- Node3&#45;&gt;Node4 -->
<g id="edge3" class="edge">
<title>Node3&#45;&gt;Node4</title>
<path fill="none" stroke="midnightblue" d="M391.33,-232.8C488,-231.27 824.79,-218.33 726.12,-112 689.1,-72.1 315.2,-67.33 176.52,-66.95"/>
<polygon fill="midnightblue" stroke="midnightblue" points="176.18,-63.45 166.17,-66.92 176.17,-70.45 176.18,-63.45"/>
</g>
<!-- Node6 -->
<g id="node6" class="node">
<title>Node6</title>
<g id="a_node6"><a xlink:href="libccc__errors_8h.html" target="_top" xlink:title=" ">
<polygon fill="white" stroke="black" points="17.12,-112.5 17.12,-131.5 97.12,-131.5 97.12,-112.5 17.12,-112.5"/>
<text text-anchor="middle" x="57.12" y="-119.5" font-family="Consolas" font-size="10.00">libccc_errors.h</text>
</a>
</g>
</g>
<!-- Node3&#45;&gt;Node6 -->
<g id="edge5" class="edge">
<title>Node3&#45;&gt;Node6</title>
<path fill="none" stroke="midnightblue" d="M340.97,-231.33C268.88,-226.31 65.47,-210.26 46.12,-188 34.9,-175.09 40.53,-155.09 47.17,-140.68"/>
<polygon fill="midnightblue" stroke="midnightblue" points="50.29,-142.26 51.72,-131.76 44.06,-139.08 50.29,-142.26"/>
</g>
<!-- Node7 -->
<g id="node7" class="node">
<title>Node7</title>
<g id="a_node7"><a xlink:href="libccc__config_8h.html" target="_top" xlink:title=" ">
<polygon fill="white" stroke="black" points="55.12,-168.5 55.12,-187.5 137.12,-187.5 137.12,-168.5 55.12,-168.5"/>
<text text-anchor="middle" x="96.12" y="-175.5" font-family="Consolas" font-size="10.00">libccc_config.h</text>
</a>
</g>
</g>
<!-- Node3&#45;&gt;Node7 -->
<g id="edge7" class="edge">
<title>Node3&#45;&gt;Node7</title>
<path fill="none" stroke="midnightblue" d="M340.72,-227.92C296.63,-219.1 205.14,-200.8 147.41,-189.26"/>
<polygon fill="midnightblue" stroke="midnightblue" points="147.88,-185.78 137.39,-187.25 146.51,-192.65 147.88,-185.78"/>
</g>
<!-- Node8 -->
<g id="node8" class="node">
<title>Node8</title>
<g id="a_node8"><a xlink:href="libccc__naming_8h.html" target="_top" xlink:title=" ">
<polygon fill="white" stroke="black" points="630.62,-112.5 630.62,-131.5 717.62,-131.5 717.62,-112.5 630.62,-112.5"/>
<text text-anchor="middle" x="674.12" y="-119.5" font-family="Consolas" font-size="10.00">libccc_naming.h</text>
</a>
</g>
</g>
<!-- Node3&#45;&gt;Node8 -->
<g id="edge10" class="edge">
<title>Node3&#45;&gt;Node8</title>
<path fill="none" stroke="midnightblue" d="M391.35,-233.53C460.48,-234.37 650.37,-232.52 689.12,-188 700.49,-174.94 693.46,-154.97 685.65,-140.61"/>
<polygon fill="midnightblue" stroke="midnightblue" points="688.47,-138.5 680.33,-131.72 682.46,-142.1 688.47,-138.5"/>
</g>
<!-- Node9 -->
<g id="node9" class="node">
<title>Node9</title>
<g id="a_node9"><a xlink:href="bool_8h.html" target="_top" xlink:title=" ">
<polygon fill="white" stroke="black" points="155.62,-168.5 155.62,-187.5 226.62,-187.5 226.62,-168.5 155.62,-168.5"/>
<text text-anchor="middle" x="191.12" y="-175.5" font-family="Consolas" font-size="10.00">libccc/bool.h</text>
</a>
</g>
</g>
<!-- Node3&#45;&gt;Node9 -->
<g id="edge12" class="edge">
<title>Node3&#45;&gt;Node9</title>
<path fill="none" stroke="midnightblue" d="M340.8,-226.59C309.77,-217.78 257.49,-201.77 223.57,-190.77"/>
<polygon fill="midnightblue" stroke="midnightblue" points="224.27,-187.31 213.68,-187.53 222.09,-193.97 224.27,-187.31"/>
</g>
<!-- Node10 -->
<g id="node10" class="node">
<title>Node10</title>
<g id="a_node10"><a xlink:href="char_8h.html" target="_top" xlink:title=" ">
<polygon fill="white" stroke="black" points="244.62,-168.5 244.62,-187.5 315.62,-187.5 315.62,-168.5 244.62,-168.5"/>
<text text-anchor="middle" x="280.12" y="-175.5" font-family="Consolas" font-size="10.00">libccc/char.h</text>
</a>
</g>
</g>
<!-- Node3&#45;&gt;Node10 -->
<g id="edge14" class="edge">
<title>Node3&#45;&gt;Node10</title>
<path fill="none" stroke="midnightblue" d="M347.19,-224.32C332.32,-216.11 312.08,-203.6 297.61,-193.81"/>
<polygon fill="midnightblue" stroke="midnightblue" points="299.25,-190.68 289.04,-187.83 295.24,-196.43 299.25,-190.68"/>
</g>
<!-- Node14 -->
<g id="node14" class="node">
<title>Node14</title>
<g id="a_node14"><a xlink:href="int_8h.html" target="_top" xlink:title=" ">
<polygon fill="white" stroke="black" points="334.12,-168.5 334.12,-187.5 398.12,-187.5 398.12,-168.5 334.12,-168.5"/>
<text text-anchor="middle" x="366.12" y="-175.5" font-family="Consolas" font-size="10.00">libccc/int.h</text>
</a>
</g>
</g>
<!-- Node3&#45;&gt;Node14 -->
<g id="edge19" class="edge">
<title>Node3&#45;&gt;Node14</title>
<path fill="none" stroke="midnightblue" d="M360.95,-224.08C359.45,-216.93 359.01,-206.64 359.66,-197.69"/>
<polygon fill="midnightblue" stroke="midnightblue" points="363.14,-198.13 360.99,-187.75 356.2,-197.2 363.14,-198.13"/>
</g>
<!-- Node15 -->
<g id="node15" class="node">
<title>Node15</title>
<g id="a_node15"><a xlink:href="fixed_8h.html" target="_top" xlink:title=" ">
<polygon fill="white" stroke="black" points="416.12,-168.5 416.12,-187.5 490.12,-187.5 490.12,-168.5 416.12,-168.5"/>
<text text-anchor="middle" x="453.12" y="-175.5" font-family="Consolas" font-size="10.00">libccc/fixed.h</text>
</a>
</g>
</g>
<!-- Node3&#45;&gt;Node15 -->
<g id="edge22" class="edge">
<title>Node3&#45;&gt;Node15</title>
<path fill="none" stroke="midnightblue" d="M374.98,-224.32C386.84,-215.82 407.65,-202.73 424.92,-192.8"/>
<polygon fill="midnightblue" stroke="midnightblue" points="427.06,-195.61 434.07,-187.65 423.64,-189.5 427.06,-195.61"/>
</g>
<!-- Node16 -->
<g id="node16" class="node">
<title>Node16</title>
<g id="a_node16"><a xlink:href="float_8h.html" target="_top" xlink:title=" ">
<polygon fill="white" stroke="black" points="508.12,-168.5 508.12,-187.5 580.12,-187.5 580.12,-168.5 508.12,-168.5"/>
<text text-anchor="middle" x="544.12" y="-175.5" font-family="Consolas" font-size="10.00">libccc/float.h</text>
</a>
</g>
</g>
<!-- Node3&#45;&gt;Node16 -->
<g id="edge24" class="edge">
<title>Node3&#45;&gt;Node16</title>
<path fill="none" stroke="midnightblue" d="M389.24,-224.44C417.55,-215.24 465.76,-200.56 500.96,-190.39"/>
<polygon fill="midnightblue" stroke="midnightblue" points="502.32,-193.64 510.97,-187.52 500.39,-186.91 502.32,-193.64"/>
</g>
<!-- Node17 -->
<g id="node17" class="node">
<title>Node17</title>
<g id="a_node17"><a xlink:href="pointer_8h.html" target="_top" xlink:title=" ">
<polygon fill="white" stroke="black" points="598.12,-168.5 598.12,-187.5 680.12,-187.5 680.12,-168.5 598.12,-168.5"/>
<text text-anchor="middle" x="639.12" y="-175.5" font-family="Consolas" font-size="10.00">libccc/pointer.h</text>
</a>
</g>
</g>
<!-- Node3&#45;&gt;Node17 -->
<g id="edge26" class="edge">
<title>Node3&#45;&gt;Node17</title>
<path fill="none" stroke="midnightblue" d="M391.45,-227.12C436.08,-217.73 529.03,-199.29 587.57,-188.16"/>
<polygon fill="midnightblue" stroke="midnightblue" points="588.55,-191.54 597.72,-186.24 587.25,-184.66 588.55,-191.54"/>
</g>
<!-- Node5 -->
<g id="node5" class="node">
<title>Node5</title>
<g id="a_node5"><a xlink:title=" ">
<polygon fill="white" stroke="#bfbfbf" points="95.62,-0.5 95.62,-19.5 154.62,-19.5 154.62,-0.5 95.62,-0.5"/>
<text text-anchor="middle" x="125.12" y="-7.5" font-family="Consolas" font-size="10.00">stdalign.h</text>
</a>
</g>
</g>
<!-- Node4&#45;&gt;Node5 -->
<g id="edge4" class="edge">
<title>Node4&#45;&gt;Node5</title>
<path fill="none" stroke="midnightblue" d="M125.12,-56.08C125.12,-49.01 125.12,-38.86 125.12,-29.99"/>
<polygon fill="midnightblue" stroke="midnightblue" points="128.62,-29.75 125.12,-19.75 121.62,-29.75 128.62,-29.75"/>
</g>
<!-- Node6&#45;&gt;Node4 -->
<g id="edge6" class="edge">
<title>Node6&#45;&gt;Node4</title>
<path fill="none" stroke="midnightblue" d="M68.05,-112.32C78.3,-104.18 93.84,-91.84 106.12,-82.09"/>
<polygon fill="midnightblue" stroke="midnightblue" points="108.34,-84.79 114,-75.83 103.99,-79.31 108.34,-84.79"/>
</g>
<!-- Node7&#45;&gt;Node4 -->
<g id="edge8" class="edge">
<title>Node7&#45;&gt;Node4</title>
<path fill="none" stroke="midnightblue" d="M98.4,-168.37C103.1,-150.54 113.97,-109.3 120.3,-85.27"/>
<polygon fill="midnightblue" stroke="midnightblue" points="123.69,-86.15 122.86,-75.59 116.92,-84.37 123.69,-86.15"/>
</g>
<!-- Node7&#45;&gt;Node6 -->
<g id="edge9" class="edge">
<title>Node7&#45;&gt;Node6</title>
<path fill="none" stroke="midnightblue" d="M89.68,-168.08C84.17,-160.46 76.09,-149.26 69.36,-139.94"/>
<polygon fill="midnightblue" stroke="midnightblue" points="72.13,-137.81 63.44,-131.75 66.46,-141.91 72.13,-137.81"/>
</g>
<!-- Node8&#45;&gt;Node4 -->
<g id="edge11" class="edge">
<title>Node8&#45;&gt;Node4</title>
<path fill="none" stroke="midnightblue" d="M630.49,-113.31C627.32,-112.84 624.18,-112.4 621.12,-112 459.47,-90.97 266.9,-76.51 176.63,-70.35"/>
<polygon fill="midnightblue" stroke="midnightblue" points="176.61,-66.84 166.39,-69.65 176.13,-73.82 176.61,-66.84"/>
</g>
<!-- Node9&#45;&gt;Node3 -->
<g id="edge13" class="edge">
<title>Node9&#45;&gt;Node3</title>
<path fill="none" stroke="midnightblue" d="M223.8,-187.52C255.32,-196.62 302.53,-211.13 333.89,-221.3"/>
<polygon fill="midnightblue" stroke="midnightblue" points="332.89,-224.66 343.48,-224.44 335.07,-218.01 332.89,-224.66"/>
</g>
<!-- Node10&#45;&gt;Node3 -->
<g id="edge16" class="edge">
<title>Node10&#45;&gt;Node3</title>
<path fill="none" stroke="midnightblue" d="M299.01,-187.65C313.96,-195.91 334.35,-208.52 348.86,-218.34"/>
<polygon fill="midnightblue" stroke="midnightblue" points="347.22,-221.47 357.42,-224.32 351.23,-215.73 347.22,-221.47"/>
</g>
<!-- Node11 -->
<g id="node11" class="node">
<title>Node11</title>
<g id="a_node11"><a xlink:title=" ">
<polygon fill="white" stroke="#bfbfbf" points="389.62,-112.5 389.62,-131.5 438.62,-131.5 438.62,-112.5 389.62,-112.5"/>
<text text-anchor="middle" x="414.12" y="-119.5" font-family="Consolas" font-size="10.00">stdint.h</text>
</a>
</g>
</g>
<!-- Node10&#45;&gt;Node11 -->
<g id="edge15" class="edge">
<title>Node10&#45;&gt;Node11</title>
<path fill="none" stroke="midnightblue" d="M301.35,-168.44C323.5,-159.52 358.44,-145.44 383.56,-135.32"/>
<polygon fill="midnightblue" stroke="midnightblue" points="385.02,-138.5 392.99,-131.52 382.4,-132.01 385.02,-138.5"/>
</g>
<!-- Node12 -->
<g id="node12" class="node">
<title>Node12</title>
<g id="a_node12"><a xlink:title=" ">
<polygon fill="white" stroke="#bfbfbf" points="278.62,-112.5 278.62,-131.5 371.62,-131.5 371.62,-112.5 278.62,-112.5"/>
<text text-anchor="middle" x="325.12" y="-119.5" font-family="Consolas" font-size="10.00">libccc/text/ascii.h</text>
</a>
</g>
</g>
<!-- Node10&#45;&gt;Node12 -->
<g id="edge17" class="edge">
<title>Node10&#45;&gt;Node12</title>
<path fill="none" stroke="midnightblue" d="M287.55,-168.08C293.97,-160.38 303.43,-149.03 311.24,-139.65"/>
<polygon fill="midnightblue" stroke="midnightblue" points="314.12,-141.67 317.83,-131.75 308.74,-137.19 314.12,-141.67"/>
</g>
<!-- Node13 -->
<g id="node13" class="node">
<title>Node13</title>
<g id="a_node13"><a xlink:title=" ">
<polygon fill="white" stroke="#bfbfbf" points="153.62,-112.5 153.62,-131.5 260.62,-131.5 260.62,-112.5 153.62,-112.5"/>
<text text-anchor="middle" x="207.12" y="-119.5" font-family="Consolas" font-size="10.00">libccc/text/unicode.h</text>
</a>
</g>
</g>
<!-- Node10&#45;&gt;Node13 -->
<g id="edge18" class="edge">
<title>Node10&#45;&gt;Node13</title>
<path fill="none" stroke="midnightblue" d="M268.39,-168.32C257.28,-160.11 240.38,-147.6 227.14,-137.81"/>
<polygon fill="midnightblue" stroke="midnightblue" points="229.18,-134.97 219.06,-131.83 225.02,-140.59 229.18,-134.97"/>
</g>
<!-- Node14&#45;&gt;Node3 -->
<g id="edge21" class="edge">
<title>Node14&#45;&gt;Node3</title>
<path fill="none" stroke="midnightblue" d="M371.25,-187.75C372.78,-194.86 373.23,-205.14 372.59,-214.1"/>
<polygon fill="midnightblue" stroke="midnightblue" points="369.11,-213.71 371.29,-224.08 376.06,-214.62 369.11,-213.71"/>
</g>
<!-- Node14&#45;&gt;Node11 -->
<g id="edge20" class="edge">
<title>Node14&#45;&gt;Node11</title>
<path fill="none" stroke="midnightblue" d="M374.05,-168.08C380.97,-160.3 391.19,-148.8 399.57,-139.37"/>
<polygon fill="midnightblue" stroke="midnightblue" points="402.31,-141.55 406.34,-131.75 397.08,-136.9 402.31,-141.55"/>
</g>
<!-- Node15&#45;&gt;Node3 -->
<g id="edge23" class="edge">
<title>Node15&#45;&gt;Node3</title>
<path fill="none" stroke="midnightblue" d="M444.04,-187.83C432.14,-196.34 411.48,-209.34 394.31,-219.21"/>
<polygon fill="midnightblue" stroke="midnightblue" points="392.22,-216.37 385.21,-224.32 395.65,-222.47 392.22,-216.37"/>
</g>
<!-- Node16&#45;&gt;Node3 -->
<g id="edge25" class="edge">
<title>Node16&#45;&gt;Node3</title>
<path fill="none" stroke="midnightblue" d="M520.97,-187.57C490.46,-197.48 436.89,-213.75 401.37,-223.89"/>
<polygon fill="midnightblue" stroke="midnightblue" points="400.08,-220.61 391.41,-226.7 401.99,-227.35 400.08,-220.61"/>
</g>
<!-- Node17&#45;&gt;Node3 -->
<g id="edge29" class="edge">
<title>Node17&#45;&gt;Node3</title>
<path fill="none" stroke="midnightblue" d="M600.84,-187.58C547.76,-198.55 452.82,-217.29 401.37,-226.91"/>
<polygon fill="midnightblue" stroke="midnightblue" points="400.58,-223.5 391.39,-228.76 401.86,-230.38 400.58,-223.5"/>
</g>
<!-- Node17&#45;&gt;Node11 -->
<g id="edge28" class="edge">
<title>Node17&#45;&gt;Node11</title>
<path fill="none" stroke="midnightblue" d="M603.47,-168.44C561,-158.25 490.54,-141.34 448.59,-131.27"/>
<polygon fill="midnightblue" stroke="midnightblue" points="449.37,-127.86 438.83,-128.93 447.74,-134.67 449.37,-127.86"/>
</g>
<!-- Node18 -->
<g id="node18" class="node">
<title>Node18</title>
<g id="a_node18"><a xlink:title=" ">
<polygon fill="white" stroke="#bfbfbf" points="560.12,-112.5 560.12,-131.5 612.12,-131.5 612.12,-112.5 560.12,-112.5"/>
<text text-anchor="middle" x="586.12" y="-119.5" font-family="Consolas" font-size="10.00">stddef.h</text>
</a>
</g>
</g>
<!-- Node17&#45;&gt;Node18 -->
<g id="edge27" class="edge">
<title>Node17&#45;&gt;Node18</title>
<path fill="none" stroke="midnightblue" d="M630.37,-168.08C622.65,-160.22 611.22,-148.57 601.9,-139.08"/>
<polygon fill="midnightblue" stroke="midnightblue" points="604.21,-136.44 594.71,-131.75 599.22,-141.34 604.21,-136.44"/>
</g>
<!-- Node19&#45;&gt;Node4 -->
<g id="edge31" class="edge">
<title>Node19&#45;&gt;Node4</title>
<path fill="none" stroke="midnightblue" d="M98.5,-224.46C79.07,-217.3 53.54,-205.42 36.12,-188 10.67,-162.55 -12.26,-141.67 8.12,-112 23.01,-90.32 49.92,-79.08 74.17,-73.26"/>
<polygon fill="midnightblue" stroke="midnightblue" points="74.97,-76.67 84.01,-71.14 73.5,-69.82 74.97,-76.67"/>
</g>
<!-- Node20&#45;&gt;Node3 -->
<g id="edge33" class="edge">
<title>Node20&#45;&gt;Node3</title>
<path fill="none" stroke="midnightblue" d="M366.12,-280.08C366.12,-273.01 366.12,-262.86 366.12,-253.99"/>
<polygon fill="midnightblue" stroke="midnightblue" points="369.62,-253.75 366.12,-243.75 362.62,-253.75 369.62,-253.75"/>
</g>
</g>
</svg>
