<?xml version="1.0" encoding="UTF-8" standalone="no"?>
<!DOCTYPE svg PUBLIC "-//W3C//DTD SVG 1.1//EN"
 "http://www.w3.org/Graphics/SVG/1.1/DTD/svg11.dtd">
<!-- Generated by graphviz version 2.49.3 (20211023.0002)
 -->
<!-- Title: libccc/sys/io.h Pages: 1 -->
<svg width="318pt" height="364pt"
 viewBox="0.00 0.00 317.61 364.00" xmlns="http://www.w3.org/2000/svg" xmlns:xlink="http://www.w3.org/1999/xlink">
<g id="graph0" class="graph" transform="scale(1 1) rotate(0) translate(4 360)">
<title>libccc/sys/io.h</title>
<polygon fill="white" stroke="transparent" points="-4,4 -4,-360 313.61,-360 313.61,4 -4,4"/>
<!-- Node1 -->
<g id="node1" class="node">
<title>Node1</title>
<g id="a_node1"><a xlink:title=" ">
<polygon fill="#bfbfbf" stroke="black" points="116.61,-336.5 116.61,-355.5 196.61,-355.5 196.61,-336.5 116.61,-336.5"/>
<text text-anchor="middle" x="156.61" y="-343.5" font-family="Consolas" font-size="10.00">libccc/sys/io.h</text>
</a>
</g>
</g>
<!-- Node2 -->
<g id="node2" class="node">
<title>Node2</title>
<g id="a_node2"><a xlink:title=" ">
<polygon fill="white" stroke="#bfbfbf" points="52.61,-280.5 52.61,-299.5 96.61,-299.5 96.61,-280.5 52.61,-280.5"/>
<text text-anchor="middle" x="74.61" y="-287.5" font-family="Consolas" font-size="10.00">fcntl.h</text>
</a>
</g>
</g>
<!-- Node1&#45;&gt;Node2 -->
<g id="edge1" class="edge">
<title>Node1&#45;&gt;Node2</title>
<path fill="none" stroke="midnightblue" d="M143.43,-336.32C130.76,-327.98 111.37,-315.21 96.4,-305.35"/>
<polygon fill="midnightblue" stroke="midnightblue" points="98.02,-302.23 87.75,-299.65 94.17,-308.08 98.02,-302.23"/>
</g>
<!-- Node3 -->
<g id="node3" class="node">
<title>Node3</title>
<g id="a_node3"><a xlink:href="libccc_8h.html" target="_top" xlink:title=" ">
<polygon fill="white" stroke="black" points="99.61,-224.5 99.61,-243.5 149.61,-243.5 149.61,-224.5 99.61,-224.5"/>
<text text-anchor="middle" x="124.61" y="-231.5" font-family="Consolas" font-size="10.00">libccc.h</text>
</a>
</g>
</g>
<!-- Node1&#45;&gt;Node3 -->
<g id="edge2" class="edge">
<title>Node1&#45;&gt;Node3</title>
<path fill="none" stroke="midnightblue" d="M154.09,-336.37C148.91,-318.54 136.91,-277.3 129.92,-253.27"/>
<polygon fill="midnightblue" stroke="midnightblue" points="133.26,-252.22 127.1,-243.59 126.54,-254.17 133.26,-252.22"/>
</g>
<!-- Node9 -->
<g id="node9" class="node">
<title>Node9</title>
<g id="a_node9"><a xlink:href="ansi_8h.html" target="_top" xlink:title=" ">
<polygon fill="white" stroke="black" points="219.61,-224.5 219.61,-243.5 309.61,-243.5 309.61,-224.5 219.61,-224.5"/>
<text text-anchor="middle" x="264.61" y="-231.5" font-family="Consolas" font-size="10.00">libccc/sys/ansi.h</text>
</a>
</g>
</g>
<!-- Node1&#45;&gt;Node9 -->
<g id="edge12" class="edge">
<title>Node1&#45;&gt;Node9</title>
<path fill="none" stroke="midnightblue" d="M179.97,-336.37C197.25,-328.97 220.34,-316.84 235.61,-300 247.65,-286.71 255.36,-267.59 259.78,-253.52"/>
<polygon fill="midnightblue" stroke="midnightblue" points="263.25,-254.11 262.64,-243.53 256.52,-252.19 263.25,-254.11"/>
</g>
<!-- Node10 -->
<g id="node10" class="node">
<title>Node10</title>
<g id="a_node10"><a xlink:href="color_8h.html" target="_top" xlink:title=" ">
<polygon fill="white" stroke="black" points="152.61,-280.5 152.61,-299.5 226.61,-299.5 226.61,-280.5 152.61,-280.5"/>
<text text-anchor="middle" x="189.61" y="-287.5" font-family="Consolas" font-size="10.00">libccc/color.h</text>
</a>
</g>
</g>
<!-- Node1&#45;&gt;Node10 -->
<g id="edge14" class="edge">
<title>Node1&#45;&gt;Node10</title>
<path fill="none" stroke="midnightblue" d="M162.05,-336.08C166.62,-328.61 173.27,-317.72 178.9,-308.52"/>
<polygon fill="midnightblue" stroke="midnightblue" points="182.03,-310.11 184.26,-299.75 176.06,-306.46 182.03,-310.11"/>
</g>
<!-- Node4 -->
<g id="node4" class="node">
<title>Node4</title>
<g id="a_node4"><a xlink:href="libccc__define_8h.html" target="_top" xlink:title=" ">
<polygon fill="white" stroke="black" points="83.61,-56.5 83.61,-75.5 165.61,-75.5 165.61,-56.5 83.61,-56.5"/>
<text text-anchor="middle" x="124.61" y="-63.5" font-family="Consolas" font-size="10.00">libccc_define.h</text>
</a>
</g>
</g>
<!-- Node3&#45;&gt;Node4 -->
<g id="edge3" class="edge">
<title>Node3&#45;&gt;Node4</title>
<path fill="none" stroke="midnightblue" d="M103.95,-224.38C62.31,-205.76 -25.07,-159.57 7.61,-112 22.49,-90.32 49.4,-79.08 73.66,-73.26"/>
<polygon fill="midnightblue" stroke="midnightblue" points="74.45,-76.67 83.5,-71.14 72.98,-69.82 74.45,-76.67"/>
</g>
<!-- Node6 -->
<g id="node6" class="node">
<title>Node6</title>
<g id="a_node6"><a xlink:href="libccc__errors_8h.html" target="_top" xlink:title=" ">
<polygon fill="white" stroke="black" points="16.61,-112.5 16.61,-131.5 96.61,-131.5 96.61,-112.5 16.61,-112.5"/>
<text text-anchor="middle" x="56.61" y="-119.5" font-family="Consolas" font-size="10.00">libccc_errors.h</text>
</a>
</g>
</g>
<!-- Node3&#45;&gt;Node6 -->
<g id="edge5" class="edge">
<title>Node3&#45;&gt;Node6</title>
<path fill="none" stroke="midnightblue" d="M111.18,-224.23C99.82,-216.13 83.95,-203.1 74.61,-188 65.85,-173.84 61.26,-155.36 58.92,-141.72"/>
<polygon fill="midnightblue" stroke="midnightblue" points="62.35,-141 57.44,-131.61 55.43,-142.01 62.35,-141"/>
</g>
<!-- Node7 -->
<g id="node7" class="node">
<title>Node7</title>
<g id="a_node7"><a xlink:href="libccc__config_8h.html" target="_top" xlink:title=" ">
<polygon fill="white" stroke="black" points="83.61,-168.5 83.61,-187.5 165.61,-187.5 165.61,-168.5 83.61,-168.5"/>
<text text-anchor="middle" x="124.61" y="-175.5" font-family="Consolas" font-size="10.00">libccc_config.h</text>
</a>
</g>
</g>
<!-- Node3&#45;&gt;Node7 -->
<g id="edge7" class="edge">
<title>Node3&#45;&gt;Node7</title>
<path fill="none" stroke="midnightblue" d="M124.61,-224.08C124.61,-217.01 124.61,-206.86 124.61,-197.99"/>
<polygon fill="midnightblue" stroke="midnightblue" points="128.11,-197.75 124.61,-187.75 121.11,-197.75 128.11,-197.75"/>
</g>
<!-- Node8 -->
<g id="node8" class="node">
<title>Node8</title>
<g id="a_node8"><a xlink:href="libccc__naming_8h.html" target="_top" xlink:title=" ">
<polygon fill="white" stroke="black" points="153.11,-112.5 153.11,-131.5 240.11,-131.5 240.11,-112.5 153.11,-112.5"/>
<text text-anchor="middle" x="196.61" y="-119.5" font-family="Consolas" font-size="10.00">libccc_naming.h</text>
</a>
</g>
</g>
<!-- Node3&#45;&gt;Node8 -->
<g id="edge10" class="edge">
<title>Node3&#45;&gt;Node8</title>
<path fill="none" stroke="midnightblue" d="M137.38,-224.42C148.63,-216.26 164.72,-203.02 174.61,-188 183.92,-173.85 189.67,-155.37 192.95,-141.73"/>
<polygon fill="midnightblue" stroke="midnightblue" points="196.44,-142.13 195.14,-131.61 189.6,-140.65 196.44,-142.13"/>
</g>
<!-- Node5 -->
<g id="node5" class="node">
<title>Node5</title>
<g id="a_node5"><a xlink:title=" ">
<polygon fill="white" stroke="#bfbfbf" points="95.11,-0.5 95.11,-19.5 154.11,-19.5 154.11,-0.5 95.11,-0.5"/>
<text text-anchor="middle" x="124.61" y="-7.5" font-family="Consolas" font-size="10.00">stdalign.h</text>
</a>
</g>
</g>
<!-- Node4&#45;&gt;Node5 -->
<g id="edge4" class="edge">
<title>Node4&#45;&gt;Node5</title>
<path fill="none" stroke="midnightblue" d="M124.61,-56.08C124.61,-49.01 124.61,-38.86 124.61,-29.99"/>
<polygon fill="midnightblue" stroke="midnightblue" points="128.11,-29.75 124.61,-19.75 121.11,-29.75 128.11,-29.75"/>
</g>
<!-- Node6&#45;&gt;Node4 -->
<g id="edge6" class="edge">
<title>Node6&#45;&gt;Node4</title>
<path fill="none" stroke="midnightblue" d="M67.53,-112.32C77.78,-104.18 93.33,-91.84 105.61,-82.09"/>
<polygon fill="midnightblue" stroke="midnightblue" points="107.83,-84.79 113.48,-75.83 103.47,-79.31 107.83,-84.79"/>
</g>
<!-- Node7&#45;&gt;Node4 -->
<g id="edge8" class="edge">
<title>Node7&#45;&gt;Node4</title>
<path fill="none" stroke="midnightblue" d="M124.61,-168.37C124.61,-150.62 124.61,-109.67 124.61,-85.6"/>
<polygon fill="midnightblue" stroke="midnightblue" points="128.11,-85.59 124.61,-75.59 121.11,-85.59 128.11,-85.59"/>
</g>
<!-- Node7&#45;&gt;Node6 -->
<g id="edge9" class="edge">
<title>Node7&#45;&gt;Node6</title>
<path fill="none" stroke="midnightblue" d="M113.68,-168.32C103.43,-160.18 87.88,-147.84 75.6,-138.09"/>
<polygon fill="midnightblue" stroke="midnightblue" points="77.74,-135.31 67.73,-131.83 73.38,-140.79 77.74,-135.31"/>
</g>
<!-- Node8&#45;&gt;Node4 -->
<g id="edge11" class="edge">
<title>Node8&#45;&gt;Node4</title>
<path fill="none" stroke="midnightblue" d="M185.04,-112.32C174.18,-104.18 157.72,-91.84 144.72,-82.09"/>
<polygon fill="midnightblue" stroke="midnightblue" points="146.48,-79.03 136.38,-75.83 142.28,-84.63 146.48,-79.03"/>
</g>
<!-- Node9&#45;&gt;Node4 -->
<g id="edge13" class="edge">
<title>Node9&#45;&gt;Node4</title>
<path fill="none" stroke="midnightblue" d="M266.34,-224.23C270.08,-202.54 276.57,-145.73 249.61,-112 231.74,-89.65 201.85,-78.4 175.77,-72.73"/>
<polygon fill="midnightblue" stroke="midnightblue" points="176.11,-69.23 165.62,-70.76 174.77,-76.1 176.11,-69.23"/>
</g>
<!-- Node10&#45;&gt;Node3 -->
<g id="edge15" class="edge">
<title>Node10&#45;&gt;Node3</title>
<path fill="none" stroke="midnightblue" d="M179.16,-280.32C169.46,-272.26 154.79,-260.08 143.11,-250.37"/>
<polygon fill="midnightblue" stroke="midnightblue" points="145.17,-247.53 135.24,-243.83 140.69,-252.92 145.17,-247.53"/>
</g>
</g>
</svg>
