<?xml version="1.0" encoding="UTF-8" standalone="no"?>
<!DOCTYPE svg PUBLIC "-//W3C//DTD SVG 1.1//EN"
 "http://www.w3.org/Graphics/SVG/1.1/DTD/svg11.dtd">
<!-- Generated by graphviz version 2.49.3 (20211023.0002)
 -->
<!-- Title: libccc/sys/io.h Pages: 1 -->
<svg width="322pt" height="364pt"
 viewBox="0.00 0.00 321.54 364.00" xmlns="http://www.w3.org/2000/svg" xmlns:xlink="http://www.w3.org/1999/xlink">
<g id="graph0" class="graph" transform="scale(1 1) rotate(0) translate(4 360)">
<title>libccc/sys/io.h</title>
<polygon fill="white" stroke="transparent" points="-4,4 -4,-360 317.54,-360 317.54,4 -4,4"/>
<!-- Node1 -->
<g id="node1" class="node">
<title>Node1</title>
<g id="a_node1"><a xlink:title=" ">
<polygon fill="#bfbfbf" stroke="black" points="108.54,-336.5 108.54,-355.5 188.54,-355.5 188.54,-336.5 108.54,-336.5"/>
<text text-anchor="middle" x="148.54" y="-343.5" font-family="Consolas" font-size="10.00">libccc/sys/io.h</text>
</a>
</g>
</g>
<!-- Node2 -->
<g id="node2" class="node">
<title>Node2</title>
<g id="a_node2"><a xlink:title=" ">
<polygon fill="white" stroke="#bfbfbf" points="36.54,-280.5 36.54,-299.5 80.54,-299.5 80.54,-280.5 36.54,-280.5"/>
<text text-anchor="middle" x="58.54" y="-287.5" font-family="Consolas" font-size="10.00">fcntl.h</text>
</a>
</g>
</g>
<!-- Node1&#45;&gt;Node2 -->
<g id="edge1" class="edge">
<title>Node1&#45;&gt;Node2</title>
<path fill="none" stroke="midnightblue" d="M134.08,-336.32C120.04,-327.9 98.49,-314.97 82,-305.07"/>
<polygon fill="midnightblue" stroke="midnightblue" points="83.34,-301.8 72.96,-299.65 79.74,-307.8 83.34,-301.8"/>
</g>
<!-- Node3 -->
<g id="node3" class="node">
<title>Node3</title>
<g id="a_node3"><a xlink:href="libccc_8h.html" target="_top" xlink:title=" ">
<polygon fill="white" stroke="black" points="91.54,-224.5 91.54,-243.5 141.54,-243.5 141.54,-224.5 91.54,-224.5"/>
<text text-anchor="middle" x="116.54" y="-231.5" font-family="Consolas" font-size="10.00">libccc.h</text>
</a>
</g>
</g>
<!-- Node1&#45;&gt;Node3 -->
<g id="edge2" class="edge">
<title>Node1&#45;&gt;Node3</title>
<path fill="none" stroke="midnightblue" d="M143.63,-336.32C138.82,-327.46 131.64,-313.17 127.54,-300 122.8,-284.79 119.96,-266.9 118.36,-253.74"/>
<polygon fill="midnightblue" stroke="midnightblue" points="121.81,-253.15 117.25,-243.58 114.85,-253.9 121.81,-253.15"/>
</g>
<!-- Node9 -->
<g id="node9" class="node">
<title>Node9</title>
<g id="a_node9"><a xlink:href="ansi_8h.html" target="_top" xlink:title=" ">
<polygon fill="white" stroke="black" points="223.54,-224.5 223.54,-243.5 313.54,-243.5 313.54,-224.5 223.54,-224.5"/>
<text text-anchor="middle" x="268.54" y="-231.5" font-family="Consolas" font-size="10.00">libccc/sys/ansi.h</text>
</a>
</g>
</g>
<!-- Node1&#45;&gt;Node9 -->
<g id="edge12" class="edge">
<title>Node1&#45;&gt;Node9</title>
<path fill="none" stroke="midnightblue" d="M186.91,-336.38C208.12,-329.75 233.37,-318.5 249.54,-300 260.77,-287.14 265.37,-267.96 267.25,-253.77"/>
<polygon fill="midnightblue" stroke="midnightblue" points="270.75,-253.96 268.25,-243.67 263.78,-253.27 270.75,-253.96"/>
</g>
<!-- Node10 -->
<g id="node10" class="node">
<title>Node10</title>
<g id="a_node10"><a xlink:href="image_2color_8h.html" target="_top" xlink:title=" ">
<polygon fill="white" stroke="black" points="137.04,-280.5 137.04,-299.5 240.04,-299.5 240.04,-280.5 137.04,-280.5"/>
<text text-anchor="middle" x="188.54" y="-287.5" font-family="Consolas" font-size="10.00">libccc/image/color.h</text>
</a>
</g>
</g>
<!-- Node1&#45;&gt;Node10 -->
<g id="edge14" class="edge">
<title>Node1&#45;&gt;Node10</title>
<path fill="none" stroke="midnightblue" d="M155.14,-336.08C160.79,-328.46 169.08,-317.26 175.99,-307.94"/>
<polygon fill="midnightblue" stroke="midnightblue" points="178.92,-309.87 182.06,-299.75 173.29,-305.7 178.92,-309.87"/>
</g>
<!-- Node4 -->
<g id="node4" class="node">
<title>Node4</title>
<g id="a_node4"><a xlink:href="libccc__define_8h.html" target="_top" xlink:title=" ">
<polygon fill="white" stroke="black" points="83.54,-56.5 83.54,-75.5 165.54,-75.5 165.54,-56.5 83.54,-56.5"/>
<text text-anchor="middle" x="124.54" y="-63.5" font-family="Consolas" font-size="10.00">libccc_define.h</text>
</a>
</g>
</g>
<!-- Node3&#45;&gt;Node4 -->
<g id="edge3" class="edge">
<title>Node3&#45;&gt;Node4</title>
<path fill="none" stroke="midnightblue" d="M97.7,-224.43C58.8,-205.53 -24.24,-158.26 7.54,-112 22.43,-90.32 49.33,-79.08 73.59,-73.26"/>
<polygon fill="midnightblue" stroke="midnightblue" points="74.39,-76.67 83.43,-71.14 72.92,-69.82 74.39,-76.67"/>
</g>
<!-- Node6 -->
<g id="node6" class="node">
<title>Node6</title>
<g id="a_node6"><a xlink:href="libccc__errors_8h.html" target="_top" xlink:title=" ">
<polygon fill="white" stroke="black" points="16.54,-112.5 16.54,-131.5 96.54,-131.5 96.54,-112.5 16.54,-112.5"/>
<text text-anchor="middle" x="56.54" y="-119.5" font-family="Consolas" font-size="10.00">libccc_errors.h</text>
</a>
</g>
</g>
<!-- Node3&#45;&gt;Node6 -->
<g id="edge5" class="edge">
<title>Node3&#45;&gt;Node6</title>
<path fill="none" stroke="midnightblue" d="M106.05,-224.42C96.5,-216.07 82.68,-202.55 74.54,-188 66.49,-173.63 61.85,-155.44 59.31,-141.95"/>
<polygon fill="midnightblue" stroke="midnightblue" points="62.73,-141.21 57.63,-131.92 55.83,-142.36 62.73,-141.21"/>
</g>
<!-- Node7 -->
<g id="node7" class="node">
<title>Node7</title>
<g id="a_node7"><a xlink:href="libccc__config_8h.html" target="_top" xlink:title=" ">
<polygon fill="white" stroke="black" points="83.54,-168.5 83.54,-187.5 165.54,-187.5 165.54,-168.5 83.54,-168.5"/>
<text text-anchor="middle" x="124.54" y="-175.5" font-family="Consolas" font-size="10.00">libccc_config.h</text>
</a>
</g>
</g>
<!-- Node3&#45;&gt;Node7 -->
<g id="edge7" class="edge">
<title>Node3&#45;&gt;Node7</title>
<path fill="none" stroke="midnightblue" d="M117.86,-224.08C118.92,-216.93 120.44,-206.64 121.77,-197.69"/>
<polygon fill="midnightblue" stroke="midnightblue" points="125.24,-198.16 123.24,-187.75 118.31,-197.13 125.24,-198.16"/>
</g>
<!-- Node8 -->
<g id="node8" class="node">
<title>Node8</title>
<g id="a_node8"><a xlink:href="libccc__naming_8h.html" target="_top" xlink:title=" ">
<polygon fill="white" stroke="black" points="153.04,-112.5 153.04,-131.5 240.04,-131.5 240.04,-112.5 153.04,-112.5"/>
<text text-anchor="middle" x="196.54" y="-119.5" font-family="Consolas" font-size="10.00">libccc_naming.h</text>
</a>
</g>
</g>
<!-- Node3&#45;&gt;Node8 -->
<g id="edge10" class="edge">
<title>Node3&#45;&gt;Node8</title>
<path fill="none" stroke="midnightblue" d="M132.17,-224.41C145.2,-216.52 163.38,-203.68 174.54,-188 184.36,-174.2 190.06,-155.68 193.18,-141.94"/>
<polygon fill="midnightblue" stroke="midnightblue" points="196.7,-142.22 195.24,-131.73 189.84,-140.84 196.7,-142.22"/>
</g>
<!-- Node5 -->
<g id="node5" class="node">
<title>Node5</title>
<g id="a_node5"><a xlink:title=" ">
<polygon fill="white" stroke="#bfbfbf" points="95.04,-0.5 95.04,-19.5 154.04,-19.5 154.04,-0.5 95.04,-0.5"/>
<text text-anchor="middle" x="124.54" y="-7.5" font-family="Consolas" font-size="10.00">stdalign.h</text>
</a>
</g>
</g>
<!-- Node4&#45;&gt;Node5 -->
<g id="edge4" class="edge">
<title>Node4&#45;&gt;Node5</title>
<path fill="none" stroke="midnightblue" d="M124.54,-56.08C124.54,-49.01 124.54,-38.86 124.54,-29.99"/>
<polygon fill="midnightblue" stroke="midnightblue" points="128.04,-29.75 124.54,-19.75 121.04,-29.75 128.04,-29.75"/>
</g>
<!-- Node6&#45;&gt;Node4 -->
<g id="edge6" class="edge">
<title>Node6&#45;&gt;Node4</title>
<path fill="none" stroke="midnightblue" d="M67.46,-112.32C77.71,-104.18 93.26,-91.84 105.54,-82.09"/>
<polygon fill="midnightblue" stroke="midnightblue" points="107.76,-84.79 113.41,-75.83 103.41,-79.31 107.76,-84.79"/>
</g>
<!-- Node7&#45;&gt;Node4 -->
<g id="edge8" class="edge">
<title>Node7&#45;&gt;Node4</title>
<path fill="none" stroke="midnightblue" d="M124.54,-168.37C124.54,-150.62 124.54,-109.67 124.54,-85.6"/>
<polygon fill="midnightblue" stroke="midnightblue" points="128.04,-85.59 124.54,-75.59 121.04,-85.59 128.04,-85.59"/>
</g>
<!-- Node7&#45;&gt;Node6 -->
<g id="edge9" class="edge">
<title>Node7&#45;&gt;Node6</title>
<path fill="none" stroke="midnightblue" d="M113.61,-168.32C103.36,-160.18 87.82,-147.84 75.54,-138.09"/>
<polygon fill="midnightblue" stroke="midnightblue" points="77.67,-135.31 67.66,-131.83 73.32,-140.79 77.67,-135.31"/>
</g>
<!-- Node8&#45;&gt;Node4 -->
<g id="edge11" class="edge">
<title>Node8&#45;&gt;Node4</title>
<path fill="none" stroke="midnightblue" d="M184.97,-112.32C174.12,-104.18 157.66,-91.84 144.65,-82.09"/>
<polygon fill="midnightblue" stroke="midnightblue" points="146.42,-79.03 136.32,-75.83 142.22,-84.63 146.42,-79.03"/>
</g>
<!-- Node9&#45;&gt;Node4 -->
<g id="edge13" class="edge">
<title>Node9&#45;&gt;Node4</title>
<path fill="none" stroke="midnightblue" d="M269.92,-224.19C272.83,-202.42 277.17,-145.44 249.54,-112 231.38,-90.02 201.62,-78.78 175.69,-73.02"/>
<polygon fill="midnightblue" stroke="midnightblue" points="176.1,-69.54 165.61,-71.01 174.73,-76.4 176.1,-69.54"/>
</g>
<!-- Node10&#45;&gt;Node3 -->
<g id="edge15" class="edge">
<title>Node10&#45;&gt;Node3</title>
<path fill="none" stroke="midnightblue" d="M176.97,-280.32C166.12,-272.18 149.66,-259.84 136.65,-250.09"/>
<polygon fill="midnightblue" stroke="midnightblue" points="138.42,-247.03 128.32,-243.83 134.22,-252.63 138.42,-247.03"/>
</g>
</g>
</svg>
