<?xml version="1.0" encoding="UTF-8" standalone="no"?>
<!DOCTYPE svg PUBLIC "-//W3C//DTD SVG 1.1//EN"
 "http://www.w3.org/Graphics/SVG/1.1/DTD/svg11.dtd">
<!-- Generated by graphviz version 2.43.0 (0)
 -->
<!-- Title: libccc/sys/io.h Pages: 1 -->
<svg width="354pt" height="364pt"
 viewBox="0.00 0.00 354.01 364.00" xmlns="http://www.w3.org/2000/svg" xmlns:xlink="http://www.w3.org/1999/xlink">
<g id="graph0" class="graph" transform="scale(1 1) rotate(0) translate(4 360)">
<title>libccc/sys/io.h</title>
<polygon fill="white" stroke="transparent" points="-4,4 -4,-360 350.01,-360 350.01,4 -4,4"/>
<!-- Node1 -->
<g id="node1" class="node">
<title>Node1</title>
<g id="a_node1"><a xlink:title=" ">
<polygon fill="#bfbfbf" stroke="black" points="111.51,-336.5 111.51,-355.5 206.51,-355.5 206.51,-336.5 111.51,-336.5"/>
<text text-anchor="middle" x="159.01" y="-343.5" font-family="Consolas" font-size="10.00">libccc/sys/io.h</text>
</a>
</g>
</g>
<!-- Node2 -->
<g id="node2" class="node">
<title>Node2</title>
<g id="a_node2"><a xlink:title=" ">
<polygon fill="white" stroke="#bfbfbf" points="33.51,-280.5 33.51,-299.5 86.51,-299.5 86.51,-280.5 33.51,-280.5"/>
<text text-anchor="middle" x="60.01" y="-287.5" font-family="Consolas" font-size="10.00">fcntl.h</text>
</a>
</g>
</g>
<!-- Node1&#45;&gt;Node2 -->
<g id="edge1" class="edge">
<title>Node1&#45;&gt;Node2</title>
<path fill="none" stroke="midnightblue" d="M143.11,-336.32C127.37,-327.74 103.07,-314.49 84.8,-304.52"/>
<polygon fill="midnightblue" stroke="midnightblue" points="86.33,-301.37 75.88,-299.65 82.98,-307.52 86.33,-301.37"/>
</g>
<!-- Node3 -->
<g id="node3" class="node">
<title>Node3</title>
<g id="a_node3"><a xlink:href="libccc_8h.html" target="_top" xlink:title=" ">
<polygon fill="white" stroke="black" points="98.51,-224.5 98.51,-243.5 157.51,-243.5 157.51,-224.5 98.51,-224.5"/>
<text text-anchor="middle" x="128.01" y="-231.5" font-family="Consolas" font-size="10.00">libccc.h</text>
</a>
</g>
</g>
<!-- Node1&#45;&gt;Node3 -->
<g id="edge2" class="edge">
<title>Node1&#45;&gt;Node3</title>
<path fill="none" stroke="midnightblue" d="M152.66,-336.2C146.73,-327.47 138.18,-313.49 134.01,-300 129.36,-284.93 127.99,-267.02 127.71,-253.83"/>
<polygon fill="midnightblue" stroke="midnightblue" points="131.21,-253.62 127.69,-243.63 124.21,-253.64 131.21,-253.62"/>
</g>
<!-- Node9 -->
<g id="node9" class="node">
<title>Node9</title>
<g id="a_node9"><a xlink:href="ansi_8h.html" target="_top" xlink:title=" ">
<polygon fill="white" stroke="black" points="240.01,-224.5 240.01,-243.5 346.01,-243.5 346.01,-224.5 240.01,-224.5"/>
<text text-anchor="middle" x="293.01" y="-231.5" font-family="Consolas" font-size="10.00">libccc/sys/ansi.h</text>
</a>
</g>
</g>
<!-- Node1&#45;&gt;Node9 -->
<g id="edge12" class="edge">
<title>Node1&#45;&gt;Node9</title>
<path fill="none" stroke="midnightblue" d="M206.61,-336.62C229.85,-330.24 256.5,-319.14 274.01,-300 285.54,-287.41 290.1,-268.19 291.89,-253.91"/>
<polygon fill="midnightblue" stroke="midnightblue" points="295.4,-254.02 292.81,-243.75 288.42,-253.39 295.4,-254.02"/>
</g>
<!-- Node10 -->
<g id="node10" class="node">
<title>Node10</title>
<g id="a_node10"><a xlink:href="color_8h.html" target="_top" xlink:title=" ">
<polygon fill="white" stroke="black" points="143.01,-280.5 143.01,-299.5 265.01,-299.5 265.01,-280.5 143.01,-280.5"/>
<text text-anchor="middle" x="204.01" y="-287.5" font-family="Consolas" font-size="10.00">libccc/image/color.h</text>
</a>
</g>
</g>
<!-- Node1&#45;&gt;Node10 -->
<g id="edge14" class="edge">
<title>Node1&#45;&gt;Node10</title>
<path fill="none" stroke="midnightblue" d="M166.44,-336.08C172.86,-328.38 182.32,-317.03 190.13,-307.65"/>
<polygon fill="midnightblue" stroke="midnightblue" points="193.01,-309.67 196.72,-299.75 187.63,-305.19 193.01,-309.67"/>
</g>
<!-- Node4 -->
<g id="node4" class="node">
<title>Node4</title>
<g id="a_node4"><a xlink:href="libccc__define_8h.html" target="_top" xlink:title=" ">
<polygon fill="white" stroke="black" points="93.51,-56.5 93.51,-75.5 188.51,-75.5 188.51,-56.5 93.51,-56.5"/>
<text text-anchor="middle" x="141.01" y="-63.5" font-family="Consolas" font-size="10.00">libccc_define.h</text>
</a>
</g>
</g>
<!-- Node3&#45;&gt;Node4 -->
<g id="edge3" class="edge">
<title>Node3&#45;&gt;Node4</title>
<path fill="none" stroke="midnightblue" d="M106.74,-224.37C63.87,-205.72 -26.05,-159.48 8.01,-112 25.22,-88.01 55.92,-76.65 83.49,-71.33"/>
<polygon fill="midnightblue" stroke="midnightblue" points="84.2,-74.76 93.48,-69.64 83.03,-67.86 84.2,-74.76"/>
</g>
<!-- Node6 -->
<g id="node6" class="node">
<title>Node6</title>
<g id="a_node6"><a xlink:href="libccc__errors_8h.html" target="_top" xlink:title=" ">
<polygon fill="white" stroke="black" points="17.51,-112.5 17.51,-131.5 112.51,-131.5 112.51,-112.5 17.51,-112.5"/>
<text text-anchor="middle" x="65.01" y="-119.5" font-family="Consolas" font-size="10.00">libccc_errors.h</text>
</a>
</g>
</g>
<!-- Node3&#45;&gt;Node6 -->
<g id="edge5" class="edge">
<title>Node3&#45;&gt;Node6</title>
<path fill="none" stroke="midnightblue" d="M116.67,-224.18C106.7,-215.86 92.51,-202.52 84.01,-188 75.57,-173.57 70.65,-155.12 67.93,-141.56"/>
<polygon fill="midnightblue" stroke="midnightblue" points="71.35,-140.76 66.15,-131.52 64.45,-141.98 71.35,-140.76"/>
</g>
<!-- Node7 -->
<g id="node7" class="node">
<title>Node7</title>
<g id="a_node7"><a xlink:href="libccc__config_8h.html" target="_top" xlink:title=" ">
<polygon fill="white" stroke="black" points="93.51,-168.5 93.51,-187.5 188.51,-187.5 188.51,-168.5 93.51,-168.5"/>
<text text-anchor="middle" x="141.01" y="-175.5" font-family="Consolas" font-size="10.00">libccc_config.h</text>
</a>
</g>
</g>
<!-- Node3&#45;&gt;Node7 -->
<g id="edge7" class="edge">
<title>Node3&#45;&gt;Node7</title>
<path fill="none" stroke="midnightblue" d="M130.16,-224.08C131.88,-216.93 134.36,-206.64 136.51,-197.69"/>
<polygon fill="midnightblue" stroke="midnightblue" points="139.97,-198.29 138.91,-187.75 133.16,-196.65 139.97,-198.29"/>
</g>
<!-- Node8 -->
<g id="node8" class="node">
<title>Node8</title>
<g id="a_node8"><a xlink:href="libccc__naming_8h.html" target="_top" xlink:title=" ">
<polygon fill="white" stroke="black" points="169.51,-112.5 169.51,-131.5 264.51,-131.5 264.51,-112.5 169.51,-112.5"/>
<text text-anchor="middle" x="217.01" y="-119.5" font-family="Consolas" font-size="10.00">libccc_naming.h</text>
</a>
</g>
</g>
<!-- Node3&#45;&gt;Node8 -->
<g id="edge10" class="edge">
<title>Node3&#45;&gt;Node8</title>
<path fill="none" stroke="midnightblue" d="M148.32,-224.45C163.77,-216.97 184.45,-204.68 197.01,-188 207.22,-174.46 212.26,-155.65 214.73,-141.75"/>
<polygon fill="midnightblue" stroke="midnightblue" points="218.2,-142.26 216.21,-131.85 211.27,-141.23 218.2,-142.26"/>
</g>
<!-- Node5 -->
<g id="node5" class="node">
<title>Node5</title>
<g id="a_node5"><a xlink:title=" ">
<polygon fill="white" stroke="#bfbfbf" points="106.51,-0.5 106.51,-19.5 175.51,-19.5 175.51,-0.5 106.51,-0.5"/>
<text text-anchor="middle" x="141.01" y="-7.5" font-family="Consolas" font-size="10.00">stdalign.h</text>
</a>
</g>
</g>
<!-- Node4&#45;&gt;Node5 -->
<g id="edge4" class="edge">
<title>Node4&#45;&gt;Node5</title>
<path fill="none" stroke="midnightblue" d="M141.01,-56.08C141.01,-49.01 141.01,-38.86 141.01,-29.99"/>
<polygon fill="midnightblue" stroke="midnightblue" points="144.51,-29.75 141.01,-19.75 137.51,-29.75 144.51,-29.75"/>
</g>
<!-- Node6&#45;&gt;Node4 -->
<g id="edge6" class="edge">
<title>Node6&#45;&gt;Node4</title>
<path fill="none" stroke="midnightblue" d="M77.22,-112.32C88.79,-104.11 106.39,-91.6 120.17,-81.81"/>
<polygon fill="midnightblue" stroke="midnightblue" points="122.45,-84.48 128.58,-75.83 118.4,-78.77 122.45,-84.48"/>
</g>
<!-- Node7&#45;&gt;Node4 -->
<g id="edge8" class="edge">
<title>Node7&#45;&gt;Node4</title>
<path fill="none" stroke="midnightblue" d="M141.01,-168.37C141.01,-150.62 141.01,-109.67 141.01,-85.6"/>
<polygon fill="midnightblue" stroke="midnightblue" points="144.51,-85.59 141.01,-75.59 137.51,-85.59 144.51,-85.59"/>
</g>
<!-- Node7&#45;&gt;Node6 -->
<g id="edge9" class="edge">
<title>Node7&#45;&gt;Node6</title>
<path fill="none" stroke="midnightblue" d="M128.8,-168.32C117.24,-160.11 99.64,-147.6 85.85,-137.81"/>
<polygon fill="midnightblue" stroke="midnightblue" points="87.62,-134.77 77.44,-131.83 83.57,-140.48 87.62,-134.77"/>
</g>
<!-- Node8&#45;&gt;Node4 -->
<g id="edge11" class="edge">
<title>Node8&#45;&gt;Node4</title>
<path fill="none" stroke="midnightblue" d="M204.8,-112.32C193.24,-104.11 175.64,-91.6 161.85,-81.81"/>
<polygon fill="midnightblue" stroke="midnightblue" points="163.62,-78.77 153.44,-75.83 159.57,-84.48 163.62,-78.77"/>
</g>
<!-- Node9&#45;&gt;Node4 -->
<g id="edge13" class="edge">
<title>Node9&#45;&gt;Node4</title>
<path fill="none" stroke="midnightblue" d="M294.39,-224.48C297.39,-202.87 302.1,-145.34 274.01,-112 255.42,-89.93 225.58,-78.65 198.88,-72.9"/>
<polygon fill="midnightblue" stroke="midnightblue" points="199.31,-69.42 188.82,-70.96 197.98,-76.29 199.31,-69.42"/>
</g>
<!-- Node10&#45;&gt;Node3 -->
<g id="edge15" class="edge">
<title>Node10&#45;&gt;Node3</title>
<path fill="none" stroke="midnightblue" d="M191.8,-280.32C180.24,-272.11 162.64,-259.6 148.85,-249.81"/>
<polygon fill="midnightblue" stroke="midnightblue" points="150.62,-246.77 140.44,-243.83 146.57,-252.48 150.62,-246.77"/>
</g>
</g>
</svg>
