<?xml version="1.0" encoding="UTF-8" standalone="no"?>
<!DOCTYPE svg PUBLIC "-//W3C//DTD SVG 1.1//EN"
 "http://www.w3.org/Graphics/SVG/1.1/DTD/svg11.dtd">
<!-- Generated by graphviz version 2.43.0 (0)
 -->
<!-- Title: libccc/sys/io.h Pages: 1 -->
<!--zoomable 364 -->
<svg id="main" version="1.1" xmlns="http://www.w3.org/2000/svg" xmlns:xlink="http://www.w3.org/1999/xlink" xml:space="preserve" onload="init(evt)">
<style type="text/css"><![CDATA[
.edge:hover path { stroke: red; }
.edge:hover polygon { stroke: red; fill: red; }
]]></style>
<script type="text/javascript"><![CDATA[
var edges = document.getElementsByTagName('g');
if (edges && edges.length) {
  for (var i=0;i<edges.length;i++) {
    if (edges[i].id.substr(0,4)=='edge') {
      edges[i].setAttribute('class','edge');
    }
  }
}
]]></script>
        <defs>
                <circle id="rim" cx="0" cy="0" r="7"/>
                <circle id="rim2" cx="0" cy="0" r="3.5"/>
                <g id="zoomPlus">
                        <use xlink:href="#rim" fill="#404040">
                                <set attributeName="fill" to="#808080" begin="zoomplus.mouseover" end="zoomplus.mouseout"/>
                        </use>
                        <path d="M-4,0h8M0,-4v8" fill="none" stroke="white" stroke-width="1.5" pointer-events="none"/>
                </g>
                <g id="zoomMin">
                        <use xlink:href="#rim" fill="#404040">
                                <set attributeName="fill" to="#808080" begin="zoomminus.mouseover" end="zoomminus.mouseout"/>
                        </use>
                        <path d="M-4,0h8" fill="none" stroke="white" stroke-width="1.5" pointer-events="none"/>
                </g>
                <g id="dirArrow">
                        <path fill="none" stroke="white" stroke-width="1.5" d="M0,-3.0v7 M-2.5,-0.5L0,-3.0L2.5,-0.5"/>
                </g>
               <g id="resetDef">
                       <use xlink:href="#rim2" fill="#404040">
                               <set attributeName="fill" to="#808080" begin="reset.mouseover" end="reset.mouseout"/>
                       </use>
               </g>
        </defs>

<script type="text/javascript">
var viewWidth = 964;
var viewHeight = 364;
var sectionId = 'dynsection-0';
</script>
<script xlink:href="svgpan.js"/>
<svg id="graph" class="graph">
<g id="viewport">
<title>libccc/sys/io.h</title>
<polygon fill="white" stroke="transparent" points="-4,4 -4,-360 959.5,-360 959.5,4 -4,4"/>
<!-- Node1 -->
<g id="node1" class="node">
<title>Node1</title>
<g id="a_node1"><a xlink:title=" ">
<polygon fill="#bfbfbf" stroke="black" points="195,-336.5 195,-355.5 290,-355.5 290,-336.5 195,-336.5"/>
<text text-anchor="middle" x="242.5" y="-343.5" font-family="Consolas" font-size="10.00">libccc/sys/io.h</text>
</a>
</g>
</g>
<!-- Node2 -->
<g id="node2" class="node">
<title>Node2</title>
<g id="a_node2"><a xlink:title=" ">
<polygon fill="white" stroke="#bfbfbf" points="117,-280.5 117,-299.5 170,-299.5 170,-280.5 117,-280.5"/>
<text text-anchor="middle" x="143.5" y="-287.5" font-family="Consolas" font-size="10.00">fcntl.h</text>
</a>
</g>
</g>
<!-- Node1&#45;&gt;Node2 -->
<g id="edge1" class="edge">
<title>Node1&#45;&gt;Node2</title>
<path fill="none" stroke="midnightblue" d="M226.59,-336.32C210.86,-327.74 186.56,-314.49 168.29,-304.52"/>
<polygon fill="midnightblue" stroke="midnightblue" points="169.82,-301.37 159.37,-299.65 166.47,-307.52 169.82,-301.37"/>
</g>
<!-- Node3 -->
<g id="node3" class="node">
<title>Node3</title>
<g id="a_node3"><a xlink:href="libccc_8h.html" target="_top" xlink:title=" ">
<polygon fill="white" stroke="black" points="246,-224.5 246,-243.5 305,-243.5 305,-224.5 246,-224.5"/>
<text text-anchor="middle" x="275.5" y="-231.5" font-family="Consolas" font-size="10.00">libccc.h</text>
</a>
</g>
</g>
<!-- Node1&#45;&gt;Node3 -->
<g id="edge2" class="edge">
<title>Node1&#45;&gt;Node3</title>
<path fill="none" stroke="midnightblue" d="M234.67,-336.38C224.18,-323.74 207.93,-299.54 217.5,-280 224.02,-266.68 236.6,-256.18 248.37,-248.68"/>
<polygon fill="midnightblue" stroke="midnightblue" points="250.27,-251.62 257.11,-243.53 246.72,-245.59 250.27,-251.62"/>
</g>
<!-- Node18 -->
<g id="node18" class="node">
<title>Node18</title>
<g id="a_node18"><a xlink:href="ansi_8h.html" target="_top" xlink:title=" ">
<polygon fill="white" stroke="black" points="323.5,-224.5 323.5,-243.5 429.5,-243.5 429.5,-224.5 323.5,-224.5"/>
<text text-anchor="middle" x="376.5" y="-231.5" font-family="Consolas" font-size="10.00">libccc/sys/ansi.h</text>
</a>
</g>
</g>
<!-- Node1&#45;&gt;Node18 -->
<g id="edge25" class="edge">
<title>Node1&#45;&gt;Node18</title>
<path fill="none" stroke="midnightblue" d="M290.1,-336.62C313.34,-330.24 339.99,-319.14 357.5,-300 369.02,-287.41 373.59,-268.19 375.38,-253.91"/>
<polygon fill="midnightblue" stroke="midnightblue" points="378.88,-254.02 376.3,-243.75 371.91,-253.39 378.88,-254.02"/>
</g>
<!-- Node19 -->
<g id="node19" class="node">
<title>Node19</title>
<g id="a_node19"><a xlink:href="color_8h.html" target="_top" xlink:title=" ">
<polygon fill="white" stroke="black" points="226.5,-280.5 226.5,-299.5 348.5,-299.5 348.5,-280.5 226.5,-280.5"/>
<text text-anchor="middle" x="287.5" y="-287.5" font-family="Consolas" font-size="10.00">libccc/image/color.h</text>
</a>
</g>
</g>
<!-- Node1&#45;&gt;Node19 -->
<g id="edge27" class="edge">
<title>Node1&#45;&gt;Node19</title>
<path fill="none" stroke="midnightblue" d="M249.93,-336.08C256.35,-328.38 265.81,-317.03 273.62,-307.65"/>
<polygon fill="midnightblue" stroke="midnightblue" points="276.49,-309.67 280.21,-299.75 271.12,-305.19 276.49,-309.67"/>
</g>
<!-- Node4 -->
<g id="node4" class="node">
<title>Node4</title>
<g id="a_node4"><a xlink:href="libccc__define_8h.html" target="_top" xlink:title=" ">
<polygon fill="white" stroke="black" points="114,-56.5 114,-75.5 209,-75.5 209,-56.5 114,-56.5"/>
<text text-anchor="middle" x="161.5" y="-63.5" font-family="Consolas" font-size="10.00">libccc_define.h</text>
</a>
</g>
</g>
<!-- Node3&#45;&gt;Node4 -->
<g id="edge3" class="edge">
<title>Node3&#45;&gt;Node4</title>
<path fill="none" stroke="midnightblue" d="M245.92,-232.37C214.42,-229.93 165.94,-220.68 142.5,-188 120.18,-156.88 138.67,-109.66 151.59,-84.4"/>
<polygon fill="midnightblue" stroke="midnightblue" points="154.68,-86.05 156.34,-75.59 148.51,-82.73 154.68,-86.05"/>
</g>
<!-- Node6 -->
<g id="node6" class="node">
<title>Node6</title>
<g id="a_node6"><a xlink:href="libccc__errors_8h.html" target="_top" xlink:title=" ">
<polygon fill="white" stroke="black" points="190,-112.5 190,-131.5 285,-131.5 285,-112.5 190,-112.5"/>
<text text-anchor="middle" x="237.5" y="-119.5" font-family="Consolas" font-size="10.00">libccc_errors.h</text>
</a>
</g>
</g>
<!-- Node3&#45;&gt;Node6 -->
<g id="edge5" class="edge">
<title>Node3&#45;&gt;Node6</title>
<path fill="none" stroke="midnightblue" d="M273.01,-224.09C269.43,-211.5 262.5,-187.82 255.5,-168 252.31,-158.96 248.39,-149.06 245.03,-140.85"/>
<polygon fill="midnightblue" stroke="midnightblue" points="248.23,-139.44 241.16,-131.55 241.77,-142.12 248.23,-139.44"/>
</g>
<!-- Node7 -->
<g id="node7" class="node">
<title>Node7</title>
<g id="a_node7"><a xlink:href="libccc__config_8h.html" target="_top" xlink:title=" ">
<polygon fill="white" stroke="black" points="152,-168.5 152,-187.5 247,-187.5 247,-168.5 152,-168.5"/>
<text text-anchor="middle" x="199.5" y="-175.5" font-family="Consolas" font-size="10.00">libccc_config.h</text>
</a>
</g>
</g>
<!-- Node3&#45;&gt;Node7 -->
<g id="edge7" class="edge">
<title>Node3&#45;&gt;Node7</title>
<path fill="none" stroke="midnightblue" d="M263.29,-224.32C251.72,-216.11 234.12,-203.6 220.34,-193.81"/>
<polygon fill="midnightblue" stroke="midnightblue" points="222.11,-190.77 211.93,-187.83 218.06,-196.48 222.11,-190.77"/>
</g>
<!-- Node8 -->
<g id="node8" class="node">
<title>Node8</title>
<g id="a_node8"><a xlink:href="libccc__naming_8h.html" target="_top" xlink:title=" ">
<polygon fill="white" stroke="black" points="0,-168.5 0,-187.5 95,-187.5 95,-168.5 0,-168.5"/>
<text text-anchor="middle" x="47.5" y="-175.5" font-family="Consolas" font-size="10.00">libccc_naming.h</text>
</a>
</g>
</g>
<!-- Node3&#45;&gt;Node8 -->
<g id="edge10" class="edge">
<title>Node3&#45;&gt;Node8</title>
<path fill="none" stroke="midnightblue" d="M245.69,-225.94C206.98,-216.77 138.99,-200.67 93.6,-189.92"/>
<polygon fill="midnightblue" stroke="midnightblue" points="94.25,-186.47 83.71,-187.58 92.63,-193.29 94.25,-186.47"/>
</g>
<!-- Node9 -->
<g id="node9" class="node">
<title>Node9</title>
<g id="a_node9"><a xlink:href="math_8h.html" target="_top" xlink:title=" ">
<polygon fill="white" stroke="black" points="569.5,-168.5 569.5,-187.5 617.5,-187.5 617.5,-168.5 569.5,-168.5"/>
<text text-anchor="middle" x="593.5" y="-175.5" font-family="Consolas" font-size="10.00">math.h</text>
</a>
</g>
</g>
<!-- Node3&#45;&gt;Node9 -->
<g id="edge12" class="edge">
<title>Node3&#45;&gt;Node9</title>
<path fill="none" stroke="midnightblue" d="M305.27,-225.91C308.38,-225.24 311.5,-224.59 314.5,-224 402.11,-206.84 506.14,-191.34 558.98,-183.81"/>
<polygon fill="midnightblue" stroke="midnightblue" points="559.74,-187.24 569.15,-182.37 558.75,-180.31 559.74,-187.24"/>
</g>
<!-- Node5 -->
<g id="node5" class="node">
<title>Node5</title>
<g id="a_node5"><a xlink:title=" ">
<polygon fill="white" stroke="#bfbfbf" points="127,-0.5 127,-19.5 196,-19.5 196,-0.5 127,-0.5"/>
<text text-anchor="middle" x="161.5" y="-7.5" font-family="Consolas" font-size="10.00">stdalign.h</text>
</a>
</g>
</g>
<!-- Node4&#45;&gt;Node5 -->
<g id="edge4" class="edge">
<title>Node4&#45;&gt;Node5</title>
<path fill="none" stroke="midnightblue" d="M161.5,-56.08C161.5,-49.01 161.5,-38.86 161.5,-29.99"/>
<polygon fill="midnightblue" stroke="midnightblue" points="165,-29.75 161.5,-19.75 158,-29.75 165,-29.75"/>
</g>
<!-- Node6&#45;&gt;Node4 -->
<g id="edge6" class="edge">
<title>Node6&#45;&gt;Node4</title>
<path fill="none" stroke="midnightblue" d="M225.29,-112.32C213.72,-104.11 196.12,-91.6 182.34,-81.81"/>
<polygon fill="midnightblue" stroke="midnightblue" points="184.11,-78.77 173.93,-75.83 180.06,-84.48 184.11,-78.77"/>
</g>
<!-- Node7&#45;&gt;Node4 -->
<g id="edge8" class="edge">
<title>Node7&#45;&gt;Node4</title>
<path fill="none" stroke="midnightblue" d="M195.56,-168.49C191.49,-159.53 185.11,-144.94 180.5,-132 174.96,-116.42 169.77,-98.35 166.22,-85.22"/>
<polygon fill="midnightblue" stroke="midnightblue" points="169.6,-84.29 163.65,-75.51 162.83,-86.08 169.6,-84.29"/>
</g>
<!-- Node7&#45;&gt;Node6 -->
<g id="edge9" class="edge">
<title>Node7&#45;&gt;Node6</title>
<path fill="none" stroke="midnightblue" d="M205.77,-168.08C211.14,-160.46 219.02,-149.26 225.58,-139.94"/>
<polygon fill="midnightblue" stroke="midnightblue" points="228.45,-141.94 231.34,-131.75 222.72,-137.91 228.45,-141.94"/>
</g>
<!-- Node8&#45;&gt;Node4 -->
<g id="edge11" class="edge">
<title>Node8&#45;&gt;Node4</title>
<path fill="none" stroke="midnightblue" d="M55.27,-168.33C66.78,-155.63 89.18,-131.36 109.5,-112 120.3,-101.71 132.96,-90.74 143.07,-82.2"/>
<polygon fill="midnightblue" stroke="midnightblue" points="145.45,-84.78 150.88,-75.68 140.96,-79.41 145.45,-84.78"/>
</g>
<!-- Node10 -->
<g id="node10" class="node">
<title>Node10</title>
<g id="a_node10"><a xlink:href="constants_8h.html" target="_top" xlink:title=" ">
<polygon fill="white" stroke="black" points="380,-112.5 380,-131.5 517,-131.5 517,-112.5 380,-112.5"/>
<text text-anchor="middle" x="448.5" y="-119.5" font-family="Consolas" font-size="10.00">libccc/math/constants.h</text>
</a>
</g>
</g>
<!-- Node9&#45;&gt;Node10 -->
<g id="edge13" class="edge">
<title>Node9&#45;&gt;Node10</title>
<path fill="none" stroke="midnightblue" d="M570.52,-168.44C546.34,-159.44 508.08,-145.19 480.85,-135.05"/>
<polygon fill="midnightblue" stroke="midnightblue" points="481.96,-131.73 471.37,-131.52 479.52,-138.29 481.96,-131.73"/>
</g>
<!-- Node12 -->
<g id="node12" class="node">
<title>Node12</title>
<g id="a_node12"><a xlink:href="math_2int_8h.html" target="_top" xlink:title=" ">
<polygon fill="white" stroke="black" points="803.5,-112.5 803.5,-131.5 909.5,-131.5 909.5,-112.5 803.5,-112.5"/>
<text text-anchor="middle" x="856.5" y="-119.5" font-family="Consolas" font-size="10.00">libccc/math/int.h</text>
</a>
</g>
</g>
<!-- Node9&#45;&gt;Node12 -->
<g id="edge16" class="edge">
<title>Node9&#45;&gt;Node12</title>
<path fill="none" stroke="midnightblue" d="M617.77,-172.02C660.12,-163.32 748.37,-145.2 804.9,-133.6"/>
<polygon fill="midnightblue" stroke="midnightblue" points="805.63,-137.02 814.72,-131.58 804.22,-130.16 805.63,-137.02"/>
</g>
<!-- Node15 -->
<g id="node15" class="node">
<title>Node15</title>
<g id="a_node15"><a xlink:href="math_2fixed_8h.html" target="_top" xlink:title=" ">
<polygon fill="white" stroke="black" points="669.5,-112.5 669.5,-131.5 785.5,-131.5 785.5,-112.5 669.5,-112.5"/>
<text text-anchor="middle" x="727.5" y="-119.5" font-family="Consolas" font-size="10.00">libccc/math/fixed.h</text>
</a>
</g>
</g>
<!-- Node9&#45;&gt;Node15 -->
<g id="edge20" class="edge">
<title>Node9&#45;&gt;Node15</title>
<path fill="none" stroke="midnightblue" d="M614.73,-168.44C636.88,-159.52 671.82,-145.44 696.94,-135.32"/>
<polygon fill="midnightblue" stroke="midnightblue" points="698.4,-138.5 706.37,-131.52 695.78,-132.01 698.4,-138.5"/>
</g>
<!-- Node17 -->
<g id="node17" class="node">
<title>Node17</title>
<g id="a_node17"><a xlink:href="math_2float_8h.html" target="_top" xlink:title=" ">
<polygon fill="white" stroke="black" points="535.5,-112.5 535.5,-131.5 651.5,-131.5 651.5,-112.5 535.5,-112.5"/>
<text text-anchor="middle" x="593.5" y="-119.5" font-family="Consolas" font-size="10.00">libccc/math/float.h</text>
</a>
</g>
</g>
<!-- Node9&#45;&gt;Node17 -->
<g id="edge23" class="edge">
<title>Node9&#45;&gt;Node17</title>
<path fill="none" stroke="midnightblue" d="M593.5,-168.08C593.5,-161.01 593.5,-150.86 593.5,-141.99"/>
<polygon fill="midnightblue" stroke="midnightblue" points="597,-141.75 593.5,-131.75 590,-141.75 597,-141.75"/>
</g>
<!-- Node11 -->
<g id="node11" class="node">
<title>Node11</title>
<g id="a_node11"><a xlink:href="float_8h.html" target="_top" xlink:title=" ">
<polygon fill="white" stroke="black" points="403.5,-56.5 403.5,-75.5 493.5,-75.5 493.5,-56.5 403.5,-56.5"/>
<text text-anchor="middle" x="448.5" y="-63.5" font-family="Consolas" font-size="10.00">libccc/float.h</text>
</a>
</g>
</g>
<!-- Node10&#45;&gt;Node11 -->
<g id="edge14" class="edge">
<title>Node10&#45;&gt;Node11</title>
<path fill="none" stroke="midnightblue" d="M448.5,-112.08C448.5,-105.01 448.5,-94.86 448.5,-85.99"/>
<polygon fill="midnightblue" stroke="midnightblue" points="452,-85.75 448.5,-75.75 445,-85.75 452,-85.75"/>
</g>
<!-- Node11&#45;&gt;Node3 -->
<g id="edge15" class="edge">
<title>Node11&#45;&gt;Node3</title>
<path fill="none" stroke="midnightblue" d="M429.23,-75.54C412.59,-83.49 388.46,-96.43 370.5,-112 334.16,-143.51 301.93,-190.57 286.02,-215.7"/>
<polygon fill="midnightblue" stroke="midnightblue" points="282.88,-214.13 280.57,-224.47 288.82,-217.82 282.88,-214.13"/>
</g>
<!-- Node13 -->
<g id="node13" class="node">
<title>Node13</title>
<g id="a_node13"><a xlink:href="int_8h.html" target="_top" xlink:title=" ">
<polygon fill="white" stroke="black" points="875.5,-56.5 875.5,-75.5 955.5,-75.5 955.5,-56.5 875.5,-56.5"/>
<text text-anchor="middle" x="915.5" y="-63.5" font-family="Consolas" font-size="10.00">libccc/int.h</text>
</a>
</g>
</g>
<!-- Node12&#45;&gt;Node13 -->
<g id="edge17" class="edge">
<title>Node12&#45;&gt;Node13</title>
<path fill="none" stroke="midnightblue" d="M865.98,-112.32C874.7,-104.34 887.84,-92.31 898.4,-82.65"/>
<polygon fill="midnightblue" stroke="midnightblue" points="900.83,-85.17 905.85,-75.83 896.11,-80 900.83,-85.17"/>
</g>
<!-- Node13&#45;&gt;Node3 -->
<g id="edge19" class="edge">
<title>Node13&#45;&gt;Node3</title>
<path fill="none" stroke="midnightblue" d="M922.39,-75.83C931.57,-88.74 945.53,-113.26 935.5,-132 914.33,-171.56 893.98,-173.57 851.5,-188 628.11,-263.89 553.18,-191.04 315.21,-224.19"/>
<polygon fill="midnightblue" stroke="midnightblue" points="314.62,-220.74 305.22,-225.63 315.61,-227.66 314.62,-220.74"/>
</g>
<!-- Node14 -->
<g id="node14" class="node">
<title>Node14</title>
<g id="a_node14"><a xlink:title=" ">
<polygon fill="white" stroke="#bfbfbf" points="886,-0.5 886,-19.5 945,-19.5 945,-0.5 886,-0.5"/>
<text text-anchor="middle" x="915.5" y="-7.5" font-family="Consolas" font-size="10.00">stdint.h</text>
</a>
</g>
</g>
<!-- Node13&#45;&gt;Node14 -->
<g id="edge18" class="edge">
<title>Node13&#45;&gt;Node14</title>
<path fill="none" stroke="midnightblue" d="M915.5,-56.08C915.5,-49.01 915.5,-38.86 915.5,-29.99"/>
<polygon fill="midnightblue" stroke="midnightblue" points="919,-29.75 915.5,-19.75 912,-29.75 919,-29.75"/>
</g>
<!-- Node16 -->
<g id="node16" class="node">
<title>Node16</title>
<g id="a_node16"><a xlink:href="fixed_8h.html" target="_top" xlink:title=" ">
<polygon fill="white" stroke="black" points="724.5,-56.5 724.5,-75.5 814.5,-75.5 814.5,-56.5 724.5,-56.5"/>
<text text-anchor="middle" x="769.5" y="-63.5" font-family="Consolas" font-size="10.00">libccc/fixed.h</text>
</a>
</g>
</g>
<!-- Node15&#45;&gt;Node16 -->
<g id="edge21" class="edge">
<title>Node15&#45;&gt;Node16</title>
<path fill="none" stroke="midnightblue" d="M734.44,-112.08C740.43,-104.38 749.25,-93.03 756.55,-83.65"/>
<polygon fill="midnightblue" stroke="midnightblue" points="759.32,-85.79 762.69,-75.75 753.79,-81.5 759.32,-85.79"/>
</g>
<!-- Node16&#45;&gt;Node3 -->
<g id="edge22" class="edge">
<title>Node16&#45;&gt;Node3</title>
<path fill="none" stroke="midnightblue" d="M814.73,-71.03C869.25,-77.63 949.87,-94.04 918.5,-132 833.95,-234.3 465.38,-202.45 315.24,-224.19"/>
<polygon fill="midnightblue" stroke="midnightblue" points="314.57,-220.75 305.24,-225.78 315.67,-227.67 314.57,-220.75"/>
</g>
<!-- Node17&#45;&gt;Node11 -->
<g id="edge24" class="edge">
<title>Node17&#45;&gt;Node11</title>
<path fill="none" stroke="midnightblue" d="M570.52,-112.44C546.34,-103.44 508.08,-89.19 480.85,-79.05"/>
<polygon fill="midnightblue" stroke="midnightblue" points="481.96,-75.73 471.37,-75.52 479.52,-82.29 481.96,-75.73"/>
</g>
<!-- Node18&#45;&gt;Node4 -->
<g id="edge26" class="edge">
<title>Node18&#45;&gt;Node4</title>
<path fill="none" stroke="midnightblue" d="M372.88,-224.26C363.3,-202.17 335.1,-143.56 293.5,-112 271.89,-95.6 243.9,-84.94 219.26,-78.13"/>
<polygon fill="midnightblue" stroke="midnightblue" points="219.86,-74.67 209.3,-75.53 218.09,-81.44 219.86,-74.67"/>
</g>
<!-- Node19&#45;&gt;Node3 -->
<g id="edge28" class="edge">
<title>Node19&#45;&gt;Node3</title>
<path fill="none" stroke="midnightblue" d="M285.52,-280.08C283.93,-272.93 281.64,-262.64 279.65,-253.69"/>
<polygon fill="midnightblue" stroke="midnightblue" points="283.03,-252.75 277.44,-243.75 276.2,-254.27 283.03,-252.75"/>
</g>
</g>
</svg>
        <g id="navigator" transform="translate(0 0)" fill="#404254">
                <rect fill="#f2f5e9" fill-opacity="0.5" stroke="#606060" stroke-width=".5" x="0" y="0" width="60" height="60"/>
                <use id="zoomplus" xlink:href="#zoomPlus" x="17" y="9" onmousedown="handleZoom(evt,'in')"/>
                <use id="zoomminus" xlink:href="#zoomMin" x="42" y="9" onmousedown="handleZoom(evt,'out')"/>
                <use id="reset" xlink:href="#resetDef" x="30" y="36" onmousedown="handleReset()"/>
                <g id="arrowUp" xlink:href="#dirArrow" transform="translate(30 24)" onmousedown="handlePan(0,-1)">
                  <use xlink:href="#rim" fill="#404040">
                        <set attributeName="fill" to="#808080" begin="arrowUp.mouseover" end="arrowUp.mouseout"/>
                  </use>
                  <path fill="none" stroke="white" stroke-width="1.5" d="M0,-3.0v7 M-2.5,-0.5L0,-3.0L2.5,-0.5"/>
                </g>
                <g id="arrowRight" xlink:href="#dirArrow" transform="rotate(90) translate(36 -43)" onmousedown="handlePan(1,0)">
                  <use xlink:href="#rim" fill="#404040">
                        <set attributeName="fill" to="#808080" begin="arrowRight.mouseover" end="arrowRight.mouseout"/>
                  </use>
                  <path fill="none" stroke="white" stroke-width="1.5" d="M0,-3.0v7 M-2.5,-0.5L0,-3.0L2.5,-0.5"/>
                </g>
                <g id="arrowDown" xlink:href="#dirArrow" transform="rotate(180) translate(-30 -48)" onmousedown="handlePan(0,1)">
                  <use xlink:href="#rim" fill="#404040">
                        <set attributeName="fill" to="#808080" begin="arrowDown.mouseover" end="arrowDown.mouseout"/>
                  </use>
                  <path fill="none" stroke="white" stroke-width="1.5" d="M0,-3.0v7 M-2.5,-0.5L0,-3.0L2.5,-0.5"/>
                </g>
                <g id="arrowLeft" xlink:href="#dirArrow" transform="rotate(270) translate(-36 17)" onmousedown="handlePan(-1,0)">
                  <use xlink:href="#rim" fill="#404040">
                        <set attributeName="fill" to="#808080" begin="arrowLeft.mouseover" end="arrowLeft.mouseout"/>
                  </use>
                  <path fill="none" stroke="white" stroke-width="1.5" d="M0,-3.0v7 M-2.5,-0.5L0,-3.0L2.5,-0.5"/>
                </g>
        </g>
        <svg viewBox="0 0 15 15" width="100%" height="30px" preserveAspectRatio="xMaxYMin meet">
         <g id="arrow_out" transform="scale(0.3 0.3)">
          <a xlink:href="io_8h__incl_org.svg" target="_base">
           <rect id="button" ry="5" rx="5" y="6" x="6" height="38" width="38"
                fill="#f2f5e9" fill-opacity="0.5" stroke="#606060" stroke-width="1.0"/>
           <path id="arrow"
             d="M 11.500037,31.436501 C 11.940474,20.09759 22.043105,11.32322 32.158766,21.979434 L 37.068811,17.246167 C 37.068811,17.246167 37.088388,32 37.088388,32 L 22.160133,31.978069 C 22.160133,31.978069 26.997745,27.140456 26.997745,27.140456 C 18.528582,18.264221 13.291696,25.230495 11.500037,31.436501 z"
             style="fill:#404040;"/>
          </a>
         </g>
        </svg>
</svg>
