<?xml version="1.0" encoding="UTF-8" standalone="no"?>
<!DOCTYPE svg PUBLIC "-//W3C//DTD SVG 1.1//EN"
 "http://www.w3.org/Graphics/SVG/1.1/DTD/svg11.dtd">
<!-- Generated by graphviz version 3.0.0 (20220226.1711)
 -->
<!-- Title: libccc/sys/io.h Pages: 1 -->
<svg width="334pt" height="364pt"
 viewBox="0.00 0.00 333.53 364.00" xmlns="http://www.w3.org/2000/svg" xmlns:xlink="http://www.w3.org/1999/xlink">
<g id="graph0" class="graph" transform="scale(1 1) rotate(0) translate(4 360)">
<title>libccc/sys/io.h</title>
<polygon fill="white" stroke="transparent" points="-4,4 -4,-360 329.53,-360 329.53,4 -4,4"/>
<!-- Node1 -->
<g id="node1" class="node">
<title>Node1</title>
<g id="a_node1"><a xlink:title=" ">
<polygon fill="#bfbfbf" stroke="black" points="115.53,-336.5 115.53,-355.5 195.53,-355.5 195.53,-336.5 115.53,-336.5"/>
<text text-anchor="middle" x="155.53" y="-343.5" font-family="Consolas" font-size="10.00">libccc/sys/io.h</text>
</a>
</g>
</g>
<!-- Node2 -->
<g id="node2" class="node">
<title>Node2</title>
<g id="a_node2"><a xlink:title=" ">
<polygon fill="white" stroke="#bfbfbf" points="43.53,-280.5 43.53,-299.5 87.53,-299.5 87.53,-280.5 43.53,-280.5"/>
<text text-anchor="middle" x="65.53" y="-287.5" font-family="Consolas" font-size="10.00">fcntl.h</text>
</a>
</g>
</g>
<!-- Node1&#45;&gt;Node2 -->
<g id="edge1" class="edge">
<title>Node1&#45;&gt;Node2</title>
<path fill="none" stroke="midnightblue" d="M141.07,-336.32C127.03,-327.9 105.48,-314.97 88.99,-305.07"/>
<polygon fill="midnightblue" stroke="midnightblue" points="90.33,-301.8 79.96,-299.65 86.73,-307.8 90.33,-301.8"/>
</g>
<!-- Node3 -->
<g id="node3" class="node">
<title>Node3</title>
<g id="a_node3"><a xlink:href="libccc_8h.html" target="_top" xlink:title=" ">
<polygon fill="white" stroke="black" points="90.53,-224.5 90.53,-243.5 140.53,-243.5 140.53,-224.5 90.53,-224.5"/>
<text text-anchor="middle" x="115.53" y="-231.5" font-family="Consolas" font-size="10.00">libccc.h</text>
</a>
</g>
</g>
<!-- Node1&#45;&gt;Node3 -->
<g id="edge2" class="edge">
<title>Node1&#45;&gt;Node3</title>
<path fill="none" stroke="midnightblue" d="M150.94,-336.21C146.38,-327.26 139.4,-312.91 134.53,-300 128.7,-284.53 123.54,-266.44 120.08,-253.28"/>
<polygon fill="midnightblue" stroke="midnightblue" points="123.46,-252.37 117.59,-243.55 116.67,-254.1 123.46,-252.37"/>
</g>
<!-- Node10 -->
<g id="node10" class="node">
<title>Node10</title>
<g id="a_node10"><a xlink:href="ansi_8h.html" target="_top" xlink:title=" ">
<polygon fill="white" stroke="black" points="235.53,-224.5 235.53,-243.5 325.53,-243.5 325.53,-224.5 235.53,-224.5"/>
<text text-anchor="middle" x="280.53" y="-231.5" font-family="Consolas" font-size="10.00">libccc/sys/ansi.h</text>
</a>
</g>
</g>
<!-- Node1&#45;&gt;Node10 -->
<g id="edge13" class="edge">
<title>Node1&#45;&gt;Node10</title>
<path fill="none" stroke="midnightblue" d="M191.96,-336.42C213.3,-329.71 239.34,-318.35 256.53,-300 268.47,-287.25 274.59,-268.06 277.64,-253.83"/>
<polygon fill="midnightblue" stroke="midnightblue" points="281.14,-254.17 279.49,-243.7 274.25,-252.91 281.14,-254.17"/>
</g>
<!-- Node11 -->
<g id="node11" class="node">
<title>Node11</title>
<g id="a_node11"><a xlink:href="image_2color_8h.html" target="_top" xlink:title=" ">
<polygon fill="white" stroke="black" points="144.03,-280.5 144.03,-299.5 247.03,-299.5 247.03,-280.5 144.03,-280.5"/>
<text text-anchor="middle" x="195.53" y="-287.5" font-family="Consolas" font-size="10.00">libccc/image/color.h</text>
</a>
</g>
</g>
<!-- Node1&#45;&gt;Node11 -->
<g id="edge15" class="edge">
<title>Node1&#45;&gt;Node11</title>
<path fill="none" stroke="midnightblue" d="M162.14,-336.08C167.79,-328.46 176.08,-317.26 182.98,-307.94"/>
<polygon fill="midnightblue" stroke="midnightblue" points="185.91,-309.87 189.05,-299.75 180.28,-305.7 185.91,-309.87"/>
</g>
<!-- Node4 -->
<g id="node4" class="node">
<title>Node4</title>
<g id="a_node4"><a xlink:href="libccc__define_8h.html" target="_top" xlink:title=" ">
<polygon fill="white" stroke="black" points="83.53,-56.5 83.53,-75.5 165.53,-75.5 165.53,-56.5 83.53,-56.5"/>
<text text-anchor="middle" x="124.53" y="-63.5" font-family="Consolas" font-size="10.00">libccc_define.h</text>
</a>
</g>
</g>
<!-- Node3&#45;&gt;Node4 -->
<g id="edge3" class="edge">
<title>Node3&#45;&gt;Node4</title>
<path fill="none" stroke="midnightblue" d="M96.84,-224.4C58.25,-205.45 -24.11,-158.07 7.53,-112 22.42,-90.32 49.33,-79.08 73.58,-73.26"/>
<polygon fill="midnightblue" stroke="midnightblue" points="74.38,-76.67 83.42,-71.14 72.91,-69.82 74.38,-76.67"/>
</g>
<!-- Node6 -->
<g id="node6" class="node">
<title>Node6</title>
<g id="a_node6"><a xlink:href="libccc__errors_8h.html" target="_top" xlink:title=" ">
<polygon fill="white" stroke="black" points="16.53,-112.5 16.53,-131.5 96.53,-131.5 96.53,-112.5 16.53,-112.5"/>
<text text-anchor="middle" x="56.53" y="-119.5" font-family="Consolas" font-size="10.00">libccc_errors.h</text>
</a>
</g>
</g>
<!-- Node3&#45;&gt;Node6 -->
<g id="edge5" class="edge">
<title>Node3&#45;&gt;Node6</title>
<path fill="none" stroke="midnightblue" d="M98.24,-224.36C85.07,-216.76 67.83,-204.35 59.53,-188 52.26,-173.68 52.14,-155.21 53.47,-141.63"/>
<polygon fill="midnightblue" stroke="midnightblue" points="56.96,-141.93 54.8,-131.56 50.02,-141.01 56.96,-141.93"/>
</g>
<!-- Node7 -->
<g id="node7" class="node">
<title>Node7</title>
<g id="a_node7"><a xlink:href="libccc__config_8h.html" target="_top" xlink:title=" ">
<polygon fill="white" stroke="black" points="68.53,-168.5 68.53,-187.5 150.53,-187.5 150.53,-168.5 68.53,-168.5"/>
<text text-anchor="middle" x="109.53" y="-175.5" font-family="Consolas" font-size="10.00">libccc_config.h</text>
</a>
</g>
</g>
<!-- Node3&#45;&gt;Node7 -->
<g id="edge7" class="edge">
<title>Node3&#45;&gt;Node7</title>
<path fill="none" stroke="midnightblue" d="M114.54,-224.08C113.75,-216.93 112.6,-206.64 111.61,-197.69"/>
<polygon fill="midnightblue" stroke="midnightblue" points="115.09,-197.3 110.5,-187.75 108.13,-198.08 115.09,-197.3"/>
</g>
<!-- Node8 -->
<g id="node8" class="node">
<title>Node8</title>
<g id="a_node8"><a xlink:href="libccc__naming_8h.html" target="_top" xlink:title=" ">
<polygon fill="white" stroke="black" points="153.03,-112.5 153.03,-131.5 240.03,-131.5 240.03,-112.5 153.03,-112.5"/>
<text text-anchor="middle" x="196.53" y="-119.5" font-family="Consolas" font-size="10.00">libccc_naming.h</text>
</a>
</g>
</g>
<!-- Node3&#45;&gt;Node8 -->
<g id="edge10" class="edge">
<title>Node3&#45;&gt;Node8</title>
<path fill="none" stroke="midnightblue" d="M125.37,-224.33C134.82,-215.7 149.14,-201.79 159.53,-188 170.74,-173.13 181,-154.51 187.86,-141.02"/>
<polygon fill="midnightblue" stroke="midnightblue" points="191.1,-142.36 192.4,-131.85 184.83,-139.26 191.1,-142.36"/>
</g>
<!-- Node9 -->
<g id="node9" class="node">
<title>Node9</title>
<g id="a_node9"><a xlink:title=" ">
<polygon fill="white" stroke="#bfbfbf" points="207.03,-168.5 207.03,-187.5 254.03,-187.5 254.03,-168.5 207.03,-168.5"/>
<text text-anchor="middle" x="230.53" y="-175.5" font-family="Consolas" font-size="10.00">math.h</text>
</a>
</g>
</g>
<!-- Node3&#45;&gt;Node9 -->
<g id="edge12" class="edge">
<title>Node3&#45;&gt;Node9</title>
<path fill="none" stroke="midnightblue" d="M133.75,-224.44C152.43,-215.68 181.69,-201.94 203.15,-191.86"/>
<polygon fill="midnightblue" stroke="midnightblue" points="204.83,-194.93 212.39,-187.52 201.85,-188.6 204.83,-194.93"/>
</g>
<!-- Node5 -->
<g id="node5" class="node">
<title>Node5</title>
<g id="a_node5"><a xlink:title=" ">
<polygon fill="white" stroke="#bfbfbf" points="95.03,-0.5 95.03,-19.5 154.03,-19.5 154.03,-0.5 95.03,-0.5"/>
<text text-anchor="middle" x="124.53" y="-7.5" font-family="Consolas" font-size="10.00">stdalign.h</text>
</a>
</g>
</g>
<!-- Node4&#45;&gt;Node5 -->
<g id="edge4" class="edge">
<title>Node4&#45;&gt;Node5</title>
<path fill="none" stroke="midnightblue" d="M124.53,-56.08C124.53,-49.01 124.53,-38.86 124.53,-29.99"/>
<polygon fill="midnightblue" stroke="midnightblue" points="128.03,-29.75 124.53,-19.75 121.03,-29.75 128.03,-29.75"/>
</g>
<!-- Node6&#45;&gt;Node4 -->
<g id="edge6" class="edge">
<title>Node6&#45;&gt;Node4</title>
<path fill="none" stroke="midnightblue" d="M67.46,-112.32C77.71,-104.18 93.25,-91.84 105.53,-82.09"/>
<polygon fill="midnightblue" stroke="midnightblue" points="107.75,-84.79 113.41,-75.83 103.4,-79.31 107.75,-84.79"/>
</g>
<!-- Node7&#45;&gt;Node4 -->
<g id="edge8" class="edge">
<title>Node7&#45;&gt;Node4</title>
<path fill="none" stroke="midnightblue" d="M110.71,-168.37C113.13,-150.62 118.71,-109.67 122,-85.6"/>
<polygon fill="midnightblue" stroke="midnightblue" points="125.48,-85.97 123.36,-75.59 118.54,-85.03 125.48,-85.97"/>
</g>
<!-- Node7&#45;&gt;Node6 -->
<g id="edge9" class="edge">
<title>Node7&#45;&gt;Node6</title>
<path fill="none" stroke="midnightblue" d="M100.78,-168.08C93.06,-160.22 81.63,-148.57 72.31,-139.08"/>
<polygon fill="midnightblue" stroke="midnightblue" points="74.62,-136.44 65.12,-131.75 69.63,-141.34 74.62,-136.44"/>
</g>
<!-- Node8&#45;&gt;Node4 -->
<g id="edge11" class="edge">
<title>Node8&#45;&gt;Node4</title>
<path fill="none" stroke="midnightblue" d="M184.96,-112.32C174.11,-104.18 157.65,-91.84 144.65,-82.09"/>
<polygon fill="midnightblue" stroke="midnightblue" points="146.41,-79.03 136.31,-75.83 142.21,-84.63 146.41,-79.03"/>
</g>
<!-- Node10&#45;&gt;Node4 -->
<g id="edge14" class="edge">
<title>Node10&#45;&gt;Node4</title>
<path fill="none" stroke="midnightblue" d="M280.89,-224.42C281.33,-202.7 279.44,-144.89 249.53,-112 230.56,-91.14 201.19,-79.94 175.69,-73.93"/>
<polygon fill="midnightblue" stroke="midnightblue" points="176.29,-70.48 165.77,-71.8 174.82,-77.32 176.29,-70.48"/>
</g>
<!-- Node11&#45;&gt;Node3 -->
<g id="edge16" class="edge">
<title>Node11&#45;&gt;Node3</title>
<path fill="none" stroke="midnightblue" d="M182.68,-280.32C170.31,-271.98 151.4,-259.21 136.79,-249.35"/>
<polygon fill="midnightblue" stroke="midnightblue" points="138.6,-246.35 128.35,-243.65 134.68,-252.15 138.6,-246.35"/>
</g>
</g>
</svg>
