<?xml version="1.0" encoding="UTF-8" standalone="no"?>
<!DOCTYPE svg PUBLIC "-//W3C//DTD SVG 1.1//EN"
 "http://www.w3.org/Graphics/SVG/1.1/DTD/svg11.dtd">
<!-- Generated by graphviz version 2.49.3 (20211023.0002)
 -->
<!-- Title: hdr/libccc/encode/json.h Pages: 1 -->
<svg width="671pt" height="420pt"
 viewBox="0.00 0.00 671.02 420.00" xmlns="http://www.w3.org/2000/svg" xmlns:xlink="http://www.w3.org/1999/xlink">
<g id="graph0" class="graph" transform="scale(1 1) rotate(0) translate(4 416)">
<title>hdr/libccc/encode/json.h</title>
<polygon fill="white" stroke="transparent" points="-4,4 -4,-416 667.02,-416 667.02,4 -4,4"/>
<!-- Node1 -->
<g id="node1" class="node">
<title>Node1</title>
<g id="a_node1"><a xlink:title=" ">
<polygon fill="#bfbfbf" stroke="black" points="284.02,-392.5 284.02,-411.5 406.02,-411.5 406.02,-392.5 284.02,-392.5"/>
<text text-anchor="middle" x="345.02" y="-399.5" font-family="Consolas" font-size="10.00">hdr/libccc/encode/json.h</text>
</a>
</g>
</g>
<!-- Node2 -->
<g id="node2" class="node">
<title>Node2</title>
<g id="a_node2"><a xlink:href="common_8h.html" target="_top" xlink:title=" ">
<polygon fill="white" stroke="black" points="282.52,-336.5 282.52,-355.5 407.52,-355.5 407.52,-336.5 282.52,-336.5"/>
<text text-anchor="middle" x="345.02" y="-343.5" font-family="Consolas" font-size="10.00">libccc/encode/common.h</text>
</a>
</g>
</g>
<!-- Node1&#45;&gt;Node2 -->
<g id="edge1" class="edge">
<title>Node1&#45;&gt;Node2</title>
<path fill="none" stroke="midnightblue" d="M345.02,-392.08C345.02,-385.01 345.02,-374.86 345.02,-365.99"/>
<polygon fill="midnightblue" stroke="midnightblue" points="348.52,-365.75 345.02,-355.75 341.52,-365.75 348.52,-365.75"/>
</g>
<!-- Node3 -->
<g id="node3" class="node">
<title>Node3</title>
<g id="a_node3"><a xlink:href="char_8h.html" target="_top" xlink:title=" ">
<polygon fill="white" stroke="black" points="261.52,-280.5 261.52,-299.5 332.52,-299.5 332.52,-280.5 261.52,-280.5"/>
<text text-anchor="middle" x="297.02" y="-287.5" font-family="Consolas" font-size="10.00">libccc/char.h</text>
</a>
</g>
</g>
<!-- Node2&#45;&gt;Node3 -->
<g id="edge2" class="edge">
<title>Node2&#45;&gt;Node3</title>
<path fill="none" stroke="midnightblue" d="M337.09,-336.08C330.17,-328.3 319.95,-316.8 311.56,-307.37"/>
<polygon fill="midnightblue" stroke="midnightblue" points="314.05,-304.9 304.79,-299.75 308.82,-309.55 314.05,-304.9"/>
</g>
<!-- Node11 -->
<g id="node11" class="node">
<title>Node11</title>
<g id="a_node11"><a xlink:href="bool_8h.html" target="_top" xlink:title=" ">
<polygon fill="white" stroke="black" points="501.52,-168.5 501.52,-187.5 572.52,-187.5 572.52,-168.5 501.52,-168.5"/>
<text text-anchor="middle" x="537.02" y="-175.5" font-family="Consolas" font-size="10.00">libccc/bool.h</text>
</a>
</g>
</g>
<!-- Node2&#45;&gt;Node11 -->
<g id="edge30" class="edge">
<title>Node2&#45;&gt;Node11</title>
<path fill="none" stroke="midnightblue" d="M355.07,-336.31C385.91,-309.64 479.51,-228.72 519.07,-194.52"/>
<polygon fill="midnightblue" stroke="midnightblue" points="521.79,-196.79 527.06,-187.61 517.21,-191.5 521.79,-196.79"/>
</g>
<!-- Node12 -->
<g id="node12" class="node">
<title>Node12</title>
<g id="a_node12"><a xlink:href="int_8h.html" target="_top" xlink:title=" ">
<polygon fill="white" stroke="black" points="13.02,-168.5 13.02,-187.5 77.02,-187.5 77.02,-168.5 13.02,-168.5"/>
<text text-anchor="middle" x="45.02" y="-175.5" font-family="Consolas" font-size="10.00">libccc/int.h</text>
</a>
</g>
</g>
<!-- Node2&#45;&gt;Node12 -->
<g id="edge31" class="edge">
<title>Node2&#45;&gt;Node12</title>
<path fill="none" stroke="midnightblue" d="M294.88,-336.45C262.73,-329.61 220.83,-318.11 187.02,-300 134.2,-271.72 83.57,-221.13 59.54,-195.24"/>
<polygon fill="midnightblue" stroke="midnightblue" points="62.04,-192.78 52.71,-187.76 56.87,-197.5 62.04,-192.78"/>
</g>
<!-- Node14 -->
<g id="node14" class="node">
<title>Node14</title>
<g id="a_node14"><a xlink:href="float_8h.html" target="_top" xlink:title=" ">
<polygon fill="white" stroke="black" points="591.02,-168.5 591.02,-187.5 663.02,-187.5 663.02,-168.5 591.02,-168.5"/>
<text text-anchor="middle" x="627.02" y="-175.5" font-family="Consolas" font-size="10.00">libccc/float.h</text>
</a>
</g>
</g>
<!-- Node2&#45;&gt;Node14 -->
<g id="edge32" class="edge">
<title>Node2&#45;&gt;Node14</title>
<path fill="none" stroke="midnightblue" d="M359.78,-336.31C405.85,-309.19 547.21,-225.98 603.51,-192.83"/>
<polygon fill="midnightblue" stroke="midnightblue" points="605.55,-195.69 612.4,-187.61 602,-189.66 605.55,-195.69"/>
</g>
<!-- Node15 -->
<g id="node15" class="node">
<title>Node15</title>
<g id="a_node15"><a xlink:href="pointer_8h.html" target="_top" xlink:title=" ">
<polygon fill="white" stroke="black" points="95.02,-168.5 95.02,-187.5 177.02,-187.5 177.02,-168.5 95.02,-168.5"/>
<text text-anchor="middle" x="136.02" y="-175.5" font-family="Consolas" font-size="10.00">libccc/pointer.h</text>
</a>
</g>
</g>
<!-- Node2&#45;&gt;Node15 -->
<g id="edge33" class="edge">
<title>Node2&#45;&gt;Node15</title>
<path fill="none" stroke="midnightblue" d="M309.18,-336.44C264.88,-323.93 190.54,-296.23 151.02,-244 140.97,-230.72 137.48,-211.86 136.34,-197.87"/>
<polygon fill="midnightblue" stroke="midnightblue" points="139.82,-197.32 135.86,-187.5 132.83,-197.65 139.82,-197.32"/>
</g>
<!-- Node18 -->
<g id="node18" class="node">
<title>Node18</title>
<g id="a_node18"><a xlink:title=" ">
<polygon fill="white" stroke="#bfbfbf" points="340.52,-224.5 340.52,-243.5 447.52,-243.5 447.52,-224.5 340.52,-224.5"/>
<text text-anchor="middle" x="394.02" y="-231.5" font-family="Consolas" font-size="10.00">libccc/text/unicode.h</text>
</a>
</g>
</g>
<!-- Node2&#45;&gt;Node18 -->
<g id="edge34" class="edge">
<title>Node2&#45;&gt;Node18</title>
<path fill="none" stroke="midnightblue" d="M348.86,-336.37C356.84,-318.46 375.34,-276.92 386.02,-252.95"/>
<polygon fill="midnightblue" stroke="midnightblue" points="389.32,-254.15 390.19,-243.59 382.92,-251.3 389.32,-254.15"/>
</g>
<!-- Node4 -->
<g id="node4" class="node">
<title>Node4</title>
<g id="a_node4"><a xlink:title=" ">
<polygon fill="white" stroke="#bfbfbf" points="20.52,-112.5 20.52,-131.5 69.52,-131.5 69.52,-112.5 20.52,-112.5"/>
<text text-anchor="middle" x="45.02" y="-119.5" font-family="Consolas" font-size="10.00">stdint.h</text>
</a>
</g>
</g>
<!-- Node3&#45;&gt;Node4 -->
<g id="edge3" class="edge">
<title>Node3&#45;&gt;Node4</title>
<path fill="none" stroke="midnightblue" d="M261.47,-289.15C197.08,-287.23 62.41,-272.73 4.02,-188 -7.59,-171.16 9.4,-151.18 24.9,-137.86"/>
<polygon fill="midnightblue" stroke="midnightblue" points="27.13,-140.56 32.72,-131.56 22.74,-135.11 27.13,-140.56"/>
</g>
<!-- Node5 -->
<g id="node5" class="node">
<title>Node5</title>
<g id="a_node5"><a xlink:href="libccc_8h.html" target="_top" xlink:title=" ">
<polygon fill="white" stroke="black" points="272.02,-224.5 272.02,-243.5 322.02,-243.5 322.02,-224.5 272.02,-224.5"/>
<text text-anchor="middle" x="297.02" y="-231.5" font-family="Consolas" font-size="10.00">libccc.h</text>
</a>
</g>
</g>
<!-- Node3&#45;&gt;Node5 -->
<g id="edge4" class="edge">
<title>Node3&#45;&gt;Node5</title>
<path fill="none" stroke="midnightblue" d="M291.85,-280.08C290.34,-272.93 289.91,-262.64 290.56,-253.69"/>
<polygon fill="midnightblue" stroke="midnightblue" points="294.03,-254.13 291.88,-243.75 287.09,-253.2 294.03,-254.13"/>
</g>
<!-- Node17 -->
<g id="node17" class="node">
<title>Node17</title>
<g id="a_node17"><a xlink:title=" ">
<polygon fill="white" stroke="#bfbfbf" points="160.52,-224.5 160.52,-243.5 253.52,-243.5 253.52,-224.5 160.52,-224.5"/>
<text text-anchor="middle" x="207.02" y="-231.5" font-family="Consolas" font-size="10.00">libccc/text/ascii.h</text>
</a>
</g>
</g>
<!-- Node3&#45;&gt;Node17 -->
<g id="edge28" class="edge">
<title>Node3&#45;&gt;Node17</title>
<path fill="none" stroke="midnightblue" d="M282.56,-280.32C268.52,-271.9 246.97,-258.97 230.47,-249.07"/>
<polygon fill="midnightblue" stroke="midnightblue" points="231.82,-245.8 221.44,-243.65 228.21,-251.8 231.82,-245.8"/>
</g>
<!-- Node3&#45;&gt;Node18 -->
<g id="edge29" class="edge">
<title>Node3&#45;&gt;Node18</title>
<path fill="none" stroke="midnightblue" d="M312.6,-280.32C328.01,-271.74 351.83,-258.49 369.72,-248.52"/>
<polygon fill="midnightblue" stroke="midnightblue" points="371.43,-251.58 378.47,-243.65 368.03,-245.46 371.43,-251.58"/>
</g>
<!-- Node5&#45;&gt;Node3 -->
<g id="edge16" class="edge">
<title>Node5&#45;&gt;Node3</title>
<path fill="none" stroke="midnightblue" d="M302.15,-243.75C303.67,-250.86 304.12,-261.14 303.49,-270.1"/>
<polygon fill="midnightblue" stroke="midnightblue" points="300.01,-269.71 302.18,-280.08 306.95,-270.62 300.01,-269.71"/>
</g>
<!-- Node6 -->
<g id="node6" class="node">
<title>Node6</title>
<g id="a_node6"><a xlink:href="libccc__define_8h.html" target="_top" xlink:title=" ">
<polygon fill="white" stroke="black" points="313.02,-56.5 313.02,-75.5 395.02,-75.5 395.02,-56.5 313.02,-56.5"/>
<text text-anchor="middle" x="354.02" y="-63.5" font-family="Consolas" font-size="10.00">libccc_define.h</text>
</a>
</g>
</g>
<!-- Node5&#45;&gt;Node6 -->
<g id="edge5" class="edge">
<title>Node5&#45;&gt;Node6</title>
<path fill="none" stroke="midnightblue" d="M300.08,-224.08C309.09,-197.83 335.63,-120.55 347.79,-85.12"/>
<polygon fill="midnightblue" stroke="midnightblue" points="351.14,-86.16 351.07,-75.57 344.52,-83.89 351.14,-86.16"/>
</g>
<!-- Node8 -->
<g id="node8" class="node">
<title>Node8</title>
<g id="a_node8"><a xlink:href="libccc__errors_8h.html" target="_top" xlink:title=" ">
<polygon fill="white" stroke="black" points="401.02,-112.5 401.02,-131.5 481.02,-131.5 481.02,-112.5 401.02,-112.5"/>
<text text-anchor="middle" x="441.02" y="-119.5" font-family="Consolas" font-size="10.00">libccc_errors.h</text>
</a>
</g>
</g>
<!-- Node5&#45;&gt;Node8 -->
<g id="edge7" class="edge">
<title>Node5&#45;&gt;Node8</title>
<path fill="none" stroke="midnightblue" d="M322.19,-226.2C366.04,-214.3 451.98,-190.7 454.02,-188 464.27,-174.39 458.31,-154.78 451.47,-140.66"/>
<polygon fill="midnightblue" stroke="midnightblue" points="454.37,-138.67 446.55,-131.52 448.2,-141.98 454.37,-138.67"/>
</g>
<!-- Node9 -->
<g id="node9" class="node">
<title>Node9</title>
<g id="a_node9"><a xlink:href="libccc__config_8h.html" target="_top" xlink:title=" ">
<polygon fill="white" stroke="black" points="363.02,-168.5 363.02,-187.5 445.02,-187.5 445.02,-168.5 363.02,-168.5"/>
<text text-anchor="middle" x="404.02" y="-175.5" font-family="Consolas" font-size="10.00">libccc_config.h</text>
</a>
</g>
</g>
<!-- Node5&#45;&gt;Node9 -->
<g id="edge9" class="edge">
<title>Node5&#45;&gt;Node9</title>
<path fill="none" stroke="midnightblue" d="M314.21,-224.32C331.37,-215.66 357.96,-202.24 377.76,-192.25"/>
<polygon fill="midnightblue" stroke="midnightblue" points="379.52,-195.28 386.87,-187.65 376.36,-189.04 379.52,-195.28"/>
</g>
<!-- Node10 -->
<g id="node10" class="node">
<title>Node10</title>
<g id="a_node10"><a xlink:href="libccc__naming_8h.html" target="_top" xlink:title=" ">
<polygon fill="white" stroke="black" points="219.52,-112.5 219.52,-131.5 306.52,-131.5 306.52,-112.5 219.52,-112.5"/>
<text text-anchor="middle" x="263.02" y="-119.5" font-family="Consolas" font-size="10.00">libccc_naming.h</text>
</a>
</g>
</g>
<!-- Node5&#45;&gt;Node10 -->
<g id="edge12" class="edge">
<title>Node5&#45;&gt;Node10</title>
<path fill="none" stroke="midnightblue" d="M294.54,-224.14C291.01,-211.6 284.26,-187.97 278.02,-168 275.25,-159.15 272.01,-149.37 269.25,-141.2"/>
<polygon fill="midnightblue" stroke="midnightblue" points="272.52,-139.94 265.99,-131.6 265.89,-142.19 272.52,-139.94"/>
</g>
<!-- Node5&#45;&gt;Node11 -->
<g id="edge14" class="edge">
<title>Node5&#45;&gt;Node11</title>
<path fill="none" stroke="midnightblue" d="M321.17,-224.44C321.79,-224.29 322.4,-224.15 323.02,-224 380.61,-210.28 447.67,-195.85 491.28,-187.14"/>
<polygon fill="midnightblue" stroke="midnightblue" points="492.17,-190.53 501.3,-185.15 490.82,-183.66 492.17,-190.53"/>
</g>
<!-- Node5&#45;&gt;Node12 -->
<g id="edge17" class="edge">
<title>Node5&#45;&gt;Node12</title>
<path fill="none" stroke="midnightblue" d="M271.94,-228.41C265.93,-226.93 259.72,-225.33 254.02,-224 179.21,-206.51 157.41,-204.73 84.94,-189.66"/>
<polygon fill="midnightblue" stroke="midnightblue" points="85.36,-186.17 74.86,-187.54 83.93,-193.02 85.36,-186.17"/>
</g>
<!-- Node13 -->
<g id="node13" class="node">
<title>Node13</title>
<g id="a_node13"><a xlink:href="fixed_8h.html" target="_top" xlink:title=" ">
<polygon fill="white" stroke="black" points="195.02,-168.5 195.02,-187.5 269.02,-187.5 269.02,-168.5 195.02,-168.5"/>
<text text-anchor="middle" x="232.02" y="-175.5" font-family="Consolas" font-size="10.00">libccc/fixed.h</text>
</a>
</g>
</g>
<!-- Node5&#45;&gt;Node13 -->
<g id="edge20" class="edge">
<title>Node5&#45;&gt;Node13</title>
<path fill="none" stroke="midnightblue" d="M281.46,-224.32C270.23,-216.42 255.57,-204.55 244.98,-194.94"/>
<polygon fill="midnightblue" stroke="midnightblue" points="247.16,-192.18 237.5,-187.83 242.34,-197.26 247.16,-192.18"/>
</g>
<!-- Node5&#45;&gt;Node14 -->
<g id="edge22" class="edge">
<title>Node5&#45;&gt;Node14</title>
<path fill="none" stroke="midnightblue" d="M320.78,-224.46C321.53,-224.3 322.28,-224.15 323.02,-224 433.09,-201.99 462.38,-207.01 573.02,-188 575.49,-187.57 578.03,-187.12 580.61,-186.64"/>
<polygon fill="midnightblue" stroke="midnightblue" points="581.47,-190.04 590.65,-184.76 580.18,-183.16 581.47,-190.04"/>
</g>
<!-- Node5&#45;&gt;Node15 -->
<g id="edge24" class="edge">
<title>Node5&#45;&gt;Node15</title>
<path fill="none" stroke="midnightblue" d="M271.95,-226.16C243.29,-217.34 196.74,-201.84 166.16,-191.03"/>
<polygon fill="midnightblue" stroke="midnightblue" points="167.04,-187.63 156.45,-187.56 164.69,-194.22 167.04,-187.63"/>
</g>
<!-- Node7 -->
<g id="node7" class="node">
<title>Node7</title>
<g id="a_node7"><a xlink:title=" ">
<polygon fill="white" stroke="#bfbfbf" points="324.52,-0.5 324.52,-19.5 383.52,-19.5 383.52,-0.5 324.52,-0.5"/>
<text text-anchor="middle" x="354.02" y="-7.5" font-family="Consolas" font-size="10.00">stdalign.h</text>
</a>
</g>
</g>
<!-- Node6&#45;&gt;Node7 -->
<g id="edge6" class="edge">
<title>Node6&#45;&gt;Node7</title>
<path fill="none" stroke="midnightblue" d="M354.02,-56.08C354.02,-49.01 354.02,-38.86 354.02,-29.99"/>
<polygon fill="midnightblue" stroke="midnightblue" points="357.52,-29.75 354.02,-19.75 350.52,-29.75 357.52,-29.75"/>
</g>
<!-- Node8&#45;&gt;Node6 -->
<g id="edge8" class="edge">
<title>Node8&#45;&gt;Node6</title>
<path fill="none" stroke="midnightblue" d="M427.04,-112.32C413.47,-103.9 392.64,-90.97 376.69,-81.07"/>
<polygon fill="midnightblue" stroke="midnightblue" points="378.3,-77.95 367.96,-75.65 374.61,-83.9 378.3,-77.95"/>
</g>
<!-- Node9&#45;&gt;Node6 -->
<g id="edge10" class="edge">
<title>Node9&#45;&gt;Node6</title>
<path fill="none" stroke="midnightblue" d="M400.09,-168.37C391.95,-150.46 373.07,-108.92 362.17,-84.95"/>
<polygon fill="midnightblue" stroke="midnightblue" points="365.24,-83.25 357.92,-75.59 358.87,-86.14 365.24,-83.25"/>
</g>
<!-- Node9&#45;&gt;Node8 -->
<g id="edge11" class="edge">
<title>Node9&#45;&gt;Node8</title>
<path fill="none" stroke="midnightblue" d="M410.13,-168.08C415.3,-160.53 422.86,-149.49 429.21,-140.23"/>
<polygon fill="midnightblue" stroke="midnightblue" points="432.25,-141.98 435.02,-131.75 426.48,-138.02 432.25,-141.98"/>
</g>
<!-- Node10&#45;&gt;Node6 -->
<g id="edge13" class="edge">
<title>Node10&#45;&gt;Node6</title>
<path fill="none" stroke="midnightblue" d="M277.64,-112.32C291.96,-103.82 314.03,-90.73 330.76,-80.8"/>
<polygon fill="midnightblue" stroke="midnightblue" points="332.62,-83.77 339.43,-75.65 329.04,-77.75 332.62,-83.77"/>
</g>
<!-- Node11&#45;&gt;Node5 -->
<g id="edge15" class="edge">
<title>Node11&#45;&gt;Node5</title>
<path fill="none" stroke="midnightblue" d="M502.88,-187.54C463.63,-196.29 397.73,-210.49 341.02,-224 338.12,-224.69 335.09,-225.43 332.03,-226.19"/>
<polygon fill="midnightblue" stroke="midnightblue" points="331.1,-222.81 322.21,-228.58 332.76,-229.61 331.1,-222.81"/>
</g>
<!-- Node12&#45;&gt;Node4 -->
<g id="edge18" class="edge">
<title>Node12&#45;&gt;Node4</title>
<path fill="none" stroke="midnightblue" d="M45.02,-168.08C45.02,-161.01 45.02,-150.86 45.02,-141.99"/>
<polygon fill="midnightblue" stroke="midnightblue" points="48.52,-141.75 45.02,-131.75 41.52,-141.75 48.52,-141.75"/>
</g>
<!-- Node12&#45;&gt;Node5 -->
<g id="edge19" class="edge">
<title>Node12&#45;&gt;Node5</title>
<path fill="none" stroke="midnightblue" d="M77.14,-184.2C83.17,-185.46 89.31,-186.79 95.02,-188 170.18,-203.89 192,-205.6 263.83,-222.11"/>
<polygon fill="midnightblue" stroke="midnightblue" points="263.28,-225.58 273.81,-224.43 264.86,-218.76 263.28,-225.58"/>
</g>
<!-- Node13&#45;&gt;Node5 -->
<g id="edge21" class="edge">
<title>Node13&#45;&gt;Node5</title>
<path fill="none" stroke="midnightblue" d="M247.68,-187.75C258.87,-195.64 273.43,-207.43 283.98,-217"/>
<polygon fill="midnightblue" stroke="midnightblue" points="281.78,-219.74 291.45,-224.08 286.6,-214.66 281.78,-219.74"/>
</g>
<!-- Node14&#45;&gt;Node5 -->
<g id="edge23" class="edge">
<title>Node14&#45;&gt;Node5</title>
<path fill="none" stroke="midnightblue" d="M593.87,-187.5C592.91,-187.67 591.96,-187.84 591.02,-188 480.38,-207.01 451.09,-201.99 341.02,-224 338.09,-224.58 335.05,-225.26 331.98,-225.98"/>
<polygon fill="midnightblue" stroke="midnightblue" points="331.07,-222.59 322.16,-228.32 332.7,-229.4 331.07,-222.59"/>
</g>
<!-- Node15&#45;&gt;Node4 -->
<g id="edge26" class="edge">
<title>Node15&#45;&gt;Node4</title>
<path fill="none" stroke="midnightblue" d="M121.39,-168.32C107.07,-159.82 85,-146.73 68.27,-136.8"/>
<polygon fill="midnightblue" stroke="midnightblue" points="69.99,-133.75 59.6,-131.65 66.41,-139.77 69.99,-133.75"/>
</g>
<!-- Node15&#45;&gt;Node5 -->
<g id="edge27" class="edge">
<title>Node15&#45;&gt;Node5</title>
<path fill="none" stroke="midnightblue" d="M166.49,-187.52C195.4,-196.55 238.34,-210.88 267.07,-221.04"/>
<polygon fill="midnightblue" stroke="midnightblue" points="266,-224.37 276.59,-224.44 268.36,-217.78 266,-224.37"/>
</g>
<!-- Node16 -->
<g id="node16" class="node">
<title>Node16</title>
<g id="a_node16"><a xlink:title=" ">
<polygon fill="white" stroke="#bfbfbf" points="110.02,-112.5 110.02,-131.5 162.02,-131.5 162.02,-112.5 110.02,-112.5"/>
<text text-anchor="middle" x="136.02" y="-119.5" font-family="Consolas" font-size="10.00">stddef.h</text>
</a>
</g>
</g>
<!-- Node15&#45;&gt;Node16 -->
<g id="edge25" class="edge">
<title>Node15&#45;&gt;Node16</title>
<path fill="none" stroke="midnightblue" d="M136.02,-168.08C136.02,-161.01 136.02,-150.86 136.02,-141.99"/>
<polygon fill="midnightblue" stroke="midnightblue" points="139.52,-141.75 136.02,-131.75 132.52,-141.75 139.52,-141.75"/>
</g>
</g>
</svg>
