<?xml version="1.0" encoding="UTF-8" standalone="no"?>
<!DOCTYPE svg PUBLIC "-//W3C//DTD SVG 1.1//EN"
 "http://www.w3.org/Graphics/SVG/1.1/DTD/svg11.dtd">
<!-- Generated by graphviz version 2.43.0 (0)
 -->
<!-- Title: libccc/encode/json.h Pages: 1 -->
<svg width="725pt" height="476pt"
 viewBox="0.00 0.00 724.50 476.00" xmlns="http://www.w3.org/2000/svg" xmlns:xlink="http://www.w3.org/1999/xlink">
<g id="graph0" class="graph" transform="scale(1 1) rotate(0) translate(4 472)">
<title>libccc/encode/json.h</title>
<polygon fill="white" stroke="transparent" points="-4,4 -4,-472 720.5,-472 720.5,4 -4,4"/>
<!-- Node1 -->
<g id="node1" class="node">
<title>Node1</title>
<g id="a_node1"><a xlink:title=" ">
<polygon fill="#bfbfbf" stroke="black" points="323.5,-448.5 323.5,-467.5 445.5,-467.5 445.5,-448.5 323.5,-448.5"/>
<text text-anchor="middle" x="384.5" y="-455.5" font-family="Consolas" font-size="10.00">libccc/encode/json.h</text>
</a>
</g>
</g>
<!-- Node2 -->
<g id="node2" class="node">
<title>Node2</title>
<g id="a_node2"><a xlink:href="common_8h.html" target="_top" xlink:title=" ">
<polygon fill="white" stroke="black" points="318.5,-392.5 318.5,-411.5 450.5,-411.5 450.5,-392.5 318.5,-392.5"/>
<text text-anchor="middle" x="384.5" y="-399.5" font-family="Consolas" font-size="10.00">libccc/encode/common.h</text>
</a>
</g>
</g>
<!-- Node1&#45;&gt;Node2 -->
<g id="edge1" class="edge">
<title>Node1&#45;&gt;Node2</title>
<path fill="none" stroke="midnightblue" d="M384.5,-448.08C384.5,-441.01 384.5,-430.86 384.5,-421.99"/>
<polygon fill="midnightblue" stroke="midnightblue" points="388,-421.75 384.5,-411.75 381,-421.75 388,-421.75"/>
</g>
<!-- Node3 -->
<g id="node3" class="node">
<title>Node3</title>
<g id="a_node3"><a xlink:href="char_8h.html" target="_top" xlink:title=" ">
<polygon fill="white" stroke="black" points="187,-336.5 187,-355.5 272,-355.5 272,-336.5 187,-336.5"/>
<text text-anchor="middle" x="229.5" y="-343.5" font-family="Consolas" font-size="10.00">libccc/char.h</text>
</a>
</g>
</g>
<!-- Node2&#45;&gt;Node3 -->
<g id="edge2" class="edge">
<title>Node2&#45;&gt;Node3</title>
<path fill="none" stroke="midnightblue" d="M359.94,-392.44C333.98,-383.4 292.83,-369.06 263.7,-358.92"/>
<polygon fill="midnightblue" stroke="midnightblue" points="264.54,-355.5 253.95,-355.52 262.24,-362.11 264.54,-355.5"/>
</g>
<!-- Node12 -->
<g id="node12" class="node">
<title>Node12</title>
<g id="a_node12"><a xlink:href="bool_8h.html" target="_top" xlink:title=" ">
<polygon fill="white" stroke="black" points="508,-336.5 508,-355.5 593,-355.5 593,-336.5 508,-336.5"/>
<text text-anchor="middle" x="550.5" y="-343.5" font-family="Consolas" font-size="10.00">libccc/bool.h</text>
</a>
</g>
</g>
<!-- Node2&#45;&gt;Node12 -->
<g id="edge16" class="edge">
<title>Node2&#45;&gt;Node12</title>
<path fill="none" stroke="midnightblue" d="M410.8,-392.44C438.85,-383.32 483.44,-368.81 514.68,-358.65"/>
<polygon fill="midnightblue" stroke="midnightblue" points="515.89,-361.94 524.32,-355.52 513.73,-355.28 515.89,-361.94"/>
</g>
<!-- Node14 -->
<g id="node14" class="node">
<title>Node14</title>
<g id="a_node14"><a xlink:href="int_8h.html" target="_top" xlink:title=" ">
<polygon fill="white" stroke="black" points="290.5,-336.5 290.5,-355.5 370.5,-355.5 370.5,-336.5 290.5,-336.5"/>
<text text-anchor="middle" x="330.5" y="-343.5" font-family="Consolas" font-size="10.00">libccc/int.h</text>
</a>
</g>
</g>
<!-- Node2&#45;&gt;Node14 -->
<g id="edge19" class="edge">
<title>Node2&#45;&gt;Node14</title>
<path fill="none" stroke="midnightblue" d="M375.58,-392.08C367.72,-384.22 356.07,-372.57 346.58,-363.08"/>
<polygon fill="midnightblue" stroke="midnightblue" points="348.8,-360.35 339.25,-355.75 343.85,-365.3 348.8,-360.35"/>
</g>
<!-- Node15 -->
<g id="node15" class="node">
<title>Node15</title>
<g id="a_node15"><a xlink:href="float_8h.html" target="_top" xlink:title=" ">
<polygon fill="white" stroke="black" points="626.5,-280.5 626.5,-299.5 716.5,-299.5 716.5,-280.5 626.5,-280.5"/>
<text text-anchor="middle" x="671.5" y="-287.5" font-family="Consolas" font-size="10.00">libccc/float.h</text>
</a>
</g>
</g>
<!-- Node2&#45;&gt;Node15 -->
<g id="edge22" class="edge">
<title>Node2&#45;&gt;Node15</title>
<path fill="none" stroke="midnightblue" d="M450.59,-396.81C495.53,-391.76 555.19,-380.61 602.5,-356 625.2,-344.19 645.78,-322.75 658.44,-307.73"/>
<polygon fill="midnightblue" stroke="midnightblue" points="661.34,-309.72 664.94,-299.75 655.91,-305.3 661.34,-309.72"/>
</g>
<!-- Node16 -->
<g id="node16" class="node">
<title>Node16</title>
<g id="a_node16"><a xlink:href="pointer_8h.html" target="_top" xlink:title=" ">
<polygon fill="white" stroke="black" points="389,-336.5 389,-355.5 490,-355.5 490,-336.5 389,-336.5"/>
<text text-anchor="middle" x="439.5" y="-343.5" font-family="Consolas" font-size="10.00">libccc/pointer.h</text>
</a>
</g>
</g>
<!-- Node2&#45;&gt;Node16 -->
<g id="edge24" class="edge">
<title>Node2&#45;&gt;Node16</title>
<path fill="none" stroke="midnightblue" d="M393.58,-392.08C401.67,-384.14 413.7,-372.34 423.41,-362.8"/>
<polygon fill="midnightblue" stroke="midnightblue" points="425.9,-365.25 430.59,-355.75 421,-360.26 425.9,-365.25"/>
</g>
<!-- Node18 -->
<g id="node18" class="node">
<title>Node18</title>
<g id="a_node18"><a xlink:href="char__unicode_8h.html" target="_top" xlink:title=" ">
<polygon fill="white" stroke="black" points="0,-336.5 0,-355.5 153,-355.5 153,-336.5 0,-336.5"/>
<text text-anchor="middle" x="76.5" y="-343.5" font-family="Consolas" font-size="10.00">libccc/text/char_unicode.h</text>
</a>
</g>
</g>
<!-- Node2&#45;&gt;Node18 -->
<g id="edge28" class="edge">
<title>Node2&#45;&gt;Node18</title>
<path fill="none" stroke="midnightblue" d="M335.7,-392.44C281.29,-382.9 193.33,-367.48 135.21,-357.29"/>
<polygon fill="midnightblue" stroke="midnightblue" points="135.53,-353.8 125.08,-355.52 134.32,-360.69 135.53,-353.8"/>
</g>
<!-- Node4 -->
<g id="node4" class="node">
<title>Node4</title>
<g id="a_node4"><a xlink:title=" ">
<polygon fill="white" stroke="#bfbfbf" points="314,-280.5 314,-299.5 373,-299.5 373,-280.5 314,-280.5"/>
<text text-anchor="middle" x="343.5" y="-287.5" font-family="Consolas" font-size="10.00">stdint.h</text>
</a>
</g>
</g>
<!-- Node3&#45;&gt;Node4 -->
<g id="edge3" class="edge">
<title>Node3&#45;&gt;Node4</title>
<path fill="none" stroke="midnightblue" d="M247.56,-336.44C266.07,-327.68 295.08,-313.94 316.36,-303.86"/>
<polygon fill="midnightblue" stroke="midnightblue" points="317.98,-306.96 325.52,-299.52 314.99,-300.63 317.98,-306.96"/>
</g>
<!-- Node5 -->
<g id="node5" class="node">
<title>Node5</title>
<g id="a_node5"><a xlink:href="libccc_8h.html" target="_top" xlink:title=" ">
<polygon fill="white" stroke="black" points="256,-224.5 256,-243.5 315,-243.5 315,-224.5 256,-224.5"/>
<text text-anchor="middle" x="285.5" y="-231.5" font-family="Consolas" font-size="10.00">libccc.h</text>
</a>
</g>
</g>
<!-- Node3&#45;&gt;Node5 -->
<g id="edge4" class="edge">
<title>Node3&#45;&gt;Node5</title>
<path fill="none" stroke="midnightblue" d="M233.89,-336.37C243.05,-318.38 264.35,-276.55 276.53,-252.63"/>
<polygon fill="midnightblue" stroke="midnightblue" points="279.71,-254.09 281.13,-243.59 273.47,-250.92 279.71,-254.09"/>
</g>
<!-- Node11 -->
<g id="node11" class="node">
<title>Node11</title>
<g id="a_node11"><a xlink:href="char__ascii_8h.html" target="_top" xlink:title=" ">
<polygon fill="white" stroke="black" points="76,-280.5 76,-299.5 219,-299.5 219,-280.5 76,-280.5"/>
<text text-anchor="middle" x="147.5" y="-287.5" font-family="Consolas" font-size="10.00">libccc/text/char_ascii.h</text>
</a>
</g>
</g>
<!-- Node3&#45;&gt;Node11 -->
<g id="edge14" class="edge">
<title>Node3&#45;&gt;Node11</title>
<path fill="none" stroke="midnightblue" d="M216.33,-336.32C203.65,-327.98 184.27,-315.21 169.29,-305.35"/>
<polygon fill="midnightblue" stroke="midnightblue" points="170.92,-302.23 160.64,-299.65 167.07,-308.08 170.92,-302.23"/>
</g>
<!-- Node6 -->
<g id="node6" class="node">
<title>Node6</title>
<g id="a_node6"><a xlink:href="libccc__define_8h.html" target="_top" xlink:title=" ">
<polygon fill="white" stroke="black" points="238,-56.5 238,-75.5 333,-75.5 333,-56.5 238,-56.5"/>
<text text-anchor="middle" x="285.5" y="-63.5" font-family="Consolas" font-size="10.00">libccc_define.h</text>
</a>
</g>
</g>
<!-- Node5&#45;&gt;Node6 -->
<g id="edge5" class="edge">
<title>Node5&#45;&gt;Node6</title>
<path fill="none" stroke="midnightblue" d="M269.5,-224.5C235.62,-205.36 162.01,-157.02 190.5,-112 200.55,-96.13 217.87,-85.74 235,-79"/>
<polygon fill="midnightblue" stroke="midnightblue" points="236.21,-82.28 244.45,-75.62 233.85,-75.69 236.21,-82.28"/>
</g>
<!-- Node8 -->
<g id="node8" class="node">
<title>Node8</title>
<g id="a_node8"><a xlink:href="libccc__errors_8h.html" target="_top" xlink:title=" ">
<polygon fill="white" stroke="black" points="200,-112.5 200,-131.5 295,-131.5 295,-112.5 200,-112.5"/>
<text text-anchor="middle" x="247.5" y="-119.5" font-family="Consolas" font-size="10.00">libccc_errors.h</text>
</a>
</g>
</g>
<!-- Node5&#45;&gt;Node8 -->
<g id="edge7" class="edge">
<title>Node5&#45;&gt;Node8</title>
<path fill="none" stroke="midnightblue" d="M281.56,-224.49C277.49,-215.53 271.11,-200.94 266.5,-188 260.96,-172.42 255.77,-154.35 252.22,-141.22"/>
<polygon fill="midnightblue" stroke="midnightblue" points="255.6,-140.29 249.65,-131.51 248.83,-142.08 255.6,-140.29"/>
</g>
<!-- Node9 -->
<g id="node9" class="node">
<title>Node9</title>
<g id="a_node9"><a xlink:href="libccc__config_8h.html" target="_top" xlink:title=" ">
<polygon fill="white" stroke="black" points="276,-168.5 276,-187.5 371,-187.5 371,-168.5 276,-168.5"/>
<text text-anchor="middle" x="323.5" y="-175.5" font-family="Consolas" font-size="10.00">libccc_config.h</text>
</a>
</g>
</g>
<!-- Node5&#45;&gt;Node9 -->
<g id="edge9" class="edge">
<title>Node5&#45;&gt;Node9</title>
<path fill="none" stroke="midnightblue" d="M291.77,-224.08C297.14,-216.46 305.02,-205.26 311.58,-195.94"/>
<polygon fill="midnightblue" stroke="midnightblue" points="314.45,-197.94 317.34,-187.75 308.72,-193.91 314.45,-197.94"/>
</g>
<!-- Node10 -->
<g id="node10" class="node">
<title>Node10</title>
<g id="a_node10"><a xlink:href="libccc__naming_8h.html" target="_top" xlink:title=" ">
<polygon fill="white" stroke="black" points="352,-112.5 352,-131.5 447,-131.5 447,-112.5 352,-112.5"/>
<text text-anchor="middle" x="399.5" y="-119.5" font-family="Consolas" font-size="10.00">libccc_naming.h</text>
</a>
</g>
</g>
<!-- Node5&#45;&gt;Node10 -->
<g id="edge12" class="edge">
<title>Node5&#45;&gt;Node10</title>
<path fill="none" stroke="midnightblue" d="M315.28,-225.61C336.02,-219.01 362.84,-207.32 379.5,-188 390.69,-175.02 395.62,-155.85 397.79,-141.69"/>
<polygon fill="midnightblue" stroke="midnightblue" points="401.28,-141.98 399.01,-131.63 394.34,-141.14 401.28,-141.98"/>
</g>
<!-- Node7 -->
<g id="node7" class="node">
<title>Node7</title>
<g id="a_node7"><a xlink:title=" ">
<polygon fill="white" stroke="#bfbfbf" points="251,-0.5 251,-19.5 320,-19.5 320,-0.5 251,-0.5"/>
<text text-anchor="middle" x="285.5" y="-7.5" font-family="Consolas" font-size="10.00">stdalign.h</text>
</a>
</g>
</g>
<!-- Node6&#45;&gt;Node7 -->
<g id="edge6" class="edge">
<title>Node6&#45;&gt;Node7</title>
<path fill="none" stroke="midnightblue" d="M285.5,-56.08C285.5,-49.01 285.5,-38.86 285.5,-29.99"/>
<polygon fill="midnightblue" stroke="midnightblue" points="289,-29.75 285.5,-19.75 282,-29.75 289,-29.75"/>
</g>
<!-- Node8&#45;&gt;Node6 -->
<g id="edge8" class="edge">
<title>Node8&#45;&gt;Node6</title>
<path fill="none" stroke="midnightblue" d="M253.77,-112.08C259.14,-104.46 267.02,-93.26 273.58,-83.94"/>
<polygon fill="midnightblue" stroke="midnightblue" points="276.45,-85.94 279.34,-75.75 270.72,-81.91 276.45,-85.94"/>
</g>
<!-- Node9&#45;&gt;Node6 -->
<g id="edge10" class="edge">
<title>Node9&#45;&gt;Node6</title>
<path fill="none" stroke="midnightblue" d="M321.01,-168.09C317.43,-155.5 310.5,-131.82 303.5,-112 300.31,-102.96 296.39,-93.06 293.03,-84.85"/>
<polygon fill="midnightblue" stroke="midnightblue" points="296.23,-83.44 289.16,-75.55 289.77,-86.12 296.23,-83.44"/>
</g>
<!-- Node9&#45;&gt;Node8 -->
<g id="edge11" class="edge">
<title>Node9&#45;&gt;Node8</title>
<path fill="none" stroke="midnightblue" d="M311.29,-168.32C299.72,-160.11 282.12,-147.6 268.34,-137.81"/>
<polygon fill="midnightblue" stroke="midnightblue" points="270.11,-134.77 259.93,-131.83 266.06,-140.48 270.11,-134.77"/>
</g>
<!-- Node10&#45;&gt;Node6 -->
<g id="edge13" class="edge">
<title>Node10&#45;&gt;Node6</title>
<path fill="none" stroke="midnightblue" d="M381.44,-112.44C362.93,-103.68 333.92,-89.94 312.64,-79.86"/>
<polygon fill="midnightblue" stroke="midnightblue" points="314.01,-76.63 303.48,-75.52 311.02,-82.96 314.01,-76.63"/>
</g>
<!-- Node11&#45;&gt;Node5 -->
<g id="edge15" class="edge">
<title>Node11&#45;&gt;Node5</title>
<path fill="none" stroke="midnightblue" d="M169.37,-280.44C192.28,-271.48 228.48,-257.31 254.37,-247.18"/>
<polygon fill="midnightblue" stroke="midnightblue" points="255.7,-250.42 263.74,-243.52 253.15,-243.9 255.7,-250.42"/>
</g>
<!-- Node12&#45;&gt;Node5 -->
<g id="edge17" class="edge">
<title>Node12&#45;&gt;Node5</title>
<path fill="none" stroke="midnightblue" d="M560.04,-336.12C573.31,-322.72 594.15,-297.06 579.5,-280 547.2,-242.38 397.89,-235.88 325.32,-234.98"/>
<polygon fill="midnightblue" stroke="midnightblue" points="325.23,-231.48 315.19,-234.88 325.16,-238.48 325.23,-231.48"/>
</g>
<!-- Node13 -->
<g id="node13" class="node">
<title>Node13</title>
<g id="a_node13"><a xlink:title=" ">
<polygon fill="white" stroke="#bfbfbf" points="506.5,-280.5 506.5,-299.5 570.5,-299.5 570.5,-280.5 506.5,-280.5"/>
<text text-anchor="middle" x="538.5" y="-287.5" font-family="Consolas" font-size="10.00">stdbool.h</text>
</a>
</g>
</g>
<!-- Node12&#45;&gt;Node13 -->
<g id="edge18" class="edge">
<title>Node12&#45;&gt;Node13</title>
<path fill="none" stroke="midnightblue" d="M548.52,-336.08C546.93,-328.93 544.64,-318.64 542.65,-309.69"/>
<polygon fill="midnightblue" stroke="midnightblue" points="546.03,-308.75 540.44,-299.75 539.2,-310.27 546.03,-308.75"/>
</g>
<!-- Node14&#45;&gt;Node4 -->
<g id="edge20" class="edge">
<title>Node14&#45;&gt;Node4</title>
<path fill="none" stroke="midnightblue" d="M332.65,-336.08C334.37,-328.93 336.85,-318.64 339,-309.69"/>
<polygon fill="midnightblue" stroke="midnightblue" points="342.46,-310.29 341.39,-299.75 335.65,-308.65 342.46,-310.29"/>
</g>
<!-- Node14&#45;&gt;Node5 -->
<g id="edge21" class="edge">
<title>Node14&#45;&gt;Node5</title>
<path fill="none" stroke="midnightblue" d="M324.67,-336.36C318.91,-327.53 310.18,-313.27 304.5,-300 298,-284.8 292.91,-266.68 289.64,-253.44"/>
<polygon fill="midnightblue" stroke="midnightblue" points="293.03,-252.57 287.33,-243.64 286.21,-254.18 293.03,-252.57"/>
</g>
<!-- Node15&#45;&gt;Node5 -->
<g id="edge23" class="edge">
<title>Node15&#45;&gt;Node5</title>
<path fill="none" stroke="midnightblue" d="M626.41,-282.05C621.72,-281.35 617.01,-280.65 612.5,-280 509.03,-264.99 386.96,-248.52 325.35,-240.29"/>
<polygon fill="midnightblue" stroke="midnightblue" points="325.65,-236.8 315.28,-238.95 324.73,-243.74 325.65,-236.8"/>
</g>
<!-- Node16&#45;&gt;Node4 -->
<g id="edge26" class="edge">
<title>Node16&#45;&gt;Node4</title>
<path fill="none" stroke="midnightblue" d="M424.08,-336.32C408.96,-327.82 385.68,-314.73 368.03,-304.8"/>
<polygon fill="midnightblue" stroke="midnightblue" points="369.32,-301.51 358.89,-299.65 365.89,-307.61 369.32,-301.51"/>
</g>
<!-- Node16&#45;&gt;Node5 -->
<g id="edge27" class="edge">
<title>Node16&#45;&gt;Node5</title>
<path fill="none" stroke="midnightblue" d="M446.85,-336.11C457,-322.68 472.66,-296.99 459.5,-280 443.21,-258.96 371.36,-245.98 325.23,-239.66"/>
<polygon fill="midnightblue" stroke="midnightblue" points="325.62,-236.18 315.24,-238.34 324.7,-243.12 325.62,-236.18"/>
</g>
<!-- Node17 -->
<g id="node17" class="node">
<title>Node17</title>
<g id="a_node17"><a xlink:title=" ">
<polygon fill="white" stroke="#bfbfbf" points="391,-280.5 391,-299.5 450,-299.5 450,-280.5 391,-280.5"/>
<text text-anchor="middle" x="420.5" y="-287.5" font-family="Consolas" font-size="10.00">stddef.h</text>
</a>
</g>
</g>
<!-- Node16&#45;&gt;Node17 -->
<g id="edge25" class="edge">
<title>Node16&#45;&gt;Node17</title>
<path fill="none" stroke="midnightblue" d="M436.36,-336.08C433.82,-328.85 430.14,-318.41 426.97,-309.4"/>
<polygon fill="midnightblue" stroke="midnightblue" points="430.2,-308.02 423.58,-299.75 423.6,-310.35 430.2,-308.02"/>
</g>
<!-- Node18&#45;&gt;Node5 -->
<g id="edge29" class="edge">
<title>Node18&#45;&gt;Node5</title>
<path fill="none" stroke="midnightblue" d="M71.42,-336.33C64.2,-322.74 53.22,-296.28 66.5,-280 88.67,-252.81 188.71,-241.58 245.6,-237.33"/>
<polygon fill="midnightblue" stroke="midnightblue" points="245.97,-240.81 255.7,-236.62 245.47,-233.83 245.97,-240.81"/>
</g>
</g>
</svg>
