<?xml version="1.0" encoding="UTF-8" standalone="no"?>
<!DOCTYPE svg PUBLIC "-//W3C//DTD SVG 1.1//EN"
 "http://www.w3.org/Graphics/SVG/1.1/DTD/svg11.dtd">
<!-- Generated by graphviz version 3.0.0 (20220226.1711)
 -->
<!-- Title: libccc/encode/json.h Pages: 1 -->
<svg width="613pt" height="420pt"
 viewBox="0.00 0.00 612.50 420.00" xmlns="http://www.w3.org/2000/svg" xmlns:xlink="http://www.w3.org/1999/xlink">
<g id="graph0" class="graph" transform="scale(1 1) rotate(0) translate(4 416)">
<title>libccc/encode/json.h</title>
<polygon fill="white" stroke="transparent" points="-4,4 -4,-416 608.5,-416 608.5,4 -4,4"/>
<!-- Node1 -->
<g id="node1" class="node">
<title>Node1</title>
<g id="a_node1"><a xlink:title=" ">
<polygon fill="#bfbfbf" stroke="black" points="234,-392.5 234,-411.5 340,-411.5 340,-392.5 234,-392.5"/>
<text text-anchor="middle" x="287" y="-399.5" font-family="Consolas" font-size="10.00">libccc/encode/json.h</text>
</a>
</g>
</g>
<!-- Node2 -->
<g id="node2" class="node">
<title>Node2</title>
<g id="a_node2"><a xlink:href="common_8h.html" target="_top" xlink:title=" ">
<polygon fill="white" stroke="black" points="224.5,-336.5 224.5,-355.5 349.5,-355.5 349.5,-336.5 224.5,-336.5"/>
<text text-anchor="middle" x="287" y="-343.5" font-family="Consolas" font-size="10.00">libccc/encode/common.h</text>
</a>
</g>
</g>
<!-- Node1&#45;&gt;Node2 -->
<g id="edge1" class="edge">
<title>Node1&#45;&gt;Node2</title>
<path fill="none" stroke="midnightblue" d="M287,-392.08C287,-385.01 287,-374.86 287,-365.99"/>
<polygon fill="midnightblue" stroke="midnightblue" points="290.5,-365.75 287,-355.75 283.5,-365.75 290.5,-365.75"/>
</g>
<!-- Node3 -->
<g id="node3" class="node">
<title>Node3</title>
<g id="a_node3"><a xlink:href="char_8h.html" target="_top" xlink:title=" ">
<polygon fill="white" stroke="black" points="122.5,-280.5 122.5,-299.5 193.5,-299.5 193.5,-280.5 122.5,-280.5"/>
<text text-anchor="middle" x="158" y="-287.5" font-family="Consolas" font-size="10.00">libccc/char.h</text>
</a>
</g>
</g>
<!-- Node2&#45;&gt;Node3 -->
<g id="edge2" class="edge">
<title>Node2&#45;&gt;Node3</title>
<path fill="none" stroke="midnightblue" d="M266.56,-336.44C245.33,-327.56 211.9,-313.56 187.75,-303.45"/>
<polygon fill="midnightblue" stroke="midnightblue" points="188.92,-300.15 178.34,-299.52 186.22,-306.61 188.92,-300.15"/>
</g>
<!-- Node13 -->
<g id="node13" class="node">
<title>Node13</title>
<g id="a_node13"><a xlink:href="bool_8h.html" target="_top" xlink:title=" ">
<polygon fill="white" stroke="black" points="384.5,-280.5 384.5,-299.5 455.5,-299.5 455.5,-280.5 384.5,-280.5"/>
<text text-anchor="middle" x="420" y="-287.5" font-family="Consolas" font-size="10.00">libccc/bool.h</text>
</a>
</g>
</g>
<!-- Node2&#45;&gt;Node13 -->
<g id="edge16" class="edge">
<title>Node2&#45;&gt;Node13</title>
<path fill="none" stroke="midnightblue" d="M308.07,-336.44C330.06,-327.52 364.73,-313.44 389.66,-303.32"/>
<polygon fill="midnightblue" stroke="midnightblue" points="391.08,-306.52 399.02,-299.52 388.44,-300.04 391.08,-306.52"/>
</g>
<!-- Node15 -->
<g id="node15" class="node">
<title>Node15</title>
<g id="a_node15"><a xlink:href="int_8h.html" target="_top" xlink:title=" ">
<polygon fill="white" stroke="black" points="212,-280.5 212,-299.5 276,-299.5 276,-280.5 212,-280.5"/>
<text text-anchor="middle" x="244" y="-287.5" font-family="Consolas" font-size="10.00">libccc/int.h</text>
</a>
</g>
</g>
<!-- Node2&#45;&gt;Node15 -->
<g id="edge19" class="edge">
<title>Node2&#45;&gt;Node15</title>
<path fill="none" stroke="midnightblue" d="M279.9,-336.08C273.76,-328.38 264.73,-317.03 257.26,-307.65"/>
<polygon fill="midnightblue" stroke="midnightblue" points="259.94,-305.39 250.97,-299.75 254.46,-309.75 259.94,-305.39"/>
</g>
<!-- Node16 -->
<g id="node16" class="node">
<title>Node16</title>
<g id="a_node16"><a xlink:href="float_8h.html" target="_top" xlink:title=" ">
<polygon fill="white" stroke="black" points="294,-280.5 294,-299.5 366,-299.5 366,-280.5 294,-280.5"/>
<text text-anchor="middle" x="330" y="-287.5" font-family="Consolas" font-size="10.00">libccc/float.h</text>
</a>
</g>
</g>
<!-- Node2&#45;&gt;Node16 -->
<g id="edge22" class="edge">
<title>Node2&#45;&gt;Node16</title>
<path fill="none" stroke="midnightblue" d="M294.1,-336.08C300.24,-328.38 309.27,-317.03 316.74,-307.65"/>
<polygon fill="midnightblue" stroke="midnightblue" points="319.54,-309.75 323.03,-299.75 314.06,-305.39 319.54,-309.75"/>
</g>
<!-- Node17 -->
<g id="node17" class="node">
<title>Node17</title>
<g id="a_node17"><a xlink:href="pointer_8h.html" target="_top" xlink:title=" ">
<polygon fill="white" stroke="black" points="22,-280.5 22,-299.5 104,-299.5 104,-280.5 22,-280.5"/>
<text text-anchor="middle" x="63" y="-287.5" font-family="Consolas" font-size="10.00">libccc/pointer.h</text>
</a>
</g>
</g>
<!-- Node2&#45;&gt;Node17 -->
<g id="edge24" class="edge">
<title>Node2&#45;&gt;Node17</title>
<path fill="none" stroke="midnightblue" d="M251.51,-336.44C212.68,-327.08 150.34,-312.06 108.08,-301.87"/>
<polygon fill="midnightblue" stroke="midnightblue" points="108.87,-298.46 98.33,-299.52 107.23,-305.26 108.87,-298.46"/>
</g>
<!-- Node19 -->
<g id="node19" class="node">
<title>Node19</title>
<g id="a_node19"><a xlink:title=" ">
<polygon fill="white" stroke="#bfbfbf" points="473.5,-280.5 473.5,-299.5 604.5,-299.5 604.5,-280.5 473.5,-280.5"/>
<text text-anchor="middle" x="539" y="-287.5" font-family="Consolas" font-size="10.00">libccc/text/char_unicode.h</text>
</a>
</g>
</g>
<!-- Node2&#45;&gt;Node19 -->
<g id="edge28" class="edge">
<title>Node2&#45;&gt;Node19</title>
<path fill="none" stroke="midnightblue" d="M326.93,-336.44C370.89,-327.02 441.63,-311.87 489.18,-301.68"/>
<polygon fill="midnightblue" stroke="midnightblue" points="490.21,-305.03 499.26,-299.52 488.75,-298.19 490.21,-305.03"/>
</g>
<!-- Node4 -->
<g id="node4" class="node">
<title>Node4</title>
<g id="a_node4"><a xlink:title=" ">
<polygon fill="white" stroke="#bfbfbf" points="70.5,-224.5 70.5,-243.5 119.5,-243.5 119.5,-224.5 70.5,-224.5"/>
<text text-anchor="middle" x="95" y="-231.5" font-family="Consolas" font-size="10.00">stdint.h</text>
</a>
</g>
</g>
<!-- Node3&#45;&gt;Node4 -->
<g id="edge3" class="edge">
<title>Node3&#45;&gt;Node4</title>
<path fill="none" stroke="midnightblue" d="M147.88,-280.32C138.47,-272.26 124.26,-260.08 112.93,-250.37"/>
<polygon fill="midnightblue" stroke="midnightblue" points="115.18,-247.68 105.31,-243.83 110.62,-253 115.18,-247.68"/>
</g>
<!-- Node5 -->
<g id="node5" class="node">
<title>Node5</title>
<g id="a_node5"><a xlink:href="libccc_8h.html" target="_top" xlink:title=" ">
<polygon fill="white" stroke="black" points="273,-224.5 273,-243.5 323,-243.5 323,-224.5 273,-224.5"/>
<text text-anchor="middle" x="298" y="-231.5" font-family="Consolas" font-size="10.00">libccc.h</text>
</a>
</g>
</g>
<!-- Node3&#45;&gt;Node5 -->
<g id="edge4" class="edge">
<title>Node3&#45;&gt;Node5</title>
<path fill="none" stroke="midnightblue" d="M180.18,-280.44C203.43,-271.48 240.15,-257.31 266.42,-247.18"/>
<polygon fill="midnightblue" stroke="midnightblue" points="267.85,-250.38 275.92,-243.52 265.33,-243.85 267.85,-250.38"/>
</g>
<!-- Node12 -->
<g id="node12" class="node">
<title>Node12</title>
<g id="a_node12"><a xlink:title=" ">
<polygon fill="white" stroke="#bfbfbf" points="137.5,-224.5 137.5,-243.5 254.5,-243.5 254.5,-224.5 137.5,-224.5"/>
<text text-anchor="middle" x="196" y="-231.5" font-family="Consolas" font-size="10.00">libccc/text/char_ascii.h</text>
</a>
</g>
</g>
<!-- Node3&#45;&gt;Node12 -->
<g id="edge15" class="edge">
<title>Node3&#45;&gt;Node12</title>
<path fill="none" stroke="midnightblue" d="M164.27,-280.08C169.64,-272.46 177.52,-261.26 184.08,-251.94"/>
<polygon fill="midnightblue" stroke="midnightblue" points="186.95,-253.94 189.84,-243.75 181.22,-249.91 186.95,-253.94"/>
</g>
<!-- Node6 -->
<g id="node6" class="node">
<title>Node6</title>
<g id="a_node6"><a xlink:href="libccc__define_8h.html" target="_top" xlink:title=" ">
<polygon fill="white" stroke="black" points="223,-56.5 223,-75.5 305,-75.5 305,-56.5 223,-56.5"/>
<text text-anchor="middle" x="264" y="-63.5" font-family="Consolas" font-size="10.00">libccc_define.h</text>
</a>
</g>
</g>
<!-- Node5&#45;&gt;Node6 -->
<g id="edge5" class="edge">
<title>Node5&#45;&gt;Node6</title>
<path fill="none" stroke="midnightblue" d="M279.88,-224.37C251.96,-209.88 199.69,-177.7 181,-132 177.64,-123.77 176.45,-119.64 181,-112 190.1,-96.72 206.39,-86.31 222.14,-79.39"/>
<polygon fill="midnightblue" stroke="midnightblue" points="223.83,-82.48 231.82,-75.51 221.23,-75.98 223.83,-82.48"/>
</g>
<!-- Node8 -->
<g id="node8" class="node">
<title>Node8</title>
<g id="a_node8"><a xlink:href="libccc__errors_8h.html" target="_top" xlink:title=" ">
<polygon fill="white" stroke="black" points="190,-112.5 190,-131.5 270,-131.5 270,-112.5 190,-112.5"/>
<text text-anchor="middle" x="230" y="-119.5" font-family="Consolas" font-size="10.00">libccc_errors.h</text>
</a>
</g>
</g>
<!-- Node5&#45;&gt;Node8 -->
<g id="edge7" class="edge">
<title>Node5&#45;&gt;Node8</title>
<path fill="none" stroke="midnightblue" d="M284.57,-224.23C273.22,-216.13 257.34,-203.1 248,-188 239.24,-173.84 234.66,-155.36 232.32,-141.72"/>
<polygon fill="midnightblue" stroke="midnightblue" points="235.75,-141 230.83,-131.61 228.82,-142.01 235.75,-141"/>
</g>
<!-- Node9 -->
<g id="node9" class="node">
<title>Node9</title>
<g id="a_node9"><a xlink:href="libccc__config_8h.html" target="_top" xlink:title=" ">
<polygon fill="white" stroke="black" points="257,-168.5 257,-187.5 339,-187.5 339,-168.5 257,-168.5"/>
<text text-anchor="middle" x="298" y="-175.5" font-family="Consolas" font-size="10.00">libccc_config.h</text>
</a>
</g>
</g>
<!-- Node5&#45;&gt;Node9 -->
<g id="edge9" class="edge">
<title>Node5&#45;&gt;Node9</title>
<path fill="none" stroke="midnightblue" d="M298,-224.08C298,-217.01 298,-206.86 298,-197.99"/>
<polygon fill="midnightblue" stroke="midnightblue" points="301.5,-197.75 298,-187.75 294.5,-197.75 301.5,-197.75"/>
</g>
<!-- Node10 -->
<g id="node10" class="node">
<title>Node10</title>
<g id="a_node10"><a xlink:href="libccc__naming_8h.html" target="_top" xlink:title=" ">
<polygon fill="white" stroke="black" points="326.5,-112.5 326.5,-131.5 413.5,-131.5 413.5,-112.5 326.5,-112.5"/>
<text text-anchor="middle" x="370" y="-119.5" font-family="Consolas" font-size="10.00">libccc_naming.h</text>
</a>
</g>
</g>
<!-- Node5&#45;&gt;Node10 -->
<g id="edge12" class="edge">
<title>Node5&#45;&gt;Node10</title>
<path fill="none" stroke="midnightblue" d="M310.78,-224.42C322.03,-216.26 338.11,-203.02 348,-188 357.31,-173.85 363.07,-155.37 366.34,-141.73"/>
<polygon fill="midnightblue" stroke="midnightblue" points="369.84,-142.13 368.54,-131.61 363,-140.65 369.84,-142.13"/>
</g>
<!-- Node11 -->
<g id="node11" class="node">
<title>Node11</title>
<g id="a_node11"><a xlink:title=" ">
<polygon fill="white" stroke="#bfbfbf" points="395.5,-168.5 395.5,-187.5 442.5,-187.5 442.5,-168.5 395.5,-168.5"/>
<text text-anchor="middle" x="419" y="-175.5" font-family="Consolas" font-size="10.00">math.h</text>
</a>
</g>
</g>
<!-- Node5&#45;&gt;Node11 -->
<g id="edge14" class="edge">
<title>Node5&#45;&gt;Node11</title>
<path fill="none" stroke="midnightblue" d="M317.17,-224.44C336.91,-215.64 367.89,-201.81 390.49,-191.72"/>
<polygon fill="midnightblue" stroke="midnightblue" points="392.21,-194.79 399.92,-187.52 389.36,-188.4 392.21,-194.79"/>
</g>
<!-- Node7 -->
<g id="node7" class="node">
<title>Node7</title>
<g id="a_node7"><a xlink:title=" ">
<polygon fill="white" stroke="#bfbfbf" points="234.5,-0.5 234.5,-19.5 293.5,-19.5 293.5,-0.5 234.5,-0.5"/>
<text text-anchor="middle" x="264" y="-7.5" font-family="Consolas" font-size="10.00">stdalign.h</text>
</a>
</g>
</g>
<!-- Node6&#45;&gt;Node7 -->
<g id="edge6" class="edge">
<title>Node6&#45;&gt;Node7</title>
<path fill="none" stroke="midnightblue" d="M264,-56.08C264,-49.01 264,-38.86 264,-29.99"/>
<polygon fill="midnightblue" stroke="midnightblue" points="267.5,-29.75 264,-19.75 260.5,-29.75 267.5,-29.75"/>
</g>
<!-- Node8&#45;&gt;Node6 -->
<g id="edge8" class="edge">
<title>Node8&#45;&gt;Node6</title>
<path fill="none" stroke="midnightblue" d="M235.61,-112.08C240.37,-104.53 247.32,-93.49 253.15,-84.23"/>
<polygon fill="midnightblue" stroke="midnightblue" points="256.12,-86.08 258.49,-75.75 250.2,-82.35 256.12,-86.08"/>
</g>
<!-- Node9&#45;&gt;Node6 -->
<g id="edge10" class="edge">
<title>Node9&#45;&gt;Node6</title>
<path fill="none" stroke="midnightblue" d="M295.52,-168.14C291.99,-155.6 285.25,-131.97 279,-112 276.23,-103.15 273,-93.37 270.24,-85.2"/>
<polygon fill="midnightblue" stroke="midnightblue" points="273.51,-83.94 266.97,-75.6 266.88,-86.19 273.51,-83.94"/>
</g>
<!-- Node9&#45;&gt;Node8 -->
<g id="edge11" class="edge">
<title>Node9&#45;&gt;Node8</title>
<path fill="none" stroke="midnightblue" d="M287.07,-168.32C276.83,-160.18 261.28,-147.84 249,-138.09"/>
<polygon fill="midnightblue" stroke="midnightblue" points="251.13,-135.31 241.12,-131.83 246.78,-140.79 251.13,-135.31"/>
</g>
<!-- Node10&#45;&gt;Node6 -->
<g id="edge13" class="edge">
<title>Node10&#45;&gt;Node6</title>
<path fill="none" stroke="midnightblue" d="M352.97,-112.32C335.97,-103.66 309.62,-90.24 290.01,-80.25"/>
<polygon fill="midnightblue" stroke="midnightblue" points="291.49,-77.08 280.99,-75.65 288.31,-83.31 291.49,-77.08"/>
</g>
<!-- Node13&#45;&gt;Node5 -->
<g id="edge17" class="edge">
<title>Node13&#45;&gt;Node5</title>
<path fill="none" stroke="midnightblue" d="M400.67,-280.44C380.68,-271.6 349.26,-257.69 326.44,-247.59"/>
<polygon fill="midnightblue" stroke="midnightblue" points="327.8,-244.36 317.24,-243.52 324.97,-250.76 327.8,-244.36"/>
</g>
<!-- Node14 -->
<g id="node14" class="node">
<title>Node14</title>
<g id="a_node14"><a xlink:title=" ">
<polygon fill="white" stroke="#bfbfbf" points="392,-224.5 392,-243.5 448,-243.5 448,-224.5 392,-224.5"/>
<text text-anchor="middle" x="420" y="-231.5" font-family="Consolas" font-size="10.00">stdbool.h</text>
</a>
</g>
</g>
<!-- Node13&#45;&gt;Node14 -->
<g id="edge18" class="edge">
<title>Node13&#45;&gt;Node14</title>
<path fill="none" stroke="midnightblue" d="M420,-280.08C420,-273.01 420,-262.86 420,-253.99"/>
<polygon fill="midnightblue" stroke="midnightblue" points="423.5,-253.75 420,-243.75 416.5,-253.75 423.5,-253.75"/>
</g>
<!-- Node15&#45;&gt;Node4 -->
<g id="edge20" class="edge">
<title>Node15&#45;&gt;Node4</title>
<path fill="none" stroke="midnightblue" d="M220.39,-280.44C195.54,-271.44 156.23,-257.19 128.25,-247.05"/>
<polygon fill="midnightblue" stroke="midnightblue" points="129.09,-243.63 118.5,-243.52 126.71,-250.21 129.09,-243.63"/>
</g>
<!-- Node15&#45;&gt;Node5 -->
<g id="edge21" class="edge">
<title>Node15&#45;&gt;Node5</title>
<path fill="none" stroke="midnightblue" d="M252.92,-280.08C260.78,-272.22 272.43,-260.57 281.92,-251.08"/>
<polygon fill="midnightblue" stroke="midnightblue" points="284.65,-253.3 289.25,-243.75 279.7,-248.35 284.65,-253.3"/>
</g>
<!-- Node16&#45;&gt;Node5 -->
<g id="edge23" class="edge">
<title>Node16&#45;&gt;Node5</title>
<path fill="none" stroke="midnightblue" d="M324.72,-280.08C320.29,-272.61 313.84,-261.72 308.38,-252.52"/>
<polygon fill="midnightblue" stroke="midnightblue" points="311.29,-250.57 303.19,-243.75 305.27,-254.14 311.29,-250.57"/>
</g>
<!-- Node17&#45;&gt;Node4 -->
<g id="edge26" class="edge">
<title>Node17&#45;&gt;Node4</title>
<path fill="none" stroke="midnightblue" d="M68.28,-280.08C72.71,-272.61 79.16,-261.72 84.62,-252.52"/>
<polygon fill="midnightblue" stroke="midnightblue" points="87.73,-254.14 89.81,-243.75 81.71,-250.57 87.73,-254.14"/>
</g>
<!-- Node17&#45;&gt;Node5 -->
<g id="edge27" class="edge">
<title>Node17&#45;&gt;Node5</title>
<path fill="none" stroke="midnightblue" d="M102.55,-280.47C142.95,-271.67 207.47,-257.38 263,-244 263.1,-243.98 263.2,-243.95 263.3,-243.93"/>
<polygon fill="midnightblue" stroke="midnightblue" points="263.92,-247.38 272.79,-241.58 262.24,-240.58 263.92,-247.38"/>
</g>
<!-- Node18 -->
<g id="node18" class="node">
<title>Node18</title>
<g id="a_node18"><a xlink:title=" ">
<polygon fill="white" stroke="#bfbfbf" points="0,-224.5 0,-243.5 52,-243.5 52,-224.5 0,-224.5"/>
<text text-anchor="middle" x="26" y="-231.5" font-family="Consolas" font-size="10.00">stddef.h</text>
</a>
</g>
</g>
<!-- Node17&#45;&gt;Node18 -->
<g id="edge25" class="edge">
<title>Node17&#45;&gt;Node18</title>
<path fill="none" stroke="midnightblue" d="M56.89,-280.08C51.72,-272.53 44.15,-261.49 37.81,-252.23"/>
<polygon fill="midnightblue" stroke="midnightblue" points="40.54,-250.02 32,-243.75 34.76,-253.98 40.54,-250.02"/>
</g>
</g>
</svg>
