<?xml version="1.0" encoding="UTF-8" standalone="no"?>
<!DOCTYPE svg PUBLIC "-//W3C//DTD SVG 1.1//EN"
 "http://www.w3.org/Graphics/SVG/1.1/DTD/svg11.dtd">
<!-- Generated by graphviz version 2.49.3 (20211023.0002)
 -->
<!-- Title: hdr/libccc_config.h Pages: 1 -->
<svg width="131pt" height="196pt"
 viewBox="0.00 0.00 131.00 196.00" xmlns="http://www.w3.org/2000/svg" xmlns:xlink="http://www.w3.org/1999/xlink">
<g id="graph0" class="graph" transform="scale(1 1) rotate(0) translate(4 192)">
<title>hdr/libccc_config.h</title>
<polygon fill="white" stroke="transparent" points="-4,4 -4,-192 127,-192 127,4 -4,4"/>
<!-- Node1 -->
<g id="node1" class="node">
<title>Node1</title>
<g id="a_node1"><a xlink:title=" ">
<polygon fill="#bfbfbf" stroke="black" points="0,-168.5 0,-187.5 98,-187.5 98,-168.5 0,-168.5"/>
<text text-anchor="middle" x="49" y="-175.5" font-family="Consolas" font-size="10.00">hdr/libccc_config.h</text>
</a>
</g>
</g>
<!-- Node2 -->
<g id="node2" class="node">
<title>Node2</title>
<g id="a_node2"><a xlink:href="libccc__define_8h.html" target="_top" xlink:title=" ">
<polygon fill="white" stroke="black" points="8,-56.5 8,-75.5 90,-75.5 90,-56.5 8,-56.5"/>
<text text-anchor="middle" x="49" y="-63.5" font-family="Consolas" font-size="10.00">libccc_define.h</text>
</a>
</g>
</g>
<!-- Node1&#45;&gt;Node2 -->
<g id="edge1" class="edge">
<title>Node1&#45;&gt;Node2</title>
<path fill="none" stroke="midnightblue" d="M45.14,-168.25C41.44,-159.33 36.11,-145.01 34,-132 31.42,-116.1 36.07,-98.3 40.86,-85.35"/>
<polygon fill="midnightblue" stroke="midnightblue" points="44.23,-86.34 44.75,-75.76 37.74,-83.7 44.23,-86.34"/>
</g>
<!-- Node4 -->
<g id="node4" class="node">
<title>Node4</title>
<g id="a_node4"><a xlink:href="libccc__errors_8h.html" target="_top" xlink:title=" ">
<polygon fill="white" stroke="black" points="43,-112.5 43,-131.5 123,-131.5 123,-112.5 43,-112.5"/>
<text text-anchor="middle" x="83" y="-119.5" font-family="Consolas" font-size="10.00">libccc_errors.h</text>
</a>
</g>
</g>
<!-- Node1&#45;&gt;Node4 -->
<g id="edge3" class="edge">
<title>Node1&#45;&gt;Node4</title>
<path fill="none" stroke="midnightblue" d="M54.61,-168.08C59.37,-160.53 66.32,-149.49 72.15,-140.23"/>
<polygon fill="midnightblue" stroke="midnightblue" points="75.12,-142.08 77.49,-131.75 69.2,-138.35 75.12,-142.08"/>
</g>
<!-- Node3 -->
<g id="node3" class="node">
<title>Node3</title>
<g id="a_node3"><a xlink:title=" ">
<polygon fill="white" stroke="#bfbfbf" points="19.5,-0.5 19.5,-19.5 78.5,-19.5 78.5,-0.5 19.5,-0.5"/>
<text text-anchor="middle" x="49" y="-7.5" font-family="Consolas" font-size="10.00">stdalign.h</text>
</a>
</g>
</g>
<!-- Node2&#45;&gt;Node3 -->
<g id="edge2" class="edge">
<title>Node2&#45;&gt;Node3</title>
<path fill="none" stroke="midnightblue" d="M49,-56.08C49,-49.01 49,-38.86 49,-29.99"/>
<polygon fill="midnightblue" stroke="midnightblue" points="52.5,-29.75 49,-19.75 45.5,-29.75 52.5,-29.75"/>
</g>
<!-- Node4&#45;&gt;Node2 -->
<g id="edge4" class="edge">
<title>Node4&#45;&gt;Node2</title>
<path fill="none" stroke="midnightblue" d="M77.39,-112.08C72.63,-104.53 65.68,-93.49 59.85,-84.23"/>
<polygon fill="midnightblue" stroke="midnightblue" points="62.8,-82.35 54.51,-75.75 56.88,-86.08 62.8,-82.35"/>
</g>
</g>
</svg>
