<?xml version="1.0" encoding="UTF-8" standalone="no"?>
<!DOCTYPE svg PUBLIC "-//W3C//DTD SVG 1.1//EN"
 "http://www.w3.org/Graphics/SVG/1.1/DTD/svg11.dtd">
<!-- Generated by graphviz version 2.49.3 (20211023.0002)
 -->
<!-- Title: libccc_config.h Pages: 1 -->
<svg width="123pt" height="196pt"
 viewBox="0.00 0.00 123.00 196.00" xmlns="http://www.w3.org/2000/svg" xmlns:xlink="http://www.w3.org/1999/xlink">
<g id="graph0" class="graph" transform="scale(1 1) rotate(0) translate(4 192)">
<title>libccc_config.h</title>
<polygon fill="white" stroke="transparent" points="-4,4 -4,-192 119,-192 119,4 -4,4"/>
<!-- Node1 -->
<g id="node1" class="node">
<title>Node1</title>
<g id="a_node1"><a xlink:title=" ">
<polygon fill="#bfbfbf" stroke="black" points="0,-168.5 0,-187.5 82,-187.5 82,-168.5 0,-168.5"/>
<text text-anchor="middle" x="41" y="-175.5" font-family="Consolas" font-size="10.00">libccc_config.h</text>
</a>
</g>
</g>
<!-- Node2 -->
<g id="node2" class="node">
<title>Node2</title>
<g id="a_node2"><a xlink:href="libccc__define_8h.html" target="_top" xlink:title=" ">
<polygon fill="white" stroke="black" points="0,-56.5 0,-75.5 82,-75.5 82,-56.5 0,-56.5"/>
<text text-anchor="middle" x="41" y="-63.5" font-family="Consolas" font-size="10.00">libccc_define.h</text>
</a>
</g>
</g>
<!-- Node1&#45;&gt;Node2 -->
<g id="edge1" class="edge">
<title>Node1&#45;&gt;Node2</title>
<path fill="none" stroke="midnightblue" d="M37.14,-168.25C33.44,-159.33 28.11,-145.01 26,-132 23.42,-116.1 28.07,-98.3 32.86,-85.35"/>
<polygon fill="midnightblue" stroke="midnightblue" points="36.23,-86.34 36.75,-75.76 29.74,-83.7 36.23,-86.34"/>
</g>
<!-- Node4 -->
<g id="node4" class="node">
<title>Node4</title>
<g id="a_node4"><a xlink:href="libccc__errors_8h.html" target="_top" xlink:title=" ">
<polygon fill="white" stroke="black" points="35,-112.5 35,-131.5 115,-131.5 115,-112.5 35,-112.5"/>
<text text-anchor="middle" x="75" y="-119.5" font-family="Consolas" font-size="10.00">libccc_errors.h</text>
</a>
</g>
</g>
<!-- Node1&#45;&gt;Node4 -->
<g id="edge3" class="edge">
<title>Node1&#45;&gt;Node4</title>
<path fill="none" stroke="midnightblue" d="M46.61,-168.08C51.37,-160.53 58.32,-149.49 64.15,-140.23"/>
<polygon fill="midnightblue" stroke="midnightblue" points="67.12,-142.08 69.49,-131.75 61.2,-138.35 67.12,-142.08"/>
</g>
<!-- Node3 -->
<g id="node3" class="node">
<title>Node3</title>
<g id="a_node3"><a xlink:title=" ">
<polygon fill="white" stroke="#bfbfbf" points="11.5,-0.5 11.5,-19.5 70.5,-19.5 70.5,-0.5 11.5,-0.5"/>
<text text-anchor="middle" x="41" y="-7.5" font-family="Consolas" font-size="10.00">stdalign.h</text>
</a>
</g>
</g>
<!-- Node2&#45;&gt;Node3 -->
<g id="edge2" class="edge">
<title>Node2&#45;&gt;Node3</title>
<path fill="none" stroke="midnightblue" d="M41,-56.08C41,-49.01 41,-38.86 41,-29.99"/>
<polygon fill="midnightblue" stroke="midnightblue" points="44.5,-29.75 41,-19.75 37.5,-29.75 44.5,-29.75"/>
</g>
<!-- Node4&#45;&gt;Node2 -->
<g id="edge4" class="edge">
<title>Node4&#45;&gt;Node2</title>
<path fill="none" stroke="midnightblue" d="M69.39,-112.08C64.63,-104.53 57.68,-93.49 51.85,-84.23"/>
<polygon fill="midnightblue" stroke="midnightblue" points="54.8,-82.35 46.51,-75.75 48.88,-86.08 54.8,-82.35"/>
</g>
</g>
</svg>
