<?xml version="1.0" encoding="UTF-8" standalone="no"?>
<!DOCTYPE svg PUBLIC "-//W3C//DTD SVG 1.1//EN"
 "http://www.w3.org/Graphics/SVG/1.1/DTD/svg11.dtd">
<!-- Generated by graphviz version 2.49.3 (20211023.0002)
 -->
<!-- Title: hdr/libccc/monad/list.c Pages: 1 -->
<svg width="3772pt" height="431pt"
 viewBox="0.00 0.00 3772.00 431.00" xmlns="http://www.w3.org/2000/svg" xmlns:xlink="http://www.w3.org/1999/xlink">
<g id="graph0" class="graph" transform="scale(1 1) rotate(0) translate(4 427)">
<title>hdr/libccc/monad/list.c</title>
<polygon fill="white" stroke="transparent" points="-4,4 -4,-427 3768,-427 3768,4 -4,4"/>
<!-- Node1 -->
<g id="node1" class="node">
<title>Node1</title>
<g id="a_node1"><a xlink:title=" ">
<polygon fill="#bfbfbf" stroke="black" points="1810,-403.5 1810,-422.5 1925,-422.5 1925,-403.5 1810,-403.5"/>
<text text-anchor="middle" x="1867.5" y="-410.5" font-family="Consolas" font-size="10.00">hdr/libccc/monad/list.c</text>
</a>
</g>
</g>
<!-- Node2 -->
<g id="node2" class="node">
<title>Node2</title>
<g id="a_node2"><a xlink:href="list_8h.html" target="_top" xlink:title=" ">
<polygon fill="white" stroke="black" points="109.5,-342 109.5,-361 207.5,-361 207.5,-342 109.5,-342"/>
<text text-anchor="middle" x="158.5" y="-349" font-family="Consolas" font-size="10.00">libccc/monad/list.h</text>
</a>
</g>
</g>
<!-- Node1&#45;&gt;Node2 -->
<g id="edge1" class="edge">
<title>Node1&#45;&gt;Node2</title>
<path fill="none" stroke="midnightblue" d="M1809.79,-412.11C1554.53,-412.35 526.21,-410.65 207.5,-367 201.37,-366.16 194.96,-364.93 188.83,-363.53"/>
<polygon fill="midnightblue" stroke="midnightblue" points="189.45,-360.07 178.9,-361.06 187.76,-366.87 189.45,-360.07"/>
</g>
<!-- Node20 -->
<g id="node20" class="node">
<title>Node20</title>
<g id="a_node20"><a xlink:title=" ">
<polygon fill="white" stroke="#bfbfbf" points="226,-336.5 226,-366.5 335,-366.5 335,-336.5 226,-336.5"/>
<text text-anchor="start" x="234" y="-354.5" font-family="Consolas" font-size="10.00">libccc/../../src/monad</text>
<text text-anchor="middle" x="280.5" y="-343.5" font-family="Consolas" font-size="10.00">/list/add.c</text>
</a>
</g>
</g>
<!-- Node1&#45;&gt;Node20 -->
<g id="edge33" class="edge">
<title>Node1&#45;&gt;Node20</title>
<path fill="none" stroke="midnightblue" d="M1809.82,-411.81C1570.74,-410.81 655.95,-404.63 345.36,-367.03"/>
<polygon fill="midnightblue" stroke="midnightblue" points="345.37,-363.51 335.02,-365.74 344.51,-370.45 345.37,-363.51"/>
</g>
<!-- Node21 -->
<g id="node21" class="node">
<title>Node21</title>
<g id="a_node21"><a xlink:title=" ">
<polygon fill="white" stroke="#bfbfbf" points="353,-336.5 353,-366.5 462,-366.5 462,-336.5 353,-336.5"/>
<text text-anchor="start" x="361" y="-354.5" font-family="Consolas" font-size="10.00">libccc/../../src/monad</text>
<text text-anchor="middle" x="407.5" y="-343.5" font-family="Consolas" font-size="10.00">/list/compare.c</text>
</a>
</g>
</g>
<!-- Node1&#45;&gt;Node21 -->
<g id="edge34" class="edge">
<title>Node1&#45;&gt;Node21</title>
<path fill="none" stroke="midnightblue" d="M1809.71,-411.61C1583.51,-409.84 757.19,-401.21 472.49,-366.9"/>
<polygon fill="midnightblue" stroke="midnightblue" points="472.55,-363.37 462.19,-365.61 471.68,-370.32 472.55,-363.37"/>
</g>
<!-- Node22 -->
<g id="node22" class="node">
<title>Node22</title>
<g id="a_node22"><a xlink:title=" ">
<polygon fill="white" stroke="#bfbfbf" points="480,-336.5 480,-366.5 589,-366.5 589,-336.5 480,-336.5"/>
<text text-anchor="start" x="488" y="-354.5" font-family="Consolas" font-size="10.00">libccc/../../src/monad</text>
<text text-anchor="middle" x="534.5" y="-343.5" font-family="Consolas" font-size="10.00">/list/concat.c</text>
</a>
</g>
</g>
<!-- Node1&#45;&gt;Node22 -->
<g id="edge35" class="edge">
<title>Node1&#45;&gt;Node22</title>
<path fill="none" stroke="midnightblue" d="M1809.9,-411.39C1597.49,-408.93 857.48,-398.33 599.28,-366.87"/>
<polygon fill="midnightblue" stroke="midnightblue" points="599.55,-363.38 589.19,-365.6 598.68,-370.32 599.55,-363.38"/>
</g>
<!-- Node23 -->
<g id="node23" class="node">
<title>Node23</title>
<g id="a_node23"><a xlink:title=" ">
<polygon fill="white" stroke="#bfbfbf" points="607,-336.5 607,-366.5 716,-366.5 716,-336.5 607,-336.5"/>
<text text-anchor="start" x="615" y="-354.5" font-family="Consolas" font-size="10.00">libccc/../../src/monad</text>
<text text-anchor="middle" x="661.5" y="-343.5" font-family="Consolas" font-size="10.00">/list/contains.c</text>
</a>
</g>
</g>
<!-- Node1&#45;&gt;Node23 -->
<g id="edge36" class="edge">
<title>Node1&#45;&gt;Node23</title>
<path fill="none" stroke="midnightblue" d="M1809.88,-411.13C1611.71,-407.91 958.1,-395.46 726.25,-366.87"/>
<polygon fill="midnightblue" stroke="midnightblue" points="726.56,-363.38 716.19,-365.58 725.67,-370.33 726.56,-363.38"/>
</g>
<!-- Node24 -->
<g id="node24" class="node">
<title>Node24</title>
<g id="a_node24"><a xlink:title=" ">
<polygon fill="white" stroke="#bfbfbf" points="734,-336.5 734,-366.5 843,-366.5 843,-336.5 734,-336.5"/>
<text text-anchor="start" x="742" y="-354.5" font-family="Consolas" font-size="10.00">libccc/../../src/monad</text>
<text text-anchor="middle" x="788.5" y="-343.5" font-family="Consolas" font-size="10.00">/list/copy.c</text>
</a>
</g>
</g>
<!-- Node1&#45;&gt;Node24 -->
<g id="edge37" class="edge">
<title>Node1&#45;&gt;Node24</title>
<path fill="none" stroke="midnightblue" d="M1809.93,-410.8C1626.92,-406.78 1058.95,-392.63 853.3,-366.88"/>
<polygon fill="midnightblue" stroke="midnightblue" points="853.56,-363.39 843.2,-365.57 852.66,-370.33 853.56,-363.39"/>
</g>
<!-- Node25 -->
<g id="node25" class="node">
<title>Node25</title>
<g id="a_node25"><a xlink:title=" ">
<polygon fill="white" stroke="#bfbfbf" points="861,-336.5 861,-366.5 970,-366.5 970,-336.5 861,-336.5"/>
<text text-anchor="start" x="869" y="-354.5" font-family="Consolas" font-size="10.00">libccc/../../src/monad</text>
<text text-anchor="middle" x="915.5" y="-343.5" font-family="Consolas" font-size="10.00">/list/count.c</text>
</a>
</g>
</g>
<!-- Node1&#45;&gt;Node25 -->
<g id="edge38" class="edge">
<title>Node1&#45;&gt;Node25</title>
<path fill="none" stroke="midnightblue" d="M1809.78,-412.5C1669.33,-412.99 1298.59,-409.86 980.54,-366.96"/>
<polygon fill="midnightblue" stroke="midnightblue" points="980.58,-363.43 970.2,-365.54 979.63,-370.36 980.58,-363.43"/>
</g>
<!-- Node26 -->
<g id="node26" class="node">
<title>Node26</title>
<g id="a_node26"><a xlink:title=" ">
<polygon fill="white" stroke="#bfbfbf" points="988,-336.5 988,-366.5 1097,-366.5 1097,-336.5 988,-336.5"/>
<text text-anchor="start" x="996" y="-354.5" font-family="Consolas" font-size="10.00">libccc/../../src/monad</text>
<text text-anchor="middle" x="1042.5" y="-343.5" font-family="Consolas" font-size="10.00">/list/create.c</text>
</a>
</g>
</g>
<!-- Node1&#45;&gt;Node26 -->
<g id="edge39" class="edge">
<title>Node1&#45;&gt;Node26</title>
<path fill="none" stroke="midnightblue" d="M1809.9,-411.8C1684.02,-410.68 1374.93,-404.16 1107.11,-366.91"/>
<polygon fill="midnightblue" stroke="midnightblue" points="1107.59,-363.44 1097.2,-365.51 1106.62,-370.37 1107.59,-363.44"/>
</g>
<!-- Node27 -->
<g id="node27" class="node">
<title>Node27</title>
<g id="a_node27"><a xlink:title=" ">
<polygon fill="white" stroke="#bfbfbf" points="1115,-336.5 1115,-366.5 1224,-366.5 1224,-336.5 1115,-336.5"/>
<text text-anchor="start" x="1123" y="-354.5" font-family="Consolas" font-size="10.00">libccc/../../src/monad</text>
<text text-anchor="middle" x="1169.5" y="-343.5" font-family="Consolas" font-size="10.00">/list/delete.c</text>
</a>
</g>
</g>
<!-- Node1&#45;&gt;Node27 -->
<g id="edge40" class="edge">
<title>Node1&#45;&gt;Node27</title>
<path fill="none" stroke="midnightblue" d="M1809.92,-410.84C1699.89,-407.98 1452.1,-398.49 1234.23,-366.94"/>
<polygon fill="midnightblue" stroke="midnightblue" points="1234.61,-363.46 1224.21,-365.47 1233.6,-370.38 1234.61,-363.46"/>
</g>
<!-- Node28 -->
<g id="node28" class="node">
<title>Node28</title>
<g id="a_node28"><a xlink:title=" ">
<polygon fill="white" stroke="#bfbfbf" points="1242,-336.5 1242,-366.5 1351,-366.5 1351,-336.5 1242,-336.5"/>
<text text-anchor="start" x="1250" y="-354.5" font-family="Consolas" font-size="10.00">libccc/../../src/monad</text>
<text text-anchor="middle" x="1296.5" y="-343.5" font-family="Consolas" font-size="10.00">/list/duplicate.c</text>
</a>
</g>
</g>
<!-- Node1&#45;&gt;Node28 -->
<g id="edge41" class="edge">
<title>Node1&#45;&gt;Node28</title>
<path fill="none" stroke="midnightblue" d="M1809.79,-409.4C1717.22,-404.69 1529.73,-392.85 1361.26,-366.97"/>
<polygon fill="midnightblue" stroke="midnightblue" points="1361.64,-363.49 1351.22,-365.41 1360.56,-370.4 1361.64,-363.49"/>
</g>
<!-- Node29 -->
<g id="node29" class="node">
<title>Node29</title>
<g id="a_node29"><a xlink:title=" ">
<polygon fill="white" stroke="#bfbfbf" points="1369,-336.5 1369,-366.5 1478,-366.5 1478,-336.5 1369,-336.5"/>
<text text-anchor="start" x="1377" y="-354.5" font-family="Consolas" font-size="10.00">libccc/../../src/monad</text>
<text text-anchor="middle" x="1423.5" y="-343.5" font-family="Consolas" font-size="10.00">/list/equals.c</text>
</a>
</g>
</g>
<!-- Node1&#45;&gt;Node29 -->
<g id="edge42" class="edge">
<title>Node1&#45;&gt;Node29</title>
<path fill="none" stroke="midnightblue" d="M1809.93,-407.08C1737.3,-400.45 1608.39,-387.28 1488.34,-367.02"/>
<polygon fill="midnightblue" stroke="midnightblue" points="1488.68,-363.53 1478.24,-365.3 1487.51,-370.43 1488.68,-363.53"/>
</g>
<!-- Node30 -->
<g id="node30" class="node">
<title>Node30</title>
<g id="a_node30"><a xlink:title=" ">
<polygon fill="white" stroke="#bfbfbf" points="1496,-336.5 1496,-366.5 1605,-366.5 1605,-336.5 1496,-336.5"/>
<text text-anchor="start" x="1504" y="-354.5" font-family="Consolas" font-size="10.00">libccc/../../src/monad</text>
<text text-anchor="middle" x="1550.5" y="-343.5" font-family="Consolas" font-size="10.00">/list/filter.c</text>
</a>
</g>
</g>
<!-- Node1&#45;&gt;Node30 -->
<g id="edge43" class="edge">
<title>Node1&#45;&gt;Node30</title>
<path fill="none" stroke="midnightblue" d="M1815.52,-403.49C1766.48,-395.29 1690.67,-382.19 1615.41,-367.13"/>
<polygon fill="midnightblue" stroke="midnightblue" points="1615.77,-363.63 1605.28,-365.09 1614.39,-370.49 1615.77,-363.63"/>
</g>
<!-- Node31 -->
<g id="node31" class="node">
<title>Node31</title>
<g id="a_node31"><a xlink:title=" ">
<polygon fill="white" stroke="#bfbfbf" points="1623,-336.5 1623,-366.5 1732,-366.5 1732,-336.5 1623,-336.5"/>
<text text-anchor="start" x="1631" y="-354.5" font-family="Consolas" font-size="10.00">libccc/../../src/monad</text>
<text text-anchor="middle" x="1677.5" y="-343.5" font-family="Consolas" font-size="10.00">/list/find.c</text>
</a>
</g>
</g>
<!-- Node1&#45;&gt;Node31 -->
<g id="edge44" class="edge">
<title>Node1&#45;&gt;Node31</title>
<path fill="none" stroke="midnightblue" d="M1840.28,-403.48C1812.14,-394.66 1767.45,-380.67 1732.01,-369.57"/>
<polygon fill="midnightblue" stroke="midnightblue" points="1732.87,-366.17 1722.28,-366.52 1730.78,-372.85 1732.87,-366.17"/>
</g>
<!-- Node32 -->
<g id="node32" class="node">
<title>Node32</title>
<g id="a_node32"><a xlink:title=" ">
<polygon fill="white" stroke="#bfbfbf" points="1750,-336.5 1750,-366.5 1859,-366.5 1859,-336.5 1750,-336.5"/>
<text text-anchor="start" x="1758" y="-354.5" font-family="Consolas" font-size="10.00">libccc/../../src/monad</text>
<text text-anchor="middle" x="1804.5" y="-343.5" font-family="Consolas" font-size="10.00">/list/get.c</text>
</a>
</g>
</g>
<!-- Node1&#45;&gt;Node32 -->
<g id="edge45" class="edge">
<title>Node1&#45;&gt;Node32</title>
<path fill="none" stroke="midnightblue" d="M1858.47,-403.48C1850.26,-395.72 1837.79,-383.94 1826.91,-373.66"/>
<polygon fill="midnightblue" stroke="midnightblue" points="1829.02,-370.84 1819.35,-366.52 1824.21,-375.93 1829.02,-370.84"/>
</g>
<!-- Node33 -->
<g id="node33" class="node">
<title>Node33</title>
<g id="a_node33"><a xlink:title=" ">
<polygon fill="white" stroke="#bfbfbf" points="1877,-336.5 1877,-366.5 1986,-366.5 1986,-336.5 1877,-336.5"/>
<text text-anchor="start" x="1885" y="-354.5" font-family="Consolas" font-size="10.00">libccc/../../src/monad</text>
<text text-anchor="middle" x="1931.5" y="-343.5" font-family="Consolas" font-size="10.00">/list/has.c</text>
</a>
</g>
</g>
<!-- Node1&#45;&gt;Node33 -->
<g id="edge46" class="edge">
<title>Node1&#45;&gt;Node33</title>
<path fill="none" stroke="midnightblue" d="M1876.67,-403.48C1885.09,-395.64 1897.92,-383.71 1909.06,-373.37"/>
<polygon fill="midnightblue" stroke="midnightblue" points="1911.48,-375.9 1916.42,-366.52 1906.71,-370.77 1911.48,-375.9"/>
</g>
<!-- Node34 -->
<g id="node34" class="node">
<title>Node34</title>
<g id="a_node34"><a xlink:title=" ">
<polygon fill="white" stroke="#bfbfbf" points="2004,-336.5 2004,-366.5 2113,-366.5 2113,-336.5 2004,-336.5"/>
<text text-anchor="start" x="2012" y="-354.5" font-family="Consolas" font-size="10.00">libccc/../../src/monad</text>
<text text-anchor="middle" x="2058.5" y="-343.5" font-family="Consolas" font-size="10.00">/list/insert.c</text>
</a>
</g>
</g>
<!-- Node1&#45;&gt;Node34 -->
<g id="edge47" class="edge">
<title>Node1&#45;&gt;Node34</title>
<path fill="none" stroke="midnightblue" d="M1894.87,-403.48C1923.15,-394.66 1968.08,-380.67 2003.7,-369.57"/>
<polygon fill="midnightblue" stroke="midnightblue" points="2004.98,-372.84 2013.49,-366.52 2002.9,-366.16 2004.98,-372.84"/>
</g>
<!-- Node35 -->
<g id="node35" class="node">
<title>Node35</title>
<g id="a_node35"><a xlink:title=" ">
<polygon fill="white" stroke="#bfbfbf" points="2131,-336.5 2131,-366.5 2240,-366.5 2240,-336.5 2131,-336.5"/>
<text text-anchor="start" x="2139" y="-354.5" font-family="Consolas" font-size="10.00">libccc/../../src/monad</text>
<text text-anchor="middle" x="2185.5" y="-343.5" font-family="Consolas" font-size="10.00">/list/item.c</text>
</a>
</g>
</g>
<!-- Node1&#45;&gt;Node35 -->
<g id="edge48" class="edge">
<title>Node1&#45;&gt;Node35</title>
<path fill="none" stroke="midnightblue" d="M1920.39,-403.48C1969.85,-395.33 2046,-382.32 2120.83,-367.28"/>
<polygon fill="midnightblue" stroke="midnightblue" points="2121.79,-370.66 2130.9,-365.25 2120.41,-363.8 2121.79,-370.66"/>
</g>
<!-- Node36 -->
<g id="node36" class="node">
<title>Node36</title>
<g id="a_node36"><a xlink:title=" ">
<polygon fill="white" stroke="#bfbfbf" points="2258,-336.5 2258,-366.5 2367,-366.5 2367,-336.5 2258,-336.5"/>
<text text-anchor="start" x="2266" y="-354.5" font-family="Consolas" font-size="10.00">libccc/../../src/monad</text>
<text text-anchor="middle" x="2312.5" y="-343.5" font-family="Consolas" font-size="10.00">/list/iterate.c</text>
</a>
</g>
</g>
<!-- Node1&#45;&gt;Node36 -->
<g id="edge49" class="edge">
<title>Node1&#45;&gt;Node36</title>
<path fill="none" stroke="midnightblue" d="M1925.06,-407.19C1998.02,-400.65 2127.84,-387.57 2247.84,-367.18"/>
<polygon fill="midnightblue" stroke="midnightblue" points="2248.68,-370.59 2257.94,-365.44 2247.49,-363.69 2248.68,-370.59"/>
</g>
<!-- Node37 -->
<g id="node37" class="node">
<title>Node37</title>
<g id="a_node37"><a xlink:title=" ">
<polygon fill="white" stroke="#bfbfbf" points="2385,-336.5 2385,-366.5 2494,-366.5 2494,-336.5 2385,-336.5"/>
<text text-anchor="start" x="2393" y="-354.5" font-family="Consolas" font-size="10.00">libccc/../../src/monad</text>
<text text-anchor="middle" x="2439.5" y="-343.5" font-family="Consolas" font-size="10.00">/list/length.c</text>
</a>
</g>
</g>
<!-- Node1&#45;&gt;Node37 -->
<g id="edge50" class="edge">
<title>Node1&#45;&gt;Node37</title>
<path fill="none" stroke="midnightblue" d="M1925.07,-409.5C2017.88,-404.91 2206.42,-393.23 2374.91,-367.12"/>
<polygon fill="midnightblue" stroke="midnightblue" points="2375.62,-370.55 2384.95,-365.54 2374.53,-363.63 2375.62,-370.55"/>
</g>
<!-- Node38 -->
<g id="node38" class="node">
<title>Node38</title>
<g id="a_node38"><a xlink:title=" ">
<polygon fill="white" stroke="#bfbfbf" points="2512,-336.5 2512,-366.5 2621,-366.5 2621,-336.5 2512,-336.5"/>
<text text-anchor="start" x="2520" y="-354.5" font-family="Consolas" font-size="10.00">libccc/../../src/monad</text>
<text text-anchor="middle" x="2566.5" y="-343.5" font-family="Consolas" font-size="10.00">/list/map.c</text>
</a>
</g>
</g>
<!-- Node1&#45;&gt;Node38 -->
<g id="edge51" class="edge">
<title>Node1&#45;&gt;Node38</title>
<path fill="none" stroke="midnightblue" d="M1925.27,-410.92C2035.67,-408.19 2284.26,-398.92 2501.95,-367.08"/>
<polygon fill="midnightblue" stroke="midnightblue" points="2502.58,-370.53 2511.96,-365.6 2501.56,-363.6 2502.58,-370.53"/>
</g>
<!-- Node39 -->
<g id="node39" class="node">
<title>Node39</title>
<g id="a_node39"><a xlink:title=" ">
<polygon fill="white" stroke="#bfbfbf" points="2639,-336.5 2639,-366.5 2748,-366.5 2748,-336.5 2639,-336.5"/>
<text text-anchor="start" x="2647" y="-354.5" font-family="Consolas" font-size="10.00">libccc/../../src/monad</text>
<text text-anchor="middle" x="2693.5" y="-343.5" font-family="Consolas" font-size="10.00">/list/new.c</text>
</a>
</g>
</g>
<!-- Node1&#45;&gt;Node39 -->
<g id="edge52" class="edge">
<title>Node1&#45;&gt;Node39</title>
<path fill="none" stroke="midnightblue" d="M1925.26,-411.88C2051.49,-410.91 2361.43,-404.67 2629.07,-367.05"/>
<polygon fill="midnightblue" stroke="midnightblue" points="2629.56,-370.51 2638.97,-365.64 2628.58,-363.58 2629.56,-370.51"/>
</g>
<!-- Node40 -->
<g id="node40" class="node">
<title>Node40</title>
<g id="a_node40"><a xlink:title=" ">
<polygon fill="white" stroke="#bfbfbf" points="2766,-336.5 2766,-366.5 2875,-366.5 2875,-336.5 2766,-336.5"/>
<text text-anchor="start" x="2774" y="-354.5" font-family="Consolas" font-size="10.00">libccc/../../src/monad</text>
<text text-anchor="middle" x="2820.5" y="-343.5" font-family="Consolas" font-size="10.00">/list/reduce.c</text>
</a>
</g>
</g>
<!-- Node1&#45;&gt;Node40 -->
<g id="edge53" class="edge">
<title>Node1&#45;&gt;Node40</title>
<path fill="none" stroke="midnightblue" d="M1925.1,-412.58C2065.68,-413.24 2437.57,-410.49 2755.63,-367.09"/>
<polygon fill="midnightblue" stroke="midnightblue" points="2756.55,-370.5 2765.97,-365.67 2755.59,-363.57 2756.55,-370.5"/>
</g>
<!-- Node41 -->
<g id="node41" class="node">
<title>Node41</title>
<g id="a_node41"><a xlink:title=" ">
<polygon fill="white" stroke="#bfbfbf" points="2893,-336.5 2893,-366.5 3002,-366.5 3002,-336.5 2893,-336.5"/>
<text text-anchor="start" x="2901" y="-354.5" font-family="Consolas" font-size="10.00">libccc/../../src/monad</text>
<text text-anchor="middle" x="2947.5" y="-343.5" font-family="Consolas" font-size="10.00">/list/remove.c</text>
</a>
</g>
</g>
<!-- Node1&#45;&gt;Node41 -->
<g id="edge54" class="edge">
<title>Node1&#45;&gt;Node41</title>
<path fill="none" stroke="midnightblue" d="M1925.18,-410.83C2108.57,-406.89 2677.68,-392.98 2882.9,-367.01"/>
<polygon fill="midnightblue" stroke="midnightblue" points="2883.52,-370.46 2892.98,-365.69 2882.61,-363.52 2883.52,-370.46"/>
</g>
<!-- Node42 -->
<g id="node42" class="node">
<title>Node42</title>
<g id="a_node42"><a xlink:title=" ">
<polygon fill="white" stroke="#bfbfbf" points="3020,-336.5 3020,-366.5 3129,-366.5 3129,-336.5 3020,-336.5"/>
<text text-anchor="start" x="3028" y="-354.5" font-family="Consolas" font-size="10.00">libccc/../../src/monad</text>
<text text-anchor="middle" x="3074.5" y="-343.5" font-family="Consolas" font-size="10.00">/list/removeat.c</text>
</a>
</g>
</g>
<!-- Node1&#45;&gt;Node42 -->
<g id="edge55" class="edge">
<title>Node1&#45;&gt;Node42</title>
<path fill="none" stroke="midnightblue" d="M1925.22,-411.16C2123.76,-408.04 2778.54,-395.86 3009.94,-367"/>
<polygon fill="midnightblue" stroke="midnightblue" points="3010.51,-370.46 3019.98,-365.7 3009.61,-363.52 3010.51,-370.46"/>
</g>
<!-- Node43 -->
<g id="node43" class="node">
<title>Node43</title>
<g id="a_node43"><a xlink:title=" ">
<polygon fill="white" stroke="#bfbfbf" points="3147,-336.5 3147,-366.5 3256,-366.5 3256,-336.5 3147,-336.5"/>
<text text-anchor="start" x="3155" y="-354.5" font-family="Consolas" font-size="10.00">libccc/../../src/monad</text>
<text text-anchor="middle" x="3201.5" y="-343.5" font-family="Consolas" font-size="10.00">/list/replace.c</text>
</a>
</g>
</g>
<!-- Node1&#45;&gt;Node43 -->
<g id="edge56" class="edge">
<title>Node1&#45;&gt;Node43</title>
<path fill="none" stroke="midnightblue" d="M1925.19,-411.42C2137.95,-409.06 2879.17,-398.78 3136.91,-367"/>
<polygon fill="midnightblue" stroke="midnightblue" points="3137.5,-370.46 3146.98,-365.72 3136.62,-363.51 3137.5,-370.46"/>
</g>
<!-- Node44 -->
<g id="node44" class="node">
<title>Node44</title>
<g id="a_node44"><a xlink:title=" ">
<polygon fill="white" stroke="#bfbfbf" points="3274,-336.5 3274,-366.5 3383,-366.5 3383,-336.5 3274,-336.5"/>
<text text-anchor="start" x="3282" y="-354.5" font-family="Consolas" font-size="10.00">libccc/../../src/monad</text>
<text text-anchor="middle" x="3328.5" y="-343.5" font-family="Consolas" font-size="10.00">/list/reverse.c</text>
</a>
</g>
</g>
<!-- Node1&#45;&gt;Node44 -->
<g id="edge57" class="edge">
<title>Node1&#45;&gt;Node44</title>
<path fill="none" stroke="midnightblue" d="M1925.38,-411.63C2151.91,-409.97 2979.46,-401.7 3263.7,-367.03"/>
<polygon fill="midnightblue" stroke="midnightblue" points="3264.5,-370.45 3273.98,-365.73 3263.62,-363.51 3264.5,-370.45"/>
</g>
<!-- Node45 -->
<g id="node45" class="node">
<title>Node45</title>
<g id="a_node45"><a xlink:title=" ">
<polygon fill="white" stroke="#bfbfbf" points="3401,-336.5 3401,-366.5 3510,-366.5 3510,-336.5 3401,-336.5"/>
<text text-anchor="start" x="3409" y="-354.5" font-family="Consolas" font-size="10.00">libccc/../../src/monad</text>
<text text-anchor="middle" x="3455.5" y="-343.5" font-family="Consolas" font-size="10.00">/list/set.c</text>
</a>
</g>
</g>
<!-- Node1&#45;&gt;Node45 -->
<g id="edge58" class="edge">
<title>Node1&#45;&gt;Node45</title>
<path fill="none" stroke="midnightblue" d="M1925.21,-411.82C2164.45,-410.82 3079.85,-404.65 3390.63,-367.03"/>
<polygon fill="midnightblue" stroke="midnightblue" points="3391.49,-370.45 3400.98,-365.74 3390.63,-363.51 3391.49,-370.45"/>
</g>
<!-- Node46 -->
<g id="node46" class="node">
<title>Node46</title>
<g id="a_node46"><a xlink:title=" ">
<polygon fill="white" stroke="#bfbfbf" points="3528,-336.5 3528,-366.5 3637,-366.5 3637,-336.5 3528,-336.5"/>
<text text-anchor="start" x="3536" y="-354.5" font-family="Consolas" font-size="10.00">libccc/../../src/monad</text>
<text text-anchor="middle" x="3582.5" y="-343.5" font-family="Consolas" font-size="10.00">/list/sub.c</text>
</a>
</g>
</g>
<!-- Node1&#45;&gt;Node46 -->
<g id="edge59" class="edge">
<title>Node1&#45;&gt;Node46</title>
<path fill="none" stroke="midnightblue" d="M1925.24,-411.97C2176.96,-411.59 3180.57,-407.61 3517.72,-367.02"/>
<polygon fill="midnightblue" stroke="midnightblue" points="3518.49,-370.45 3527.98,-365.75 3517.63,-363.5 3518.49,-370.45"/>
</g>
<!-- Node47 -->
<g id="node47" class="node">
<title>Node47</title>
<g id="a_node47"><a xlink:title=" ">
<polygon fill="white" stroke="#bfbfbf" points="3655,-336.5 3655,-366.5 3764,-366.5 3764,-336.5 3655,-336.5"/>
<text text-anchor="start" x="3663" y="-354.5" font-family="Consolas" font-size="10.00">libccc/../../src/monad</text>
<text text-anchor="middle" x="3709.5" y="-343.5" font-family="Consolas" font-size="10.00">/list/wedge.c</text>
</a>
</g>
</g>
<!-- Node1&#45;&gt;Node47 -->
<g id="edge60" class="edge">
<title>Node1&#45;&gt;Node47</title>
<path fill="none" stroke="midnightblue" d="M1925.16,-412.1C2188.76,-412.31 3281.52,-410.58 3644.97,-366.99"/>
<polygon fill="midnightblue" stroke="midnightblue" points="3645.49,-370.45 3654.98,-365.75 3644.63,-363.5 3645.49,-370.45"/>
</g>
<!-- Node2&#45;&gt;Node1 -->
<g id="edge32" class="edge">
<title>Node2&#45;&gt;Node1</title>
<path fill="none" stroke="midnightblue" d="M196.04,-361.06C205.67,-363.42 215.94,-365.69 225.5,-367 537.71,-409.76 1530.87,-412.27 1799.83,-412.12"/>
<polygon fill="midnightblue" stroke="midnightblue" points="1799.84,-415.62 1809.84,-412.11 1799.84,-408.62 1799.84,-415.62"/>
</g>
<!-- Node3 -->
<g id="node3" class="node">
<title>Node3</title>
<g id="a_node3"><a xlink:title=" ">
<polygon fill="white" stroke="#bfbfbf" points="78.5,-280.5 78.5,-299.5 130.5,-299.5 130.5,-280.5 78.5,-280.5"/>
<text text-anchor="middle" x="104.5" y="-287.5" font-family="Consolas" font-size="10.00">stdarg.h</text>
</a>
</g>
</g>
<!-- Node2&#45;&gt;Node3 -->
<g id="edge2" class="edge">
<title>Node2&#45;&gt;Node3</title>
<path fill="none" stroke="midnightblue" d="M150.76,-341.98C142.5,-332.87 129.22,-318.24 119.01,-306.98"/>
<polygon fill="midnightblue" stroke="midnightblue" points="121.53,-304.56 112.22,-299.51 116.35,-309.27 121.53,-304.56"/>
</g>
<!-- Node4 -->
<g id="node4" class="node">
<title>Node4</title>
<g id="a_node4"><a xlink:href="bool_8h.html" target="_top" xlink:title=" ">
<polygon fill="white" stroke="black" points="0,-168.5 0,-187.5 71,-187.5 71,-168.5 0,-168.5"/>
<text text-anchor="middle" x="35.5" y="-175.5" font-family="Consolas" font-size="10.00">libccc/bool.h</text>
</a>
</g>
</g>
<!-- Node2&#45;&gt;Node4 -->
<g id="edge3" class="edge">
<title>Node2&#45;&gt;Node4</title>
<path fill="none" stroke="midnightblue" d="M157.64,-341.68C155.97,-327.73 151.32,-300.11 139.5,-280 118.12,-243.64 80.16,-211.6 56.49,-193.81"/>
<polygon fill="midnightblue" stroke="midnightblue" points="58.32,-190.81 48.19,-187.71 54.17,-196.45 58.32,-190.81"/>
</g>
<!-- Node15 -->
<g id="node15" class="node">
<title>Node15</title>
<g id="a_node15"><a xlink:href="int_8h.html" target="_top" xlink:title=" ">
<polygon fill="white" stroke="black" points="322.5,-280.5 322.5,-299.5 386.5,-299.5 386.5,-280.5 322.5,-280.5"/>
<text text-anchor="middle" x="354.5" y="-287.5" font-family="Consolas" font-size="10.00">libccc/int.h</text>
</a>
</g>
</g>
<!-- Node2&#45;&gt;Node15 -->
<g id="edge31" class="edge">
<title>Node2&#45;&gt;Node15</title>
<path fill="none" stroke="midnightblue" d="M186.58,-341.98C220.79,-331.59 278.7,-314.01 316.77,-302.45"/>
<polygon fill="midnightblue" stroke="midnightblue" points="317.92,-305.76 326.47,-299.51 315.88,-299.06 317.92,-305.76"/>
</g>
<!-- Node5 -->
<g id="node5" class="node">
<title>Node5</title>
<g id="a_node5"><a xlink:href="libccc_8h.html" target="_top" xlink:title=" ">
<polygon fill="white" stroke="black" points="329.5,-224.5 329.5,-243.5 379.5,-243.5 379.5,-224.5 329.5,-224.5"/>
<text text-anchor="middle" x="354.5" y="-231.5" font-family="Consolas" font-size="10.00">libccc.h</text>
</a>
</g>
</g>
<!-- Node4&#45;&gt;Node5 -->
<g id="edge4" class="edge">
<title>Node4&#45;&gt;Node5</title>
<path fill="none" stroke="midnightblue" d="M71.14,-183.92C78.93,-185.26 87.03,-186.7 94.5,-188 175.08,-201.99 269.37,-217.59 319.43,-226.25"/>
<polygon fill="midnightblue" stroke="midnightblue" points="318.97,-229.73 329.42,-227.99 320.17,-222.83 318.97,-229.73"/>
</g>
<!-- Node5&#45;&gt;Node4 -->
<g id="edge14" class="edge">
<title>Node5&#45;&gt;Node4</title>
<path fill="none" stroke="midnightblue" d="M329.47,-229.7C282.07,-222.62 176.86,-205.35 81.31,-188.83"/>
<polygon fill="midnightblue" stroke="midnightblue" points="81.66,-185.33 71.21,-187.07 80.46,-192.23 81.66,-185.33"/>
</g>
<!-- Node6 -->
<g id="node6" class="node">
<title>Node6</title>
<g id="a_node6"><a xlink:href="libccc__define_8h.html" target="_top" xlink:title=" ">
<polygon fill="white" stroke="black" points="146.5,-56.5 146.5,-75.5 228.5,-75.5 228.5,-56.5 146.5,-56.5"/>
<text text-anchor="middle" x="187.5" y="-63.5" font-family="Consolas" font-size="10.00">libccc_define.h</text>
</a>
</g>
</g>
<!-- Node5&#45;&gt;Node6 -->
<g id="edge5" class="edge">
<title>Node5&#45;&gt;Node6</title>
<path fill="none" stroke="midnightblue" d="M329.12,-233.16C272.54,-231.91 138.38,-219.53 104.5,-132 101.29,-123.71 99.95,-119.64 104.5,-112 113.6,-96.72 129.89,-86.31 145.64,-79.39"/>
<polygon fill="midnightblue" stroke="midnightblue" points="147.33,-82.48 155.32,-75.51 144.73,-75.98 147.33,-82.48"/>
</g>
<!-- Node8 -->
<g id="node8" class="node">
<title>Node8</title>
<g id="a_node8"><a xlink:href="libccc__errors_8h.html" target="_top" xlink:title=" ">
<polygon fill="white" stroke="black" points="113.5,-112.5 113.5,-131.5 193.5,-131.5 193.5,-112.5 113.5,-112.5"/>
<text text-anchor="middle" x="153.5" y="-119.5" font-family="Consolas" font-size="10.00">libccc_errors.h</text>
</a>
</g>
</g>
<!-- Node5&#45;&gt;Node8 -->
<g id="edge7" class="edge">
<title>Node5&#45;&gt;Node8</title>
<path fill="none" stroke="midnightblue" d="M329.43,-229.98C284.75,-224.1 193.91,-209.77 171.5,-188 159.17,-176.03 155.06,-156.42 153.8,-141.86"/>
<polygon fill="midnightblue" stroke="midnightblue" points="157.28,-141.34 153.3,-131.52 150.29,-141.68 157.28,-141.34"/>
</g>
<!-- Node9 -->
<g id="node9" class="node">
<title>Node9</title>
<g id="a_node9"><a xlink:href="libccc__config_8h.html" target="_top" xlink:title=" ">
<polygon fill="white" stroke="black" points="180.5,-168.5 180.5,-187.5 262.5,-187.5 262.5,-168.5 180.5,-168.5"/>
<text text-anchor="middle" x="221.5" y="-175.5" font-family="Consolas" font-size="10.00">libccc_config.h</text>
</a>
</g>
</g>
<!-- Node5&#45;&gt;Node9 -->
<g id="edge9" class="edge">
<title>Node5&#45;&gt;Node9</title>
<path fill="none" stroke="midnightblue" d="M333.43,-224.44C311.44,-215.52 276.77,-201.44 251.84,-191.32"/>
<polygon fill="midnightblue" stroke="midnightblue" points="253.06,-188.04 242.48,-187.52 250.42,-194.52 253.06,-188.04"/>
</g>
<!-- Node10 -->
<g id="node10" class="node">
<title>Node10</title>
<g id="a_node10"><a xlink:href="libccc__naming_8h.html" target="_top" xlink:title=" ">
<polygon fill="white" stroke="black" points="250,-112.5 250,-131.5 337,-131.5 337,-112.5 250,-112.5"/>
<text text-anchor="middle" x="293.5" y="-119.5" font-family="Consolas" font-size="10.00">libccc_naming.h</text>
</a>
</g>
</g>
<!-- Node5&#45;&gt;Node10 -->
<g id="edge12" class="edge">
<title>Node5&#45;&gt;Node10</title>
<path fill="none" stroke="midnightblue" d="M342.74,-224.32C332.44,-216.1 317.86,-202.82 309.5,-188 301.38,-173.61 297.35,-155.15 295.36,-141.58"/>
<polygon fill="midnightblue" stroke="midnightblue" points="298.82,-141.04 294.13,-131.54 291.87,-141.89 298.82,-141.04"/>
</g>
<!-- Node11 -->
<g id="node11" class="node">
<title>Node11</title>
<g id="a_node11"><a xlink:href="char_8h.html" target="_top" xlink:title=" ">
<polygon fill="white" stroke="black" points="319,-168.5 319,-187.5 390,-187.5 390,-168.5 319,-168.5"/>
<text text-anchor="middle" x="354.5" y="-175.5" font-family="Consolas" font-size="10.00">libccc/char.h</text>
</a>
</g>
</g>
<!-- Node5&#45;&gt;Node11 -->
<g id="edge15" class="edge">
<title>Node5&#45;&gt;Node11</title>
<path fill="none" stroke="midnightblue" d="M349.33,-224.08C347.82,-216.93 347.39,-206.64 348.04,-197.69"/>
<polygon fill="midnightblue" stroke="midnightblue" points="351.52,-198.13 349.37,-187.75 344.58,-197.2 351.52,-198.13"/>
</g>
<!-- Node5&#45;&gt;Node15 -->
<g id="edge20" class="edge">
<title>Node5&#45;&gt;Node15</title>
<path fill="none" stroke="midnightblue" d="M359.63,-243.75C361.16,-250.86 361.6,-261.14 360.97,-270.1"/>
<polygon fill="midnightblue" stroke="midnightblue" points="357.49,-269.71 359.67,-280.08 364.43,-270.62 357.49,-269.71"/>
</g>
<!-- Node16 -->
<g id="node16" class="node">
<title>Node16</title>
<g id="a_node16"><a xlink:href="fixed_8h.html" target="_top" xlink:title=" ">
<polygon fill="white" stroke="black" points="508.5,-168.5 508.5,-187.5 582.5,-187.5 582.5,-168.5 508.5,-168.5"/>
<text text-anchor="middle" x="545.5" y="-175.5" font-family="Consolas" font-size="10.00">libccc/fixed.h</text>
</a>
</g>
</g>
<!-- Node5&#45;&gt;Node16 -->
<g id="edge23" class="edge">
<title>Node5&#45;&gt;Node16</title>
<path fill="none" stroke="midnightblue" d="M379.68,-224.44C410.47,-215.16 462.84,-200.31 500.56,-190.13"/>
<polygon fill="midnightblue" stroke="midnightblue" points="501.54,-193.49 510.3,-187.52 499.73,-186.73 501.54,-193.49"/>
</g>
<!-- Node17 -->
<g id="node17" class="node">
<title>Node17</title>
<g id="a_node17"><a xlink:href="float_8h.html" target="_top" xlink:title=" ">
<polygon fill="white" stroke="black" points="600.5,-168.5 600.5,-187.5 672.5,-187.5 672.5,-168.5 600.5,-168.5"/>
<text text-anchor="middle" x="636.5" y="-175.5" font-family="Consolas" font-size="10.00">libccc/float.h</text>
</a>
</g>
</g>
<!-- Node5&#45;&gt;Node17 -->
<g id="edge25" class="edge">
<title>Node5&#45;&gt;Node17</title>
<path fill="none" stroke="midnightblue" d="M379.68,-227.2C421.88,-218.72 508.71,-202.38 582.5,-188 584.96,-187.52 587.5,-187.02 590.08,-186.52"/>
<polygon fill="midnightblue" stroke="midnightblue" points="590.96,-189.91 600.1,-184.56 589.62,-183.04 590.96,-189.91"/>
</g>
<!-- Node18 -->
<g id="node18" class="node">
<title>Node18</title>
<g id="a_node18"><a xlink:href="pointer_8h.html" target="_top" xlink:title=" ">
<polygon fill="white" stroke="black" points="408.5,-168.5 408.5,-187.5 490.5,-187.5 490.5,-168.5 408.5,-168.5"/>
<text text-anchor="middle" x="449.5" y="-175.5" font-family="Consolas" font-size="10.00">libccc/pointer.h</text>
</a>
</g>
</g>
<!-- Node5&#45;&gt;Node18 -->
<g id="edge27" class="edge">
<title>Node5&#45;&gt;Node18</title>
<path fill="none" stroke="midnightblue" d="M364.65,-224.32C377.95,-215.7 401.15,-202.36 420.03,-192.39"/>
<polygon fill="midnightblue" stroke="midnightblue" points="421.89,-195.36 429.16,-187.65 418.68,-189.15 421.89,-195.36"/>
</g>
<!-- Node7 -->
<g id="node7" class="node">
<title>Node7</title>
<g id="a_node7"><a xlink:title=" ">
<polygon fill="white" stroke="#bfbfbf" points="158,-0.5 158,-19.5 217,-19.5 217,-0.5 158,-0.5"/>
<text text-anchor="middle" x="187.5" y="-7.5" font-family="Consolas" font-size="10.00">stdalign.h</text>
</a>
</g>
</g>
<!-- Node6&#45;&gt;Node7 -->
<g id="edge6" class="edge">
<title>Node6&#45;&gt;Node7</title>
<path fill="none" stroke="midnightblue" d="M187.5,-56.08C187.5,-49.01 187.5,-38.86 187.5,-29.99"/>
<polygon fill="midnightblue" stroke="midnightblue" points="191,-29.75 187.5,-19.75 184,-29.75 191,-29.75"/>
</g>
<!-- Node8&#45;&gt;Node6 -->
<g id="edge8" class="edge">
<title>Node8&#45;&gt;Node6</title>
<path fill="none" stroke="midnightblue" d="M159.11,-112.08C163.87,-104.53 170.82,-93.49 176.65,-84.23"/>
<polygon fill="midnightblue" stroke="midnightblue" points="179.62,-86.08 181.99,-75.75 173.7,-82.35 179.62,-86.08"/>
</g>
<!-- Node9&#45;&gt;Node6 -->
<g id="edge10" class="edge">
<title>Node9&#45;&gt;Node6</title>
<path fill="none" stroke="midnightblue" d="M219.02,-168.14C215.49,-155.6 208.75,-131.97 202.5,-112 199.73,-103.15 196.5,-93.37 193.74,-85.2"/>
<polygon fill="midnightblue" stroke="midnightblue" points="197.01,-83.94 190.47,-75.6 190.38,-86.19 197.01,-83.94"/>
</g>
<!-- Node9&#45;&gt;Node8 -->
<g id="edge11" class="edge">
<title>Node9&#45;&gt;Node8</title>
<path fill="none" stroke="midnightblue" d="M210.57,-168.32C200.33,-160.18 184.78,-147.84 172.5,-138.09"/>
<polygon fill="midnightblue" stroke="midnightblue" points="174.63,-135.31 164.62,-131.83 170.28,-140.79 174.63,-135.31"/>
</g>
<!-- Node10&#45;&gt;Node6 -->
<g id="edge13" class="edge">
<title>Node10&#45;&gt;Node6</title>
<path fill="none" stroke="midnightblue" d="M276.47,-112.32C259.47,-103.66 233.12,-90.24 213.51,-80.25"/>
<polygon fill="midnightblue" stroke="midnightblue" points="214.99,-77.08 204.49,-75.65 211.81,-83.31 214.99,-77.08"/>
</g>
<!-- Node11&#45;&gt;Node5 -->
<g id="edge17" class="edge">
<title>Node11&#45;&gt;Node5</title>
<path fill="none" stroke="midnightblue" d="M359.63,-187.75C361.16,-194.86 361.6,-205.14 360.97,-214.1"/>
<polygon fill="midnightblue" stroke="midnightblue" points="357.49,-213.71 359.67,-224.08 364.43,-214.62 357.49,-213.71"/>
</g>
<!-- Node12 -->
<g id="node12" class="node">
<title>Node12</title>
<g id="a_node12"><a xlink:title=" ">
<polygon fill="white" stroke="#bfbfbf" points="591,-112.5 591,-131.5 640,-131.5 640,-112.5 591,-112.5"/>
<text text-anchor="middle" x="615.5" y="-119.5" font-family="Consolas" font-size="10.00">stdint.h</text>
</a>
</g>
</g>
<!-- Node11&#45;&gt;Node12 -->
<g id="edge16" class="edge">
<title>Node11&#45;&gt;Node12</title>
<path fill="none" stroke="midnightblue" d="M390.36,-169.82C393.45,-169.2 396.53,-168.59 399.5,-168 477.63,-152.5 500.06,-151.02 580.57,-132.34"/>
<polygon fill="midnightblue" stroke="midnightblue" points="581.74,-135.66 590.68,-129.97 580.15,-128.84 581.74,-135.66"/>
</g>
<!-- Node13 -->
<g id="node13" class="node">
<title>Node13</title>
<g id="a_node13"><a xlink:title=" ">
<polygon fill="white" stroke="#bfbfbf" points="355,-112.5 355,-131.5 448,-131.5 448,-112.5 355,-112.5"/>
<text text-anchor="middle" x="401.5" y="-119.5" font-family="Consolas" font-size="10.00">libccc/text/ascii.h</text>
</a>
</g>
</g>
<!-- Node11&#45;&gt;Node13 -->
<g id="edge18" class="edge">
<title>Node11&#45;&gt;Node13</title>
<path fill="none" stroke="midnightblue" d="M362.26,-168.08C369.04,-160.3 379.04,-148.8 387.26,-139.37"/>
<polygon fill="midnightblue" stroke="midnightblue" points="389.96,-141.59 393.88,-131.75 384.68,-137 389.96,-141.59"/>
</g>
<!-- Node14 -->
<g id="node14" class="node">
<title>Node14</title>
<g id="a_node14"><a xlink:title=" ">
<polygon fill="white" stroke="#bfbfbf" points="466,-112.5 466,-131.5 573,-131.5 573,-112.5 466,-112.5"/>
<text text-anchor="middle" x="519.5" y="-119.5" font-family="Consolas" font-size="10.00">libccc/text/unicode.h</text>
</a>
</g>
</g>
<!-- Node11&#45;&gt;Node14 -->
<g id="edge19" class="edge">
<title>Node11&#45;&gt;Node14</title>
<path fill="none" stroke="midnightblue" d="M380.64,-168.44C408.52,-159.32 452.85,-144.81 483.9,-134.65"/>
<polygon fill="midnightblue" stroke="midnightblue" points="485.06,-137.95 493.48,-131.52 482.88,-131.3 485.06,-137.95"/>
</g>
<!-- Node15&#45;&gt;Node5 -->
<g id="edge22" class="edge">
<title>Node15&#45;&gt;Node5</title>
<path fill="none" stroke="midnightblue" d="M349.33,-280.08C347.82,-272.93 347.39,-262.64 348.04,-253.69"/>
<polygon fill="midnightblue" stroke="midnightblue" points="351.52,-254.13 349.37,-243.75 344.58,-253.2 351.52,-254.13"/>
</g>
<!-- Node15&#45;&gt;Node12 -->
<g id="edge21" class="edge">
<title>Node15&#45;&gt;Node12</title>
<path fill="none" stroke="midnightblue" d="M386.7,-283.95C461.97,-271.43 645.78,-236.41 681.5,-188 696.25,-168.01 669.16,-148.47 645.36,-136.12"/>
<polygon fill="midnightblue" stroke="midnightblue" points="646.68,-132.87 636.16,-131.6 643.59,-139.15 646.68,-132.87"/>
</g>
<!-- Node16&#45;&gt;Node5 -->
<g id="edge24" class="edge">
<title>Node16&#45;&gt;Node5</title>
<path fill="none" stroke="midnightblue" d="M520.41,-187.53C486.91,-197.63 427.78,-214.35 389.81,-224.45"/>
<polygon fill="midnightblue" stroke="midnightblue" points="388.48,-221.19 379.71,-227.12 390.27,-227.95 388.48,-221.19"/>
</g>
<!-- Node17&#45;&gt;Node5 -->
<g id="edge26" class="edge">
<title>Node17&#45;&gt;Node5</title>
<path fill="none" stroke="midnightblue" d="M602.87,-187.54C602.07,-187.69 601.28,-187.85 600.5,-188 525.82,-202.56 437.78,-219.12 389.73,-227.5"/>
<polygon fill="midnightblue" stroke="midnightblue" points="389.08,-224.06 379.82,-229.21 390.27,-230.96 389.08,-224.06"/>
</g>
<!-- Node18&#45;&gt;Node5 -->
<g id="edge30" class="edge">
<title>Node18&#45;&gt;Node5</title>
<path fill="none" stroke="midnightblue" d="M439.38,-187.65C426.1,-196.27 402.91,-209.61 384.02,-219.59"/>
<polygon fill="midnightblue" stroke="midnightblue" points="382.15,-216.62 374.88,-224.32 385.37,-222.83 382.15,-216.62"/>
</g>
<!-- Node18&#45;&gt;Node12 -->
<g id="edge29" class="edge">
<title>Node18&#45;&gt;Node12</title>
<path fill="none" stroke="midnightblue" d="M475.8,-168.44C504.35,-159.16 550.02,-144.3 581.33,-134.12"/>
<polygon fill="midnightblue" stroke="midnightblue" points="582.52,-137.41 590.94,-130.99 580.35,-130.75 582.52,-137.41"/>
</g>
<!-- Node19 -->
<g id="node19" class="node">
<title>Node19</title>
<g id="a_node19"><a xlink:title=" ">
<polygon fill="white" stroke="#bfbfbf" points="658.5,-112.5 658.5,-131.5 710.5,-131.5 710.5,-112.5 658.5,-112.5"/>
<text text-anchor="middle" x="684.5" y="-119.5" font-family="Consolas" font-size="10.00">stddef.h</text>
</a>
</g>
</g>
<!-- Node18&#45;&gt;Node19 -->
<g id="edge28" class="edge">
<title>Node18&#45;&gt;Node19</title>
<path fill="none" stroke="midnightblue" d="M489.05,-168.47C527.4,-160.12 587.48,-146.82 648.37,-132.22"/>
<polygon fill="midnightblue" stroke="midnightblue" points="649.25,-135.61 658.15,-129.87 647.61,-128.81 649.25,-135.61"/>
</g>
</g>
</svg>
