<?xml version="1.0" encoding="UTF-8" standalone="no"?>
<!DOCTYPE svg PUBLIC "-//W3C//DTD SVG 1.1//EN"
 "http://www.w3.org/Graphics/SVG/1.1/DTD/svg11.dtd">
<!-- Generated by graphviz version 2.43.0 (0)
 -->
<!-- Title: libccc/generic/list.h Pages: 1 -->
<svg width="414pt" height="364pt"
 viewBox="0.00 0.00 414.00 364.00" xmlns="http://www.w3.org/2000/svg" xmlns:xlink="http://www.w3.org/1999/xlink">
<g id="graph0" class="graph" transform="scale(1 1) rotate(0) translate(4 360)">
<title>libccc/generic/list.h</title>
<polygon fill="white" stroke="transparent" points="-4,4 -4,-360 410,-360 410,4 -4,4"/>
<!-- Node1 -->
<g id="node1" class="node">
<title>Node1</title>
<g id="a_node1"><a xlink:title=" ">
<polygon fill="#bfbfbf" stroke="black" points="106,-336.5 106,-355.5 233,-355.5 233,-336.5 106,-336.5"/>
<text text-anchor="middle" x="169.5" y="-343.5" font-family="Consolas" font-size="10.00">libccc/generic/list.h</text>
</a>
</g>
</g>
<!-- Node2 -->
<g id="node2" class="node">
<title>Node2</title>
<g id="a_node2"><a xlink:title=" ">
<polygon fill="white" stroke="#bfbfbf" points="0,-280.5 0,-299.5 59,-299.5 59,-280.5 0,-280.5"/>
<text text-anchor="middle" x="29.5" y="-287.5" font-family="Consolas" font-size="10.00">stdarg.h</text>
</a>
</g>
</g>
<!-- Node1&#45;&gt;Node2 -->
<g id="edge1" class="edge">
<title>Node1&#45;&gt;Node2</title>
<path fill="none" stroke="midnightblue" d="M147.32,-336.44C124.07,-327.48 87.35,-313.31 61.08,-303.18"/>
<polygon fill="midnightblue" stroke="midnightblue" points="62.17,-299.85 51.58,-299.52 59.65,-306.38 62.17,-299.85"/>
</g>
<!-- Node3 -->
<g id="node3" class="node">
<title>Node3</title>
<g id="a_node3"><a xlink:href="bool_8h.html" target="_top" xlink:title=" ">
<polygon fill="white" stroke="black" points="77,-280.5 77,-299.5 162,-299.5 162,-280.5 77,-280.5"/>
<text text-anchor="middle" x="119.5" y="-287.5" font-family="Consolas" font-size="10.00">libccc/bool.h</text>
</a>
</g>
</g>
<!-- Node1&#45;&gt;Node3 -->
<g id="edge2" class="edge">
<title>Node1&#45;&gt;Node3</title>
<path fill="none" stroke="midnightblue" d="M161.24,-336.08C154.04,-328.3 143.39,-316.8 134.65,-307.37"/>
<polygon fill="midnightblue" stroke="midnightblue" points="136.97,-304.71 127.6,-299.75 131.83,-309.47 136.97,-304.71"/>
</g>
<!-- Node11 -->
<g id="node11" class="node">
<title>Node11</title>
<g id="a_node11"><a xlink:href="int_8h.html" target="_top" xlink:title=" ">
<polygon fill="white" stroke="black" points="180.5,-280.5 180.5,-299.5 260.5,-299.5 260.5,-280.5 180.5,-280.5"/>
<text text-anchor="middle" x="220.5" y="-287.5" font-family="Consolas" font-size="10.00">libccc/int.h</text>
</a>
</g>
</g>
<!-- Node1&#45;&gt;Node11 -->
<g id="edge14" class="edge">
<title>Node1&#45;&gt;Node11</title>
<path fill="none" stroke="midnightblue" d="M177.92,-336.08C185.35,-328.22 196.35,-316.57 205.31,-307.08"/>
<polygon fill="midnightblue" stroke="midnightblue" points="207.91,-309.42 212.24,-299.75 202.82,-304.62 207.91,-309.42"/>
</g>
<!-- Node13 -->
<g id="node13" class="node">
<title>Node13</title>
<g id="a_node13"><a xlink:title=" ">
<polygon fill="white" stroke="#bfbfbf" points="279,-280.5 279,-299.5 406,-299.5 406,-280.5 279,-280.5"/>
<text text-anchor="middle" x="342.5" y="-287.5" font-family="Consolas" font-size="10.00">libccc/generic/list.c</text>
</a>
</g>
</g>
<!-- Node1&#45;&gt;Node13 -->
<g id="edge17" class="edge">
<title>Node1&#45;&gt;Node13</title>
<path fill="none" stroke="midnightblue" d="M196.91,-336.44C226.27,-327.28 273.02,-312.69 305.6,-302.52"/>
<polygon fill="midnightblue" stroke="midnightblue" points="306.71,-305.84 315.22,-299.52 304.63,-299.16 306.71,-305.84"/>
</g>
<!-- Node4 -->
<g id="node4" class="node">
<title>Node4</title>
<g id="a_node4"><a xlink:href="libccc_8h.html" target="_top" xlink:title=" ">
<polygon fill="white" stroke="black" points="142,-224.5 142,-243.5 201,-243.5 201,-224.5 142,-224.5"/>
<text text-anchor="middle" x="171.5" y="-231.5" font-family="Consolas" font-size="10.00">libccc.h</text>
</a>
</g>
</g>
<!-- Node3&#45;&gt;Node4 -->
<g id="edge3" class="edge">
<title>Node3&#45;&gt;Node4</title>
<path fill="none" stroke="midnightblue" d="M128.09,-280.08C135.66,-272.22 146.88,-260.57 156.01,-251.08"/>
<polygon fill="midnightblue" stroke="midnightblue" points="158.66,-253.38 163.07,-243.75 153.62,-248.53 158.66,-253.38"/>
</g>
<!-- Node10 -->
<g id="node10" class="node">
<title>Node10</title>
<g id="a_node10"><a xlink:title=" ">
<polygon fill="white" stroke="#bfbfbf" points="59.5,-224.5 59.5,-243.5 123.5,-243.5 123.5,-224.5 59.5,-224.5"/>
<text text-anchor="middle" x="91.5" y="-231.5" font-family="Consolas" font-size="10.00">stdbool.h</text>
</a>
</g>
</g>
<!-- Node3&#45;&gt;Node10 -->
<g id="edge13" class="edge">
<title>Node3&#45;&gt;Node10</title>
<path fill="none" stroke="midnightblue" d="M114.88,-280.08C111.04,-272.69 105.48,-261.95 100.74,-252.81"/>
<polygon fill="midnightblue" stroke="midnightblue" points="103.75,-251.02 96.04,-243.75 97.53,-254.24 103.75,-251.02"/>
</g>
<!-- Node5 -->
<g id="node5" class="node">
<title>Node5</title>
<g id="a_node5"><a xlink:href="libccc__define_8h.html" target="_top" xlink:title=" ">
<polygon fill="white" stroke="black" points="124,-56.5 124,-75.5 219,-75.5 219,-56.5 124,-56.5"/>
<text text-anchor="middle" x="171.5" y="-63.5" font-family="Consolas" font-size="10.00">libccc_define.h</text>
</a>
</g>
</g>
<!-- Node4&#45;&gt;Node5 -->
<g id="edge4" class="edge">
<title>Node4&#45;&gt;Node5</title>
<path fill="none" stroke="midnightblue" d="M155.5,-224.5C121.62,-205.36 48.01,-157.02 76.5,-112 86.55,-96.13 103.87,-85.74 121,-79"/>
<polygon fill="midnightblue" stroke="midnightblue" points="122.21,-82.28 130.45,-75.62 119.85,-75.69 122.21,-82.28"/>
</g>
<!-- Node7 -->
<g id="node7" class="node">
<title>Node7</title>
<g id="a_node7"><a xlink:href="libccc__errors_8h.html" target="_top" xlink:title=" ">
<polygon fill="white" stroke="black" points="86,-112.5 86,-131.5 181,-131.5 181,-112.5 86,-112.5"/>
<text text-anchor="middle" x="133.5" y="-119.5" font-family="Consolas" font-size="10.00">libccc_errors.h</text>
</a>
</g>
</g>
<!-- Node4&#45;&gt;Node7 -->
<g id="edge6" class="edge">
<title>Node4&#45;&gt;Node7</title>
<path fill="none" stroke="midnightblue" d="M167.84,-224.45C164.04,-215.46 158.04,-200.85 153.5,-188 148.03,-172.52 142.6,-154.68 138.78,-141.61"/>
<polygon fill="midnightblue" stroke="midnightblue" points="142.12,-140.55 135.99,-131.91 135.4,-142.48 142.12,-140.55"/>
</g>
<!-- Node8 -->
<g id="node8" class="node">
<title>Node8</title>
<g id="a_node8"><a xlink:href="libccc__config_8h.html" target="_top" xlink:title=" ">
<polygon fill="white" stroke="black" points="162,-168.5 162,-187.5 257,-187.5 257,-168.5 162,-168.5"/>
<text text-anchor="middle" x="209.5" y="-175.5" font-family="Consolas" font-size="10.00">libccc_config.h</text>
</a>
</g>
</g>
<!-- Node4&#45;&gt;Node8 -->
<g id="edge8" class="edge">
<title>Node4&#45;&gt;Node8</title>
<path fill="none" stroke="midnightblue" d="M177.77,-224.08C183.14,-216.46 191.02,-205.26 197.58,-195.94"/>
<polygon fill="midnightblue" stroke="midnightblue" points="200.45,-197.94 203.34,-187.75 194.72,-193.91 200.45,-197.94"/>
</g>
<!-- Node9 -->
<g id="node9" class="node">
<title>Node9</title>
<g id="a_node9"><a xlink:href="libccc__naming_8h.html" target="_top" xlink:title=" ">
<polygon fill="white" stroke="black" points="238,-112.5 238,-131.5 333,-131.5 333,-112.5 238,-112.5"/>
<text text-anchor="middle" x="285.5" y="-119.5" font-family="Consolas" font-size="10.00">libccc_naming.h</text>
</a>
</g>
</g>
<!-- Node4&#45;&gt;Node9 -->
<g id="edge11" class="edge">
<title>Node4&#45;&gt;Node9</title>
<path fill="none" stroke="midnightblue" d="M201.23,-225.9C222.29,-219.4 249.68,-207.71 266.5,-188 277.58,-175.02 282.2,-155.85 284.13,-141.69"/>
<polygon fill="midnightblue" stroke="midnightblue" points="287.62,-141.93 285.17,-131.63 280.66,-141.22 287.62,-141.93"/>
</g>
<!-- Node6 -->
<g id="node6" class="node">
<title>Node6</title>
<g id="a_node6"><a xlink:title=" ">
<polygon fill="white" stroke="#bfbfbf" points="137,-0.5 137,-19.5 206,-19.5 206,-0.5 137,-0.5"/>
<text text-anchor="middle" x="171.5" y="-7.5" font-family="Consolas" font-size="10.00">stdalign.h</text>
</a>
</g>
</g>
<!-- Node5&#45;&gt;Node6 -->
<g id="edge5" class="edge">
<title>Node5&#45;&gt;Node6</title>
<path fill="none" stroke="midnightblue" d="M171.5,-56.08C171.5,-49.01 171.5,-38.86 171.5,-29.99"/>
<polygon fill="midnightblue" stroke="midnightblue" points="175,-29.75 171.5,-19.75 168,-29.75 175,-29.75"/>
</g>
<!-- Node7&#45;&gt;Node5 -->
<g id="edge7" class="edge">
<title>Node7&#45;&gt;Node5</title>
<path fill="none" stroke="midnightblue" d="M139.77,-112.08C145.14,-104.46 153.02,-93.26 159.58,-83.94"/>
<polygon fill="midnightblue" stroke="midnightblue" points="162.45,-85.94 165.34,-75.75 156.72,-81.91 162.45,-85.94"/>
</g>
<!-- Node8&#45;&gt;Node5 -->
<g id="edge9" class="edge">
<title>Node8&#45;&gt;Node5</title>
<path fill="none" stroke="midnightblue" d="M207.35,-168.49C204.11,-155.97 197.6,-131.94 190.5,-112 187.26,-102.9 183.14,-92.99 179.57,-84.79"/>
<polygon fill="midnightblue" stroke="midnightblue" points="182.7,-83.22 175.44,-75.51 176.31,-86.07 182.7,-83.22"/>
</g>
<!-- Node8&#45;&gt;Node7 -->
<g id="edge10" class="edge">
<title>Node8&#45;&gt;Node7</title>
<path fill="none" stroke="midnightblue" d="M197.29,-168.32C185.72,-160.11 168.12,-147.6 154.34,-137.81"/>
<polygon fill="midnightblue" stroke="midnightblue" points="156.11,-134.77 145.93,-131.83 152.06,-140.48 156.11,-134.77"/>
</g>
<!-- Node9&#45;&gt;Node5 -->
<g id="edge12" class="edge">
<title>Node9&#45;&gt;Node5</title>
<path fill="none" stroke="midnightblue" d="M267.44,-112.44C248.93,-103.68 219.92,-89.94 198.64,-79.86"/>
<polygon fill="midnightblue" stroke="midnightblue" points="200.01,-76.63 189.48,-75.52 197.02,-82.96 200.01,-76.63"/>
</g>
<!-- Node11&#45;&gt;Node4 -->
<g id="edge16" class="edge">
<title>Node11&#45;&gt;Node4</title>
<path fill="none" stroke="midnightblue" d="M212.41,-280.08C205.34,-272.3 194.91,-260.8 186.35,-251.37"/>
<polygon fill="midnightblue" stroke="midnightblue" points="188.75,-248.8 179.44,-243.75 183.57,-253.51 188.75,-248.8"/>
</g>
<!-- Node12 -->
<g id="node12" class="node">
<title>Node12</title>
<g id="a_node12"><a xlink:title=" ">
<polygon fill="white" stroke="#bfbfbf" points="219,-224.5 219,-243.5 278,-243.5 278,-224.5 219,-224.5"/>
<text text-anchor="middle" x="248.5" y="-231.5" font-family="Consolas" font-size="10.00">stdint.h</text>
</a>
</g>
</g>
<!-- Node11&#45;&gt;Node12 -->
<g id="edge15" class="edge">
<title>Node11&#45;&gt;Node12</title>
<path fill="none" stroke="midnightblue" d="M225.12,-280.08C228.96,-272.69 234.52,-261.95 239.26,-252.81"/>
<polygon fill="midnightblue" stroke="midnightblue" points="242.47,-254.24 243.96,-243.75 236.25,-251.02 242.47,-254.24"/>
</g>
</g>
</svg>
