<?xml version="1.0" encoding="UTF-8" standalone="no"?>
<!DOCTYPE svg PUBLIC "-//W3C//DTD SVG 1.1//EN"
 "http://www.w3.org/Graphics/SVG/1.1/DTD/svg11.dtd">
<!-- Generated by graphviz version 2.49.3 (20211023.0002)
 -->
<!-- Title: libccc/monad/list.h Pages: 1 -->
<svg width="348pt" height="364pt"
 viewBox="0.00 0.00 348.00 364.00" xmlns="http://www.w3.org/2000/svg" xmlns:xlink="http://www.w3.org/1999/xlink">
<g id="graph0" class="graph" transform="scale(1 1) rotate(0) translate(4 360)">
<title>libccc/monad/list.h</title>
<polygon fill="white" stroke="transparent" points="-4,4 -4,-360 344,-360 344,4 -4,4"/>
<!-- Node1 -->
<g id="node1" class="node">
<title>Node1</title>
<g id="a_node1"><a xlink:title=" ">
<polygon fill="#bfbfbf" stroke="black" points="100,-336.5 100,-355.5 198,-355.5 198,-336.5 100,-336.5"/>
<text text-anchor="middle" x="149" y="-343.5" font-family="Consolas" font-size="10.00">libccc/monad/list.h</text>
</a>
</g>
</g>
<!-- Node2 -->
<g id="node2" class="node">
<title>Node2</title>
<g id="a_node2"><a xlink:title=" ">
<polygon fill="white" stroke="#bfbfbf" points="0,-280.5 0,-299.5 52,-299.5 52,-280.5 0,-280.5"/>
<text text-anchor="middle" x="26" y="-287.5" font-family="Consolas" font-size="10.00">stdarg.h</text>
</a>
</g>
</g>
<!-- Node1&#45;&gt;Node2 -->
<g id="edge1" class="edge">
<title>Node1&#45;&gt;Node2</title>
<path fill="none" stroke="midnightblue" d="M129.51,-336.44C109.36,-327.6 77.68,-313.69 54.67,-303.59"/>
<polygon fill="midnightblue" stroke="midnightblue" points="55.96,-300.33 45.4,-299.52 53.15,-306.74 55.96,-300.33"/>
</g>
<!-- Node3 -->
<g id="node3" class="node">
<title>Node3</title>
<g id="a_node3"><a xlink:href="bool_8h.html" target="_top" xlink:title=" ">
<polygon fill="white" stroke="black" points="70.5,-280.5 70.5,-299.5 141.5,-299.5 141.5,-280.5 70.5,-280.5"/>
<text text-anchor="middle" x="106" y="-287.5" font-family="Consolas" font-size="10.00">libccc/bool.h</text>
</a>
</g>
</g>
<!-- Node1&#45;&gt;Node3 -->
<g id="edge2" class="edge">
<title>Node1&#45;&gt;Node3</title>
<path fill="none" stroke="midnightblue" d="M141.9,-336.08C135.76,-328.38 126.73,-317.03 119.26,-307.65"/>
<polygon fill="midnightblue" stroke="midnightblue" points="121.94,-305.39 112.97,-299.75 116.46,-309.75 121.94,-305.39"/>
</g>
<!-- Node11 -->
<g id="node11" class="node">
<title>Node11</title>
<g id="a_node11"><a xlink:href="int_8h.html" target="_top" xlink:title=" ">
<polygon fill="white" stroke="black" points="160,-280.5 160,-299.5 224,-299.5 224,-280.5 160,-280.5"/>
<text text-anchor="middle" x="192" y="-287.5" font-family="Consolas" font-size="10.00">libccc/int.h</text>
</a>
</g>
</g>
<!-- Node1&#45;&gt;Node11 -->
<g id="edge14" class="edge">
<title>Node1&#45;&gt;Node11</title>
<path fill="none" stroke="midnightblue" d="M156.1,-336.08C162.24,-328.38 171.27,-317.03 178.74,-307.65"/>
<polygon fill="midnightblue" stroke="midnightblue" points="181.54,-309.75 185.03,-299.75 176.06,-305.39 181.54,-309.75"/>
</g>
<!-- Node13 -->
<g id="node13" class="node">
<title>Node13</title>
<g id="a_node13"><a xlink:title=" ">
<polygon fill="white" stroke="#bfbfbf" points="242,-280.5 242,-299.5 340,-299.5 340,-280.5 242,-280.5"/>
<text text-anchor="middle" x="291" y="-287.5" font-family="Consolas" font-size="10.00">libccc/monad/list.c</text>
</a>
</g>
</g>
<!-- Node1&#45;&gt;Node13 -->
<g id="edge17" class="edge">
<title>Node1&#45;&gt;Node13</title>
<path fill="none" stroke="midnightblue" d="M171.5,-336.44C195.08,-327.48 232.32,-313.31 258.96,-303.18"/>
<polygon fill="midnightblue" stroke="midnightblue" points="260.5,-306.34 268.6,-299.52 258.01,-299.8 260.5,-306.34"/>
</g>
<!-- Node4 -->
<g id="node4" class="node">
<title>Node4</title>
<g id="a_node4"><a xlink:href="libccc_8h.html" target="_top" xlink:title=" ">
<polygon fill="white" stroke="black" points="125,-224.5 125,-243.5 175,-243.5 175,-224.5 125,-224.5"/>
<text text-anchor="middle" x="150" y="-231.5" font-family="Consolas" font-size="10.00">libccc.h</text>
</a>
</g>
</g>
<!-- Node3&#45;&gt;Node4 -->
<g id="edge3" class="edge">
<title>Node3&#45;&gt;Node4</title>
<path fill="none" stroke="midnightblue" d="M113.27,-280.08C119.54,-272.38 128.79,-261.03 136.43,-251.65"/>
<polygon fill="midnightblue" stroke="midnightblue" points="139.27,-253.71 142.87,-243.75 133.84,-249.29 139.27,-253.71"/>
</g>
<!-- Node10 -->
<g id="node10" class="node">
<title>Node10</title>
<g id="a_node10"><a xlink:title=" ">
<polygon fill="white" stroke="#bfbfbf" points="51,-224.5 51,-243.5 107,-243.5 107,-224.5 51,-224.5"/>
<text text-anchor="middle" x="79" y="-231.5" font-family="Consolas" font-size="10.00">stdbool.h</text>
</a>
</g>
</g>
<!-- Node3&#45;&gt;Node10 -->
<g id="edge13" class="edge">
<title>Node3&#45;&gt;Node10</title>
<path fill="none" stroke="midnightblue" d="M101.54,-280.08C97.85,-272.69 92.48,-261.95 87.91,-252.81"/>
<polygon fill="midnightblue" stroke="midnightblue" points="90.98,-251.13 83.38,-243.75 84.72,-254.26 90.98,-251.13"/>
</g>
<!-- Node5 -->
<g id="node5" class="node">
<title>Node5</title>
<g id="a_node5"><a xlink:href="libccc__define_8h.html" target="_top" xlink:title=" ">
<polygon fill="white" stroke="black" points="110,-56.5 110,-75.5 192,-75.5 192,-56.5 110,-56.5"/>
<text text-anchor="middle" x="151" y="-63.5" font-family="Consolas" font-size="10.00">libccc_define.h</text>
</a>
</g>
</g>
<!-- Node4&#45;&gt;Node5 -->
<g id="edge4" class="edge">
<title>Node4&#45;&gt;Node5</title>
<path fill="none" stroke="midnightblue" d="M136.22,-224.42C106.69,-204.93 42.04,-155.61 68,-112 77.1,-96.72 93.39,-86.31 109.14,-79.39"/>
<polygon fill="midnightblue" stroke="midnightblue" points="110.83,-82.48 118.82,-75.51 108.23,-75.98 110.83,-82.48"/>
</g>
<!-- Node7 -->
<g id="node7" class="node">
<title>Node7</title>
<g id="a_node7"><a xlink:href="libccc__errors_8h.html" target="_top" xlink:title=" ">
<polygon fill="white" stroke="black" points="77,-112.5 77,-131.5 157,-131.5 157,-112.5 77,-112.5"/>
<text text-anchor="middle" x="117" y="-119.5" font-family="Consolas" font-size="10.00">libccc_errors.h</text>
</a>
</g>
</g>
<!-- Node4&#45;&gt;Node7 -->
<g id="edge6" class="edge">
<title>Node4&#45;&gt;Node7</title>
<path fill="none" stroke="midnightblue" d="M146.99,-224.42C143.86,-215.39 138.89,-200.76 135,-188 130.25,-172.42 125.35,-154.59 121.86,-141.55"/>
<polygon fill="midnightblue" stroke="midnightblue" points="125.24,-140.64 119.3,-131.87 118.48,-142.44 125.24,-140.64"/>
</g>
<!-- Node8 -->
<g id="node8" class="node">
<title>Node8</title>
<g id="a_node8"><a xlink:href="libccc__config_8h.html" target="_top" xlink:title=" ">
<polygon fill="white" stroke="black" points="144,-168.5 144,-187.5 226,-187.5 226,-168.5 144,-168.5"/>
<text text-anchor="middle" x="185" y="-175.5" font-family="Consolas" font-size="10.00">libccc_config.h</text>
</a>
</g>
</g>
<!-- Node4&#45;&gt;Node8 -->
<g id="edge8" class="edge">
<title>Node4&#45;&gt;Node8</title>
<path fill="none" stroke="midnightblue" d="M155.78,-224.08C160.67,-216.53 167.83,-205.49 173.83,-196.23"/>
<polygon fill="midnightblue" stroke="midnightblue" points="176.83,-198.05 179.33,-187.75 170.95,-194.24 176.83,-198.05"/>
</g>
<!-- Node9 -->
<g id="node9" class="node">
<title>Node9</title>
<g id="a_node9"><a xlink:href="libccc__naming_8h.html" target="_top" xlink:title=" ">
<polygon fill="white" stroke="black" points="213.5,-112.5 213.5,-131.5 300.5,-131.5 300.5,-112.5 213.5,-112.5"/>
<text text-anchor="middle" x="257" y="-119.5" font-family="Consolas" font-size="10.00">libccc_naming.h</text>
</a>
</g>
</g>
<!-- Node4&#45;&gt;Node9 -->
<g id="edge11" class="edge">
<title>Node4&#45;&gt;Node9</title>
<path fill="none" stroke="midnightblue" d="M175.23,-225.36C194.12,-218.43 219.31,-206.44 235,-188 246.21,-174.83 251.78,-155.69 254.5,-141.59"/>
<polygon fill="midnightblue" stroke="midnightblue" points="257.98,-142 256.13,-131.57 251.07,-140.88 257.98,-142"/>
</g>
<!-- Node6 -->
<g id="node6" class="node">
<title>Node6</title>
<g id="a_node6"><a xlink:title=" ">
<polygon fill="white" stroke="#bfbfbf" points="121.5,-0.5 121.5,-19.5 180.5,-19.5 180.5,-0.5 121.5,-0.5"/>
<text text-anchor="middle" x="151" y="-7.5" font-family="Consolas" font-size="10.00">stdalign.h</text>
</a>
</g>
</g>
<!-- Node5&#45;&gt;Node6 -->
<g id="edge5" class="edge">
<title>Node5&#45;&gt;Node6</title>
<path fill="none" stroke="midnightblue" d="M151,-56.08C151,-49.01 151,-38.86 151,-29.99"/>
<polygon fill="midnightblue" stroke="midnightblue" points="154.5,-29.75 151,-19.75 147.5,-29.75 154.5,-29.75"/>
</g>
<!-- Node7&#45;&gt;Node5 -->
<g id="edge7" class="edge">
<title>Node7&#45;&gt;Node5</title>
<path fill="none" stroke="midnightblue" d="M122.61,-112.08C127.37,-104.53 134.32,-93.49 140.15,-84.23"/>
<polygon fill="midnightblue" stroke="midnightblue" points="143.12,-86.08 145.49,-75.75 137.2,-82.35 143.12,-86.08"/>
</g>
<!-- Node8&#45;&gt;Node5 -->
<g id="edge9" class="edge">
<title>Node8&#45;&gt;Node5</title>
<path fill="none" stroke="midnightblue" d="M182.52,-168.14C178.99,-155.6 172.25,-131.97 166,-112 163.23,-103.15 160,-93.37 157.24,-85.2"/>
<polygon fill="midnightblue" stroke="midnightblue" points="160.51,-83.94 153.97,-75.6 153.88,-86.19 160.51,-83.94"/>
</g>
<!-- Node8&#45;&gt;Node7 -->
<g id="edge10" class="edge">
<title>Node8&#45;&gt;Node7</title>
<path fill="none" stroke="midnightblue" d="M174.07,-168.32C163.83,-160.18 148.28,-147.84 136,-138.09"/>
<polygon fill="midnightblue" stroke="midnightblue" points="138.13,-135.31 128.12,-131.83 133.78,-140.79 138.13,-135.31"/>
</g>
<!-- Node9&#45;&gt;Node5 -->
<g id="edge12" class="edge">
<title>Node9&#45;&gt;Node5</title>
<path fill="none" stroke="midnightblue" d="M239.97,-112.32C222.97,-103.66 196.62,-90.24 177.01,-80.25"/>
<polygon fill="midnightblue" stroke="midnightblue" points="178.49,-77.08 167.99,-75.65 175.31,-83.31 178.49,-77.08"/>
</g>
<!-- Node11&#45;&gt;Node4 -->
<g id="edge16" class="edge">
<title>Node11&#45;&gt;Node4</title>
<path fill="none" stroke="midnightblue" d="M185.06,-280.08C179.07,-272.38 170.25,-261.03 162.95,-251.65"/>
<polygon fill="midnightblue" stroke="midnightblue" points="165.71,-249.5 156.81,-243.75 160.18,-253.79 165.71,-249.5"/>
</g>
<!-- Node12 -->
<g id="node12" class="node">
<title>Node12</title>
<g id="a_node12"><a xlink:title=" ">
<polygon fill="white" stroke="#bfbfbf" points="193.5,-224.5 193.5,-243.5 242.5,-243.5 242.5,-224.5 193.5,-224.5"/>
<text text-anchor="middle" x="218" y="-231.5" font-family="Consolas" font-size="10.00">stdint.h</text>
</a>
</g>
</g>
<!-- Node11&#45;&gt;Node12 -->
<g id="edge15" class="edge">
<title>Node11&#45;&gt;Node12</title>
<path fill="none" stroke="midnightblue" d="M196.29,-280.08C199.85,-272.69 205.02,-261.95 209.42,-252.81"/>
<polygon fill="midnightblue" stroke="midnightblue" points="212.6,-254.28 213.79,-243.75 206.29,-251.24 212.6,-254.28"/>
</g>
</g>
</svg>
