<?xml version="1.0" encoding="UTF-8" standalone="no"?>
<!DOCTYPE svg PUBLIC "-//W3C//DTD SVG 1.1//EN"
 "http://www.w3.org/Graphics/SVG/1.1/DTD/svg11.dtd">
<!-- Generated by graphviz version 3.0.0 (20220226.1711)
 -->
<!-- Title: libccc/sys/logger.h Pages: 1 -->
<svg width="584pt" height="476pt"
 viewBox="0.00 0.00 584.03 476.00" xmlns="http://www.w3.org/2000/svg" xmlns:xlink="http://www.w3.org/1999/xlink">
<g id="graph0" class="graph" transform="scale(1 1) rotate(0) translate(4 472)">
<title>libccc/sys/logger.h</title>
<polygon fill="white" stroke="transparent" points="-4,4 -4,-472 580.03,-472 580.03,4 -4,4"/>
<!-- Node1 -->
<g id="node1" class="node">
<title>Node1</title>
<g id="a_node1"><a xlink:title=" ">
<polygon fill="#bfbfbf" stroke="black" points="263,-448.5 263,-467.5 361,-467.5 361,-448.5 263,-448.5"/>
<text text-anchor="middle" x="312" y="-455.5" font-family="Consolas" font-size="10.00">libccc/sys/logger.h</text>
</a>
</g>
</g>
<!-- Node2 -->
<g id="node2" class="node">
<title>Node2</title>
<g id="a_node2"><a xlink:title=" ">
<polygon fill="white" stroke="#bfbfbf" points="0,-224.5 0,-243.5 52,-243.5 52,-224.5 0,-224.5"/>
<text text-anchor="middle" x="26" y="-231.5" font-family="Consolas" font-size="10.00">stdarg.h</text>
</a>
</g>
</g>
<!-- Node1&#45;&gt;Node2 -->
<g id="edge1" class="edge">
<title>Node1&#45;&gt;Node2</title>
<path fill="none" stroke="midnightblue" d="M262.94,-451.41C209.02,-444.43 126.75,-431.04 102,-412 50.57,-372.45 33.44,-291.19 28.16,-254.16"/>
<polygon fill="midnightblue" stroke="midnightblue" points="31.58,-253.27 26.84,-243.79 24.64,-254.16 31.58,-253.27"/>
</g>
<!-- Node3 -->
<g id="node3" class="node">
<title>Node3</title>
<g id="a_node3"><a xlink:href="$libccc__config_8h.html" xlink:title=" ">
<polygon fill="white" stroke="black" points="379,-168.5 379,-187.5 461,-187.5 461,-168.5 379,-168.5"/>
<text text-anchor="middle" x="420" y="-175.5" font-family="Consolas" font-size="10.00">libccc_config.h</text>
</a>
</g>
</g>
<!-- Node1&#45;&gt;Node3 -->
<g id="edge2" class="edge">
<title>Node1&#45;&gt;Node3</title>
<path fill="none" stroke="midnightblue" d="M361.04,-454.33C427.51,-447.77 538,-425.11 538,-347 538,-347 538,-347 538,-289 538,-241.51 486.23,-208.67 451.28,-191.91"/>
<polygon fill="midnightblue" stroke="midnightblue" points="452.47,-188.61 441.92,-187.61 449.54,-194.97 452.47,-188.61"/>
</g>
<!-- Node4 -->
<g id="node4" class="node">
<title>Node4</title>
<g id="a_node4"><a xlink:href="$libccc__define_8h.html" xlink:title=" ">
<polygon fill="white" stroke="black" points="352,-56.5 352,-75.5 434,-75.5 434,-56.5 352,-56.5"/>
<text text-anchor="middle" x="393" y="-63.5" font-family="Consolas" font-size="10.00">libccc_define.h</text>
</a>
</g>
</g>
<!-- Node1&#45;&gt;Node4 -->
<g id="edge7" class="edge">
<title>Node1&#45;&gt;Node4</title>
<path fill="none" stroke="midnightblue" d="M361.04,-457.52C437.38,-455.49 576,-439.11 576,-347 576,-347 576,-347 576,-177 576,-146.5 576.14,-132.98 554,-112 524.57,-84.11 479.31,-73.26 444.26,-69.16"/>
<polygon fill="midnightblue" stroke="midnightblue" points="444.51,-65.66 434.21,-68.13 443.8,-72.63 444.51,-65.66"/>
</g>
<!-- Node7 -->
<g id="node7" class="node">
<title>Node7</title>
<g id="a_node7"><a xlink:href="$io_8h.html" xlink:title=" ">
<polygon fill="white" stroke="black" points="318,-336.5 318,-355.5 398,-355.5 398,-336.5 318,-336.5"/>
<text text-anchor="middle" x="358" y="-343.5" font-family="Consolas" font-size="10.00">libccc/sys/io.h</text>
</a>
</g>
</g>
<!-- Node1&#45;&gt;Node7 -->
<g id="edge8" class="edge">
<title>Node1&#45;&gt;Node7</title>
<path fill="none" stroke="midnightblue" d="M318.08,-448.4C324.07,-439.59 333.16,-425.36 339,-412 345.63,-396.85 350.71,-378.73 353.94,-365.48"/>
<polygon fill="midnightblue" stroke="midnightblue" points="357.37,-366.19 356.21,-355.66 350.55,-364.61 357.37,-366.19"/>
</g>
<!-- Node14 -->
<g id="node14" class="node">
<title>Node14</title>
<g id="a_node14"><a xlink:href="$time_8h.html" xlink:title=" ">
<polygon fill="white" stroke="black" points="220.5,-392.5 220.5,-411.5 311.5,-411.5 311.5,-392.5 220.5,-392.5"/>
<text text-anchor="middle" x="266" y="-399.5" font-family="Consolas" font-size="10.00">libccc/sys/time.h</text>
</a>
</g>
</g>
<!-- Node1&#45;&gt;Node14 -->
<g id="edge21" class="edge">
<title>Node1&#45;&gt;Node14</title>
<path fill="none" stroke="midnightblue" d="M304.4,-448.08C297.77,-440.3 287.98,-428.8 279.94,-419.37"/>
<polygon fill="midnightblue" stroke="midnightblue" points="282.6,-417.09 273.45,-411.75 277.27,-421.63 282.6,-417.09"/>
</g>
<!-- Node15 -->
<g id="node15" class="node">
<title>Node15</title>
<g id="a_node15"><a xlink:href="$sys_2error_8h.html" xlink:title=" ">
<polygon fill="white" stroke="black" points="111.5,-392.5 111.5,-411.5 202.5,-411.5 202.5,-392.5 111.5,-392.5"/>
<text text-anchor="middle" x="157" y="-399.5" font-family="Consolas" font-size="10.00">libccc/sys/error.h</text>
</a>
</g>
</g>
<!-- Node1&#45;&gt;Node15 -->
<g id="edge24" class="edge">
<title>Node1&#45;&gt;Node15</title>
<path fill="none" stroke="midnightblue" d="M287.44,-448.44C261.48,-439.4 220.33,-425.06 191.2,-414.92"/>
<polygon fill="midnightblue" stroke="midnightblue" points="192.04,-411.5 181.45,-411.52 189.74,-418.11 192.04,-411.5"/>
</g>
<!-- Node3&#45;&gt;Node4 -->
<g id="edge3" class="edge">
<title>Node3&#45;&gt;Node4</title>
<path fill="none" stroke="midnightblue" d="M418.76,-168.08C416.91,-155.48 413.1,-131.78 408,-112 405.69,-103.02 402.5,-93.23 399.67,-85.08"/>
<polygon fill="midnightblue" stroke="midnightblue" points="402.91,-83.75 396.24,-75.52 396.32,-86.12 402.91,-83.75"/>
</g>
<!-- Node6 -->
<g id="node6" class="node">
<title>Node6</title>
<g id="a_node6"><a xlink:href="$libccc__errors_8h.html" xlink:title=" ">
<polygon fill="white" stroke="black" points="319,-112.5 319,-131.5 399,-131.5 399,-112.5 319,-112.5"/>
<text text-anchor="middle" x="359" y="-119.5" font-family="Consolas" font-size="10.00">libccc_errors.h</text>
</a>
</g>
</g>
<!-- Node3&#45;&gt;Node6 -->
<g id="edge5" class="edge">
<title>Node3&#45;&gt;Node6</title>
<path fill="none" stroke="midnightblue" d="M410.2,-168.32C401.18,-160.34 387.59,-148.31 376.68,-138.65"/>
<polygon fill="midnightblue" stroke="midnightblue" points="378.79,-135.84 368.98,-131.83 374.15,-141.08 378.79,-135.84"/>
</g>
<!-- Node5 -->
<g id="node5" class="node">
<title>Node5</title>
<g id="a_node5"><a xlink:title=" ">
<polygon fill="white" stroke="#bfbfbf" points="363.5,-0.5 363.5,-19.5 422.5,-19.5 422.5,-0.5 363.5,-0.5"/>
<text text-anchor="middle" x="393" y="-7.5" font-family="Consolas" font-size="10.00">stdalign.h</text>
</a>
</g>
</g>
<!-- Node4&#45;&gt;Node5 -->
<g id="edge4" class="edge">
<title>Node4&#45;&gt;Node5</title>
<path fill="none" stroke="midnightblue" d="M393,-56.08C393,-49.01 393,-38.86 393,-29.99"/>
<polygon fill="midnightblue" stroke="midnightblue" points="396.5,-29.75 393,-19.75 389.5,-29.75 396.5,-29.75"/>
</g>
<!-- Node6&#45;&gt;Node4 -->
<g id="edge6" class="edge">
<title>Node6&#45;&gt;Node4</title>
<path fill="none" stroke="midnightblue" d="M364.61,-112.08C369.37,-104.53 376.32,-93.49 382.15,-84.23"/>
<polygon fill="midnightblue" stroke="midnightblue" points="385.12,-86.08 387.49,-75.75 379.2,-82.35 385.12,-86.08"/>
</g>
<!-- Node8 -->
<g id="node8" class="node">
<title>Node8</title>
<g id="a_node8"><a xlink:title=" ">
<polygon fill="white" stroke="#bfbfbf" points="428,-280.5 428,-299.5 472,-299.5 472,-280.5 428,-280.5"/>
<text text-anchor="middle" x="450" y="-287.5" font-family="Consolas" font-size="10.00">fcntl.h</text>
</a>
</g>
</g>
<!-- Node7&#45;&gt;Node8 -->
<g id="edge9" class="edge">
<title>Node7&#45;&gt;Node8</title>
<path fill="none" stroke="midnightblue" d="M372.78,-336.32C387.27,-327.82 409.57,-314.73 426.49,-304.8"/>
<polygon fill="midnightblue" stroke="midnightblue" points="428.4,-307.74 435.26,-299.65 424.86,-301.7 428.4,-307.74"/>
</g>
<!-- Node9 -->
<g id="node9" class="node">
<title>Node9</title>
<g id="a_node9"><a xlink:href="$libccc_8h.html" xlink:title=" ">
<polygon fill="white" stroke="black" points="218,-224.5 218,-243.5 268,-243.5 268,-224.5 218,-224.5"/>
<text text-anchor="middle" x="243" y="-231.5" font-family="Consolas" font-size="10.00">libccc.h</text>
</a>
</g>
</g>
<!-- Node7&#45;&gt;Node9 -->
<g id="edge10" class="edge">
<title>Node7&#45;&gt;Node9</title>
<path fill="none" stroke="midnightblue" d="M344.93,-336.47C332.32,-327.95 312.97,-314.11 298,-300 281.94,-284.86 265.91,-265.27 255.33,-251.57"/>
<polygon fill="midnightblue" stroke="midnightblue" points="258.06,-249.38 249.22,-243.53 252.48,-253.61 258.06,-249.38"/>
</g>
<!-- Node12 -->
<g id="node12" class="node">
<title>Node12</title>
<g id="a_node12"><a xlink:href="$ansi_8h.html" xlink:title=" ">
<polygon fill="white" stroke="black" points="455,-112.5 455,-131.5 545,-131.5 545,-112.5 455,-112.5"/>
<text text-anchor="middle" x="500" y="-119.5" font-family="Consolas" font-size="10.00">libccc/sys/ansi.h</text>
</a>
</g>
</g>
<!-- Node7&#45;&gt;Node12 -->
<g id="edge17" class="edge">
<title>Node7&#45;&gt;Node12</title>
<path fill="none" stroke="midnightblue" d="M398.21,-341.21C425.95,-336.34 461.25,-325.26 481,-300 517.6,-253.19 509.94,-176.85 503.86,-141.74"/>
<polygon fill="midnightblue" stroke="midnightblue" points="507.22,-140.7 501.92,-131.52 500.34,-142 507.22,-140.7"/>
</g>
<!-- Node13 -->
<g id="node13" class="node">
<title>Node13</title>
<g id="a_node13"><a xlink:href="$image_2color_8h.html" xlink:title=" ">
<polygon fill="white" stroke="black" points="306.5,-280.5 306.5,-299.5 409.5,-299.5 409.5,-280.5 306.5,-280.5"/>
<text text-anchor="middle" x="358" y="-287.5" font-family="Consolas" font-size="10.00">libccc/image/color.h</text>
</a>
</g>
</g>
<!-- Node7&#45;&gt;Node13 -->
<g id="edge19" class="edge">
<title>Node7&#45;&gt;Node13</title>
<path fill="none" stroke="midnightblue" d="M358,-336.08C358,-329.01 358,-318.86 358,-309.99"/>
<polygon fill="midnightblue" stroke="midnightblue" points="361.5,-309.75 358,-299.75 354.5,-309.75 361.5,-309.75"/>
</g>
<!-- Node9&#45;&gt;Node3 -->
<g id="edge13" class="edge">
<title>Node9&#45;&gt;Node3</title>
<path fill="none" stroke="midnightblue" d="M268.36,-225.26C298.2,-216.16 348.03,-200.96 382.37,-190.48"/>
<polygon fill="midnightblue" stroke="midnightblue" points="383.52,-193.79 392.06,-187.52 381.47,-187.09 383.52,-193.79"/>
</g>
<!-- Node9&#45;&gt;Node4 -->
<g id="edge11" class="edge">
<title>Node9&#45;&gt;Node4</title>
<path fill="none" stroke="midnightblue" d="M235.37,-224.42C217.43,-203.19 176.09,-147.33 204,-112 220.92,-90.58 291.99,-78.26 341.98,-72.09"/>
<polygon fill="midnightblue" stroke="midnightblue" points="342.47,-75.56 351.98,-70.9 341.64,-68.61 342.47,-75.56"/>
</g>
<!-- Node9&#45;&gt;Node6 -->
<g id="edge12" class="edge">
<title>Node9&#45;&gt;Node6</title>
<path fill="none" stroke="midnightblue" d="M250.04,-224.13C260.51,-211.17 281.1,-186.58 301,-168 312.73,-157.05 326.95,-145.99 338.38,-137.57"/>
<polygon fill="midnightblue" stroke="midnightblue" points="340.44,-140.4 346.48,-131.69 336.33,-134.73 340.44,-140.4"/>
</g>
<!-- Node10 -->
<g id="node10" class="node">
<title>Node10</title>
<g id="a_node10"><a xlink:href="$libccc__naming_8h.html" xlink:title=" ">
<polygon fill="white" stroke="black" points="213.5,-112.5 213.5,-131.5 300.5,-131.5 300.5,-112.5 213.5,-112.5"/>
<text text-anchor="middle" x="257" y="-119.5" font-family="Consolas" font-size="10.00">libccc_naming.h</text>
</a>
</g>
</g>
<!-- Node9&#45;&gt;Node10 -->
<g id="edge14" class="edge">
<title>Node9&#45;&gt;Node10</title>
<path fill="none" stroke="midnightblue" d="M244.1,-224.37C246.36,-206.62 251.57,-165.67 254.63,-141.6"/>
<polygon fill="midnightblue" stroke="midnightblue" points="258.12,-141.95 255.91,-131.59 251.17,-141.07 258.12,-141.95"/>
</g>
<!-- Node11 -->
<g id="node11" class="node">
<title>Node11</title>
<g id="a_node11"><a xlink:title=" ">
<polygon fill="white" stroke="#bfbfbf" points="309.5,-168.5 309.5,-187.5 356.5,-187.5 356.5,-168.5 309.5,-168.5"/>
<text text-anchor="middle" x="333" y="-175.5" font-family="Consolas" font-size="10.00">math.h</text>
</a>
</g>
</g>
<!-- Node9&#45;&gt;Node11 -->
<g id="edge16" class="edge">
<title>Node9&#45;&gt;Node11</title>
<path fill="none" stroke="midnightblue" d="M257.46,-224.32C271.5,-215.9 293.05,-202.97 309.54,-193.07"/>
<polygon fill="midnightblue" stroke="midnightblue" points="311.8,-195.8 318.58,-187.65 308.2,-189.8 311.8,-195.8"/>
</g>
<!-- Node10&#45;&gt;Node4 -->
<g id="edge15" class="edge">
<title>Node10&#45;&gt;Node4</title>
<path fill="none" stroke="midnightblue" d="M278.55,-112.44C301.03,-103.52 336.49,-89.44 361.98,-79.32"/>
<polygon fill="midnightblue" stroke="midnightblue" points="363.55,-82.46 371.55,-75.52 360.97,-75.95 363.55,-82.46"/>
</g>
<!-- Node12&#45;&gt;Node4 -->
<g id="edge18" class="edge">
<title>Node12&#45;&gt;Node4</title>
<path fill="none" stroke="midnightblue" d="M482.81,-112.32C465.65,-103.66 439.05,-90.24 419.25,-80.25"/>
<polygon fill="midnightblue" stroke="midnightblue" points="420.65,-77.04 410.15,-75.65 417.5,-83.28 420.65,-77.04"/>
</g>
<!-- Node13&#45;&gt;Node9 -->
<g id="edge20" class="edge">
<title>Node13&#45;&gt;Node9</title>
<path fill="none" stroke="midnightblue" d="M339.78,-280.44C321.1,-271.68 291.84,-257.94 270.38,-247.86"/>
<polygon fill="midnightblue" stroke="midnightblue" points="271.68,-244.6 261.14,-243.52 268.7,-250.93 271.68,-244.6"/>
</g>
<!-- Node14&#45;&gt;Node9 -->
<g id="edge23" class="edge">
<title>Node14&#45;&gt;Node9</title>
<path fill="none" stroke="midnightblue" d="M264.76,-392.08C261.14,-365.95 250.51,-289.21 245.57,-253.58"/>
<polygon fill="midnightblue" stroke="midnightblue" points="249.03,-252.99 244.19,-243.57 242.09,-253.95 249.03,-252.99"/>
</g>
<!-- Node14&#45;&gt;Node14 -->
<g id="edge22" class="edge">
<title>Node14&#45;&gt;Node14</title>
<path fill="none" stroke="midnightblue" d="M293.08,-411.53C311.48,-414.31 329.5,-411.13 329.5,-402 329.5,-394.58 317.61,-391.09 303.28,-391.54"/>
<polygon fill="midnightblue" stroke="midnightblue" points="302.72,-388.07 293.08,-392.47 303.36,-395.04 302.72,-388.07"/>
</g>
<!-- Node15&#45;&gt;Node7 -->
<g id="edge33" class="edge">
<title>Node15&#45;&gt;Node7</title>
<path fill="none" stroke="midnightblue" d="M188.85,-392.44C223.4,-383.16 278.68,-368.31 316.58,-358.13"/>
<polygon fill="midnightblue" stroke="midnightblue" points="317.55,-361.49 326.3,-355.52 315.73,-354.73 317.55,-361.49"/>
</g>
<!-- Node15&#45;&gt;Node9 -->
<g id="edge25" class="edge">
<title>Node15&#45;&gt;Node9</title>
<path fill="none" stroke="midnightblue" d="M161.9,-392.43C167.01,-383.42 175.22,-368.79 182,-356 201.28,-319.6 222.72,-276.39 234.35,-252.71"/>
<polygon fill="midnightblue" stroke="midnightblue" points="237.57,-254.09 238.83,-243.57 231.28,-251.01 237.57,-254.09"/>
</g>
<!-- Node16 -->
<g id="node16" class="node">
<title>Node16</title>
<g id="a_node16"><a xlink:href="$string_8h.html" xlink:title=" ">
<polygon fill="white" stroke="black" points="96.5,-336.5 96.5,-355.5 173.5,-355.5 173.5,-336.5 96.5,-336.5"/>
<text text-anchor="middle" x="135" y="-343.5" font-family="Consolas" font-size="10.00">libccc/string.h</text>
</a>
</g>
</g>
<!-- Node15&#45;&gt;Node16 -->
<g id="edge26" class="edge">
<title>Node15&#45;&gt;Node16</title>
<path fill="none" stroke="midnightblue" d="M153.37,-392.08C150.39,-384.77 146.07,-374.18 142.38,-365.1"/>
<polygon fill="midnightblue" stroke="midnightblue" points="145.58,-363.69 138.57,-355.75 139.1,-366.33 145.58,-363.69"/>
</g>
<!-- Node17 -->
<g id="node17" class="node">
<title>Node17</title>
<g id="a_node17"><a xlink:href="$format_8h.html" xlink:title=" ">
<polygon fill="white" stroke="black" points="54.5,-280.5 54.5,-299.5 135.5,-299.5 135.5,-280.5 54.5,-280.5"/>
<text text-anchor="middle" x="95" y="-287.5" font-family="Consolas" font-size="10.00">libccc/format.h</text>
</a>
</g>
</g>
<!-- Node15&#45;&gt;Node17 -->
<g id="edge32" class="edge">
<title>Node15&#45;&gt;Node17</title>
<path fill="none" stroke="midnightblue" d="M132.53,-392.44C116.43,-385.38 96.62,-373.63 87,-356 79.18,-341.67 82.65,-322.96 87.2,-309.3"/>
<polygon fill="midnightblue" stroke="midnightblue" points="90.61,-310.19 90.9,-299.6 84.07,-307.7 90.61,-310.19"/>
</g>
<!-- Node16&#45;&gt;Node9 -->
<g id="edge27" class="edge">
<title>Node16&#45;&gt;Node9</title>
<path fill="none" stroke="midnightblue" d="M141.34,-336.12C150.8,-323.15 169.48,-298.55 188,-280 198.87,-269.11 212.19,-258.16 223.01,-249.78"/>
<polygon fill="midnightblue" stroke="midnightblue" points="225.2,-252.51 231.05,-243.67 220.97,-246.94 225.2,-252.51"/>
</g>
<!-- Node16&#45;&gt;Node17 -->
<g id="edge28" class="edge">
<title>Node16&#45;&gt;Node17</title>
<path fill="none" stroke="midnightblue" d="M128.39,-336.08C122.74,-328.46 114.46,-317.26 107.55,-307.94"/>
<polygon fill="midnightblue" stroke="midnightblue" points="110.25,-305.7 101.48,-299.75 104.62,-309.87 110.25,-305.7"/>
</g>
<!-- Node17&#45;&gt;Node2 -->
<g id="edge29" class="edge">
<title>Node17&#45;&gt;Node2</title>
<path fill="none" stroke="midnightblue" d="M83.91,-280.32C73.51,-272.18 57.74,-259.84 45.28,-250.09"/>
<polygon fill="midnightblue" stroke="midnightblue" points="47.32,-247.24 37.29,-243.83 43.01,-252.75 47.32,-247.24"/>
</g>
<!-- Node17&#45;&gt;Node9 -->
<g id="edge31" class="edge">
<title>Node17&#45;&gt;Node9</title>
<path fill="none" stroke="midnightblue" d="M118.45,-280.44C143.13,-271.44 182.19,-257.19 209.98,-247.05"/>
<polygon fill="midnightblue" stroke="midnightblue" points="211.46,-250.23 219.66,-243.52 209.06,-243.66 211.46,-250.23"/>
</g>
<!-- Node18 -->
<g id="node18" class="node">
<title>Node18</title>
<g id="a_node18"><a xlink:title=" ">
<polygon fill="white" stroke="#bfbfbf" points="70.5,-224.5 70.5,-243.5 129.5,-243.5 129.5,-224.5 70.5,-224.5"/>
<text text-anchor="middle" x="100" y="-231.5" font-family="Consolas" font-size="10.00">inttypes.h</text>
</a>
</g>
</g>
<!-- Node17&#45;&gt;Node18 -->
<g id="edge30" class="edge">
<title>Node17&#45;&gt;Node18</title>
<path fill="none" stroke="midnightblue" d="M95.83,-280.08C96.48,-273.01 97.42,-262.86 98.24,-253.99"/>
<polygon fill="midnightblue" stroke="midnightblue" points="101.75,-254.03 99.19,-243.75 94.78,-253.39 101.75,-254.03"/>
</g>
</g>
</svg>
