<?xml version="1.0" encoding="UTF-8" standalone="no"?>
<!DOCTYPE svg PUBLIC "-//W3C//DTD SVG 1.1//EN"
 "http://www.w3.org/Graphics/SVG/1.1/DTD/svg11.dtd">
<!-- Generated by graphviz version 3.0.0 (20220226.1711)
 -->
<!-- Title: libccc/sys/logger.h Pages: 1 -->
<svg width="821pt" height="487pt"
 viewBox="0.00 0.00 820.50 487.00" xmlns="http://www.w3.org/2000/svg" xmlns:xlink="http://www.w3.org/1999/xlink">
<g id="graph0" class="graph" transform="scale(1 1) rotate(0) translate(4 483)">
<title>libccc/sys/logger.h</title>
<polygon fill="white" stroke="transparent" points="-4,4 -4,-483 816.5,-483 816.5,4 -4,4"/>
<!-- Node1 -->
<g id="node1" class="node">
<title>Node1</title>
<g id="a_node1"><a xlink:title=" ">
<polygon fill="#bfbfbf" stroke="black" points="127,-459.5 127,-478.5 225,-478.5 225,-459.5 127,-459.5"/>
<text text-anchor="middle" x="176" y="-466.5" font-family="Consolas" font-size="10.00">libccc/sys/logger.h</text>
</a>
</g>
</g>
<!-- Node2 -->
<g id="node2" class="node">
<title>Node2</title>
<g id="a_node2"><a xlink:title=" ">
<polygon fill="white" stroke="#bfbfbf" points="0,-403.5 0,-422.5 52,-422.5 52,-403.5 0,-403.5"/>
<text text-anchor="middle" x="26" y="-410.5" font-family="Consolas" font-size="10.00">stdarg.h</text>
</a>
</g>
</g>
<!-- Node1&#45;&gt;Node2 -->
<g id="edge1" class="edge">
<title>Node1&#45;&gt;Node2</title>
<path fill="none" stroke="midnightblue" d="M152.23,-459.44C127.11,-450.4 87.29,-436.06 59.1,-425.92"/>
<polygon fill="midnightblue" stroke="midnightblue" points="60.25,-422.61 49.66,-422.52 57.88,-429.2 60.25,-422.61"/>
</g>
<!-- Node3 -->
<g id="node3" class="node">
<title>Node3</title>
<g id="a_node3"><a xlink:href="$libccc__config_8h.html" xlink:title=" ">
<polygon fill="white" stroke="black" points="206,-168.5 206,-187.5 288,-187.5 288,-168.5 206,-168.5"/>
<text text-anchor="middle" x="247" y="-175.5" font-family="Consolas" font-size="10.00">libccc_config.h</text>
</a>
</g>
</g>
<!-- Node1&#45;&gt;Node3 -->
<g id="edge2" class="edge">
<title>Node1&#45;&gt;Node3</title>
<path fill="none" stroke="midnightblue" d="M167.69,-459.41C151.65,-441.89 118,-400.1 118,-358 118,-358 118,-358 118,-294.5 118,-242.82 176.19,-208.46 214.4,-191.47"/>
<polygon fill="midnightblue" stroke="midnightblue" points="215.82,-194.67 223.64,-187.52 213.07,-188.23 215.82,-194.67"/>
</g>
<!-- Node4 -->
<g id="node4" class="node">
<title>Node4</title>
<g id="a_node4"><a xlink:href="$libccc__define_8h.html" xlink:title=" ">
<polygon fill="white" stroke="black" points="220,-56.5 220,-75.5 302,-75.5 302,-56.5 220,-56.5"/>
<text text-anchor="middle" x="261" y="-63.5" font-family="Consolas" font-size="10.00">libccc_define.h</text>
</a>
</g>
</g>
<!-- Node1&#45;&gt;Node4 -->
<g id="edge7" class="edge">
<title>Node1&#45;&gt;Node4</title>
<path fill="none" stroke="midnightblue" d="M160.15,-459.44C132.88,-443.43 80,-406.16 80,-358 80,-358 80,-358 80,-177 80,-146.77 78.35,-133.09 100,-112 129.14,-83.61 174.63,-72.82 209.84,-68.87"/>
<polygon fill="midnightblue" stroke="midnightblue" points="210.32,-72.33 219.94,-67.88 209.64,-65.37 210.32,-72.33"/>
</g>
<!-- Node7 -->
<g id="node7" class="node">
<title>Node7</title>
<g id="a_node7"><a xlink:href="$io_8h.html" xlink:title=" ">
<polygon fill="white" stroke="black" points="276,-347.5 276,-366.5 356,-366.5 356,-347.5 276,-347.5"/>
<text text-anchor="middle" x="316" y="-354.5" font-family="Consolas" font-size="10.00">libccc/sys/io.h</text>
</a>
</g>
</g>
<!-- Node1&#45;&gt;Node7 -->
<g id="edge8" class="edge">
<title>Node1&#45;&gt;Node7</title>
<path fill="none" stroke="midnightblue" d="M186.99,-459.37C210.81,-440.65 267.44,-396.15 297.12,-372.83"/>
<polygon fill="midnightblue" stroke="midnightblue" points="299.36,-375.52 305.07,-366.59 295.04,-370.02 299.36,-375.52"/>
</g>
<!-- Node14 -->
<g id="node14" class="node">
<title>Node14</title>
<g id="a_node14"><a xlink:href="$time_8h.html" xlink:title=" ">
<polygon fill="white" stroke="black" points="522.5,-403.5 522.5,-422.5 613.5,-422.5 613.5,-403.5 522.5,-403.5"/>
<text text-anchor="middle" x="568" y="-410.5" font-family="Consolas" font-size="10.00">libccc/sys/time.h</text>
</a>
</g>
</g>
<!-- Node1&#45;&gt;Node14 -->
<g id="edge21" class="edge">
<title>Node1&#45;&gt;Node14</title>
<path fill="none" stroke="midnightblue" d="M225.25,-461.22C298.46,-451.13 435.58,-432.24 512.33,-421.67"/>
<polygon fill="midnightblue" stroke="midnightblue" points="512.86,-425.13 522.29,-420.3 511.91,-418.19 512.86,-425.13"/>
</g>
<!-- Node15 -->
<g id="node15" class="node">
<title>Node15</title>
<g id="a_node15"><a xlink:href="$sys_2error_8h.html" xlink:title=" ">
<polygon fill="white" stroke="black" points="341.5,-403.5 341.5,-422.5 432.5,-422.5 432.5,-403.5 341.5,-403.5"/>
<text text-anchor="middle" x="387" y="-410.5" font-family="Consolas" font-size="10.00">libccc/sys/error.h</text>
</a>
</g>
</g>
<!-- Node1&#45;&gt;Node15 -->
<g id="edge24" class="edge">
<title>Node1&#45;&gt;Node15</title>
<path fill="none" stroke="midnightblue" d="M209.43,-459.44C245.86,-450.12 304.23,-435.18 344.03,-425"/>
<polygon fill="midnightblue" stroke="midnightblue" points="344.9,-428.39 353.72,-422.52 343.17,-421.61 344.9,-428.39"/>
</g>
<!-- Node3&#45;&gt;Node4 -->
<g id="edge3" class="edge">
<title>Node3&#45;&gt;Node4</title>
<path fill="none" stroke="midnightblue" d="M245.88,-168.1C244.52,-155.51 242.78,-131.83 246,-112 247.47,-102.96 250.49,-93.28 253.44,-85.22"/>
<polygon fill="midnightblue" stroke="midnightblue" points="256.76,-86.34 257.14,-75.75 250.24,-83.79 256.76,-86.34"/>
</g>
<!-- Node6 -->
<g id="node6" class="node">
<title>Node6</title>
<g id="a_node6"><a xlink:href="$libccc__errors_8h.html" xlink:title=" ">
<polygon fill="white" stroke="black" points="255,-112.5 255,-131.5 335,-131.5 335,-112.5 255,-112.5"/>
<text text-anchor="middle" x="295" y="-119.5" font-family="Consolas" font-size="10.00">libccc_errors.h</text>
</a>
</g>
</g>
<!-- Node3&#45;&gt;Node6 -->
<g id="edge5" class="edge">
<title>Node3&#45;&gt;Node6</title>
<path fill="none" stroke="midnightblue" d="M254.93,-168.08C261.85,-160.3 272.07,-148.8 280.45,-139.37"/>
<polygon fill="midnightblue" stroke="midnightblue" points="283.19,-141.55 287.22,-131.75 277.96,-136.9 283.19,-141.55"/>
</g>
<!-- Node5 -->
<g id="node5" class="node">
<title>Node5</title>
<g id="a_node5"><a xlink:title=" ">
<polygon fill="white" stroke="#bfbfbf" points="231.5,-0.5 231.5,-19.5 290.5,-19.5 290.5,-0.5 231.5,-0.5"/>
<text text-anchor="middle" x="261" y="-7.5" font-family="Consolas" font-size="10.00">stdalign.h</text>
</a>
</g>
</g>
<!-- Node4&#45;&gt;Node5 -->
<g id="edge4" class="edge">
<title>Node4&#45;&gt;Node5</title>
<path fill="none" stroke="midnightblue" d="M261,-56.08C261,-49.01 261,-38.86 261,-29.99"/>
<polygon fill="midnightblue" stroke="midnightblue" points="264.5,-29.75 261,-19.75 257.5,-29.75 264.5,-29.75"/>
</g>
<!-- Node6&#45;&gt;Node4 -->
<g id="edge6" class="edge">
<title>Node6&#45;&gt;Node4</title>
<path fill="none" stroke="midnightblue" d="M289.39,-112.08C284.63,-104.53 277.68,-93.49 271.85,-84.23"/>
<polygon fill="midnightblue" stroke="midnightblue" points="274.8,-82.35 266.51,-75.75 268.88,-86.08 274.8,-82.35"/>
</g>
<!-- Node8 -->
<g id="node8" class="node">
<title>Node8</title>
<g id="a_node8"><a xlink:title=" ">
<polygon fill="white" stroke="#bfbfbf" points="306,-286 306,-305 350,-305 350,-286 306,-286"/>
<text text-anchor="middle" x="328" y="-293" font-family="Consolas" font-size="10.00">fcntl.h</text>
</a>
</g>
</g>
<!-- Node7&#45;&gt;Node8 -->
<g id="edge9" class="edge">
<title>Node7&#45;&gt;Node8</title>
<path fill="none" stroke="midnightblue" d="M317.72,-347.48C319.43,-338.99 322.11,-325.7 324.3,-314.82"/>
<polygon fill="midnightblue" stroke="midnightblue" points="327.74,-315.5 326.28,-305.01 320.88,-314.12 327.74,-315.5"/>
</g>
<!-- Node9 -->
<g id="node9" class="node">
<title>Node9</title>
<g id="a_node9"><a xlink:href="$libccc_8h.html" xlink:title=" ">
<polygon fill="white" stroke="black" points="391,-224.5 391,-243.5 441,-243.5 441,-224.5 391,-224.5"/>
<text text-anchor="middle" x="416" y="-231.5" font-family="Consolas" font-size="10.00">libccc.h</text>
</a>
</g>
</g>
<!-- Node7&#45;&gt;Node9 -->
<g id="edge10" class="edge">
<title>Node7&#45;&gt;Node9</title>
<path fill="none" stroke="midnightblue" d="M324.89,-347.33C333.82,-338.47 347.82,-324.19 359,-311 375.58,-291.44 393.05,-267.6 404.21,-251.9"/>
<polygon fill="midnightblue" stroke="midnightblue" points="407.09,-253.88 409.99,-243.69 401.37,-249.85 407.09,-253.88"/>
</g>
<!-- Node12 -->
<g id="node12" class="node">
<title>Node12</title>
<g id="a_node12"><a xlink:href="$ansi_8h.html" xlink:title=" ">
<polygon fill="white" stroke="black" points="109,-112.5 109,-131.5 199,-131.5 199,-112.5 109,-112.5"/>
<text text-anchor="middle" x="154" y="-119.5" font-family="Consolas" font-size="10.00">libccc/sys/ansi.h</text>
</a>
</g>
</g>
<!-- Node7&#45;&gt;Node12 -->
<g id="edge17" class="edge">
<title>Node7&#45;&gt;Node12</title>
<path fill="none" stroke="midnightblue" d="M275.74,-354.54C243.35,-351.07 199.35,-340.71 175,-311 134.44,-261.51 143.46,-178.45 150.08,-141.59"/>
<polygon fill="midnightblue" stroke="midnightblue" points="153.52,-142.2 152,-131.72 146.65,-140.87 153.52,-142.2"/>
</g>
<!-- Node13 -->
<g id="node13" class="node">
<title>Node13</title>
<g id="a_node13"><a xlink:href="$image_2color_8h.html" xlink:title=" ">
<polygon fill="white" stroke="black" points="184.5,-286 184.5,-305 287.5,-305 287.5,-286 184.5,-286"/>
<text text-anchor="middle" x="236" y="-293" font-family="Consolas" font-size="10.00">libccc/image/color.h</text>
</a>
</g>
</g>
<!-- Node7&#45;&gt;Node13 -->
<g id="edge19" class="edge">
<title>Node7&#45;&gt;Node13</title>
<path fill="none" stroke="midnightblue" d="M304.54,-347.48C291.83,-338.02 271.09,-322.6 255.75,-311.19"/>
<polygon fill="midnightblue" stroke="midnightblue" points="257.55,-308.17 247.44,-305.01 253.38,-313.79 257.55,-308.17"/>
</g>
<!-- Node9&#45;&gt;Node3 -->
<g id="edge13" class="edge">
<title>Node9&#45;&gt;Node3</title>
<path fill="none" stroke="midnightblue" d="M390.7,-224.92C362.24,-215.82 315.79,-200.98 283.43,-190.64"/>
<polygon fill="midnightblue" stroke="midnightblue" points="284.46,-187.3 273.87,-187.59 282.33,-193.96 284.46,-187.3"/>
</g>
<!-- Node9&#45;&gt;Node4 -->
<g id="edge11" class="edge">
<title>Node9&#45;&gt;Node4</title>
<path fill="none" stroke="midnightblue" d="M422.94,-224.37C439.22,-203 476.51,-146.87 449,-112 432.23,-90.74 361.89,-78.4 312.19,-72.18"/>
<polygon fill="midnightblue" stroke="midnightblue" points="312.58,-68.71 302.23,-70.99 311.74,-75.66 312.58,-68.71"/>
</g>
<!-- Node9&#45;&gt;Node6 -->
<g id="edge12" class="edge">
<title>Node9&#45;&gt;Node6</title>
<path fill="none" stroke="midnightblue" d="M406.51,-224.37C386.1,-205.81 337.8,-161.91 311.98,-138.44"/>
<polygon fill="midnightblue" stroke="midnightblue" points="314.2,-135.73 304.45,-131.59 309.5,-140.91 314.2,-135.73"/>
</g>
<!-- Node10 -->
<g id="node10" class="node">
<title>Node10</title>
<g id="a_node10"><a xlink:href="$libccc__naming_8h.html" xlink:title=" ">
<polygon fill="white" stroke="black" points="353.5,-112.5 353.5,-131.5 440.5,-131.5 440.5,-112.5 353.5,-112.5"/>
<text text-anchor="middle" x="397" y="-119.5" font-family="Consolas" font-size="10.00">libccc_naming.h</text>
</a>
</g>
</g>
<!-- Node9&#45;&gt;Node10 -->
<g id="edge14" class="edge">
<title>Node9&#45;&gt;Node10</title>
<path fill="none" stroke="midnightblue" d="M414.51,-224.37C411.44,-206.62 404.37,-165.67 400.21,-141.6"/>
<polygon fill="midnightblue" stroke="midnightblue" points="403.64,-140.85 398.48,-131.59 396.74,-142.04 403.64,-140.85"/>
</g>
<!-- Node11 -->
<g id="node11" class="node">
<title>Node11</title>
<g id="a_node11"><a xlink:title=" ">
<polygon fill="white" stroke="#bfbfbf" points="497.5,-168.5 497.5,-187.5 544.5,-187.5 544.5,-168.5 497.5,-168.5"/>
<text text-anchor="middle" x="521" y="-175.5" font-family="Consolas" font-size="10.00">math.h</text>
</a>
</g>
</g>
<!-- Node9&#45;&gt;Node11 -->
<g id="edge16" class="edge">
<title>Node9&#45;&gt;Node11</title>
<path fill="none" stroke="midnightblue" d="M432.87,-224.32C449.71,-215.66 475.81,-202.24 495.24,-192.25"/>
<polygon fill="midnightblue" stroke="midnightblue" points="496.88,-195.34 504.17,-187.65 493.68,-189.12 496.88,-195.34"/>
</g>
<!-- Node10&#45;&gt;Node4 -->
<g id="edge15" class="edge">
<title>Node10&#45;&gt;Node4</title>
<path fill="none" stroke="midnightblue" d="M375.45,-112.44C352.97,-103.52 317.51,-89.44 292.02,-79.32"/>
<polygon fill="midnightblue" stroke="midnightblue" points="293.03,-75.95 282.45,-75.52 290.45,-82.46 293.03,-75.95"/>
</g>
<!-- Node12&#45;&gt;Node4 -->
<g id="edge18" class="edge">
<title>Node12&#45;&gt;Node4</title>
<path fill="none" stroke="midnightblue" d="M171.19,-112.32C188.35,-103.66 214.95,-90.24 234.75,-80.25"/>
<polygon fill="midnightblue" stroke="midnightblue" points="236.5,-83.28 243.85,-75.65 233.35,-77.04 236.5,-83.28"/>
</g>
<!-- Node13&#45;&gt;Node9 -->
<g id="edge20" class="edge">
<title>Node13&#45;&gt;Node9</title>
<path fill="none" stroke="midnightblue" d="M261.79,-285.98C293.11,-275.62 346.08,-258.11 381.05,-246.55"/>
<polygon fill="midnightblue" stroke="midnightblue" points="382.44,-249.78 390.84,-243.32 380.25,-243.13 382.44,-249.78"/>
</g>
<!-- Node14&#45;&gt;Node9 -->
<g id="edge23" class="edge">
<title>Node14&#45;&gt;Node9</title>
<path fill="none" stroke="midnightblue" d="M583.78,-403.47C596.2,-395.77 612.61,-383.18 620,-367 636.21,-331.55 585.34,-284.06 580,-280 542.2,-251.25 487.15,-240.86 451.45,-237.11"/>
<polygon fill="midnightblue" stroke="midnightblue" points="451.32,-233.59 441.04,-236.15 450.67,-240.56 451.32,-233.59"/>
</g>
<!-- Node14&#45;&gt;Node14 -->
<g id="edge22" class="edge">
<title>Node14&#45;&gt;Node14</title>
<path fill="none" stroke="midnightblue" d="M595.08,-422.53C613.48,-425.31 631.5,-422.13 631.5,-413 631.5,-405.58 619.61,-402.09 605.28,-402.54"/>
<polygon fill="midnightblue" stroke="midnightblue" points="604.72,-399.07 595.08,-403.47 605.36,-406.04 604.72,-399.07"/>
</g>
<!-- Node15&#45;&gt;Node7 -->
<g id="edge34" class="edge">
<title>Node15&#45;&gt;Node7</title>
<path fill="none" stroke="midnightblue" d="M375.59,-403.32C364.89,-395.18 348.66,-382.84 335.84,-373.09"/>
<polygon fill="midnightblue" stroke="midnightblue" points="337.69,-370.1 327.61,-366.83 333.46,-375.67 337.69,-370.1"/>
</g>
<!-- Node15&#45;&gt;Node9 -->
<g id="edge25" class="edge">
<title>Node15&#45;&gt;Node9</title>
<path fill="none" stroke="midnightblue" d="M388.4,-403.46C392.83,-376.43 406.62,-292.24 412.87,-254.11"/>
<polygon fill="midnightblue" stroke="midnightblue" points="416.38,-254.3 414.55,-243.87 409.48,-253.17 416.38,-254.3"/>
</g>
<!-- Node16 -->
<g id="node16" class="node">
<title>Node16</title>
<g id="a_node16"><a xlink:href="$string_8h.html" xlink:title=" ">
<polygon fill="white" stroke="black" points="415.5,-347.5 415.5,-366.5 492.5,-366.5 492.5,-347.5 415.5,-347.5"/>
<text text-anchor="middle" x="454" y="-354.5" font-family="Consolas" font-size="10.00">libccc/string.h</text>
</a>
</g>
</g>
<!-- Node15&#45;&gt;Node16 -->
<g id="edge26" class="edge">
<title>Node15&#45;&gt;Node16</title>
<path fill="none" stroke="midnightblue" d="M397.76,-403.32C407.77,-395.26 422.89,-383.08 434.93,-373.37"/>
<polygon fill="midnightblue" stroke="midnightblue" points="437.45,-375.83 443.04,-366.83 433.06,-370.38 437.45,-375.83"/>
</g>
<!-- Node21 -->
<g id="node21" class="node">
<title>Node21</title>
<g id="a_node21"><a xlink:title=" ">
<polygon fill="white" stroke="#bfbfbf" points="510.5,-347.5 510.5,-366.5 611.5,-366.5 611.5,-347.5 510.5,-347.5"/>
<text text-anchor="middle" x="561" y="-354.5" font-family="Consolas" font-size="10.00">libccc/text/format.h</text>
</a>
</g>
</g>
<!-- Node15&#45;&gt;Node21 -->
<g id="edge33" class="edge">
<title>Node15&#45;&gt;Node21</title>
<path fill="none" stroke="midnightblue" d="M414.57,-403.44C444.1,-394.28 491.12,-379.69 523.88,-369.52"/>
<polygon fill="midnightblue" stroke="midnightblue" points="525.04,-372.82 533.56,-366.52 522.97,-366.14 525.04,-372.82"/>
</g>
<!-- Node16&#45;&gt;Node9 -->
<g id="edge27" class="edge">
<title>Node16&#45;&gt;Node9</title>
<path fill="none" stroke="midnightblue" d="M451.27,-347.3C445.1,-327.68 430.02,-279.64 421.71,-253.19"/>
<polygon fill="midnightblue" stroke="midnightblue" points="425.04,-252.12 418.71,-243.62 418.37,-254.21 425.04,-252.12"/>
</g>
<!-- Node17 -->
<g id="node17" class="node">
<title>Node17</title>
<g id="a_node17"><a xlink:title=" ">
<polygon fill="white" stroke="#bfbfbf" points="482.5,-280.5 482.5,-310.5 571.5,-310.5 571.5,-280.5 482.5,-280.5"/>
<text text-anchor="start" x="490.5" y="-298.5" font-family="Consolas" font-size="10.00">libccc/text/string</text>
<text text-anchor="middle" x="527" y="-287.5" font-family="Consolas" font-size="10.00">_ascii.h</text>
</a>
</g>
</g>
<!-- Node16&#45;&gt;Node17 -->
<g id="edge28" class="edge">
<title>Node16&#45;&gt;Node17</title>
<path fill="none" stroke="midnightblue" d="M464.46,-347.48C474.16,-339.57 488.99,-327.48 501.77,-317.07"/>
<polygon fill="midnightblue" stroke="midnightblue" points="504.26,-319.55 509.8,-310.52 499.83,-314.13 504.26,-319.55"/>
</g>
<!-- Node18 -->
<g id="node18" class="node">
<title>Node18</title>
<g id="a_node18"><a xlink:href="$char_8h.html" xlink:title=" ">
<polygon fill="white" stroke="black" points="668.5,-286 668.5,-305 739.5,-305 739.5,-286 668.5,-286"/>
<text text-anchor="middle" x="704" y="-293" font-family="Consolas" font-size="10.00">libccc/char.h</text>
</a>
</g>
</g>
<!-- Node16&#45;&gt;Node18 -->
<g id="edge29" class="edge">
<title>Node16&#45;&gt;Node18</title>
<path fill="none" stroke="midnightblue" d="M489.82,-347.48C534.19,-336.92 609.84,-318.91 658.33,-307.37"/>
<polygon fill="midnightblue" stroke="midnightblue" points="659.33,-310.73 668.25,-305.01 657.71,-303.92 659.33,-310.73"/>
</g>
<!-- Node18&#45;&gt;Node9 -->
<g id="edge31" class="edge">
<title>Node18&#45;&gt;Node9</title>
<path fill="none" stroke="midnightblue" d="M676.36,-285.97C669.12,-283.88 661.3,-281.74 654,-280 582.51,-262.92 497.7,-248.18 451.08,-240.56"/>
<polygon fill="midnightblue" stroke="midnightblue" points="451.61,-237.1 441.18,-238.95 450.49,-244.01 451.61,-237.1"/>
</g>
<!-- Node19 -->
<g id="node19" class="node">
<title>Node19</title>
<g id="a_node19"><a xlink:title=" ">
<polygon fill="white" stroke="#bfbfbf" points="628.5,-224.5 628.5,-243.5 677.5,-243.5 677.5,-224.5 628.5,-224.5"/>
<text text-anchor="middle" x="653" y="-231.5" font-family="Consolas" font-size="10.00">stdint.h</text>
</a>
</g>
</g>
<!-- Node18&#45;&gt;Node19 -->
<g id="edge30" class="edge">
<title>Node18&#45;&gt;Node19</title>
<path fill="none" stroke="midnightblue" d="M696.69,-285.98C688.97,-276.96 676.59,-262.52 666.98,-251.31"/>
<polygon fill="midnightblue" stroke="midnightblue" points="669.46,-248.82 660.29,-243.51 664.14,-253.38 669.46,-248.82"/>
</g>
<!-- Node20 -->
<g id="node20" class="node">
<title>Node20</title>
<g id="a_node20"><a xlink:title=" ">
<polygon fill="white" stroke="#bfbfbf" points="695.5,-224.5 695.5,-243.5 812.5,-243.5 812.5,-224.5 695.5,-224.5"/>
<text text-anchor="middle" x="754" y="-231.5" font-family="Consolas" font-size="10.00">libccc/text/char_ascii.h</text>
</a>
</g>
</g>
<!-- Node18&#45;&gt;Node20 -->
<g id="edge32" class="edge">
<title>Node18&#45;&gt;Node20</title>
<path fill="none" stroke="midnightblue" d="M711.16,-285.98C718.74,-276.96 730.87,-262.52 740.29,-251.31"/>
<polygon fill="midnightblue" stroke="midnightblue" points="743.1,-253.42 746.85,-243.51 737.74,-248.91 743.1,-253.42"/>
</g>
</g>
</svg>
