<?xml version="1.0" encoding="UTF-8" standalone="no"?>
<!DOCTYPE svg PUBLIC "-//W3C//DTD SVG 1.1//EN"
 "http://www.w3.org/Graphics/SVG/1.1/DTD/svg11.dtd">
<!-- Generated by graphviz version 2.43.0 (0)
 -->
<!-- Title: libccc/sys/logger.h Pages: 1 -->
<!--zoomable 610 -->
<svg id="main" version="1.1" xmlns="http://www.w3.org/2000/svg" xmlns:xlink="http://www.w3.org/1999/xlink" xml:space="preserve" onload="init(evt)">
<style type="text/css"><![CDATA[
.edge:hover path { stroke: red; }
.edge:hover polygon { stroke: red; fill: red; }
]]></style>
<script type="text/javascript"><![CDATA[
var edges = document.getElementsByTagName('g');
if (edges && edges.length) {
  for (var i=0;i<edges.length;i++) {
    if (edges[i].id.substr(0,4)=='edge') {
      edges[i].setAttribute('class','edge');
    }
  }
}
]]></script>
        <defs>
                <circle id="rim" cx="0" cy="0" r="7"/>
                <circle id="rim2" cx="0" cy="0" r="3.5"/>
                <g id="zoomPlus">
                        <use xlink:href="#rim" fill="#404040">
                                <set attributeName="fill" to="#808080" begin="zoomplus.mouseover" end="zoomplus.mouseout"/>
                        </use>
                        <path d="M-4,0h8M0,-4v8" fill="none" stroke="white" stroke-width="1.5" pointer-events="none"/>
                </g>
                <g id="zoomMin">
                        <use xlink:href="#rim" fill="#404040">
                                <set attributeName="fill" to="#808080" begin="zoomminus.mouseover" end="zoomminus.mouseout"/>
                        </use>
                        <path d="M-4,0h8" fill="none" stroke="white" stroke-width="1.5" pointer-events="none"/>
                </g>
                <g id="dirArrow">
                        <path fill="none" stroke="white" stroke-width="1.5" d="M0,-3.0v7 M-2.5,-0.5L0,-3.0L2.5,-0.5"/>
                </g>
               <g id="resetDef">
                       <use xlink:href="#rim2" fill="#404040">
                               <set attributeName="fill" to="#808080" begin="reset.mouseover" end="reset.mouseout"/>
                       </use>
               </g>
        </defs>

<script type="text/javascript">
var viewWidth = 1081;
var viewHeight = 610;
var sectionId = 'dynsection-0';
</script>
<script xlink:href="svgpan.js"/>
<svg id="graph" class="graph">
<g id="viewport">
<title>libccc/sys/logger.h</title>
<polygon fill="white" stroke="transparent" points="-4,4 -4,-606 1077.48,-606 1077.48,4 -4,4"/>
<!-- Node1 -->
<g id="node1" class="node">
<title>Node1</title>
<g id="a_node1"><a xlink:title=" ">
<polygon fill="#bfbfbf" stroke="black" points="131,-582.5 131,-601.5 247,-601.5 247,-582.5 131,-582.5"/>
<text text-anchor="middle" x="189" y="-589.5" font-family="Consolas" font-size="10.00">libccc/sys/logger.h</text>
</a>
</g>
</g>
<!-- Node2 -->
<g id="node2" class="node">
<title>Node2</title>
<g id="a_node2"><a xlink:title=" ">
<polygon fill="white" stroke="#bfbfbf" points="66.5,-280.5 66.5,-299.5 125.5,-299.5 125.5,-280.5 66.5,-280.5"/>
<text text-anchor="middle" x="96" y="-287.5" font-family="Consolas" font-size="10.00">stdarg.h</text>
</a>
</g>
</g>
<!-- Node1&#45;&gt;Node2 -->
<g id="edge1" class="edge">
<title>Node1&#45;&gt;Node2</title>
<path fill="none" stroke="midnightblue" d="M174.38,-582.48C148.66,-566.27 98,-528.34 98,-481 98,-481 98,-481 98,-417.5 98,-379.2 97.07,-334.38 96.48,-309.7"/>
<polygon fill="midnightblue" stroke="midnightblue" points="99.98,-309.5 96.23,-299.59 92.98,-309.67 99.98,-309.5"/>
</g>
<!-- Node3 -->
<g id="node3" class="node">
<title>Node3</title>
<g id="a_node3"><a xlink:href="libccc__config_8h.html" target="_top" xlink:title=" ">
<polygon fill="white" stroke="black" points="356.5,-168.5 356.5,-187.5 451.5,-187.5 451.5,-168.5 356.5,-168.5"/>
<text text-anchor="middle" x="404" y="-175.5" font-family="Consolas" font-size="10.00">libccc_config.h</text>
</a>
</g>
</g>
<!-- Node1&#45;&gt;Node3 -->
<g id="edge2" class="edge">
<title>Node1&#45;&gt;Node3</title>
<path fill="none" stroke="midnightblue" d="M154.74,-582.44C110.18,-569.02 38,-538.41 38,-481 38,-481 38,-481 38,-289 38,-225.43 243.06,-195.4 346.2,-184.31"/>
<polygon fill="midnightblue" stroke="midnightblue" points="346.57,-187.79 356.15,-183.27 345.84,-180.83 346.57,-187.79"/>
</g>
<!-- Node4 -->
<g id="node4" class="node">
<title>Node4</title>
<g id="a_node4"><a xlink:href="libccc__define_8h.html" target="_top" xlink:title=" ">
<polygon fill="white" stroke="black" points="460.5,-56.5 460.5,-75.5 555.5,-75.5 555.5,-56.5 460.5,-56.5"/>
<text text-anchor="middle" x="508" y="-63.5" font-family="Consolas" font-size="10.00">libccc_define.h</text>
</a>
</g>
</g>
<!-- Node1&#45;&gt;Node4 -->
<g id="edge7" class="edge">
<title>Node1&#45;&gt;Node4</title>
<path fill="none" stroke="midnightblue" d="M132.29,-582.5C76.62,-570.56 0,-542.88 0,-481 0,-481 0,-481 0,-177 0,-85.75 317.02,-70.03 450.18,-67.44"/>
<polygon fill="midnightblue" stroke="midnightblue" points="450.27,-70.94 460.21,-67.27 450.15,-63.94 450.27,-70.94"/>
</g>
<!-- Node7 -->
<g id="node7" class="node">
<title>Node7</title>
<g id="a_node7"><a xlink:href="io_8h.html" target="_top" xlink:title=" ">
<polygon fill="white" stroke="black" points="837.5,-342 837.5,-361 932.5,-361 932.5,-342 837.5,-342"/>
<text text-anchor="middle" x="885" y="-349" font-family="Consolas" font-size="10.00">libccc/sys/io.h</text>
</a>
</g>
</g>
<!-- Node1&#45;&gt;Node7 -->
<g id="edge8" class="edge">
<title>Node1&#45;&gt;Node7</title>
<path fill="none" stroke="midnightblue" d="M247.23,-589.84C390.83,-585.8 756.62,-567.91 845,-490 879.41,-459.67 885,-401.63 885.43,-371.58"/>
<polygon fill="midnightblue" stroke="midnightblue" points="888.93,-371.21 885.39,-361.23 881.93,-371.24 888.93,-371.21"/>
</g>
<!-- Node13 -->
<g id="node13" class="node">
<title>Node13</title>
<g id="a_node13"><a xlink:href="time_8h.html" target="_top" xlink:title=" ">
<polygon fill="white" stroke="black" points="712,-470.5 712,-489.5 818,-489.5 818,-470.5 712,-470.5"/>
<text text-anchor="middle" x="765" y="-477.5" font-family="Consolas" font-size="10.00">libccc/sys/time.h</text>
</a>
</g>
</g>
<!-- Node1&#45;&gt;Node13 -->
<g id="edge20" class="edge">
<title>Node1&#45;&gt;Node13</title>
<path fill="none" stroke="midnightblue" d="M233.72,-582.46C338.02,-562.54 597.11,-513.06 710.45,-491.42"/>
<polygon fill="midnightblue" stroke="midnightblue" points="711.14,-494.85 720.31,-489.53 709.83,-487.97 711.14,-494.85"/>
</g>
<!-- Node14 -->
<g id="node14" class="node">
<title>Node14</title>
<g id="a_node14"><a xlink:href="error_8h.html" target="_top" xlink:title=" ">
<polygon fill="white" stroke="black" points="223.5,-526.5 223.5,-545.5 334.5,-545.5 334.5,-526.5 223.5,-526.5"/>
<text text-anchor="middle" x="279" y="-533.5" font-family="Consolas" font-size="10.00">libccc/sys/error.h</text>
</a>
</g>
</g>
<!-- Node1&#45;&gt;Node14 -->
<g id="edge23" class="edge">
<title>Node1&#45;&gt;Node14</title>
<path fill="none" stroke="midnightblue" d="M203.46,-582.32C217.5,-573.9 239.05,-560.97 255.54,-551.07"/>
<polygon fill="midnightblue" stroke="midnightblue" points="257.8,-553.8 264.58,-545.65 254.2,-547.8 257.8,-553.8"/>
</g>
<!-- Node3&#45;&gt;Node4 -->
<g id="edge3" class="edge">
<title>Node3&#45;&gt;Node4</title>
<path fill="none" stroke="midnightblue" d="M402.79,-168.48C401.38,-155.09 400.6,-128.9 413,-112 424.57,-96.23 443.1,-85.78 460.73,-78.96"/>
<polygon fill="midnightblue" stroke="midnightblue" points="462.14,-82.17 470.39,-75.53 459.79,-75.58 462.14,-82.17"/>
</g>
<!-- Node6 -->
<g id="node6" class="node">
<title>Node6</title>
<g id="a_node6"><a xlink:href="libccc__errors_8h.html" target="_top" xlink:title=" ">
<polygon fill="white" stroke="black" points="422.5,-112.5 422.5,-131.5 517.5,-131.5 517.5,-112.5 422.5,-112.5"/>
<text text-anchor="middle" x="470" y="-119.5" font-family="Consolas" font-size="10.00">libccc_errors.h</text>
</a>
</g>
</g>
<!-- Node3&#45;&gt;Node6 -->
<g id="edge5" class="edge">
<title>Node3&#45;&gt;Node6</title>
<path fill="none" stroke="midnightblue" d="M414.6,-168.32C424.46,-160.26 439.35,-148.08 451.22,-138.37"/>
<polygon fill="midnightblue" stroke="midnightblue" points="453.68,-140.88 459.2,-131.83 449.25,-135.46 453.68,-140.88"/>
</g>
<!-- Node5 -->
<g id="node5" class="node">
<title>Node5</title>
<g id="a_node5"><a xlink:title=" ">
<polygon fill="white" stroke="#bfbfbf" points="473.5,-0.5 473.5,-19.5 542.5,-19.5 542.5,-0.5 473.5,-0.5"/>
<text text-anchor="middle" x="508" y="-7.5" font-family="Consolas" font-size="10.00">stdalign.h</text>
</a>
</g>
</g>
<!-- Node4&#45;&gt;Node5 -->
<g id="edge4" class="edge">
<title>Node4&#45;&gt;Node5</title>
<path fill="none" stroke="midnightblue" d="M508,-56.08C508,-49.01 508,-38.86 508,-29.99"/>
<polygon fill="midnightblue" stroke="midnightblue" points="511.5,-29.75 508,-19.75 504.5,-29.75 511.5,-29.75"/>
</g>
<!-- Node6&#45;&gt;Node4 -->
<g id="edge6" class="edge">
<title>Node6&#45;&gt;Node4</title>
<path fill="none" stroke="midnightblue" d="M476.27,-112.08C481.64,-104.46 489.52,-93.26 496.08,-83.94"/>
<polygon fill="midnightblue" stroke="midnightblue" points="498.95,-85.94 501.84,-75.75 493.22,-81.91 498.95,-85.94"/>
</g>
<!-- Node8 -->
<g id="node8" class="node">
<title>Node8</title>
<g id="a_node8"><a xlink:title=" ">
<polygon fill="white" stroke="#bfbfbf" points="866.5,-280.5 866.5,-299.5 919.5,-299.5 919.5,-280.5 866.5,-280.5"/>
<text text-anchor="middle" x="893" y="-287.5" font-family="Consolas" font-size="10.00">fcntl.h</text>
</a>
</g>
</g>
<!-- Node7&#45;&gt;Node8 -->
<g id="edge9" class="edge">
<title>Node7&#45;&gt;Node8</title>
<path fill="none" stroke="midnightblue" d="M886.15,-341.98C887.27,-333.58 889.04,-320.48 890.49,-309.66"/>
<polygon fill="midnightblue" stroke="midnightblue" points="893.99,-309.89 891.86,-299.51 887.05,-308.95 893.99,-309.89"/>
</g>
<!-- Node9 -->
<g id="node9" class="node">
<title>Node9</title>
<g id="a_node9"><a xlink:href="libccc_8h.html" target="_top" xlink:title=" ">
<polygon fill="white" stroke="black" points="516.5,-224.5 516.5,-243.5 575.5,-243.5 575.5,-224.5 516.5,-224.5"/>
<text text-anchor="middle" x="546" y="-231.5" font-family="Consolas" font-size="10.00">libccc.h</text>
</a>
</g>
</g>
<!-- Node7&#45;&gt;Node9 -->
<g id="edge10" class="edge">
<title>Node7&#45;&gt;Node9</title>
<path fill="none" stroke="midnightblue" d="M879.13,-341.86C868.25,-326.6 843.36,-295.07 814,-280 739.82,-241.94 640.35,-234.98 585.85,-234.32"/>
<polygon fill="midnightblue" stroke="midnightblue" points="585.59,-230.82 575.57,-234.27 585.55,-237.82 585.59,-230.82"/>
</g>
<!-- Node11 -->
<g id="node11" class="node">
<title>Node11</title>
<g id="a_node11"><a xlink:href="ansi_8h.html" target="_top" xlink:title=" ">
<polygon fill="white" stroke="black" points="951,-224.5 951,-243.5 1057,-243.5 1057,-224.5 951,-224.5"/>
<text text-anchor="middle" x="1004" y="-231.5" font-family="Consolas" font-size="10.00">libccc/sys/ansi.h</text>
</a>
</g>
</g>
<!-- Node7&#45;&gt;Node11 -->
<g id="edge16" class="edge">
<title>Node7&#45;&gt;Node11</title>
<path fill="none" stroke="midnightblue" d="M932.83,-343.99C981.65,-336.25 1052.53,-321.6 1069,-300 1084.04,-280.28 1056.88,-260.56 1033.2,-248.09"/>
<polygon fill="midnightblue" stroke="midnightblue" points="1034.58,-244.87 1024.07,-243.53 1031.45,-251.13 1034.58,-244.87"/>
</g>
<!-- Node12 -->
<g id="node12" class="node">
<title>Node12</title>
<g id="a_node12"><a xlink:href="color_8h.html" target="_top" xlink:title=" ">
<polygon fill="white" stroke="black" points="938,-280.5 938,-299.5 1060,-299.5 1060,-280.5 938,-280.5"/>
<text text-anchor="middle" x="999" y="-287.5" font-family="Consolas" font-size="10.00">libccc/image/color.h</text>
</a>
</g>
</g>
<!-- Node7&#45;&gt;Node12 -->
<g id="edge18" class="edge">
<title>Node7&#45;&gt;Node12</title>
<path fill="none" stroke="midnightblue" d="M901.33,-341.98C920.21,-332.12 951.51,-315.79 973.58,-304.27"/>
<polygon fill="midnightblue" stroke="midnightblue" points="975.45,-307.24 982.7,-299.51 972.21,-301.03 975.45,-307.24"/>
</g>
<!-- Node9&#45;&gt;Node3 -->
<g id="edge13" class="edge">
<title>Node9&#45;&gt;Node3</title>
<path fill="none" stroke="midnightblue" d="M523.5,-224.44C499.92,-215.48 462.68,-201.31 436.04,-191.18"/>
<polygon fill="midnightblue" stroke="midnightblue" points="436.99,-187.8 426.4,-187.52 434.5,-194.34 436.99,-187.8"/>
</g>
<!-- Node9&#45;&gt;Node4 -->
<g id="edge11" class="edge">
<title>Node9&#45;&gt;Node4</title>
<path fill="none" stroke="midnightblue" d="M545.22,-224.35C543.27,-204.31 537.5,-153.22 526,-112 523.46,-102.88 519.67,-93.09 516.23,-84.97"/>
<polygon fill="midnightblue" stroke="midnightblue" points="519.41,-83.5 512.17,-75.77 513,-86.33 519.41,-83.5"/>
</g>
<!-- Node9&#45;&gt;Node6 -->
<g id="edge12" class="edge">
<title>Node9&#45;&gt;Node6</title>
<path fill="none" stroke="midnightblue" d="M540.04,-224.37C527.49,-206.22 498.19,-163.8 481.74,-139.99"/>
<polygon fill="midnightblue" stroke="midnightblue" points="484.5,-137.83 475.94,-131.59 478.74,-141.81 484.5,-137.83"/>
</g>
<!-- Node10 -->
<g id="node10" class="node">
<title>Node10</title>
<g id="a_node10"><a xlink:href="libccc__naming_8h.html" target="_top" xlink:title=" ">
<polygon fill="white" stroke="black" points="574.5,-112.5 574.5,-131.5 669.5,-131.5 669.5,-112.5 574.5,-112.5"/>
<text text-anchor="middle" x="622" y="-119.5" font-family="Consolas" font-size="10.00">libccc_naming.h</text>
</a>
</g>
</g>
<!-- Node9&#45;&gt;Node10 -->
<g id="edge14" class="edge">
<title>Node9&#45;&gt;Node10</title>
<path fill="none" stroke="midnightblue" d="M551.96,-224.37C564.51,-206.22 593.81,-163.8 610.26,-139.99"/>
<polygon fill="midnightblue" stroke="midnightblue" points="613.26,-141.81 616.06,-131.59 607.5,-137.83 613.26,-141.81"/>
</g>
<!-- Node10&#45;&gt;Node4 -->
<g id="edge15" class="edge">
<title>Node10&#45;&gt;Node4</title>
<path fill="none" stroke="midnightblue" d="M603.94,-112.44C585.43,-103.68 556.42,-89.94 535.14,-79.86"/>
<polygon fill="midnightblue" stroke="midnightblue" points="536.51,-76.63 525.98,-75.52 533.52,-82.96 536.51,-76.63"/>
</g>
<!-- Node11&#45;&gt;Node4 -->
<g id="edge17" class="edge">
<title>Node11&#45;&gt;Node4</title>
<path fill="none" stroke="midnightblue" d="M982.89,-224.35C931.36,-203.42 794.82,-149.05 678,-112 636.55,-98.85 588.59,-86.41 554.21,-77.95"/>
<polygon fill="midnightblue" stroke="midnightblue" points="554.98,-74.54 544.44,-75.56 553.32,-81.34 554.98,-74.54"/>
</g>
<!-- Node12&#45;&gt;Node9 -->
<g id="edge19" class="edge">
<title>Node12&#45;&gt;Node9</title>
<path fill="none" stroke="midnightblue" d="M937.92,-281.11C934.91,-280.73 931.92,-280.36 929,-280 803.85,-264.6 655.56,-247.51 585.9,-239.54"/>
<polygon fill="midnightblue" stroke="midnightblue" points="586.14,-236.05 575.81,-238.39 585.35,-243 586.14,-236.05"/>
</g>
<!-- Node13&#45;&gt;Node9 -->
<g id="edge22" class="edge">
<title>Node13&#45;&gt;Node9</title>
<path fill="none" stroke="midnightblue" d="M766.55,-470.22C770.21,-447.2 777.76,-383.62 759,-336 746.98,-305.5 738.7,-297.53 711,-280 672.57,-255.68 621.07,-244.35 585.89,-239.18"/>
<polygon fill="midnightblue" stroke="midnightblue" points="585.91,-235.65 575.53,-237.76 584.96,-242.58 585.91,-235.65"/>
</g>
<!-- Node13&#45;&gt;Node13 -->
<g id="edge21" class="edge">
<title>Node13&#45;&gt;Node13</title>
<path fill="none" stroke="midnightblue" d="M795.28,-489.53C815.86,-492.31 836,-489.13 836,-480 836,-472.37 821.92,-468.89 805.29,-469.59"/>
<polygon fill="midnightblue" stroke="midnightblue" points="804.93,-466.1 795.28,-470.47 805.55,-473.08 804.93,-466.1"/>
</g>
<!-- Node14&#45;&gt;Node7 -->
<g id="edge44" class="edge">
<title>Node14&#45;&gt;Node7</title>
<path fill="none" stroke="midnightblue" d="M331.05,-526.48C375.94,-518.63 442.3,-505.81 499,-490 633.97,-452.36 789.74,-391.24 854.42,-365.06"/>
<polygon fill="midnightblue" stroke="midnightblue" points="856.05,-368.17 864,-361.17 853.41,-361.69 856.05,-368.17"/>
</g>
<!-- Node14&#45;&gt;Node9 -->
<g id="edge24" class="edge">
<title>Node14&#45;&gt;Node9</title>
<path fill="none" stroke="midnightblue" d="M279,-526.31C279,-507.06 279,-459.4 279,-419.5 279,-419.5 279,-419.5 279,-350.5 279,-252.78 431.52,-236.8 506.01,-234.82"/>
<polygon fill="midnightblue" stroke="midnightblue" points="506.47,-238.31 516.41,-234.62 506.34,-231.31 506.47,-238.31"/>
</g>
<!-- Node15 -->
<g id="node15" class="node">
<title>Node15</title>
<g id="a_node15"><a xlink:href="string_8h.html" target="_top" xlink:title=" ">
<polygon fill="white" stroke="black" points="395.5,-470.5 395.5,-489.5 490.5,-489.5 490.5,-470.5 395.5,-470.5"/>
<text text-anchor="middle" x="443" y="-477.5" font-family="Consolas" font-size="10.00">libccc/string.h</text>
</a>
</g>
</g>
<!-- Node14&#45;&gt;Node15 -->
<g id="edge25" class="edge">
<title>Node14&#45;&gt;Node15</title>
<path fill="none" stroke="midnightblue" d="M304.99,-526.44C332.7,-517.32 376.75,-502.81 407.62,-492.65"/>
<polygon fill="midnightblue" stroke="midnightblue" points="408.73,-495.97 417.14,-489.52 406.54,-489.32 408.73,-495.97"/>
</g>
<!-- Node17 -->
<g id="node17" class="node">
<title>Node17</title>
<g id="a_node17"><a xlink:href="text_2format_8h.html" target="_top" xlink:title=" ">
<polygon fill="white" stroke="black" points="129,-342 129,-361 251,-361 251,-342 129,-342"/>
<text text-anchor="middle" x="190" y="-349" font-family="Consolas" font-size="10.00">libccc/text/format.h</text>
</a>
</g>
</g>
<!-- Node14&#45;&gt;Node17 -->
<g id="edge43" class="edge">
<title>Node14&#45;&gt;Node17</title>
<path fill="none" stroke="midnightblue" d="M274.71,-526.2C260.93,-497.95 217.65,-409.2 198.86,-370.66"/>
<polygon fill="midnightblue" stroke="midnightblue" points="201.78,-368.67 194.25,-361.21 195.49,-371.74 201.78,-368.67"/>
</g>
<!-- Node15&#45;&gt;Node9 -->
<g id="edge26" class="edge">
<title>Node15&#45;&gt;Node9</title>
<path fill="none" stroke="midnightblue" d="M447.41,-470.46C452,-461.48 459.3,-446.88 465,-434 483.97,-391.13 481.44,-377.09 504,-336 513.5,-318.7 521.71,-317.91 530,-300 536.86,-285.17 541.01,-267.02 543.36,-253.67"/>
<polygon fill="midnightblue" stroke="midnightblue" points="546.82,-254.19 544.93,-243.77 539.91,-253.1 546.82,-254.19"/>
</g>
<!-- Node16 -->
<g id="node16" class="node">
<title>Node16</title>
<g id="a_node16"><a xlink:href="string__ascii_8h.html" target="_top" xlink:title=" ">
<polygon fill="white" stroke="black" points="345.5,-403.5 345.5,-433.5 456.5,-433.5 456.5,-403.5 345.5,-403.5"/>
<text text-anchor="start" x="353.5" y="-421.5" font-family="Consolas" font-size="10.00">libccc/text/string</text>
<text text-anchor="middle" x="401" y="-410.5" font-family="Consolas" font-size="10.00">_ascii.h</text>
</a>
</g>
</g>
<!-- Node15&#45;&gt;Node16 -->
<g id="edge27" class="edge">
<title>Node15&#45;&gt;Node16</title>
<path fill="none" stroke="midnightblue" d="M436.98,-470.48C431.72,-463.02 423.84,-451.85 416.79,-441.87"/>
<polygon fill="midnightblue" stroke="midnightblue" points="419.52,-439.67 410.9,-433.52 413.81,-443.71 419.52,-439.67"/>
</g>
<!-- Node22 -->
<g id="node22" class="node">
<title>Node22</title>
<g id="a_node22"><a xlink:href="char_8h.html" target="_top" xlink:title=" ">
<polygon fill="white" stroke="black" points="556.5,-409 556.5,-428 641.5,-428 641.5,-409 556.5,-409"/>
<text text-anchor="middle" x="599" y="-416" font-family="Consolas" font-size="10.00">libccc/char.h</text>
</a>
</g>
</g>
<!-- Node15&#45;&gt;Node22 -->
<g id="edge39" class="edge">
<title>Node15&#45;&gt;Node22</title>
<path fill="none" stroke="midnightblue" d="M465.35,-470.48C491.99,-460.31 536.71,-443.26 567.01,-431.7"/>
<polygon fill="midnightblue" stroke="midnightblue" points="568.59,-434.84 576.69,-428.01 566.1,-428.3 568.59,-434.84"/>
</g>
<!-- Node16&#45;&gt;Node9 -->
<g id="edge28" class="edge">
<title>Node16&#45;&gt;Node9</title>
<path fill="none" stroke="midnightblue" d="M372.52,-403.35C358.79,-394.86 343.66,-382.66 336,-367 319,-332.27 311.69,-310.07 336,-280 356.98,-254.05 451.25,-242.39 506.1,-237.72"/>
<polygon fill="midnightblue" stroke="midnightblue" points="506.49,-241.2 516.18,-236.91 505.93,-234.23 506.49,-241.2"/>
</g>
<!-- Node16&#45;&gt;Node17 -->
<g id="edge29" class="edge">
<title>Node16&#45;&gt;Node17</title>
<path fill="none" stroke="midnightblue" d="M355.48,-403.48C317.16,-391.67 263.04,-375 227.26,-363.98"/>
<polygon fill="midnightblue" stroke="midnightblue" points="228.27,-360.63 217.69,-361.03 226.21,-367.32 228.27,-360.63"/>
</g>
<!-- Node19 -->
<g id="node19" class="node">
<title>Node19</title>
<g id="a_node19"><a xlink:href="char__ascii_8h.html" target="_top" xlink:title=" ">
<polygon fill="white" stroke="black" points="513.5,-342 513.5,-361 656.5,-361 656.5,-342 513.5,-342"/>
<text text-anchor="middle" x="585" y="-349" font-family="Consolas" font-size="10.00">libccc/text/char_ascii.h</text>
</a>
</g>
</g>
<!-- Node16&#45;&gt;Node19 -->
<g id="edge33" class="edge">
<title>Node16&#45;&gt;Node19</title>
<path fill="none" stroke="midnightblue" d="M440.93,-403.4C473.92,-391.74 520.25,-375.37 551.38,-364.38"/>
<polygon fill="midnightblue" stroke="midnightblue" points="552.66,-367.64 560.92,-361.01 550.32,-361.04 552.66,-367.64"/>
</g>
<!-- Node20 -->
<g id="node20" class="node">
<title>Node20</title>
<g id="a_node20"><a xlink:href="string__utf8_8h.html" target="_top" xlink:title=" ">
<polygon fill="white" stroke="black" points="345.5,-336.5 345.5,-366.5 456.5,-366.5 456.5,-336.5 345.5,-336.5"/>
<text text-anchor="start" x="353.5" y="-354.5" font-family="Consolas" font-size="10.00">libccc/text/string</text>
<text text-anchor="middle" x="401" y="-343.5" font-family="Consolas" font-size="10.00">_utf8.h</text>
</a>
</g>
</g>
<!-- Node16&#45;&gt;Node20 -->
<g id="edge35" class="edge">
<title>Node16&#45;&gt;Node20</title>
<path fill="none" stroke="midnightblue" d="M401,-403.4C401,-395.64 401,-385.81 401,-376.86"/>
<polygon fill="midnightblue" stroke="midnightblue" points="404.5,-376.58 401,-366.58 397.5,-376.58 404.5,-376.58"/>
</g>
<!-- Node17&#45;&gt;Node2 -->
<g id="edge30" class="edge">
<title>Node17&#45;&gt;Node2</title>
<path fill="none" stroke="midnightblue" d="M176.53,-341.98C161.32,-332.34 136.31,-316.52 118.2,-305.05"/>
<polygon fill="midnightblue" stroke="midnightblue" points="119.76,-301.9 109.44,-299.51 116.02,-307.81 119.76,-301.9"/>
</g>
<!-- Node17&#45;&gt;Node9 -->
<g id="edge32" class="edge">
<title>Node17&#45;&gt;Node9</title>
<path fill="none" stroke="midnightblue" d="M196.31,-341.84C207.97,-326.55 234.53,-294.97 265,-280 344.15,-241.11 449.54,-234.58 506.09,-234.18"/>
<polygon fill="midnightblue" stroke="midnightblue" points="506.4,-237.68 516.4,-234.18 506.4,-230.68 506.4,-237.68"/>
</g>
<!-- Node18 -->
<g id="node18" class="node">
<title>Node18</title>
<g id="a_node18"><a xlink:title=" ">
<polygon fill="white" stroke="#bfbfbf" points="143.5,-280.5 143.5,-299.5 212.5,-299.5 212.5,-280.5 143.5,-280.5"/>
<text text-anchor="middle" x="178" y="-287.5" font-family="Consolas" font-size="10.00">inttypes.h</text>
</a>
</g>
</g>
<!-- Node17&#45;&gt;Node18 -->
<g id="edge31" class="edge">
<title>Node17&#45;&gt;Node18</title>
<path fill="none" stroke="midnightblue" d="M188.28,-341.98C186.57,-333.49 183.89,-320.2 181.7,-309.32"/>
<polygon fill="midnightblue" stroke="midnightblue" points="185.12,-308.62 179.72,-299.51 178.26,-310 185.12,-308.62"/>
</g>
<!-- Node19&#45;&gt;Node9 -->
<g id="edge34" class="edge">
<title>Node19&#45;&gt;Node9</title>
<path fill="none" stroke="midnightblue" d="M585.73,-341.93C586.56,-328.32 586.94,-301.16 579,-280 575.1,-269.61 568.08,-259.51 561.52,-251.51"/>
<polygon fill="midnightblue" stroke="midnightblue" points="563.96,-248.99 554.74,-243.76 558.69,-253.59 563.96,-248.99"/>
</g>
<!-- Node20&#45;&gt;Node9 -->
<g id="edge36" class="edge">
<title>Node20&#45;&gt;Node9</title>
<path fill="none" stroke="midnightblue" d="M444.68,-336.4C465.28,-328.17 489.2,-316.17 507,-300 521.42,-286.9 532.21,-267.21 538.74,-252.93"/>
<polygon fill="midnightblue" stroke="midnightblue" points="541.99,-254.24 542.73,-243.67 535.56,-251.47 541.99,-254.24"/>
</g>
<!-- Node21 -->
<g id="node21" class="node">
<title>Node21</title>
<g id="a_node21"><a xlink:href="char__unicode_8h.html" target="_top" xlink:title=" ">
<polygon fill="white" stroke="black" points="345.5,-280.5 345.5,-299.5 498.5,-299.5 498.5,-280.5 345.5,-280.5"/>
<text text-anchor="middle" x="422" y="-287.5" font-family="Consolas" font-size="10.00">libccc/text/char_unicode.h</text>
</a>
</g>
</g>
<!-- Node20&#45;&gt;Node21 -->
<g id="edge37" class="edge">
<title>Node20&#45;&gt;Node21</title>
<path fill="none" stroke="midnightblue" d="M405.98,-336.4C408.84,-328.29 412.47,-318.01 415.55,-309.28"/>
<polygon fill="midnightblue" stroke="midnightblue" points="418.92,-310.25 418.94,-299.66 412.32,-307.92 418.92,-310.25"/>
</g>
<!-- Node21&#45;&gt;Node9 -->
<g id="edge38" class="edge">
<title>Node21&#45;&gt;Node9</title>
<path fill="none" stroke="midnightblue" d="M441.65,-280.44C461.96,-271.6 493.9,-257.69 517.1,-247.59"/>
<polygon fill="midnightblue" stroke="midnightblue" points="518.67,-250.72 526.44,-243.52 515.88,-244.3 518.67,-250.72"/>
</g>
<!-- Node22&#45;&gt;Node9 -->
<g id="edge41" class="edge">
<title>Node22&#45;&gt;Node9</title>
<path fill="none" stroke="midnightblue" d="M629.06,-408.97C669.23,-397.28 736.18,-376.62 743,-367 750.97,-355.76 750.18,-347.76 743,-336 708.74,-279.93 632.38,-253.71 585.43,-242.47"/>
<polygon fill="midnightblue" stroke="midnightblue" points="586.13,-239.04 575.6,-240.23 584.58,-245.87 586.13,-239.04"/>
</g>
<!-- Node22&#45;&gt;Node19 -->
<g id="edge42" class="edge">
<title>Node22&#45;&gt;Node19</title>
<path fill="none" stroke="midnightblue" d="M597.11,-408.73C595.03,-399.09 591.63,-383.3 588.96,-370.91"/>
<polygon fill="midnightblue" stroke="midnightblue" points="592.39,-370.17 586.86,-361.13 585.54,-371.64 592.39,-370.17"/>
</g>
<!-- Node23 -->
<g id="node23" class="node">
<title>Node23</title>
<g id="a_node23"><a xlink:title=" ">
<polygon fill="white" stroke="#bfbfbf" points="674.5,-342 674.5,-361 733.5,-361 733.5,-342 674.5,-342"/>
<text text-anchor="middle" x="704" y="-349" font-family="Consolas" font-size="10.00">stdint.h</text>
</a>
</g>
</g>
<!-- Node22&#45;&gt;Node23 -->
<g id="edge40" class="edge">
<title>Node22&#45;&gt;Node23</title>
<path fill="none" stroke="midnightblue" d="M613.16,-408.73C630.71,-397.87 660.84,-379.22 681.56,-366.39"/>
<polygon fill="midnightblue" stroke="midnightblue" points="683.4,-369.37 690.06,-361.13 679.72,-363.41 683.4,-369.37"/>
</g>
</g>
</svg>
        <g id="navigator" transform="translate(0 0)" fill="#404254">
                <rect fill="#f2f5e9" fill-opacity="0.5" stroke="#606060" stroke-width=".5" x="0" y="0" width="60" height="60"/>
                <use id="zoomplus" xlink:href="#zoomPlus" x="17" y="9" onmousedown="handleZoom(evt,'in')"/>
                <use id="zoomminus" xlink:href="#zoomMin" x="42" y="9" onmousedown="handleZoom(evt,'out')"/>
                <use id="reset" xlink:href="#resetDef" x="30" y="36" onmousedown="handleReset()"/>
                <g id="arrowUp" xlink:href="#dirArrow" transform="translate(30 24)" onmousedown="handlePan(0,-1)">
                  <use xlink:href="#rim" fill="#404040">
                        <set attributeName="fill" to="#808080" begin="arrowUp.mouseover" end="arrowUp.mouseout"/>
                  </use>
                  <path fill="none" stroke="white" stroke-width="1.5" d="M0,-3.0v7 M-2.5,-0.5L0,-3.0L2.5,-0.5"/>
                </g>
                <g id="arrowRight" xlink:href="#dirArrow" transform="rotate(90) translate(36 -43)" onmousedown="handlePan(1,0)">
                  <use xlink:href="#rim" fill="#404040">
                        <set attributeName="fill" to="#808080" begin="arrowRight.mouseover" end="arrowRight.mouseout"/>
                  </use>
                  <path fill="none" stroke="white" stroke-width="1.5" d="M0,-3.0v7 M-2.5,-0.5L0,-3.0L2.5,-0.5"/>
                </g>
                <g id="arrowDown" xlink:href="#dirArrow" transform="rotate(180) translate(-30 -48)" onmousedown="handlePan(0,1)">
                  <use xlink:href="#rim" fill="#404040">
                        <set attributeName="fill" to="#808080" begin="arrowDown.mouseover" end="arrowDown.mouseout"/>
                  </use>
                  <path fill="none" stroke="white" stroke-width="1.5" d="M0,-3.0v7 M-2.5,-0.5L0,-3.0L2.5,-0.5"/>
                </g>
                <g id="arrowLeft" xlink:href="#dirArrow" transform="rotate(270) translate(-36 17)" onmousedown="handlePan(-1,0)">
                  <use xlink:href="#rim" fill="#404040">
                        <set attributeName="fill" to="#808080" begin="arrowLeft.mouseover" end="arrowLeft.mouseout"/>
                  </use>
                  <path fill="none" stroke="white" stroke-width="1.5" d="M0,-3.0v7 M-2.5,-0.5L0,-3.0L2.5,-0.5"/>
                </g>
        </g>
        <svg viewBox="0 0 15 15" width="100%" height="30px" preserveAspectRatio="xMaxYMin meet">
         <g id="arrow_out" transform="scale(0.3 0.3)">
          <a xlink:href="logger_8h__incl_org.svg" target="_base">
           <rect id="button" ry="5" rx="5" y="6" x="6" height="38" width="38"
                fill="#f2f5e9" fill-opacity="0.5" stroke="#606060" stroke-width="1.0"/>
           <path id="arrow"
             d="M 11.500037,31.436501 C 11.940474,20.09759 22.043105,11.32322 32.158766,21.979434 L 37.068811,17.246167 C 37.068811,17.246167 37.088388,32 37.088388,32 L 22.160133,31.978069 C 22.160133,31.978069 26.997745,27.140456 26.997745,27.140456 C 18.528582,18.264221 13.291696,25.230495 11.500037,31.436501 z"
             style="fill:#404040;"/>
          </a>
         </g>
        </svg>
</svg>
