<?xml version="1.0" encoding="UTF-8" standalone="no"?>
<!DOCTYPE svg PUBLIC "-//W3C//DTD SVG 1.1//EN"
 "http://www.w3.org/Graphics/SVG/1.1/DTD/svg11.dtd">
<!-- Generated by graphviz version 2.49.3 (20211023.0002)
 -->
<!-- Title: libccc/sys/logger.h Pages: 1 -->
<svg width="428pt" height="420pt"
 viewBox="0.00 0.00 427.50 420.00" xmlns="http://www.w3.org/2000/svg" xmlns:xlink="http://www.w3.org/1999/xlink">
<g id="graph0" class="graph" transform="scale(1 1) rotate(0) translate(4 416)">
<title>libccc/sys/logger.h</title>
<polygon fill="white" stroke="transparent" points="-4,4 -4,-416 423.5,-416 423.5,4 -4,4"/>
<!-- Node1 -->
<g id="node1" class="node">
<title>Node1</title>
<g id="a_node1"><a xlink:title=" ">
<polygon fill="#bfbfbf" stroke="black" points="69,-392.5 69,-411.5 167,-411.5 167,-392.5 69,-392.5"/>
<text text-anchor="middle" x="118" y="-399.5" font-family="Consolas" font-size="10.00">libccc/sys/logger.h</text>
</a>
</g>
</g>
<!-- Node2 -->
<g id="node2" class="node">
<title>Node2</title>
<g id="a_node2"><a xlink:title=" ">
<polygon fill="white" stroke="#bfbfbf" points="0,-336.5 0,-355.5 52,-355.5 52,-336.5 0,-336.5"/>
<text text-anchor="middle" x="26" y="-343.5" font-family="Consolas" font-size="10.00">stdarg.h</text>
</a>
</g>
</g>
<!-- Node1&#45;&gt;Node2 -->
<g id="edge1" class="edge">
<title>Node1&#45;&gt;Node2</title>
<path fill="none" stroke="midnightblue" d="M103.22,-392.32C88.73,-383.82 66.43,-370.73 49.51,-360.8"/>
<polygon fill="midnightblue" stroke="midnightblue" points="51.14,-357.7 40.74,-355.65 47.6,-363.74 51.14,-357.7"/>
</g>
<!-- Node3 -->
<g id="node3" class="node">
<title>Node3</title>
<g id="a_node3"><a xlink:href="libccc__config_8h.html" target="_top" xlink:title=" ">
<polygon fill="white" stroke="black" points="146,-168.5 146,-187.5 228,-187.5 228,-168.5 146,-168.5"/>
<text text-anchor="middle" x="187" y="-175.5" font-family="Consolas" font-size="10.00">libccc_config.h</text>
</a>
</g>
</g>
<!-- Node1&#45;&gt;Node3 -->
<g id="edge2" class="edge">
<title>Node1&#45;&gt;Node3</title>
<path fill="none" stroke="midnightblue" d="M116.85,-392.28C113.72,-365.44 107.18,-282.34 137,-224 143.23,-211.81 154.23,-201.35 164.33,-193.59"/>
<polygon fill="midnightblue" stroke="midnightblue" points="166.41,-196.41 172.48,-187.73 162.32,-190.73 166.41,-196.41"/>
</g>
<!-- Node4 -->
<g id="node4" class="node">
<title>Node4</title>
<g id="a_node4"><a xlink:href="libccc__define_8h.html" target="_top" xlink:title=" ">
<polygon fill="white" stroke="black" points="151,-56.5 151,-75.5 233,-75.5 233,-56.5 151,-56.5"/>
<text text-anchor="middle" x="192" y="-63.5" font-family="Consolas" font-size="10.00">libccc_define.h</text>
</a>
</g>
</g>
<!-- Node1&#45;&gt;Node4 -->
<g id="edge7" class="edge">
<title>Node1&#45;&gt;Node4</title>
<path fill="none" stroke="midnightblue" d="M112.72,-392.23C102.27,-374.04 80,-330.6 80,-291 80,-291 80,-291 80,-177 80,-130.61 129.51,-97.28 162.69,-80.15"/>
<polygon fill="midnightblue" stroke="midnightblue" points="164.57,-83.13 171.98,-75.56 161.46,-76.86 164.57,-83.13"/>
</g>
<!-- Node7 -->
<g id="node7" class="node">
<title>Node7</title>
<g id="a_node7"><a xlink:href="io_8h.html" target="_top" xlink:title=" ">
<polygon fill="white" stroke="black" points="181,-336.5 181,-355.5 261,-355.5 261,-336.5 181,-336.5"/>
<text text-anchor="middle" x="221" y="-343.5" font-family="Consolas" font-size="10.00">libccc/sys/io.h</text>
</a>
</g>
</g>
<!-- Node1&#45;&gt;Node7 -->
<g id="edge8" class="edge">
<title>Node1&#45;&gt;Node7</title>
<path fill="none" stroke="midnightblue" d="M134.55,-392.32C150.99,-383.7 176.43,-370.36 195.47,-360.39"/>
<polygon fill="midnightblue" stroke="midnightblue" points="197.26,-363.4 204.49,-355.65 194.01,-357.2 197.26,-363.4"/>
</g>
<!-- Node13 -->
<g id="node13" class="node">
<title>Node13</title>
<g id="a_node13"><a xlink:href="time_8h.html" target="_top" xlink:title=" ">
<polygon fill="white" stroke="black" points="310.5,-336.5 310.5,-355.5 401.5,-355.5 401.5,-336.5 310.5,-336.5"/>
<text text-anchor="middle" x="356" y="-343.5" font-family="Consolas" font-size="10.00">libccc/sys/time.h</text>
</a>
</g>
</g>
<!-- Node1&#45;&gt;Node13 -->
<g id="edge20" class="edge">
<title>Node1&#45;&gt;Node13</title>
<path fill="none" stroke="midnightblue" d="M155.71,-392.44C197.14,-383.04 263.76,-367.93 308.67,-357.74"/>
<polygon fill="midnightblue" stroke="midnightblue" points="309.49,-361.14 318.46,-355.52 307.94,-354.32 309.49,-361.14"/>
</g>
<!-- Node3&#45;&gt;Node4 -->
<g id="edge3" class="edge">
<title>Node3&#45;&gt;Node4</title>
<path fill="none" stroke="midnightblue" d="M183.87,-168.16C179.85,-155.65 173.74,-132.06 177,-112 178.47,-102.96 181.49,-93.28 184.44,-85.22"/>
<polygon fill="midnightblue" stroke="midnightblue" points="187.76,-86.34 188.14,-75.75 181.24,-83.79 187.76,-86.34"/>
</g>
<!-- Node6 -->
<g id="node6" class="node">
<title>Node6</title>
<g id="a_node6"><a xlink:href="libccc__errors_8h.html" target="_top" xlink:title=" ">
<polygon fill="white" stroke="black" points="186,-112.5 186,-131.5 266,-131.5 266,-112.5 186,-112.5"/>
<text text-anchor="middle" x="226" y="-119.5" font-family="Consolas" font-size="10.00">libccc_errors.h</text>
</a>
</g>
</g>
<!-- Node3&#45;&gt;Node6 -->
<g id="edge5" class="edge">
<title>Node3&#45;&gt;Node6</title>
<path fill="none" stroke="midnightblue" d="M193.44,-168.08C198.95,-160.46 207.03,-149.26 213.76,-139.94"/>
<polygon fill="midnightblue" stroke="midnightblue" points="216.66,-141.91 219.68,-131.75 210.99,-137.81 216.66,-141.91"/>
</g>
<!-- Node5 -->
<g id="node5" class="node">
<title>Node5</title>
<g id="a_node5"><a xlink:title=" ">
<polygon fill="white" stroke="#bfbfbf" points="162.5,-0.5 162.5,-19.5 221.5,-19.5 221.5,-0.5 162.5,-0.5"/>
<text text-anchor="middle" x="192" y="-7.5" font-family="Consolas" font-size="10.00">stdalign.h</text>
</a>
</g>
</g>
<!-- Node4&#45;&gt;Node5 -->
<g id="edge4" class="edge">
<title>Node4&#45;&gt;Node5</title>
<path fill="none" stroke="midnightblue" d="M192,-56.08C192,-49.01 192,-38.86 192,-29.99"/>
<polygon fill="midnightblue" stroke="midnightblue" points="195.5,-29.75 192,-19.75 188.5,-29.75 195.5,-29.75"/>
</g>
<!-- Node6&#45;&gt;Node4 -->
<g id="edge6" class="edge">
<title>Node6&#45;&gt;Node4</title>
<path fill="none" stroke="midnightblue" d="M220.39,-112.08C215.63,-104.53 208.68,-93.49 202.85,-84.23"/>
<polygon fill="midnightblue" stroke="midnightblue" points="205.8,-82.35 197.51,-75.75 199.88,-86.08 205.8,-82.35"/>
</g>
<!-- Node8 -->
<g id="node8" class="node">
<title>Node8</title>
<g id="a_node8"><a xlink:title=" ">
<polygon fill="white" stroke="#bfbfbf" points="314,-280.5 314,-299.5 358,-299.5 358,-280.5 314,-280.5"/>
<text text-anchor="middle" x="336" y="-287.5" font-family="Consolas" font-size="10.00">fcntl.h</text>
</a>
</g>
</g>
<!-- Node7&#45;&gt;Node8 -->
<g id="edge9" class="edge">
<title>Node7&#45;&gt;Node8</title>
<path fill="none" stroke="midnightblue" d="M239.22,-336.44C257.9,-327.68 287.16,-313.94 308.62,-303.86"/>
<polygon fill="midnightblue" stroke="midnightblue" points="310.3,-306.93 317.86,-299.52 307.32,-300.6 310.3,-306.93"/>
</g>
<!-- Node9 -->
<g id="node9" class="node">
<title>Node9</title>
<g id="a_node9"><a xlink:href="libccc_8h.html" target="_top" xlink:title=" ">
<polygon fill="white" stroke="black" points="261,-224.5 261,-243.5 311,-243.5 311,-224.5 261,-224.5"/>
<text text-anchor="middle" x="286" y="-231.5" font-family="Consolas" font-size="10.00">libccc.h</text>
</a>
</g>
</g>
<!-- Node7&#45;&gt;Node9 -->
<g id="edge10" class="edge">
<title>Node7&#45;&gt;Node9</title>
<path fill="none" stroke="midnightblue" d="M232.87,-336.29C243.3,-328.04 258.15,-314.75 267,-300 275.6,-285.67 280.51,-267.2 283.17,-253.62"/>
<polygon fill="midnightblue" stroke="midnightblue" points="286.66,-254 284.91,-243.55 279.76,-252.81 286.66,-254"/>
</g>
<!-- Node11 -->
<g id="node11" class="node">
<title>Node11</title>
<g id="a_node11"><a xlink:href="ansi_8h.html" target="_top" xlink:title=" ">
<polygon fill="white" stroke="black" points="146,-224.5 146,-243.5 236,-243.5 236,-224.5 146,-224.5"/>
<text text-anchor="middle" x="191" y="-231.5" font-family="Consolas" font-size="10.00">libccc/sys/ansi.h</text>
</a>
</g>
</g>
<!-- Node7&#45;&gt;Node11 -->
<g id="edge16" class="edge">
<title>Node7&#45;&gt;Node11</title>
<path fill="none" stroke="midnightblue" d="M207.21,-336.19C196.17,-328.24 181.5,-315.45 175,-300 168.54,-284.63 174.34,-266.08 180.69,-252.74"/>
<polygon fill="midnightblue" stroke="midnightblue" points="183.9,-254.16 185.46,-243.69 177.7,-250.9 183.9,-254.16"/>
</g>
<!-- Node12 -->
<g id="node12" class="node">
<title>Node12</title>
<g id="a_node12"><a xlink:href="color_8h.html" target="_top" xlink:title=" ">
<polygon fill="white" stroke="black" points="184,-280.5 184,-299.5 258,-299.5 258,-280.5 184,-280.5"/>
<text text-anchor="middle" x="221" y="-287.5" font-family="Consolas" font-size="10.00">libccc/color.h</text>
</a>
</g>
</g>
<!-- Node7&#45;&gt;Node12 -->
<g id="edge18" class="edge">
<title>Node7&#45;&gt;Node12</title>
<path fill="none" stroke="midnightblue" d="M221,-336.08C221,-329.01 221,-318.86 221,-309.99"/>
<polygon fill="midnightblue" stroke="midnightblue" points="224.5,-309.75 221,-299.75 217.5,-309.75 224.5,-309.75"/>
</g>
<!-- Node9&#45;&gt;Node3 -->
<g id="edge13" class="edge">
<title>Node9&#45;&gt;Node3</title>
<path fill="none" stroke="midnightblue" d="M270.09,-224.32C254.36,-215.74 230.06,-202.49 211.79,-192.52"/>
<polygon fill="midnightblue" stroke="midnightblue" points="213.32,-189.37 202.87,-187.65 209.97,-195.52 213.32,-189.37"/>
</g>
<!-- Node9&#45;&gt;Node4 -->
<g id="edge11" class="edge">
<title>Node9&#45;&gt;Node4</title>
<path fill="none" stroke="midnightblue" d="M287.75,-224.5C291.6,-203.44 298.67,-147.94 275,-112 265.07,-96.92 248.32,-86.49 232.46,-79.49"/>
<polygon fill="midnightblue" stroke="midnightblue" points="233.35,-76.08 222.77,-75.57 230.72,-82.57 233.35,-76.08"/>
</g>
<!-- Node9&#45;&gt;Node6 -->
<g id="edge12" class="edge">
<title>Node9&#45;&gt;Node6</title>
<path fill="none" stroke="midnightblue" d="M281.29,-224.37C271.48,-206.38 248.66,-164.55 235.61,-140.63"/>
<polygon fill="midnightblue" stroke="midnightblue" points="238.55,-138.69 230.69,-131.59 232.4,-142.05 238.55,-138.69"/>
</g>
<!-- Node10 -->
<g id="node10" class="node">
<title>Node10</title>
<g id="a_node10"><a xlink:href="libccc__naming_8h.html" target="_top" xlink:title=" ">
<polygon fill="white" stroke="black" points="322.5,-112.5 322.5,-131.5 409.5,-131.5 409.5,-112.5 322.5,-112.5"/>
<text text-anchor="middle" x="366" y="-119.5" font-family="Consolas" font-size="10.00">libccc_naming.h</text>
</a>
</g>
</g>
<!-- Node9&#45;&gt;Node10 -->
<g id="edge14" class="edge">
<title>Node9&#45;&gt;Node10</title>
<path fill="none" stroke="midnightblue" d="M292.28,-224.37C305.48,-206.22 336.33,-163.8 353.64,-139.99"/>
<polygon fill="midnightblue" stroke="midnightblue" points="356.7,-141.74 359.75,-131.59 351.04,-137.62 356.7,-141.74"/>
</g>
<!-- Node10&#45;&gt;Node4 -->
<g id="edge15" class="edge">
<title>Node10&#45;&gt;Node4</title>
<path fill="none" stroke="midnightblue" d="M338.43,-112.44C308.9,-103.28 261.88,-88.69 229.12,-78.52"/>
<polygon fill="midnightblue" stroke="midnightblue" points="230.03,-75.14 219.44,-75.52 227.96,-81.82 230.03,-75.14"/>
</g>
<!-- Node11&#45;&gt;Node4 -->
<g id="edge17" class="edge">
<title>Node11&#45;&gt;Node4</title>
<path fill="none" stroke="midnightblue" d="M174.37,-224.46C161.51,-216.84 144.66,-204.36 137,-188 133.23,-179.95 134.81,-176.61 137,-168 145.17,-135.91 165.84,-103 179.38,-83.81"/>
<polygon fill="midnightblue" stroke="midnightblue" points="182.34,-85.7 185.37,-75.56 176.67,-81.59 182.34,-85.7"/>
</g>
<!-- Node12&#45;&gt;Node9 -->
<g id="edge19" class="edge">
<title>Node12&#45;&gt;Node9</title>
<path fill="none" stroke="midnightblue" d="M231.44,-280.32C241.15,-272.26 255.82,-260.08 267.5,-250.37"/>
<polygon fill="midnightblue" stroke="midnightblue" points="269.91,-252.92 275.37,-243.83 265.44,-247.53 269.91,-252.92"/>
</g>
<!-- Node13&#45;&gt;Node9 -->
<g id="edge22" class="edge">
<title>Node13&#45;&gt;Node9</title>
<path fill="none" stroke="midnightblue" d="M360.87,-336.35C367.55,-323.23 377.56,-297.95 367,-280 356.98,-262.96 337.91,-251.91 320.8,-245.03"/>
<polygon fill="midnightblue" stroke="midnightblue" points="321.62,-241.6 311.03,-241.44 319.21,-248.17 321.62,-241.6"/>
</g>
<!-- Node13&#45;&gt;Node13 -->
<g id="edge21" class="edge">
<title>Node13&#45;&gt;Node13</title>
<path fill="none" stroke="midnightblue" d="M383.08,-355.53C401.48,-358.31 419.5,-355.13 419.5,-346 419.5,-338.58 407.61,-335.09 393.28,-335.54"/>
<polygon fill="midnightblue" stroke="midnightblue" points="392.72,-332.07 383.08,-336.47 393.36,-339.04 392.72,-332.07"/>
</g>
</g>
</svg>
