<?xml version="1.0" encoding="UTF-8" standalone="no"?>
<!DOCTYPE svg PUBLIC "-//W3C//DTD SVG 1.1//EN"
 "http://www.w3.org/Graphics/SVG/1.1/DTD/svg11.dtd">
<!-- Generated by graphviz version 2.49.3 (20211023.0002)
 -->
<!-- Title: hdr/libccc/sys/logger.h Pages: 1 -->
<svg width="894pt" height="420pt"
 viewBox="0.00 0.00 894.00 420.00" xmlns="http://www.w3.org/2000/svg" xmlns:xlink="http://www.w3.org/1999/xlink">
<g id="graph0" class="graph" transform="scale(1 1) rotate(0) translate(4 416)">
<title>hdr/libccc/sys/logger.h</title>
<polygon fill="white" stroke="transparent" points="-4,4 -4,-416 890,-416 890,4 -4,4"/>
<!-- Node1 -->
<g id="node1" class="node">
<title>Node1</title>
<g id="a_node1"><a xlink:title=" ">
<polygon fill="#bfbfbf" stroke="black" points="232,-392.5 232,-411.5 346,-411.5 346,-392.5 232,-392.5"/>
<text text-anchor="middle" x="289" y="-399.5" font-family="Consolas" font-size="10.00">hdr/libccc/sys/logger.h</text>
</a>
</g>
</g>
<!-- Node2 -->
<g id="node2" class="node">
<title>Node2</title>
<g id="a_node2"><a xlink:title=" ">
<polygon fill="white" stroke="#bfbfbf" points="0,-336.5 0,-355.5 52,-355.5 52,-336.5 0,-336.5"/>
<text text-anchor="middle" x="26" y="-343.5" font-family="Consolas" font-size="10.00">stdarg.h</text>
</a>
</g>
</g>
<!-- Node1&#45;&gt;Node2 -->
<g id="edge1" class="edge">
<title>Node1&#45;&gt;Node2</title>
<path fill="none" stroke="midnightblue" d="M245.36,-392.49C200.36,-383.65 128.19,-369.27 66,-356 64.75,-355.73 63.47,-355.46 62.19,-355.18"/>
<polygon fill="midnightblue" stroke="midnightblue" points="62.75,-351.72 52.23,-352.99 61.25,-358.56 62.75,-351.72"/>
</g>
<!-- Node3 -->
<g id="node3" class="node">
<title>Node3</title>
<g id="a_node3"><a xlink:href="libccc__config_8h.html" target="_top" xlink:title=" ">
<polygon fill="white" stroke="black" points="804,-168.5 804,-187.5 886,-187.5 886,-168.5 804,-168.5"/>
<text text-anchor="middle" x="845" y="-175.5" font-family="Consolas" font-size="10.00">libccc_config.h</text>
</a>
</g>
</g>
<!-- Node1&#45;&gt;Node3 -->
<g id="edge2" class="edge">
<title>Node1&#45;&gt;Node3</title>
<path fill="none" stroke="midnightblue" d="M339.47,-392.45C378.93,-385 434.83,-372.76 482,-356 615.65,-308.52 764.75,-225.55 821.42,-192.83"/>
<polygon fill="midnightblue" stroke="midnightblue" points="823.42,-195.72 830.31,-187.67 819.9,-189.67 823.42,-195.72"/>
</g>
<!-- Node4 -->
<g id="node4" class="node">
<title>Node4</title>
<g id="a_node4"><a xlink:href="libccc__define_8h.html" target="_top" xlink:title=" ">
<polygon fill="white" stroke="black" points="151,-56.5 151,-75.5 233,-75.5 233,-56.5 151,-56.5"/>
<text text-anchor="middle" x="192" y="-63.5" font-family="Consolas" font-size="10.00">libccc_define.h</text>
</a>
</g>
</g>
<!-- Node1&#45;&gt;Node4 -->
<g id="edge7" class="edge">
<title>Node1&#45;&gt;Node4</title>
<path fill="none" stroke="midnightblue" d="M231.89,-395.36C170.01,-385.73 80,-359.89 80,-291 80,-291 80,-291 80,-177 80,-130.61 129.51,-97.28 162.69,-80.15"/>
<polygon fill="midnightblue" stroke="midnightblue" points="164.57,-83.13 171.98,-75.56 161.46,-76.86 164.57,-83.13"/>
</g>
<!-- Node7 -->
<g id="node7" class="node">
<title>Node7</title>
<g id="a_node7"><a xlink:href="io_8h.html" target="_top" xlink:title=" ">
<polygon fill="white" stroke="black" points="249,-336.5 249,-355.5 329,-355.5 329,-336.5 249,-336.5"/>
<text text-anchor="middle" x="289" y="-343.5" font-family="Consolas" font-size="10.00">libccc/sys/io.h</text>
</a>
</g>
</g>
<!-- Node1&#45;&gt;Node7 -->
<g id="edge8" class="edge">
<title>Node1&#45;&gt;Node7</title>
<path fill="none" stroke="midnightblue" d="M289,-392.08C289,-385.01 289,-374.86 289,-365.99"/>
<polygon fill="midnightblue" stroke="midnightblue" points="292.5,-365.75 289,-355.75 285.5,-365.75 292.5,-365.75"/>
</g>
<!-- Node23 -->
<g id="node23" class="node">
<title>Node23</title>
<g id="a_node23"><a xlink:href="time_8h.html" target="_top" xlink:title=" ">
<polygon fill="white" stroke="black" points="363.5,-336.5 363.5,-355.5 454.5,-355.5 454.5,-336.5 363.5,-336.5"/>
<text text-anchor="middle" x="409" y="-343.5" font-family="Consolas" font-size="10.00">libccc/sys/time.h</text>
</a>
</g>
</g>
<!-- Node1&#45;&gt;Node23 -->
<g id="edge38" class="edge">
<title>Node1&#45;&gt;Node23</title>
<path fill="none" stroke="midnightblue" d="M308.01,-392.44C327.59,-383.64 358.31,-369.81 380.73,-359.72"/>
<polygon fill="midnightblue" stroke="midnightblue" points="382.39,-362.81 390.07,-355.52 379.52,-356.43 382.39,-362.81"/>
</g>
<!-- Node3&#45;&gt;Node4 -->
<g id="edge3" class="edge">
<title>Node3&#45;&gt;Node4</title>
<path fill="none" stroke="midnightblue" d="M845.33,-168.16C845.34,-153.82 843.02,-125.73 826,-112 781.11,-75.8 386.87,-68.72 243.69,-67.33"/>
<polygon fill="midnightblue" stroke="midnightblue" points="243.45,-63.83 233.42,-67.24 243.38,-70.83 243.45,-63.83"/>
</g>
<!-- Node6 -->
<g id="node6" class="node">
<title>Node6</title>
<g id="a_node6"><a xlink:href="libccc__errors_8h.html" target="_top" xlink:title=" ">
<polygon fill="white" stroke="black" points="737,-112.5 737,-131.5 817,-131.5 817,-112.5 737,-112.5"/>
<text text-anchor="middle" x="777" y="-119.5" font-family="Consolas" font-size="10.00">libccc_errors.h</text>
</a>
</g>
</g>
<!-- Node3&#45;&gt;Node6 -->
<g id="edge5" class="edge">
<title>Node3&#45;&gt;Node6</title>
<path fill="none" stroke="midnightblue" d="M834.07,-168.32C823.83,-160.18 808.28,-147.84 796,-138.09"/>
<polygon fill="midnightblue" stroke="midnightblue" points="798.13,-135.31 788.12,-131.83 793.78,-140.79 798.13,-135.31"/>
</g>
<!-- Node5 -->
<g id="node5" class="node">
<title>Node5</title>
<g id="a_node5"><a xlink:title=" ">
<polygon fill="white" stroke="#bfbfbf" points="162.5,-0.5 162.5,-19.5 221.5,-19.5 221.5,-0.5 162.5,-0.5"/>
<text text-anchor="middle" x="192" y="-7.5" font-family="Consolas" font-size="10.00">stdalign.h</text>
</a>
</g>
</g>
<!-- Node4&#45;&gt;Node5 -->
<g id="edge4" class="edge">
<title>Node4&#45;&gt;Node5</title>
<path fill="none" stroke="midnightblue" d="M192,-56.08C192,-49.01 192,-38.86 192,-29.99"/>
<polygon fill="midnightblue" stroke="midnightblue" points="195.5,-29.75 192,-19.75 188.5,-29.75 195.5,-29.75"/>
</g>
<!-- Node6&#45;&gt;Node4 -->
<g id="edge6" class="edge">
<title>Node6&#45;&gt;Node4</title>
<path fill="none" stroke="midnightblue" d="M736.94,-113.31C733.92,-112.83 730.91,-112.39 728,-112 550.9,-88.36 339.13,-74.92 243.43,-69.64"/>
<polygon fill="midnightblue" stroke="midnightblue" points="243.34,-66.13 233.17,-69.08 242.96,-73.12 243.34,-66.13"/>
</g>
<!-- Node8 -->
<g id="node8" class="node">
<title>Node8</title>
<g id="a_node8"><a xlink:title=" ">
<polygon fill="white" stroke="#bfbfbf" points="242,-280.5 242,-299.5 286,-299.5 286,-280.5 242,-280.5"/>
<text text-anchor="middle" x="264" y="-287.5" font-family="Consolas" font-size="10.00">fcntl.h</text>
</a>
</g>
</g>
<!-- Node7&#45;&gt;Node8 -->
<g id="edge9" class="edge">
<title>Node7&#45;&gt;Node8</title>
<path fill="none" stroke="midnightblue" d="M284.87,-336.08C281.49,-328.77 276.58,-318.18 272.38,-309.1"/>
<polygon fill="midnightblue" stroke="midnightblue" points="275.43,-307.36 268.05,-299.75 269.08,-310.3 275.43,-307.36"/>
</g>
<!-- Node9 -->
<g id="node9" class="node">
<title>Node9</title>
<g id="a_node9"><a xlink:href="libccc_8h.html" target="_top" xlink:title=" ">
<polygon fill="white" stroke="black" points="419,-224.5 419,-243.5 469,-243.5 469,-224.5 419,-224.5"/>
<text text-anchor="middle" x="444" y="-231.5" font-family="Consolas" font-size="10.00">libccc.h</text>
</a>
</g>
</g>
<!-- Node7&#45;&gt;Node9 -->
<g id="edge10" class="edge">
<title>Node7&#45;&gt;Node9</title>
<path fill="none" stroke="midnightblue" d="M292.86,-336.21C299.31,-322.45 313.51,-295.77 333,-280 355.25,-261.99 385.66,-250.34 409.02,-243.42"/>
<polygon fill="midnightblue" stroke="midnightblue" points="410.2,-246.72 418.88,-240.65 408.31,-239.98 410.2,-246.72"/>
</g>
<!-- Node21 -->
<g id="node21" class="node">
<title>Node21</title>
<g id="a_node21"><a xlink:href="ansi_8h.html" target="_top" xlink:title=" ">
<polygon fill="white" stroke="black" points="138,-224.5 138,-243.5 228,-243.5 228,-224.5 138,-224.5"/>
<text text-anchor="middle" x="183" y="-231.5" font-family="Consolas" font-size="10.00">libccc/sys/ansi.h</text>
</a>
</g>
</g>
<!-- Node7&#45;&gt;Node21 -->
<g id="edge34" class="edge">
<title>Node7&#45;&gt;Node21</title>
<path fill="none" stroke="midnightblue" d="M276.72,-336.46C264.89,-327.92 246.79,-314.08 233,-300 218.27,-284.96 203.88,-265.6 194.34,-251.94"/>
<polygon fill="midnightblue" stroke="midnightblue" points="197.11,-249.79 188.57,-243.51 191.33,-253.74 197.11,-249.79"/>
</g>
<!-- Node22 -->
<g id="node22" class="node">
<title>Node22</title>
<g id="a_node22"><a xlink:href="color_8h.html" target="_top" xlink:title=" ">
<polygon fill="white" stroke="black" points="342,-280.5 342,-299.5 416,-299.5 416,-280.5 342,-280.5"/>
<text text-anchor="middle" x="379" y="-287.5" font-family="Consolas" font-size="10.00">libccc/color.h</text>
</a>
</g>
</g>
<!-- Node7&#45;&gt;Node22 -->
<g id="edge36" class="edge">
<title>Node7&#45;&gt;Node22</title>
<path fill="none" stroke="midnightblue" d="M303.46,-336.32C317.5,-327.9 339.05,-314.97 355.54,-305.07"/>
<polygon fill="midnightblue" stroke="midnightblue" points="357.8,-307.8 364.58,-299.65 354.2,-301.8 357.8,-307.8"/>
</g>
<!-- Node9&#45;&gt;Node3 -->
<g id="edge13" class="edge">
<title>Node9&#45;&gt;Node3</title>
<path fill="none" stroke="midnightblue" d="M469.1,-228.94C479.3,-227.33 491.2,-225.51 502,-224 629.75,-206.11 662.33,-206.42 790,-188 791.27,-187.82 792.55,-187.63 793.84,-187.44"/>
<polygon fill="midnightblue" stroke="midnightblue" points="794.52,-190.87 803.88,-185.9 793.47,-183.95 794.52,-190.87"/>
</g>
<!-- Node9&#45;&gt;Node4 -->
<g id="edge11" class="edge">
<title>Node9&#45;&gt;Node4</title>
<path fill="none" stroke="midnightblue" d="M418.64,-231.04C364.1,-226.4 237.85,-213.16 204,-188 174.98,-166.43 168.51,-147.57 175,-112 176.69,-102.76 180.17,-92.95 183.55,-84.85"/>
<polygon fill="midnightblue" stroke="midnightblue" points="186.76,-86.25 187.63,-75.69 180.37,-83.4 186.76,-86.25"/>
</g>
<!-- Node9&#45;&gt;Node6 -->
<g id="edge12" class="edge">
<title>Node9&#45;&gt;Node6</title>
<path fill="none" stroke="midnightblue" d="M469.11,-229.03C479.31,-227.43 491.21,-225.6 502,-224 558.61,-215.61 713.46,-225.14 757,-188 770.31,-176.64 774.92,-156.65 776.43,-141.82"/>
<polygon fill="midnightblue" stroke="midnightblue" points="779.93,-141.93 777.08,-131.73 772.94,-141.48 779.93,-141.93"/>
</g>
<!-- Node10 -->
<g id="node10" class="node">
<title>Node10</title>
<g id="a_node10"><a xlink:href="libccc__naming_8h.html" target="_top" xlink:title=" ">
<polygon fill="white" stroke="black" points="184.5,-112.5 184.5,-131.5 271.5,-131.5 271.5,-112.5 184.5,-112.5"/>
<text text-anchor="middle" x="228" y="-119.5" font-family="Consolas" font-size="10.00">libccc_naming.h</text>
</a>
</g>
</g>
<!-- Node9&#45;&gt;Node10 -->
<g id="edge14" class="edge">
<title>Node9&#45;&gt;Node10</title>
<path fill="none" stroke="midnightblue" d="M419,-231.99C364.73,-229.21 238.92,-219.45 213,-188 201.99,-174.64 208.95,-154.71 216.66,-140.45"/>
<polygon fill="midnightblue" stroke="midnightblue" points="219.8,-142.02 221.89,-131.63 213.78,-138.44 219.8,-142.02"/>
</g>
<!-- Node11 -->
<g id="node11" class="node">
<title>Node11</title>
<g id="a_node11"><a xlink:href="bool_8h.html" target="_top" xlink:title=" ">
<polygon fill="white" stroke="black" points="222.5,-168.5 222.5,-187.5 293.5,-187.5 293.5,-168.5 222.5,-168.5"/>
<text text-anchor="middle" x="258" y="-175.5" font-family="Consolas" font-size="10.00">libccc/bool.h</text>
</a>
</g>
</g>
<!-- Node9&#45;&gt;Node11 -->
<g id="edge16" class="edge">
<title>Node9&#45;&gt;Node11</title>
<path fill="none" stroke="midnightblue" d="M418.95,-227.01C386.17,-218.25 328.99,-201.77 292.26,-190.59"/>
<polygon fill="midnightblue" stroke="midnightblue" points="293.07,-187.18 282.48,-187.59 291.01,-193.87 293.07,-187.18"/>
</g>
<!-- Node12 -->
<g id="node12" class="node">
<title>Node12</title>
<g id="a_node12"><a xlink:href="char_8h.html" target="_top" xlink:title=" ">
<polygon fill="white" stroke="black" points="676.5,-168.5 676.5,-187.5 747.5,-187.5 747.5,-168.5 676.5,-168.5"/>
<text text-anchor="middle" x="712" y="-175.5" font-family="Consolas" font-size="10.00">libccc/char.h</text>
</a>
</g>
</g>
<!-- Node9&#45;&gt;Node12 -->
<g id="edge18" class="edge">
<title>Node9&#45;&gt;Node12</title>
<path fill="none" stroke="midnightblue" d="M469.27,-227.01C514.5,-217.32 609.36,-198.17 666.25,-187.21"/>
<polygon fill="midnightblue" stroke="midnightblue" points="667.25,-190.58 676.41,-185.26 665.93,-183.71 667.25,-190.58"/>
</g>
<!-- Node16 -->
<g id="node16" class="node">
<title>Node16</title>
<g id="a_node16"><a xlink:href="int_8h.html" target="_top" xlink:title=" ">
<polygon fill="white" stroke="black" points="412,-168.5 412,-187.5 476,-187.5 476,-168.5 412,-168.5"/>
<text text-anchor="middle" x="444" y="-175.5" font-family="Consolas" font-size="10.00">libccc/int.h</text>
</a>
</g>
</g>
<!-- Node9&#45;&gt;Node16 -->
<g id="edge23" class="edge">
<title>Node9&#45;&gt;Node16</title>
<path fill="none" stroke="midnightblue" d="M438.83,-224.08C437.32,-216.93 436.89,-206.64 437.54,-197.69"/>
<polygon fill="midnightblue" stroke="midnightblue" points="441.02,-198.13 438.87,-187.75 434.08,-197.2 441.02,-198.13"/>
</g>
<!-- Node17 -->
<g id="node17" class="node">
<title>Node17</title>
<g id="a_node17"><a xlink:href="fixed_8h.html" target="_top" xlink:title=" ">
<polygon fill="white" stroke="black" points="494,-168.5 494,-187.5 568,-187.5 568,-168.5 494,-168.5"/>
<text text-anchor="middle" x="531" y="-175.5" font-family="Consolas" font-size="10.00">libccc/fixed.h</text>
</a>
</g>
</g>
<!-- Node9&#45;&gt;Node17 -->
<g id="edge26" class="edge">
<title>Node9&#45;&gt;Node17</title>
<path fill="none" stroke="midnightblue" d="M452.86,-224.32C464.72,-215.82 485.53,-202.73 502.8,-192.8"/>
<polygon fill="midnightblue" stroke="midnightblue" points="504.94,-195.61 511.95,-187.65 501.51,-189.5 504.94,-195.61"/>
</g>
<!-- Node18 -->
<g id="node18" class="node">
<title>Node18</title>
<g id="a_node18"><a xlink:href="float_8h.html" target="_top" xlink:title=" ">
<polygon fill="white" stroke="black" points="586,-168.5 586,-187.5 658,-187.5 658,-168.5 586,-168.5"/>
<text text-anchor="middle" x="622" y="-175.5" font-family="Consolas" font-size="10.00">libccc/float.h</text>
</a>
</g>
</g>
<!-- Node9&#45;&gt;Node18 -->
<g id="edge28" class="edge">
<title>Node9&#45;&gt;Node18</title>
<path fill="none" stroke="midnightblue" d="M467.12,-224.44C495.43,-215.24 543.64,-200.56 578.84,-190.39"/>
<polygon fill="midnightblue" stroke="midnightblue" points="580.2,-193.64 588.85,-187.52 578.27,-186.91 580.2,-193.64"/>
</g>
<!-- Node19 -->
<g id="node19" class="node">
<title>Node19</title>
<g id="a_node19"><a xlink:href="pointer_8h.html" target="_top" xlink:title=" ">
<polygon fill="white" stroke="black" points="312,-168.5 312,-187.5 394,-187.5 394,-168.5 312,-168.5"/>
<text text-anchor="middle" x="353" y="-175.5" font-family="Consolas" font-size="10.00">libccc/pointer.h</text>
</a>
</g>
</g>
<!-- Node9&#45;&gt;Node19 -->
<g id="edge30" class="edge">
<title>Node9&#45;&gt;Node19</title>
<path fill="none" stroke="midnightblue" d="M424.26,-224.32C408.39,-215.98 386.57,-203.21 371.14,-193.35"/>
<polygon fill="midnightblue" stroke="midnightblue" points="372.75,-190.22 362.47,-187.65 368.91,-196.07 372.75,-190.22"/>
</g>
<!-- Node10&#45;&gt;Node4 -->
<g id="edge15" class="edge">
<title>Node10&#45;&gt;Node4</title>
<path fill="none" stroke="midnightblue" d="M222.06,-112.08C217.02,-104.53 209.66,-93.49 203.49,-84.23"/>
<polygon fill="midnightblue" stroke="midnightblue" points="206.29,-82.13 197.83,-75.75 200.47,-86.01 206.29,-82.13"/>
</g>
<!-- Node11&#45;&gt;Node9 -->
<g id="edge17" class="edge">
<title>Node11&#45;&gt;Node9</title>
<path fill="none" stroke="midnightblue" d="M292.41,-187.52C325.94,-196.66 376.39,-211.26 409.82,-221.44"/>
<polygon fill="midnightblue" stroke="midnightblue" points="409.03,-224.85 419.62,-224.44 411.08,-218.16 409.03,-224.85"/>
</g>
<!-- Node12&#45;&gt;Node9 -->
<g id="edge20" class="edge">
<title>Node12&#45;&gt;Node9</title>
<path fill="none" stroke="midnightblue" d="M676.08,-187.25C624.54,-198.13 530.51,-217.04 479.3,-226.79"/>
<polygon fill="midnightblue" stroke="midnightblue" points="478.53,-223.38 469.36,-228.67 479.83,-230.25 478.53,-223.38"/>
</g>
<!-- Node13 -->
<g id="node13" class="node">
<title>Node13</title>
<g id="a_node13"><a xlink:title=" ">
<polygon fill="white" stroke="#bfbfbf" points="419.5,-112.5 419.5,-131.5 468.5,-131.5 468.5,-112.5 419.5,-112.5"/>
<text text-anchor="middle" x="444" y="-119.5" font-family="Consolas" font-size="10.00">stdint.h</text>
</a>
</g>
</g>
<!-- Node12&#45;&gt;Node13 -->
<g id="edge19" class="edge">
<title>Node12&#45;&gt;Node13</title>
<path fill="none" stroke="midnightblue" d="M676.41,-169.83C624.73,-159.42 529.51,-140.23 478.46,-129.94"/>
<polygon fill="midnightblue" stroke="midnightblue" points="479.07,-126.5 468.57,-127.95 477.68,-133.36 479.07,-126.5"/>
</g>
<!-- Node14 -->
<g id="node14" class="node">
<title>Node14</title>
<g id="a_node14"><a xlink:title=" ">
<polygon fill="white" stroke="#bfbfbf" points="500.5,-112.5 500.5,-131.5 593.5,-131.5 593.5,-112.5 500.5,-112.5"/>
<text text-anchor="middle" x="547" y="-119.5" font-family="Consolas" font-size="10.00">libccc/text/ascii.h</text>
</a>
</g>
</g>
<!-- Node12&#45;&gt;Node14 -->
<g id="edge21" class="edge">
<title>Node12&#45;&gt;Node14</title>
<path fill="none" stroke="midnightblue" d="M685.86,-168.44C657.98,-159.32 613.65,-144.81 582.6,-134.65"/>
<polygon fill="midnightblue" stroke="midnightblue" points="583.62,-131.3 573.02,-131.52 581.44,-137.95 583.62,-131.3"/>
</g>
<!-- Node15 -->
<g id="node15" class="node">
<title>Node15</title>
<g id="a_node15"><a xlink:title=" ">
<polygon fill="white" stroke="#bfbfbf" points="611.5,-112.5 611.5,-131.5 718.5,-131.5 718.5,-112.5 611.5,-112.5"/>
<text text-anchor="middle" x="665" y="-119.5" font-family="Consolas" font-size="10.00">libccc/text/unicode.h</text>
</a>
</g>
</g>
<!-- Node12&#45;&gt;Node15 -->
<g id="edge22" class="edge">
<title>Node12&#45;&gt;Node15</title>
<path fill="none" stroke="midnightblue" d="M704.24,-168.08C697.46,-160.3 687.46,-148.8 679.24,-139.37"/>
<polygon fill="midnightblue" stroke="midnightblue" points="681.82,-137 672.62,-131.75 676.54,-141.59 681.82,-137"/>
</g>
<!-- Node16&#45;&gt;Node9 -->
<g id="edge25" class="edge">
<title>Node16&#45;&gt;Node9</title>
<path fill="none" stroke="midnightblue" d="M449.13,-187.75C450.66,-194.86 451.1,-205.14 450.47,-214.1"/>
<polygon fill="midnightblue" stroke="midnightblue" points="446.99,-213.71 449.17,-224.08 453.93,-214.62 446.99,-213.71"/>
</g>
<!-- Node16&#45;&gt;Node13 -->
<g id="edge24" class="edge">
<title>Node16&#45;&gt;Node13</title>
<path fill="none" stroke="midnightblue" d="M444,-168.08C444,-161.01 444,-150.86 444,-141.99"/>
<polygon fill="midnightblue" stroke="midnightblue" points="447.5,-141.75 444,-131.75 440.5,-141.75 447.5,-141.75"/>
</g>
<!-- Node17&#45;&gt;Node9 -->
<g id="edge27" class="edge">
<title>Node17&#45;&gt;Node9</title>
<path fill="none" stroke="midnightblue" d="M521.92,-187.83C510.02,-196.34 489.36,-209.34 472.19,-219.21"/>
<polygon fill="midnightblue" stroke="midnightblue" points="470.1,-216.37 463.09,-224.32 473.53,-222.47 470.1,-216.37"/>
</g>
<!-- Node18&#45;&gt;Node9 -->
<g id="edge29" class="edge">
<title>Node18&#45;&gt;Node9</title>
<path fill="none" stroke="midnightblue" d="M598.85,-187.57C568.34,-197.48 514.77,-213.75 479.25,-223.89"/>
<polygon fill="midnightblue" stroke="midnightblue" points="477.96,-220.61 469.29,-226.7 479.87,-227.35 477.96,-220.61"/>
</g>
<!-- Node19&#45;&gt;Node9 -->
<g id="edge33" class="edge">
<title>Node19&#45;&gt;Node9</title>
<path fill="none" stroke="midnightblue" d="M372.69,-187.65C388.55,-195.99 410.38,-208.76 425.82,-218.62"/>
<polygon fill="midnightblue" stroke="midnightblue" points="424.21,-221.76 434.49,-224.32 428.06,-215.91 424.21,-221.76"/>
</g>
<!-- Node19&#45;&gt;Node13 -->
<g id="edge32" class="edge">
<title>Node19&#45;&gt;Node13</title>
<path fill="none" stroke="midnightblue" d="M367.62,-168.32C381.95,-159.82 404.01,-146.73 420.75,-136.8"/>
<polygon fill="midnightblue" stroke="midnightblue" points="422.6,-139.77 429.42,-131.65 419.03,-133.75 422.6,-139.77"/>
</g>
<!-- Node20 -->
<g id="node20" class="node">
<title>Node20</title>
<g id="a_node20"><a xlink:title=" ">
<polygon fill="white" stroke="#bfbfbf" points="327,-112.5 327,-131.5 379,-131.5 379,-112.5 327,-112.5"/>
<text text-anchor="middle" x="353" y="-119.5" font-family="Consolas" font-size="10.00">stddef.h</text>
</a>
</g>
</g>
<!-- Node19&#45;&gt;Node20 -->
<g id="edge31" class="edge">
<title>Node19&#45;&gt;Node20</title>
<path fill="none" stroke="midnightblue" d="M353,-168.08C353,-161.01 353,-150.86 353,-141.99"/>
<polygon fill="midnightblue" stroke="midnightblue" points="356.5,-141.75 353,-131.75 349.5,-141.75 356.5,-141.75"/>
</g>
<!-- Node21&#45;&gt;Node4 -->
<g id="edge35" class="edge">
<title>Node21&#45;&gt;Node4</title>
<path fill="none" stroke="midnightblue" d="M171.46,-224.49C161.52,-216.38 147.88,-203.18 142,-188 129.8,-156.5 128.26,-142.86 142,-112 147.57,-99.5 158.52,-89.01 168.75,-81.32"/>
<polygon fill="midnightblue" stroke="midnightblue" points="170.85,-84.12 177.05,-75.53 166.84,-78.38 170.85,-84.12"/>
</g>
<!-- Node22&#45;&gt;Node9 -->
<g id="edge37" class="edge">
<title>Node22&#45;&gt;Node9</title>
<path fill="none" stroke="midnightblue" d="M389.44,-280.32C399.15,-272.26 413.82,-260.08 425.5,-250.37"/>
<polygon fill="midnightblue" stroke="midnightblue" points="427.91,-252.92 433.37,-243.83 423.44,-247.53 427.91,-252.92"/>
</g>
<!-- Node23&#45;&gt;Node9 -->
<g id="edge40" class="edge">
<title>Node23&#45;&gt;Node9</title>
<path fill="none" stroke="midnightblue" d="M412.21,-336.42C415.56,-327.41 420.86,-312.78 425,-300 430.03,-284.44 435.21,-266.61 438.88,-253.56"/>
<polygon fill="midnightblue" stroke="midnightblue" points="442.26,-254.45 441.58,-243.88 435.52,-252.57 442.26,-254.45"/>
</g>
<!-- Node23&#45;&gt;Node23 -->
<g id="edge39" class="edge">
<title>Node23&#45;&gt;Node23</title>
<path fill="none" stroke="midnightblue" d="M436.08,-355.53C454.48,-358.31 472.5,-355.13 472.5,-346 472.5,-338.58 460.61,-335.09 446.28,-335.54"/>
<polygon fill="midnightblue" stroke="midnightblue" points="445.72,-332.07 436.08,-336.47 446.36,-339.04 445.72,-332.07"/>
</g>
</g>
</svg>
