<?xml version="1.0" encoding="UTF-8" standalone="no"?>
<!DOCTYPE svg PUBLIC "-//W3C//DTD SVG 1.1//EN"
 "http://www.w3.org/Graphics/SVG/1.1/DTD/svg11.dtd">
<!-- Generated by graphviz version 2.49.3 (20211023.0002)
 -->
<!-- Title: libccc/sys/logger.h Pages: 1 -->
<svg width="450pt" height="420pt"
 viewBox="0.00 0.00 449.50 420.00" xmlns="http://www.w3.org/2000/svg" xmlns:xlink="http://www.w3.org/1999/xlink">
<g id="graph0" class="graph" transform="scale(1 1) rotate(0) translate(4 416)">
<title>libccc/sys/logger.h</title>
<polygon fill="white" stroke="transparent" points="-4,4 -4,-416 445.5,-416 445.5,4 -4,4"/>
<!-- Node1 -->
<g id="node1" class="node">
<title>Node1</title>
<g id="a_node1"><a xlink:title=" ">
<polygon fill="#bfbfbf" stroke="black" points="69,-392.5 69,-411.5 167,-411.5 167,-392.5 69,-392.5"/>
<text text-anchor="middle" x="118" y="-399.5" font-family="Consolas" font-size="10.00">libccc/sys/logger.h</text>
</a>
</g>
</g>
<!-- Node2 -->
<g id="node2" class="node">
<title>Node2</title>
<g id="a_node2"><a xlink:title=" ">
<polygon fill="white" stroke="#bfbfbf" points="0,-336.5 0,-355.5 52,-355.5 52,-336.5 0,-336.5"/>
<text text-anchor="middle" x="26" y="-343.5" font-family="Consolas" font-size="10.00">stdarg.h</text>
</a>
</g>
</g>
<!-- Node1&#45;&gt;Node2 -->
<g id="edge1" class="edge">
<title>Node1&#45;&gt;Node2</title>
<path fill="none" stroke="midnightblue" d="M103.22,-392.32C88.73,-383.82 66.43,-370.73 49.51,-360.8"/>
<polygon fill="midnightblue" stroke="midnightblue" points="51.14,-357.7 40.74,-355.65 47.6,-363.74 51.14,-357.7"/>
</g>
<!-- Node3 -->
<g id="node3" class="node">
<title>Node3</title>
<g id="a_node3"><a xlink:href="libccc__config_8h.html" target="_top" xlink:title=" ">
<polygon fill="white" stroke="black" points="157,-168.5 157,-187.5 239,-187.5 239,-168.5 157,-168.5"/>
<text text-anchor="middle" x="198" y="-175.5" font-family="Consolas" font-size="10.00">libccc_config.h</text>
</a>
</g>
</g>
<!-- Node1&#45;&gt;Node3 -->
<g id="edge2" class="edge">
<title>Node1&#45;&gt;Node3</title>
<path fill="none" stroke="midnightblue" d="M116.6,-392.15C112.76,-364.92 104.38,-280.82 137,-224 144.62,-210.72 157.92,-200.22 170.15,-192.71"/>
<polygon fill="midnightblue" stroke="midnightblue" points="172.24,-195.55 179.19,-187.56 168.77,-189.47 172.24,-195.55"/>
</g>
<!-- Node4 -->
<g id="node4" class="node">
<title>Node4</title>
<g id="a_node4"><a xlink:href="libccc__define_8h.html" target="_top" xlink:title=" ">
<polygon fill="white" stroke="black" points="162,-56.5 162,-75.5 244,-75.5 244,-56.5 162,-56.5"/>
<text text-anchor="middle" x="203" y="-63.5" font-family="Consolas" font-size="10.00">libccc_define.h</text>
</a>
</g>
</g>
<!-- Node1&#45;&gt;Node4 -->
<g id="edge7" class="edge">
<title>Node1&#45;&gt;Node4</title>
<path fill="none" stroke="midnightblue" d="M112.72,-392.23C102.27,-374.04 80,-330.6 80,-291 80,-291 80,-291 80,-177 80,-128.48 133.84,-96.01 170.27,-79.6"/>
<polygon fill="midnightblue" stroke="midnightblue" points="171.78,-82.76 179.58,-75.58 169.01,-76.33 171.78,-82.76"/>
</g>
<!-- Node7 -->
<g id="node7" class="node">
<title>Node7</title>
<g id="a_node7"><a xlink:href="io_8h.html" target="_top" xlink:title=" ">
<polygon fill="white" stroke="black" points="196,-336.5 196,-355.5 276,-355.5 276,-336.5 196,-336.5"/>
<text text-anchor="middle" x="236" y="-343.5" font-family="Consolas" font-size="10.00">libccc/sys/io.h</text>
</a>
</g>
</g>
<!-- Node1&#45;&gt;Node7 -->
<g id="edge8" class="edge">
<title>Node1&#45;&gt;Node7</title>
<path fill="none" stroke="midnightblue" d="M136.7,-392.44C155.94,-383.64 186.15,-369.81 208.2,-359.72"/>
<polygon fill="midnightblue" stroke="midnightblue" points="209.75,-362.86 217.39,-355.52 206.84,-356.5 209.75,-362.86"/>
</g>
<!-- Node13 -->
<g id="node13" class="node">
<title>Node13</title>
<g id="a_node13"><a xlink:href="time_8h.html" target="_top" xlink:title=" ">
<polygon fill="white" stroke="black" points="332.5,-336.5 332.5,-355.5 423.5,-355.5 423.5,-336.5 332.5,-336.5"/>
<text text-anchor="middle" x="378" y="-343.5" font-family="Consolas" font-size="10.00">libccc/sys/time.h</text>
</a>
</g>
</g>
<!-- Node1&#45;&gt;Node13 -->
<g id="edge20" class="edge">
<title>Node1&#45;&gt;Node13</title>
<path fill="none" stroke="midnightblue" d="M159.2,-392.44C204.65,-383 277.84,-367.8 326.91,-357.61"/>
<polygon fill="midnightblue" stroke="midnightblue" points="327.92,-360.98 336.99,-355.52 326.49,-354.12 327.92,-360.98"/>
</g>
<!-- Node3&#45;&gt;Node4 -->
<g id="edge3" class="edge">
<title>Node3&#45;&gt;Node4</title>
<path fill="none" stroke="midnightblue" d="M194.87,-168.16C190.85,-155.65 184.74,-132.06 188,-112 189.47,-102.96 192.49,-93.28 195.44,-85.22"/>
<polygon fill="midnightblue" stroke="midnightblue" points="198.76,-86.34 199.14,-75.75 192.24,-83.79 198.76,-86.34"/>
</g>
<!-- Node6 -->
<g id="node6" class="node">
<title>Node6</title>
<g id="a_node6"><a xlink:href="libccc__errors_8h.html" target="_top" xlink:title=" ">
<polygon fill="white" stroke="black" points="197,-112.5 197,-131.5 277,-131.5 277,-112.5 197,-112.5"/>
<text text-anchor="middle" x="237" y="-119.5" font-family="Consolas" font-size="10.00">libccc_errors.h</text>
</a>
</g>
</g>
<!-- Node3&#45;&gt;Node6 -->
<g id="edge5" class="edge">
<title>Node3&#45;&gt;Node6</title>
<path fill="none" stroke="midnightblue" d="M204.44,-168.08C209.95,-160.46 218.03,-149.26 224.76,-139.94"/>
<polygon fill="midnightblue" stroke="midnightblue" points="227.66,-141.91 230.68,-131.75 221.99,-137.81 227.66,-141.91"/>
</g>
<!-- Node5 -->
<g id="node5" class="node">
<title>Node5</title>
<g id="a_node5"><a xlink:title=" ">
<polygon fill="white" stroke="#bfbfbf" points="173.5,-0.5 173.5,-19.5 232.5,-19.5 232.5,-0.5 173.5,-0.5"/>
<text text-anchor="middle" x="203" y="-7.5" font-family="Consolas" font-size="10.00">stdalign.h</text>
</a>
</g>
</g>
<!-- Node4&#45;&gt;Node5 -->
<g id="edge4" class="edge">
<title>Node4&#45;&gt;Node5</title>
<path fill="none" stroke="midnightblue" d="M203,-56.08C203,-49.01 203,-38.86 203,-29.99"/>
<polygon fill="midnightblue" stroke="midnightblue" points="206.5,-29.75 203,-19.75 199.5,-29.75 206.5,-29.75"/>
</g>
<!-- Node6&#45;&gt;Node4 -->
<g id="edge6" class="edge">
<title>Node6&#45;&gt;Node4</title>
<path fill="none" stroke="midnightblue" d="M231.39,-112.08C226.63,-104.53 219.68,-93.49 213.85,-84.23"/>
<polygon fill="midnightblue" stroke="midnightblue" points="216.8,-82.35 208.51,-75.75 210.88,-86.08 216.8,-82.35"/>
</g>
<!-- Node8 -->
<g id="node8" class="node">
<title>Node8</title>
<g id="a_node8"><a xlink:title=" ">
<polygon fill="white" stroke="#bfbfbf" points="344,-280.5 344,-299.5 388,-299.5 388,-280.5 344,-280.5"/>
<text text-anchor="middle" x="366" y="-287.5" font-family="Consolas" font-size="10.00">fcntl.h</text>
</a>
</g>
</g>
<!-- Node7&#45;&gt;Node8 -->
<g id="edge9" class="edge">
<title>Node7&#45;&gt;Node8</title>
<path fill="none" stroke="midnightblue" d="M256.6,-336.44C277.99,-327.56 311.68,-313.56 336.02,-303.45"/>
<polygon fill="midnightblue" stroke="midnightblue" points="337.61,-306.58 345.5,-299.52 334.92,-300.12 337.61,-306.58"/>
</g>
<!-- Node9 -->
<g id="node9" class="node">
<title>Node9</title>
<g id="a_node9"><a xlink:href="libccc_8h.html" target="_top" xlink:title=" ">
<polygon fill="white" stroke="black" points="280,-224.5 280,-243.5 330,-243.5 330,-224.5 280,-224.5"/>
<text text-anchor="middle" x="305" y="-231.5" font-family="Consolas" font-size="10.00">libccc.h</text>
</a>
</g>
</g>
<!-- Node7&#45;&gt;Node9 -->
<g id="edge10" class="edge">
<title>Node7&#45;&gt;Node9</title>
<path fill="none" stroke="midnightblue" d="M254.08,-336.44C267.94,-328.88 286.28,-316.49 296,-300 304.22,-286.04 306.09,-267.54 306.12,-253.84"/>
<polygon fill="midnightblue" stroke="midnightblue" points="309.61,-253.57 305.82,-243.68 302.62,-253.78 309.61,-253.57"/>
</g>
<!-- Node11 -->
<g id="node11" class="node">
<title>Node11</title>
<g id="a_node11"><a xlink:href="ansi_8h.html" target="_top" xlink:title=" ">
<polygon fill="white" stroke="black" points="146,-224.5 146,-243.5 236,-243.5 236,-224.5 146,-224.5"/>
<text text-anchor="middle" x="191" y="-231.5" font-family="Consolas" font-size="10.00">libccc/sys/ansi.h</text>
</a>
</g>
</g>
<!-- Node7&#45;&gt;Node11 -->
<g id="edge16" class="edge">
<title>Node7&#45;&gt;Node11</title>
<path fill="none" stroke="midnightblue" d="M216.09,-336.41C201.78,-329.04 183.54,-316.92 175,-300 167.41,-284.97 173.53,-266.14 180.28,-252.62"/>
<polygon fill="midnightblue" stroke="midnightblue" points="183.35,-254.3 185.11,-243.85 177.22,-250.92 183.35,-254.3"/>
</g>
<!-- Node12 -->
<g id="node12" class="node">
<title>Node12</title>
<g id="a_node12"><a xlink:href="image_2color_8h.html" target="_top" xlink:title=" ">
<polygon fill="white" stroke="black" points="184.5,-280.5 184.5,-299.5 287.5,-299.5 287.5,-280.5 184.5,-280.5"/>
<text text-anchor="middle" x="236" y="-287.5" font-family="Consolas" font-size="10.00">libccc/image/color.h</text>
</a>
</g>
</g>
<!-- Node7&#45;&gt;Node12 -->
<g id="edge18" class="edge">
<title>Node7&#45;&gt;Node12</title>
<path fill="none" stroke="midnightblue" d="M236,-336.08C236,-329.01 236,-318.86 236,-309.99"/>
<polygon fill="midnightblue" stroke="midnightblue" points="239.5,-309.75 236,-299.75 232.5,-309.75 239.5,-309.75"/>
</g>
<!-- Node9&#45;&gt;Node3 -->
<g id="edge13" class="edge">
<title>Node9&#45;&gt;Node3</title>
<path fill="none" stroke="midnightblue" d="M287.81,-224.32C270.65,-215.66 244.05,-202.24 224.25,-192.25"/>
<polygon fill="midnightblue" stroke="midnightblue" points="225.65,-189.04 215.15,-187.65 222.5,-195.28 225.65,-189.04"/>
</g>
<!-- Node9&#45;&gt;Node4 -->
<g id="edge11" class="edge">
<title>Node9&#45;&gt;Node4</title>
<path fill="none" stroke="midnightblue" d="M306.06,-224.44C308.23,-203.23 311.02,-147.43 286,-112 275.33,-96.89 257.94,-86.36 241.82,-79.3"/>
<polygon fill="midnightblue" stroke="midnightblue" points="243.13,-76.05 232.54,-75.54 240.5,-82.54 243.13,-76.05"/>
</g>
<!-- Node9&#45;&gt;Node6 -->
<g id="edge12" class="edge">
<title>Node9&#45;&gt;Node6</title>
<path fill="none" stroke="midnightblue" d="M299.66,-224.37C288.49,-206.3 262.45,-164.18 247.7,-140.31"/>
<polygon fill="midnightblue" stroke="midnightblue" points="250.55,-138.26 242.31,-131.59 244.59,-141.94 250.55,-138.26"/>
</g>
<!-- Node10 -->
<g id="node10" class="node">
<title>Node10</title>
<g id="a_node10"><a xlink:href="libccc__naming_8h.html" target="_top" xlink:title=" ">
<polygon fill="white" stroke="black" points="333.5,-112.5 333.5,-131.5 420.5,-131.5 420.5,-112.5 333.5,-112.5"/>
<text text-anchor="middle" x="377" y="-119.5" font-family="Consolas" font-size="10.00">libccc_naming.h</text>
</a>
</g>
</g>
<!-- Node9&#45;&gt;Node10 -->
<g id="edge14" class="edge">
<title>Node9&#45;&gt;Node10</title>
<path fill="none" stroke="midnightblue" d="M310.65,-224.37C322.53,-206.22 350.29,-163.8 365.88,-139.99"/>
<polygon fill="midnightblue" stroke="midnightblue" points="368.83,-141.88 371.38,-131.59 362.97,-138.04 368.83,-141.88"/>
</g>
<!-- Node10&#45;&gt;Node4 -->
<g id="edge15" class="edge">
<title>Node10&#45;&gt;Node4</title>
<path fill="none" stroke="midnightblue" d="M349.43,-112.44C319.9,-103.28 272.88,-88.69 240.12,-78.52"/>
<polygon fill="midnightblue" stroke="midnightblue" points="241.03,-75.14 230.44,-75.52 238.96,-81.82 241.03,-75.14"/>
</g>
<!-- Node11&#45;&gt;Node4 -->
<g id="edge17" class="edge">
<title>Node11&#45;&gt;Node4</title>
<path fill="none" stroke="midnightblue" d="M178.5,-224.3C168.13,-216.25 154.11,-203.24 148,-188 144.69,-179.75 145.81,-176.61 148,-168 156.17,-135.91 176.84,-103 190.38,-83.81"/>
<polygon fill="midnightblue" stroke="midnightblue" points="193.34,-85.7 196.37,-75.56 187.67,-81.59 193.34,-85.7"/>
</g>
<!-- Node12&#45;&gt;Node9 -->
<g id="edge19" class="edge">
<title>Node12&#45;&gt;Node9</title>
<path fill="none" stroke="midnightblue" d="M247.09,-280.32C257.49,-272.18 273.26,-259.84 285.72,-250.09"/>
<polygon fill="midnightblue" stroke="midnightblue" points="287.99,-252.75 293.71,-243.83 283.68,-247.24 287.99,-252.75"/>
</g>
<!-- Node13&#45;&gt;Node9 -->
<g id="edge22" class="edge">
<title>Node13&#45;&gt;Node9</title>
<path fill="none" stroke="midnightblue" d="M384.68,-336.4C393.95,-323.35 408.33,-298.15 397,-280 384.54,-260.04 360.38,-248.69 339.94,-242.38"/>
<polygon fill="midnightblue" stroke="midnightblue" points="340.85,-239 330.27,-239.68 338.96,-245.74 340.85,-239"/>
</g>
<!-- Node13&#45;&gt;Node13 -->
<g id="edge21" class="edge">
<title>Node13&#45;&gt;Node13</title>
<path fill="none" stroke="midnightblue" d="M405.08,-355.53C423.48,-358.31 441.5,-355.13 441.5,-346 441.5,-338.58 429.61,-335.09 415.28,-335.54"/>
<polygon fill="midnightblue" stroke="midnightblue" points="414.72,-332.07 405.08,-336.47 415.36,-339.04 414.72,-332.07"/>
</g>
</g>
</svg>
