<?xml version="1.0" encoding="UTF-8" standalone="no"?>
<!DOCTYPE svg PUBLIC "-//W3C//DTD SVG 1.1//EN"
 "http://www.w3.org/Graphics/SVG/1.1/DTD/svg11.dtd">
<!-- Generated by graphviz version 2.43.0 (0)
 -->
<!-- Title: libccc/sys/logger.h Pages: 1 -->
<svg width="1014pt" height="476pt"
 viewBox="0.00 0.00 1014.00 476.00" xmlns="http://www.w3.org/2000/svg" xmlns:xlink="http://www.w3.org/1999/xlink">
<g id="graph0" class="graph" transform="scale(1 1) rotate(0) translate(4 472)">
<title>libccc/sys/logger.h</title>
<polygon fill="white" stroke="transparent" points="-4,4 -4,-472 1010,-472 1010,4 -4,4"/>
<!-- Node1 -->
<g id="node1" class="node">
<title>Node1</title>
<g id="a_node1"><a xlink:title=" ">
<polygon fill="#bfbfbf" stroke="black" points="661,-448.5 661,-467.5 777,-467.5 777,-448.5 661,-448.5"/>
<text text-anchor="middle" x="719" y="-455.5" font-family="Consolas" font-size="10.00">libccc/sys/logger.h</text>
</a>
</g>
</g>
<!-- Node2 -->
<g id="node2" class="node">
<title>Node2</title>
<g id="a_node2"><a xlink:title=" ">
<polygon fill="white" stroke="#bfbfbf" points="384.5,-224.5 384.5,-243.5 443.5,-243.5 443.5,-224.5 384.5,-224.5"/>
<text text-anchor="middle" x="414" y="-231.5" font-family="Consolas" font-size="10.00">stdarg.h</text>
</a>
</g>
</g>
<!-- Node1&#45;&gt;Node2 -->
<g id="edge1" class="edge">
<title>Node1&#45;&gt;Node2</title>
<path fill="none" stroke="midnightblue" d="M660.99,-452.56C598.82,-446.71 505.36,-434.43 478,-412 428.97,-371.81 417.5,-290.88 414.82,-254.04"/>
<polygon fill="midnightblue" stroke="midnightblue" points="418.29,-253.52 414.22,-243.74 411.3,-253.92 418.29,-253.52"/>
</g>
<!-- Node3 -->
<g id="node3" class="node">
<title>Node3</title>
<g id="a_node3"><a xlink:href="libccc__config_8h.html" target="_top" xlink:title=" ">
<polygon fill="white" stroke="black" points="844.5,-168.5 844.5,-187.5 939.5,-187.5 939.5,-168.5 844.5,-168.5"/>
<text text-anchor="middle" x="892" y="-175.5" font-family="Consolas" font-size="10.00">libccc_config.h</text>
</a>
</g>
</g>
<!-- Node1&#45;&gt;Node3 -->
<g id="edge2" class="edge">
<title>Node1&#45;&gt;Node3</title>
<path fill="none" stroke="midnightblue" d="M777.07,-455.83C850.64,-450.92 968,-430.06 968,-347 968,-347 968,-347 968,-289 968,-258.9 965.83,-248.95 949,-224 940.6,-211.55 927.67,-200.94 916.25,-193.15"/>
<polygon fill="midnightblue" stroke="midnightblue" points="917.83,-190.01 907.53,-187.54 914.04,-195.89 917.83,-190.01"/>
</g>
<!-- Node4 -->
<g id="node4" class="node">
<title>Node4</title>
<g id="a_node4"><a xlink:href="libccc__define_8h.html" target="_top" xlink:title=" ">
<polygon fill="white" stroke="black" points="806.5,-56.5 806.5,-75.5 901.5,-75.5 901.5,-56.5 806.5,-56.5"/>
<text text-anchor="middle" x="854" y="-63.5" font-family="Consolas" font-size="10.00">libccc_define.h</text>
</a>
</g>
</g>
<!-- Node1&#45;&gt;Node4 -->
<g id="edge7" class="edge">
<title>Node1&#45;&gt;Node4</title>
<path fill="none" stroke="midnightblue" d="M777.22,-450.97C838.01,-443.82 928.54,-430.49 958,-412 988.42,-392.91 1006,-382.91 1006,-347 1006,-347 1006,-347 1006,-177 1006,-123.44 943.29,-93.3 898.43,-78.59"/>
<polygon fill="midnightblue" stroke="midnightblue" points="899.46,-75.25 888.87,-75.6 897.37,-81.93 899.46,-75.25"/>
</g>
<!-- Node7 -->
<g id="node7" class="node">
<title>Node7</title>
<g id="a_node7"><a xlink:href="io_8h.html" target="_top" xlink:title=" ">
<polygon fill="white" stroke="black" points="721.5,-336.5 721.5,-355.5 816.5,-355.5 816.5,-336.5 721.5,-336.5"/>
<text text-anchor="middle" x="769" y="-343.5" font-family="Consolas" font-size="10.00">libccc/sys/io.h</text>
</a>
</g>
</g>
<!-- Node1&#45;&gt;Node7 -->
<g id="edge8" class="edge">
<title>Node1&#45;&gt;Node7</title>
<path fill="none" stroke="midnightblue" d="M726.32,-448.22C733.26,-439.51 743.56,-425.54 750,-412 757.1,-397.07 762.13,-378.93 765.23,-365.61"/>
<polygon fill="midnightblue" stroke="midnightblue" points="768.67,-366.25 767.37,-355.73 761.83,-364.76 768.67,-366.25"/>
</g>
<!-- Node22 -->
<g id="node22" class="node">
<title>Node22</title>
<g id="a_node22"><a xlink:href="time_8h.html" target="_top" xlink:title=" ">
<polygon fill="white" stroke="black" points="617,-392.5 617,-411.5 723,-411.5 723,-392.5 617,-392.5"/>
<text text-anchor="middle" x="670" y="-399.5" font-family="Consolas" font-size="10.00">libccc/sys/time.h</text>
</a>
</g>
</g>
<!-- Node1&#45;&gt;Node22 -->
<g id="edge33" class="edge">
<title>Node1&#45;&gt;Node22</title>
<path fill="none" stroke="midnightblue" d="M710.91,-448.08C703.84,-440.3 693.41,-428.8 684.85,-419.37"/>
<polygon fill="midnightblue" stroke="midnightblue" points="687.25,-416.8 677.94,-411.75 682.07,-421.51 687.25,-416.8"/>
</g>
<!-- Node23 -->
<g id="node23" class="node">
<title>Node23</title>
<g id="a_node23"><a xlink:href="error_8h.html" target="_top" xlink:title=" ">
<polygon fill="white" stroke="black" points="487.5,-392.5 487.5,-411.5 598.5,-411.5 598.5,-392.5 487.5,-392.5"/>
<text text-anchor="middle" x="543" y="-399.5" font-family="Consolas" font-size="10.00">libccc/sys/error.h</text>
</a>
</g>
</g>
<!-- Node1&#45;&gt;Node23 -->
<g id="edge36" class="edge">
<title>Node1&#45;&gt;Node23</title>
<path fill="none" stroke="midnightblue" d="M691.11,-448.44C661.25,-439.28 613.69,-424.69 580.54,-414.52"/>
<polygon fill="midnightblue" stroke="midnightblue" points="581.34,-411.1 570.76,-411.52 579.29,-417.8 581.34,-411.1"/>
</g>
<!-- Node3&#45;&gt;Node4 -->
<g id="edge3" class="edge">
<title>Node3&#45;&gt;Node4</title>
<path fill="none" stroke="midnightblue" d="M889.85,-168.49C886.61,-155.97 880.1,-131.94 873,-112 869.76,-102.9 865.64,-92.99 862.07,-84.79"/>
<polygon fill="midnightblue" stroke="midnightblue" points="865.2,-83.22 857.94,-75.51 858.81,-86.07 865.2,-83.22"/>
</g>
<!-- Node6 -->
<g id="node6" class="node">
<title>Node6</title>
<g id="a_node6"><a xlink:href="libccc__errors_8h.html" target="_top" xlink:title=" ">
<polygon fill="white" stroke="black" points="768.5,-112.5 768.5,-131.5 863.5,-131.5 863.5,-112.5 768.5,-112.5"/>
<text text-anchor="middle" x="816" y="-119.5" font-family="Consolas" font-size="10.00">libccc_errors.h</text>
</a>
</g>
</g>
<!-- Node3&#45;&gt;Node6 -->
<g id="edge5" class="edge">
<title>Node3&#45;&gt;Node6</title>
<path fill="none" stroke="midnightblue" d="M879.79,-168.32C868.22,-160.11 850.62,-147.6 836.84,-137.81"/>
<polygon fill="midnightblue" stroke="midnightblue" points="838.61,-134.77 828.43,-131.83 834.56,-140.48 838.61,-134.77"/>
</g>
<!-- Node5 -->
<g id="node5" class="node">
<title>Node5</title>
<g id="a_node5"><a xlink:title=" ">
<polygon fill="white" stroke="#bfbfbf" points="819.5,-0.5 819.5,-19.5 888.5,-19.5 888.5,-0.5 819.5,-0.5"/>
<text text-anchor="middle" x="854" y="-7.5" font-family="Consolas" font-size="10.00">stdalign.h</text>
</a>
</g>
</g>
<!-- Node4&#45;&gt;Node5 -->
<g id="edge4" class="edge">
<title>Node4&#45;&gt;Node5</title>
<path fill="none" stroke="midnightblue" d="M854,-56.08C854,-49.01 854,-38.86 854,-29.99"/>
<polygon fill="midnightblue" stroke="midnightblue" points="857.5,-29.75 854,-19.75 850.5,-29.75 857.5,-29.75"/>
</g>
<!-- Node6&#45;&gt;Node4 -->
<g id="edge6" class="edge">
<title>Node6&#45;&gt;Node4</title>
<path fill="none" stroke="midnightblue" d="M822.27,-112.08C827.64,-104.46 835.52,-93.26 842.08,-83.94"/>
<polygon fill="midnightblue" stroke="midnightblue" points="844.95,-85.94 847.84,-75.75 839.22,-81.91 844.95,-85.94"/>
</g>
<!-- Node8 -->
<g id="node8" class="node">
<title>Node8</title>
<g id="a_node8"><a xlink:title=" ">
<polygon fill="white" stroke="#bfbfbf" points="848.5,-280.5 848.5,-299.5 901.5,-299.5 901.5,-280.5 848.5,-280.5"/>
<text text-anchor="middle" x="875" y="-287.5" font-family="Consolas" font-size="10.00">fcntl.h</text>
</a>
</g>
</g>
<!-- Node7&#45;&gt;Node8 -->
<g id="edge9" class="edge">
<title>Node7&#45;&gt;Node8</title>
<path fill="none" stroke="midnightblue" d="M786.03,-336.32C803.03,-327.66 829.38,-314.24 848.99,-304.25"/>
<polygon fill="midnightblue" stroke="midnightblue" points="850.69,-307.31 858.01,-299.65 847.51,-301.08 850.69,-307.31"/>
</g>
<!-- Node9 -->
<g id="node9" class="node">
<title>Node9</title>
<g id="a_node9"><a xlink:href="libccc_8h.html" target="_top" xlink:title=" ">
<polygon fill="white" stroke="black" points="604.5,-224.5 604.5,-243.5 663.5,-243.5 663.5,-224.5 604.5,-224.5"/>
<text text-anchor="middle" x="634" y="-231.5" font-family="Consolas" font-size="10.00">libccc.h</text>
</a>
</g>
</g>
<!-- Node7&#45;&gt;Node9 -->
<g id="edge10" class="edge">
<title>Node7&#45;&gt;Node9</title>
<path fill="none" stroke="midnightblue" d="M753.61,-336.4C738.99,-327.93 716.66,-314.23 699,-300 680.27,-284.91 661.07,-265.05 648.44,-251.28"/>
<polygon fill="midnightblue" stroke="midnightblue" points="650.79,-248.66 641.48,-243.58 645.59,-253.35 650.79,-248.66"/>
</g>
<!-- Node20 -->
<g id="node20" class="node">
<title>Node20</title>
<g id="a_node20"><a xlink:href="ansi_8h.html" target="_top" xlink:title=" ">
<polygon fill="white" stroke="black" points="834,-224.5 834,-243.5 940,-243.5 940,-224.5 834,-224.5"/>
<text text-anchor="middle" x="887" y="-231.5" font-family="Consolas" font-size="10.00">libccc/sys/ansi.h</text>
</a>
</g>
</g>
<!-- Node7&#45;&gt;Node20 -->
<g id="edge29" class="edge">
<title>Node7&#45;&gt;Node20</title>
<path fill="none" stroke="midnightblue" d="M816.53,-343.69C848.86,-340.01 889.54,-329.32 911,-300 921.61,-285.51 911.68,-265.81 901.56,-251.91"/>
<polygon fill="midnightblue" stroke="midnightblue" points="904.04,-249.4 895.1,-243.73 898.55,-253.74 904.04,-249.4"/>
</g>
<!-- Node21 -->
<g id="node21" class="node">
<title>Node21</title>
<g id="a_node21"><a xlink:href="color_8h.html" target="_top" xlink:title=" ">
<polygon fill="white" stroke="black" points="708,-280.5 708,-299.5 830,-299.5 830,-280.5 708,-280.5"/>
<text text-anchor="middle" x="769" y="-287.5" font-family="Consolas" font-size="10.00">libccc/image/color.h</text>
</a>
</g>
</g>
<!-- Node7&#45;&gt;Node21 -->
<g id="edge31" class="edge">
<title>Node7&#45;&gt;Node21</title>
<path fill="none" stroke="midnightblue" d="M769,-336.08C769,-329.01 769,-318.86 769,-309.99"/>
<polygon fill="midnightblue" stroke="midnightblue" points="772.5,-309.75 769,-299.75 765.5,-309.75 772.5,-309.75"/>
</g>
<!-- Node9&#45;&gt;Node3 -->
<g id="edge13" class="edge">
<title>Node9&#45;&gt;Node3</title>
<path fill="none" stroke="midnightblue" d="M663.6,-226.81C706.99,-217.72 788.47,-200.67 841.46,-189.58"/>
<polygon fill="midnightblue" stroke="midnightblue" points="842.27,-192.99 851.34,-187.51 840.83,-186.13 842.27,-192.99"/>
</g>
<!-- Node9&#45;&gt;Node4 -->
<g id="edge11" class="edge">
<title>Node9&#45;&gt;Node4</title>
<path fill="none" stroke="midnightblue" d="M639.52,-224.24C653.93,-202.1 694.99,-143.39 744,-112 766.15,-97.81 793.52,-86.6 815.41,-78.91"/>
<polygon fill="midnightblue" stroke="midnightblue" points="816.71,-82.17 825.05,-75.63 814.45,-75.54 816.71,-82.17"/>
</g>
<!-- Node9&#45;&gt;Node6 -->
<g id="edge12" class="edge">
<title>Node9&#45;&gt;Node6</title>
<path fill="none" stroke="midnightblue" d="M663.51,-233.09C699.81,-231.57 761.03,-223.44 797,-188 809.16,-176.02 813.64,-156.72 815.24,-142.26"/>
<polygon fill="midnightblue" stroke="midnightblue" points="818.75,-142.16 815.99,-131.93 811.77,-141.65 818.75,-142.16"/>
</g>
<!-- Node10 -->
<g id="node10" class="node">
<title>Node10</title>
<g id="a_node10"><a xlink:href="libccc__naming_8h.html" target="_top" xlink:title=" ">
<polygon fill="white" stroke="black" points="692.5,-168.5 692.5,-187.5 787.5,-187.5 787.5,-168.5 692.5,-168.5"/>
<text text-anchor="middle" x="740" y="-175.5" font-family="Consolas" font-size="10.00">libccc_naming.h</text>
</a>
</g>
</g>
<!-- Node9&#45;&gt;Node10 -->
<g id="edge14" class="edge">
<title>Node9&#45;&gt;Node10</title>
<path fill="none" stroke="midnightblue" d="M651.03,-224.32C668.03,-215.66 694.38,-202.24 713.99,-192.25"/>
<polygon fill="midnightblue" stroke="midnightblue" points="715.69,-195.31 723.01,-187.65 712.51,-189.08 715.69,-195.31"/>
</g>
<!-- Node11 -->
<g id="node11" class="node">
<title>Node11</title>
<g id="a_node11"><a xlink:href="math_8h.html" target="_top" xlink:title=" ">
<polygon fill="white" stroke="black" points="343,-168.5 343,-187.5 391,-187.5 391,-168.5 343,-168.5"/>
<text text-anchor="middle" x="367" y="-175.5" font-family="Consolas" font-size="10.00">math.h</text>
</a>
</g>
</g>
<!-- Node9&#45;&gt;Node11 -->
<g id="edge16" class="edge">
<title>Node9&#45;&gt;Node11</title>
<path fill="none" stroke="midnightblue" d="M604.41,-227.01C554.51,-216.92 453.93,-196.58 401.13,-185.9"/>
<polygon fill="midnightblue" stroke="midnightblue" points="401.73,-182.45 391.24,-183.9 400.35,-189.32 401.73,-182.45"/>
</g>
<!-- Node10&#45;&gt;Node4 -->
<g id="edge15" class="edge">
<title>Node10&#45;&gt;Node4</title>
<path fill="none" stroke="midnightblue" d="M740.49,-168.37C741.69,-154.84 745.82,-128.46 760,-112 773.26,-96.62 792.95,-86.08 810.9,-79.09"/>
<polygon fill="midnightblue" stroke="midnightblue" points="812.42,-82.26 820.63,-75.56 810.04,-75.67 812.42,-82.26"/>
</g>
<!-- Node12 -->
<g id="node12" class="node">
<title>Node12</title>
<g id="a_node12"><a xlink:href="constants_8h.html" target="_top" xlink:title=" ">
<polygon fill="white" stroke="black" points="298.5,-112.5 298.5,-131.5 435.5,-131.5 435.5,-112.5 298.5,-112.5"/>
<text text-anchor="middle" x="367" y="-119.5" font-family="Consolas" font-size="10.00">libccc/math/constants.h</text>
</a>
</g>
</g>
<!-- Node11&#45;&gt;Node12 -->
<g id="edge17" class="edge">
<title>Node11&#45;&gt;Node12</title>
<path fill="none" stroke="midnightblue" d="M367,-168.08C367,-161.01 367,-150.86 367,-141.99"/>
<polygon fill="midnightblue" stroke="midnightblue" points="370.5,-141.75 367,-131.75 363.5,-141.75 370.5,-141.75"/>
</g>
<!-- Node14 -->
<g id="node14" class="node">
<title>Node14</title>
<g id="a_node14"><a xlink:href="math_2int_8h.html" target="_top" xlink:title=" ">
<polygon fill="white" stroke="black" points="454,-112.5 454,-131.5 560,-131.5 560,-112.5 454,-112.5"/>
<text text-anchor="middle" x="507" y="-119.5" font-family="Consolas" font-size="10.00">libccc/math/int.h</text>
</a>
</g>
</g>
<!-- Node11&#45;&gt;Node14 -->
<g id="edge20" class="edge">
<title>Node11&#45;&gt;Node14</title>
<path fill="none" stroke="midnightblue" d="M389.18,-168.44C412.43,-159.48 449.15,-145.31 475.42,-135.18"/>
<polygon fill="midnightblue" stroke="midnightblue" points="476.85,-138.38 484.92,-131.52 474.33,-131.85 476.85,-138.38"/>
</g>
<!-- Node17 -->
<g id="node17" class="node">
<title>Node17</title>
<g id="a_node17"><a xlink:href="math_2fixed_8h.html" target="_top" xlink:title=" ">
<polygon fill="white" stroke="black" points="30,-112.5 30,-131.5 146,-131.5 146,-112.5 30,-112.5"/>
<text text-anchor="middle" x="88" y="-119.5" font-family="Consolas" font-size="10.00">libccc/math/fixed.h</text>
</a>
</g>
</g>
<!-- Node11&#45;&gt;Node17 -->
<g id="edge24" class="edge">
<title>Node11&#45;&gt;Node17</title>
<path fill="none" stroke="midnightblue" d="M342.73,-172.3C298.3,-163.7 202.91,-145.24 142.3,-133.51"/>
<polygon fill="midnightblue" stroke="midnightblue" points="142.62,-130.01 132.14,-131.54 141.29,-136.88 142.62,-130.01"/>
</g>
<!-- Node19 -->
<g id="node19" class="node">
<title>Node19</title>
<g id="a_node19"><a xlink:href="math_2float_8h.html" target="_top" xlink:title=" ">
<polygon fill="white" stroke="black" points="164,-112.5 164,-131.5 280,-131.5 280,-112.5 164,-112.5"/>
<text text-anchor="middle" x="222" y="-119.5" font-family="Consolas" font-size="10.00">libccc/math/float.h</text>
</a>
</g>
</g>
<!-- Node11&#45;&gt;Node19 -->
<g id="edge27" class="edge">
<title>Node11&#45;&gt;Node19</title>
<path fill="none" stroke="midnightblue" d="M344.02,-168.44C319.84,-159.44 281.58,-145.19 254.35,-135.05"/>
<polygon fill="midnightblue" stroke="midnightblue" points="255.46,-131.73 244.87,-131.52 253.02,-138.29 255.46,-131.73"/>
</g>
<!-- Node13 -->
<g id="node13" class="node">
<title>Node13</title>
<g id="a_node13"><a xlink:href="float_8h.html" target="_top" xlink:title=" ">
<polygon fill="white" stroke="black" points="322,-56.5 322,-75.5 412,-75.5 412,-56.5 322,-56.5"/>
<text text-anchor="middle" x="367" y="-63.5" font-family="Consolas" font-size="10.00">libccc/float.h</text>
</a>
</g>
</g>
<!-- Node12&#45;&gt;Node13 -->
<g id="edge18" class="edge">
<title>Node12&#45;&gt;Node13</title>
<path fill="none" stroke="midnightblue" d="M367,-112.08C367,-105.01 367,-94.86 367,-85.99"/>
<polygon fill="midnightblue" stroke="midnightblue" points="370.5,-85.75 367,-75.75 363.5,-85.75 370.5,-85.75"/>
</g>
<!-- Node13&#45;&gt;Node9 -->
<g id="edge19" class="edge">
<title>Node13&#45;&gt;Node9</title>
<path fill="none" stroke="midnightblue" d="M412,-66.61C456.15,-68.44 523.33,-77.39 569,-112 586.85,-125.53 613.5,-184.36 626.43,-214.72"/>
<polygon fill="midnightblue" stroke="midnightblue" points="623.29,-216.28 630.39,-224.15 629.74,-213.57 623.29,-216.28"/>
</g>
<!-- Node15 -->
<g id="node15" class="node">
<title>Node15</title>
<g id="a_node15"><a xlink:href="int_8h.html" target="_top" xlink:title=" ">
<polygon fill="white" stroke="black" points="527,-56.5 527,-75.5 607,-75.5 607,-56.5 527,-56.5"/>
<text text-anchor="middle" x="567" y="-63.5" font-family="Consolas" font-size="10.00">libccc/int.h</text>
</a>
</g>
</g>
<!-- Node14&#45;&gt;Node15 -->
<g id="edge21" class="edge">
<title>Node14&#45;&gt;Node15</title>
<path fill="none" stroke="midnightblue" d="M516.64,-112.32C525.51,-104.34 538.87,-92.31 549.61,-82.65"/>
<polygon fill="midnightblue" stroke="midnightblue" points="552.09,-85.13 557.18,-75.83 547.41,-79.92 552.09,-85.13"/>
</g>
<!-- Node15&#45;&gt;Node9 -->
<g id="edge23" class="edge">
<title>Node15&#45;&gt;Node9</title>
<path fill="none" stroke="midnightblue" d="M575.41,-75.57C583.35,-84.13 595.06,-97.99 602,-112 618.82,-145.96 627.57,-189.8 631.44,-214.3"/>
<polygon fill="midnightblue" stroke="midnightblue" points="628.01,-214.99 632.93,-224.37 634.93,-213.97 628.01,-214.99"/>
</g>
<!-- Node16 -->
<g id="node16" class="node">
<title>Node16</title>
<g id="a_node16"><a xlink:title=" ">
<polygon fill="white" stroke="#bfbfbf" points="537.5,-0.5 537.5,-19.5 596.5,-19.5 596.5,-0.5 537.5,-0.5"/>
<text text-anchor="middle" x="567" y="-7.5" font-family="Consolas" font-size="10.00">stdint.h</text>
</a>
</g>
</g>
<!-- Node15&#45;&gt;Node16 -->
<g id="edge22" class="edge">
<title>Node15&#45;&gt;Node16</title>
<path fill="none" stroke="midnightblue" d="M567,-56.08C567,-49.01 567,-38.86 567,-29.99"/>
<polygon fill="midnightblue" stroke="midnightblue" points="570.5,-29.75 567,-19.75 563.5,-29.75 570.5,-29.75"/>
</g>
<!-- Node18 -->
<g id="node18" class="node">
<title>Node18</title>
<g id="a_node18"><a xlink:href="fixed_8h.html" target="_top" xlink:title=" ">
<polygon fill="white" stroke="black" points="0,-56.5 0,-75.5 90,-75.5 90,-56.5 0,-56.5"/>
<text text-anchor="middle" x="45" y="-63.5" font-family="Consolas" font-size="10.00">libccc/fixed.h</text>
</a>
</g>
</g>
<!-- Node17&#45;&gt;Node18 -->
<g id="edge25" class="edge">
<title>Node17&#45;&gt;Node18</title>
<path fill="none" stroke="midnightblue" d="M80.9,-112.08C74.76,-104.38 65.73,-93.03 58.26,-83.65"/>
<polygon fill="midnightblue" stroke="midnightblue" points="60.94,-81.39 51.97,-75.75 55.46,-85.75 60.94,-81.39"/>
</g>
<!-- Node18&#45;&gt;Node9 -->
<g id="edge26" class="edge">
<title>Node18&#45;&gt;Node9</title>
<path fill="none" stroke="midnightblue" d="M37,-75.5C25.41,-88.87 6.79,-115.03 21,-132 39.64,-154.27 460.96,-210.58 594.07,-227.87"/>
<polygon fill="midnightblue" stroke="midnightblue" points="593.87,-231.37 604.24,-229.19 594.77,-224.43 593.87,-231.37"/>
</g>
<!-- Node19&#45;&gt;Node13 -->
<g id="edge28" class="edge">
<title>Node19&#45;&gt;Node13</title>
<path fill="none" stroke="midnightblue" d="M244.98,-112.44C269.16,-103.44 307.42,-89.19 334.65,-79.05"/>
<polygon fill="midnightblue" stroke="midnightblue" points="335.98,-82.29 344.13,-75.52 333.54,-75.73 335.98,-82.29"/>
</g>
<!-- Node20&#45;&gt;Node4 -->
<g id="edge30" class="edge">
<title>Node20&#45;&gt;Node4</title>
<path fill="none" stroke="midnightblue" d="M907.22,-224.49C921.77,-217.17 940.3,-205.06 949,-188 953.04,-180.08 952.28,-176.26 949,-168 934.21,-130.69 898.4,-99.15 875.21,-81.68"/>
<polygon fill="midnightblue" stroke="midnightblue" points="877.16,-78.76 867.02,-75.69 873.03,-84.41 877.16,-78.76"/>
</g>
<!-- Node21&#45;&gt;Node9 -->
<g id="edge32" class="edge">
<title>Node21&#45;&gt;Node9</title>
<path fill="none" stroke="midnightblue" d="M747.61,-280.44C725.29,-271.52 690.1,-257.44 664.79,-247.32"/>
<polygon fill="midnightblue" stroke="midnightblue" points="665.88,-243.98 655.29,-243.52 663.28,-250.48 665.88,-243.98"/>
</g>
<!-- Node22&#45;&gt;Node9 -->
<g id="edge35" class="edge">
<title>Node22&#45;&gt;Node9</title>
<path fill="none" stroke="midnightblue" d="M668.06,-392.08C662.4,-365.95 645.76,-289.21 638.03,-253.58"/>
<polygon fill="midnightblue" stroke="midnightblue" points="641.4,-252.6 635.86,-243.57 634.56,-254.08 641.4,-252.6"/>
</g>
<!-- Node22&#45;&gt;Node22 -->
<g id="edge34" class="edge">
<title>Node22&#45;&gt;Node22</title>
<path fill="none" stroke="midnightblue" d="M700.28,-411.53C720.86,-414.31 741,-411.13 741,-402 741,-394.37 726.92,-390.89 710.29,-391.59"/>
<polygon fill="midnightblue" stroke="midnightblue" points="709.93,-388.1 700.28,-392.47 710.55,-395.08 709.93,-388.1"/>
</g>
<!-- Node23&#45;&gt;Node7 -->
<g id="edge45" class="edge">
<title>Node23&#45;&gt;Node7</title>
<path fill="none" stroke="midnightblue" d="M578.81,-392.44C617.99,-383.08 680.88,-368.06 723.52,-357.87"/>
<polygon fill="midnightblue" stroke="midnightblue" points="724.44,-361.24 733.36,-355.52 722.82,-354.44 724.44,-361.24"/>
</g>
<!-- Node23&#45;&gt;Node9 -->
<g id="edge37" class="edge">
<title>Node23&#45;&gt;Node9</title>
<path fill="none" stroke="midnightblue" d="M552.49,-392.46C561.53,-383.94 575.05,-370.1 584,-356 605.33,-322.38 620.88,-278.12 628.57,-253.52"/>
<polygon fill="midnightblue" stroke="midnightblue" points="632,-254.29 631.55,-243.71 625.3,-252.26 632,-254.29"/>
</g>
<!-- Node24 -->
<g id="node24" class="node">
<title>Node24</title>
<g id="a_node24"><a xlink:href="string_8h.html" target="_top" xlink:title=" ">
<polygon fill="white" stroke="black" points="480.5,-336.5 480.5,-355.5 575.5,-355.5 575.5,-336.5 480.5,-336.5"/>
<text text-anchor="middle" x="528" y="-343.5" font-family="Consolas" font-size="10.00">libccc/string.h</text>
</a>
</g>
</g>
<!-- Node23&#45;&gt;Node24 -->
<g id="edge38" class="edge">
<title>Node23&#45;&gt;Node24</title>
<path fill="none" stroke="midnightblue" d="M540.52,-392.08C538.51,-384.85 535.61,-374.41 533.11,-365.4"/>
<polygon fill="midnightblue" stroke="midnightblue" points="536.48,-364.45 530.43,-355.75 529.74,-366.32 536.48,-364.45"/>
</g>
<!-- Node25 -->
<g id="node25" class="node">
<title>Node25</title>
<g id="a_node25"><a xlink:href="format_8h.html" target="_top" xlink:title=" ">
<polygon fill="white" stroke="black" points="442.5,-280.5 442.5,-299.5 537.5,-299.5 537.5,-280.5 442.5,-280.5"/>
<text text-anchor="middle" x="490" y="-287.5" font-family="Consolas" font-size="10.00">libccc/format.h</text>
</a>
</g>
</g>
<!-- Node23&#45;&gt;Node25 -->
<g id="edge44" class="edge">
<title>Node23&#45;&gt;Node25</title>
<path fill="none" stroke="midnightblue" d="M517.5,-392.47C501.01,-385.48 480.86,-373.79 471,-356 462.74,-341.11 469.91,-322.26 477.7,-308.7"/>
<polygon fill="midnightblue" stroke="midnightblue" points="480.88,-310.21 483.26,-299.89 474.96,-306.48 480.88,-310.21"/>
</g>
<!-- Node24&#45;&gt;Node9 -->
<g id="edge39" class="edge">
<title>Node24&#45;&gt;Node9</title>
<path fill="none" stroke="midnightblue" d="M536.39,-336.14C548.27,-323.59 570.72,-299.97 590,-280 599.41,-270.25 610.03,-259.39 618.48,-250.77"/>
<polygon fill="midnightblue" stroke="midnightblue" points="621.02,-253.18 625.53,-243.6 616.03,-248.28 621.02,-253.18"/>
</g>
<!-- Node24&#45;&gt;Node25 -->
<g id="edge40" class="edge">
<title>Node24&#45;&gt;Node25</title>
<path fill="none" stroke="midnightblue" d="M521.73,-336.08C516.36,-328.46 508.48,-317.26 501.92,-307.94"/>
<polygon fill="midnightblue" stroke="midnightblue" points="504.78,-305.91 496.16,-299.75 499.05,-309.94 504.78,-305.91"/>
</g>
<!-- Node25&#45;&gt;Node2 -->
<g id="edge41" class="edge">
<title>Node25&#45;&gt;Node2</title>
<path fill="none" stroke="midnightblue" d="M477.79,-280.32C466.22,-272.11 448.62,-259.6 434.84,-249.81"/>
<polygon fill="midnightblue" stroke="midnightblue" points="436.61,-246.77 426.43,-243.83 432.56,-252.48 436.61,-246.77"/>
</g>
<!-- Node25&#45;&gt;Node9 -->
<g id="edge43" class="edge">
<title>Node25&#45;&gt;Node9</title>
<path fill="none" stroke="midnightblue" d="M512.82,-280.44C536.83,-271.44 574.83,-257.19 601.87,-247.05"/>
<polygon fill="midnightblue" stroke="midnightblue" points="603.16,-250.3 611.29,-243.52 600.7,-243.75 603.16,-250.3"/>
</g>
<!-- Node26 -->
<g id="node26" class="node">
<title>Node26</title>
<g id="a_node26"><a xlink:title=" ">
<polygon fill="white" stroke="#bfbfbf" points="461.5,-224.5 461.5,-243.5 530.5,-243.5 530.5,-224.5 461.5,-224.5"/>
<text text-anchor="middle" x="496" y="-231.5" font-family="Consolas" font-size="10.00">inttypes.h</text>
</a>
</g>
</g>
<!-- Node25&#45;&gt;Node26 -->
<g id="edge42" class="edge">
<title>Node25&#45;&gt;Node26</title>
<path fill="none" stroke="midnightblue" d="M490.99,-280.08C491.79,-272.93 492.93,-262.64 493.92,-253.69"/>
<polygon fill="midnightblue" stroke="midnightblue" points="497.4,-254.08 495.03,-243.75 490.44,-253.3 497.4,-254.08"/>
</g>
</g>
</svg>
