<?xml version="1.0" encoding="UTF-8" standalone="no"?>
<!DOCTYPE svg PUBLIC "-//W3C//DTD SVG 1.1//EN"
 "http://www.w3.org/Graphics/SVG/1.1/DTD/svg11.dtd">
<!-- Generated by graphviz version 2.49.3 (20211023.0002)
 -->
<!-- Title: hdr/libccc/math/fixed.h Pages: 1 -->
<!--zoomable 364 -->
<svg id="main" version="1.1" xmlns="http://www.w3.org/2000/svg" xmlns:xlink="http://www.w3.org/1999/xlink" xml:space="preserve" onload="init(evt)">
<style type="text/css"><![CDATA[
.edge:hover path { stroke: red; }
.edge:hover polygon { stroke: red; fill: red; }
]]></style>
<script type="text/javascript"><![CDATA[
var edges = document.getElementsByTagName('g');
if (edges && edges.length) {
  for (var i=0;i<edges.length;i++) {
    if (edges[i].id.substr(0,4)=='edge') {
      edges[i].setAttribute('class','edge');
    }
  }
}
]]></script>
        <defs>
                <circle id="rim" cx="0" cy="0" r="7"/>
                <circle id="rim2" cx="0" cy="0" r="3.5"/>
                <g id="zoomPlus">
                        <use xlink:href="#rim" fill="#404040">
                                <set attributeName="fill" to="#808080" begin="zoomplus.mouseover" end="zoomplus.mouseout"/>
                        </use>
                        <path d="M-4,0h8M0,-4v8" fill="none" stroke="white" stroke-width="1.5" pointer-events="none"/>
                </g>
                <g id="zoomMin">
                        <use xlink:href="#rim" fill="#404040">
                                <set attributeName="fill" to="#808080" begin="zoomminus.mouseover" end="zoomminus.mouseout"/>
                        </use>
                        <path d="M-4,0h8" fill="none" stroke="white" stroke-width="1.5" pointer-events="none"/>
                </g>
                <g id="dirArrow">
                        <path fill="none" stroke="white" stroke-width="1.5" d="M0,-3.0v7 M-2.5,-0.5L0,-3.0L2.5,-0.5"/>
                </g>
               <g id="resetDef">
                       <use xlink:href="#rim2" fill="#404040">
                               <set attributeName="fill" to="#808080" begin="reset.mouseover" end="reset.mouseout"/>
                       </use>
               </g>
        </defs>

<script type="text/javascript">
var viewWidth = 661;
var viewHeight = 364;
var sectionId = 'dynsection-0';
</script>
<script xlink:href="svgpan.js"/>
<svg id="graph" class="graph">
<g id="viewport">
<title>hdr/libccc/math/fixed.h</title>
<polygon fill="white" stroke="transparent" points="-4,4 -4,-360 657.35,-360 657.35,4 -4,4"/>
<!-- Node1 -->
<g id="node1" class="node">
<title>Node1</title>
<g id="a_node1"><a xlink:title=" ">
<polygon fill="#bfbfbf" stroke="black" points="287.35,-336.5 287.35,-355.5 403.35,-355.5 403.35,-336.5 287.35,-336.5"/>
<text text-anchor="middle" x="345.35" y="-343.5" font-family="Consolas" font-size="10.00">hdr/libccc/math/fixed.h</text>
</a>
</g>
</g>
<!-- Node2 -->
<g id="node2" class="node">
<title>Node2</title>
<g id="a_node2"><a xlink:href="fixed_8h.html" target="_top" xlink:title=" ">
<polygon fill="white" stroke="black" points="308.35,-280.5 308.35,-299.5 382.35,-299.5 382.35,-280.5 308.35,-280.5"/>
<text text-anchor="middle" x="345.35" y="-287.5" font-family="Consolas" font-size="10.00">libccc/fixed.h</text>
</a>
</g>
</g>
<!-- Node1&#45;&gt;Node2 -->
<g id="edge1" class="edge">
<title>Node1&#45;&gt;Node2</title>
<path fill="none" stroke="midnightblue" d="M345.35,-336.08C345.35,-329.01 345.35,-318.86 345.35,-309.99"/>
<polygon fill="midnightblue" stroke="midnightblue" points="348.85,-309.75 345.35,-299.75 341.85,-309.75 348.85,-309.75"/>
</g>
<!-- Node3 -->
<g id="node3" class="node">
<title>Node3</title>
<g id="a_node3"><a xlink:href="libccc_8h.html" target="_top" xlink:title=" ">
<polygon fill="white" stroke="black" points="320.35,-224.5 320.35,-243.5 370.35,-243.5 370.35,-224.5 320.35,-224.5"/>
<text text-anchor="middle" x="345.35" y="-231.5" font-family="Consolas" font-size="10.00">libccc.h</text>
</a>
</g>
</g>
<!-- Node2&#45;&gt;Node3 -->
<g id="edge2" class="edge">
<title>Node2&#45;&gt;Node3</title>
<path fill="none" stroke="midnightblue" d="M340.19,-280.08C338.68,-272.93 338.25,-262.64 338.89,-253.69"/>
<polygon fill="midnightblue" stroke="midnightblue" points="342.37,-254.13 340.22,-243.75 335.43,-253.2 342.37,-254.13"/>
</g>
<!-- Node3&#45;&gt;Node2 -->
<g id="edge22" class="edge">
<title>Node3&#45;&gt;Node2</title>
<path fill="none" stroke="midnightblue" d="M350.48,-243.75C352.01,-250.86 352.46,-261.14 351.82,-270.1"/>
<polygon fill="midnightblue" stroke="midnightblue" points="348.34,-269.71 350.52,-280.08 355.29,-270.62 348.34,-269.71"/>
</g>
<!-- Node4 -->
<g id="node4" class="node">
<title>Node4</title>
<g id="a_node4"><a xlink:href="libccc__define_8h.html" target="_top" xlink:title=" ">
<polygon fill="white" stroke="black" points="48.35,-56.5 48.35,-75.5 130.35,-75.5 130.35,-56.5 48.35,-56.5"/>
<text text-anchor="middle" x="89.35" y="-63.5" font-family="Consolas" font-size="10.00">libccc_define.h</text>
</a>
</g>
</g>
<!-- Node3&#45;&gt;Node4 -->
<g id="edge3" class="edge">
<title>Node3&#45;&gt;Node4</title>
<path fill="none" stroke="midnightblue" d="M320.16,-231.21C258.7,-226.51 102.81,-212.45 57.35,-188 21.53,-168.73 -14.46,-146.95 6.35,-112 15.45,-96.72 31.74,-86.31 47.5,-79.39"/>
<polygon fill="midnightblue" stroke="midnightblue" points="49.18,-82.48 57.17,-75.51 46.58,-75.98 49.18,-82.48"/>
</g>
<!-- Node6 -->
<g id="node6" class="node">
<title>Node6</title>
<g id="a_node6"><a xlink:href="libccc__errors_8h.html" target="_top" xlink:title=" ">
<polygon fill="white" stroke="black" points="15.35,-112.5 15.35,-131.5 95.35,-131.5 95.35,-112.5 15.35,-112.5"/>
<text text-anchor="middle" x="55.35" y="-119.5" font-family="Consolas" font-size="10.00">libccc_errors.h</text>
</a>
</g>
</g>
<!-- Node3&#45;&gt;Node6 -->
<g id="edge5" class="edge">
<title>Node3&#45;&gt;Node6</title>
<path fill="none" stroke="midnightblue" d="M320.29,-232.21C260.08,-229.79 109.57,-220.56 73.35,-188 60.45,-176.4 56.45,-156.44 55.37,-141.69"/>
<polygon fill="midnightblue" stroke="midnightblue" points="58.87,-141.53 55.02,-131.66 51.87,-141.77 58.87,-141.53"/>
</g>
<!-- Node7 -->
<g id="node7" class="node">
<title>Node7</title>
<g id="a_node7"><a xlink:href="libccc__config_8h.html" target="_top" xlink:title=" ">
<polygon fill="white" stroke="black" points="82.35,-168.5 82.35,-187.5 164.35,-187.5 164.35,-168.5 82.35,-168.5"/>
<text text-anchor="middle" x="123.35" y="-175.5" font-family="Consolas" font-size="10.00">libccc_config.h</text>
</a>
</g>
</g>
<!-- Node3&#45;&gt;Node7 -->
<g id="edge7" class="edge">
<title>Node3&#45;&gt;Node7</title>
<path fill="none" stroke="midnightblue" d="M320.32,-226.91C283.52,-217.96 214.26,-201.11 168.46,-189.97"/>
<polygon fill="midnightblue" stroke="midnightblue" points="169.04,-186.51 158.5,-187.55 167.39,-193.31 169.04,-186.51"/>
</g>
<!-- Node8 -->
<g id="node8" class="node">
<title>Node8</title>
<g id="a_node8"><a xlink:href="libccc__naming_8h.html" target="_top" xlink:title=" ">
<polygon fill="white" stroke="black" points="151.85,-112.5 151.85,-131.5 238.85,-131.5 238.85,-112.5 151.85,-112.5"/>
<text text-anchor="middle" x="195.35" y="-119.5" font-family="Consolas" font-size="10.00">libccc_naming.h</text>
</a>
</g>
</g>
<!-- Node3&#45;&gt;Node8 -->
<g id="edge10" class="edge">
<title>Node3&#45;&gt;Node8</title>
<path fill="none" stroke="midnightblue" d="M320.24,-231.62C290.01,-228.58 239.77,-218.87 211.35,-188 199.92,-175.59 196.31,-156.35 195.33,-142.02"/>
<polygon fill="midnightblue" stroke="midnightblue" points="198.82,-141.68 195,-131.8 191.82,-141.91 198.82,-141.68"/>
</g>
<!-- Node9 -->
<g id="node9" class="node">
<title>Node9</title>
<g id="a_node9"><a xlink:href="bool_8h.html" target="_top" xlink:title=" ">
<polygon fill="white" stroke="black" points="220.85,-168.5 220.85,-187.5 291.85,-187.5 291.85,-168.5 220.85,-168.5"/>
<text text-anchor="middle" x="256.35" y="-175.5" font-family="Consolas" font-size="10.00">libccc/bool.h</text>
</a>
</g>
</g>
<!-- Node3&#45;&gt;Node9 -->
<g id="edge12" class="edge">
<title>Node3&#45;&gt;Node9</title>
<path fill="none" stroke="midnightblue" d="M325.94,-224.32C310.38,-215.98 289.03,-203.21 273.96,-193.35"/>
<polygon fill="midnightblue" stroke="midnightblue" points="275.75,-190.34 265.51,-187.65 271.84,-196.14 275.75,-190.34"/>
</g>
<!-- Node10 -->
<g id="node10" class="node">
<title>Node10</title>
<g id="a_node10"><a xlink:href="char_8h.html" target="_top" xlink:title=" ">
<polygon fill="white" stroke="black" points="309.85,-168.5 309.85,-187.5 380.85,-187.5 380.85,-168.5 309.85,-168.5"/>
<text text-anchor="middle" x="345.35" y="-175.5" font-family="Consolas" font-size="10.00">libccc/char.h</text>
</a>
</g>
</g>
<!-- Node3&#45;&gt;Node10 -->
<g id="edge14" class="edge">
<title>Node3&#45;&gt;Node10</title>
<path fill="none" stroke="midnightblue" d="M340.19,-224.08C338.68,-216.93 338.25,-206.64 338.89,-197.69"/>
<polygon fill="midnightblue" stroke="midnightblue" points="342.37,-198.13 340.22,-187.75 335.43,-197.2 342.37,-198.13"/>
</g>
<!-- Node14 -->
<g id="node14" class="node">
<title>Node14</title>
<g id="a_node14"><a xlink:href="int_8h.html" target="_top" xlink:title=" ">
<polygon fill="white" stroke="black" points="399.35,-168.5 399.35,-187.5 463.35,-187.5 463.35,-168.5 399.35,-168.5"/>
<text text-anchor="middle" x="431.35" y="-175.5" font-family="Consolas" font-size="10.00">libccc/int.h</text>
</a>
</g>
</g>
<!-- Node3&#45;&gt;Node14 -->
<g id="edge19" class="edge">
<title>Node3&#45;&gt;Node14</title>
<path fill="none" stroke="midnightblue" d="M354.05,-224.32C365.75,-215.82 386.32,-202.73 403.4,-192.8"/>
<polygon fill="midnightblue" stroke="midnightblue" points="405.49,-195.64 412.46,-187.65 402.03,-189.55 405.49,-195.64"/>
</g>
<!-- Node15 -->
<g id="node15" class="node">
<title>Node15</title>
<g id="a_node15"><a xlink:href="float_8h.html" target="_top" xlink:title=" ">
<polygon fill="white" stroke="black" points="481.35,-168.5 481.35,-187.5 553.35,-187.5 553.35,-168.5 481.35,-168.5"/>
<text text-anchor="middle" x="517.35" y="-175.5" font-family="Consolas" font-size="10.00">libccc/float.h</text>
</a>
</g>
</g>
<!-- Node3&#45;&gt;Node15 -->
<g id="edge23" class="edge">
<title>Node3&#45;&gt;Node15</title>
<path fill="none" stroke="midnightblue" d="M367.52,-224.44C394.81,-215.24 441.39,-200.56 475.45,-190.39"/>
<polygon fill="midnightblue" stroke="midnightblue" points="476.55,-193.71 485.14,-187.52 474.56,-187 476.55,-193.71"/>
</g>
<!-- Node16 -->
<g id="node16" class="node">
<title>Node16</title>
<g id="a_node16"><a xlink:href="pointer_8h.html" target="_top" xlink:title=" ">
<polygon fill="white" stroke="black" points="571.35,-168.5 571.35,-187.5 653.35,-187.5 653.35,-168.5 571.35,-168.5"/>
<text text-anchor="middle" x="612.35" y="-175.5" font-family="Consolas" font-size="10.00">libccc/pointer.h</text>
</a>
</g>
</g>
<!-- Node3&#45;&gt;Node16 -->
<g id="edge25" class="edge">
<title>Node3&#45;&gt;Node16</title>
<path fill="none" stroke="midnightblue" d="M370.51,-227.01C414.09,-217.64 503.95,-199.41 561.08,-188.31"/>
<polygon fill="midnightblue" stroke="midnightblue" points="561.85,-191.72 571,-186.39 560.52,-184.85 561.85,-191.72"/>
</g>
<!-- Node5 -->
<g id="node5" class="node">
<title>Node5</title>
<g id="a_node5"><a xlink:title=" ">
<polygon fill="white" stroke="#bfbfbf" points="59.85,-0.5 59.85,-19.5 118.85,-19.5 118.85,-0.5 59.85,-0.5"/>
<text text-anchor="middle" x="89.35" y="-7.5" font-family="Consolas" font-size="10.00">stdalign.h</text>
</a>
</g>
</g>
<!-- Node4&#45;&gt;Node5 -->
<g id="edge4" class="edge">
<title>Node4&#45;&gt;Node5</title>
<path fill="none" stroke="midnightblue" d="M89.35,-56.08C89.35,-49.01 89.35,-38.86 89.35,-29.99"/>
<polygon fill="midnightblue" stroke="midnightblue" points="92.85,-29.75 89.35,-19.75 85.85,-29.75 92.85,-29.75"/>
</g>
<!-- Node6&#45;&gt;Node4 -->
<g id="edge6" class="edge">
<title>Node6&#45;&gt;Node4</title>
<path fill="none" stroke="midnightblue" d="M60.97,-112.08C65.72,-104.53 72.67,-93.49 78.5,-84.23"/>
<polygon fill="midnightblue" stroke="midnightblue" points="81.48,-86.08 83.84,-75.75 75.55,-82.35 81.48,-86.08"/>
</g>
<!-- Node7&#45;&gt;Node4 -->
<g id="edge8" class="edge">
<title>Node7&#45;&gt;Node4</title>
<path fill="none" stroke="midnightblue" d="M120.87,-168.14C117.34,-155.6 110.6,-131.97 104.35,-112 101.58,-103.15 98.35,-93.37 95.59,-85.2"/>
<polygon fill="midnightblue" stroke="midnightblue" points="98.86,-83.94 92.32,-75.6 92.23,-86.19 98.86,-83.94"/>
</g>
<!-- Node7&#45;&gt;Node6 -->
<g id="edge9" class="edge">
<title>Node7&#45;&gt;Node6</title>
<path fill="none" stroke="midnightblue" d="M112.43,-168.32C102.18,-160.18 86.63,-147.84 74.35,-138.09"/>
<polygon fill="midnightblue" stroke="midnightblue" points="76.48,-135.31 66.48,-131.83 72.13,-140.79 76.48,-135.31"/>
</g>
<!-- Node8&#45;&gt;Node4 -->
<g id="edge11" class="edge">
<title>Node8&#45;&gt;Node4</title>
<path fill="none" stroke="midnightblue" d="M178.32,-112.32C161.32,-103.66 134.98,-90.24 115.36,-80.25"/>
<polygon fill="midnightblue" stroke="midnightblue" points="116.84,-77.08 106.34,-75.65 113.66,-83.31 116.84,-77.08"/>
</g>
<!-- Node9&#45;&gt;Node3 -->
<g id="edge13" class="edge">
<title>Node9&#45;&gt;Node3</title>
<path fill="none" stroke="midnightblue" d="M275.73,-187.65C291.28,-195.99 312.63,-208.76 327.7,-218.62"/>
<polygon fill="midnightblue" stroke="midnightblue" points="325.92,-221.64 336.17,-224.32 329.83,-215.83 325.92,-221.64"/>
</g>
<!-- Node10&#45;&gt;Node3 -->
<g id="edge16" class="edge">
<title>Node10&#45;&gt;Node3</title>
<path fill="none" stroke="midnightblue" d="M350.48,-187.75C352.01,-194.86 352.46,-205.14 351.82,-214.1"/>
<polygon fill="midnightblue" stroke="midnightblue" points="348.34,-213.71 350.52,-224.08 355.29,-214.62 348.34,-213.71"/>
</g>
<!-- Node11 -->
<g id="node11" class="node">
<title>Node11</title>
<g id="a_node11"><a xlink:title=" ">
<polygon fill="white" stroke="#bfbfbf" points="492.85,-112.5 492.85,-131.5 541.85,-131.5 541.85,-112.5 492.85,-112.5"/>
<text text-anchor="middle" x="517.35" y="-119.5" font-family="Consolas" font-size="10.00">stdint.h</text>
</a>
</g>
</g>
<!-- Node10&#45;&gt;Node11 -->
<g id="edge15" class="edge">
<title>Node10&#45;&gt;Node11</title>
<path fill="none" stroke="midnightblue" d="M372.61,-168.44C402.44,-159.08 450.33,-144.04 482.78,-133.85"/>
<polygon fill="midnightblue" stroke="midnightblue" points="484.24,-137.06 492.73,-130.73 482.14,-130.39 484.24,-137.06"/>
</g>
<!-- Node12 -->
<g id="node12" class="node">
<title>Node12</title>
<g id="a_node12"><a xlink:title=" ">
<polygon fill="white" stroke="#bfbfbf" points="381.85,-112.5 381.85,-131.5 474.85,-131.5 474.85,-112.5 381.85,-112.5"/>
<text text-anchor="middle" x="428.35" y="-119.5" font-family="Consolas" font-size="10.00">libccc/text/ascii.h</text>
</a>
</g>
</g>
<!-- Node10&#45;&gt;Node12 -->
<g id="edge17" class="edge">
<title>Node10&#45;&gt;Node12</title>
<path fill="none" stroke="midnightblue" d="M358.69,-168.32C371.51,-159.98 391.14,-147.21 406.29,-137.35"/>
<polygon fill="midnightblue" stroke="midnightblue" points="408.58,-140.04 415.05,-131.65 404.76,-134.17 408.58,-140.04"/>
</g>
<!-- Node13 -->
<g id="node13" class="node">
<title>Node13</title>
<g id="a_node13"><a xlink:title=" ">
<polygon fill="white" stroke="#bfbfbf" points="256.85,-112.5 256.85,-131.5 363.85,-131.5 363.85,-112.5 256.85,-112.5"/>
<text text-anchor="middle" x="310.35" y="-119.5" font-family="Consolas" font-size="10.00">libccc/text/unicode.h</text>
</a>
</g>
</g>
<!-- Node10&#45;&gt;Node13 -->
<g id="edge18" class="edge">
<title>Node10&#45;&gt;Node13</title>
<path fill="none" stroke="midnightblue" d="M339.57,-168.08C334.68,-160.53 327.52,-149.49 321.52,-140.23"/>
<polygon fill="midnightblue" stroke="midnightblue" points="324.4,-138.24 316.02,-131.75 318.53,-142.05 324.4,-138.24"/>
</g>
<!-- Node14&#45;&gt;Node3 -->
<g id="edge21" class="edge">
<title>Node14&#45;&gt;Node3</title>
<path fill="none" stroke="midnightblue" d="M422.43,-187.83C410.69,-196.34 390.27,-209.34 373.29,-219.21"/>
<polygon fill="midnightblue" stroke="midnightblue" points="371.25,-216.34 364.28,-224.32 374.71,-222.43 371.25,-216.34"/>
</g>
<!-- Node14&#45;&gt;Node11 -->
<g id="edge20" class="edge">
<title>Node14&#45;&gt;Node11</title>
<path fill="none" stroke="midnightblue" d="M445.17,-168.32C458.58,-159.9 479.18,-146.97 494.94,-137.07"/>
<polygon fill="midnightblue" stroke="midnightblue" points="496.96,-139.94 503.57,-131.65 493.24,-134.01 496.96,-139.94"/>
</g>
<!-- Node15&#45;&gt;Node3 -->
<g id="edge24" class="edge">
<title>Node15&#45;&gt;Node3</title>
<path fill="none" stroke="midnightblue" d="M495.11,-187.58C465.9,-197.43 414.71,-213.52 380.33,-223.67"/>
<polygon fill="midnightblue" stroke="midnightblue" points="379.3,-220.32 370.68,-226.49 381.26,-227.04 379.3,-220.32"/>
</g>
<!-- Node16&#45;&gt;Node3 -->
<g id="edge28" class="edge">
<title>Node16&#45;&gt;Node3</title>
<path fill="none" stroke="midnightblue" d="M575.2,-187.54C523.65,-198.45 431.39,-217.07 380.77,-226.75"/>
<polygon fill="midnightblue" stroke="midnightblue" points="379.8,-223.37 370.63,-228.67 381.1,-230.25 379.8,-223.37"/>
</g>
<!-- Node16&#45;&gt;Node11 -->
<g id="edge27" class="edge">
<title>Node16&#45;&gt;Node11</title>
<path fill="none" stroke="midnightblue" d="M597.09,-168.32C582.13,-159.82 559.1,-146.73 541.62,-136.8"/>
<polygon fill="midnightblue" stroke="midnightblue" points="543,-133.55 532.58,-131.65 539.54,-139.64 543,-133.55"/>
</g>
<!-- Node17 -->
<g id="node17" class="node">
<title>Node17</title>
<g id="a_node17"><a xlink:title=" ">
<polygon fill="white" stroke="#bfbfbf" points="586.35,-112.5 586.35,-131.5 638.35,-131.5 638.35,-112.5 586.35,-112.5"/>
<text text-anchor="middle" x="612.35" y="-119.5" font-family="Consolas" font-size="10.00">stddef.h</text>
</a>
</g>
</g>
<!-- Node16&#45;&gt;Node17 -->
<g id="edge26" class="edge">
<title>Node16&#45;&gt;Node17</title>
<path fill="none" stroke="midnightblue" d="M612.35,-168.08C612.35,-161.01 612.35,-150.86 612.35,-141.99"/>
<polygon fill="midnightblue" stroke="midnightblue" points="615.85,-141.75 612.35,-131.75 608.85,-141.75 615.85,-141.75"/>
</g>
</g>
</svg>
        <g id="navigator" transform="translate(0 0)" fill="#404254">
                <rect fill="#f2f5e9" fill-opacity="0.5" stroke="#606060" stroke-width=".5" x="0" y="0" width="60" height="60"/>
                <use id="zoomplus" xlink:href="#zoomPlus" x="17" y="9" onmousedown="handleZoom(evt,'in')"/>
                <use id="zoomminus" xlink:href="#zoomMin" x="42" y="9" onmousedown="handleZoom(evt,'out')"/>
                <use id="reset" xlink:href="#resetDef" x="30" y="36" onmousedown="handleReset()"/>
                <g id="arrowUp" xlink:href="#dirArrow" transform="translate(30 24)" onmousedown="handlePan(0,-1)">
                  <use xlink:href="#rim" fill="#404040">
                        <set attributeName="fill" to="#808080" begin="arrowUp.mouseover" end="arrowUp.mouseout"/>
                  </use>
                  <path fill="none" stroke="white" stroke-width="1.5" d="M0,-3.0v7 M-2.5,-0.5L0,-3.0L2.5,-0.5"/>
                </g>
                <g id="arrowRight" xlink:href="#dirArrow" transform="rotate(90) translate(36 -43)" onmousedown="handlePan(1,0)">
                  <use xlink:href="#rim" fill="#404040">
                        <set attributeName="fill" to="#808080" begin="arrowRight.mouseover" end="arrowRight.mouseout"/>
                  </use>
                  <path fill="none" stroke="white" stroke-width="1.5" d="M0,-3.0v7 M-2.5,-0.5L0,-3.0L2.5,-0.5"/>
                </g>
                <g id="arrowDown" xlink:href="#dirArrow" transform="rotate(180) translate(-30 -48)" onmousedown="handlePan(0,1)">
                  <use xlink:href="#rim" fill="#404040">
                        <set attributeName="fill" to="#808080" begin="arrowDown.mouseover" end="arrowDown.mouseout"/>
                  </use>
                  <path fill="none" stroke="white" stroke-width="1.5" d="M0,-3.0v7 M-2.5,-0.5L0,-3.0L2.5,-0.5"/>
                </g>
                <g id="arrowLeft" xlink:href="#dirArrow" transform="rotate(270) translate(-36 17)" onmousedown="handlePan(-1,0)">
                  <use xlink:href="#rim" fill="#404040">
                        <set attributeName="fill" to="#808080" begin="arrowLeft.mouseover" end="arrowLeft.mouseout"/>
                  </use>
                  <path fill="none" stroke="white" stroke-width="1.5" d="M0,-3.0v7 M-2.5,-0.5L0,-3.0L2.5,-0.5"/>
                </g>
        </g>
        <svg viewBox="0 0 15 15" width="100%" height="30px" preserveAspectRatio="xMaxYMin meet">
         <g id="arrow_out" transform="scale(0.3 0.3)">
          <a xlink:href="math_2fixed_8h__incl_org.svg" target="_base">
           <rect id="button" ry="5" rx="5" y="6" x="6" height="38" width="38"
                fill="#f2f5e9" fill-opacity="0.5" stroke="#606060" stroke-width="1.0"/>
           <path id="arrow"
             d="M 11.500037,31.436501 C 11.940474,20.09759 22.043105,11.32322 32.158766,21.979434 L 37.068811,17.246167 C 37.068811,17.246167 37.088388,32 37.088388,32 L 22.160133,31.978069 C 22.160133,31.978069 26.997745,27.140456 26.997745,27.140456 C 18.528582,18.264221 13.291696,25.230495 11.500037,31.436501 z"
             style="fill:#404040;"/>
          </a>
         </g>
        </svg>
</svg>
