<?xml version="1.0" encoding="UTF-8" standalone="no"?>
<!DOCTYPE svg PUBLIC "-//W3C//DTD SVG 1.1//EN"
 "http://www.w3.org/Graphics/SVG/1.1/DTD/svg11.dtd">
<!-- Generated by graphviz version 2.49.3 (20211023.0002)
 -->
<!-- Title: hdr/libccc/math/math.h Pages: 1 -->
<svg width="676pt" height="420pt"
 viewBox="0.00 0.00 675.50 420.00" xmlns="http://www.w3.org/2000/svg" xmlns:xlink="http://www.w3.org/1999/xlink">
<g id="graph0" class="graph" transform="scale(1 1) rotate(0) translate(4 416)">
<title>hdr/libccc/math/math.h</title>
<polygon fill="white" stroke="transparent" points="-4,4 -4,-416 671.5,-416 671.5,4 -4,4"/>
<!-- Node1 -->
<g id="node1" class="node">
<title>Node1</title>
<g id="a_node1"><a xlink:title=" ">
<polygon fill="#bfbfbf" stroke="black" points="232.5,-392.5 232.5,-411.5 348.5,-411.5 348.5,-392.5 232.5,-392.5"/>
<text text-anchor="middle" x="290.5" y="-399.5" font-family="Consolas" font-size="10.00">hdr/libccc/math/math.h</text>
</a>
</g>
</g>
<!-- Node2 -->
<g id="node2" class="node">
<title>Node2</title>
<g id="a_node2"><a xlink:href="constants_8h.html" target="_top" xlink:title=" ">
<polygon fill="white" stroke="black" points="167,-336.5 167,-355.5 288,-355.5 288,-336.5 167,-336.5"/>
<text text-anchor="middle" x="227.5" y="-343.5" font-family="Consolas" font-size="10.00">libccc/math/constants.h</text>
</a>
</g>
</g>
<!-- Node1&#45;&gt;Node2 -->
<g id="edge1" class="edge">
<title>Node1&#45;&gt;Node2</title>
<path fill="none" stroke="midnightblue" d="M280.38,-392.32C270.97,-384.26 256.76,-372.08 245.43,-362.37"/>
<polygon fill="midnightblue" stroke="midnightblue" points="247.68,-359.68 237.81,-355.83 243.12,-365 247.68,-359.68"/>
</g>
<!-- Node19 -->
<g id="node19" class="node">
<title>Node19</title>
<g id="a_node19"><a xlink:href="math_2int_8h.html" target="_top" xlink:title=" ">
<polygon fill="white" stroke="black" points="26,-280.5 26,-299.5 115,-299.5 115,-280.5 26,-280.5"/>
<text text-anchor="middle" x="70.5" y="-287.5" font-family="Consolas" font-size="10.00">libccc/math/int.h</text>
</a>
</g>
</g>
<!-- Node1&#45;&gt;Node19 -->
<g id="edge30" class="edge">
<title>Node1&#45;&gt;Node19</title>
<path fill="none" stroke="midnightblue" d="M255.67,-392.46C228.1,-384.95 189.11,-372.62 157.5,-356 131.35,-342.25 104.62,-320.98 87.81,-306.55"/>
<polygon fill="midnightblue" stroke="midnightblue" points="89.82,-303.65 79.99,-299.7 85.21,-308.92 89.82,-303.65"/>
</g>
<!-- Node20 -->
<g id="node20" class="node">
<title>Node20</title>
<g id="a_node20"><a xlink:href="math_2fixed_8h.html" target="_top" xlink:title=" ">
<polygon fill="white" stroke="black" points="423,-224.5 423,-243.5 522,-243.5 522,-224.5 423,-224.5"/>
<text text-anchor="middle" x="472.5" y="-231.5" font-family="Consolas" font-size="10.00">libccc/math/fixed.h</text>
</a>
</g>
</g>
<!-- Node1&#45;&gt;Node20 -->
<g id="edge32" class="edge">
<title>Node1&#45;&gt;Node20</title>
<path fill="none" stroke="midnightblue" d="M337.45,-392.45C362.17,-385.94 391.59,-374.78 412.5,-356 443.79,-327.89 460.69,-279.77 468,-253.48"/>
<polygon fill="midnightblue" stroke="midnightblue" points="471.42,-254.23 470.56,-243.67 464.65,-252.46 471.42,-254.23"/>
</g>
<!-- Node21 -->
<g id="node21" class="node">
<title>Node21</title>
<g id="a_node21"><a xlink:href="math_2float_8h.html" target="_top" xlink:title=" ">
<polygon fill="white" stroke="black" points="306,-336.5 306,-355.5 403,-355.5 403,-336.5 306,-336.5"/>
<text text-anchor="middle" x="354.5" y="-343.5" font-family="Consolas" font-size="10.00">libccc/math/float.h</text>
</a>
</g>
</g>
<!-- Node1&#45;&gt;Node21 -->
<g id="edge34" class="edge">
<title>Node1&#45;&gt;Node21</title>
<path fill="none" stroke="midnightblue" d="M300.78,-392.32C310.34,-384.26 324.78,-372.08 336.28,-362.37"/>
<polygon fill="midnightblue" stroke="midnightblue" points="338.64,-364.96 344.03,-355.83 334.13,-359.61 338.64,-364.96"/>
</g>
<!-- Node3 -->
<g id="node3" class="node">
<title>Node3</title>
<g id="a_node3"><a xlink:href="float_8h.html" target="_top" xlink:title=" ">
<polygon fill="white" stroke="black" points="284.5,-280.5 284.5,-299.5 356.5,-299.5 356.5,-280.5 284.5,-280.5"/>
<text text-anchor="middle" x="320.5" y="-287.5" font-family="Consolas" font-size="10.00">libccc/float.h</text>
</a>
</g>
</g>
<!-- Node2&#45;&gt;Node3 -->
<g id="edge2" class="edge">
<title>Node2&#45;&gt;Node3</title>
<path fill="none" stroke="midnightblue" d="M242.44,-336.32C257.09,-327.82 279.63,-314.73 296.74,-304.8"/>
<polygon fill="midnightblue" stroke="midnightblue" points="298.7,-307.7 305.6,-299.65 295.19,-301.65 298.7,-307.7"/>
</g>
<!-- Node4 -->
<g id="node4" class="node">
<title>Node4</title>
<g id="a_node4"><a xlink:href="libccc_8h.html" target="_top" xlink:title=" ">
<polygon fill="white" stroke="black" points="295.5,-224.5 295.5,-243.5 345.5,-243.5 345.5,-224.5 295.5,-224.5"/>
<text text-anchor="middle" x="320.5" y="-231.5" font-family="Consolas" font-size="10.00">libccc.h</text>
</a>
</g>
</g>
<!-- Node3&#45;&gt;Node4 -->
<g id="edge3" class="edge">
<title>Node3&#45;&gt;Node4</title>
<path fill="none" stroke="midnightblue" d="M315.33,-280.08C313.82,-272.93 313.39,-262.64 314.04,-253.69"/>
<polygon fill="midnightblue" stroke="midnightblue" points="317.52,-254.13 315.37,-243.75 310.58,-253.2 317.52,-254.13"/>
</g>
<!-- Node4&#45;&gt;Node3 -->
<g id="edge25" class="edge">
<title>Node4&#45;&gt;Node3</title>
<path fill="none" stroke="midnightblue" d="M325.63,-243.75C327.16,-250.86 327.6,-261.14 326.97,-270.1"/>
<polygon fill="midnightblue" stroke="midnightblue" points="323.49,-269.71 325.67,-280.08 330.43,-270.62 323.49,-269.71"/>
</g>
<!-- Node5 -->
<g id="node5" class="node">
<title>Node5</title>
<g id="a_node5"><a xlink:href="libccc__define_8h.html" target="_top" xlink:title=" ">
<polygon fill="white" stroke="black" points="467.5,-56.5 467.5,-75.5 549.5,-75.5 549.5,-56.5 467.5,-56.5"/>
<text text-anchor="middle" x="508.5" y="-63.5" font-family="Consolas" font-size="10.00">libccc_define.h</text>
</a>
</g>
</g>
<!-- Node4&#45;&gt;Node5 -->
<g id="edge4" class="edge">
<title>Node4&#45;&gt;Node5</title>
<path fill="none" stroke="midnightblue" d="M345.77,-230.75C392.27,-226.03 488.49,-213.36 508.5,-188 531.72,-158.56 522.56,-111.35 514.89,-85.46"/>
<polygon fill="midnightblue" stroke="midnightblue" points="518.17,-84.24 511.79,-75.78 511.5,-86.38 518.17,-84.24"/>
</g>
<!-- Node7 -->
<g id="node7" class="node">
<title>Node7</title>
<g id="a_node7"><a xlink:href="libccc__errors_8h.html" target="_top" xlink:title=" ">
<polygon fill="white" stroke="black" points="381.5,-112.5 381.5,-131.5 461.5,-131.5 461.5,-112.5 381.5,-112.5"/>
<text text-anchor="middle" x="421.5" y="-119.5" font-family="Consolas" font-size="10.00">libccc_errors.h</text>
</a>
</g>
</g>
<!-- Node4&#45;&gt;Node7 -->
<g id="edge6" class="edge">
<title>Node4&#45;&gt;Node7</title>
<path fill="none" stroke="midnightblue" d="M331.33,-224.19C341.81,-215.46 357.9,-201.48 370.5,-188 384.82,-172.67 399.43,-153.65 409.31,-140.15"/>
<polygon fill="midnightblue" stroke="midnightblue" points="412.33,-141.95 415.35,-131.8 406.65,-137.85 412.33,-141.95"/>
</g>
<!-- Node8 -->
<g id="node8" class="node">
<title>Node8</title>
<g id="a_node8"><a xlink:href="libccc__config_8h.html" target="_top" xlink:title=" ">
<polygon fill="white" stroke="black" points="417.5,-168.5 417.5,-187.5 499.5,-187.5 499.5,-168.5 417.5,-168.5"/>
<text text-anchor="middle" x="458.5" y="-175.5" font-family="Consolas" font-size="10.00">libccc_config.h</text>
</a>
</g>
</g>
<!-- Node4&#45;&gt;Node8 -->
<g id="edge8" class="edge">
<title>Node4&#45;&gt;Node8</title>
<path fill="none" stroke="midnightblue" d="M342.37,-224.44C365.28,-215.48 401.48,-201.31 427.37,-191.18"/>
<polygon fill="midnightblue" stroke="midnightblue" points="428.7,-194.42 436.74,-187.52 426.15,-187.9 428.7,-194.42"/>
</g>
<!-- Node9 -->
<g id="node9" class="node">
<title>Node9</title>
<g id="a_node9"><a xlink:href="libccc__naming_8h.html" target="_top" xlink:title=" ">
<polygon fill="white" stroke="black" points="556,-112.5 556,-131.5 643,-131.5 643,-112.5 556,-112.5"/>
<text text-anchor="middle" x="599.5" y="-119.5" font-family="Consolas" font-size="10.00">libccc_naming.h</text>
</a>
</g>
</g>
<!-- Node4&#45;&gt;Node9 -->
<g id="edge11" class="edge">
<title>Node4&#45;&gt;Node9</title>
<path fill="none" stroke="midnightblue" d="M345.75,-229.89C396.36,-223.34 508.23,-207.12 541.5,-188 561.7,-176.39 578.59,-155.22 588.84,-140.2"/>
<polygon fill="midnightblue" stroke="midnightblue" points="591.8,-142.07 594.33,-131.78 585.94,-138.24 591.8,-142.07"/>
</g>
<!-- Node10 -->
<g id="node10" class="node">
<title>Node10</title>
<g id="a_node10"><a xlink:href="bool_8h.html" target="_top" xlink:title=" ">
<polygon fill="white" stroke="black" points="101,-168.5 101,-187.5 172,-187.5 172,-168.5 101,-168.5"/>
<text text-anchor="middle" x="136.5" y="-175.5" font-family="Consolas" font-size="10.00">libccc/bool.h</text>
</a>
</g>
</g>
<!-- Node4&#45;&gt;Node10 -->
<g id="edge13" class="edge">
<title>Node4&#45;&gt;Node10</title>
<path fill="none" stroke="midnightblue" d="M295.29,-226.91C262.72,-218.11 206.33,-201.68 170.17,-190.54"/>
<polygon fill="midnightblue" stroke="midnightblue" points="171.13,-187.17 160.54,-187.55 169.05,-193.86 171.13,-187.17"/>
</g>
<!-- Node11 -->
<g id="node11" class="node">
<title>Node11</title>
<g id="a_node11"><a xlink:href="char_8h.html" target="_top" xlink:title=" ">
<polygon fill="white" stroke="black" points="190,-168.5 190,-187.5 261,-187.5 261,-168.5 190,-168.5"/>
<text text-anchor="middle" x="225.5" y="-175.5" font-family="Consolas" font-size="10.00">libccc/char.h</text>
</a>
</g>
</g>
<!-- Node4&#45;&gt;Node11 -->
<g id="edge15" class="edge">
<title>Node4&#45;&gt;Node11</title>
<path fill="none" stroke="midnightblue" d="M300.12,-224.32C283.48,-215.9 260.43,-202.97 244.25,-193.07"/>
<polygon fill="midnightblue" stroke="midnightblue" points="245.95,-190.01 235.62,-187.65 242.22,-195.93 245.95,-190.01"/>
</g>
<!-- Node15 -->
<g id="node15" class="node">
<title>Node15</title>
<g id="a_node15"><a xlink:href="int_8h.html" target="_top" xlink:title=" ">
<polygon fill="white" stroke="black" points="18.5,-168.5 18.5,-187.5 82.5,-187.5 82.5,-168.5 18.5,-168.5"/>
<text text-anchor="middle" x="50.5" y="-175.5" font-family="Consolas" font-size="10.00">libccc/int.h</text>
</a>
</g>
</g>
<!-- Node4&#45;&gt;Node15 -->
<g id="edge20" class="edge">
<title>Node4&#45;&gt;Node15</title>
<path fill="none" stroke="midnightblue" d="M295.17,-229.18C253.09,-221.91 166.91,-205.43 90.14,-189.58"/>
<polygon fill="midnightblue" stroke="midnightblue" points="90.84,-186.15 80.34,-187.55 89.42,-193.01 90.84,-186.15"/>
</g>
<!-- Node16 -->
<g id="node16" class="node">
<title>Node16</title>
<g id="a_node16"><a xlink:href="fixed_8h.html" target="_top" xlink:title=" ">
<polygon fill="white" stroke="black" points="593.5,-168.5 593.5,-187.5 667.5,-187.5 667.5,-168.5 593.5,-168.5"/>
<text text-anchor="middle" x="630.5" y="-175.5" font-family="Consolas" font-size="10.00">libccc/fixed.h</text>
</a>
</g>
</g>
<!-- Node4&#45;&gt;Node16 -->
<g id="edge23" class="edge">
<title>Node4&#45;&gt;Node16</title>
<path fill="none" stroke="midnightblue" d="M345.52,-227.69C390.7,-219.3 488.01,-202.45 570.5,-188 574.63,-187.28 578.96,-186.52 583.32,-185.76"/>
<polygon fill="midnightblue" stroke="midnightblue" points="584.22,-189.16 593.48,-184.01 583.04,-182.26 584.22,-189.16"/>
</g>
<!-- Node17 -->
<g id="node17" class="node">
<title>Node17</title>
<g id="a_node17"><a xlink:href="pointer_8h.html" target="_top" xlink:title=" ">
<polygon fill="white" stroke="black" points="279.5,-168.5 279.5,-187.5 361.5,-187.5 361.5,-168.5 279.5,-168.5"/>
<text text-anchor="middle" x="320.5" y="-175.5" font-family="Consolas" font-size="10.00">libccc/pointer.h</text>
</a>
</g>
</g>
<!-- Node4&#45;&gt;Node17 -->
<g id="edge26" class="edge">
<title>Node4&#45;&gt;Node17</title>
<path fill="none" stroke="midnightblue" d="M315.33,-224.08C313.82,-216.93 313.39,-206.64 314.04,-197.69"/>
<polygon fill="midnightblue" stroke="midnightblue" points="317.52,-198.13 315.37,-187.75 310.58,-197.2 317.52,-198.13"/>
</g>
<!-- Node6 -->
<g id="node6" class="node">
<title>Node6</title>
<g id="a_node6"><a xlink:title=" ">
<polygon fill="white" stroke="#bfbfbf" points="479,-0.5 479,-19.5 538,-19.5 538,-0.5 479,-0.5"/>
<text text-anchor="middle" x="508.5" y="-7.5" font-family="Consolas" font-size="10.00">stdalign.h</text>
</a>
</g>
</g>
<!-- Node5&#45;&gt;Node6 -->
<g id="edge5" class="edge">
<title>Node5&#45;&gt;Node6</title>
<path fill="none" stroke="midnightblue" d="M508.5,-56.08C508.5,-49.01 508.5,-38.86 508.5,-29.99"/>
<polygon fill="midnightblue" stroke="midnightblue" points="512,-29.75 508.5,-19.75 505,-29.75 512,-29.75"/>
</g>
<!-- Node7&#45;&gt;Node5 -->
<g id="edge7" class="edge">
<title>Node7&#45;&gt;Node5</title>
<path fill="none" stroke="midnightblue" d="M435.48,-112.32C449.05,-103.9 469.88,-90.97 485.82,-81.07"/>
<polygon fill="midnightblue" stroke="midnightblue" points="487.91,-83.9 494.56,-75.65 484.21,-77.95 487.91,-83.9"/>
</g>
<!-- Node8&#45;&gt;Node5 -->
<g id="edge9" class="edge">
<title>Node8&#45;&gt;Node5</title>
<path fill="none" stroke="midnightblue" d="M462.42,-168.37C470.57,-150.46 489.44,-108.92 500.34,-84.95"/>
<polygon fill="midnightblue" stroke="midnightblue" points="503.64,-86.14 504.59,-75.59 497.27,-83.25 503.64,-86.14"/>
</g>
<!-- Node8&#45;&gt;Node7 -->
<g id="edge10" class="edge">
<title>Node8&#45;&gt;Node7</title>
<path fill="none" stroke="midnightblue" d="M452.39,-168.08C447.22,-160.53 439.65,-149.49 433.31,-140.23"/>
<polygon fill="midnightblue" stroke="midnightblue" points="436.04,-138.02 427.5,-131.75 430.26,-141.98 436.04,-138.02"/>
</g>
<!-- Node9&#45;&gt;Node5 -->
<g id="edge12" class="edge">
<title>Node9&#45;&gt;Node5</title>
<path fill="none" stroke="midnightblue" d="M584.88,-112.32C570.55,-103.82 548.49,-90.73 531.75,-80.8"/>
<polygon fill="midnightblue" stroke="midnightblue" points="533.47,-77.75 523.08,-75.65 529.9,-83.77 533.47,-77.75"/>
</g>
<!-- Node10&#45;&gt;Node4 -->
<g id="edge14" class="edge">
<title>Node10&#45;&gt;Node4</title>
<path fill="none" stroke="midnightblue" d="M170.6,-187.52C203.78,-196.66 253.69,-211.26 286.75,-221.44"/>
<polygon fill="midnightblue" stroke="midnightblue" points="285.85,-224.82 296.43,-224.44 287.92,-218.13 285.85,-224.82"/>
</g>
<!-- Node11&#45;&gt;Node4 -->
<g id="edge17" class="edge">
<title>Node11&#45;&gt;Node4</title>
<path fill="none" stroke="midnightblue" d="M245.84,-187.65C262.47,-196.07 285.51,-209 301.71,-218.9"/>
<polygon fill="midnightblue" stroke="midnightblue" points="300.02,-221.97 310.35,-224.32 303.74,-216.04 300.02,-221.97"/>
</g>
<!-- Node12 -->
<g id="node12" class="node">
<title>Node12</title>
<g id="a_node12"><a xlink:title=" ">
<polygon fill="white" stroke="#bfbfbf" points="236,-112.5 236,-131.5 285,-131.5 285,-112.5 236,-112.5"/>
<text text-anchor="middle" x="260.5" y="-119.5" font-family="Consolas" font-size="10.00">stdint.h</text>
</a>
</g>
</g>
<!-- Node11&#45;&gt;Node12 -->
<g id="edge16" class="edge">
<title>Node11&#45;&gt;Node12</title>
<path fill="none" stroke="midnightblue" d="M231.28,-168.08C236.17,-160.53 243.33,-149.49 249.33,-140.23"/>
<polygon fill="midnightblue" stroke="midnightblue" points="252.33,-142.05 254.83,-131.75 246.45,-138.24 252.33,-142.05"/>
</g>
<!-- Node13 -->
<g id="node13" class="node">
<title>Node13</title>
<g id="a_node13"><a xlink:title=" ">
<polygon fill="white" stroke="#bfbfbf" points="125,-112.5 125,-131.5 218,-131.5 218,-112.5 125,-112.5"/>
<text text-anchor="middle" x="171.5" y="-119.5" font-family="Consolas" font-size="10.00">libccc/text/ascii.h</text>
</a>
</g>
</g>
<!-- Node11&#45;&gt;Node13 -->
<g id="edge18" class="edge">
<title>Node11&#45;&gt;Node13</title>
<path fill="none" stroke="midnightblue" d="M216.58,-168.08C208.72,-160.22 197.07,-148.57 187.58,-139.08"/>
<polygon fill="midnightblue" stroke="midnightblue" points="189.8,-136.35 180.25,-131.75 184.85,-141.3 189.8,-136.35"/>
</g>
<!-- Node14 -->
<g id="node14" class="node">
<title>Node14</title>
<g id="a_node14"><a xlink:title=" ">
<polygon fill="white" stroke="#bfbfbf" points="0,-112.5 0,-131.5 107,-131.5 107,-112.5 0,-112.5"/>
<text text-anchor="middle" x="53.5" y="-119.5" font-family="Consolas" font-size="10.00">libccc/text/unicode.h</text>
</a>
</g>
</g>
<!-- Node11&#45;&gt;Node14 -->
<g id="edge19" class="edge">
<title>Node11&#45;&gt;Node14</title>
<path fill="none" stroke="midnightblue" d="M198.25,-168.44C169.06,-159.28 122.58,-144.69 90.19,-134.52"/>
<polygon fill="midnightblue" stroke="midnightblue" points="91.22,-131.17 80.63,-131.52 89.12,-137.85 91.22,-131.17"/>
</g>
<!-- Node15&#45;&gt;Node4 -->
<g id="edge22" class="edge">
<title>Node15&#45;&gt;Node4</title>
<path fill="none" stroke="midnightblue" d="M82.62,-184.23C88.65,-185.49 94.79,-186.81 100.5,-188 165.87,-201.6 241.97,-216.33 285.5,-225.11"/>
<polygon fill="midnightblue" stroke="midnightblue" points="284.82,-228.54 295.32,-227.1 286.21,-221.68 284.82,-228.54"/>
</g>
<!-- Node15&#45;&gt;Node12 -->
<g id="edge21" class="edge">
<title>Node15&#45;&gt;Node12</title>
<path fill="none" stroke="midnightblue" d="M82.64,-168.87C116.01,-160.41 169.98,-146.67 226.21,-132.06"/>
<polygon fill="midnightblue" stroke="midnightblue" points="227.2,-135.42 235.99,-129.51 225.43,-128.64 227.2,-135.42"/>
</g>
<!-- Node16&#45;&gt;Node4 -->
<g id="edge24" class="edge">
<title>Node16&#45;&gt;Node4</title>
<path fill="none" stroke="midnightblue" d="M593.35,-187.15C591.72,-187.44 590.09,-187.72 588.5,-188 505.44,-202.55 407.35,-219.54 355.82,-227.87"/>
<polygon fill="midnightblue" stroke="midnightblue" points="355.17,-224.42 345.85,-229.46 356.28,-231.34 355.17,-224.42"/>
</g>
<!-- Node17&#45;&gt;Node4 -->
<g id="edge29" class="edge">
<title>Node17&#45;&gt;Node4</title>
<path fill="none" stroke="midnightblue" d="M325.63,-187.75C327.16,-194.86 327.6,-205.14 326.97,-214.1"/>
<polygon fill="midnightblue" stroke="midnightblue" points="323.49,-213.71 325.67,-224.08 330.43,-214.62 323.49,-213.71"/>
</g>
<!-- Node17&#45;&gt;Node12 -->
<g id="edge28" class="edge">
<title>Node17&#45;&gt;Node12</title>
<path fill="none" stroke="midnightblue" d="M310.86,-168.32C301.99,-160.34 288.63,-148.31 277.89,-138.65"/>
<polygon fill="midnightblue" stroke="midnightblue" points="280.09,-135.92 270.32,-131.83 275.41,-141.13 280.09,-135.92"/>
</g>
<!-- Node18 -->
<g id="node18" class="node">
<title>Node18</title>
<g id="a_node18"><a xlink:title=" ">
<polygon fill="white" stroke="#bfbfbf" points="303.5,-112.5 303.5,-131.5 355.5,-131.5 355.5,-112.5 303.5,-112.5"/>
<text text-anchor="middle" x="329.5" y="-119.5" font-family="Consolas" font-size="10.00">stddef.h</text>
</a>
</g>
</g>
<!-- Node17&#45;&gt;Node18 -->
<g id="edge27" class="edge">
<title>Node17&#45;&gt;Node18</title>
<path fill="none" stroke="midnightblue" d="M321.99,-168.08C323.18,-160.93 324.89,-150.64 326.38,-141.69"/>
<polygon fill="midnightblue" stroke="midnightblue" points="329.85,-142.19 328.04,-131.75 322.95,-141.04 329.85,-142.19"/>
</g>
<!-- Node19&#45;&gt;Node15 -->
<g id="edge31" class="edge">
<title>Node19&#45;&gt;Node15</title>
<path fill="none" stroke="midnightblue" d="M68.93,-280.37C65.7,-262.62 58.26,-221.67 53.88,-197.6"/>
<polygon fill="midnightblue" stroke="midnightblue" points="57.29,-196.8 52.06,-187.59 50.41,-198.06 57.29,-196.8"/>
</g>
<!-- Node20&#45;&gt;Node16 -->
<g id="edge33" class="edge">
<title>Node20&#45;&gt;Node16</title>
<path fill="none" stroke="midnightblue" d="M497.54,-224.44C524.12,-215.36 566.31,-200.94 596.02,-190.78"/>
<polygon fill="midnightblue" stroke="midnightblue" points="597.25,-194.06 605.58,-187.52 594.99,-187.44 597.25,-194.06"/>
</g>
<!-- Node21&#45;&gt;Node3 -->
<g id="edge35" class="edge">
<title>Node21&#45;&gt;Node3</title>
<path fill="none" stroke="midnightblue" d="M348.89,-336.08C344.13,-328.53 337.18,-317.49 331.35,-308.23"/>
<polygon fill="midnightblue" stroke="midnightblue" points="334.3,-306.35 326.01,-299.75 328.38,-310.08 334.3,-306.35"/>
</g>
</g>
</svg>
