<?xml version="1.0" encoding="UTF-8" standalone="no"?>
<!DOCTYPE svg PUBLIC "-//W3C//DTD SVG 1.1//EN"
 "http://www.w3.org/Graphics/SVG/1.1/DTD/svg11.dtd">
<!-- Generated by graphviz version 2.43.0 (0)
 -->
<!-- Title: libccc/math/int.h Pages: 1 -->
<svg width="766pt" height="364pt"
 viewBox="0.00 0.00 765.64 364.00" xmlns="http://www.w3.org/2000/svg" xmlns:xlink="http://www.w3.org/1999/xlink">
<g id="graph0" class="graph" transform="scale(1 1) rotate(0) translate(4 360)">
<title>libccc/math/int.h</title>
<polygon fill="white" stroke="transparent" points="-4,4 -4,-360 761.64,-360 761.64,4 -4,4"/>
<!-- Node1 -->
<g id="node1" class="node">
<title>Node1</title>
<g id="a_node1"><a xlink:title=" ">
<polygon fill="#bfbfbf" stroke="black" points="289.64,-336.5 289.64,-355.5 395.64,-355.5 395.64,-336.5 289.64,-336.5"/>
<text text-anchor="middle" x="342.64" y="-343.5" font-family="Consolas" font-size="10.00">libccc/math/int.h</text>
</a>
</g>
</g>
<!-- Node2 -->
<g id="node2" class="node">
<title>Node2</title>
<g id="a_node2"><a xlink:href="int_8h.html" target="_top" xlink:title=" ">
<polygon fill="white" stroke="black" points="260.64,-280.5 260.64,-299.5 340.64,-299.5 340.64,-280.5 260.64,-280.5"/>
<text text-anchor="middle" x="300.64" y="-287.5" font-family="Consolas" font-size="10.00">libccc/int.h</text>
</a>
</g>
</g>
<!-- Node1&#45;&gt;Node2 -->
<g id="edge1" class="edge">
<title>Node1&#45;&gt;Node2</title>
<path fill="none" stroke="midnightblue" d="M335.71,-336.08C329.71,-328.38 320.89,-317.03 313.6,-307.65"/>
<polygon fill="midnightblue" stroke="midnightblue" points="316.35,-305.5 307.45,-299.75 310.83,-309.79 316.35,-305.5"/>
</g>
<!-- Node3 -->
<g id="node3" class="node">
<title>Node3</title>
<g id="a_node3"><a xlink:title=" ">
<polygon fill="white" stroke="#bfbfbf" points="271.14,-224.5 271.14,-243.5 330.14,-243.5 330.14,-224.5 271.14,-224.5"/>
<text text-anchor="middle" x="300.64" y="-231.5" font-family="Consolas" font-size="10.00">stdint.h</text>
</a>
</g>
</g>
<!-- Node2&#45;&gt;Node3 -->
<g id="edge2" class="edge">
<title>Node2&#45;&gt;Node3</title>
<path fill="none" stroke="midnightblue" d="M300.64,-280.08C300.64,-273.01 300.64,-262.86 300.64,-253.99"/>
<polygon fill="midnightblue" stroke="midnightblue" points="304.14,-253.75 300.64,-243.75 297.14,-253.75 304.14,-253.75"/>
</g>
<!-- Node4 -->
<g id="node4" class="node">
<title>Node4</title>
<g id="a_node4"><a xlink:href="libccc_8h.html" target="_top" xlink:title=" ">
<polygon fill="white" stroke="black" points="192.14,-224.5 192.14,-243.5 251.14,-243.5 251.14,-224.5 192.14,-224.5"/>
<text text-anchor="middle" x="221.64" y="-231.5" font-family="Consolas" font-size="10.00">libccc.h</text>
</a>
</g>
</g>
<!-- Node2&#45;&gt;Node4 -->
<g id="edge3" class="edge">
<title>Node2&#45;&gt;Node4</title>
<path fill="none" stroke="midnightblue" d="M287.95,-280.32C275.74,-271.98 257.07,-259.21 242.64,-249.35"/>
<polygon fill="midnightblue" stroke="midnightblue" points="244.54,-246.41 234.3,-243.65 240.59,-252.19 244.54,-246.41"/>
</g>
<!-- Node5 -->
<g id="node5" class="node">
<title>Node5</title>
<g id="a_node5"><a xlink:href="libccc__define_8h.html" target="_top" xlink:title=" ">
<polygon fill="white" stroke="black" points="56.14,-56.5 56.14,-75.5 151.14,-75.5 151.14,-56.5 56.14,-56.5"/>
<text text-anchor="middle" x="103.64" y="-63.5" font-family="Consolas" font-size="10.00">libccc_define.h</text>
</a>
</g>
</g>
<!-- Node4&#45;&gt;Node5 -->
<g id="edge4" class="edge">
<title>Node4&#45;&gt;Node5</title>
<path fill="none" stroke="midnightblue" d="M191.82,-231.19C138.75,-227.29 31.38,-216.04 8.64,-188 -22.52,-149.56 41.2,-103.37 78.77,-80.79"/>
<polygon fill="midnightblue" stroke="midnightblue" points="80.82,-83.65 87.69,-75.58 77.29,-77.61 80.82,-83.65"/>
</g>
<!-- Node7 -->
<g id="node7" class="node">
<title>Node7</title>
<g id="a_node7"><a xlink:href="libccc__errors_8h.html" target="_top" xlink:title=" ">
<polygon fill="white" stroke="black" points="94.14,-112.5 94.14,-131.5 189.14,-131.5 189.14,-112.5 94.14,-112.5"/>
<text text-anchor="middle" x="141.64" y="-119.5" font-family="Consolas" font-size="10.00">libccc_errors.h</text>
</a>
</g>
</g>
<!-- Node4&#45;&gt;Node7 -->
<g id="edge6" class="edge">
<title>Node4&#45;&gt;Node7</title>
<path fill="none" stroke="midnightblue" d="M204.47,-224.41C190.7,-216.68 171.87,-204.07 160.64,-188 151.07,-174.3 146.27,-155.76 143.89,-141.99"/>
<polygon fill="midnightblue" stroke="midnightblue" points="147.31,-141.15 142.42,-131.76 140.38,-142.15 147.31,-141.15"/>
</g>
<!-- Node8 -->
<g id="node8" class="node">
<title>Node8</title>
<g id="a_node8"><a xlink:href="libccc__config_8h.html" target="_top" xlink:title=" ">
<polygon fill="white" stroke="black" points="170.14,-168.5 170.14,-187.5 265.14,-187.5 265.14,-168.5 170.14,-168.5"/>
<text text-anchor="middle" x="217.64" y="-175.5" font-family="Consolas" font-size="10.00">libccc_config.h</text>
</a>
</g>
</g>
<!-- Node4&#45;&gt;Node8 -->
<g id="edge8" class="edge">
<title>Node4&#45;&gt;Node8</title>
<path fill="none" stroke="midnightblue" d="M220.98,-224.08C220.46,-217.01 219.71,-206.86 219.05,-197.99"/>
<polygon fill="midnightblue" stroke="midnightblue" points="222.52,-197.47 218.29,-187.75 215.54,-197.98 222.52,-197.47"/>
</g>
<!-- Node9 -->
<g id="node9" class="node">
<title>Node9</title>
<g id="a_node9"><a xlink:href="libccc__naming_8h.html" target="_top" xlink:title=" ">
<polygon fill="white" stroke="black" points="18.14,-168.5 18.14,-187.5 113.14,-187.5 113.14,-168.5 18.14,-168.5"/>
<text text-anchor="middle" x="65.64" y="-175.5" font-family="Consolas" font-size="10.00">libccc_naming.h</text>
</a>
</g>
</g>
<!-- Node4&#45;&gt;Node9 -->
<g id="edge11" class="edge">
<title>Node4&#45;&gt;Node9</title>
<path fill="none" stroke="midnightblue" d="M196.92,-224.44C170.79,-215.4 129.38,-201.06 100.07,-190.92"/>
<polygon fill="midnightblue" stroke="midnightblue" points="100.84,-187.48 90.25,-187.52 98.55,-194.1 100.84,-187.48"/>
</g>
<!-- Node10 -->
<g id="node10" class="node">
<title>Node10</title>
<g id="a_node10"><a xlink:href="math_8h.html" target="_top" xlink:title=" ">
<polygon fill="white" stroke="black" points="355.64,-168.5 355.64,-187.5 403.64,-187.5 403.64,-168.5 355.64,-168.5"/>
<text text-anchor="middle" x="379.64" y="-175.5" font-family="Consolas" font-size="10.00">math.h</text>
</a>
</g>
</g>
<!-- Node4&#45;&gt;Node10 -->
<g id="edge13" class="edge">
<title>Node4&#45;&gt;Node10</title>
<path fill="none" stroke="midnightblue" d="M246.68,-224.44C273.49,-215.28 316.2,-200.68 345.95,-190.52"/>
<polygon fill="midnightblue" stroke="midnightblue" points="347.17,-193.8 355.5,-187.25 344.91,-187.17 347.17,-193.8"/>
</g>
<!-- Node6 -->
<g id="node6" class="node">
<title>Node6</title>
<g id="a_node6"><a xlink:title=" ">
<polygon fill="white" stroke="#bfbfbf" points="69.14,-0.5 69.14,-19.5 138.14,-19.5 138.14,-0.5 69.14,-0.5"/>
<text text-anchor="middle" x="103.64" y="-7.5" font-family="Consolas" font-size="10.00">stdalign.h</text>
</a>
</g>
</g>
<!-- Node5&#45;&gt;Node6 -->
<g id="edge5" class="edge">
<title>Node5&#45;&gt;Node6</title>
<path fill="none" stroke="midnightblue" d="M103.64,-56.08C103.64,-49.01 103.64,-38.86 103.64,-29.99"/>
<polygon fill="midnightblue" stroke="midnightblue" points="107.14,-29.75 103.64,-19.75 100.14,-29.75 107.14,-29.75"/>
</g>
<!-- Node7&#45;&gt;Node5 -->
<g id="edge7" class="edge">
<title>Node7&#45;&gt;Node5</title>
<path fill="none" stroke="midnightblue" d="M135.37,-112.08C130,-104.46 122.13,-93.26 115.56,-83.94"/>
<polygon fill="midnightblue" stroke="midnightblue" points="118.42,-81.91 109.8,-75.75 112.69,-85.94 118.42,-81.91"/>
</g>
<!-- Node8&#45;&gt;Node5 -->
<g id="edge9" class="edge">
<title>Node8&#45;&gt;Node5</title>
<path fill="none" stroke="midnightblue" d="M217.15,-168.37C215.95,-154.84 211.83,-128.46 197.64,-112 184.39,-96.62 164.69,-86.08 146.75,-79.09"/>
<polygon fill="midnightblue" stroke="midnightblue" points="147.6,-75.67 137.01,-75.56 145.22,-82.26 147.6,-75.67"/>
</g>
<!-- Node8&#45;&gt;Node7 -->
<g id="edge10" class="edge">
<title>Node8&#45;&gt;Node7</title>
<path fill="none" stroke="midnightblue" d="M205.43,-168.32C193.87,-160.11 176.27,-147.6 162.48,-137.81"/>
<polygon fill="midnightblue" stroke="midnightblue" points="164.26,-134.77 154.08,-131.83 160.2,-140.48 164.26,-134.77"/>
</g>
<!-- Node9&#45;&gt;Node5 -->
<g id="edge12" class="edge">
<title>Node9&#45;&gt;Node5</title>
<path fill="none" stroke="midnightblue" d="M67.8,-168.49C71.04,-155.97 77.55,-131.94 84.64,-112 87.88,-102.9 92,-92.99 95.57,-84.79"/>
<polygon fill="midnightblue" stroke="midnightblue" points="98.84,-86.07 99.7,-75.51 92.44,-83.22 98.84,-86.07"/>
</g>
<!-- Node10&#45;&gt;Node1 -->
<g id="edge17" class="edge">
<title>Node10&#45;&gt;Node1</title>
<path fill="none" stroke="midnightblue" d="M377.73,-187.57C372.01,-213.23 354.92,-289.92 346.89,-325.93"/>
<polygon fill="midnightblue" stroke="midnightblue" points="343.39,-325.55 344.63,-336.08 350.22,-327.08 343.39,-325.55"/>
</g>
<!-- Node11 -->
<g id="node11" class="node">
<title>Node11</title>
<g id="a_node11"><a xlink:href="constants_8h.html" target="_top" xlink:title=" ">
<polygon fill="white" stroke="black" points="456.14,-112.5 456.14,-131.5 593.14,-131.5 593.14,-112.5 456.14,-112.5"/>
<text text-anchor="middle" x="524.64" y="-119.5" font-family="Consolas" font-size="10.00">libccc/math/constants.h</text>
</a>
</g>
</g>
<!-- Node10&#45;&gt;Node11 -->
<g id="edge14" class="edge">
<title>Node10&#45;&gt;Node11</title>
<path fill="none" stroke="midnightblue" d="M402.62,-168.44C426.8,-159.44 465.06,-145.19 492.29,-135.05"/>
<polygon fill="midnightblue" stroke="midnightblue" points="493.63,-138.29 501.78,-131.52 491.18,-131.73 493.63,-138.29"/>
</g>
<!-- Node13 -->
<g id="node13" class="node">
<title>Node13</title>
<g id="a_node13"><a xlink:href="math_2fixed_8h.html" target="_top" xlink:title=" ">
<polygon fill="white" stroke="black" points="611.64,-112.5 611.64,-131.5 727.64,-131.5 727.64,-112.5 611.64,-112.5"/>
<text text-anchor="middle" x="669.64" y="-119.5" font-family="Consolas" font-size="10.00">libccc/math/fixed.h</text>
</a>
</g>
</g>
<!-- Node10&#45;&gt;Node13 -->
<g id="edge18" class="edge">
<title>Node10&#45;&gt;Node13</title>
<path fill="none" stroke="midnightblue" d="M403.87,-172.49C449.81,-163.94 550.64,-145.16 614.05,-133.35"/>
<polygon fill="midnightblue" stroke="midnightblue" points="614.7,-136.79 623.89,-131.52 613.42,-129.91 614.7,-136.79"/>
</g>
<!-- Node15 -->
<g id="node15" class="node">
<title>Node15</title>
<g id="a_node15"><a xlink:href="math_2float_8h.html" target="_top" xlink:title=" ">
<polygon fill="white" stroke="black" points="321.64,-112.5 321.64,-131.5 437.64,-131.5 437.64,-112.5 321.64,-112.5"/>
<text text-anchor="middle" x="379.64" y="-119.5" font-family="Consolas" font-size="10.00">libccc/math/float.h</text>
</a>
</g>
</g>
<!-- Node10&#45;&gt;Node15 -->
<g id="edge21" class="edge">
<title>Node10&#45;&gt;Node15</title>
<path fill="none" stroke="midnightblue" d="M379.64,-168.08C379.64,-161.01 379.64,-150.86 379.64,-141.99"/>
<polygon fill="midnightblue" stroke="midnightblue" points="383.14,-141.75 379.64,-131.75 376.14,-141.75 383.14,-141.75"/>
</g>
<!-- Node12 -->
<g id="node12" class="node">
<title>Node12</title>
<g id="a_node12"><a xlink:href="float_8h.html" target="_top" xlink:title=" ">
<polygon fill="white" stroke="black" points="334.64,-56.5 334.64,-75.5 424.64,-75.5 424.64,-56.5 334.64,-56.5"/>
<text text-anchor="middle" x="379.64" y="-63.5" font-family="Consolas" font-size="10.00">libccc/float.h</text>
</a>
</g>
</g>
<!-- Node11&#45;&gt;Node12 -->
<g id="edge15" class="edge">
<title>Node11&#45;&gt;Node12</title>
<path fill="none" stroke="midnightblue" d="M501.67,-112.44C477.49,-103.44 439.23,-89.19 412,-79.05"/>
<polygon fill="midnightblue" stroke="midnightblue" points="413.1,-75.73 402.51,-75.52 410.66,-82.29 413.1,-75.73"/>
</g>
<!-- Node12&#45;&gt;Node4 -->
<g id="edge16" class="edge">
<title>Node12&#45;&gt;Node4</title>
<path fill="none" stroke="midnightblue" d="M362.17,-75.52C347.49,-83.37 326.7,-96.19 312.64,-112 287.42,-140.37 297.09,-158.14 273.64,-188 264.66,-199.44 252.44,-210.19 242.11,-218.31"/>
<polygon fill="midnightblue" stroke="midnightblue" points="239.84,-215.64 233.98,-224.47 244.07,-221.22 239.84,-215.64"/>
</g>
<!-- Node14 -->
<g id="node14" class="node">
<title>Node14</title>
<g id="a_node14"><a xlink:href="fixed_8h.html" target="_top" xlink:title=" ">
<polygon fill="white" stroke="black" points="667.64,-56.5 667.64,-75.5 757.64,-75.5 757.64,-56.5 667.64,-56.5"/>
<text text-anchor="middle" x="712.64" y="-63.5" font-family="Consolas" font-size="10.00">libccc/fixed.h</text>
</a>
</g>
</g>
<!-- Node13&#45;&gt;Node14 -->
<g id="edge19" class="edge">
<title>Node13&#45;&gt;Node14</title>
<path fill="none" stroke="midnightblue" d="M676.74,-112.08C682.88,-104.38 691.91,-93.03 699.38,-83.65"/>
<polygon fill="midnightblue" stroke="midnightblue" points="702.18,-85.75 705.68,-75.75 696.71,-81.39 702.18,-85.75"/>
</g>
<!-- Node14&#45;&gt;Node4 -->
<g id="edge20" class="edge">
<title>Node14&#45;&gt;Node4</title>
<path fill="none" stroke="midnightblue" d="M720.99,-75.92C732.57,-89.38 750.58,-115.11 736.64,-132 668.23,-214.94 366.88,-201.97 261.64,-224 261.54,-224.02 261.43,-224.04 261.33,-224.07"/>
<polygon fill="midnightblue" stroke="midnightblue" points="260.37,-220.69 251.33,-226.22 261.84,-227.54 260.37,-220.69"/>
</g>
<!-- Node15&#45;&gt;Node12 -->
<g id="edge22" class="edge">
<title>Node15&#45;&gt;Node12</title>
<path fill="none" stroke="midnightblue" d="M379.64,-112.08C379.64,-105.01 379.64,-94.86 379.64,-85.99"/>
<polygon fill="midnightblue" stroke="midnightblue" points="383.14,-85.75 379.64,-75.75 376.14,-85.75 383.14,-85.75"/>
</g>
</g>
</svg>
