<?xml version="1.0" encoding="UTF-8" standalone="no"?>
<!DOCTYPE svg PUBLIC "-//W3C//DTD SVG 1.1//EN"
 "http://www.w3.org/Graphics/SVG/1.1/DTD/svg11.dtd">
<!-- Generated by graphviz version 2.50.0 (20211204.2007)
 -->
<!-- Title: libccc/math/math.h Pages: 1 -->
<svg width="468pt" height="420pt"
 viewBox="0.00 0.00 468.00 420.00" xmlns="http://www.w3.org/2000/svg" xmlns:xlink="http://www.w3.org/1999/xlink">
<g id="graph0" class="graph" transform="scale(1 1) rotate(0) translate(4 416)">
<title>libccc/math/math.h</title>
<polygon fill="white" stroke="transparent" points="-4,4 -4,-416 464,-416 464,4 -4,4"/>
<!-- Node1 -->
<g id="node1" class="node">
<title>Node1</title>
<g id="a_node1"><a xlink:title=" ">
<polygon fill="#bfbfbf" stroke="black" points="195.5,-392.5 195.5,-411.5 295.5,-411.5 295.5,-392.5 195.5,-392.5"/>
<text text-anchor="middle" x="245.5" y="-399.5" font-family="Consolas" font-size="10.00">libccc/math/math.h</text>
</a>
</g>
</g>
<!-- Node2 -->
<g id="node2" class="node">
<title>Node2</title>
<g id="a_node2"><a xlink:href="constants_8h.html" target="_top" xlink:title=" ">
<polygon fill="white" stroke="black" points="0,-336.5 0,-355.5 121,-355.5 121,-336.5 0,-336.5"/>
<text text-anchor="middle" x="60.5" y="-343.5" font-family="Consolas" font-size="10.00">libccc/math/constants.h</text>
</a>
</g>
</g>
<!-- Node1&#45;&gt;Node2 -->
<g id="edge1" class="edge">
<title>Node1&#45;&gt;Node2</title>
<path fill="none" stroke="midnightblue" d="M216.19,-392.44C184.66,-383.24 134.37,-368.56 99.51,-358.39"/>
<polygon fill="midnightblue" stroke="midnightblue" points="100.26,-354.96 89.68,-355.52 98.3,-361.68 100.26,-354.96"/>
</g>
<!-- Node10 -->
<g id="node10" class="node">
<title>Node10</title>
<g id="a_node10"><a xlink:href="math_2int_8h.html" target="_top" xlink:title=" ">
<polygon fill="white" stroke="black" points="371,-336.5 371,-355.5 460,-355.5 460,-336.5 371,-336.5"/>
<text text-anchor="middle" x="415.5" y="-343.5" font-family="Consolas" font-size="10.00">libccc/math/int.h</text>
</a>
</g>
</g>
<!-- Node1&#45;&gt;Node10 -->
<g id="edge13" class="edge">
<title>Node1&#45;&gt;Node10</title>
<path fill="none" stroke="midnightblue" d="M272.44,-392.44C301.16,-383.32 346.83,-368.81 378.82,-358.65"/>
<polygon fill="midnightblue" stroke="midnightblue" points="380.22,-361.88 388.69,-355.52 378.1,-355.21 380.22,-361.88"/>
</g>
<!-- Node13 -->
<g id="node13" class="node">
<title>Node13</title>
<g id="a_node13"><a xlink:href="math_2fixed_8h.html" target="_top" xlink:title=" ">
<polygon fill="white" stroke="black" points="254,-336.5 254,-355.5 353,-355.5 353,-336.5 254,-336.5"/>
<text text-anchor="middle" x="303.5" y="-343.5" font-family="Consolas" font-size="10.00">libccc/math/fixed.h</text>
</a>
</g>
</g>
<!-- Node1&#45;&gt;Node13 -->
<g id="edge17" class="edge">
<title>Node1&#45;&gt;Node13</title>
<path fill="none" stroke="midnightblue" d="M254.82,-392.32C263.39,-384.34 276.31,-372.31 286.69,-362.65"/>
<polygon fill="midnightblue" stroke="midnightblue" points="289.08,-365.21 294.01,-355.83 284.31,-360.09 289.08,-365.21"/>
</g>
<!-- Node15 -->
<g id="node15" class="node">
<title>Node15</title>
<g id="a_node15"><a xlink:href="math_2float_8h.html" target="_top" xlink:title=" ">
<polygon fill="white" stroke="black" points="139,-336.5 139,-355.5 236,-355.5 236,-336.5 139,-336.5"/>
<text text-anchor="middle" x="187.5" y="-343.5" font-family="Consolas" font-size="10.00">libccc/math/float.h</text>
</a>
</g>
</g>
<!-- Node1&#45;&gt;Node15 -->
<g id="edge20" class="edge">
<title>Node1&#45;&gt;Node15</title>
<path fill="none" stroke="midnightblue" d="M236.18,-392.32C227.61,-384.34 214.69,-372.31 204.31,-362.65"/>
<polygon fill="midnightblue" stroke="midnightblue" points="206.69,-360.09 196.99,-355.83 201.92,-365.21 206.69,-360.09"/>
</g>
<!-- Node3 -->
<g id="node3" class="node">
<title>Node3</title>
<g id="a_node3"><a xlink:href="float_8h.html" target="_top" xlink:title=" ">
<polygon fill="white" stroke="black" points="151.5,-280.5 151.5,-299.5 223.5,-299.5 223.5,-280.5 151.5,-280.5"/>
<text text-anchor="middle" x="187.5" y="-287.5" font-family="Consolas" font-size="10.00">libccc/float.h</text>
</a>
</g>
</g>
<!-- Node2&#45;&gt;Node3 -->
<g id="edge2" class="edge">
<title>Node2&#45;&gt;Node3</title>
<path fill="none" stroke="midnightblue" d="M80.62,-336.44C101.52,-327.56 134.43,-313.56 158.22,-303.45"/>
<polygon fill="midnightblue" stroke="midnightblue" points="159.64,-306.65 167.47,-299.52 156.9,-300.21 159.64,-306.65"/>
</g>
<!-- Node4 -->
<g id="node4" class="node">
<title>Node4</title>
<g id="a_node4"><a xlink:href="libccc_8h.html" target="_top" xlink:title=" ">
<polygon fill="white" stroke="black" points="278.5,-224.5 278.5,-243.5 328.5,-243.5 328.5,-224.5 278.5,-224.5"/>
<text text-anchor="middle" x="303.5" y="-231.5" font-family="Consolas" font-size="10.00">libccc.h</text>
</a>
</g>
</g>
<!-- Node3&#45;&gt;Node4 -->
<g id="edge3" class="edge">
<title>Node3&#45;&gt;Node4</title>
<path fill="none" stroke="midnightblue" d="M205.88,-280.44C224.72,-271.68 254.23,-257.94 275.88,-247.86"/>
<polygon fill="midnightblue" stroke="midnightblue" points="277.62,-250.91 285.21,-243.52 274.66,-244.56 277.62,-250.91"/>
</g>
<!-- Node5 -->
<g id="node5" class="node">
<title>Node5</title>
<g id="a_node5"><a xlink:href="libccc__define_8h.html" target="_top" xlink:title=" ">
<polygon fill="white" stroke="black" points="263.5,-56.5 263.5,-75.5 345.5,-75.5 345.5,-56.5 263.5,-56.5"/>
<text text-anchor="middle" x="304.5" y="-63.5" font-family="Consolas" font-size="10.00">libccc_define.h</text>
</a>
</g>
</g>
<!-- Node4&#45;&gt;Node5 -->
<g id="edge4" class="edge">
<title>Node4&#45;&gt;Node5</title>
<path fill="none" stroke="midnightblue" d="M289.72,-224.42C260.19,-204.93 195.54,-155.61 221.5,-112 230.6,-96.72 246.89,-86.31 262.64,-79.39"/>
<polygon fill="midnightblue" stroke="midnightblue" points="264.33,-82.48 272.32,-75.51 261.73,-75.98 264.33,-82.48"/>
</g>
<!-- Node7 -->
<g id="node7" class="node">
<title>Node7</title>
<g id="a_node7"><a xlink:href="libccc__errors_8h.html" target="_top" xlink:title=" ">
<polygon fill="white" stroke="black" points="230.5,-112.5 230.5,-131.5 310.5,-131.5 310.5,-112.5 230.5,-112.5"/>
<text text-anchor="middle" x="270.5" y="-119.5" font-family="Consolas" font-size="10.00">libccc_errors.h</text>
</a>
</g>
</g>
<!-- Node4&#45;&gt;Node7 -->
<g id="edge6" class="edge">
<title>Node4&#45;&gt;Node7</title>
<path fill="none" stroke="midnightblue" d="M300.49,-224.42C297.36,-215.39 292.39,-200.76 288.5,-188 283.75,-172.42 278.85,-154.59 275.36,-141.55"/>
<polygon fill="midnightblue" stroke="midnightblue" points="278.74,-140.64 272.8,-131.87 271.98,-142.44 278.74,-140.64"/>
</g>
<!-- Node8 -->
<g id="node8" class="node">
<title>Node8</title>
<g id="a_node8"><a xlink:href="libccc__config_8h.html" target="_top" xlink:title=" ">
<polygon fill="white" stroke="black" points="297.5,-168.5 297.5,-187.5 379.5,-187.5 379.5,-168.5 297.5,-168.5"/>
<text text-anchor="middle" x="338.5" y="-175.5" font-family="Consolas" font-size="10.00">libccc_config.h</text>
</a>
</g>
</g>
<!-- Node4&#45;&gt;Node8 -->
<g id="edge8" class="edge">
<title>Node4&#45;&gt;Node8</title>
<path fill="none" stroke="midnightblue" d="M309.28,-224.08C314.17,-216.53 321.33,-205.49 327.33,-196.23"/>
<polygon fill="midnightblue" stroke="midnightblue" points="330.33,-198.05 332.83,-187.75 324.45,-194.24 330.33,-198.05"/>
</g>
<!-- Node9 -->
<g id="node9" class="node">
<title>Node9</title>
<g id="a_node9"><a xlink:href="libccc__naming_8h.html" target="_top" xlink:title=" ">
<polygon fill="white" stroke="black" points="367,-112.5 367,-131.5 454,-131.5 454,-112.5 367,-112.5"/>
<text text-anchor="middle" x="410.5" y="-119.5" font-family="Consolas" font-size="10.00">libccc_naming.h</text>
</a>
</g>
</g>
<!-- Node4&#45;&gt;Node9 -->
<g id="edge11" class="edge">
<title>Node4&#45;&gt;Node9</title>
<path fill="none" stroke="midnightblue" d="M328.73,-225.36C347.62,-218.43 372.81,-206.44 388.5,-188 399.71,-174.83 405.28,-155.69 408,-141.59"/>
<polygon fill="midnightblue" stroke="midnightblue" points="411.48,-142 409.63,-131.57 404.57,-140.88 411.48,-142"/>
</g>
<!-- Node6 -->
<g id="node6" class="node">
<title>Node6</title>
<g id="a_node6"><a xlink:title=" ">
<polygon fill="white" stroke="#bfbfbf" points="275,-0.5 275,-19.5 334,-19.5 334,-0.5 275,-0.5"/>
<text text-anchor="middle" x="304.5" y="-7.5" font-family="Consolas" font-size="10.00">stdalign.h</text>
</a>
</g>
</g>
<!-- Node5&#45;&gt;Node6 -->
<g id="edge5" class="edge">
<title>Node5&#45;&gt;Node6</title>
<path fill="none" stroke="midnightblue" d="M304.5,-56.08C304.5,-49.01 304.5,-38.86 304.5,-29.99"/>
<polygon fill="midnightblue" stroke="midnightblue" points="308,-29.75 304.5,-19.75 301,-29.75 308,-29.75"/>
</g>
<!-- Node7&#45;&gt;Node5 -->
<g id="edge7" class="edge">
<title>Node7&#45;&gt;Node5</title>
<path fill="none" stroke="midnightblue" d="M276.11,-112.08C280.87,-104.53 287.82,-93.49 293.65,-84.23"/>
<polygon fill="midnightblue" stroke="midnightblue" points="296.62,-86.08 298.99,-75.75 290.7,-82.35 296.62,-86.08"/>
</g>
<!-- Node8&#45;&gt;Node5 -->
<g id="edge9" class="edge">
<title>Node8&#45;&gt;Node5</title>
<path fill="none" stroke="midnightblue" d="M336.02,-168.14C332.49,-155.6 325.75,-131.97 319.5,-112 316.73,-103.15 313.5,-93.37 310.74,-85.2"/>
<polygon fill="midnightblue" stroke="midnightblue" points="314.01,-83.94 307.47,-75.6 307.38,-86.19 314.01,-83.94"/>
</g>
<!-- Node8&#45;&gt;Node7 -->
<g id="edge10" class="edge">
<title>Node8&#45;&gt;Node7</title>
<path fill="none" stroke="midnightblue" d="M327.57,-168.32C317.33,-160.18 301.78,-147.84 289.5,-138.09"/>
<polygon fill="midnightblue" stroke="midnightblue" points="291.63,-135.31 281.62,-131.83 287.28,-140.79 291.63,-135.31"/>
</g>
<!-- Node9&#45;&gt;Node5 -->
<g id="edge12" class="edge">
<title>Node9&#45;&gt;Node5</title>
<path fill="none" stroke="midnightblue" d="M393.47,-112.32C376.47,-103.66 350.12,-90.24 330.51,-80.25"/>
<polygon fill="midnightblue" stroke="midnightblue" points="331.99,-77.08 321.49,-75.65 328.81,-83.31 331.99,-77.08"/>
</g>
<!-- Node11 -->
<g id="node11" class="node">
<title>Node11</title>
<g id="a_node11"><a xlink:href="int_8h.html" target="_top" xlink:title=" ">
<polygon fill="white" stroke="black" points="370.5,-280.5 370.5,-299.5 434.5,-299.5 434.5,-280.5 370.5,-280.5"/>
<text text-anchor="middle" x="402.5" y="-287.5" font-family="Consolas" font-size="10.00">libccc/int.h</text>
</a>
</g>
</g>
<!-- Node10&#45;&gt;Node11 -->
<g id="edge14" class="edge">
<title>Node10&#45;&gt;Node11</title>
<path fill="none" stroke="midnightblue" d="M413.35,-336.08C411.63,-328.93 409.15,-318.64 407,-309.69"/>
<polygon fill="midnightblue" stroke="midnightblue" points="410.35,-308.65 404.61,-299.75 403.54,-310.29 410.35,-308.65"/>
</g>
<!-- Node11&#45;&gt;Node4 -->
<g id="edge16" class="edge">
<title>Node11&#45;&gt;Node4</title>
<path fill="none" stroke="midnightblue" d="M386.59,-280.32C370.86,-271.74 346.56,-258.49 328.29,-248.52"/>
<polygon fill="midnightblue" stroke="midnightblue" points="329.82,-245.37 319.37,-243.65 326.47,-251.52 329.82,-245.37"/>
</g>
<!-- Node12 -->
<g id="node12" class="node">
<title>Node12</title>
<g id="a_node12"><a xlink:title=" ">
<polygon fill="white" stroke="#bfbfbf" points="378,-224.5 378,-243.5 427,-243.5 427,-224.5 378,-224.5"/>
<text text-anchor="middle" x="402.5" y="-231.5" font-family="Consolas" font-size="10.00">stdint.h</text>
</a>
</g>
</g>
<!-- Node11&#45;&gt;Node12 -->
<g id="edge15" class="edge">
<title>Node11&#45;&gt;Node12</title>
<path fill="none" stroke="midnightblue" d="M402.5,-280.08C402.5,-273.01 402.5,-262.86 402.5,-253.99"/>
<polygon fill="midnightblue" stroke="midnightblue" points="406,-253.75 402.5,-243.75 399,-253.75 406,-253.75"/>
</g>
<!-- Node14 -->
<g id="node14" class="node">
<title>Node14</title>
<g id="a_node14"><a xlink:href="fixed_8h.html" target="_top" xlink:title=" ">
<polygon fill="white" stroke="black" points="266.5,-280.5 266.5,-299.5 340.5,-299.5 340.5,-280.5 266.5,-280.5"/>
<text text-anchor="middle" x="303.5" y="-287.5" font-family="Consolas" font-size="10.00">libccc/fixed.h</text>
</a>
</g>
</g>
<!-- Node13&#45;&gt;Node14 -->
<g id="edge18" class="edge">
<title>Node13&#45;&gt;Node14</title>
<path fill="none" stroke="midnightblue" d="M303.5,-336.08C303.5,-329.01 303.5,-318.86 303.5,-309.99"/>
<polygon fill="midnightblue" stroke="midnightblue" points="307,-309.75 303.5,-299.75 300,-309.75 307,-309.75"/>
</g>
<!-- Node14&#45;&gt;Node4 -->
<g id="edge19" class="edge">
<title>Node14&#45;&gt;Node4</title>
<path fill="none" stroke="midnightblue" d="M303.5,-280.08C303.5,-273.01 303.5,-262.86 303.5,-253.99"/>
<polygon fill="midnightblue" stroke="midnightblue" points="307,-253.75 303.5,-243.75 300,-253.75 307,-253.75"/>
</g>
<!-- Node15&#45;&gt;Node3 -->
<g id="edge21" class="edge">
<title>Node15&#45;&gt;Node3</title>
<path fill="none" stroke="midnightblue" d="M187.5,-336.08C187.5,-329.01 187.5,-318.86 187.5,-309.99"/>
<polygon fill="midnightblue" stroke="midnightblue" points="191,-309.75 187.5,-299.75 184,-309.75 191,-309.75"/>
</g>
</g>
</svg>
