<?xml version="1.0" encoding="UTF-8" standalone="no"?>
<!DOCTYPE svg PUBLIC "-//W3C//DTD SVG 1.1//EN"
 "http://www.w3.org/Graphics/SVG/1.1/DTD/svg11.dtd">
<!-- Generated by graphviz version 2.43.0 (0)
 -->
<!-- Title: libccc/math/fixed.h Pages: 1 -->
<!--zoomable 364 -->
<svg id="main" version="1.1" xmlns="http://www.w3.org/2000/svg" xmlns:xlink="http://www.w3.org/1999/xlink" xml:space="preserve" onload="init(evt)">
<style type="text/css"><![CDATA[
.edge:hover path { stroke: red; }
.edge:hover polygon { stroke: red; fill: red; }
]]></style>
<script type="text/javascript"><![CDATA[
var edges = document.getElementsByTagName('g');
if (edges && edges.length) {
  for (var i=0;i<edges.length;i++) {
    if (edges[i].id.substr(0,4)=='edge') {
      edges[i].setAttribute('class','edge');
    }
  }
}
]]></script>
        <defs>
                <circle id="rim" cx="0" cy="0" r="7"/>
                <circle id="rim2" cx="0" cy="0" r="3.5"/>
                <g id="zoomPlus">
                        <use xlink:href="#rim" fill="#404040">
                                <set attributeName="fill" to="#808080" begin="zoomplus.mouseover" end="zoomplus.mouseout"/>
                        </use>
                        <path d="M-4,0h8M0,-4v8" fill="none" stroke="white" stroke-width="1.5" pointer-events="none"/>
                </g>
                <g id="zoomMin">
                        <use xlink:href="#rim" fill="#404040">
                                <set attributeName="fill" to="#808080" begin="zoomminus.mouseover" end="zoomminus.mouseout"/>
                        </use>
                        <path d="M-4,0h8" fill="none" stroke="white" stroke-width="1.5" pointer-events="none"/>
                </g>
                <g id="dirArrow">
                        <path fill="none" stroke="white" stroke-width="1.5" d="M0,-3.0v7 M-2.5,-0.5L0,-3.0L2.5,-0.5"/>
                </g>
               <g id="resetDef">
                       <use xlink:href="#rim2" fill="#404040">
                               <set attributeName="fill" to="#808080" begin="reset.mouseover" end="reset.mouseout"/>
                       </use>
               </g>
        </defs>

<script type="text/javascript">
var viewWidth = 753;
var viewHeight = 364;
var sectionId = 'dynsection-0';
</script>
<script xlink:href="svgpan.js"/>
<svg id="graph" class="graph">
<g id="viewport">
<title>libccc/math/fixed.h</title>
<polygon fill="white" stroke="transparent" points="-4,4 -4,-360 748.69,-360 748.69,4 -4,4"/>
<!-- Node1 -->
<g id="node1" class="node">
<title>Node1</title>
<g id="a_node1"><a xlink:title=" ">
<polygon fill="#bfbfbf" stroke="black" points="250.69,-336.5 250.69,-355.5 366.69,-355.5 366.69,-336.5 250.69,-336.5"/>
<text text-anchor="middle" x="308.69" y="-343.5" font-family="Consolas" font-size="10.00">libccc/math/fixed.h</text>
</a>
</g>
</g>
<!-- Node2 -->
<g id="node2" class="node">
<title>Node2</title>
<g id="a_node2"><a xlink:href="fixed_8h.html" target="_top" xlink:title=" ">
<polygon fill="white" stroke="black" points="227.69,-280.5 227.69,-299.5 317.69,-299.5 317.69,-280.5 227.69,-280.5"/>
<text text-anchor="middle" x="272.69" y="-287.5" font-family="Consolas" font-size="10.00">libccc/fixed.h</text>
</a>
</g>
</g>
<!-- Node1&#45;&gt;Node2 -->
<g id="edge1" class="edge">
<title>Node1&#45;&gt;Node2</title>
<path fill="none" stroke="midnightblue" d="M302.75,-336.08C297.71,-328.53 290.36,-317.49 284.18,-308.23"/>
<polygon fill="midnightblue" stroke="midnightblue" points="286.99,-306.13 278.53,-299.75 281.16,-310.01 286.99,-306.13"/>
</g>
<!-- Node3 -->
<g id="node3" class="node">
<title>Node3</title>
<g id="a_node3"><a xlink:href="libccc_8h.html" target="_top" xlink:title=" ">
<polygon fill="white" stroke="black" points="199.19,-224.5 199.19,-243.5 258.19,-243.5 258.19,-224.5 199.19,-224.5"/>
<text text-anchor="middle" x="228.69" y="-231.5" font-family="Consolas" font-size="10.00">libccc.h</text>
</a>
</g>
</g>
<!-- Node2&#45;&gt;Node3 -->
<g id="edge2" class="edge">
<title>Node2&#45;&gt;Node3</title>
<path fill="none" stroke="midnightblue" d="M265.43,-280.08C259.15,-272.38 249.9,-261.03 242.26,-251.65"/>
<polygon fill="midnightblue" stroke="midnightblue" points="244.85,-249.29 235.82,-243.75 239.43,-253.71 244.85,-249.29"/>
</g>
<!-- Node4 -->
<g id="node4" class="node">
<title>Node4</title>
<g id="a_node4"><a xlink:href="libccc__define_8h.html" target="_top" xlink:title=" ">
<polygon fill="white" stroke="black" points="56.19,-56.5 56.19,-75.5 151.19,-75.5 151.19,-56.5 56.19,-56.5"/>
<text text-anchor="middle" x="103.69" y="-63.5" font-family="Consolas" font-size="10.00">libccc_define.h</text>
</a>
</g>
</g>
<!-- Node3&#45;&gt;Node4 -->
<g id="edge3" class="edge">
<title>Node3&#45;&gt;Node4</title>
<path fill="none" stroke="midnightblue" d="M199.18,-231.43C144.86,-227.87 32.42,-217.07 8.69,-188 -22.6,-149.66 41.18,-103.43 78.8,-80.82"/>
<polygon fill="midnightblue" stroke="midnightblue" points="80.86,-83.67 87.72,-75.6 77.32,-77.62 80.86,-83.67"/>
</g>
<!-- Node6 -->
<g id="node6" class="node">
<title>Node6</title>
<g id="a_node6"><a xlink:href="libccc__errors_8h.html" target="_top" xlink:title=" ">
<polygon fill="white" stroke="black" points="94.19,-112.5 94.19,-131.5 189.19,-131.5 189.19,-112.5 94.19,-112.5"/>
<text text-anchor="middle" x="141.69" y="-119.5" font-family="Consolas" font-size="10.00">libccc_errors.h</text>
</a>
</g>
</g>
<!-- Node3&#45;&gt;Node6 -->
<g id="edge5" class="edge">
<title>Node3&#45;&gt;Node6</title>
<path fill="none" stroke="midnightblue" d="M208.61,-224.43C193.35,-216.93 172.96,-204.64 160.69,-188 150.77,-174.54 146.01,-155.98 143.74,-142.14"/>
<polygon fill="midnightblue" stroke="midnightblue" points="147.15,-141.28 142.35,-131.84 140.22,-142.21 147.15,-141.28"/>
</g>
<!-- Node7 -->
<g id="node7" class="node">
<title>Node7</title>
<g id="a_node7"><a xlink:href="libccc__config_8h.html" target="_top" xlink:title=" ">
<polygon fill="white" stroke="black" points="170.19,-168.5 170.19,-187.5 265.19,-187.5 265.19,-168.5 170.19,-168.5"/>
<text text-anchor="middle" x="217.69" y="-175.5" font-family="Consolas" font-size="10.00">libccc_config.h</text>
</a>
</g>
</g>
<!-- Node3&#45;&gt;Node7 -->
<g id="edge7" class="edge">
<title>Node3&#45;&gt;Node7</title>
<path fill="none" stroke="midnightblue" d="M226.88,-224.08C225.42,-216.93 223.32,-206.64 221.5,-197.69"/>
<polygon fill="midnightblue" stroke="midnightblue" points="224.9,-196.85 219.47,-187.75 218.04,-198.25 224.9,-196.85"/>
</g>
<!-- Node8 -->
<g id="node8" class="node">
<title>Node8</title>
<g id="a_node8"><a xlink:href="libccc__naming_8h.html" target="_top" xlink:title=" ">
<polygon fill="white" stroke="black" points="18.19,-168.5 18.19,-187.5 113.19,-187.5 113.19,-168.5 18.19,-168.5"/>
<text text-anchor="middle" x="65.69" y="-175.5" font-family="Consolas" font-size="10.00">libccc_naming.h</text>
</a>
</g>
</g>
<!-- Node3&#45;&gt;Node8 -->
<g id="edge10" class="edge">
<title>Node3&#45;&gt;Node8</title>
<path fill="none" stroke="midnightblue" d="M202.86,-224.44C175.44,-215.36 131.91,-200.94 101.26,-190.78"/>
<polygon fill="midnightblue" stroke="midnightblue" points="101.99,-187.34 91.4,-187.52 99.79,-193.98 101.99,-187.34"/>
</g>
<!-- Node9 -->
<g id="node9" class="node">
<title>Node9</title>
<g id="a_node9"><a xlink:href="math_8h.html" target="_top" xlink:title=" ">
<polygon fill="white" stroke="black" points="355.69,-168.5 355.69,-187.5 403.69,-187.5 403.69,-168.5 355.69,-168.5"/>
<text text-anchor="middle" x="379.69" y="-175.5" font-family="Consolas" font-size="10.00">math.h</text>
</a>
</g>
</g>
<!-- Node3&#45;&gt;Node9 -->
<g id="edge12" class="edge">
<title>Node3&#45;&gt;Node9</title>
<path fill="none" stroke="midnightblue" d="M252.62,-224.44C277.91,-215.4 317.99,-201.06 346.37,-190.92"/>
<polygon fill="midnightblue" stroke="midnightblue" points="347.64,-194.18 355.88,-187.52 345.28,-187.59 347.64,-194.18"/>
</g>
<!-- Node5 -->
<g id="node5" class="node">
<title>Node5</title>
<g id="a_node5"><a xlink:title=" ">
<polygon fill="white" stroke="#bfbfbf" points="69.19,-0.5 69.19,-19.5 138.19,-19.5 138.19,-0.5 69.19,-0.5"/>
<text text-anchor="middle" x="103.69" y="-7.5" font-family="Consolas" font-size="10.00">stdalign.h</text>
</a>
</g>
</g>
<!-- Node4&#45;&gt;Node5 -->
<g id="edge4" class="edge">
<title>Node4&#45;&gt;Node5</title>
<path fill="none" stroke="midnightblue" d="M103.69,-56.08C103.69,-49.01 103.69,-38.86 103.69,-29.99"/>
<polygon fill="midnightblue" stroke="midnightblue" points="107.19,-29.75 103.69,-19.75 100.19,-29.75 107.19,-29.75"/>
</g>
<!-- Node6&#45;&gt;Node4 -->
<g id="edge6" class="edge">
<title>Node6&#45;&gt;Node4</title>
<path fill="none" stroke="midnightblue" d="M135.42,-112.08C130.05,-104.46 122.17,-93.26 115.61,-83.94"/>
<polygon fill="midnightblue" stroke="midnightblue" points="118.47,-81.91 109.85,-75.75 112.74,-85.94 118.47,-81.91"/>
</g>
<!-- Node7&#45;&gt;Node4 -->
<g id="edge8" class="edge">
<title>Node7&#45;&gt;Node4</title>
<path fill="none" stroke="midnightblue" d="M217.2,-168.37C216,-154.84 211.88,-128.46 197.69,-112 184.44,-96.62 164.74,-86.08 146.8,-79.09"/>
<polygon fill="midnightblue" stroke="midnightblue" points="147.65,-75.67 137.06,-75.56 145.27,-82.26 147.65,-75.67"/>
</g>
<!-- Node7&#45;&gt;Node6 -->
<g id="edge9" class="edge">
<title>Node7&#45;&gt;Node6</title>
<path fill="none" stroke="midnightblue" d="M205.48,-168.32C193.92,-160.11 176.32,-147.6 162.53,-137.81"/>
<polygon fill="midnightblue" stroke="midnightblue" points="164.3,-134.77 154.12,-131.83 160.25,-140.48 164.3,-134.77"/>
</g>
<!-- Node8&#45;&gt;Node4 -->
<g id="edge11" class="edge">
<title>Node8&#45;&gt;Node4</title>
<path fill="none" stroke="midnightblue" d="M67.85,-168.49C71.09,-155.97 77.6,-131.94 84.69,-112 87.93,-102.9 92.05,-92.99 95.62,-84.79"/>
<polygon fill="midnightblue" stroke="midnightblue" points="98.88,-86.07 99.75,-75.51 92.49,-83.22 98.88,-86.07"/>
</g>
<!-- Node9&#45;&gt;Node1 -->
<g id="edge20" class="edge">
<title>Node9&#45;&gt;Node1</title>
<path fill="none" stroke="midnightblue" d="M376.03,-187.57C364.96,-213.45 331.68,-291.25 316.45,-326.86"/>
<polygon fill="midnightblue" stroke="midnightblue" points="313.22,-325.5 312.51,-336.08 319.66,-328.26 313.22,-325.5"/>
</g>
<!-- Node10 -->
<g id="node10" class="node">
<title>Node10</title>
<g id="a_node10"><a xlink:href="constants_8h.html" target="_top" xlink:title=" ">
<polygon fill="white" stroke="black" points="456.19,-112.5 456.19,-131.5 593.19,-131.5 593.19,-112.5 456.19,-112.5"/>
<text text-anchor="middle" x="524.69" y="-119.5" font-family="Consolas" font-size="10.00">libccc/math/constants.h</text>
</a>
</g>
</g>
<!-- Node9&#45;&gt;Node10 -->
<g id="edge13" class="edge">
<title>Node9&#45;&gt;Node10</title>
<path fill="none" stroke="midnightblue" d="M402.67,-168.44C426.85,-159.44 465.11,-145.19 492.34,-135.05"/>
<polygon fill="midnightblue" stroke="midnightblue" points="493.67,-138.29 501.82,-131.52 491.23,-131.73 493.67,-138.29"/>
</g>
<!-- Node12 -->
<g id="node12" class="node">
<title>Node12</title>
<g id="a_node12"><a xlink:href="math_2int_8h.html" target="_top" xlink:title=" ">
<polygon fill="white" stroke="black" points="611.69,-112.5 611.69,-131.5 717.69,-131.5 717.69,-112.5 611.69,-112.5"/>
<text text-anchor="middle" x="664.69" y="-119.5" font-family="Consolas" font-size="10.00">libccc/math/int.h</text>
</a>
</g>
</g>
<!-- Node9&#45;&gt;Node12 -->
<g id="edge16" class="edge">
<title>Node9&#45;&gt;Node12</title>
<path fill="none" stroke="midnightblue" d="M403.99,-172.4C449.26,-163.82 547.52,-145.2 609.64,-133.43"/>
<polygon fill="midnightblue" stroke="midnightblue" points="610.49,-136.83 619.67,-131.53 609.19,-129.95 610.49,-136.83"/>
</g>
<!-- Node15 -->
<g id="node15" class="node">
<title>Node15</title>
<g id="a_node15"><a xlink:href="math_2float_8h.html" target="_top" xlink:title=" ">
<polygon fill="white" stroke="black" points="321.69,-112.5 321.69,-131.5 437.69,-131.5 437.69,-112.5 321.69,-112.5"/>
<text text-anchor="middle" x="379.69" y="-119.5" font-family="Consolas" font-size="10.00">libccc/math/float.h</text>
</a>
</g>
</g>
<!-- Node9&#45;&gt;Node15 -->
<g id="edge21" class="edge">
<title>Node9&#45;&gt;Node15</title>
<path fill="none" stroke="midnightblue" d="M379.69,-168.08C379.69,-161.01 379.69,-150.86 379.69,-141.99"/>
<polygon fill="midnightblue" stroke="midnightblue" points="383.19,-141.75 379.69,-131.75 376.19,-141.75 383.19,-141.75"/>
</g>
<!-- Node11 -->
<g id="node11" class="node">
<title>Node11</title>
<g id="a_node11"><a xlink:href="float_8h.html" target="_top" xlink:title=" ">
<polygon fill="white" stroke="black" points="334.69,-56.5 334.69,-75.5 424.69,-75.5 424.69,-56.5 334.69,-56.5"/>
<text text-anchor="middle" x="379.69" y="-63.5" font-family="Consolas" font-size="10.00">libccc/float.h</text>
</a>
</g>
</g>
<!-- Node10&#45;&gt;Node11 -->
<g id="edge14" class="edge">
<title>Node10&#45;&gt;Node11</title>
<path fill="none" stroke="midnightblue" d="M501.72,-112.44C477.54,-103.44 439.27,-89.19 412.05,-79.05"/>
<polygon fill="midnightblue" stroke="midnightblue" points="413.15,-75.73 402.56,-75.52 410.71,-82.29 413.15,-75.73"/>
</g>
<!-- Node11&#45;&gt;Node3 -->
<g id="edge15" class="edge">
<title>Node11&#45;&gt;Node3</title>
<path fill="none" stroke="midnightblue" d="M362.22,-75.52C347.53,-83.37 326.75,-96.19 312.69,-112 287.47,-140.37 296.05,-157.32 273.69,-188 265.82,-198.8 255.34,-209.44 246.47,-217.66"/>
<polygon fill="midnightblue" stroke="midnightblue" points="244,-215.18 238.91,-224.47 248.68,-220.38 244,-215.18"/>
</g>
<!-- Node13 -->
<g id="node13" class="node">
<title>Node13</title>
<g id="a_node13"><a xlink:href="int_8h.html" target="_top" xlink:title=" ">
<polygon fill="white" stroke="black" points="664.69,-56.5 664.69,-75.5 744.69,-75.5 744.69,-56.5 664.69,-56.5"/>
<text text-anchor="middle" x="704.69" y="-63.5" font-family="Consolas" font-size="10.00">libccc/int.h</text>
</a>
</g>
</g>
<!-- Node12&#45;&gt;Node13 -->
<g id="edge17" class="edge">
<title>Node12&#45;&gt;Node13</title>
<path fill="none" stroke="midnightblue" d="M671.3,-112.08C676.95,-104.46 685.24,-93.26 692.14,-83.94"/>
<polygon fill="midnightblue" stroke="midnightblue" points="695.07,-85.87 698.21,-75.75 689.45,-81.7 695.07,-85.87"/>
</g>
<!-- Node13&#45;&gt;Node3 -->
<g id="edge19" class="edge">
<title>Node13&#45;&gt;Node3</title>
<path fill="none" stroke="midnightblue" d="M712.23,-75.51C723.13,-88.87 740.57,-115.03 726.69,-132 668.6,-203.05 375.96,-225.33 268.41,-231.18"/>
<polygon fill="midnightblue" stroke="midnightblue" points="268.11,-227.69 258.3,-231.71 268.47,-234.68 268.11,-227.69"/>
</g>
<!-- Node14 -->
<g id="node14" class="node">
<title>Node14</title>
<g id="a_node14"><a xlink:title=" ">
<polygon fill="white" stroke="#bfbfbf" points="675.19,-0.5 675.19,-19.5 734.19,-19.5 734.19,-0.5 675.19,-0.5"/>
<text text-anchor="middle" x="704.69" y="-7.5" font-family="Consolas" font-size="10.00">stdint.h</text>
</a>
</g>
</g>
<!-- Node13&#45;&gt;Node14 -->
<g id="edge18" class="edge">
<title>Node13&#45;&gt;Node14</title>
<path fill="none" stroke="midnightblue" d="M704.69,-56.08C704.69,-49.01 704.69,-38.86 704.69,-29.99"/>
<polygon fill="midnightblue" stroke="midnightblue" points="708.19,-29.75 704.69,-19.75 701.19,-29.75 708.19,-29.75"/>
</g>
<!-- Node15&#45;&gt;Node11 -->
<g id="edge22" class="edge">
<title>Node15&#45;&gt;Node11</title>
<path fill="none" stroke="midnightblue" d="M379.69,-112.08C379.69,-105.01 379.69,-94.86 379.69,-85.99"/>
<polygon fill="midnightblue" stroke="midnightblue" points="383.19,-85.75 379.69,-75.75 376.19,-85.75 383.19,-85.75"/>
</g>
</g>
</svg>
        <g id="navigator" transform="translate(0 0)" fill="#404254">
                <rect fill="#f2f5e9" fill-opacity="0.5" stroke="#606060" stroke-width=".5" x="0" y="0" width="60" height="60"/>
                <use id="zoomplus" xlink:href="#zoomPlus" x="17" y="9" onmousedown="handleZoom(evt,'in')"/>
                <use id="zoomminus" xlink:href="#zoomMin" x="42" y="9" onmousedown="handleZoom(evt,'out')"/>
                <use id="reset" xlink:href="#resetDef" x="30" y="36" onmousedown="handleReset()"/>
                <g id="arrowUp" xlink:href="#dirArrow" transform="translate(30 24)" onmousedown="handlePan(0,-1)">
                  <use xlink:href="#rim" fill="#404040">
                        <set attributeName="fill" to="#808080" begin="arrowUp.mouseover" end="arrowUp.mouseout"/>
                  </use>
                  <path fill="none" stroke="white" stroke-width="1.5" d="M0,-3.0v7 M-2.5,-0.5L0,-3.0L2.5,-0.5"/>
                </g>
                <g id="arrowRight" xlink:href="#dirArrow" transform="rotate(90) translate(36 -43)" onmousedown="handlePan(1,0)">
                  <use xlink:href="#rim" fill="#404040">
                        <set attributeName="fill" to="#808080" begin="arrowRight.mouseover" end="arrowRight.mouseout"/>
                  </use>
                  <path fill="none" stroke="white" stroke-width="1.5" d="M0,-3.0v7 M-2.5,-0.5L0,-3.0L2.5,-0.5"/>
                </g>
                <g id="arrowDown" xlink:href="#dirArrow" transform="rotate(180) translate(-30 -48)" onmousedown="handlePan(0,1)">
                  <use xlink:href="#rim" fill="#404040">
                        <set attributeName="fill" to="#808080" begin="arrowDown.mouseover" end="arrowDown.mouseout"/>
                  </use>
                  <path fill="none" stroke="white" stroke-width="1.5" d="M0,-3.0v7 M-2.5,-0.5L0,-3.0L2.5,-0.5"/>
                </g>
                <g id="arrowLeft" xlink:href="#dirArrow" transform="rotate(270) translate(-36 17)" onmousedown="handlePan(-1,0)">
                  <use xlink:href="#rim" fill="#404040">
                        <set attributeName="fill" to="#808080" begin="arrowLeft.mouseover" end="arrowLeft.mouseout"/>
                  </use>
                  <path fill="none" stroke="white" stroke-width="1.5" d="M0,-3.0v7 M-2.5,-0.5L0,-3.0L2.5,-0.5"/>
                </g>
        </g>
        <svg viewBox="0 0 15 15" width="100%" height="30px" preserveAspectRatio="xMaxYMin meet">
         <g id="arrow_out" transform="scale(0.3 0.3)">
          <a xlink:href="math_2fixed_8h__incl_org.svg" target="_base">
           <rect id="button" ry="5" rx="5" y="6" x="6" height="38" width="38"
                fill="#f2f5e9" fill-opacity="0.5" stroke="#606060" stroke-width="1.0"/>
           <path id="arrow"
             d="M 11.500037,31.436501 C 11.940474,20.09759 22.043105,11.32322 32.158766,21.979434 L 37.068811,17.246167 C 37.068811,17.246167 37.088388,32 37.088388,32 L 22.160133,31.978069 C 22.160133,31.978069 26.997745,27.140456 26.997745,27.140456 C 18.528582,18.264221 13.291696,25.230495 11.500037,31.436501 z"
             style="fill:#404040;"/>
          </a>
         </g>
        </svg>
</svg>
