<?xml version="1.0" encoding="UTF-8" standalone="no"?>
<!DOCTYPE svg PUBLIC "-//W3C//DTD SVG 1.1//EN"
 "http://www.w3.org/Graphics/SVG/1.1/DTD/svg11.dtd">
<!-- Generated by graphviz version 3.0.0 (20220226.1711)
 -->
<!-- Title: libccc/math/math.h Pages: 1 -->
<svg width="468pt" height="420pt"
 viewBox="0.00 0.00 468.00 420.00" xmlns="http://www.w3.org/2000/svg" xmlns:xlink="http://www.w3.org/1999/xlink">
<g id="graph0" class="graph" transform="scale(1 1) rotate(0) translate(4 416)">
<title>libccc/math/math.h</title>
<polygon fill="white" stroke="transparent" points="-4,4 -4,-416 464,-416 464,4 -4,4"/>
<!-- Node1 -->
<g id="node1" class="node">
<title>Node1</title>
<g id="a_node1"><a xlink:title=" ">
<polygon fill="#bfbfbf" stroke="black" points="195.5,-392.5 195.5,-411.5 295.5,-411.5 295.5,-392.5 195.5,-392.5"/>
<text text-anchor="middle" x="245.5" y="-399.5" font-family="Consolas" font-size="10.00">libccc/math/math.h</text>
</a>
</g>
</g>
<!-- Node2 -->
<g id="node2" class="node">
<title>Node2</title>
<g id="a_node2"><a xlink:href="$constants_8h.html" xlink:title=" ">
<polygon fill="white" stroke="black" points="0,-336.5 0,-355.5 121,-355.5 121,-336.5 0,-336.5"/>
<text text-anchor="middle" x="60.5" y="-343.5" font-family="Consolas" font-size="10.00">libccc/math/constants.h</text>
</a>
</g>
</g>
<!-- Node1&#45;&gt;Node2 -->
<g id="edge1" class="edge">
<title>Node1&#45;&gt;Node2</title>
<path fill="none" stroke="midnightblue" d="M216.19,-392.44C184.66,-383.24 134.37,-368.56 99.51,-358.39"/>
<polygon fill="midnightblue" stroke="midnightblue" points="100.26,-354.96 89.68,-355.52 98.3,-361.68 100.26,-354.96"/>
</g>
<!-- Node11 -->
<g id="node11" class="node">
<title>Node11</title>
<g id="a_node11"><a xlink:href="$math_2int_8h.html" xlink:title=" ">
<polygon fill="white" stroke="black" points="371,-336.5 371,-355.5 460,-355.5 460,-336.5 371,-336.5"/>
<text text-anchor="middle" x="415.5" y="-343.5" font-family="Consolas" font-size="10.00">libccc/math/int.h</text>
</a>
</g>
</g>
<!-- Node1&#45;&gt;Node11 -->
<g id="edge14" class="edge">
<title>Node1&#45;&gt;Node11</title>
<path fill="none" stroke="midnightblue" d="M272.44,-392.44C301.16,-383.32 346.83,-368.81 378.82,-358.65"/>
<polygon fill="midnightblue" stroke="midnightblue" points="380.22,-361.88 388.69,-355.52 378.1,-355.21 380.22,-361.88"/>
</g>
<!-- Node14 -->
<g id="node14" class="node">
<title>Node14</title>
<g id="a_node14"><a xlink:href="$math_2fixed_8h.html" xlink:title=" ">
<polygon fill="white" stroke="black" points="254,-336.5 254,-355.5 353,-355.5 353,-336.5 254,-336.5"/>
<text text-anchor="middle" x="303.5" y="-343.5" font-family="Consolas" font-size="10.00">libccc/math/fixed.h</text>
</a>
</g>
</g>
<!-- Node1&#45;&gt;Node14 -->
<g id="edge18" class="edge">
<title>Node1&#45;&gt;Node14</title>
<path fill="none" stroke="midnightblue" d="M254.82,-392.32C263.39,-384.34 276.31,-372.31 286.69,-362.65"/>
<polygon fill="midnightblue" stroke="midnightblue" points="289.08,-365.21 294.01,-355.83 284.31,-360.09 289.08,-365.21"/>
</g>
<!-- Node16 -->
<g id="node16" class="node">
<title>Node16</title>
<g id="a_node16"><a xlink:href="$math_2float_8h.html" xlink:title=" ">
<polygon fill="white" stroke="black" points="139,-336.5 139,-355.5 236,-355.5 236,-336.5 139,-336.5"/>
<text text-anchor="middle" x="187.5" y="-343.5" font-family="Consolas" font-size="10.00">libccc/math/float.h</text>
</a>
</g>
</g>
<!-- Node1&#45;&gt;Node16 -->
<g id="edge21" class="edge">
<title>Node1&#45;&gt;Node16</title>
<path fill="none" stroke="midnightblue" d="M236.18,-392.32C227.61,-384.34 214.69,-372.31 204.31,-362.65"/>
<polygon fill="midnightblue" stroke="midnightblue" points="206.69,-360.09 196.99,-355.83 201.92,-365.21 206.69,-360.09"/>
</g>
<!-- Node3 -->
<g id="node3" class="node">
<title>Node3</title>
<g id="a_node3"><a xlink:href="$float_8h.html" xlink:title=" ">
<polygon fill="white" stroke="black" points="151.5,-280.5 151.5,-299.5 223.5,-299.5 223.5,-280.5 151.5,-280.5"/>
<text text-anchor="middle" x="187.5" y="-287.5" font-family="Consolas" font-size="10.00">libccc/float.h</text>
</a>
</g>
</g>
<!-- Node2&#45;&gt;Node3 -->
<g id="edge2" class="edge">
<title>Node2&#45;&gt;Node3</title>
<path fill="none" stroke="midnightblue" d="M80.62,-336.44C101.52,-327.56 134.43,-313.56 158.22,-303.45"/>
<polygon fill="midnightblue" stroke="midnightblue" points="159.64,-306.65 167.47,-299.52 156.9,-300.21 159.64,-306.65"/>
</g>
<!-- Node4 -->
<g id="node4" class="node">
<title>Node4</title>
<g id="a_node4"><a xlink:href="$libccc_8h.html" xlink:title=" ">
<polygon fill="white" stroke="black" points="278.5,-224.5 278.5,-243.5 328.5,-243.5 328.5,-224.5 278.5,-224.5"/>
<text text-anchor="middle" x="303.5" y="-231.5" font-family="Consolas" font-size="10.00">libccc.h</text>
</a>
</g>
</g>
<!-- Node3&#45;&gt;Node4 -->
<g id="edge3" class="edge">
<title>Node3&#45;&gt;Node4</title>
<path fill="none" stroke="midnightblue" d="M205.88,-280.44C224.72,-271.68 254.23,-257.94 275.88,-247.86"/>
<polygon fill="midnightblue" stroke="midnightblue" points="277.62,-250.91 285.21,-243.52 274.66,-244.56 277.62,-250.91"/>
</g>
<!-- Node5 -->
<g id="node5" class="node">
<title>Node5</title>
<g id="a_node5"><a xlink:href="$libccc__define_8h.html" xlink:title=" ">
<polygon fill="white" stroke="black" points="228.5,-56.5 228.5,-75.5 310.5,-75.5 310.5,-56.5 228.5,-56.5"/>
<text text-anchor="middle" x="269.5" y="-63.5" font-family="Consolas" font-size="10.00">libccc_define.h</text>
</a>
</g>
</g>
<!-- Node4&#45;&gt;Node5 -->
<g id="edge4" class="edge">
<title>Node4&#45;&gt;Node5</title>
<path fill="none" stroke="midnightblue" d="M285.38,-224.37C257.46,-209.88 205.19,-177.7 186.5,-132 183.14,-123.77 181.95,-119.64 186.5,-112 195.6,-96.72 211.89,-86.31 227.64,-79.39"/>
<polygon fill="midnightblue" stroke="midnightblue" points="229.33,-82.48 237.32,-75.51 226.73,-75.98 229.33,-82.48"/>
</g>
<!-- Node7 -->
<g id="node7" class="node">
<title>Node7</title>
<g id="a_node7"><a xlink:href="$libccc__errors_8h.html" xlink:title=" ">
<polygon fill="white" stroke="black" points="195.5,-112.5 195.5,-131.5 275.5,-131.5 275.5,-112.5 195.5,-112.5"/>
<text text-anchor="middle" x="235.5" y="-119.5" font-family="Consolas" font-size="10.00">libccc_errors.h</text>
</a>
</g>
</g>
<!-- Node4&#45;&gt;Node7 -->
<g id="edge6" class="edge">
<title>Node4&#45;&gt;Node7</title>
<path fill="none" stroke="midnightblue" d="M290.07,-224.23C278.72,-216.13 262.84,-203.1 253.5,-188 244.74,-173.84 240.16,-155.36 237.82,-141.72"/>
<polygon fill="midnightblue" stroke="midnightblue" points="241.25,-141 236.33,-131.61 234.32,-142.01 241.25,-141"/>
</g>
<!-- Node8 -->
<g id="node8" class="node">
<title>Node8</title>
<g id="a_node8"><a xlink:href="$libccc__config_8h.html" xlink:title=" ">
<polygon fill="white" stroke="black" points="262.5,-168.5 262.5,-187.5 344.5,-187.5 344.5,-168.5 262.5,-168.5"/>
<text text-anchor="middle" x="303.5" y="-175.5" font-family="Consolas" font-size="10.00">libccc_config.h</text>
</a>
</g>
</g>
<!-- Node4&#45;&gt;Node8 -->
<g id="edge8" class="edge">
<title>Node4&#45;&gt;Node8</title>
<path fill="none" stroke="midnightblue" d="M303.5,-224.08C303.5,-217.01 303.5,-206.86 303.5,-197.99"/>
<polygon fill="midnightblue" stroke="midnightblue" points="307,-197.75 303.5,-187.75 300,-197.75 307,-197.75"/>
</g>
<!-- Node9 -->
<g id="node9" class="node">
<title>Node9</title>
<g id="a_node9"><a xlink:href="$libccc__naming_8h.html" xlink:title=" ">
<polygon fill="white" stroke="black" points="332,-112.5 332,-131.5 419,-131.5 419,-112.5 332,-112.5"/>
<text text-anchor="middle" x="375.5" y="-119.5" font-family="Consolas" font-size="10.00">libccc_naming.h</text>
</a>
</g>
</g>
<!-- Node4&#45;&gt;Node9 -->
<g id="edge11" class="edge">
<title>Node4&#45;&gt;Node9</title>
<path fill="none" stroke="midnightblue" d="M316.28,-224.42C327.53,-216.26 343.61,-203.02 353.5,-188 362.81,-173.85 368.57,-155.37 371.84,-141.73"/>
<polygon fill="midnightblue" stroke="midnightblue" points="375.34,-142.13 374.04,-131.61 368.5,-140.65 375.34,-142.13"/>
</g>
<!-- Node10 -->
<g id="node10" class="node">
<title>Node10</title>
<g id="a_node10"><a xlink:title=" ">
<polygon fill="white" stroke="#bfbfbf" points="401,-168.5 401,-187.5 448,-187.5 448,-168.5 401,-168.5"/>
<text text-anchor="middle" x="424.5" y="-175.5" font-family="Consolas" font-size="10.00">math.h</text>
</a>
</g>
</g>
<!-- Node4&#45;&gt;Node10 -->
<g id="edge13" class="edge">
<title>Node4&#45;&gt;Node10</title>
<path fill="none" stroke="midnightblue" d="M322.67,-224.44C342.41,-215.64 373.39,-201.81 395.99,-191.72"/>
<polygon fill="midnightblue" stroke="midnightblue" points="397.71,-194.79 405.42,-187.52 394.86,-188.4 397.71,-194.79"/>
</g>
<!-- Node6 -->
<g id="node6" class="node">
<title>Node6</title>
<g id="a_node6"><a xlink:title=" ">
<polygon fill="white" stroke="#bfbfbf" points="240,-0.5 240,-19.5 299,-19.5 299,-0.5 240,-0.5"/>
<text text-anchor="middle" x="269.5" y="-7.5" font-family="Consolas" font-size="10.00">stdalign.h</text>
</a>
</g>
</g>
<!-- Node5&#45;&gt;Node6 -->
<g id="edge5" class="edge">
<title>Node5&#45;&gt;Node6</title>
<path fill="none" stroke="midnightblue" d="M269.5,-56.08C269.5,-49.01 269.5,-38.86 269.5,-29.99"/>
<polygon fill="midnightblue" stroke="midnightblue" points="273,-29.75 269.5,-19.75 266,-29.75 273,-29.75"/>
</g>
<!-- Node7&#45;&gt;Node5 -->
<g id="edge7" class="edge">
<title>Node7&#45;&gt;Node5</title>
<path fill="none" stroke="midnightblue" d="M241.11,-112.08C245.87,-104.53 252.82,-93.49 258.65,-84.23"/>
<polygon fill="midnightblue" stroke="midnightblue" points="261.62,-86.08 263.99,-75.75 255.7,-82.35 261.62,-86.08"/>
</g>
<!-- Node8&#45;&gt;Node5 -->
<g id="edge9" class="edge">
<title>Node8&#45;&gt;Node5</title>
<path fill="none" stroke="midnightblue" d="M301.02,-168.14C297.49,-155.6 290.75,-131.97 284.5,-112 281.73,-103.15 278.5,-93.37 275.74,-85.2"/>
<polygon fill="midnightblue" stroke="midnightblue" points="279.01,-83.94 272.47,-75.6 272.38,-86.19 279.01,-83.94"/>
</g>
<!-- Node8&#45;&gt;Node7 -->
<g id="edge10" class="edge">
<title>Node8&#45;&gt;Node7</title>
<path fill="none" stroke="midnightblue" d="M292.57,-168.32C282.33,-160.18 266.78,-147.84 254.5,-138.09"/>
<polygon fill="midnightblue" stroke="midnightblue" points="256.63,-135.31 246.62,-131.83 252.28,-140.79 256.63,-135.31"/>
</g>
<!-- Node9&#45;&gt;Node5 -->
<g id="edge12" class="edge">
<title>Node9&#45;&gt;Node5</title>
<path fill="none" stroke="midnightblue" d="M358.47,-112.32C341.47,-103.66 315.12,-90.24 295.51,-80.25"/>
<polygon fill="midnightblue" stroke="midnightblue" points="296.99,-77.08 286.49,-75.65 293.81,-83.31 296.99,-77.08"/>
</g>
<!-- Node12 -->
<g id="node12" class="node">
<title>Node12</title>
<g id="a_node12"><a xlink:href="$int_8h.html" xlink:title=" ">
<polygon fill="white" stroke="black" points="370.5,-280.5 370.5,-299.5 434.5,-299.5 434.5,-280.5 370.5,-280.5"/>
<text text-anchor="middle" x="402.5" y="-287.5" font-family="Consolas" font-size="10.00">libccc/int.h</text>
</a>
</g>
</g>
<!-- Node11&#45;&gt;Node12 -->
<g id="edge15" class="edge">
<title>Node11&#45;&gt;Node12</title>
<path fill="none" stroke="midnightblue" d="M413.35,-336.08C411.63,-328.93 409.15,-318.64 407,-309.69"/>
<polygon fill="midnightblue" stroke="midnightblue" points="410.35,-308.65 404.61,-299.75 403.54,-310.29 410.35,-308.65"/>
</g>
<!-- Node12&#45;&gt;Node4 -->
<g id="edge17" class="edge">
<title>Node12&#45;&gt;Node4</title>
<path fill="none" stroke="midnightblue" d="M386.59,-280.32C370.86,-271.74 346.56,-258.49 328.29,-248.52"/>
<polygon fill="midnightblue" stroke="midnightblue" points="329.82,-245.37 319.37,-243.65 326.47,-251.52 329.82,-245.37"/>
</g>
<!-- Node13 -->
<g id="node13" class="node">
<title>Node13</title>
<g id="a_node13"><a xlink:title=" ">
<polygon fill="white" stroke="#bfbfbf" points="378,-224.5 378,-243.5 427,-243.5 427,-224.5 378,-224.5"/>
<text text-anchor="middle" x="402.5" y="-231.5" font-family="Consolas" font-size="10.00">stdint.h</text>
</a>
</g>
</g>
<!-- Node12&#45;&gt;Node13 -->
<g id="edge16" class="edge">
<title>Node12&#45;&gt;Node13</title>
<path fill="none" stroke="midnightblue" d="M402.5,-280.08C402.5,-273.01 402.5,-262.86 402.5,-253.99"/>
<polygon fill="midnightblue" stroke="midnightblue" points="406,-253.75 402.5,-243.75 399,-253.75 406,-253.75"/>
</g>
<!-- Node15 -->
<g id="node15" class="node">
<title>Node15</title>
<g id="a_node15"><a xlink:href="$fixed_8h.html" xlink:title=" ">
<polygon fill="white" stroke="black" points="266.5,-280.5 266.5,-299.5 340.5,-299.5 340.5,-280.5 266.5,-280.5"/>
<text text-anchor="middle" x="303.5" y="-287.5" font-family="Consolas" font-size="10.00">libccc/fixed.h</text>
</a>
</g>
</g>
<!-- Node14&#45;&gt;Node15 -->
<g id="edge19" class="edge">
<title>Node14&#45;&gt;Node15</title>
<path fill="none" stroke="midnightblue" d="M303.5,-336.08C303.5,-329.01 303.5,-318.86 303.5,-309.99"/>
<polygon fill="midnightblue" stroke="midnightblue" points="307,-309.75 303.5,-299.75 300,-309.75 307,-309.75"/>
</g>
<!-- Node15&#45;&gt;Node4 -->
<g id="edge20" class="edge">
<title>Node15&#45;&gt;Node4</title>
<path fill="none" stroke="midnightblue" d="M303.5,-280.08C303.5,-273.01 303.5,-262.86 303.5,-253.99"/>
<polygon fill="midnightblue" stroke="midnightblue" points="307,-253.75 303.5,-243.75 300,-253.75 307,-253.75"/>
</g>
<!-- Node16&#45;&gt;Node3 -->
<g id="edge22" class="edge">
<title>Node16&#45;&gt;Node3</title>
<path fill="none" stroke="midnightblue" d="M187.5,-336.08C187.5,-329.01 187.5,-318.86 187.5,-309.99"/>
<polygon fill="midnightblue" stroke="midnightblue" points="191,-309.75 187.5,-299.75 184,-309.75 191,-309.75"/>
</g>
</g>
</svg>
