<?xml version="1.0" encoding="UTF-8" standalone="no"?>
<!DOCTYPE svg PUBLIC "-//W3C//DTD SVG 1.1//EN"
 "http://www.w3.org/Graphics/SVG/1.1/DTD/svg11.dtd">
<!-- Generated by graphviz version 2.43.0 (0)
 -->
<!-- Title: libccc/math/float.h Pages: 1 -->
<svg width="763pt" height="364pt"
 viewBox="0.00 0.00 762.51 364.00" xmlns="http://www.w3.org/2000/svg" xmlns:xlink="http://www.w3.org/1999/xlink">
<g id="graph0" class="graph" transform="scale(1 1) rotate(0) translate(4 360)">
<title>libccc/math/float.h</title>
<polygon fill="white" stroke="transparent" points="-4,4 -4,-360 758.51,-360 758.51,4 -4,4"/>
<!-- Node1 -->
<g id="node1" class="node">
<title>Node1</title>
<g id="a_node1"><a xlink:title=" ">
<polygon fill="#bfbfbf" stroke="black" points="256.5,-336.5 256.5,-355.5 372.5,-355.5 372.5,-336.5 256.5,-336.5"/>
<text text-anchor="middle" x="314.5" y="-343.5" font-family="Consolas" font-size="10.00">libccc/math/float.h</text>
</a>
</g>
</g>
<!-- Node2 -->
<g id="node2" class="node">
<title>Node2</title>
<g id="a_node2"><a xlink:href="float_8h.html" target="_top" xlink:title=" ">
<polygon fill="white" stroke="black" points="306.5,-280.5 306.5,-299.5 396.5,-299.5 396.5,-280.5 306.5,-280.5"/>
<text text-anchor="middle" x="351.5" y="-287.5" font-family="Consolas" font-size="10.00">libccc/float.h</text>
</a>
</g>
</g>
<!-- Node1&#45;&gt;Node2 -->
<g id="edge1" class="edge">
<title>Node1&#45;&gt;Node2</title>
<path fill="none" stroke="midnightblue" d="M320.61,-336.08C325.78,-328.53 333.35,-317.49 339.69,-308.23"/>
<polygon fill="midnightblue" stroke="midnightblue" points="342.74,-309.98 345.5,-299.75 336.96,-306.02 342.74,-309.98"/>
</g>
<!-- Node3 -->
<g id="node3" class="node">
<title>Node3</title>
<g id="a_node3"><a xlink:href="libccc_8h.html" target="_top" xlink:title=" ">
<polygon fill="white" stroke="black" points="451,-224.5 451,-243.5 510,-243.5 510,-224.5 451,-224.5"/>
<text text-anchor="middle" x="480.5" y="-231.5" font-family="Consolas" font-size="10.00">libccc.h</text>
</a>
</g>
</g>
<!-- Node2&#45;&gt;Node3 -->
<g id="edge2" class="edge">
<title>Node2&#45;&gt;Node3</title>
<path fill="none" stroke="midnightblue" d="M371.94,-280.44C393.17,-271.56 426.6,-257.56 450.75,-247.45"/>
<polygon fill="midnightblue" stroke="midnightblue" points="452.28,-250.61 460.16,-243.52 449.58,-244.15 452.28,-250.61"/>
</g>
<!-- Node4 -->
<g id="node4" class="node">
<title>Node4</title>
<g id="a_node4"><a xlink:href="libccc__define_8h.html" target="_top" xlink:title=" ">
<polygon fill="white" stroke="black" points="622,-56.5 622,-75.5 717,-75.5 717,-56.5 622,-56.5"/>
<text text-anchor="middle" x="669.5" y="-63.5" font-family="Consolas" font-size="10.00">libccc_define.h</text>
</a>
</g>
</g>
<!-- Node3&#45;&gt;Node4 -->
<g id="edge3" class="edge">
<title>Node3&#45;&gt;Node4</title>
<path fill="none" stroke="midnightblue" d="M510.08,-232.56C572.75,-230.95 715.62,-223.39 745.5,-188 775.05,-153.01 722.44,-105.55 690.81,-81.81"/>
<polygon fill="midnightblue" stroke="midnightblue" points="692.68,-78.83 682.53,-75.77 688.55,-84.49 692.68,-78.83"/>
</g>
<!-- Node6 -->
<g id="node6" class="node">
<title>Node6</title>
<g id="a_node6"><a xlink:href="libccc__errors_8h.html" target="_top" xlink:title=" ">
<polygon fill="white" stroke="black" points="527,-112.5 527,-131.5 622,-131.5 622,-112.5 527,-112.5"/>
<text text-anchor="middle" x="574.5" y="-119.5" font-family="Consolas" font-size="10.00">libccc_errors.h</text>
</a>
</g>
</g>
<!-- Node3&#45;&gt;Node6 -->
<g id="edge5" class="edge">
<title>Node3&#45;&gt;Node6</title>
<path fill="none" stroke="midnightblue" d="M484.47,-224.39C490.73,-211.33 503.84,-186.12 519.5,-168 529.43,-156.51 542.53,-145.67 553.45,-137.5"/>
<polygon fill="midnightblue" stroke="midnightblue" points="555.6,-140.27 561.64,-131.57 551.49,-134.6 555.6,-140.27"/>
</g>
<!-- Node7 -->
<g id="node7" class="node">
<title>Node7</title>
<g id="a_node7"><a xlink:href="libccc__config_8h.html" target="_top" xlink:title=" ">
<polygon fill="white" stroke="black" points="528,-168.5 528,-187.5 623,-187.5 623,-168.5 528,-168.5"/>
<text text-anchor="middle" x="575.5" y="-175.5" font-family="Consolas" font-size="10.00">libccc_config.h</text>
</a>
</g>
</g>
<!-- Node3&#45;&gt;Node7 -->
<g id="edge7" class="edge">
<title>Node3&#45;&gt;Node7</title>
<path fill="none" stroke="midnightblue" d="M495.76,-224.32C510.72,-215.82 533.75,-202.73 551.23,-192.8"/>
<polygon fill="midnightblue" stroke="midnightblue" points="553.31,-195.64 560.27,-187.65 549.85,-189.55 553.31,-195.64"/>
</g>
<!-- Node8 -->
<g id="node8" class="node">
<title>Node8</title>
<g id="a_node8"><a xlink:href="libccc__naming_8h.html" target="_top" xlink:title=" ">
<polygon fill="white" stroke="black" points="641,-168.5 641,-187.5 736,-187.5 736,-168.5 641,-168.5"/>
<text text-anchor="middle" x="688.5" y="-175.5" font-family="Consolas" font-size="10.00">libccc_naming.h</text>
</a>
</g>
</g>
<!-- Node3&#45;&gt;Node8 -->
<g id="edge10" class="edge">
<title>Node3&#45;&gt;Node8</title>
<path fill="none" stroke="midnightblue" d="M510.3,-225.26C545.82,-216.04 605.43,-200.57 645.83,-190.08"/>
<polygon fill="midnightblue" stroke="midnightblue" points="646.87,-193.42 655.67,-187.52 645.11,-186.65 646.87,-193.42"/>
</g>
<!-- Node9 -->
<g id="node9" class="node">
<title>Node9</title>
<g id="a_node9"><a xlink:href="math_8h.html" target="_top" xlink:title=" ">
<polygon fill="white" stroke="black" points="254.5,-168.5 254.5,-187.5 302.5,-187.5 302.5,-168.5 254.5,-168.5"/>
<text text-anchor="middle" x="278.5" y="-175.5" font-family="Consolas" font-size="10.00">math.h</text>
</a>
</g>
</g>
<!-- Node3&#45;&gt;Node9 -->
<g id="edge12" class="edge">
<title>Node3&#45;&gt;Node9</title>
<path fill="none" stroke="midnightblue" d="M450.69,-225.03C413.82,-215.18 351.19,-198.43 312.49,-188.09"/>
<polygon fill="midnightblue" stroke="midnightblue" points="313.29,-184.68 302.72,-185.48 311.48,-191.44 313.29,-184.68"/>
</g>
<!-- Node5 -->
<g id="node5" class="node">
<title>Node5</title>
<g id="a_node5"><a xlink:title=" ">
<polygon fill="white" stroke="#bfbfbf" points="635,-0.5 635,-19.5 704,-19.5 704,-0.5 635,-0.5"/>
<text text-anchor="middle" x="669.5" y="-7.5" font-family="Consolas" font-size="10.00">stdalign.h</text>
</a>
</g>
</g>
<!-- Node4&#45;&gt;Node5 -->
<g id="edge4" class="edge">
<title>Node4&#45;&gt;Node5</title>
<path fill="none" stroke="midnightblue" d="M669.5,-56.08C669.5,-49.01 669.5,-38.86 669.5,-29.99"/>
<polygon fill="midnightblue" stroke="midnightblue" points="673,-29.75 669.5,-19.75 666,-29.75 673,-29.75"/>
</g>
<!-- Node6&#45;&gt;Node4 -->
<g id="edge6" class="edge">
<title>Node6&#45;&gt;Node4</title>
<path fill="none" stroke="midnightblue" d="M589.76,-112.32C604.72,-103.82 627.75,-90.73 645.23,-80.8"/>
<polygon fill="midnightblue" stroke="midnightblue" points="647.31,-83.64 654.27,-75.65 643.85,-77.55 647.31,-83.64"/>
</g>
<!-- Node7&#45;&gt;Node4 -->
<g id="edge8" class="edge">
<title>Node7&#45;&gt;Node4</title>
<path fill="none" stroke="midnightblue" d="M589.11,-168.19C601.24,-159.88 618.96,-146.55 631.5,-132 643.88,-117.64 654.43,-98.69 661.25,-84.96"/>
<polygon fill="midnightblue" stroke="midnightblue" points="664.55,-86.17 665.7,-75.64 658.23,-83.15 664.55,-86.17"/>
</g>
<!-- Node7&#45;&gt;Node6 -->
<g id="edge9" class="edge">
<title>Node7&#45;&gt;Node6</title>
<path fill="none" stroke="midnightblue" d="M575.33,-168.08C575.2,-161.01 575.02,-150.86 574.85,-141.99"/>
<polygon fill="midnightblue" stroke="midnightblue" points="578.35,-141.68 574.66,-131.75 571.35,-141.81 578.35,-141.68"/>
</g>
<!-- Node8&#45;&gt;Node4 -->
<g id="edge11" class="edge">
<title>Node8&#45;&gt;Node4</title>
<path fill="none" stroke="midnightblue" d="M687.01,-168.37C683.94,-150.62 676.87,-109.67 672.71,-85.6"/>
<polygon fill="midnightblue" stroke="midnightblue" points="676.14,-84.85 670.98,-75.59 669.24,-86.04 676.14,-84.85"/>
</g>
<!-- Node9&#45;&gt;Node1 -->
<g id="edge22" class="edge">
<title>Node9&#45;&gt;Node1</title>
<path fill="none" stroke="midnightblue" d="M279.24,-187.63C281.09,-207.65 286.57,-258.68 297.5,-300 299.87,-308.98 303.4,-318.66 306.62,-326.72"/>
<polygon fill="midnightblue" stroke="midnightblue" points="303.49,-328.32 310.56,-336.21 309.96,-325.63 303.49,-328.32"/>
</g>
<!-- Node10 -->
<g id="node10" class="node">
<title>Node10</title>
<g id="a_node10"><a xlink:href="constants_8h.html" target="_top" xlink:title=" ">
<polygon fill="white" stroke="black" points="0,-112.5 0,-131.5 137,-131.5 137,-112.5 0,-112.5"/>
<text text-anchor="middle" x="68.5" y="-119.5" font-family="Consolas" font-size="10.00">libccc/math/constants.h</text>
</a>
</g>
</g>
<!-- Node9&#45;&gt;Node10 -->
<g id="edge13" class="edge">
<title>Node9&#45;&gt;Node10</title>
<path fill="none" stroke="midnightblue" d="M254.41,-170.81C219.6,-161.85 154.69,-145.16 111.53,-134.07"/>
<polygon fill="midnightblue" stroke="midnightblue" points="112.15,-130.61 101.6,-131.51 110.41,-137.39 112.15,-130.61"/>
</g>
<!-- Node11 -->
<g id="node11" class="node">
<title>Node11</title>
<g id="a_node11"><a xlink:href="math_2int_8h.html" target="_top" xlink:title=" ">
<polygon fill="white" stroke="black" points="289.5,-112.5 289.5,-131.5 395.5,-131.5 395.5,-112.5 289.5,-112.5"/>
<text text-anchor="middle" x="342.5" y="-119.5" font-family="Consolas" font-size="10.00">libccc/math/int.h</text>
</a>
</g>
</g>
<!-- Node9&#45;&gt;Node11 -->
<g id="edge15" class="edge">
<title>Node9&#45;&gt;Node11</title>
<path fill="none" stroke="midnightblue" d="M288.78,-168.32C298.34,-160.26 312.78,-148.08 324.28,-138.37"/>
<polygon fill="midnightblue" stroke="midnightblue" points="326.64,-140.96 332.03,-131.83 322.13,-135.61 326.64,-140.96"/>
</g>
<!-- Node14 -->
<g id="node14" class="node">
<title>Node14</title>
<g id="a_node14"><a xlink:href="math_2fixed_8h.html" target="_top" xlink:title=" ">
<polygon fill="white" stroke="black" points="155.5,-112.5 155.5,-131.5 271.5,-131.5 271.5,-112.5 155.5,-112.5"/>
<text text-anchor="middle" x="213.5" y="-119.5" font-family="Consolas" font-size="10.00">libccc/math/fixed.h</text>
</a>
</g>
</g>
<!-- Node9&#45;&gt;Node14 -->
<g id="edge19" class="edge">
<title>Node9&#45;&gt;Node14</title>
<path fill="none" stroke="midnightblue" d="M268.06,-168.32C258.35,-160.26 243.68,-148.08 232,-138.37"/>
<polygon fill="midnightblue" stroke="midnightblue" points="234.06,-135.53 224.13,-131.83 229.59,-140.92 234.06,-135.53"/>
</g>
<!-- Node10&#45;&gt;Node2 -->
<g id="edge14" class="edge">
<title>Node10&#45;&gt;Node2</title>
<path fill="none" stroke="midnightblue" d="M83.17,-131.61C129.2,-158.6 271.05,-241.81 327.73,-275.06"/>
<polygon fill="midnightblue" stroke="midnightblue" points="326.29,-278.27 336.68,-280.31 329.83,-272.23 326.29,-278.27"/>
</g>
<!-- Node12 -->
<g id="node12" class="node">
<title>Node12</title>
<g id="a_node12"><a xlink:href="int_8h.html" target="_top" xlink:title=" ">
<polygon fill="white" stroke="black" points="385.5,-56.5 385.5,-75.5 465.5,-75.5 465.5,-56.5 385.5,-56.5"/>
<text text-anchor="middle" x="425.5" y="-63.5" font-family="Consolas" font-size="10.00">libccc/int.h</text>
</a>
</g>
</g>
<!-- Node11&#45;&gt;Node12 -->
<g id="edge16" class="edge">
<title>Node11&#45;&gt;Node12</title>
<path fill="none" stroke="midnightblue" d="M355.84,-112.32C368.66,-103.98 388.28,-91.21 403.44,-81.35"/>
<polygon fill="midnightblue" stroke="midnightblue" points="405.72,-84.04 412.2,-75.65 401.91,-78.17 405.72,-84.04"/>
</g>
<!-- Node12&#45;&gt;Node3 -->
<g id="edge18" class="edge">
<title>Node12&#45;&gt;Node3</title>
<path fill="none" stroke="midnightblue" d="M428.34,-75.57C436.88,-101.34 462.47,-178.59 474.34,-214.39"/>
<polygon fill="midnightblue" stroke="midnightblue" points="471.08,-215.68 477.54,-224.08 477.72,-213.48 471.08,-215.68"/>
</g>
<!-- Node13 -->
<g id="node13" class="node">
<title>Node13</title>
<g id="a_node13"><a xlink:title=" ">
<polygon fill="white" stroke="#bfbfbf" points="396,-0.5 396,-19.5 455,-19.5 455,-0.5 396,-0.5"/>
<text text-anchor="middle" x="425.5" y="-7.5" font-family="Consolas" font-size="10.00">stdint.h</text>
</a>
</g>
</g>
<!-- Node12&#45;&gt;Node13 -->
<g id="edge17" class="edge">
<title>Node12&#45;&gt;Node13</title>
<path fill="none" stroke="midnightblue" d="M425.5,-56.08C425.5,-49.01 425.5,-38.86 425.5,-29.99"/>
<polygon fill="midnightblue" stroke="midnightblue" points="429,-29.75 425.5,-19.75 422,-29.75 429,-29.75"/>
</g>
<!-- Node15 -->
<g id="node15" class="node">
<title>Node15</title>
<g id="a_node15"><a xlink:href="fixed_8h.html" target="_top" xlink:title=" ">
<polygon fill="white" stroke="black" points="205.5,-56.5 205.5,-75.5 295.5,-75.5 295.5,-56.5 205.5,-56.5"/>
<text text-anchor="middle" x="250.5" y="-63.5" font-family="Consolas" font-size="10.00">libccc/fixed.h</text>
</a>
</g>
</g>
<!-- Node14&#45;&gt;Node15 -->
<g id="edge20" class="edge">
<title>Node14&#45;&gt;Node15</title>
<path fill="none" stroke="midnightblue" d="M219.61,-112.08C224.78,-104.53 232.35,-93.49 238.69,-84.23"/>
<polygon fill="midnightblue" stroke="midnightblue" points="241.74,-85.98 244.5,-75.75 235.96,-82.02 241.74,-85.98"/>
</g>
<!-- Node15&#45;&gt;Node3 -->
<g id="edge21" class="edge">
<title>Node15&#45;&gt;Node3</title>
<path fill="none" stroke="midnightblue" d="M295.8,-71.58C328.7,-76.84 372.83,-88.07 404.5,-112 414.01,-119.18 452.05,-183.74 470.44,-215.5"/>
<polygon fill="midnightblue" stroke="midnightblue" points="467.44,-217.3 475.47,-224.21 473.5,-213.8 467.44,-217.3"/>
</g>
</g>
</svg>
