<?xml version="1.0" encoding="UTF-8" standalone="no"?>
<!DOCTYPE svg PUBLIC "-//W3C//DTD SVG 1.1//EN"
 "http://www.w3.org/Graphics/SVG/1.1/DTD/svg11.dtd">
<!-- Generated by graphviz version 2.49.3 (20211023.0002)
 -->
<!-- Title: libccc/math/int.h Pages: 1 -->
<svg width="251pt" height="364pt"
 viewBox="0.00 0.00 251.00 364.00" xmlns="http://www.w3.org/2000/svg" xmlns:xlink="http://www.w3.org/1999/xlink">
<g id="graph0" class="graph" transform="scale(1 1) rotate(0) translate(4 360)">
<title>libccc/math/int.h</title>
<polygon fill="white" stroke="transparent" points="-4,4 -4,-360 247,-360 247,4 -4,4"/>
<!-- Node1 -->
<g id="node1" class="node">
<title>Node1</title>
<g id="a_node1"><a xlink:title=" ">
<polygon fill="#bfbfbf" stroke="black" points="14,-336.5 14,-355.5 103,-355.5 103,-336.5 14,-336.5"/>
<text text-anchor="middle" x="58.5" y="-343.5" font-family="Consolas" font-size="10.00">libccc/math/int.h</text>
</a>
</g>
</g>
<!-- Node2 -->
<g id="node2" class="node">
<title>Node2</title>
<g id="a_node2"><a xlink:href="int_8h.html" target="_top" xlink:title=" ">
<polygon fill="white" stroke="black" points="26.5,-280.5 26.5,-299.5 90.5,-299.5 90.5,-280.5 26.5,-280.5"/>
<text text-anchor="middle" x="58.5" y="-287.5" font-family="Consolas" font-size="10.00">libccc/int.h</text>
</a>
</g>
</g>
<!-- Node1&#45;&gt;Node2 -->
<g id="edge1" class="edge">
<title>Node1&#45;&gt;Node2</title>
<path fill="none" stroke="midnightblue" d="M58.5,-336.08C58.5,-329.01 58.5,-318.86 58.5,-309.99"/>
<polygon fill="midnightblue" stroke="midnightblue" points="62,-309.75 58.5,-299.75 55,-309.75 62,-309.75"/>
</g>
<!-- Node3 -->
<g id="node3" class="node">
<title>Node3</title>
<g id="a_node3"><a xlink:title=" ">
<polygon fill="white" stroke="#bfbfbf" points="0,-224.5 0,-243.5 49,-243.5 49,-224.5 0,-224.5"/>
<text text-anchor="middle" x="24.5" y="-231.5" font-family="Consolas" font-size="10.00">stdint.h</text>
</a>
</g>
</g>
<!-- Node2&#45;&gt;Node3 -->
<g id="edge2" class="edge">
<title>Node2&#45;&gt;Node3</title>
<path fill="none" stroke="midnightblue" d="M52.89,-280.08C48.13,-272.53 41.18,-261.49 35.35,-252.23"/>
<polygon fill="midnightblue" stroke="midnightblue" points="38.3,-250.35 30.01,-243.75 32.38,-254.08 38.3,-250.35"/>
</g>
<!-- Node4 -->
<g id="node4" class="node">
<title>Node4</title>
<g id="a_node4"><a xlink:href="libccc_8h.html" target="_top" xlink:title=" ">
<polygon fill="white" stroke="black" points="67.5,-224.5 67.5,-243.5 117.5,-243.5 117.5,-224.5 67.5,-224.5"/>
<text text-anchor="middle" x="92.5" y="-231.5" font-family="Consolas" font-size="10.00">libccc.h</text>
</a>
</g>
</g>
<!-- Node2&#45;&gt;Node4 -->
<g id="edge3" class="edge">
<title>Node2&#45;&gt;Node4</title>
<path fill="none" stroke="midnightblue" d="M64.11,-280.08C68.87,-272.53 75.82,-261.49 81.65,-252.23"/>
<polygon fill="midnightblue" stroke="midnightblue" points="84.62,-254.08 86.99,-243.75 78.7,-250.35 84.62,-254.08"/>
</g>
<!-- Node5 -->
<g id="node5" class="node">
<title>Node5</title>
<g id="a_node5"><a xlink:href="libccc__define_8h.html" target="_top" xlink:title=" ">
<polygon fill="white" stroke="black" points="52.5,-56.5 52.5,-75.5 134.5,-75.5 134.5,-56.5 52.5,-56.5"/>
<text text-anchor="middle" x="93.5" y="-63.5" font-family="Consolas" font-size="10.00">libccc_define.h</text>
</a>
</g>
</g>
<!-- Node4&#45;&gt;Node5 -->
<g id="edge4" class="edge">
<title>Node4&#45;&gt;Node5</title>
<path fill="none" stroke="midnightblue" d="M78.72,-224.42C49.19,-204.93 -15.46,-155.61 10.5,-112 19.6,-96.72 35.89,-86.31 51.64,-79.39"/>
<polygon fill="midnightblue" stroke="midnightblue" points="53.33,-82.48 61.32,-75.51 50.73,-75.98 53.33,-82.48"/>
</g>
<!-- Node7 -->
<g id="node7" class="node">
<title>Node7</title>
<g id="a_node7"><a xlink:href="libccc__errors_8h.html" target="_top" xlink:title=" ">
<polygon fill="white" stroke="black" points="19.5,-112.5 19.5,-131.5 99.5,-131.5 99.5,-112.5 19.5,-112.5"/>
<text text-anchor="middle" x="59.5" y="-119.5" font-family="Consolas" font-size="10.00">libccc_errors.h</text>
</a>
</g>
</g>
<!-- Node4&#45;&gt;Node7 -->
<g id="edge6" class="edge">
<title>Node4&#45;&gt;Node7</title>
<path fill="none" stroke="midnightblue" d="M89.49,-224.42C86.36,-215.39 81.39,-200.76 77.5,-188 72.75,-172.42 67.85,-154.59 64.36,-141.55"/>
<polygon fill="midnightblue" stroke="midnightblue" points="67.74,-140.64 61.8,-131.87 60.98,-142.44 67.74,-140.64"/>
</g>
<!-- Node8 -->
<g id="node8" class="node">
<title>Node8</title>
<g id="a_node8"><a xlink:href="libccc__config_8h.html" target="_top" xlink:title=" ">
<polygon fill="white" stroke="black" points="86.5,-168.5 86.5,-187.5 168.5,-187.5 168.5,-168.5 86.5,-168.5"/>
<text text-anchor="middle" x="127.5" y="-175.5" font-family="Consolas" font-size="10.00">libccc_config.h</text>
</a>
</g>
</g>
<!-- Node4&#45;&gt;Node8 -->
<g id="edge8" class="edge">
<title>Node4&#45;&gt;Node8</title>
<path fill="none" stroke="midnightblue" d="M98.28,-224.08C103.17,-216.53 110.33,-205.49 116.33,-196.23"/>
<polygon fill="midnightblue" stroke="midnightblue" points="119.33,-198.05 121.83,-187.75 113.45,-194.24 119.33,-198.05"/>
</g>
<!-- Node9 -->
<g id="node9" class="node">
<title>Node9</title>
<g id="a_node9"><a xlink:href="libccc__naming_8h.html" target="_top" xlink:title=" ">
<polygon fill="white" stroke="black" points="156,-112.5 156,-131.5 243,-131.5 243,-112.5 156,-112.5"/>
<text text-anchor="middle" x="199.5" y="-119.5" font-family="Consolas" font-size="10.00">libccc_naming.h</text>
</a>
</g>
</g>
<!-- Node4&#45;&gt;Node9 -->
<g id="edge11" class="edge">
<title>Node4&#45;&gt;Node9</title>
<path fill="none" stroke="midnightblue" d="M117.73,-225.36C136.62,-218.43 161.81,-206.44 177.5,-188 188.71,-174.83 194.28,-155.69 197,-141.59"/>
<polygon fill="midnightblue" stroke="midnightblue" points="200.48,-142 198.63,-131.57 193.57,-140.88 200.48,-142"/>
</g>
<!-- Node6 -->
<g id="node6" class="node">
<title>Node6</title>
<g id="a_node6"><a xlink:title=" ">
<polygon fill="white" stroke="#bfbfbf" points="64,-0.5 64,-19.5 123,-19.5 123,-0.5 64,-0.5"/>
<text text-anchor="middle" x="93.5" y="-7.5" font-family="Consolas" font-size="10.00">stdalign.h</text>
</a>
</g>
</g>
<!-- Node5&#45;&gt;Node6 -->
<g id="edge5" class="edge">
<title>Node5&#45;&gt;Node6</title>
<path fill="none" stroke="midnightblue" d="M93.5,-56.08C93.5,-49.01 93.5,-38.86 93.5,-29.99"/>
<polygon fill="midnightblue" stroke="midnightblue" points="97,-29.75 93.5,-19.75 90,-29.75 97,-29.75"/>
</g>
<!-- Node7&#45;&gt;Node5 -->
<g id="edge7" class="edge">
<title>Node7&#45;&gt;Node5</title>
<path fill="none" stroke="midnightblue" d="M65.11,-112.08C69.87,-104.53 76.82,-93.49 82.65,-84.23"/>
<polygon fill="midnightblue" stroke="midnightblue" points="85.62,-86.08 87.99,-75.75 79.7,-82.35 85.62,-86.08"/>
</g>
<!-- Node8&#45;&gt;Node5 -->
<g id="edge9" class="edge">
<title>Node8&#45;&gt;Node5</title>
<path fill="none" stroke="midnightblue" d="M125.02,-168.14C121.49,-155.6 114.75,-131.97 108.5,-112 105.73,-103.15 102.5,-93.37 99.74,-85.2"/>
<polygon fill="midnightblue" stroke="midnightblue" points="103.01,-83.94 96.47,-75.6 96.38,-86.19 103.01,-83.94"/>
</g>
<!-- Node8&#45;&gt;Node7 -->
<g id="edge10" class="edge">
<title>Node8&#45;&gt;Node7</title>
<path fill="none" stroke="midnightblue" d="M116.57,-168.32C106.33,-160.18 90.78,-147.84 78.5,-138.09"/>
<polygon fill="midnightblue" stroke="midnightblue" points="80.63,-135.31 70.62,-131.83 76.28,-140.79 80.63,-135.31"/>
</g>
<!-- Node9&#45;&gt;Node5 -->
<g id="edge12" class="edge">
<title>Node9&#45;&gt;Node5</title>
<path fill="none" stroke="midnightblue" d="M182.47,-112.32C165.47,-103.66 139.12,-90.24 119.51,-80.25"/>
<polygon fill="midnightblue" stroke="midnightblue" points="120.99,-77.08 110.49,-75.65 117.81,-83.31 120.99,-77.08"/>
</g>
</g>
</svg>
