<?xml version="1.0" encoding="UTF-8" standalone="no"?>
<!DOCTYPE svg PUBLIC "-//W3C//DTD SVG 1.1//EN"
 "http://www.w3.org/Graphics/SVG/1.1/DTD/svg11.dtd">
<!-- Generated by graphviz version 2.43.0 (0)
 -->
<!-- Title: libccc/math.h Pages: 1 -->
<!--zoomable 420 -->
<svg id="main" version="1.1" xmlns="http://www.w3.org/2000/svg" xmlns:xlink="http://www.w3.org/1999/xlink" xml:space="preserve" onload="init(evt)">
<style type="text/css"><![CDATA[
.edge:hover path { stroke: red; }
.edge:hover polygon { stroke: red; fill: red; }
]]></style>
<script type="text/javascript"><![CDATA[
var edges = document.getElementsByTagName('g');
if (edges && edges.length) {
  for (var i=0;i<edges.length;i++) {
    if (edges[i].id.substr(0,4)=='edge') {
      edges[i].setAttribute('class','edge');
    }
  }
}
]]></script>
        <defs>
                <circle id="rim" cx="0" cy="0" r="7"/>
                <circle id="rim2" cx="0" cy="0" r="3.5"/>
                <g id="zoomPlus">
                        <use xlink:href="#rim" fill="#404040">
                                <set attributeName="fill" to="#808080" begin="zoomplus.mouseover" end="zoomplus.mouseout"/>
                        </use>
                        <path d="M-4,0h8M0,-4v8" fill="none" stroke="white" stroke-width="1.5" pointer-events="none"/>
                </g>
                <g id="zoomMin">
                        <use xlink:href="#rim" fill="#404040">
                                <set attributeName="fill" to="#808080" begin="zoomminus.mouseover" end="zoomminus.mouseout"/>
                        </use>
                        <path d="M-4,0h8" fill="none" stroke="white" stroke-width="1.5" pointer-events="none"/>
                </g>
                <g id="dirArrow">
                        <path fill="none" stroke="white" stroke-width="1.5" d="M0,-3.0v7 M-2.5,-0.5L0,-3.0L2.5,-0.5"/>
                </g>
               <g id="resetDef">
                       <use xlink:href="#rim2" fill="#404040">
                               <set attributeName="fill" to="#808080" begin="reset.mouseover" end="reset.mouseout"/>
                       </use>
               </g>
        </defs>

<script type="text/javascript">
var viewWidth = 576;
var viewHeight = 420;
var sectionId = 'dynsection-0';
</script>
<script xlink:href="svgpan.js"/>
<svg id="graph" class="graph">
<g id="viewport">
<title>libccc/math.h</title>
<polygon fill="white" stroke="transparent" points="-4,4 -4,-416 571.5,-416 571.5,4 -4,4"/>
<!-- Node1 -->
<g id="node1" class="node">
<title>Node1</title>
<g id="a_node1"><a xlink:title=" ">
<polygon fill="#bfbfbf" stroke="black" points="225.5,-392.5 225.5,-411.5 310.5,-411.5 310.5,-392.5 225.5,-392.5"/>
<text text-anchor="middle" x="268" y="-399.5" font-family="Consolas" font-size="10.00">libccc/math.h</text>
</a>
</g>
</g>
<!-- Node2 -->
<g id="node2" class="node">
<title>Node2</title>
<g id="a_node2"><a xlink:href="constants_8h.html" target="_top" xlink:title=" ">
<polygon fill="white" stroke="black" points="430.5,-336.5 430.5,-355.5 567.5,-355.5 567.5,-336.5 430.5,-336.5"/>
<text text-anchor="middle" x="499" y="-343.5" font-family="Consolas" font-size="10.00">libccc/math/constants.h</text>
</a>
</g>
</g>
<!-- Node1&#45;&gt;Node2 -->
<g id="edge1" class="edge">
<title>Node1&#45;&gt;Node2</title>
<path fill="none" stroke="midnightblue" d="M304.6,-392.44C344.73,-383.06 409.2,-367.99 452.78,-357.8"/>
<polygon fill="midnightblue" stroke="midnightblue" points="453.63,-361.2 462.57,-355.52 452.03,-354.38 453.63,-361.2"/>
</g>
<!-- Node10 -->
<g id="node10" class="node">
<title>Node10</title>
<g id="a_node10"><a xlink:href="math_2int_8h.html" target="_top" xlink:title=" ">
<polygon fill="white" stroke="black" points="0,-336.5 0,-355.5 106,-355.5 106,-336.5 0,-336.5"/>
<text text-anchor="middle" x="53" y="-343.5" font-family="Consolas" font-size="10.00">libccc/math/int.h</text>
</a>
</g>
</g>
<!-- Node1&#45;&gt;Node10 -->
<g id="edge14" class="edge">
<title>Node1&#45;&gt;Node10</title>
<path fill="none" stroke="midnightblue" d="M233.93,-392.44C196.82,-383.12 137.34,-368.18 96.79,-358"/>
<polygon fill="midnightblue" stroke="midnightblue" points="97.46,-354.56 86.91,-355.52 95.75,-361.35 97.46,-354.56"/>
</g>
<!-- Node13 -->
<g id="node13" class="node">
<title>Node13</title>
<g id="a_node13"><a xlink:href="math_2fixed_8h.html" target="_top" xlink:title=" ">
<polygon fill="white" stroke="black" points="124,-336.5 124,-355.5 240,-355.5 240,-336.5 124,-336.5"/>
<text text-anchor="middle" x="182" y="-343.5" font-family="Consolas" font-size="10.00">libccc/math/fixed.h</text>
</a>
</g>
</g>
<!-- Node1&#45;&gt;Node13 -->
<g id="edge18" class="edge">
<title>Node1&#45;&gt;Node13</title>
<path fill="none" stroke="midnightblue" d="M254.18,-392.32C240.77,-383.9 220.18,-370.97 204.41,-361.07"/>
<polygon fill="midnightblue" stroke="midnightblue" points="206.11,-358.01 195.78,-355.65 202.39,-363.94 206.11,-358.01"/>
</g>
<!-- Node15 -->
<g id="node15" class="node">
<title>Node15</title>
<g id="a_node15"><a xlink:href="math_2float_8h.html" target="_top" xlink:title=" ">
<polygon fill="white" stroke="black" points="296,-336.5 296,-355.5 412,-355.5 412,-336.5 296,-336.5"/>
<text text-anchor="middle" x="354" y="-343.5" font-family="Consolas" font-size="10.00">libccc/math/float.h</text>
</a>
</g>
</g>
<!-- Node1&#45;&gt;Node15 -->
<g id="edge21" class="edge">
<title>Node1&#45;&gt;Node15</title>
<path fill="none" stroke="midnightblue" d="M281.82,-392.32C295.23,-383.9 315.82,-370.97 331.59,-361.07"/>
<polygon fill="midnightblue" stroke="midnightblue" points="333.61,-363.94 340.22,-355.65 329.89,-358.01 333.61,-363.94"/>
</g>
<!-- Node3 -->
<g id="node3" class="node">
<title>Node3</title>
<g id="a_node3"><a xlink:href="float_8h.html" target="_top" xlink:title=" ">
<polygon fill="white" stroke="black" points="309,-280.5 309,-299.5 399,-299.5 399,-280.5 309,-280.5"/>
<text text-anchor="middle" x="354" y="-287.5" font-family="Consolas" font-size="10.00">libccc/float.h</text>
</a>
</g>
</g>
<!-- Node2&#45;&gt;Node3 -->
<g id="edge2" class="edge">
<title>Node2&#45;&gt;Node3</title>
<path fill="none" stroke="midnightblue" d="M476.02,-336.44C451.84,-327.44 413.58,-313.19 386.35,-303.05"/>
<polygon fill="midnightblue" stroke="midnightblue" points="387.46,-299.73 376.87,-299.52 385.02,-306.29 387.46,-299.73"/>
</g>
<!-- Node4 -->
<g id="node4" class="node">
<title>Node4</title>
<g id="a_node4"><a xlink:href="libccc_8h.html" target="_top" xlink:title=" ">
<polygon fill="white" stroke="black" points="201.5,-224.5 201.5,-243.5 260.5,-243.5 260.5,-224.5 201.5,-224.5"/>
<text text-anchor="middle" x="231" y="-231.5" font-family="Consolas" font-size="10.00">libccc.h</text>
</a>
</g>
</g>
<!-- Node3&#45;&gt;Node4 -->
<g id="edge3" class="edge">
<title>Node3&#45;&gt;Node4</title>
<path fill="none" stroke="midnightblue" d="M334.51,-280.44C314.36,-271.6 282.68,-257.69 259.67,-247.59"/>
<polygon fill="midnightblue" stroke="midnightblue" points="260.96,-244.33 250.4,-243.52 258.15,-250.74 260.96,-244.33"/>
</g>
<!-- Node4&#45;&gt;Node1 -->
<g id="edge13" class="edge">
<title>Node4&#45;&gt;Node1</title>
<path fill="none" stroke="midnightblue" d="M233.18,-243.61C235.45,-252.65 239.08,-267.3 242,-280 250.31,-316.17 259.24,-358.62 264.17,-382.41"/>
<polygon fill="midnightblue" stroke="midnightblue" points="260.8,-383.39 266.25,-392.47 267.66,-381.97 260.8,-383.39"/>
</g>
<!-- Node5 -->
<g id="node5" class="node">
<title>Node5</title>
<g id="a_node5"><a xlink:href="libccc__define_8h.html" target="_top" xlink:title=" ">
<polygon fill="white" stroke="black" points="183.5,-56.5 183.5,-75.5 278.5,-75.5 278.5,-56.5 183.5,-56.5"/>
<text text-anchor="middle" x="231" y="-63.5" font-family="Consolas" font-size="10.00">libccc_define.h</text>
</a>
</g>
</g>
<!-- Node4&#45;&gt;Node5 -->
<g id="edge4" class="edge">
<title>Node4&#45;&gt;Node5</title>
<path fill="none" stroke="midnightblue" d="M215,-224.5C181.12,-205.36 107.51,-157.02 136,-112 146.05,-96.13 163.37,-85.74 180.5,-79"/>
<polygon fill="midnightblue" stroke="midnightblue" points="181.71,-82.28 189.95,-75.62 179.35,-75.69 181.71,-82.28"/>
</g>
<!-- Node7 -->
<g id="node7" class="node">
<title>Node7</title>
<g id="a_node7"><a xlink:href="libccc__errors_8h.html" target="_top" xlink:title=" ">
<polygon fill="white" stroke="black" points="145.5,-112.5 145.5,-131.5 240.5,-131.5 240.5,-112.5 145.5,-112.5"/>
<text text-anchor="middle" x="193" y="-119.5" font-family="Consolas" font-size="10.00">libccc_errors.h</text>
</a>
</g>
</g>
<!-- Node4&#45;&gt;Node7 -->
<g id="edge6" class="edge">
<title>Node4&#45;&gt;Node7</title>
<path fill="none" stroke="midnightblue" d="M227.34,-224.45C223.54,-215.46 217.54,-200.85 213,-188 207.53,-172.52 202.1,-154.68 198.28,-141.61"/>
<polygon fill="midnightblue" stroke="midnightblue" points="201.62,-140.55 195.49,-131.91 194.9,-142.48 201.62,-140.55"/>
</g>
<!-- Node8 -->
<g id="node8" class="node">
<title>Node8</title>
<g id="a_node8"><a xlink:href="libccc__config_8h.html" target="_top" xlink:title=" ">
<polygon fill="white" stroke="black" points="221.5,-168.5 221.5,-187.5 316.5,-187.5 316.5,-168.5 221.5,-168.5"/>
<text text-anchor="middle" x="269" y="-175.5" font-family="Consolas" font-size="10.00">libccc_config.h</text>
</a>
</g>
</g>
<!-- Node4&#45;&gt;Node8 -->
<g id="edge8" class="edge">
<title>Node4&#45;&gt;Node8</title>
<path fill="none" stroke="midnightblue" d="M237.27,-224.08C242.64,-216.46 250.52,-205.26 257.08,-195.94"/>
<polygon fill="midnightblue" stroke="midnightblue" points="259.95,-197.94 262.84,-187.75 254.22,-193.91 259.95,-197.94"/>
</g>
<!-- Node9 -->
<g id="node9" class="node">
<title>Node9</title>
<g id="a_node9"><a xlink:href="libccc__naming_8h.html" target="_top" xlink:title=" ">
<polygon fill="white" stroke="black" points="297.5,-112.5 297.5,-131.5 392.5,-131.5 392.5,-112.5 297.5,-112.5"/>
<text text-anchor="middle" x="345" y="-119.5" font-family="Consolas" font-size="10.00">libccc_naming.h</text>
</a>
</g>
</g>
<!-- Node4&#45;&gt;Node9 -->
<g id="edge11" class="edge">
<title>Node4&#45;&gt;Node9</title>
<path fill="none" stroke="midnightblue" d="M260.73,-225.9C281.79,-219.4 309.18,-207.71 326,-188 337.08,-175.02 341.7,-155.85 343.63,-141.69"/>
<polygon fill="midnightblue" stroke="midnightblue" points="347.12,-141.93 344.67,-131.63 340.16,-141.22 347.12,-141.93"/>
</g>
<!-- Node6 -->
<g id="node6" class="node">
<title>Node6</title>
<g id="a_node6"><a xlink:title=" ">
<polygon fill="white" stroke="#bfbfbf" points="196.5,-0.5 196.5,-19.5 265.5,-19.5 265.5,-0.5 196.5,-0.5"/>
<text text-anchor="middle" x="231" y="-7.5" font-family="Consolas" font-size="10.00">stdalign.h</text>
</a>
</g>
</g>
<!-- Node5&#45;&gt;Node6 -->
<g id="edge5" class="edge">
<title>Node5&#45;&gt;Node6</title>
<path fill="none" stroke="midnightblue" d="M231,-56.08C231,-49.01 231,-38.86 231,-29.99"/>
<polygon fill="midnightblue" stroke="midnightblue" points="234.5,-29.75 231,-19.75 227.5,-29.75 234.5,-29.75"/>
</g>
<!-- Node7&#45;&gt;Node5 -->
<g id="edge7" class="edge">
<title>Node7&#45;&gt;Node5</title>
<path fill="none" stroke="midnightblue" d="M199.27,-112.08C204.64,-104.46 212.52,-93.26 219.08,-83.94"/>
<polygon fill="midnightblue" stroke="midnightblue" points="221.95,-85.94 224.84,-75.75 216.22,-81.91 221.95,-85.94"/>
</g>
<!-- Node8&#45;&gt;Node5 -->
<g id="edge9" class="edge">
<title>Node8&#45;&gt;Node5</title>
<path fill="none" stroke="midnightblue" d="M266.85,-168.49C263.61,-155.97 257.1,-131.94 250,-112 246.76,-102.9 242.64,-92.99 239.07,-84.79"/>
<polygon fill="midnightblue" stroke="midnightblue" points="242.2,-83.22 234.94,-75.51 235.81,-86.07 242.2,-83.22"/>
</g>
<!-- Node8&#45;&gt;Node7 -->
<g id="edge10" class="edge">
<title>Node8&#45;&gt;Node7</title>
<path fill="none" stroke="midnightblue" d="M256.79,-168.32C245.22,-160.11 227.62,-147.6 213.84,-137.81"/>
<polygon fill="midnightblue" stroke="midnightblue" points="215.61,-134.77 205.43,-131.83 211.56,-140.48 215.61,-134.77"/>
</g>
<!-- Node9&#45;&gt;Node5 -->
<g id="edge12" class="edge">
<title>Node9&#45;&gt;Node5</title>
<path fill="none" stroke="midnightblue" d="M326.94,-112.44C308.43,-103.68 279.42,-89.94 258.14,-79.86"/>
<polygon fill="midnightblue" stroke="midnightblue" points="259.51,-76.63 248.98,-75.52 256.52,-82.96 259.51,-76.63"/>
</g>
<!-- Node11 -->
<g id="node11" class="node">
<title>Node11</title>
<g id="a_node11"><a xlink:href="int_8h.html" target="_top" xlink:title=" ">
<polygon fill="white" stroke="black" points="32,-280.5 32,-299.5 112,-299.5 112,-280.5 32,-280.5"/>
<text text-anchor="middle" x="72" y="-287.5" font-family="Consolas" font-size="10.00">libccc/int.h</text>
</a>
</g>
</g>
<!-- Node10&#45;&gt;Node11 -->
<g id="edge15" class="edge">
<title>Node10&#45;&gt;Node11</title>
<path fill="none" stroke="midnightblue" d="M56.14,-336.08C58.68,-328.85 62.36,-318.41 65.53,-309.4"/>
<polygon fill="midnightblue" stroke="midnightblue" points="68.9,-310.35 68.92,-299.75 62.3,-308.02 68.9,-310.35"/>
</g>
<!-- Node11&#45;&gt;Node4 -->
<g id="edge17" class="edge">
<title>Node11&#45;&gt;Node4</title>
<path fill="none" stroke="midnightblue" d="M97.19,-280.44C123.94,-271.36 166.4,-256.94 196.31,-246.78"/>
<polygon fill="midnightblue" stroke="midnightblue" points="197.58,-250.05 205.92,-243.52 195.33,-243.42 197.58,-250.05"/>
</g>
<!-- Node12 -->
<g id="node12" class="node">
<title>Node12</title>
<g id="a_node12"><a xlink:title=" ">
<polygon fill="white" stroke="#bfbfbf" points="42.5,-224.5 42.5,-243.5 101.5,-243.5 101.5,-224.5 42.5,-224.5"/>
<text text-anchor="middle" x="72" y="-231.5" font-family="Consolas" font-size="10.00">stdint.h</text>
</a>
</g>
</g>
<!-- Node11&#45;&gt;Node12 -->
<g id="edge16" class="edge">
<title>Node11&#45;&gt;Node12</title>
<path fill="none" stroke="midnightblue" d="M72,-280.08C72,-273.01 72,-262.86 72,-253.99"/>
<polygon fill="midnightblue" stroke="midnightblue" points="75.5,-253.75 72,-243.75 68.5,-253.75 75.5,-253.75"/>
</g>
<!-- Node14 -->
<g id="node14" class="node">
<title>Node14</title>
<g id="a_node14"><a xlink:href="fixed_8h.html" target="_top" xlink:title=" ">
<polygon fill="white" stroke="black" points="143,-280.5 143,-299.5 233,-299.5 233,-280.5 143,-280.5"/>
<text text-anchor="middle" x="188" y="-287.5" font-family="Consolas" font-size="10.00">libccc/fixed.h</text>
</a>
</g>
</g>
<!-- Node13&#45;&gt;Node14 -->
<g id="edge19" class="edge">
<title>Node13&#45;&gt;Node14</title>
<path fill="none" stroke="midnightblue" d="M182.99,-336.08C183.79,-328.93 184.93,-318.64 185.92,-309.69"/>
<polygon fill="midnightblue" stroke="midnightblue" points="189.4,-310.08 187.03,-299.75 182.44,-309.3 189.4,-310.08"/>
</g>
<!-- Node14&#45;&gt;Node4 -->
<g id="edge20" class="edge">
<title>Node14&#45;&gt;Node4</title>
<path fill="none" stroke="midnightblue" d="M195.1,-280.08C201.24,-272.38 210.27,-261.03 217.74,-251.65"/>
<polygon fill="midnightblue" stroke="midnightblue" points="220.54,-253.75 224.03,-243.75 215.06,-249.39 220.54,-253.75"/>
</g>
<!-- Node15&#45;&gt;Node3 -->
<g id="edge22" class="edge">
<title>Node15&#45;&gt;Node3</title>
<path fill="none" stroke="midnightblue" d="M354,-336.08C354,-329.01 354,-318.86 354,-309.99"/>
<polygon fill="midnightblue" stroke="midnightblue" points="357.5,-309.75 354,-299.75 350.5,-309.75 357.5,-309.75"/>
</g>
</g>
</svg>
        <g id="navigator" transform="translate(0 0)" fill="#404254">
                <rect fill="#f2f5e9" fill-opacity="0.5" stroke="#606060" stroke-width=".5" x="0" y="0" width="60" height="60"/>
                <use id="zoomplus" xlink:href="#zoomPlus" x="17" y="9" onmousedown="handleZoom(evt,'in')"/>
                <use id="zoomminus" xlink:href="#zoomMin" x="42" y="9" onmousedown="handleZoom(evt,'out')"/>
                <use id="reset" xlink:href="#resetDef" x="30" y="36" onmousedown="handleReset()"/>
                <g id="arrowUp" xlink:href="#dirArrow" transform="translate(30 24)" onmousedown="handlePan(0,-1)">
                  <use xlink:href="#rim" fill="#404040">
                        <set attributeName="fill" to="#808080" begin="arrowUp.mouseover" end="arrowUp.mouseout"/>
                  </use>
                  <path fill="none" stroke="white" stroke-width="1.5" d="M0,-3.0v7 M-2.5,-0.5L0,-3.0L2.5,-0.5"/>
                </g>
                <g id="arrowRight" xlink:href="#dirArrow" transform="rotate(90) translate(36 -43)" onmousedown="handlePan(1,0)">
                  <use xlink:href="#rim" fill="#404040">
                        <set attributeName="fill" to="#808080" begin="arrowRight.mouseover" end="arrowRight.mouseout"/>
                  </use>
                  <path fill="none" stroke="white" stroke-width="1.5" d="M0,-3.0v7 M-2.5,-0.5L0,-3.0L2.5,-0.5"/>
                </g>
                <g id="arrowDown" xlink:href="#dirArrow" transform="rotate(180) translate(-30 -48)" onmousedown="handlePan(0,1)">
                  <use xlink:href="#rim" fill="#404040">
                        <set attributeName="fill" to="#808080" begin="arrowDown.mouseover" end="arrowDown.mouseout"/>
                  </use>
                  <path fill="none" stroke="white" stroke-width="1.5" d="M0,-3.0v7 M-2.5,-0.5L0,-3.0L2.5,-0.5"/>
                </g>
                <g id="arrowLeft" xlink:href="#dirArrow" transform="rotate(270) translate(-36 17)" onmousedown="handlePan(-1,0)">
                  <use xlink:href="#rim" fill="#404040">
                        <set attributeName="fill" to="#808080" begin="arrowLeft.mouseover" end="arrowLeft.mouseout"/>
                  </use>
                  <path fill="none" stroke="white" stroke-width="1.5" d="M0,-3.0v7 M-2.5,-0.5L0,-3.0L2.5,-0.5"/>
                </g>
        </g>
        <svg viewBox="0 0 15 15" width="100%" height="30px" preserveAspectRatio="xMaxYMin meet">
         <g id="arrow_out" transform="scale(0.3 0.3)">
          <a xlink:href="math_8h__incl_org.svg" target="_base">
           <rect id="button" ry="5" rx="5" y="6" x="6" height="38" width="38"
                fill="#f2f5e9" fill-opacity="0.5" stroke="#606060" stroke-width="1.0"/>
           <path id="arrow"
             d="M 11.500037,31.436501 C 11.940474,20.09759 22.043105,11.32322 32.158766,21.979434 L 37.068811,17.246167 C 37.068811,17.246167 37.088388,32 37.088388,32 L 22.160133,31.978069 C 22.160133,31.978069 26.997745,27.140456 26.997745,27.140456 C 18.528582,18.264221 13.291696,25.230495 11.500037,31.436501 z"
             style="fill:#404040;"/>
          </a>
         </g>
        </svg>
</svg>
