<?xml version="1.0" encoding="UTF-8" standalone="no"?>
<!DOCTYPE svg PUBLIC "-//W3C//DTD SVG 1.1//EN"
 "http://www.w3.org/Graphics/SVG/1.1/DTD/svg11.dtd">
<!-- Generated by graphviz version 2.43.0 (0)
 -->
<!-- Title: libccc/math.h Pages: 1 -->
<svg width="498pt" height="476pt"
 viewBox="0.00 0.00 497.50 476.00" xmlns="http://www.w3.org/2000/svg" xmlns:xlink="http://www.w3.org/1999/xlink">
<g id="graph0" class="graph" transform="scale(1 1) rotate(0) translate(4 472)">
<title>libccc/math.h</title>
<polygon fill="white" stroke="transparent" points="-4,4 -4,-472 493.5,-472 493.5,4 -4,4"/>
<!-- Node1 -->
<g id="node1" class="node">
<title>Node1</title>
<g id="a_node1"><a xlink:title=" ">
<polygon fill="#bfbfbf" stroke="black" points="238,-448.5 238,-467.5 323,-467.5 323,-448.5 238,-448.5"/>
<text text-anchor="middle" x="280.5" y="-455.5" font-family="Consolas" font-size="10.00">libccc/math.h</text>
</a>
</g>
</g>
<!-- Node2 -->
<g id="node2" class="node">
<title>Node2</title>
<g id="a_node2"><a xlink:href="constants_8h.html" target="_top" xlink:title=" ">
<polygon fill="white" stroke="black" points="0,-392.5 0,-411.5 137,-411.5 137,-392.5 0,-392.5"/>
<text text-anchor="middle" x="68.5" y="-399.5" font-family="Consolas" font-size="10.00">libccc/math/constants.h</text>
</a>
</g>
</g>
<!-- Node1&#45;&gt;Node2 -->
<g id="edge1" class="edge">
<title>Node1&#45;&gt;Node2</title>
<path fill="none" stroke="midnightblue" d="M246.91,-448.44C210.31,-439.12 151.66,-424.18 111.67,-414"/>
<polygon fill="midnightblue" stroke="midnightblue" points="112.49,-410.59 101.93,-411.52 110.76,-417.38 112.49,-410.59"/>
</g>
<!-- Node10 -->
<g id="node10" class="node">
<title>Node10</title>
<g id="a_node10"><a xlink:href="math_2int_8h.html" target="_top" xlink:title=" ">
<polygon fill="white" stroke="black" points="383.5,-336.5 383.5,-355.5 489.5,-355.5 489.5,-336.5 383.5,-336.5"/>
<text text-anchor="middle" x="436.5" y="-343.5" font-family="Consolas" font-size="10.00">libccc/math/int.h</text>
</a>
</g>
</g>
<!-- Node1&#45;&gt;Node10 -->
<g id="edge13" class="edge">
<title>Node1&#45;&gt;Node10</title>
<path fill="none" stroke="midnightblue" d="M323.12,-452.6C352.38,-447.45 390.18,-436.27 414.5,-412 426.75,-399.78 432.18,-380.52 434.59,-366.13"/>
<polygon fill="midnightblue" stroke="midnightblue" points="438.1,-366.23 435.94,-355.86 431.16,-365.31 438.1,-366.23"/>
</g>
<!-- Node13 -->
<g id="node13" class="node">
<title>Node13</title>
<g id="a_node13"><a xlink:href="math_2fixed_8h.html" target="_top" xlink:title=" ">
<polygon fill="white" stroke="black" points="289.5,-392.5 289.5,-411.5 405.5,-411.5 405.5,-392.5 289.5,-392.5"/>
<text text-anchor="middle" x="347.5" y="-399.5" font-family="Consolas" font-size="10.00">libccc/math/fixed.h</text>
</a>
</g>
</g>
<!-- Node1&#45;&gt;Node13 -->
<g id="edge17" class="edge">
<title>Node1&#45;&gt;Node13</title>
<path fill="none" stroke="midnightblue" d="M291.26,-448.32C301.27,-440.26 316.39,-428.08 328.43,-418.37"/>
<polygon fill="midnightblue" stroke="midnightblue" points="330.95,-420.83 336.54,-411.83 326.56,-415.38 330.95,-420.83"/>
</g>
<!-- Node15 -->
<g id="node15" class="node">
<title>Node15</title>
<g id="a_node15"><a xlink:href="math_2float_8h.html" target="_top" xlink:title=" ">
<polygon fill="white" stroke="black" points="155.5,-392.5 155.5,-411.5 271.5,-411.5 271.5,-392.5 155.5,-392.5"/>
<text text-anchor="middle" x="213.5" y="-399.5" font-family="Consolas" font-size="10.00">libccc/math/float.h</text>
</a>
</g>
</g>
<!-- Node1&#45;&gt;Node15 -->
<g id="edge21" class="edge">
<title>Node1&#45;&gt;Node15</title>
<path fill="none" stroke="midnightblue" d="M269.74,-448.32C259.73,-440.26 244.61,-428.08 232.57,-418.37"/>
<polygon fill="midnightblue" stroke="midnightblue" points="234.44,-415.38 224.46,-411.83 230.05,-420.83 234.44,-415.38"/>
</g>
<!-- Node3 -->
<g id="node3" class="node">
<title>Node3</title>
<g id="a_node3"><a xlink:href="float_8h.html" target="_top" xlink:title=" ">
<polygon fill="white" stroke="black" points="167.5,-336.5 167.5,-355.5 257.5,-355.5 257.5,-336.5 167.5,-336.5"/>
<text text-anchor="middle" x="212.5" y="-343.5" font-family="Consolas" font-size="10.00">libccc/float.h</text>
</a>
</g>
</g>
<!-- Node2&#45;&gt;Node3 -->
<g id="edge2" class="edge">
<title>Node2&#45;&gt;Node3</title>
<path fill="none" stroke="midnightblue" d="M91.32,-392.44C115.33,-383.44 153.33,-369.19 180.37,-359.05"/>
<polygon fill="midnightblue" stroke="midnightblue" points="181.66,-362.3 189.79,-355.52 179.2,-355.75 181.66,-362.3"/>
</g>
<!-- Node4 -->
<g id="node4" class="node">
<title>Node4</title>
<g id="a_node4"><a xlink:href="libccc_8h.html" target="_top" xlink:title=" ">
<polygon fill="white" stroke="black" points="252,-224.5 252,-243.5 311,-243.5 311,-224.5 252,-224.5"/>
<text text-anchor="middle" x="281.5" y="-231.5" font-family="Consolas" font-size="10.00">libccc.h</text>
</a>
</g>
</g>
<!-- Node3&#45;&gt;Node4 -->
<g id="edge3" class="edge">
<title>Node3&#45;&gt;Node4</title>
<path fill="none" stroke="midnightblue" d="M217.91,-336.37C229.25,-318.3 255.67,-276.18 270.64,-252.31"/>
<polygon fill="midnightblue" stroke="midnightblue" points="273.76,-253.92 276.11,-243.59 267.83,-250.2 273.76,-253.92"/>
</g>
<!-- Node5 -->
<g id="node5" class="node">
<title>Node5</title>
<g id="a_node5"><a xlink:href="libccc__define_8h.html" target="_top" xlink:title=" ">
<polygon fill="white" stroke="black" points="234,-56.5 234,-75.5 329,-75.5 329,-56.5 234,-56.5"/>
<text text-anchor="middle" x="281.5" y="-63.5" font-family="Consolas" font-size="10.00">libccc_define.h</text>
</a>
</g>
</g>
<!-- Node4&#45;&gt;Node5 -->
<g id="edge4" class="edge">
<title>Node4&#45;&gt;Node5</title>
<path fill="none" stroke="midnightblue" d="M265.5,-224.5C231.62,-205.36 158.01,-157.02 186.5,-112 196.55,-96.13 213.87,-85.74 231,-79"/>
<polygon fill="midnightblue" stroke="midnightblue" points="232.21,-82.28 240.45,-75.62 229.85,-75.69 232.21,-82.28"/>
</g>
<!-- Node7 -->
<g id="node7" class="node">
<title>Node7</title>
<g id="a_node7"><a xlink:href="libccc__errors_8h.html" target="_top" xlink:title=" ">
<polygon fill="white" stroke="black" points="196,-112.5 196,-131.5 291,-131.5 291,-112.5 196,-112.5"/>
<text text-anchor="middle" x="243.5" y="-119.5" font-family="Consolas" font-size="10.00">libccc_errors.h</text>
</a>
</g>
</g>
<!-- Node4&#45;&gt;Node7 -->
<g id="edge6" class="edge">
<title>Node4&#45;&gt;Node7</title>
<path fill="none" stroke="midnightblue" d="M277.56,-224.49C273.49,-215.53 267.11,-200.94 262.5,-188 256.96,-172.42 251.77,-154.35 248.22,-141.22"/>
<polygon fill="midnightblue" stroke="midnightblue" points="251.6,-140.29 245.65,-131.51 244.83,-142.08 251.6,-140.29"/>
</g>
<!-- Node8 -->
<g id="node8" class="node">
<title>Node8</title>
<g id="a_node8"><a xlink:href="libccc__config_8h.html" target="_top" xlink:title=" ">
<polygon fill="white" stroke="black" points="272,-168.5 272,-187.5 367,-187.5 367,-168.5 272,-168.5"/>
<text text-anchor="middle" x="319.5" y="-175.5" font-family="Consolas" font-size="10.00">libccc_config.h</text>
</a>
</g>
</g>
<!-- Node4&#45;&gt;Node8 -->
<g id="edge8" class="edge">
<title>Node4&#45;&gt;Node8</title>
<path fill="none" stroke="midnightblue" d="M287.77,-224.08C293.14,-216.46 301.02,-205.26 307.58,-195.94"/>
<polygon fill="midnightblue" stroke="midnightblue" points="310.45,-197.94 313.34,-187.75 304.72,-193.91 310.45,-197.94"/>
</g>
<!-- Node9 -->
<g id="node9" class="node">
<title>Node9</title>
<g id="a_node9"><a xlink:href="libccc__naming_8h.html" target="_top" xlink:title=" ">
<polygon fill="white" stroke="black" points="348,-112.5 348,-131.5 443,-131.5 443,-112.5 348,-112.5"/>
<text text-anchor="middle" x="395.5" y="-119.5" font-family="Consolas" font-size="10.00">libccc_naming.h</text>
</a>
</g>
</g>
<!-- Node4&#45;&gt;Node9 -->
<g id="edge11" class="edge">
<title>Node4&#45;&gt;Node9</title>
<path fill="none" stroke="midnightblue" d="M311.23,-225.9C332.29,-219.4 359.68,-207.71 376.5,-188 387.58,-175.02 392.2,-155.85 394.13,-141.69"/>
<polygon fill="midnightblue" stroke="midnightblue" points="397.62,-141.93 395.17,-131.63 390.66,-141.22 397.62,-141.93"/>
</g>
<!-- Node6 -->
<g id="node6" class="node">
<title>Node6</title>
<g id="a_node6"><a xlink:title=" ">
<polygon fill="white" stroke="#bfbfbf" points="247,-0.5 247,-19.5 316,-19.5 316,-0.5 247,-0.5"/>
<text text-anchor="middle" x="281.5" y="-7.5" font-family="Consolas" font-size="10.00">stdalign.h</text>
</a>
</g>
</g>
<!-- Node5&#45;&gt;Node6 -->
<g id="edge5" class="edge">
<title>Node5&#45;&gt;Node6</title>
<path fill="none" stroke="midnightblue" d="M281.5,-56.08C281.5,-49.01 281.5,-38.86 281.5,-29.99"/>
<polygon fill="midnightblue" stroke="midnightblue" points="285,-29.75 281.5,-19.75 278,-29.75 285,-29.75"/>
</g>
<!-- Node7&#45;&gt;Node5 -->
<g id="edge7" class="edge">
<title>Node7&#45;&gt;Node5</title>
<path fill="none" stroke="midnightblue" d="M249.77,-112.08C255.14,-104.46 263.02,-93.26 269.58,-83.94"/>
<polygon fill="midnightblue" stroke="midnightblue" points="272.45,-85.94 275.34,-75.75 266.72,-81.91 272.45,-85.94"/>
</g>
<!-- Node8&#45;&gt;Node5 -->
<g id="edge9" class="edge">
<title>Node8&#45;&gt;Node5</title>
<path fill="none" stroke="midnightblue" d="M317.01,-168.09C313.43,-155.5 306.5,-131.82 299.5,-112 296.31,-102.96 292.39,-93.06 289.03,-84.85"/>
<polygon fill="midnightblue" stroke="midnightblue" points="292.23,-83.44 285.16,-75.55 285.77,-86.12 292.23,-83.44"/>
</g>
<!-- Node8&#45;&gt;Node7 -->
<g id="edge10" class="edge">
<title>Node8&#45;&gt;Node7</title>
<path fill="none" stroke="midnightblue" d="M307.29,-168.32C295.72,-160.11 278.12,-147.6 264.34,-137.81"/>
<polygon fill="midnightblue" stroke="midnightblue" points="266.11,-134.77 255.93,-131.83 262.06,-140.48 266.11,-134.77"/>
</g>
<!-- Node9&#45;&gt;Node5 -->
<g id="edge12" class="edge">
<title>Node9&#45;&gt;Node5</title>
<path fill="none" stroke="midnightblue" d="M377.44,-112.44C358.93,-103.68 329.92,-89.94 308.64,-79.86"/>
<polygon fill="midnightblue" stroke="midnightblue" points="310.01,-76.63 299.48,-75.52 307.02,-82.96 310.01,-76.63"/>
</g>
<!-- Node11 -->
<g id="node11" class="node">
<title>Node11</title>
<g id="a_node11"><a xlink:href="int_8h.html" target="_top" xlink:title=" ">
<polygon fill="white" stroke="black" points="314.5,-280.5 314.5,-299.5 394.5,-299.5 394.5,-280.5 314.5,-280.5"/>
<text text-anchor="middle" x="354.5" y="-287.5" font-family="Consolas" font-size="10.00">libccc/int.h</text>
</a>
</g>
</g>
<!-- Node10&#45;&gt;Node11 -->
<g id="edge14" class="edge">
<title>Node10&#45;&gt;Node11</title>
<path fill="none" stroke="midnightblue" d="M423.33,-336.32C410.65,-327.98 391.27,-315.21 376.29,-305.35"/>
<polygon fill="midnightblue" stroke="midnightblue" points="377.92,-302.23 367.64,-299.65 374.07,-308.08 377.92,-302.23"/>
</g>
<!-- Node11&#45;&gt;Node4 -->
<g id="edge16" class="edge">
<title>Node11&#45;&gt;Node4</title>
<path fill="none" stroke="midnightblue" d="M342.77,-280.32C331.66,-272.11 314.76,-259.6 301.52,-249.81"/>
<polygon fill="midnightblue" stroke="midnightblue" points="303.56,-246.97 293.44,-243.83 299.4,-252.59 303.56,-246.97"/>
</g>
<!-- Node12 -->
<g id="node12" class="node">
<title>Node12</title>
<g id="a_node12"><a xlink:title=" ">
<polygon fill="white" stroke="#bfbfbf" points="329,-224.5 329,-243.5 388,-243.5 388,-224.5 329,-224.5"/>
<text text-anchor="middle" x="358.5" y="-231.5" font-family="Consolas" font-size="10.00">stdint.h</text>
</a>
</g>
</g>
<!-- Node11&#45;&gt;Node12 -->
<g id="edge15" class="edge">
<title>Node11&#45;&gt;Node12</title>
<path fill="none" stroke="midnightblue" d="M355.16,-280.08C355.68,-273.01 356.44,-262.86 357.09,-253.99"/>
<polygon fill="midnightblue" stroke="midnightblue" points="360.6,-253.98 357.85,-243.75 353.62,-253.47 360.6,-253.98"/>
</g>
<!-- Node14 -->
<g id="node14" class="node">
<title>Node14</title>
<g id="a_node14"><a xlink:href="fixed_8h.html" target="_top" xlink:title=" ">
<polygon fill="white" stroke="black" points="275.5,-336.5 275.5,-355.5 365.5,-355.5 365.5,-336.5 275.5,-336.5"/>
<text text-anchor="middle" x="320.5" y="-343.5" font-family="Consolas" font-size="10.00">libccc/fixed.h</text>
</a>
</g>
</g>
<!-- Node13&#45;&gt;Node14 -->
<g id="edge18" class="edge">
<title>Node13&#45;&gt;Node14</title>
<path fill="none" stroke="midnightblue" d="M343.04,-392.08C339.35,-384.69 333.98,-373.95 329.41,-364.81"/>
<polygon fill="midnightblue" stroke="midnightblue" points="332.48,-363.13 324.88,-355.75 326.22,-366.26 332.48,-363.13"/>
</g>
<!-- Node14&#45;&gt;Node4 -->
<g id="edge19" class="edge">
<title>Node14&#45;&gt;Node4</title>
<path fill="none" stroke="midnightblue" d="M317.44,-336.37C311.12,-318.54 296.5,-277.3 287.98,-253.27"/>
<polygon fill="midnightblue" stroke="midnightblue" points="291.19,-251.85 284.55,-243.59 284.59,-254.19 291.19,-251.85"/>
</g>
<!-- Node14&#45;&gt;Node11 -->
<g id="edge20" class="edge">
<title>Node14&#45;&gt;Node11</title>
<path fill="none" stroke="midnightblue" d="M326.11,-336.08C330.87,-328.53 337.82,-317.49 343.65,-308.23"/>
<polygon fill="midnightblue" stroke="midnightblue" points="346.62,-310.08 348.99,-299.75 340.7,-306.35 346.62,-310.08"/>
</g>
<!-- Node15&#45;&gt;Node3 -->
<g id="edge22" class="edge">
<title>Node15&#45;&gt;Node3</title>
<path fill="none" stroke="midnightblue" d="M213.33,-392.08C213.2,-385.01 213.02,-374.86 212.85,-365.99"/>
<polygon fill="midnightblue" stroke="midnightblue" points="216.35,-365.68 212.66,-355.75 209.35,-365.81 216.35,-365.68"/>
</g>
</g>
</svg>
