<?xml version="1.0" encoding="UTF-8" standalone="no"?>
<!DOCTYPE svg PUBLIC "-//W3C//DTD SVG 1.1//EN"
 "http://www.w3.org/Graphics/SVG/1.1/DTD/svg11.dtd">
<!-- Generated by graphviz version 2.49.3 (20211023.0002)
 -->
<!-- Title: hdr/libccc/math/algebra/matrix.h Pages: 1 -->
<!--zoomable 442 -->
<svg id="main" version="1.1" xmlns="http://www.w3.org/2000/svg" xmlns:xlink="http://www.w3.org/1999/xlink" xml:space="preserve" onload="init(evt)">
<style type="text/css"><![CDATA[
.edge:hover path { stroke: red; }
.edge:hover polygon { stroke: red; fill: red; }
]]></style>
<script type="text/javascript"><![CDATA[
var edges = document.getElementsByTagName('g');
if (edges && edges.length) {
  for (var i=0;i<edges.length;i++) {
    if (edges[i].id.substr(0,4)=='edge') {
      edges[i].setAttribute('class','edge');
    }
  }
}
]]></script>
        <defs>
                <circle id="rim" cx="0" cy="0" r="7"/>
                <circle id="rim2" cx="0" cy="0" r="3.5"/>
                <g id="zoomPlus">
                        <use xlink:href="#rim" fill="#404040">
                                <set attributeName="fill" to="#808080" begin="zoomplus.mouseover" end="zoomplus.mouseout"/>
                        </use>
                        <path d="M-4,0h8M0,-4v8" fill="none" stroke="white" stroke-width="1.5" pointer-events="none"/>
                </g>
                <g id="zoomMin">
                        <use xlink:href="#rim" fill="#404040">
                                <set attributeName="fill" to="#808080" begin="zoomminus.mouseover" end="zoomminus.mouseout"/>
                        </use>
                        <path d="M-4,0h8" fill="none" stroke="white" stroke-width="1.5" pointer-events="none"/>
                </g>
                <g id="dirArrow">
                        <path fill="none" stroke="white" stroke-width="1.5" d="M0,-3.0v7 M-2.5,-0.5L0,-3.0L2.5,-0.5"/>
                </g>
               <g id="resetDef">
                       <use xlink:href="#rim2" fill="#404040">
                               <set attributeName="fill" to="#808080" begin="reset.mouseover" end="reset.mouseout"/>
                       </use>
               </g>
        </defs>

<script type="text/javascript">
var viewWidth = 741;
var viewHeight = 442;
var sectionId = 'dynsection-0';
</script>
<script xlink:href="svgpan.js"/>
<svg id="graph" class="graph">
<g id="viewport">
<title>hdr/libccc/math/algebra/matrix.h</title>
<polygon fill="white" stroke="transparent" points="-4,4 -4,-438 736.5,-438 736.5,4 -4,4"/>
<!-- Node1 -->
<g id="node1" class="node">
<title>Node1</title>
<g id="a_node1"><a xlink:title=" ">
<polygon fill="#bfbfbf" stroke="black" points="469,-403.5 469,-433.5 587,-433.5 587,-403.5 469,-403.5"/>
<text text-anchor="start" x="477" y="-421.5" font-family="Consolas" font-size="10.00">hdr/libccc/math/algebra</text>
<text text-anchor="middle" x="528" y="-410.5" font-family="Consolas" font-size="10.00">/matrix.h</text>
</a>
</g>
</g>
<!-- Node2 -->
<g id="node2" class="node">
<title>Node2</title>
<g id="a_node2"><a xlink:href="bool_8h.html" target="_top" xlink:title=" ">
<polygon fill="white" stroke="black" points="340.5,-280.5 340.5,-299.5 411.5,-299.5 411.5,-280.5 340.5,-280.5"/>
<text text-anchor="middle" x="376" y="-287.5" font-family="Consolas" font-size="10.00">libccc/bool.h</text>
</a>
</g>
</g>
<!-- Node1&#45;&gt;Node2 -->
<g id="edge1" class="edge">
<title>Node1&#45;&gt;Node2</title>
<path fill="none" stroke="midnightblue" d="M494.5,-403.46C475.81,-394.65 452.79,-382.1 435,-367 414.99,-350.01 397.31,-325.24 386.65,-308.64"/>
<polygon fill="midnightblue" stroke="midnightblue" points="389.48,-306.56 381.21,-299.94 383.54,-310.27 389.48,-306.56"/>
</g>
<!-- Node13 -->
<g id="node13" class="node">
<title>Node13</title>
<g id="a_node13"><a xlink:href="int_8h.html" target="_top" xlink:title=" ">
<polygon fill="white" stroke="black" points="496,-168.5 496,-187.5 560,-187.5 560,-168.5 496,-168.5"/>
<text text-anchor="middle" x="528" y="-175.5" font-family="Consolas" font-size="10.00">libccc/int.h</text>
</a>
</g>
</g>
<!-- Node1&#45;&gt;Node13 -->
<g id="edge29" class="edge">
<title>Node1&#45;&gt;Node13</title>
<path fill="none" stroke="midnightblue" d="M503,-403.39C490.28,-394.71 476.05,-382.31 469,-367 441.15,-306.5 489.79,-229.28 514.68,-195.77"/>
<polygon fill="midnightblue" stroke="midnightblue" points="517.69,-197.6 520.99,-187.53 512.13,-193.34 517.69,-197.6"/>
</g>
<!-- Node15 -->
<g id="node15" class="node">
<title>Node15</title>
<g id="a_node15"><a xlink:href="float_8h.html" target="_top" xlink:title=" ">
<polygon fill="white" stroke="black" points="578,-168.5 578,-187.5 650,-187.5 650,-168.5 578,-168.5"/>
<text text-anchor="middle" x="614" y="-175.5" font-family="Consolas" font-size="10.00">libccc/float.h</text>
</a>
</g>
</g>
<!-- Node1&#45;&gt;Node15 -->
<g id="edge30" class="edge">
<title>Node1&#45;&gt;Node15</title>
<path fill="none" stroke="midnightblue" d="M551.99,-403.49C564.81,-394.69 579.65,-382.14 588,-367 618.61,-311.54 617.91,-233.34 615.66,-197.84"/>
<polygon fill="midnightblue" stroke="midnightblue" points="619.12,-197.24 614.88,-187.54 612.14,-197.77 619.12,-197.24"/>
</g>
<!-- Node18 -->
<g id="node18" class="node">
<title>Node18</title>
<g id="a_node18"><a xlink:href="math_2float_8h.html" target="_top" xlink:title=" ">
<polygon fill="white" stroke="black" points="635.5,-280.5 635.5,-299.5 732.5,-299.5 732.5,-280.5 635.5,-280.5"/>
<text text-anchor="middle" x="684" y="-287.5" font-family="Consolas" font-size="10.00">libccc/math/float.h</text>
</a>
</g>
</g>
<!-- Node1&#45;&gt;Node18 -->
<g id="edge31" class="edge">
<title>Node1&#45;&gt;Node18</title>
<path fill="none" stroke="midnightblue" d="M560.88,-403.45C579.58,-394.56 602.83,-381.93 621,-367 641.81,-349.9 660.81,-325.15 672.38,-308.59"/>
<polygon fill="midnightblue" stroke="midnightblue" points="675.56,-310.14 678.29,-299.91 669.77,-306.2 675.56,-310.14"/>
</g>
<!-- Node19 -->
<g id="node19" class="node">
<title>Node19</title>
<g id="a_node19"><a xlink:href="vector_8h.html" target="_top" xlink:title=" ">
<polygon fill="white" stroke="black" points="477.5,-336.5 477.5,-366.5 578.5,-366.5 578.5,-336.5 477.5,-336.5"/>
<text text-anchor="start" x="485.5" y="-354.5" font-family="Consolas" font-size="10.00">libccc/math/algebra</text>
<text text-anchor="middle" x="528" y="-343.5" font-family="Consolas" font-size="10.00">/vector.h</text>
</a>
</g>
</g>
<!-- Node1&#45;&gt;Node19 -->
<g id="edge33" class="edge">
<title>Node1&#45;&gt;Node19</title>
<path fill="none" stroke="midnightblue" d="M528,-403.4C528,-395.64 528,-385.81 528,-376.86"/>
<polygon fill="midnightblue" stroke="midnightblue" points="531.5,-376.58 528,-366.58 524.5,-376.58 531.5,-376.58"/>
</g>
<!-- Node3 -->
<g id="node3" class="node">
<title>Node3</title>
<g id="a_node3"><a xlink:href="libccc_8h.html" target="_top" xlink:title=" ">
<polygon fill="white" stroke="black" points="341,-224.5 341,-243.5 391,-243.5 391,-224.5 341,-224.5"/>
<text text-anchor="middle" x="366" y="-231.5" font-family="Consolas" font-size="10.00">libccc.h</text>
</a>
</g>
</g>
<!-- Node2&#45;&gt;Node3 -->
<g id="edge2" class="edge">
<title>Node2&#45;&gt;Node3</title>
<path fill="none" stroke="midnightblue" d="M369.18,-280.08C366.38,-273.01 364.06,-262.86 363.04,-253.99"/>
<polygon fill="midnightblue" stroke="midnightblue" points="366.52,-253.55 362.49,-243.75 359.53,-253.92 366.52,-253.55"/>
</g>
<!-- Node3&#45;&gt;Node2 -->
<g id="edge12" class="edge">
<title>Node3&#45;&gt;Node2</title>
<path fill="none" stroke="midnightblue" d="M372.75,-243.75C375.56,-250.78 377.89,-260.91 378.94,-269.8"/>
<polygon fill="midnightblue" stroke="midnightblue" points="375.46,-270.29 379.52,-280.08 382.45,-269.9 375.46,-270.29"/>
</g>
<!-- Node4 -->
<g id="node4" class="node">
<title>Node4</title>
<g id="a_node4"><a xlink:href="libccc__define_8h.html" target="_top" xlink:title=" ">
<polygon fill="white" stroke="black" points="134,-56.5 134,-75.5 216,-75.5 216,-56.5 134,-56.5"/>
<text text-anchor="middle" x="175" y="-63.5" font-family="Consolas" font-size="10.00">libccc_define.h</text>
</a>
</g>
</g>
<!-- Node3&#45;&gt;Node4 -->
<g id="edge3" class="edge">
<title>Node3&#45;&gt;Node4</title>
<path fill="none" stroke="midnightblue" d="M346.85,-224.41C329.61,-216.24 304,-203.01 284,-188 242.91,-157.17 205.24,-109.15 186.83,-83.88"/>
<polygon fill="midnightblue" stroke="midnightblue" points="189.62,-81.76 180.95,-75.66 183.93,-85.83 189.62,-81.76"/>
</g>
<!-- Node6 -->
<g id="node6" class="node">
<title>Node6</title>
<g id="a_node6"><a xlink:href="libccc__errors_8h.html" target="_top" xlink:title=" ">
<polygon fill="white" stroke="black" points="101,-112.5 101,-131.5 181,-131.5 181,-112.5 101,-112.5"/>
<text text-anchor="middle" x="141" y="-119.5" font-family="Consolas" font-size="10.00">libccc_errors.h</text>
</a>
</g>
</g>
<!-- Node3&#45;&gt;Node6 -->
<g id="edge5" class="edge">
<title>Node3&#45;&gt;Node6</title>
<path fill="none" stroke="midnightblue" d="M340.96,-227.69C312.13,-220.97 263.89,-207.82 226,-188 200.21,-174.51 174.15,-153.18 157.81,-138.67"/>
<polygon fill="midnightblue" stroke="midnightblue" points="159.96,-135.9 150.2,-131.77 155.26,-141.08 159.96,-135.9"/>
</g>
<!-- Node7 -->
<g id="node7" class="node">
<title>Node7</title>
<g id="a_node7"><a xlink:href="libccc__config_8h.html" target="_top" xlink:title=" ">
<polygon fill="white" stroke="black" points="0,-168.5 0,-187.5 82,-187.5 82,-168.5 0,-168.5"/>
<text text-anchor="middle" x="41" y="-175.5" font-family="Consolas" font-size="10.00">libccc_config.h</text>
</a>
</g>
</g>
<!-- Node3&#45;&gt;Node7 -->
<g id="edge7" class="edge">
<title>Node3&#45;&gt;Node7</title>
<path fill="none" stroke="midnightblue" d="M340.95,-229.04C294.2,-221.61 190.23,-204.96 92.26,-188.2"/>
<polygon fill="midnightblue" stroke="midnightblue" points="92.64,-184.71 82.19,-186.47 91.46,-191.61 92.64,-184.71"/>
</g>
<!-- Node8 -->
<g id="node8" class="node">
<title>Node8</title>
<g id="a_node8"><a xlink:href="libccc__naming_8h.html" target="_top" xlink:title=" ">
<polygon fill="white" stroke="black" points="237.5,-112.5 237.5,-131.5 324.5,-131.5 324.5,-112.5 237.5,-112.5"/>
<text text-anchor="middle" x="281" y="-119.5" font-family="Consolas" font-size="10.00">libccc_naming.h</text>
</a>
</g>
</g>
<!-- Node3&#45;&gt;Node8 -->
<g id="edge10" class="edge">
<title>Node3&#45;&gt;Node8</title>
<path fill="none" stroke="midnightblue" d="M345.1,-224.49C329.54,-217.1 309,-204.91 297,-188 287.44,-174.52 283.56,-155.97 282.01,-142.13"/>
<polygon fill="midnightblue" stroke="midnightblue" points="285.47,-141.51 281.17,-131.83 278.49,-142.08 285.47,-141.51"/>
</g>
<!-- Node9 -->
<g id="node9" class="node">
<title>Node9</title>
<g id="a_node9"><a xlink:href="char_8h.html" target="_top" xlink:title=" ">
<polygon fill="white" stroke="black" points="406.5,-168.5 406.5,-187.5 477.5,-187.5 477.5,-168.5 406.5,-168.5"/>
<text text-anchor="middle" x="442" y="-175.5" font-family="Consolas" font-size="10.00">libccc/char.h</text>
</a>
</g>
</g>
<!-- Node3&#45;&gt;Node9 -->
<g id="edge13" class="edge">
<title>Node3&#45;&gt;Node9</title>
<path fill="none" stroke="midnightblue" d="M373.1,-224.32C383.13,-215.9 401.03,-202.97 416.18,-193.07"/>
<polygon fill="midnightblue" stroke="midnightblue" points="418.15,-195.97 424.71,-187.65 414.39,-190.06 418.15,-195.97"/>
</g>
<!-- Node3&#45;&gt;Node13 -->
<g id="edge18" class="edge">
<title>Node3&#45;&gt;Node13</title>
<path fill="none" stroke="midnightblue" d="M386.58,-224.44C412.06,-215.28 455.65,-200.69 487.8,-190.52"/>
<polygon fill="midnightblue" stroke="midnightblue" points="488.88,-193.85 497.37,-187.52 486.78,-187.17 488.88,-193.85"/>
</g>
<!-- Node14 -->
<g id="node14" class="node">
<title>Node14</title>
<g id="a_node14"><a xlink:href="fixed_8h.html" target="_top" xlink:title=" ">
<polygon fill="white" stroke="black" points="100,-168.5 100,-187.5 174,-187.5 174,-168.5 100,-168.5"/>
<text text-anchor="middle" x="137" y="-175.5" font-family="Consolas" font-size="10.00">libccc/fixed.h</text>
</a>
</g>
</g>
<!-- Node3&#45;&gt;Node14 -->
<g id="edge21" class="edge">
<title>Node3&#45;&gt;Node14</title>
<path fill="none" stroke="midnightblue" d="M340.75,-228.02C301.4,-219.43 225.52,-201.65 178.21,-190.03"/>
<polygon fill="midnightblue" stroke="midnightblue" points="178.83,-186.58 168.29,-187.58 177.16,-193.38 178.83,-186.58"/>
</g>
<!-- Node3&#45;&gt;Node15 -->
<g id="edge23" class="edge">
<title>Node3&#45;&gt;Node15</title>
<path fill="none" stroke="midnightblue" d="M391.33,-226.49C432.86,-216.86 515.57,-198.81 567.73,-187.95"/>
<polygon fill="midnightblue" stroke="midnightblue" points="568.65,-191.33 577.73,-185.88 567.23,-184.48 568.65,-191.33"/>
</g>
<!-- Node16 -->
<g id="node16" class="node">
<title>Node16</title>
<g id="a_node16"><a xlink:href="pointer_8h.html" target="_top" xlink:title=" ">
<polygon fill="white" stroke="black" points="306,-168.5 306,-187.5 388,-187.5 388,-168.5 306,-168.5"/>
<text text-anchor="middle" x="347" y="-175.5" font-family="Consolas" font-size="10.00">libccc/pointer.h</text>
</a>
</g>
</g>
<!-- Node3&#45;&gt;Node16 -->
<g id="edge25" class="edge">
<title>Node3&#45;&gt;Node16</title>
<path fill="none" stroke="midnightblue" d="M357.7,-224.08C353.67,-216.93 349.62,-206.64 347.12,-197.69"/>
<polygon fill="midnightblue" stroke="midnightblue" points="350.5,-196.77 344.95,-187.75 343.66,-198.27 350.5,-196.77"/>
</g>
<!-- Node5 -->
<g id="node5" class="node">
<title>Node5</title>
<g id="a_node5"><a xlink:title=" ">
<polygon fill="white" stroke="#bfbfbf" points="145.5,-0.5 145.5,-19.5 204.5,-19.5 204.5,-0.5 145.5,-0.5"/>
<text text-anchor="middle" x="175" y="-7.5" font-family="Consolas" font-size="10.00">stdalign.h</text>
</a>
</g>
</g>
<!-- Node4&#45;&gt;Node5 -->
<g id="edge4" class="edge">
<title>Node4&#45;&gt;Node5</title>
<path fill="none" stroke="midnightblue" d="M175,-56.08C175,-49.01 175,-38.86 175,-29.99"/>
<polygon fill="midnightblue" stroke="midnightblue" points="178.5,-29.75 175,-19.75 171.5,-29.75 178.5,-29.75"/>
</g>
<!-- Node6&#45;&gt;Node4 -->
<g id="edge6" class="edge">
<title>Node6&#45;&gt;Node4</title>
<path fill="none" stroke="midnightblue" d="M146.61,-112.08C151.37,-104.53 158.32,-93.49 164.15,-84.23"/>
<polygon fill="midnightblue" stroke="midnightblue" points="167.12,-86.08 169.49,-75.75 161.2,-82.35 167.12,-86.08"/>
</g>
<!-- Node7&#45;&gt;Node4 -->
<g id="edge8" class="edge">
<title>Node7&#45;&gt;Node4</title>
<path fill="none" stroke="midnightblue" d="M46.32,-168.07C54.69,-154.59 72.05,-128.84 92,-112 107.7,-98.74 127.94,-87.67 144.49,-79.83"/>
<polygon fill="midnightblue" stroke="midnightblue" points="146.12,-82.94 153.76,-75.6 143.21,-76.57 146.12,-82.94"/>
</g>
<!-- Node7&#45;&gt;Node6 -->
<g id="edge9" class="edge">
<title>Node7&#45;&gt;Node6</title>
<path fill="none" stroke="midnightblue" d="M57.07,-168.32C72.96,-159.74 97.51,-146.49 115.96,-136.52"/>
<polygon fill="midnightblue" stroke="midnightblue" points="117.84,-139.49 124.97,-131.65 114.51,-133.33 117.84,-139.49"/>
</g>
<!-- Node8&#45;&gt;Node4 -->
<g id="edge11" class="edge">
<title>Node8&#45;&gt;Node4</title>
<path fill="none" stroke="midnightblue" d="M263.97,-112.32C246.97,-103.66 220.62,-90.24 201.01,-80.25"/>
<polygon fill="midnightblue" stroke="midnightblue" points="202.49,-77.08 191.99,-75.65 199.31,-83.31 202.49,-77.08"/>
</g>
<!-- Node9&#45;&gt;Node3 -->
<g id="edge15" class="edge">
<title>Node9&#45;&gt;Node3</title>
<path fill="none" stroke="midnightblue" d="M434.72,-187.83C424.65,-196.26 406.87,-209.1 391.8,-218.94"/>
<polygon fill="midnightblue" stroke="midnightblue" points="389.89,-216.01 383.33,-224.32 393.64,-221.91 389.89,-216.01"/>
</g>
<!-- Node10 -->
<g id="node10" class="node">
<title>Node10</title>
<g id="a_node10"><a xlink:title=" ">
<polygon fill="white" stroke="#bfbfbf" points="413.5,-112.5 413.5,-131.5 462.5,-131.5 462.5,-112.5 413.5,-112.5"/>
<text text-anchor="middle" x="438" y="-119.5" font-family="Consolas" font-size="10.00">stdint.h</text>
</a>
</g>
</g>
<!-- Node9&#45;&gt;Node10 -->
<g id="edge14" class="edge">
<title>Node9&#45;&gt;Node10</title>
<path fill="none" stroke="midnightblue" d="M441.34,-168.08C440.82,-161.01 440.06,-150.86 439.41,-141.99"/>
<polygon fill="midnightblue" stroke="midnightblue" points="442.88,-141.47 438.65,-131.75 435.9,-141.98 442.88,-141.47"/>
</g>
<!-- Node11 -->
<g id="node11" class="node">
<title>Node11</title>
<g id="a_node11"><a xlink:title=" ">
<polygon fill="white" stroke="#bfbfbf" points="480.5,-112.5 480.5,-131.5 573.5,-131.5 573.5,-112.5 480.5,-112.5"/>
<text text-anchor="middle" x="527" y="-119.5" font-family="Consolas" font-size="10.00">libccc/text/ascii.h</text>
</a>
</g>
</g>
<!-- Node9&#45;&gt;Node11 -->
<g id="edge16" class="edge">
<title>Node9&#45;&gt;Node11</title>
<path fill="none" stroke="midnightblue" d="M455.66,-168.32C468.92,-159.9 489.27,-146.97 504.85,-137.07"/>
<polygon fill="midnightblue" stroke="midnightblue" points="506.81,-139.97 513.38,-131.65 503.06,-134.06 506.81,-139.97"/>
</g>
<!-- Node12 -->
<g id="node12" class="node">
<title>Node12</title>
<g id="a_node12"><a xlink:title=" ">
<polygon fill="white" stroke="#bfbfbf" points="591.5,-112.5 591.5,-131.5 698.5,-131.5 698.5,-112.5 591.5,-112.5"/>
<text text-anchor="middle" x="645" y="-119.5" font-family="Consolas" font-size="10.00">libccc/text/unicode.h</text>
</a>
</g>
</g>
<!-- Node9&#45;&gt;Node12 -->
<g id="edge17" class="edge">
<title>Node9&#45;&gt;Node12</title>
<path fill="none" stroke="midnightblue" d="M474.17,-168.44C509.06,-159.16 564.89,-144.31 603.17,-134.13"/>
<polygon fill="midnightblue" stroke="midnightblue" points="604.22,-137.47 612.98,-131.52 602.42,-130.7 604.22,-137.47"/>
</g>
<!-- Node13&#45;&gt;Node3 -->
<g id="edge20" class="edge">
<title>Node13&#45;&gt;Node3</title>
<path fill="none" stroke="midnightblue" d="M507.41,-187.56C480.45,-197.25 433.25,-213.02 400.76,-223.19"/>
<polygon fill="midnightblue" stroke="midnightblue" points="399.71,-219.86 391.19,-226.16 401.78,-226.54 399.71,-219.86"/>
</g>
<!-- Node13&#45;&gt;Node10 -->
<g id="edge19" class="edge">
<title>Node13&#45;&gt;Node10</title>
<path fill="none" stroke="midnightblue" d="M513.54,-168.32C499.5,-159.9 477.95,-146.97 461.46,-137.07"/>
<polygon fill="midnightblue" stroke="midnightblue" points="462.8,-133.8 452.42,-131.65 459.2,-139.8 462.8,-133.8"/>
</g>
<!-- Node14&#45;&gt;Node3 -->
<g id="edge22" class="edge">
<title>Node14&#45;&gt;Node3</title>
<path fill="none" stroke="midnightblue" d="M174.02,-186.58C217.37,-196.25 288.38,-212.96 330.89,-223.47"/>
<polygon fill="midnightblue" stroke="midnightblue" points="330.24,-226.92 340.79,-225.94 331.94,-220.13 330.24,-226.92"/>
</g>
<!-- Node15&#45;&gt;Node3 -->
<g id="edge24" class="edge">
<title>Node15&#45;&gt;Node3</title>
<path fill="none" stroke="midnightblue" d="M579.9,-187.53C532.79,-198.31 448.55,-216.61 400.97,-226.39"/>
<polygon fill="midnightblue" stroke="midnightblue" points="400.22,-222.97 391.12,-228.4 401.62,-229.83 400.22,-222.97"/>
</g>
<!-- Node16&#45;&gt;Node3 -->
<g id="edge28" class="edge">
<title>Node16&#45;&gt;Node3</title>
<path fill="none" stroke="midnightblue" d="M355.21,-187.75C359.24,-194.86 363.3,-205.14 365.82,-214.1"/>
<polygon fill="midnightblue" stroke="midnightblue" points="362.45,-215.07 368.03,-224.08 369.29,-213.56 362.45,-215.07"/>
</g>
<!-- Node16&#45;&gt;Node10 -->
<g id="edge27" class="edge">
<title>Node16&#45;&gt;Node10</title>
<path fill="none" stroke="midnightblue" d="M361.62,-168.32C375.95,-159.82 398.01,-146.73 414.75,-136.8"/>
<polygon fill="midnightblue" stroke="midnightblue" points="416.6,-139.77 423.42,-131.65 413.03,-133.75 416.6,-139.77"/>
</g>
<!-- Node17 -->
<g id="node17" class="node">
<title>Node17</title>
<g id="a_node17"><a xlink:title=" ">
<polygon fill="white" stroke="#bfbfbf" points="343,-112.5 343,-131.5 395,-131.5 395,-112.5 343,-112.5"/>
<text text-anchor="middle" x="369" y="-119.5" font-family="Consolas" font-size="10.00">stddef.h</text>
</a>
</g>
</g>
<!-- Node16&#45;&gt;Node17 -->
<g id="edge26" class="edge">
<title>Node16&#45;&gt;Node17</title>
<path fill="none" stroke="midnightblue" d="M350.63,-168.08C353.61,-160.77 357.93,-150.18 361.62,-141.1"/>
<polygon fill="midnightblue" stroke="midnightblue" points="364.9,-142.33 365.43,-131.75 358.42,-139.69 364.9,-142.33"/>
</g>
<!-- Node18&#45;&gt;Node15 -->
<g id="edge32" class="edge">
<title>Node18&#45;&gt;Node15</title>
<path fill="none" stroke="midnightblue" d="M678.51,-280.37C667.01,-262.3 640.2,-220.18 625.01,-196.31"/>
<polygon fill="midnightblue" stroke="midnightblue" points="627.79,-194.15 619.47,-187.59 621.88,-197.91 627.79,-194.15"/>
</g>
<!-- Node19&#45;&gt;Node2 -->
<g id="edge34" class="edge">
<title>Node19&#45;&gt;Node2</title>
<path fill="none" stroke="midnightblue" d="M491.98,-336.4C466.36,-326.37 432.27,-313.03 407.69,-303.4"/>
<polygon fill="midnightblue" stroke="midnightblue" points="408.71,-300.04 398.12,-299.66 406.15,-306.56 408.71,-300.04"/>
</g>
<!-- Node19&#45;&gt;Node13 -->
<g id="edge35" class="edge">
<title>Node19&#45;&gt;Node13</title>
<path fill="none" stroke="midnightblue" d="M528,-336.47C528,-305.7 528,-232.33 528,-197.7"/>
<polygon fill="midnightblue" stroke="midnightblue" points="531.5,-197.56 528,-187.56 524.5,-197.56 531.5,-197.56"/>
</g>
<!-- Node19&#45;&gt;Node15 -->
<g id="edge36" class="edge">
<title>Node19&#45;&gt;Node15</title>
<path fill="none" stroke="midnightblue" d="M535.04,-336.47C550.6,-305.44 587.9,-231.05 605.07,-196.81"/>
<polygon fill="midnightblue" stroke="midnightblue" points="608.35,-198.07 609.71,-187.56 602.1,-194.93 608.35,-198.07"/>
</g>
<!-- Node19&#45;&gt;Node18 -->
<g id="edge37" class="edge">
<title>Node19&#45;&gt;Node18</title>
<path fill="none" stroke="midnightblue" d="M564.97,-336.4C591.38,-326.33 626.56,-312.91 651.81,-303.28"/>
<polygon fill="midnightblue" stroke="midnightblue" points="653.2,-306.49 661.3,-299.66 650.71,-299.95 653.2,-306.49"/>
</g>
</g>
</svg>
        <g id="navigator" transform="translate(0 0)" fill="#404254">
                <rect fill="#f2f5e9" fill-opacity="0.5" stroke="#606060" stroke-width=".5" x="0" y="0" width="60" height="60"/>
                <use id="zoomplus" xlink:href="#zoomPlus" x="17" y="9" onmousedown="handleZoom(evt,'in')"/>
                <use id="zoomminus" xlink:href="#zoomMin" x="42" y="9" onmousedown="handleZoom(evt,'out')"/>
                <use id="reset" xlink:href="#resetDef" x="30" y="36" onmousedown="handleReset()"/>
                <g id="arrowUp" xlink:href="#dirArrow" transform="translate(30 24)" onmousedown="handlePan(0,-1)">
                  <use xlink:href="#rim" fill="#404040">
                        <set attributeName="fill" to="#808080" begin="arrowUp.mouseover" end="arrowUp.mouseout"/>
                  </use>
                  <path fill="none" stroke="white" stroke-width="1.5" d="M0,-3.0v7 M-2.5,-0.5L0,-3.0L2.5,-0.5"/>
                </g>
                <g id="arrowRight" xlink:href="#dirArrow" transform="rotate(90) translate(36 -43)" onmousedown="handlePan(1,0)">
                  <use xlink:href="#rim" fill="#404040">
                        <set attributeName="fill" to="#808080" begin="arrowRight.mouseover" end="arrowRight.mouseout"/>
                  </use>
                  <path fill="none" stroke="white" stroke-width="1.5" d="M0,-3.0v7 M-2.5,-0.5L0,-3.0L2.5,-0.5"/>
                </g>
                <g id="arrowDown" xlink:href="#dirArrow" transform="rotate(180) translate(-30 -48)" onmousedown="handlePan(0,1)">
                  <use xlink:href="#rim" fill="#404040">
                        <set attributeName="fill" to="#808080" begin="arrowDown.mouseover" end="arrowDown.mouseout"/>
                  </use>
                  <path fill="none" stroke="white" stroke-width="1.5" d="M0,-3.0v7 M-2.5,-0.5L0,-3.0L2.5,-0.5"/>
                </g>
                <g id="arrowLeft" xlink:href="#dirArrow" transform="rotate(270) translate(-36 17)" onmousedown="handlePan(-1,0)">
                  <use xlink:href="#rim" fill="#404040">
                        <set attributeName="fill" to="#808080" begin="arrowLeft.mouseover" end="arrowLeft.mouseout"/>
                  </use>
                  <path fill="none" stroke="white" stroke-width="1.5" d="M0,-3.0v7 M-2.5,-0.5L0,-3.0L2.5,-0.5"/>
                </g>
        </g>
        <svg viewBox="0 0 15 15" width="100%" height="30px" preserveAspectRatio="xMaxYMin meet">
         <g id="arrow_out" transform="scale(0.3 0.3)">
          <a xlink:href="matrix_8h__incl_org.svg" target="_base">
           <rect id="button" ry="5" rx="5" y="6" x="6" height="38" width="38"
                fill="#f2f5e9" fill-opacity="0.5" stroke="#606060" stroke-width="1.0"/>
           <path id="arrow"
             d="M 11.500037,31.436501 C 11.940474,20.09759 22.043105,11.32322 32.158766,21.979434 L 37.068811,17.246167 C 37.068811,17.246167 37.088388,32 37.088388,32 L 22.160133,31.978069 C 22.160133,31.978069 26.997745,27.140456 26.997745,27.140456 C 18.528582,18.264221 13.291696,25.230495 11.500037,31.436501 z"
             style="fill:#404040;"/>
          </a>
         </g>
        </svg>
</svg>
