<?xml version="1.0" encoding="UTF-8" standalone="no"?>
<!DOCTYPE svg PUBLIC "-//W3C//DTD SVG 1.1//EN"
 "http://www.w3.org/Graphics/SVG/1.1/DTD/svg11.dtd">
<!-- Generated by graphviz version 2.50.0 (20211204.2007)
 -->
<!-- Title: libccc/memory.h Pages: 1 -->
<svg width="247pt" height="308pt"
 viewBox="0.00 0.00 246.89 308.00" xmlns="http://www.w3.org/2000/svg" xmlns:xlink="http://www.w3.org/1999/xlink">
<g id="graph0" class="graph" transform="scale(1 1) rotate(0) translate(4 304)">
<title>libccc/memory.h</title>
<polygon fill="white" stroke="transparent" points="-4,4 -4,-304 242.89,-304 242.89,4 -4,4"/>
<!-- Node1 -->
<g id="node1" class="node">
<title>Node1</title>
<g id="a_node1"><a xlink:title=" ">
<polygon fill="#bfbfbf" stroke="black" points="44.89,-280.5 44.89,-299.5 131.89,-299.5 131.89,-280.5 44.89,-280.5"/>
<text text-anchor="middle" x="88.39" y="-287.5" font-family="Consolas" font-size="10.00">libccc/memory.h</text>
</a>
</g>
</g>
<!-- Node2 -->
<g id="node2" class="node">
<title>Node2</title>
<g id="a_node2"><a xlink:href="libccc_8h.html" target="_top" xlink:title=" ">
<polygon fill="white" stroke="black" points="63.39,-224.5 63.39,-243.5 113.39,-243.5 113.39,-224.5 63.39,-224.5"/>
<text text-anchor="middle" x="88.39" y="-231.5" font-family="Consolas" font-size="10.00">libccc.h</text>
</a>
</g>
</g>
<!-- Node1&#45;&gt;Node2 -->
<g id="edge1" class="edge">
<title>Node1&#45;&gt;Node2</title>
<path fill="none" stroke="midnightblue" d="M88.39,-280.08C88.39,-273.01 88.39,-262.86 88.39,-253.99"/>
<polygon fill="midnightblue" stroke="midnightblue" points="91.89,-253.75 88.39,-243.75 84.89,-253.75 91.89,-253.75"/>
</g>
<!-- Node3 -->
<g id="node3" class="node">
<title>Node3</title>
<g id="a_node3"><a xlink:href="libccc__define_8h.html" target="_top" xlink:title=" ">
<polygon fill="white" stroke="black" points="48.39,-56.5 48.39,-75.5 130.39,-75.5 130.39,-56.5 48.39,-56.5"/>
<text text-anchor="middle" x="89.39" y="-63.5" font-family="Consolas" font-size="10.00">libccc_define.h</text>
</a>
</g>
</g>
<!-- Node2&#45;&gt;Node3 -->
<g id="edge2" class="edge">
<title>Node2&#45;&gt;Node3</title>
<path fill="none" stroke="midnightblue" d="M74.61,-224.42C45.08,-204.93 -19.57,-155.61 6.39,-112 15.49,-96.72 31.78,-86.31 47.54,-79.39"/>
<polygon fill="midnightblue" stroke="midnightblue" points="49.23,-82.48 57.21,-75.51 46.62,-75.98 49.23,-82.48"/>
</g>
<!-- Node5 -->
<g id="node5" class="node">
<title>Node5</title>
<g id="a_node5"><a xlink:href="libccc__errors_8h.html" target="_top" xlink:title=" ">
<polygon fill="white" stroke="black" points="15.39,-112.5 15.39,-131.5 95.39,-131.5 95.39,-112.5 15.39,-112.5"/>
<text text-anchor="middle" x="55.39" y="-119.5" font-family="Consolas" font-size="10.00">libccc_errors.h</text>
</a>
</g>
</g>
<!-- Node2&#45;&gt;Node5 -->
<g id="edge4" class="edge">
<title>Node2&#45;&gt;Node5</title>
<path fill="none" stroke="midnightblue" d="M85.38,-224.42C82.26,-215.39 77.28,-200.76 73.39,-188 68.64,-172.42 63.74,-154.59 60.26,-141.55"/>
<polygon fill="midnightblue" stroke="midnightblue" points="63.64,-140.64 57.7,-131.87 56.87,-142.44 63.64,-140.64"/>
</g>
<!-- Node6 -->
<g id="node6" class="node">
<title>Node6</title>
<g id="a_node6"><a xlink:href="libccc__config_8h.html" target="_top" xlink:title=" ">
<polygon fill="white" stroke="black" points="82.39,-168.5 82.39,-187.5 164.39,-187.5 164.39,-168.5 82.39,-168.5"/>
<text text-anchor="middle" x="123.39" y="-175.5" font-family="Consolas" font-size="10.00">libccc_config.h</text>
</a>
</g>
</g>
<!-- Node2&#45;&gt;Node6 -->
<g id="edge6" class="edge">
<title>Node2&#45;&gt;Node6</title>
<path fill="none" stroke="midnightblue" d="M94.17,-224.08C99.07,-216.53 106.22,-205.49 112.23,-196.23"/>
<polygon fill="midnightblue" stroke="midnightblue" points="115.22,-198.05 117.72,-187.75 109.35,-194.24 115.22,-198.05"/>
</g>
<!-- Node7 -->
<g id="node7" class="node">
<title>Node7</title>
<g id="a_node7"><a xlink:href="libccc__naming_8h.html" target="_top" xlink:title=" ">
<polygon fill="white" stroke="black" points="151.89,-112.5 151.89,-131.5 238.89,-131.5 238.89,-112.5 151.89,-112.5"/>
<text text-anchor="middle" x="195.39" y="-119.5" font-family="Consolas" font-size="10.00">libccc_naming.h</text>
</a>
</g>
</g>
<!-- Node2&#45;&gt;Node7 -->
<g id="edge9" class="edge">
<title>Node2&#45;&gt;Node7</title>
<path fill="none" stroke="midnightblue" d="M113.63,-225.36C132.52,-218.43 157.7,-206.44 173.39,-188 184.6,-174.83 190.17,-155.69 192.9,-141.59"/>
<polygon fill="midnightblue" stroke="midnightblue" points="196.38,-142 194.52,-131.57 189.47,-140.88 196.38,-142"/>
</g>
<!-- Node4 -->
<g id="node4" class="node">
<title>Node4</title>
<g id="a_node4"><a xlink:title=" ">
<polygon fill="white" stroke="#bfbfbf" points="59.89,-0.5 59.89,-19.5 118.89,-19.5 118.89,-0.5 59.89,-0.5"/>
<text text-anchor="middle" x="89.39" y="-7.5" font-family="Consolas" font-size="10.00">stdalign.h</text>
</a>
</g>
</g>
<!-- Node3&#45;&gt;Node4 -->
<g id="edge3" class="edge">
<title>Node3&#45;&gt;Node4</title>
<path fill="none" stroke="midnightblue" d="M89.39,-56.08C89.39,-49.01 89.39,-38.86 89.39,-29.99"/>
<polygon fill="midnightblue" stroke="midnightblue" points="92.89,-29.75 89.39,-19.75 85.89,-29.75 92.89,-29.75"/>
</g>
<!-- Node5&#45;&gt;Node3 -->
<g id="edge5" class="edge">
<title>Node5&#45;&gt;Node3</title>
<path fill="none" stroke="midnightblue" d="M61.01,-112.08C65.76,-104.53 72.71,-93.49 78.54,-84.23"/>
<polygon fill="midnightblue" stroke="midnightblue" points="81.52,-86.08 83.88,-75.75 75.59,-82.35 81.52,-86.08"/>
</g>
<!-- Node6&#45;&gt;Node3 -->
<g id="edge7" class="edge">
<title>Node6&#45;&gt;Node3</title>
<path fill="none" stroke="midnightblue" d="M120.92,-168.14C117.38,-155.6 110.64,-131.97 104.39,-112 101.62,-103.15 98.39,-93.37 95.63,-85.2"/>
<polygon fill="midnightblue" stroke="midnightblue" points="98.9,-83.94 92.36,-75.6 92.27,-86.19 98.9,-83.94"/>
</g>
<!-- Node6&#45;&gt;Node5 -->
<g id="edge8" class="edge">
<title>Node6&#45;&gt;Node5</title>
<path fill="none" stroke="midnightblue" d="M112.47,-168.32C102.22,-160.18 86.67,-147.84 74.39,-138.09"/>
<polygon fill="midnightblue" stroke="midnightblue" points="76.53,-135.31 66.52,-131.83 72.17,-140.79 76.53,-135.31"/>
</g>
<!-- Node7&#45;&gt;Node3 -->
<g id="edge10" class="edge">
<title>Node7&#45;&gt;Node3</title>
<path fill="none" stroke="midnightblue" d="M178.36,-112.32C161.36,-103.66 135.02,-90.24 115.4,-80.25"/>
<polygon fill="midnightblue" stroke="midnightblue" points="116.88,-77.08 106.38,-75.65 113.7,-83.31 116.88,-77.08"/>
</g>
</g>
</svg>
