<?xml version="1.0" encoding="UTF-8" standalone="no"?>
<!DOCTYPE svg PUBLIC "-//W3C//DTD SVG 1.1//EN"
 "http://www.w3.org/Graphics/SVG/1.1/DTD/svg11.dtd">
<!-- Generated by graphviz version 2.49.3 (20211023.0002)
 -->
<!-- Title: hdr/libccc/pointerarray.h Pages: 1 -->
<svg width="753pt" height="308pt"
 viewBox="0.00 0.00 753.37 308.00" xmlns="http://www.w3.org/2000/svg" xmlns:xlink="http://www.w3.org/1999/xlink">
<g id="graph0" class="graph" transform="scale(1 1) rotate(0) translate(4 304)">
<title>hdr/libccc/pointerarray.h</title>
<polygon fill="white" stroke="transparent" points="-4,4 -4,-304 749.37,-304 749.37,4 -4,4"/>
<!-- Node1 -->
<g id="node1" class="node">
<title>Node1</title>
<g id="a_node1"><a xlink:title=" ">
<polygon fill="#bfbfbf" stroke="black" points="328.87,-280.5 328.87,-299.5 447.87,-299.5 447.87,-280.5 328.87,-280.5"/>
<text text-anchor="middle" x="388.37" y="-287.5" font-family="Consolas" font-size="10.00">hdr/libccc/pointerarray.h</text>
</a>
</g>
</g>
<!-- Node2 -->
<g id="node2" class="node">
<title>Node2</title>
<g id="a_node2"><a xlink:href="libccc_8h.html" target="_top" xlink:title=" ">
<polygon fill="white" stroke="black" points="363.37,-224.5 363.37,-243.5 413.37,-243.5 413.37,-224.5 363.37,-224.5"/>
<text text-anchor="middle" x="388.37" y="-231.5" font-family="Consolas" font-size="10.00">libccc.h</text>
</a>
</g>
</g>
<!-- Node1&#45;&gt;Node2 -->
<g id="edge1" class="edge">
<title>Node1&#45;&gt;Node2</title>
<path fill="none" stroke="midnightblue" d="M388.37,-280.08C388.37,-273.01 388.37,-262.86 388.37,-253.99"/>
<polygon fill="midnightblue" stroke="midnightblue" points="391.87,-253.75 388.37,-243.75 384.87,-253.75 391.87,-253.75"/>
</g>
<!-- Node3 -->
<g id="node3" class="node">
<title>Node3</title>
<g id="a_node3"><a xlink:href="libccc__define_8h.html" target="_top" xlink:title=" ">
<polygon fill="white" stroke="black" points="48.37,-56.5 48.37,-75.5 130.37,-75.5 130.37,-56.5 48.37,-56.5"/>
<text text-anchor="middle" x="89.37" y="-63.5" font-family="Consolas" font-size="10.00">libccc_define.h</text>
</a>
</g>
</g>
<!-- Node2&#45;&gt;Node3 -->
<g id="edge2" class="edge">
<title>Node2&#45;&gt;Node3</title>
<path fill="none" stroke="midnightblue" d="M362.97,-231.78C295.02,-228.17 110.64,-215.98 57.37,-188 21.36,-169.09 -14.44,-146.95 6.37,-112 15.47,-96.72 31.76,-86.31 47.51,-79.39"/>
<polygon fill="midnightblue" stroke="midnightblue" points="49.2,-82.48 57.19,-75.51 46.6,-75.98 49.2,-82.48"/>
</g>
<!-- Node5 -->
<g id="node5" class="node">
<title>Node5</title>
<g id="a_node5"><a xlink:href="libccc__errors_8h.html" target="_top" xlink:title=" ">
<polygon fill="white" stroke="black" points="15.37,-112.5 15.37,-131.5 95.37,-131.5 95.37,-112.5 15.37,-112.5"/>
<text text-anchor="middle" x="55.37" y="-119.5" font-family="Consolas" font-size="10.00">libccc_errors.h</text>
</a>
</g>
</g>
<!-- Node2&#45;&gt;Node5 -->
<g id="edge4" class="edge">
<title>Node2&#45;&gt;Node5</title>
<path fill="none" stroke="midnightblue" d="M362.89,-232.83C295.76,-231.88 116.31,-225.76 73.37,-188 60.34,-176.54 56.36,-156.56 55.33,-141.77"/>
<polygon fill="midnightblue" stroke="midnightblue" points="58.82,-141.58 55,-131.7 51.82,-141.8 58.82,-141.58"/>
</g>
<!-- Node6 -->
<g id="node6" class="node">
<title>Node6</title>
<g id="a_node6"><a xlink:href="libccc__config_8h.html" target="_top" xlink:title=" ">
<polygon fill="white" stroke="black" points="82.37,-168.5 82.37,-187.5 164.37,-187.5 164.37,-168.5 82.37,-168.5"/>
<text text-anchor="middle" x="123.37" y="-175.5" font-family="Consolas" font-size="10.00">libccc_config.h</text>
</a>
</g>
</g>
<!-- Node2&#45;&gt;Node6 -->
<g id="edge6" class="edge">
<title>Node2&#45;&gt;Node6</title>
<path fill="none" stroke="midnightblue" d="M362.96,-227.82C319.7,-219.01 230.94,-200.92 174.45,-189.41"/>
<polygon fill="midnightblue" stroke="midnightblue" points="175.13,-185.98 164.64,-187.41 173.74,-192.84 175.13,-185.98"/>
</g>
<!-- Node7 -->
<g id="node7" class="node">
<title>Node7</title>
<g id="a_node7"><a xlink:href="libccc__naming_8h.html" target="_top" xlink:title=" ">
<polygon fill="white" stroke="black" points="151.87,-112.5 151.87,-131.5 238.87,-131.5 238.87,-112.5 151.87,-112.5"/>
<text text-anchor="middle" x="195.37" y="-119.5" font-family="Consolas" font-size="10.00">libccc_naming.h</text>
</a>
</g>
</g>
<!-- Node2&#45;&gt;Node7 -->
<g id="edge9" class="edge">
<title>Node2&#45;&gt;Node7</title>
<path fill="none" stroke="midnightblue" d="M363.03,-229.78C319.35,-223.74 232.53,-209.32 211.37,-188 199.49,-176.02 195.93,-156.72 195.09,-142.26"/>
<polygon fill="midnightblue" stroke="midnightblue" points="198.58,-141.86 194.88,-131.93 191.58,-142 198.58,-141.86"/>
</g>
<!-- Node8 -->
<g id="node8" class="node">
<title>Node8</title>
<g id="a_node8"><a xlink:href="bool_8h.html" target="_top" xlink:title=" ">
<polygon fill="white" stroke="black" points="220.87,-168.5 220.87,-187.5 291.87,-187.5 291.87,-168.5 220.87,-168.5"/>
<text text-anchor="middle" x="256.37" y="-175.5" font-family="Consolas" font-size="10.00">libccc/bool.h</text>
</a>
</g>
</g>
<!-- Node2&#45;&gt;Node8 -->
<g id="edge11" class="edge">
<title>Node2&#45;&gt;Node8</title>
<path fill="none" stroke="midnightblue" d="M363.31,-224.8C339.85,-216.02 305.26,-201.98 281.72,-191.76"/>
<polygon fill="midnightblue" stroke="midnightblue" points="282.94,-188.47 272.38,-187.64 280.11,-194.87 282.94,-188.47"/>
</g>
<!-- Node9 -->
<g id="node9" class="node">
<title>Node9</title>
<g id="a_node9"><a xlink:href="char_8h.html" target="_top" xlink:title=" ">
<polygon fill="white" stroke="black" points="309.87,-168.5 309.87,-187.5 380.87,-187.5 380.87,-168.5 309.87,-168.5"/>
<text text-anchor="middle" x="345.37" y="-175.5" font-family="Consolas" font-size="10.00">libccc/char.h</text>
</a>
</g>
</g>
<!-- Node2&#45;&gt;Node9 -->
<g id="edge13" class="edge">
<title>Node2&#45;&gt;Node9</title>
<path fill="none" stroke="midnightblue" d="M376.1,-224.08C368.5,-216.53 359.32,-205.49 352.75,-196.23"/>
<polygon fill="midnightblue" stroke="midnightblue" points="355.61,-194.21 347.21,-187.75 349.75,-198.04 355.61,-194.21"/>
</g>
<!-- Node13 -->
<g id="node13" class="node">
<title>Node13</title>
<g id="a_node13"><a xlink:href="int_8h.html" target="_top" xlink:title=" ">
<polygon fill="white" stroke="black" points="399.37,-168.5 399.37,-187.5 463.37,-187.5 463.37,-168.5 399.37,-168.5"/>
<text text-anchor="middle" x="431.37" y="-175.5" font-family="Consolas" font-size="10.00">libccc/int.h</text>
</a>
</g>
</g>
<!-- Node2&#45;&gt;Node13 -->
<g id="edge18" class="edge">
<title>Node2&#45;&gt;Node13</title>
<path fill="none" stroke="midnightblue" d="M390.3,-224.08C394.91,-216.22 403.83,-204.57 412.33,-195.08"/>
<polygon fill="midnightblue" stroke="midnightblue" points="414.94,-197.42 419.27,-187.75 409.85,-192.61 414.94,-197.42"/>
</g>
<!-- Node14 -->
<g id="node14" class="node">
<title>Node14</title>
<g id="a_node14"><a xlink:href="fixed_8h.html" target="_top" xlink:title=" ">
<polygon fill="white" stroke="black" points="481.37,-168.5 481.37,-187.5 555.37,-187.5 555.37,-168.5 481.37,-168.5"/>
<text text-anchor="middle" x="518.37" y="-175.5" font-family="Consolas" font-size="10.00">libccc/fixed.h</text>
</a>
</g>
</g>
<!-- Node2&#45;&gt;Node14 -->
<g id="edge21" class="edge">
<title>Node2&#45;&gt;Node14</title>
<path fill="none" stroke="midnightblue" d="M403.88,-224.44C423.5,-215.48 457.38,-201.31 483.29,-191.18"/>
<polygon fill="midnightblue" stroke="midnightblue" points="484.72,-194.38 492.79,-187.52 482.2,-187.85 484.72,-194.38"/>
</g>
<!-- Node15 -->
<g id="node15" class="node">
<title>Node15</title>
<g id="a_node15"><a xlink:href="float_8h.html" target="_top" xlink:title=" ">
<polygon fill="white" stroke="black" points="573.37,-168.5 573.37,-187.5 645.37,-187.5 645.37,-168.5 573.37,-168.5"/>
<text text-anchor="middle" x="609.37" y="-175.5" font-family="Consolas" font-size="10.00">libccc/float.h</text>
</a>
</g>
</g>
<!-- Node2&#45;&gt;Node15 -->
<g id="edge23" class="edge">
<title>Node2&#45;&gt;Node15</title>
<path fill="none" stroke="midnightblue" d="M413.39,-225.72C449.76,-216.24 517.49,-199.65 563.07,-189"/>
<polygon fill="midnightblue" stroke="midnightblue" points="564.06,-192.36 573.01,-186.69 562.48,-185.54 564.06,-192.36"/>
</g>
<!-- Node16 -->
<g id="node16" class="node">
<title>Node16</title>
<g id="a_node16"><a xlink:href="pointer_8h.html" target="_top" xlink:title=" ">
<polygon fill="white" stroke="black" points="663.37,-168.5 663.37,-187.5 745.37,-187.5 745.37,-168.5 663.37,-168.5"/>
<text text-anchor="middle" x="704.37" y="-175.5" font-family="Consolas" font-size="10.00">libccc/pointer.h</text>
</a>
</g>
</g>
<!-- Node2&#45;&gt;Node16 -->
<g id="edge25" class="edge">
<title>Node2&#45;&gt;Node16</title>
<path fill="none" stroke="midnightblue" d="M413.48,-227.91C459.66,-219.68 560.24,-202.86 645.37,-188 647.97,-187.55 650.64,-187.08 653.35,-186.6"/>
<polygon fill="midnightblue" stroke="midnightblue" points="654.01,-190.04 663.26,-184.86 652.8,-183.14 654.01,-190.04"/>
</g>
<!-- Node4 -->
<g id="node4" class="node">
<title>Node4</title>
<g id="a_node4"><a xlink:title=" ">
<polygon fill="white" stroke="#bfbfbf" points="59.87,-0.5 59.87,-19.5 118.87,-19.5 118.87,-0.5 59.87,-0.5"/>
<text text-anchor="middle" x="89.37" y="-7.5" font-family="Consolas" font-size="10.00">stdalign.h</text>
</a>
</g>
</g>
<!-- Node3&#45;&gt;Node4 -->
<g id="edge3" class="edge">
<title>Node3&#45;&gt;Node4</title>
<path fill="none" stroke="midnightblue" d="M89.37,-56.08C89.37,-49.01 89.37,-38.86 89.37,-29.99"/>
<polygon fill="midnightblue" stroke="midnightblue" points="92.87,-29.75 89.37,-19.75 85.87,-29.75 92.87,-29.75"/>
</g>
<!-- Node5&#45;&gt;Node3 -->
<g id="edge5" class="edge">
<title>Node5&#45;&gt;Node3</title>
<path fill="none" stroke="midnightblue" d="M60.99,-112.08C65.74,-104.53 72.69,-93.49 78.52,-84.23"/>
<polygon fill="midnightblue" stroke="midnightblue" points="81.49,-86.08 83.86,-75.75 75.57,-82.35 81.49,-86.08"/>
</g>
<!-- Node6&#45;&gt;Node3 -->
<g id="edge7" class="edge">
<title>Node6&#45;&gt;Node3</title>
<path fill="none" stroke="midnightblue" d="M120.89,-168.14C117.36,-155.6 110.62,-131.97 104.37,-112 101.6,-103.15 98.37,-93.37 95.61,-85.2"/>
<polygon fill="midnightblue" stroke="midnightblue" points="98.88,-83.94 92.34,-75.6 92.25,-86.19 98.88,-83.94"/>
</g>
<!-- Node6&#45;&gt;Node5 -->
<g id="edge8" class="edge">
<title>Node6&#45;&gt;Node5</title>
<path fill="none" stroke="midnightblue" d="M112.45,-168.32C102.2,-160.18 86.65,-147.84 74.37,-138.09"/>
<polygon fill="midnightblue" stroke="midnightblue" points="76.5,-135.31 66.49,-131.83 72.15,-140.79 76.5,-135.31"/>
</g>
<!-- Node7&#45;&gt;Node3 -->
<g id="edge10" class="edge">
<title>Node7&#45;&gt;Node3</title>
<path fill="none" stroke="midnightblue" d="M178.34,-112.32C161.34,-103.66 134.99,-90.24 115.38,-80.25"/>
<polygon fill="midnightblue" stroke="midnightblue" points="116.86,-77.08 106.36,-75.65 113.68,-83.31 116.86,-77.08"/>
</g>
<!-- Node8&#45;&gt;Node2 -->
<g id="edge12" class="edge">
<title>Node8&#45;&gt;Node2</title>
<path fill="none" stroke="midnightblue" d="M282.27,-187.52C305.8,-196.35 340.04,-210.26 363.31,-220.37"/>
<polygon fill="midnightblue" stroke="midnightblue" points="361.98,-223.61 372.54,-224.44 364.81,-217.2 361.98,-223.61"/>
</g>
<!-- Node9&#45;&gt;Node2 -->
<g id="edge15" class="edge">
<title>Node9&#45;&gt;Node2</title>
<path fill="none" stroke="midnightblue" d="M357.47,-187.75C365.05,-195.25 374.24,-206.27 380.85,-215.57"/>
<polygon fill="midnightblue" stroke="midnightblue" points="378.02,-217.64 386.44,-224.08 383.88,-213.8 378.02,-217.64"/>
</g>
<!-- Node10 -->
<g id="node10" class="node">
<title>Node10</title>
<g id="a_node10"><a xlink:title=" ">
<polygon fill="white" stroke="#bfbfbf" points="492.87,-112.5 492.87,-131.5 541.87,-131.5 541.87,-112.5 492.87,-112.5"/>
<text text-anchor="middle" x="517.37" y="-119.5" font-family="Consolas" font-size="10.00">stdint.h</text>
</a>
</g>
</g>
<!-- Node9&#45;&gt;Node10 -->
<g id="edge14" class="edge">
<title>Node9&#45;&gt;Node10</title>
<path fill="none" stroke="midnightblue" d="M372.62,-168.44C402.46,-159.08 450.35,-144.04 482.8,-133.85"/>
<polygon fill="midnightblue" stroke="midnightblue" points="484.26,-137.06 492.75,-130.73 482.16,-130.39 484.26,-137.06"/>
</g>
<!-- Node11 -->
<g id="node11" class="node">
<title>Node11</title>
<g id="a_node11"><a xlink:title=" ">
<polygon fill="white" stroke="#bfbfbf" points="381.87,-112.5 381.87,-131.5 474.87,-131.5 474.87,-112.5 381.87,-112.5"/>
<text text-anchor="middle" x="428.37" y="-119.5" font-family="Consolas" font-size="10.00">libccc/text/ascii.h</text>
</a>
</g>
</g>
<!-- Node9&#45;&gt;Node11 -->
<g id="edge16" class="edge">
<title>Node9&#45;&gt;Node11</title>
<path fill="none" stroke="midnightblue" d="M358.71,-168.32C371.53,-159.98 391.16,-147.21 406.31,-137.35"/>
<polygon fill="midnightblue" stroke="midnightblue" points="408.59,-140.04 415.07,-131.65 404.78,-134.17 408.59,-140.04"/>
</g>
<!-- Node12 -->
<g id="node12" class="node">
<title>Node12</title>
<g id="a_node12"><a xlink:title=" ">
<polygon fill="white" stroke="#bfbfbf" points="256.87,-112.5 256.87,-131.5 363.87,-131.5 363.87,-112.5 256.87,-112.5"/>
<text text-anchor="middle" x="310.37" y="-119.5" font-family="Consolas" font-size="10.00">libccc/text/unicode.h</text>
</a>
</g>
</g>
<!-- Node9&#45;&gt;Node12 -->
<g id="edge17" class="edge">
<title>Node9&#45;&gt;Node12</title>
<path fill="none" stroke="midnightblue" d="M339.59,-168.08C334.7,-160.53 327.54,-149.49 321.54,-140.23"/>
<polygon fill="midnightblue" stroke="midnightblue" points="324.42,-138.24 316.04,-131.75 318.54,-142.05 324.42,-138.24"/>
</g>
<!-- Node13&#45;&gt;Node2 -->
<g id="edge20" class="edge">
<title>Node13&#45;&gt;Node2</title>
<path fill="none" stroke="midnightblue" d="M429.53,-187.75C424.99,-195.56 416.1,-207.2 407.59,-216.72"/>
<polygon fill="midnightblue" stroke="midnightblue" points="404.96,-214.41 400.64,-224.08 410.05,-219.21 404.96,-214.41"/>
</g>
<!-- Node13&#45;&gt;Node10 -->
<g id="edge19" class="edge">
<title>Node13&#45;&gt;Node10</title>
<path fill="none" stroke="midnightblue" d="M445.19,-168.32C458.6,-159.9 479.19,-146.97 494.96,-137.07"/>
<polygon fill="midnightblue" stroke="midnightblue" points="496.98,-139.94 503.59,-131.65 493.26,-134.01 496.98,-139.94"/>
</g>
<!-- Node14&#45;&gt;Node2 -->
<g id="edge22" class="edge">
<title>Node14&#45;&gt;Node2</title>
<path fill="none" stroke="midnightblue" d="M502.77,-187.6C483.01,-196.62 448.87,-210.89 422.93,-221.02"/>
<polygon fill="midnightblue" stroke="midnightblue" points="421.51,-217.82 413.43,-224.68 424.02,-224.35 421.51,-217.82"/>
</g>
<!-- Node15&#45;&gt;Node2 -->
<g id="edge24" class="edge">
<title>Node15&#45;&gt;Node2</title>
<path fill="none" stroke="midnightblue" d="M579.64,-187.5C539.05,-197.99 466.77,-215.63 423.54,-225.58"/>
<polygon fill="midnightblue" stroke="midnightblue" points="422.71,-222.18 413.74,-227.82 424.27,-229.01 422.71,-222.18"/>
</g>
<!-- Node16&#45;&gt;Node2 -->
<g id="edge28" class="edge">
<title>Node16&#45;&gt;Node2</title>
<path fill="none" stroke="midnightblue" d="M666,-187.54C665.12,-187.69 664.24,-187.85 663.37,-188 577.69,-202.96 476.34,-219.9 423.71,-228.07"/>
<polygon fill="midnightblue" stroke="midnightblue" points="422.9,-224.65 413.54,-229.63 423.96,-231.57 422.9,-224.65"/>
</g>
<!-- Node16&#45;&gt;Node10 -->
<g id="edge27" class="edge">
<title>Node16&#45;&gt;Node10</title>
<path fill="none" stroke="midnightblue" d="M674.74,-168.44C641.37,-158.81 587.21,-143.17 551.94,-132.98"/>
<polygon fill="midnightblue" stroke="midnightblue" points="552.66,-129.55 542.09,-130.14 550.72,-136.27 552.66,-129.55"/>
</g>
<!-- Node17 -->
<g id="node17" class="node">
<title>Node17</title>
<g id="a_node17"><a xlink:title=" ">
<polygon fill="white" stroke="#bfbfbf" points="678.37,-112.5 678.37,-131.5 730.37,-131.5 730.37,-112.5 678.37,-112.5"/>
<text text-anchor="middle" x="704.37" y="-119.5" font-family="Consolas" font-size="10.00">stddef.h</text>
</a>
</g>
</g>
<!-- Node16&#45;&gt;Node17 -->
<g id="edge26" class="edge">
<title>Node16&#45;&gt;Node17</title>
<path fill="none" stroke="midnightblue" d="M704.37,-168.08C704.37,-161.01 704.37,-150.86 704.37,-141.99"/>
<polygon fill="midnightblue" stroke="midnightblue" points="707.87,-141.75 704.37,-131.75 700.87,-141.75 707.87,-141.75"/>
</g>
</g>
</svg>
