<?xml version="1.0" encoding="UTF-8" standalone="no"?>
<!DOCTYPE svg PUBLIC "-//W3C//DTD SVG 1.1//EN"
 "http://www.w3.org/Graphics/SVG/1.1/DTD/svg11.dtd">
<!-- Generated by graphviz version 2.43.0 (0)
 -->
<!-- Title: libccc/pointer.h Pages: 1 -->
<svg width="353pt" height="308pt"
 viewBox="0.00 0.00 353.00 308.00" xmlns="http://www.w3.org/2000/svg" xmlns:xlink="http://www.w3.org/1999/xlink">
<g id="graph0" class="graph" transform="scale(1 1) rotate(0) translate(4 304)">
<title>libccc/pointer.h</title>
<polygon fill="white" stroke="transparent" points="-4,4 -4,-304 349,-304 349,4 -4,4"/>
<!-- Node1 -->
<g id="node1" class="node">
<title>Node1</title>
<g id="a_node1"><a xlink:title=" ">
<polygon fill="#bfbfbf" stroke="black" points="56,-280.5 56,-299.5 157,-299.5 157,-280.5 56,-280.5"/>
<text text-anchor="middle" x="106.5" y="-287.5" font-family="Consolas" font-size="10.00">libccc/pointer.h</text>
</a>
</g>
</g>
<!-- Node2 -->
<g id="node2" class="node">
<title>Node2</title>
<g id="a_node2"><a xlink:title=" ">
<polygon fill="white" stroke="#bfbfbf" points="0,-224.5 0,-243.5 59,-243.5 59,-224.5 0,-224.5"/>
<text text-anchor="middle" x="29.5" y="-231.5" font-family="Consolas" font-size="10.00">stddef.h</text>
</a>
</g>
</g>
<!-- Node1&#45;&gt;Node2 -->
<g id="edge1" class="edge">
<title>Node1&#45;&gt;Node2</title>
<path fill="none" stroke="midnightblue" d="M94.13,-280.32C82.34,-272.06 64.37,-259.45 50.36,-249.63"/>
<polygon fill="midnightblue" stroke="midnightblue" points="52.04,-246.53 41.84,-243.65 48.02,-252.26 52.04,-246.53"/>
</g>
<!-- Node3 -->
<g id="node3" class="node">
<title>Node3</title>
<g id="a_node3"><a xlink:title=" ">
<polygon fill="white" stroke="#bfbfbf" points="77,-224.5 77,-243.5 136,-243.5 136,-224.5 77,-224.5"/>
<text text-anchor="middle" x="106.5" y="-231.5" font-family="Consolas" font-size="10.00">stdint.h</text>
</a>
</g>
</g>
<!-- Node1&#45;&gt;Node3 -->
<g id="edge2" class="edge">
<title>Node1&#45;&gt;Node3</title>
<path fill="none" stroke="midnightblue" d="M106.5,-280.08C106.5,-273.01 106.5,-262.86 106.5,-253.99"/>
<polygon fill="midnightblue" stroke="midnightblue" points="110,-253.75 106.5,-243.75 103,-253.75 110,-253.75"/>
</g>
<!-- Node4 -->
<g id="node4" class="node">
<title>Node4</title>
<g id="a_node4"><a xlink:href="libccc_8h.html" target="_top" xlink:title=" ">
<polygon fill="white" stroke="black" points="154,-224.5 154,-243.5 213,-243.5 213,-224.5 154,-224.5"/>
<text text-anchor="middle" x="183.5" y="-231.5" font-family="Consolas" font-size="10.00">libccc.h</text>
</a>
</g>
</g>
<!-- Node1&#45;&gt;Node4 -->
<g id="edge3" class="edge">
<title>Node1&#45;&gt;Node4</title>
<path fill="none" stroke="midnightblue" d="M118.87,-280.32C130.66,-272.06 148.63,-259.45 162.64,-249.63"/>
<polygon fill="midnightblue" stroke="midnightblue" points="164.98,-252.26 171.16,-243.65 160.96,-246.53 164.98,-252.26"/>
</g>
<!-- Node5 -->
<g id="node5" class="node">
<title>Node5</title>
<g id="a_node5"><a xlink:href="libccc__define_8h.html" target="_top" xlink:title=" ">
<polygon fill="white" stroke="black" points="136,-56.5 136,-75.5 231,-75.5 231,-56.5 136,-56.5"/>
<text text-anchor="middle" x="183.5" y="-63.5" font-family="Consolas" font-size="10.00">libccc_define.h</text>
</a>
</g>
</g>
<!-- Node4&#45;&gt;Node5 -->
<g id="edge4" class="edge">
<title>Node4&#45;&gt;Node5</title>
<path fill="none" stroke="midnightblue" d="M167.5,-224.5C133.62,-205.36 60.01,-157.02 88.5,-112 98.55,-96.13 115.87,-85.74 133,-79"/>
<polygon fill="midnightblue" stroke="midnightblue" points="134.21,-82.28 142.45,-75.62 131.85,-75.69 134.21,-82.28"/>
</g>
<!-- Node7 -->
<g id="node7" class="node">
<title>Node7</title>
<g id="a_node7"><a xlink:href="libccc__errors_8h.html" target="_top" xlink:title=" ">
<polygon fill="white" stroke="black" points="98,-112.5 98,-131.5 193,-131.5 193,-112.5 98,-112.5"/>
<text text-anchor="middle" x="145.5" y="-119.5" font-family="Consolas" font-size="10.00">libccc_errors.h</text>
</a>
</g>
</g>
<!-- Node4&#45;&gt;Node7 -->
<g id="edge6" class="edge">
<title>Node4&#45;&gt;Node7</title>
<path fill="none" stroke="midnightblue" d="M179.84,-224.45C176.04,-215.46 170.04,-200.85 165.5,-188 160.03,-172.52 154.6,-154.68 150.78,-141.61"/>
<polygon fill="midnightblue" stroke="midnightblue" points="154.12,-140.55 147.99,-131.91 147.4,-142.48 154.12,-140.55"/>
</g>
<!-- Node8 -->
<g id="node8" class="node">
<title>Node8</title>
<g id="a_node8"><a xlink:href="libccc__config_8h.html" target="_top" xlink:title=" ">
<polygon fill="white" stroke="black" points="174,-168.5 174,-187.5 269,-187.5 269,-168.5 174,-168.5"/>
<text text-anchor="middle" x="221.5" y="-175.5" font-family="Consolas" font-size="10.00">libccc_config.h</text>
</a>
</g>
</g>
<!-- Node4&#45;&gt;Node8 -->
<g id="edge8" class="edge">
<title>Node4&#45;&gt;Node8</title>
<path fill="none" stroke="midnightblue" d="M189.77,-224.08C195.14,-216.46 203.02,-205.26 209.58,-195.94"/>
<polygon fill="midnightblue" stroke="midnightblue" points="212.45,-197.94 215.34,-187.75 206.72,-193.91 212.45,-197.94"/>
</g>
<!-- Node9 -->
<g id="node9" class="node">
<title>Node9</title>
<g id="a_node9"><a xlink:href="libccc__naming_8h.html" target="_top" xlink:title=" ">
<polygon fill="white" stroke="black" points="250,-112.5 250,-131.5 345,-131.5 345,-112.5 250,-112.5"/>
<text text-anchor="middle" x="297.5" y="-119.5" font-family="Consolas" font-size="10.00">libccc_naming.h</text>
</a>
</g>
</g>
<!-- Node4&#45;&gt;Node9 -->
<g id="edge11" class="edge">
<title>Node4&#45;&gt;Node9</title>
<path fill="none" stroke="midnightblue" d="M213.23,-225.9C234.29,-219.4 261.68,-207.71 278.5,-188 289.58,-175.02 294.2,-155.85 296.13,-141.69"/>
<polygon fill="midnightblue" stroke="midnightblue" points="299.62,-141.93 297.17,-131.63 292.66,-141.22 299.62,-141.93"/>
</g>
<!-- Node6 -->
<g id="node6" class="node">
<title>Node6</title>
<g id="a_node6"><a xlink:title=" ">
<polygon fill="white" stroke="#bfbfbf" points="149,-0.5 149,-19.5 218,-19.5 218,-0.5 149,-0.5"/>
<text text-anchor="middle" x="183.5" y="-7.5" font-family="Consolas" font-size="10.00">stdalign.h</text>
</a>
</g>
</g>
<!-- Node5&#45;&gt;Node6 -->
<g id="edge5" class="edge">
<title>Node5&#45;&gt;Node6</title>
<path fill="none" stroke="midnightblue" d="M183.5,-56.08C183.5,-49.01 183.5,-38.86 183.5,-29.99"/>
<polygon fill="midnightblue" stroke="midnightblue" points="187,-29.75 183.5,-19.75 180,-29.75 187,-29.75"/>
</g>
<!-- Node7&#45;&gt;Node5 -->
<g id="edge7" class="edge">
<title>Node7&#45;&gt;Node5</title>
<path fill="none" stroke="midnightblue" d="M151.77,-112.08C157.14,-104.46 165.02,-93.26 171.58,-83.94"/>
<polygon fill="midnightblue" stroke="midnightblue" points="174.45,-85.94 177.34,-75.75 168.72,-81.91 174.45,-85.94"/>
</g>
<!-- Node8&#45;&gt;Node5 -->
<g id="edge9" class="edge">
<title>Node8&#45;&gt;Node5</title>
<path fill="none" stroke="midnightblue" d="M219.35,-168.49C216.11,-155.97 209.6,-131.94 202.5,-112 199.26,-102.9 195.14,-92.99 191.57,-84.79"/>
<polygon fill="midnightblue" stroke="midnightblue" points="194.7,-83.22 187.44,-75.51 188.31,-86.07 194.7,-83.22"/>
</g>
<!-- Node8&#45;&gt;Node7 -->
<g id="edge10" class="edge">
<title>Node8&#45;&gt;Node7</title>
<path fill="none" stroke="midnightblue" d="M209.29,-168.32C197.72,-160.11 180.12,-147.6 166.34,-137.81"/>
<polygon fill="midnightblue" stroke="midnightblue" points="168.11,-134.77 157.93,-131.83 164.06,-140.48 168.11,-134.77"/>
</g>
<!-- Node9&#45;&gt;Node5 -->
<g id="edge12" class="edge">
<title>Node9&#45;&gt;Node5</title>
<path fill="none" stroke="midnightblue" d="M279.44,-112.44C260.93,-103.68 231.92,-89.94 210.64,-79.86"/>
<polygon fill="midnightblue" stroke="midnightblue" points="212.01,-76.63 201.48,-75.52 209.02,-82.96 212.01,-76.63"/>
</g>
</g>
</svg>
