<?xml version="1.0" encoding="UTF-8" standalone="no"?>
<!DOCTYPE svg PUBLIC "-//W3C//DTD SVG 1.1//EN"
 "http://www.w3.org/Graphics/SVG/1.1/DTD/svg11.dtd">
<!-- Generated by graphviz version 2.49.3 (20211023.0002)
 -->
<!-- Title: libccc/pointer.h Pages: 1 -->
<svg width="321pt" height="308pt"
 viewBox="0.00 0.00 320.50 308.00" xmlns="http://www.w3.org/2000/svg" xmlns:xlink="http://www.w3.org/1999/xlink">
<g id="graph0" class="graph" transform="scale(1 1) rotate(0) translate(4 304)">
<title>libccc/pointer.h</title>
<polygon fill="white" stroke="transparent" points="-4,4 -4,-304 316.5,-304 316.5,4 -4,4"/>
<!-- Node1 -->
<g id="node1" class="node">
<title>Node1</title>
<g id="a_node1"><a xlink:title=" ">
<polygon fill="#bfbfbf" stroke="black" points="54,-280.5 54,-299.5 136,-299.5 136,-280.5 54,-280.5"/>
<text text-anchor="middle" x="95" y="-287.5" font-family="Consolas" font-size="10.00">libccc/pointer.h</text>
</a>
</g>
</g>
<!-- Node2 -->
<g id="node2" class="node">
<title>Node2</title>
<g id="a_node2"><a xlink:title=" ">
<polygon fill="white" stroke="#bfbfbf" points="0,-224.5 0,-243.5 52,-243.5 52,-224.5 0,-224.5"/>
<text text-anchor="middle" x="26" y="-231.5" font-family="Consolas" font-size="10.00">stddef.h</text>
</a>
</g>
</g>
<!-- Node1&#45;&gt;Node2 -->
<g id="edge1" class="edge">
<title>Node1&#45;&gt;Node2</title>
<path fill="none" stroke="midnightblue" d="M83.91,-280.32C73.51,-272.18 57.74,-259.84 45.28,-250.09"/>
<polygon fill="midnightblue" stroke="midnightblue" points="47.32,-247.24 37.29,-243.83 43.01,-252.75 47.32,-247.24"/>
</g>
<!-- Node3 -->
<g id="node3" class="node">
<title>Node3</title>
<g id="a_node3"><a xlink:title=" ">
<polygon fill="white" stroke="#bfbfbf" points="70.5,-224.5 70.5,-243.5 119.5,-243.5 119.5,-224.5 70.5,-224.5"/>
<text text-anchor="middle" x="95" y="-231.5" font-family="Consolas" font-size="10.00">stdint.h</text>
</a>
</g>
</g>
<!-- Node1&#45;&gt;Node3 -->
<g id="edge2" class="edge">
<title>Node1&#45;&gt;Node3</title>
<path fill="none" stroke="midnightblue" d="M95,-280.08C95,-273.01 95,-262.86 95,-253.99"/>
<polygon fill="midnightblue" stroke="midnightblue" points="98.5,-253.75 95,-243.75 91.5,-253.75 98.5,-253.75"/>
</g>
<!-- Node4 -->
<g id="node4" class="node">
<title>Node4</title>
<g id="a_node4"><a xlink:href="libccc_8h.html" target="_top" xlink:title=" ">
<polygon fill="white" stroke="black" points="138,-224.5 138,-243.5 188,-243.5 188,-224.5 138,-224.5"/>
<text text-anchor="middle" x="163" y="-231.5" font-family="Consolas" font-size="10.00">libccc.h</text>
</a>
</g>
</g>
<!-- Node1&#45;&gt;Node4 -->
<g id="edge3" class="edge">
<title>Node1&#45;&gt;Node4</title>
<path fill="none" stroke="midnightblue" d="M105.93,-280.32C116.17,-272.18 131.72,-259.84 144,-250.09"/>
<polygon fill="midnightblue" stroke="midnightblue" points="146.22,-252.79 151.88,-243.83 141.87,-247.31 146.22,-252.79"/>
</g>
<!-- Node5 -->
<g id="node5" class="node">
<title>Node5</title>
<g id="a_node5"><a xlink:href="libccc__define_8h.html" target="_top" xlink:title=" ">
<polygon fill="white" stroke="black" points="122,-56.5 122,-75.5 204,-75.5 204,-56.5 122,-56.5"/>
<text text-anchor="middle" x="163" y="-63.5" font-family="Consolas" font-size="10.00">libccc_define.h</text>
</a>
</g>
</g>
<!-- Node4&#45;&gt;Node5 -->
<g id="edge4" class="edge">
<title>Node4&#45;&gt;Node5</title>
<path fill="none" stroke="midnightblue" d="M149.08,-224.45C119.26,-205.01 53.94,-155.78 80,-112 89.1,-96.72 105.39,-86.31 121.14,-79.39"/>
<polygon fill="midnightblue" stroke="midnightblue" points="122.83,-82.48 130.82,-75.51 120.23,-75.98 122.83,-82.48"/>
</g>
<!-- Node7 -->
<g id="node7" class="node">
<title>Node7</title>
<g id="a_node7"><a xlink:href="libccc__errors_8h.html" target="_top" xlink:title=" ">
<polygon fill="white" stroke="black" points="89,-112.5 89,-131.5 169,-131.5 169,-112.5 89,-112.5"/>
<text text-anchor="middle" x="129" y="-119.5" font-family="Consolas" font-size="10.00">libccc_errors.h</text>
</a>
</g>
</g>
<!-- Node4&#45;&gt;Node7 -->
<g id="edge6" class="edge">
<title>Node4&#45;&gt;Node7</title>
<path fill="none" stroke="midnightblue" d="M159.75,-224.43C156.38,-215.43 151.05,-200.81 147,-188 142.1,-172.47 137.21,-154.63 133.77,-141.58"/>
<polygon fill="midnightblue" stroke="midnightblue" points="137.15,-140.69 131.25,-131.89 130.38,-142.45 137.15,-140.69"/>
</g>
<!-- Node8 -->
<g id="node8" class="node">
<title>Node8</title>
<g id="a_node8"><a xlink:href="libccc__config_8h.html" target="_top" xlink:title=" ">
<polygon fill="white" stroke="black" points="156,-168.5 156,-187.5 238,-187.5 238,-168.5 156,-168.5"/>
<text text-anchor="middle" x="197" y="-175.5" font-family="Consolas" font-size="10.00">libccc_config.h</text>
</a>
</g>
</g>
<!-- Node4&#45;&gt;Node8 -->
<g id="edge8" class="edge">
<title>Node4&#45;&gt;Node8</title>
<path fill="none" stroke="midnightblue" d="M168.61,-224.08C173.37,-216.53 180.32,-205.49 186.15,-196.23"/>
<polygon fill="midnightblue" stroke="midnightblue" points="189.12,-198.08 191.49,-187.75 183.2,-194.35 189.12,-198.08"/>
</g>
<!-- Node9 -->
<g id="node9" class="node">
<title>Node9</title>
<g id="a_node9"><a xlink:href="libccc__naming_8h.html" target="_top" xlink:title=" ">
<polygon fill="white" stroke="black" points="225.5,-112.5 225.5,-131.5 312.5,-131.5 312.5,-112.5 225.5,-112.5"/>
<text text-anchor="middle" x="269" y="-119.5" font-family="Consolas" font-size="10.00">libccc_naming.h</text>
</a>
</g>
</g>
<!-- Node4&#45;&gt;Node9 -->
<g id="edge11" class="edge">
<title>Node4&#45;&gt;Node9</title>
<path fill="none" stroke="midnightblue" d="M188.33,-225.14C206.95,-218.15 231.6,-206.18 247,-188 258.18,-174.8 263.75,-155.67 266.49,-141.57"/>
<polygon fill="midnightblue" stroke="midnightblue" points="269.96,-142 268.12,-131.56 263.05,-140.87 269.96,-142"/>
</g>
<!-- Node6 -->
<g id="node6" class="node">
<title>Node6</title>
<g id="a_node6"><a xlink:title=" ">
<polygon fill="white" stroke="#bfbfbf" points="133.5,-0.5 133.5,-19.5 192.5,-19.5 192.5,-0.5 133.5,-0.5"/>
<text text-anchor="middle" x="163" y="-7.5" font-family="Consolas" font-size="10.00">stdalign.h</text>
</a>
</g>
</g>
<!-- Node5&#45;&gt;Node6 -->
<g id="edge5" class="edge">
<title>Node5&#45;&gt;Node6</title>
<path fill="none" stroke="midnightblue" d="M163,-56.08C163,-49.01 163,-38.86 163,-29.99"/>
<polygon fill="midnightblue" stroke="midnightblue" points="166.5,-29.75 163,-19.75 159.5,-29.75 166.5,-29.75"/>
</g>
<!-- Node7&#45;&gt;Node5 -->
<g id="edge7" class="edge">
<title>Node7&#45;&gt;Node5</title>
<path fill="none" stroke="midnightblue" d="M134.61,-112.08C139.37,-104.53 146.32,-93.49 152.15,-84.23"/>
<polygon fill="midnightblue" stroke="midnightblue" points="155.12,-86.08 157.49,-75.75 149.2,-82.35 155.12,-86.08"/>
</g>
<!-- Node8&#45;&gt;Node5 -->
<g id="edge9" class="edge">
<title>Node8&#45;&gt;Node5</title>
<path fill="none" stroke="midnightblue" d="M194.52,-168.14C190.99,-155.6 184.25,-131.97 178,-112 175.23,-103.15 172,-93.37 169.24,-85.2"/>
<polygon fill="midnightblue" stroke="midnightblue" points="172.51,-83.94 165.97,-75.6 165.88,-86.19 172.51,-83.94"/>
</g>
<!-- Node8&#45;&gt;Node7 -->
<g id="edge10" class="edge">
<title>Node8&#45;&gt;Node7</title>
<path fill="none" stroke="midnightblue" d="M186.07,-168.32C175.83,-160.18 160.28,-147.84 148,-138.09"/>
<polygon fill="midnightblue" stroke="midnightblue" points="150.13,-135.31 140.12,-131.83 145.78,-140.79 150.13,-135.31"/>
</g>
<!-- Node9&#45;&gt;Node5 -->
<g id="edge12" class="edge">
<title>Node9&#45;&gt;Node5</title>
<path fill="none" stroke="midnightblue" d="M251.97,-112.32C234.97,-103.66 208.62,-90.24 189.01,-80.25"/>
<polygon fill="midnightblue" stroke="midnightblue" points="190.49,-77.08 179.99,-75.65 187.31,-83.31 190.49,-77.08"/>
</g>
</g>
</svg>
