<?xml version="1.0" encoding="UTF-8" standalone="no"?>
<!DOCTYPE svg PUBLIC "-//W3C//DTD SVG 1.1//EN"
 "http://www.w3.org/Graphics/SVG/1.1/DTD/svg11.dtd">
<!-- Generated by graphviz version 3.0.0 (20220226.1711)
 -->
<!-- Title: libccc/pointer.h Pages: 1 -->
<svg width="316pt" height="308pt"
 viewBox="0.00 0.00 315.50 308.00" xmlns="http://www.w3.org/2000/svg" xmlns:xlink="http://www.w3.org/1999/xlink">
<g id="graph0" class="graph" transform="scale(1 1) rotate(0) translate(4 304)">
<title>libccc/pointer.h</title>
<polygon fill="white" stroke="transparent" points="-4,4 -4,-304 311.5,-304 311.5,4 -4,4"/>
<!-- Node1 -->
<g id="node1" class="node">
<title>Node1</title>
<g id="a_node1"><a xlink:title=" ">
<polygon fill="#bfbfbf" stroke="black" points="54,-280.5 54,-299.5 136,-299.5 136,-280.5 54,-280.5"/>
<text text-anchor="middle" x="95" y="-287.5" font-family="Consolas" font-size="10.00">libccc/pointer.h</text>
</a>
</g>
</g>
<!-- Node2 -->
<g id="node2" class="node">
<title>Node2</title>
<g id="a_node2"><a xlink:title=" ">
<polygon fill="white" stroke="#bfbfbf" points="0,-224.5 0,-243.5 52,-243.5 52,-224.5 0,-224.5"/>
<text text-anchor="middle" x="26" y="-231.5" font-family="Consolas" font-size="10.00">stddef.h</text>
</a>
</g>
</g>
<!-- Node1&#45;&gt;Node2 -->
<g id="edge1" class="edge">
<title>Node1&#45;&gt;Node2</title>
<path fill="none" stroke="midnightblue" d="M83.91,-280.32C73.51,-272.18 57.74,-259.84 45.28,-250.09"/>
<polygon fill="midnightblue" stroke="midnightblue" points="47.32,-247.24 37.29,-243.83 43.01,-252.75 47.32,-247.24"/>
</g>
<!-- Node3 -->
<g id="node3" class="node">
<title>Node3</title>
<g id="a_node3"><a xlink:title=" ">
<polygon fill="white" stroke="#bfbfbf" points="70.5,-224.5 70.5,-243.5 119.5,-243.5 119.5,-224.5 70.5,-224.5"/>
<text text-anchor="middle" x="95" y="-231.5" font-family="Consolas" font-size="10.00">stdint.h</text>
</a>
</g>
</g>
<!-- Node1&#45;&gt;Node3 -->
<g id="edge2" class="edge">
<title>Node1&#45;&gt;Node3</title>
<path fill="none" stroke="midnightblue" d="M95,-280.08C95,-273.01 95,-262.86 95,-253.99"/>
<polygon fill="midnightblue" stroke="midnightblue" points="98.5,-253.75 95,-243.75 91.5,-253.75 98.5,-253.75"/>
</g>
<!-- Node4 -->
<g id="node4" class="node">
<title>Node4</title>
<g id="a_node4"><a xlink:href="$libccc_8h.html" xlink:title=" ">
<polygon fill="white" stroke="black" points="138,-224.5 138,-243.5 188,-243.5 188,-224.5 138,-224.5"/>
<text text-anchor="middle" x="163" y="-231.5" font-family="Consolas" font-size="10.00">libccc.h</text>
</a>
</g>
</g>
<!-- Node1&#45;&gt;Node4 -->
<g id="edge3" class="edge">
<title>Node1&#45;&gt;Node4</title>
<path fill="none" stroke="midnightblue" d="M105.93,-280.32C116.17,-272.18 131.72,-259.84 144,-250.09"/>
<polygon fill="midnightblue" stroke="midnightblue" points="146.22,-252.79 151.88,-243.83 141.87,-247.31 146.22,-252.79"/>
</g>
<!-- Node5 -->
<g id="node5" class="node">
<title>Node5</title>
<g id="a_node5"><a xlink:href="$libccc__define_8h.html" xlink:title=" ">
<polygon fill="white" stroke="black" points="88,-56.5 88,-75.5 170,-75.5 170,-56.5 88,-56.5"/>
<text text-anchor="middle" x="129" y="-63.5" font-family="Consolas" font-size="10.00">libccc_define.h</text>
</a>
</g>
</g>
<!-- Node4&#45;&gt;Node5 -->
<g id="edge4" class="edge">
<title>Node4&#45;&gt;Node5</title>
<path fill="none" stroke="midnightblue" d="M144.83,-224.39C116.84,-209.93 64.48,-177.79 46,-132 42.67,-123.76 41.45,-119.64 46,-112 55.1,-96.72 71.39,-86.31 87.14,-79.39"/>
<polygon fill="midnightblue" stroke="midnightblue" points="88.83,-82.48 96.82,-75.51 86.23,-75.98 88.83,-82.48"/>
</g>
<!-- Node7 -->
<g id="node7" class="node">
<title>Node7</title>
<g id="a_node7"><a xlink:href="$libccc__errors_8h.html" xlink:title=" ">
<polygon fill="white" stroke="black" points="55,-112.5 55,-131.5 135,-131.5 135,-112.5 55,-112.5"/>
<text text-anchor="middle" x="95" y="-119.5" font-family="Consolas" font-size="10.00">libccc_errors.h</text>
</a>
</g>
</g>
<!-- Node4&#45;&gt;Node7 -->
<g id="edge6" class="edge">
<title>Node4&#45;&gt;Node7</title>
<path fill="none" stroke="midnightblue" d="M149.57,-224.23C138.22,-216.13 122.34,-203.1 113,-188 104.24,-173.84 99.66,-155.36 97.32,-141.72"/>
<polygon fill="midnightblue" stroke="midnightblue" points="100.75,-141 95.83,-131.61 93.82,-142.01 100.75,-141"/>
</g>
<!-- Node8 -->
<g id="node8" class="node">
<title>Node8</title>
<g id="a_node8"><a xlink:href="$libccc__config_8h.html" xlink:title=" ">
<polygon fill="white" stroke="black" points="122,-168.5 122,-187.5 204,-187.5 204,-168.5 122,-168.5"/>
<text text-anchor="middle" x="163" y="-175.5" font-family="Consolas" font-size="10.00">libccc_config.h</text>
</a>
</g>
</g>
<!-- Node4&#45;&gt;Node8 -->
<g id="edge8" class="edge">
<title>Node4&#45;&gt;Node8</title>
<path fill="none" stroke="midnightblue" d="M163,-224.08C163,-217.01 163,-206.86 163,-197.99"/>
<polygon fill="midnightblue" stroke="midnightblue" points="166.5,-197.75 163,-187.75 159.5,-197.75 166.5,-197.75"/>
</g>
<!-- Node9 -->
<g id="node9" class="node">
<title>Node9</title>
<g id="a_node9"><a xlink:href="$libccc__naming_8h.html" xlink:title=" ">
<polygon fill="white" stroke="black" points="191.5,-112.5 191.5,-131.5 278.5,-131.5 278.5,-112.5 191.5,-112.5"/>
<text text-anchor="middle" x="235" y="-119.5" font-family="Consolas" font-size="10.00">libccc_naming.h</text>
</a>
</g>
</g>
<!-- Node4&#45;&gt;Node9 -->
<g id="edge11" class="edge">
<title>Node4&#45;&gt;Node9</title>
<path fill="none" stroke="midnightblue" d="M175.78,-224.42C187.03,-216.26 203.11,-203.02 213,-188 222.31,-173.85 228.07,-155.37 231.34,-141.73"/>
<polygon fill="midnightblue" stroke="midnightblue" points="234.84,-142.13 233.54,-131.61 228,-140.65 234.84,-142.13"/>
</g>
<!-- Node10 -->
<g id="node10" class="node">
<title>Node10</title>
<g id="a_node10"><a xlink:title=" ">
<polygon fill="white" stroke="#bfbfbf" points="260.5,-168.5 260.5,-187.5 307.5,-187.5 307.5,-168.5 260.5,-168.5"/>
<text text-anchor="middle" x="284" y="-175.5" font-family="Consolas" font-size="10.00">math.h</text>
</a>
</g>
</g>
<!-- Node4&#45;&gt;Node10 -->
<g id="edge13" class="edge">
<title>Node4&#45;&gt;Node10</title>
<path fill="none" stroke="midnightblue" d="M182.17,-224.44C201.91,-215.64 232.89,-201.81 255.49,-191.72"/>
<polygon fill="midnightblue" stroke="midnightblue" points="257.21,-194.79 264.92,-187.52 254.36,-188.4 257.21,-194.79"/>
</g>
<!-- Node6 -->
<g id="node6" class="node">
<title>Node6</title>
<g id="a_node6"><a xlink:title=" ">
<polygon fill="white" stroke="#bfbfbf" points="99.5,-0.5 99.5,-19.5 158.5,-19.5 158.5,-0.5 99.5,-0.5"/>
<text text-anchor="middle" x="129" y="-7.5" font-family="Consolas" font-size="10.00">stdalign.h</text>
</a>
</g>
</g>
<!-- Node5&#45;&gt;Node6 -->
<g id="edge5" class="edge">
<title>Node5&#45;&gt;Node6</title>
<path fill="none" stroke="midnightblue" d="M129,-56.08C129,-49.01 129,-38.86 129,-29.99"/>
<polygon fill="midnightblue" stroke="midnightblue" points="132.5,-29.75 129,-19.75 125.5,-29.75 132.5,-29.75"/>
</g>
<!-- Node7&#45;&gt;Node5 -->
<g id="edge7" class="edge">
<title>Node7&#45;&gt;Node5</title>
<path fill="none" stroke="midnightblue" d="M100.61,-112.08C105.37,-104.53 112.32,-93.49 118.15,-84.23"/>
<polygon fill="midnightblue" stroke="midnightblue" points="121.12,-86.08 123.49,-75.75 115.2,-82.35 121.12,-86.08"/>
</g>
<!-- Node8&#45;&gt;Node5 -->
<g id="edge9" class="edge">
<title>Node8&#45;&gt;Node5</title>
<path fill="none" stroke="midnightblue" d="M160.52,-168.14C156.99,-155.6 150.25,-131.97 144,-112 141.23,-103.15 138,-93.37 135.24,-85.2"/>
<polygon fill="midnightblue" stroke="midnightblue" points="138.51,-83.94 131.97,-75.6 131.88,-86.19 138.51,-83.94"/>
</g>
<!-- Node8&#45;&gt;Node7 -->
<g id="edge10" class="edge">
<title>Node8&#45;&gt;Node7</title>
<path fill="none" stroke="midnightblue" d="M152.07,-168.32C141.83,-160.18 126.28,-147.84 114,-138.09"/>
<polygon fill="midnightblue" stroke="midnightblue" points="116.13,-135.31 106.12,-131.83 111.78,-140.79 116.13,-135.31"/>
</g>
<!-- Node9&#45;&gt;Node5 -->
<g id="edge12" class="edge">
<title>Node9&#45;&gt;Node5</title>
<path fill="none" stroke="midnightblue" d="M217.97,-112.32C200.97,-103.66 174.62,-90.24 155.01,-80.25"/>
<polygon fill="midnightblue" stroke="midnightblue" points="156.49,-77.08 145.99,-75.65 153.31,-83.31 156.49,-77.08"/>
</g>
</g>
</svg>
