<?xml version="1.0" encoding="UTF-8" standalone="no"?>
<!DOCTYPE svg PUBLIC "-//W3C//DTD SVG 1.1//EN"
 "http://www.w3.org/Graphics/SVG/1.1/DTD/svg11.dtd">
<!-- Generated by graphviz version 2.43.0 (0)
 -->
<!-- Title: libccc/pointerarray.h Pages: 1 -->
<!--zoomable 308 -->
<svg id="main" version="1.1" xmlns="http://www.w3.org/2000/svg" xmlns:xlink="http://www.w3.org/1999/xlink" xml:space="preserve" onload="init(evt)">
<style type="text/css"><![CDATA[
.edge:hover path { stroke: red; }
.edge:hover polygon { stroke: red; fill: red; }
]]></style>
<script type="text/javascript"><![CDATA[
var edges = document.getElementsByTagName('g');
if (edges && edges.length) {
  for (var i=0;i<edges.length;i++) {
    if (edges[i].id.substr(0,4)=='edge') {
      edges[i].setAttribute('class','edge');
    }
  }
}
]]></script>
        <defs>
                <circle id="rim" cx="0" cy="0" r="7"/>
                <circle id="rim2" cx="0" cy="0" r="3.5"/>
                <g id="zoomPlus">
                        <use xlink:href="#rim" fill="#404040">
                                <set attributeName="fill" to="#808080" begin="zoomplus.mouseover" end="zoomplus.mouseout"/>
                        </use>
                        <path d="M-4,0h8M0,-4v8" fill="none" stroke="white" stroke-width="1.5" pointer-events="none"/>
                </g>
                <g id="zoomMin">
                        <use xlink:href="#rim" fill="#404040">
                                <set attributeName="fill" to="#808080" begin="zoomminus.mouseover" end="zoomminus.mouseout"/>
                        </use>
                        <path d="M-4,0h8" fill="none" stroke="white" stroke-width="1.5" pointer-events="none"/>
                </g>
                <g id="dirArrow">
                        <path fill="none" stroke="white" stroke-width="1.5" d="M0,-3.0v7 M-2.5,-0.5L0,-3.0L2.5,-0.5"/>
                </g>
               <g id="resetDef">
                       <use xlink:href="#rim2" fill="#404040">
                               <set attributeName="fill" to="#808080" begin="reset.mouseover" end="reset.mouseout"/>
                       </use>
               </g>
        </defs>

<script type="text/javascript">
var viewWidth = 901;
var viewHeight = 308;
var sectionId = 'dynsection-0';
</script>
<script xlink:href="svgpan.js"/>
<svg id="graph" class="graph">
<g id="viewport">
<title>libccc/pointerarray.h</title>
<polygon fill="white" stroke="transparent" points="-4,4 -4,-304 896.82,-304 896.82,4 -4,4"/>
<!-- Node1 -->
<g id="node1" class="node">
<title>Node1</title>
<g id="a_node1"><a xlink:title=" ">
<polygon fill="#bfbfbf" stroke="black" points="206.32,-280.5 206.32,-299.5 333.32,-299.5 333.32,-280.5 206.32,-280.5"/>
<text text-anchor="middle" x="269.82" y="-287.5" font-family="Consolas" font-size="10.00">libccc/pointerarray.h</text>
</a>
</g>
</g>
<!-- Node2 -->
<g id="node2" class="node">
<title>Node2</title>
<g id="a_node2"><a xlink:href="libccc_8h.html" target="_top" xlink:title=" ">
<polygon fill="white" stroke="black" points="240.32,-224.5 240.32,-243.5 299.32,-243.5 299.32,-224.5 240.32,-224.5"/>
<text text-anchor="middle" x="269.82" y="-231.5" font-family="Consolas" font-size="10.00">libccc.h</text>
</a>
</g>
</g>
<!-- Node1&#45;&gt;Node2 -->
<g id="edge1" class="edge">
<title>Node1&#45;&gt;Node2</title>
<path fill="none" stroke="midnightblue" d="M269.82,-280.08C269.82,-273.01 269.82,-262.86 269.82,-253.99"/>
<polygon fill="midnightblue" stroke="midnightblue" points="273.32,-253.75 269.82,-243.75 266.32,-253.75 273.32,-253.75"/>
</g>
<!-- Node3 -->
<g id="node3" class="node">
<title>Node3</title>
<g id="a_node3"><a xlink:href="libccc__define_8h.html" target="_top" xlink:title=" ">
<polygon fill="white" stroke="black" points="108.32,-56.5 108.32,-75.5 203.32,-75.5 203.32,-56.5 108.32,-56.5"/>
<text text-anchor="middle" x="155.82" y="-63.5" font-family="Consolas" font-size="10.00">libccc_define.h</text>
</a>
</g>
</g>
<!-- Node2&#45;&gt;Node3 -->
<g id="edge2" class="edge">
<title>Node2&#45;&gt;Node3</title>
<path fill="none" stroke="midnightblue" d="M265.03,-224.42C257.92,-211.83 243.99,-187.69 230.82,-168 210.39,-137.46 184.42,-103.44 169.02,-83.7"/>
<polygon fill="midnightblue" stroke="midnightblue" points="171.67,-81.41 162.74,-75.71 166.16,-85.73 171.67,-81.41"/>
</g>
<!-- Node5 -->
<g id="node5" class="node">
<title>Node5</title>
<g id="a_node5"><a xlink:href="libccc__errors_8h.html" target="_top" xlink:title=" ">
<polygon fill="white" stroke="black" points="13.32,-112.5 13.32,-131.5 108.32,-131.5 108.32,-112.5 13.32,-112.5"/>
<text text-anchor="middle" x="60.82" y="-119.5" font-family="Consolas" font-size="10.00">libccc_errors.h</text>
</a>
</g>
</g>
<!-- Node2&#45;&gt;Node5 -->
<g id="edge4" class="edge">
<title>Node2&#45;&gt;Node5</title>
<path fill="none" stroke="midnightblue" d="M240.24,-232.56C177.57,-230.95 34.7,-223.39 4.82,-188 -10.23,-170.18 14.09,-149.83 35.25,-136.72"/>
<polygon fill="midnightblue" stroke="midnightblue" points="37.15,-139.66 44,-131.58 33.6,-133.63 37.15,-139.66"/>
</g>
<!-- Node6 -->
<g id="node6" class="node">
<title>Node6</title>
<g id="a_node6"><a xlink:href="libccc__config_8h.html" target="_top" xlink:title=" ">
<polygon fill="white" stroke="black" points="14.32,-168.5 14.32,-187.5 109.32,-187.5 109.32,-168.5 14.32,-168.5"/>
<text text-anchor="middle" x="61.82" y="-175.5" font-family="Consolas" font-size="10.00">libccc_config.h</text>
</a>
</g>
</g>
<!-- Node2&#45;&gt;Node6 -->
<g id="edge6" class="edge">
<title>Node2&#45;&gt;Node6</title>
<path fill="none" stroke="midnightblue" d="M240.02,-225.26C204.5,-216.04 144.88,-200.57 104.48,-190.08"/>
<polygon fill="midnightblue" stroke="midnightblue" points="105.21,-186.65 94.65,-187.52 103.45,-193.42 105.21,-186.65"/>
</g>
<!-- Node7 -->
<g id="node7" class="node">
<title>Node7</title>
<g id="a_node7"><a xlink:href="libccc__naming_8h.html" target="_top" xlink:title=" ">
<polygon fill="white" stroke="black" points="127.32,-168.5 127.32,-187.5 222.32,-187.5 222.32,-168.5 127.32,-168.5"/>
<text text-anchor="middle" x="174.82" y="-175.5" font-family="Consolas" font-size="10.00">libccc_naming.h</text>
</a>
</g>
</g>
<!-- Node2&#45;&gt;Node7 -->
<g id="edge9" class="edge">
<title>Node2&#45;&gt;Node7</title>
<path fill="none" stroke="midnightblue" d="M254.55,-224.32C239.6,-215.82 216.56,-202.73 199.09,-192.8"/>
<polygon fill="midnightblue" stroke="midnightblue" points="200.47,-189.55 190.04,-187.65 197.01,-195.64 200.47,-189.55"/>
</g>
<!-- Node8 -->
<g id="node8" class="node">
<title>Node8</title>
<g id="a_node8"><a xlink:href="math_8h.html" target="_top" xlink:title=" ">
<polygon fill="white" stroke="black" points="495.82,-168.5 495.82,-187.5 543.82,-187.5 543.82,-168.5 495.82,-168.5"/>
<text text-anchor="middle" x="519.82" y="-175.5" font-family="Consolas" font-size="10.00">math.h</text>
</a>
</g>
</g>
<!-- Node2&#45;&gt;Node8 -->
<g id="edge11" class="edge">
<title>Node2&#45;&gt;Node8</title>
<path fill="none" stroke="midnightblue" d="M299.48,-226.59C346.21,-216.5 436.71,-196.95 485.93,-186.32"/>
<polygon fill="midnightblue" stroke="midnightblue" points="486.75,-189.72 495.78,-184.19 485.27,-182.88 486.75,-189.72"/>
</g>
<!-- Node4 -->
<g id="node4" class="node">
<title>Node4</title>
<g id="a_node4"><a xlink:title=" ">
<polygon fill="white" stroke="#bfbfbf" points="121.32,-0.5 121.32,-19.5 190.32,-19.5 190.32,-0.5 121.32,-0.5"/>
<text text-anchor="middle" x="155.82" y="-7.5" font-family="Consolas" font-size="10.00">stdalign.h</text>
</a>
</g>
</g>
<!-- Node3&#45;&gt;Node4 -->
<g id="edge3" class="edge">
<title>Node3&#45;&gt;Node4</title>
<path fill="none" stroke="midnightblue" d="M155.82,-56.08C155.82,-49.01 155.82,-38.86 155.82,-29.99"/>
<polygon fill="midnightblue" stroke="midnightblue" points="159.32,-29.75 155.82,-19.75 152.32,-29.75 159.32,-29.75"/>
</g>
<!-- Node5&#45;&gt;Node3 -->
<g id="edge5" class="edge">
<title>Node5&#45;&gt;Node3</title>
<path fill="none" stroke="midnightblue" d="M76.08,-112.32C91.04,-103.82 114.07,-90.73 131.54,-80.8"/>
<polygon fill="midnightblue" stroke="midnightblue" points="133.63,-83.64 140.59,-75.65 130.17,-77.55 133.63,-83.64"/>
</g>
<!-- Node6&#45;&gt;Node3 -->
<g id="edge7" class="edge">
<title>Node6&#45;&gt;Node3</title>
<path fill="none" stroke="midnightblue" d="M74.68,-168.43C86.56,-160.09 104.23,-146.56 116.82,-132 129.3,-117.56 140.15,-98.62 147.22,-84.91"/>
<polygon fill="midnightblue" stroke="midnightblue" points="150.53,-86.12 151.85,-75.61 144.26,-83 150.53,-86.12"/>
</g>
<!-- Node6&#45;&gt;Node5 -->
<g id="edge8" class="edge">
<title>Node6&#45;&gt;Node5</title>
<path fill="none" stroke="midnightblue" d="M61.65,-168.08C61.52,-161.01 61.33,-150.86 61.17,-141.99"/>
<polygon fill="midnightblue" stroke="midnightblue" points="64.66,-141.68 60.98,-131.75 57.67,-141.81 64.66,-141.68"/>
</g>
<!-- Node7&#45;&gt;Node3 -->
<g id="edge10" class="edge">
<title>Node7&#45;&gt;Node3</title>
<path fill="none" stroke="midnightblue" d="M173.33,-168.37C170.26,-150.62 163.19,-109.67 159.03,-85.6"/>
<polygon fill="midnightblue" stroke="midnightblue" points="162.45,-84.85 157.3,-75.59 155.55,-86.04 162.45,-84.85"/>
</g>
<!-- Node9 -->
<g id="node9" class="node">
<title>Node9</title>
<g id="a_node9"><a xlink:href="constants_8h.html" target="_top" xlink:title=" ">
<polygon fill="white" stroke="black" points="451.32,-112.5 451.32,-131.5 588.32,-131.5 588.32,-112.5 451.32,-112.5"/>
<text text-anchor="middle" x="519.82" y="-119.5" font-family="Consolas" font-size="10.00">libccc/math/constants.h</text>
</a>
</g>
</g>
<!-- Node8&#45;&gt;Node9 -->
<g id="edge12" class="edge">
<title>Node8&#45;&gt;Node9</title>
<path fill="none" stroke="midnightblue" d="M519.82,-168.08C519.82,-161.01 519.82,-150.86 519.82,-141.99"/>
<polygon fill="midnightblue" stroke="midnightblue" points="523.32,-141.75 519.82,-131.75 516.32,-141.75 523.32,-141.75"/>
</g>
<!-- Node11 -->
<g id="node11" class="node">
<title>Node11</title>
<g id="a_node11"><a xlink:href="math_2int_8h.html" target="_top" xlink:title=" ">
<polygon fill="white" stroke="black" points="740.82,-112.5 740.82,-131.5 846.82,-131.5 846.82,-112.5 740.82,-112.5"/>
<text text-anchor="middle" x="793.82" y="-119.5" font-family="Consolas" font-size="10.00">libccc/math/int.h</text>
</a>
</g>
</g>
<!-- Node8&#45;&gt;Node11 -->
<g id="edge15" class="edge">
<title>Node8&#45;&gt;Node11</title>
<path fill="none" stroke="midnightblue" d="M544.13,-172.21C587.96,-163.57 681.16,-145.2 740.47,-133.51"/>
<polygon fill="midnightblue" stroke="midnightblue" points="741.27,-136.92 750.41,-131.56 739.92,-130.06 741.27,-136.92"/>
</g>
<!-- Node14 -->
<g id="node14" class="node">
<title>Node14</title>
<g id="a_node14"><a xlink:href="math_2fixed_8h.html" target="_top" xlink:title=" ">
<polygon fill="white" stroke="black" points="606.82,-112.5 606.82,-131.5 722.82,-131.5 722.82,-112.5 606.82,-112.5"/>
<text text-anchor="middle" x="664.82" y="-119.5" font-family="Consolas" font-size="10.00">libccc/math/fixed.h</text>
</a>
</g>
</g>
<!-- Node8&#45;&gt;Node14 -->
<g id="edge19" class="edge">
<title>Node8&#45;&gt;Node14</title>
<path fill="none" stroke="midnightblue" d="M542.79,-168.44C566.97,-159.44 605.24,-145.19 632.46,-135.05"/>
<polygon fill="midnightblue" stroke="midnightblue" points="633.8,-138.29 641.95,-131.52 631.36,-131.73 633.8,-138.29"/>
</g>
<!-- Node16 -->
<g id="node16" class="node">
<title>Node16</title>
<g id="a_node16"><a xlink:href="math_2float_8h.html" target="_top" xlink:title=" ">
<polygon fill="white" stroke="black" points="316.82,-112.5 316.82,-131.5 432.82,-131.5 432.82,-112.5 316.82,-112.5"/>
<text text-anchor="middle" x="374.82" y="-119.5" font-family="Consolas" font-size="10.00">libccc/math/float.h</text>
</a>
</g>
</g>
<!-- Node8&#45;&gt;Node16 -->
<g id="edge22" class="edge">
<title>Node8&#45;&gt;Node16</title>
<path fill="none" stroke="midnightblue" d="M496.84,-168.44C472.66,-159.44 434.4,-145.19 407.17,-135.05"/>
<polygon fill="midnightblue" stroke="midnightblue" points="408.28,-131.73 397.69,-131.52 405.84,-138.29 408.28,-131.73"/>
</g>
<!-- Node10 -->
<g id="node10" class="node">
<title>Node10</title>
<g id="a_node10"><a xlink:href="float_8h.html" target="_top" xlink:title=" ">
<polygon fill="white" stroke="black" points="329.82,-56.5 329.82,-75.5 419.82,-75.5 419.82,-56.5 329.82,-56.5"/>
<text text-anchor="middle" x="374.82" y="-63.5" font-family="Consolas" font-size="10.00">libccc/float.h</text>
</a>
</g>
</g>
<!-- Node9&#45;&gt;Node10 -->
<g id="edge13" class="edge">
<title>Node9&#45;&gt;Node10</title>
<path fill="none" stroke="midnightblue" d="M496.84,-112.44C472.66,-103.44 434.4,-89.19 407.17,-79.05"/>
<polygon fill="midnightblue" stroke="midnightblue" points="408.28,-75.73 397.69,-75.52 405.84,-82.29 408.28,-75.73"/>
</g>
<!-- Node10&#45;&gt;Node2 -->
<g id="edge14" class="edge">
<title>Node10&#45;&gt;Node2</title>
<path fill="none" stroke="midnightblue" d="M355.43,-75.55C340.41,-83.11 320.15,-95.5 307.82,-112 284.61,-143.05 275.35,-188.61 271.83,-214.05"/>
<polygon fill="midnightblue" stroke="midnightblue" points="268.33,-213.84 270.59,-224.19 275.28,-214.69 268.33,-213.84"/>
</g>
<!-- Node12 -->
<g id="node12" class="node">
<title>Node12</title>
<g id="a_node12"><a xlink:href="int_8h.html" target="_top" xlink:title=" ">
<polygon fill="white" stroke="black" points="812.82,-56.5 812.82,-75.5 892.82,-75.5 892.82,-56.5 812.82,-56.5"/>
<text text-anchor="middle" x="852.82" y="-63.5" font-family="Consolas" font-size="10.00">libccc/int.h</text>
</a>
</g>
</g>
<!-- Node11&#45;&gt;Node12 -->
<g id="edge16" class="edge">
<title>Node11&#45;&gt;Node12</title>
<path fill="none" stroke="midnightblue" d="M803.3,-112.32C812.02,-104.34 825.16,-92.31 835.72,-82.65"/>
<polygon fill="midnightblue" stroke="midnightblue" points="838.15,-85.17 843.17,-75.83 833.43,-80 838.15,-85.17"/>
</g>
<!-- Node12&#45;&gt;Node2 -->
<g id="edge18" class="edge">
<title>Node12&#45;&gt;Node2</title>
<path fill="none" stroke="midnightblue" d="M859.78,-75.87C869.03,-88.82 883.09,-113.4 872.82,-132 850.22,-172.91 828.11,-173.1 783.82,-188 695.99,-217.54 414.4,-228.73 309.6,-231.93"/>
<polygon fill="midnightblue" stroke="midnightblue" points="309.34,-228.44 299.45,-232.23 309.55,-235.43 309.34,-228.44"/>
</g>
<!-- Node13 -->
<g id="node13" class="node">
<title>Node13</title>
<g id="a_node13"><a xlink:title=" ">
<polygon fill="white" stroke="#bfbfbf" points="823.32,-0.5 823.32,-19.5 882.32,-19.5 882.32,-0.5 823.32,-0.5"/>
<text text-anchor="middle" x="852.82" y="-7.5" font-family="Consolas" font-size="10.00">stdint.h</text>
</a>
</g>
</g>
<!-- Node12&#45;&gt;Node13 -->
<g id="edge17" class="edge">
<title>Node12&#45;&gt;Node13</title>
<path fill="none" stroke="midnightblue" d="M852.82,-56.08C852.82,-49.01 852.82,-38.86 852.82,-29.99"/>
<polygon fill="midnightblue" stroke="midnightblue" points="856.32,-29.75 852.82,-19.75 849.32,-29.75 856.32,-29.75"/>
</g>
<!-- Node15 -->
<g id="node15" class="node">
<title>Node15</title>
<g id="a_node15"><a xlink:href="fixed_8h.html" target="_top" xlink:title=" ">
<polygon fill="white" stroke="black" points="661.82,-56.5 661.82,-75.5 751.82,-75.5 751.82,-56.5 661.82,-56.5"/>
<text text-anchor="middle" x="706.82" y="-63.5" font-family="Consolas" font-size="10.00">libccc/fixed.h</text>
</a>
</g>
</g>
<!-- Node14&#45;&gt;Node15 -->
<g id="edge20" class="edge">
<title>Node14&#45;&gt;Node15</title>
<path fill="none" stroke="midnightblue" d="M671.75,-112.08C677.75,-104.38 686.57,-93.03 693.87,-83.65"/>
<polygon fill="midnightblue" stroke="midnightblue" points="696.63,-85.79 700.01,-75.75 691.11,-81.5 696.63,-85.79"/>
</g>
<!-- Node15&#45;&gt;Node2 -->
<g id="edge21" class="edge">
<title>Node15&#45;&gt;Node2</title>
<path fill="none" stroke="midnightblue" d="M752.08,-71.06C806.64,-77.7 887.32,-94.14 855.82,-132 785.87,-216.06 430.37,-230.16 309.84,-232.52"/>
<polygon fill="midnightblue" stroke="midnightblue" points="309.52,-229.03 299.59,-232.71 309.65,-236.03 309.52,-229.03"/>
</g>
<!-- Node16&#45;&gt;Node10 -->
<g id="edge23" class="edge">
<title>Node16&#45;&gt;Node10</title>
<path fill="none" stroke="midnightblue" d="M374.82,-112.08C374.82,-105.01 374.82,-94.86 374.82,-85.99"/>
<polygon fill="midnightblue" stroke="midnightblue" points="378.32,-85.75 374.82,-75.75 371.32,-85.75 378.32,-85.75"/>
</g>
</g>
</svg>
        <g id="navigator" transform="translate(0 0)" fill="#404254">
                <rect fill="#f2f5e9" fill-opacity="0.5" stroke="#606060" stroke-width=".5" x="0" y="0" width="60" height="60"/>
                <use id="zoomplus" xlink:href="#zoomPlus" x="17" y="9" onmousedown="handleZoom(evt,'in')"/>
                <use id="zoomminus" xlink:href="#zoomMin" x="42" y="9" onmousedown="handleZoom(evt,'out')"/>
                <use id="reset" xlink:href="#resetDef" x="30" y="36" onmousedown="handleReset()"/>
                <g id="arrowUp" xlink:href="#dirArrow" transform="translate(30 24)" onmousedown="handlePan(0,-1)">
                  <use xlink:href="#rim" fill="#404040">
                        <set attributeName="fill" to="#808080" begin="arrowUp.mouseover" end="arrowUp.mouseout"/>
                  </use>
                  <path fill="none" stroke="white" stroke-width="1.5" d="M0,-3.0v7 M-2.5,-0.5L0,-3.0L2.5,-0.5"/>
                </g>
                <g id="arrowRight" xlink:href="#dirArrow" transform="rotate(90) translate(36 -43)" onmousedown="handlePan(1,0)">
                  <use xlink:href="#rim" fill="#404040">
                        <set attributeName="fill" to="#808080" begin="arrowRight.mouseover" end="arrowRight.mouseout"/>
                  </use>
                  <path fill="none" stroke="white" stroke-width="1.5" d="M0,-3.0v7 M-2.5,-0.5L0,-3.0L2.5,-0.5"/>
                </g>
                <g id="arrowDown" xlink:href="#dirArrow" transform="rotate(180) translate(-30 -48)" onmousedown="handlePan(0,1)">
                  <use xlink:href="#rim" fill="#404040">
                        <set attributeName="fill" to="#808080" begin="arrowDown.mouseover" end="arrowDown.mouseout"/>
                  </use>
                  <path fill="none" stroke="white" stroke-width="1.5" d="M0,-3.0v7 M-2.5,-0.5L0,-3.0L2.5,-0.5"/>
                </g>
                <g id="arrowLeft" xlink:href="#dirArrow" transform="rotate(270) translate(-36 17)" onmousedown="handlePan(-1,0)">
                  <use xlink:href="#rim" fill="#404040">
                        <set attributeName="fill" to="#808080" begin="arrowLeft.mouseover" end="arrowLeft.mouseout"/>
                  </use>
                  <path fill="none" stroke="white" stroke-width="1.5" d="M0,-3.0v7 M-2.5,-0.5L0,-3.0L2.5,-0.5"/>
                </g>
        </g>
        <svg viewBox="0 0 15 15" width="100%" height="30px" preserveAspectRatio="xMaxYMin meet">
         <g id="arrow_out" transform="scale(0.3 0.3)">
          <a xlink:href="pointerarray_8h__incl_org.svg" target="_base">
           <rect id="button" ry="5" rx="5" y="6" x="6" height="38" width="38"
                fill="#f2f5e9" fill-opacity="0.5" stroke="#606060" stroke-width="1.0"/>
           <path id="arrow"
             d="M 11.500037,31.436501 C 11.940474,20.09759 22.043105,11.32322 32.158766,21.979434 L 37.068811,17.246167 C 37.068811,17.246167 37.088388,32 37.088388,32 L 22.160133,31.978069 C 22.160133,31.978069 26.997745,27.140456 26.997745,27.140456 C 18.528582,18.264221 13.291696,25.230495 11.500037,31.436501 z"
             style="fill:#404040;"/>
          </a>
         </g>
        </svg>
</svg>
