<?xml version="1.0" encoding="UTF-8" standalone="no"?>
<!DOCTYPE svg PUBLIC "-//W3C//DTD SVG 1.1//EN"
 "http://www.w3.org/Graphics/SVG/1.1/DTD/svg11.dtd">
<!-- Generated by graphviz version 2.49.3 (20211023.0002)
 -->
<!-- Title: hdr/libccc/pointer.h Pages: 1 -->
<!--zoomable 308 -->
<svg id="main" version="1.1" xmlns="http://www.w3.org/2000/svg" xmlns:xlink="http://www.w3.org/1999/xlink" xml:space="preserve" onload="init(evt)">
<style type="text/css"><![CDATA[
.edge:hover path { stroke: red; }
.edge:hover polygon { stroke: red; fill: red; }
]]></style>
<script type="text/javascript"><![CDATA[
var edges = document.getElementsByTagName('g');
if (edges && edges.length) {
  for (var i=0;i<edges.length;i++) {
    if (edges[i].id.substr(0,4)=='edge') {
      edges[i].setAttribute('class','edge');
    }
  }
}
]]></script>
        <defs>
                <circle id="rim" cx="0" cy="0" r="7"/>
                <circle id="rim2" cx="0" cy="0" r="3.5"/>
                <g id="zoomPlus">
                        <use xlink:href="#rim" fill="#404040">
                                <set attributeName="fill" to="#808080" begin="zoomplus.mouseover" end="zoomplus.mouseout"/>
                        </use>
                        <path d="M-4,0h8M0,-4v8" fill="none" stroke="white" stroke-width="1.5" pointer-events="none"/>
                </g>
                <g id="zoomMin">
                        <use xlink:href="#rim" fill="#404040">
                                <set attributeName="fill" to="#808080" begin="zoomminus.mouseover" end="zoomminus.mouseout"/>
                        </use>
                        <path d="M-4,0h8" fill="none" stroke="white" stroke-width="1.5" pointer-events="none"/>
                </g>
                <g id="dirArrow">
                        <path fill="none" stroke="white" stroke-width="1.5" d="M0,-3.0v7 M-2.5,-0.5L0,-3.0L2.5,-0.5"/>
                </g>
               <g id="resetDef">
                       <use xlink:href="#rim2" fill="#404040">
                               <set attributeName="fill" to="#808080" begin="reset.mouseover" end="reset.mouseout"/>
                       </use>
               </g>
        </defs>

<script type="text/javascript">
var viewWidth = 780;
var viewHeight = 308;
var sectionId = 'dynsection-0';
</script>
<script xlink:href="svgpan.js"/>
<svg id="graph" class="graph">
<g id="viewport">
<title>hdr/libccc/pointer.h</title>
<polygon fill="white" stroke="transparent" points="-4,4 -4,-304 775.5,-304 775.5,4 -4,4"/>
<!-- Node1 -->
<g id="node1" class="node">
<title>Node1</title>
<g id="a_node1"><a xlink:title=" ">
<polygon fill="#bfbfbf" stroke="black" points="178.5,-280.5 178.5,-299.5 276.5,-299.5 276.5,-280.5 178.5,-280.5"/>
<text text-anchor="middle" x="227.5" y="-287.5" font-family="Consolas" font-size="10.00">hdr/libccc/pointer.h</text>
</a>
</g>
</g>
<!-- Node2 -->
<g id="node2" class="node">
<title>Node2</title>
<g id="a_node2"><a xlink:title=" ">
<polygon fill="white" stroke="#bfbfbf" points="23.5,-224.5 23.5,-243.5 75.5,-243.5 75.5,-224.5 23.5,-224.5"/>
<text text-anchor="middle" x="49.5" y="-231.5" font-family="Consolas" font-size="10.00">stddef.h</text>
</a>
</g>
</g>
<!-- Node1&#45;&gt;Node2 -->
<g id="edge1" class="edge">
<title>Node1&#45;&gt;Node2</title>
<path fill="none" stroke="midnightblue" d="M199.3,-280.44C168.47,-271.09 119,-256.08 85.42,-245.9"/>
<polygon fill="midnightblue" stroke="midnightblue" points="86.13,-242.46 75.55,-242.9 84.1,-249.15 86.13,-242.46"/>
</g>
<!-- Node3 -->
<g id="node3" class="node">
<title>Node3</title>
<g id="a_node3"><a xlink:title=" ">
<polygon fill="white" stroke="#bfbfbf" points="0,-112.5 0,-131.5 49,-131.5 49,-112.5 0,-112.5"/>
<text text-anchor="middle" x="24.5" y="-119.5" font-family="Consolas" font-size="10.00">stdint.h</text>
</a>
</g>
</g>
<!-- Node1&#45;&gt;Node3 -->
<g id="edge2" class="edge">
<title>Node1&#45;&gt;Node3</title>
<path fill="none" stroke="midnightblue" d="M216.87,-280.31C184.12,-253.53 84.46,-172.03 42.95,-138.09"/>
<polygon fill="midnightblue" stroke="midnightblue" points="44.98,-135.23 35.02,-131.61 40.55,-140.64 44.98,-135.23"/>
</g>
<!-- Node4 -->
<g id="node4" class="node">
<title>Node4</title>
<g id="a_node4"><a xlink:href="libccc_8h.html" target="_top" xlink:title=" ">
<polygon fill="white" stroke="black" points="360.5,-224.5 360.5,-243.5 410.5,-243.5 410.5,-224.5 360.5,-224.5"/>
<text text-anchor="middle" x="385.5" y="-231.5" font-family="Consolas" font-size="10.00">libccc.h</text>
</a>
</g>
</g>
<!-- Node1&#45;&gt;Node4 -->
<g id="edge3" class="edge">
<title>Node1&#45;&gt;Node4</title>
<path fill="none" stroke="midnightblue" d="M247.45,-280.44C273.45,-270.84 318.92,-255.26 350.63,-245.07"/>
<polygon fill="midnightblue" stroke="midnightblue" points="351.92,-248.33 360.4,-241.97 349.8,-241.66 351.92,-248.33"/>
</g>
<!-- Node4&#45;&gt;Node1 -->
<g id="edge27" class="edge">
<title>Node4&#45;&gt;Node1</title>
<path fill="none" stroke="midnightblue" d="M365.66,-243.52C341.02,-252.62 298.78,-267.13 267.4,-277.3"/>
<polygon fill="midnightblue" stroke="midnightblue" points="266.07,-274.05 257.62,-280.44 268.22,-280.72 266.07,-274.05"/>
</g>
<!-- Node5 -->
<g id="node5" class="node">
<title>Node5</title>
<g id="a_node5"><a xlink:href="libccc__define_8h.html" target="_top" xlink:title=" ">
<polygon fill="white" stroke="black" points="374.5,-56.5 374.5,-75.5 456.5,-75.5 456.5,-56.5 374.5,-56.5"/>
<text text-anchor="middle" x="415.5" y="-63.5" font-family="Consolas" font-size="10.00">libccc_define.h</text>
</a>
</g>
</g>
<!-- Node4&#45;&gt;Node5 -->
<g id="edge4" class="edge">
<title>Node4&#45;&gt;Node5</title>
<path fill="none" stroke="midnightblue" d="M376.26,-224.43C355.5,-204.13 308.8,-151.81 332.5,-112 341.6,-96.72 357.89,-86.31 373.64,-79.39"/>
<polygon fill="midnightblue" stroke="midnightblue" points="375.33,-82.48 383.32,-75.51 372.73,-75.98 375.33,-82.48"/>
</g>
<!-- Node7 -->
<g id="node7" class="node">
<title>Node7</title>
<g id="a_node7"><a xlink:href="libccc__errors_8h.html" target="_top" xlink:title=" ">
<polygon fill="white" stroke="black" points="341.5,-112.5 341.5,-131.5 421.5,-131.5 421.5,-112.5 341.5,-112.5"/>
<text text-anchor="middle" x="381.5" y="-119.5" font-family="Consolas" font-size="10.00">libccc_errors.h</text>
</a>
</g>
</g>
<!-- Node4&#45;&gt;Node7 -->
<g id="edge6" class="edge">
<title>Node4&#45;&gt;Node7</title>
<path fill="none" stroke="midnightblue" d="M381.64,-224.25C377.94,-215.33 372.61,-201.01 370.5,-188 367.95,-172.29 371.42,-154.47 375.12,-141.46"/>
<polygon fill="midnightblue" stroke="midnightblue" points="378.49,-142.41 378.15,-131.83 371.81,-140.31 378.49,-142.41"/>
</g>
<!-- Node8 -->
<g id="node8" class="node">
<title>Node8</title>
<g id="a_node8"><a xlink:href="libccc__config_8h.html" target="_top" xlink:title=" ">
<polygon fill="white" stroke="black" points="379.5,-168.5 379.5,-187.5 461.5,-187.5 461.5,-168.5 379.5,-168.5"/>
<text text-anchor="middle" x="420.5" y="-175.5" font-family="Consolas" font-size="10.00">libccc_config.h</text>
</a>
</g>
</g>
<!-- Node4&#45;&gt;Node8 -->
<g id="edge8" class="edge">
<title>Node4&#45;&gt;Node8</title>
<path fill="none" stroke="midnightblue" d="M391.28,-224.08C396.17,-216.53 403.33,-205.49 409.33,-196.23"/>
<polygon fill="midnightblue" stroke="midnightblue" points="412.33,-198.05 414.83,-187.75 406.45,-194.24 412.33,-198.05"/>
</g>
<!-- Node9 -->
<g id="node9" class="node">
<title>Node9</title>
<g id="a_node9"><a xlink:href="libccc__naming_8h.html" target="_top" xlink:title=" ">
<polygon fill="white" stroke="black" points="478,-112.5 478,-131.5 565,-131.5 565,-112.5 478,-112.5"/>
<text text-anchor="middle" x="521.5" y="-119.5" font-family="Consolas" font-size="10.00">libccc_naming.h</text>
</a>
</g>
</g>
<!-- Node4&#45;&gt;Node9 -->
<g id="edge11" class="edge">
<title>Node4&#45;&gt;Node9</title>
<path fill="none" stroke="midnightblue" d="M407.63,-224.35C425.75,-216.58 451.41,-203.96 470.5,-188 486.95,-174.25 501.58,-154.39 510.91,-140.25"/>
<polygon fill="midnightblue" stroke="midnightblue" points="514.05,-141.83 516.47,-131.52 508.15,-138.07 514.05,-141.83"/>
</g>
<!-- Node10 -->
<g id="node10" class="node">
<title>Node10</title>
<g id="a_node10"><a xlink:href="bool_8h.html" target="_top" xlink:title=" ">
<polygon fill="white" stroke="black" points="518,-168.5 518,-187.5 589,-187.5 589,-168.5 518,-168.5"/>
<text text-anchor="middle" x="553.5" y="-175.5" font-family="Consolas" font-size="10.00">libccc/bool.h</text>
</a>
</g>
</g>
<!-- Node4&#45;&gt;Node10 -->
<g id="edge13" class="edge">
<title>Node4&#45;&gt;Node10</title>
<path fill="none" stroke="midnightblue" d="M407.03,-224.44C433.53,-215.28 478.74,-200.69 512.02,-190.52"/>
<polygon fill="midnightblue" stroke="midnightblue" points="513.37,-193.77 521.92,-187.52 511.34,-187.07 513.37,-193.77"/>
</g>
<!-- Node11 -->
<g id="node11" class="node">
<title>Node11</title>
<g id="a_node11"><a xlink:href="char_8h.html" target="_top" xlink:title=" ">
<polygon fill="white" stroke="black" points="214,-168.5 214,-187.5 285,-187.5 285,-168.5 214,-168.5"/>
<text text-anchor="middle" x="249.5" y="-175.5" font-family="Consolas" font-size="10.00">libccc/char.h</text>
</a>
</g>
</g>
<!-- Node4&#45;&gt;Node11 -->
<g id="edge15" class="edge">
<title>Node4&#45;&gt;Node11</title>
<path fill="none" stroke="midnightblue" d="M360.48,-225.03C336.2,-216.21 299.83,-201.88 275.31,-191.55"/>
<polygon fill="midnightblue" stroke="midnightblue" points="276.48,-188.25 265.91,-187.54 273.73,-194.69 276.48,-188.25"/>
</g>
<!-- Node14 -->
<g id="node14" class="node">
<title>Node14</title>
<g id="a_node14"><a xlink:href="int_8h.html" target="_top" xlink:title=" ">
<polygon fill="white" stroke="black" points="131.5,-168.5 131.5,-187.5 195.5,-187.5 195.5,-168.5 131.5,-168.5"/>
<text text-anchor="middle" x="163.5" y="-175.5" font-family="Consolas" font-size="10.00">libccc/int.h</text>
</a>
</g>
</g>
<!-- Node4&#45;&gt;Node14 -->
<g id="edge20" class="edge">
<title>Node4&#45;&gt;Node14</title>
<path fill="none" stroke="midnightblue" d="M360.47,-227.92C322.14,-219.3 249.03,-201.63 203.39,-190.06"/>
<polygon fill="midnightblue" stroke="midnightblue" points="204.09,-186.62 193.53,-187.54 202.35,-193.41 204.09,-186.62"/>
</g>
<!-- Node15 -->
<g id="node15" class="node">
<title>Node15</title>
<g id="a_node15"><a xlink:href="fixed_8h.html" target="_top" xlink:title=" ">
<polygon fill="white" stroke="black" points="607.5,-168.5 607.5,-187.5 681.5,-187.5 681.5,-168.5 607.5,-168.5"/>
<text text-anchor="middle" x="644.5" y="-175.5" font-family="Consolas" font-size="10.00">libccc/fixed.h</text>
</a>
</g>
</g>
<!-- Node4&#45;&gt;Node15 -->
<g id="edge23" class="edge">
<title>Node4&#45;&gt;Node15</title>
<path fill="none" stroke="midnightblue" d="M410.72,-226.81C453.97,-217.21 542.47,-198.71 597.39,-187.75"/>
<polygon fill="midnightblue" stroke="midnightblue" points="598.11,-191.18 607.23,-185.8 596.74,-184.31 598.11,-191.18"/>
</g>
<!-- Node16 -->
<g id="node16" class="node">
<title>Node16</title>
<g id="a_node16"><a xlink:href="float_8h.html" target="_top" xlink:title=" ">
<polygon fill="white" stroke="black" points="699.5,-168.5 699.5,-187.5 771.5,-187.5 771.5,-168.5 699.5,-168.5"/>
<text text-anchor="middle" x="735.5" y="-175.5" font-family="Consolas" font-size="10.00">libccc/float.h</text>
</a>
</g>
</g>
<!-- Node4&#45;&gt;Node16 -->
<g id="edge25" class="edge">
<title>Node4&#45;&gt;Node16</title>
<path fill="none" stroke="midnightblue" d="M410.56,-229.04C461.83,-221.76 581.3,-205.4 681.5,-188 683.97,-187.57 686.52,-187.11 689.1,-186.63"/>
<polygon fill="midnightblue" stroke="midnightblue" points="689.96,-190.03 699.14,-184.74 688.66,-183.15 689.96,-190.03"/>
</g>
<!-- Node6 -->
<g id="node6" class="node">
<title>Node6</title>
<g id="a_node6"><a xlink:title=" ">
<polygon fill="white" stroke="#bfbfbf" points="386,-0.5 386,-19.5 445,-19.5 445,-0.5 386,-0.5"/>
<text text-anchor="middle" x="415.5" y="-7.5" font-family="Consolas" font-size="10.00">stdalign.h</text>
</a>
</g>
</g>
<!-- Node5&#45;&gt;Node6 -->
<g id="edge5" class="edge">
<title>Node5&#45;&gt;Node6</title>
<path fill="none" stroke="midnightblue" d="M415.5,-56.08C415.5,-49.01 415.5,-38.86 415.5,-29.99"/>
<polygon fill="midnightblue" stroke="midnightblue" points="419,-29.75 415.5,-19.75 412,-29.75 419,-29.75"/>
</g>
<!-- Node7&#45;&gt;Node5 -->
<g id="edge7" class="edge">
<title>Node7&#45;&gt;Node5</title>
<path fill="none" stroke="midnightblue" d="M387.11,-112.08C391.87,-104.53 398.82,-93.49 404.65,-84.23"/>
<polygon fill="midnightblue" stroke="midnightblue" points="407.62,-86.08 409.99,-75.75 401.7,-82.35 407.62,-86.08"/>
</g>
<!-- Node8&#45;&gt;Node5 -->
<g id="edge9" class="edge">
<title>Node8&#45;&gt;Node5</title>
<path fill="none" stroke="midnightblue" d="M423.63,-168.16C427.65,-155.65 433.76,-132.06 430.5,-112 429.03,-102.96 426.01,-93.28 423.06,-85.22"/>
<polygon fill="midnightblue" stroke="midnightblue" points="426.26,-83.79 419.36,-75.75 419.74,-86.34 426.26,-83.79"/>
</g>
<!-- Node8&#45;&gt;Node7 -->
<g id="edge10" class="edge">
<title>Node8&#45;&gt;Node7</title>
<path fill="none" stroke="midnightblue" d="M414.06,-168.08C408.55,-160.46 400.47,-149.26 393.74,-139.94"/>
<polygon fill="midnightblue" stroke="midnightblue" points="396.51,-137.81 387.82,-131.75 390.84,-141.91 396.51,-137.81"/>
</g>
<!-- Node9&#45;&gt;Node5 -->
<g id="edge12" class="edge">
<title>Node9&#45;&gt;Node5</title>
<path fill="none" stroke="midnightblue" d="M504.47,-112.32C487.47,-103.66 461.12,-90.24 441.51,-80.25"/>
<polygon fill="midnightblue" stroke="midnightblue" points="442.99,-77.08 432.49,-75.65 439.81,-83.31 442.99,-77.08"/>
</g>
<!-- Node10&#45;&gt;Node4 -->
<g id="edge14" class="edge">
<title>Node10&#45;&gt;Node4</title>
<path fill="none" stroke="midnightblue" d="M532,-187.55C503.77,-197.31 454.27,-213.24 420.61,-223.42"/>
<polygon fill="midnightblue" stroke="midnightblue" points="419.29,-220.16 410.71,-226.38 421.3,-226.87 419.29,-220.16"/>
</g>
<!-- Node11&#45;&gt;Node3 -->
<g id="edge16" class="edge">
<title>Node11&#45;&gt;Node3</title>
<path fill="none" stroke="midnightblue" d="M213.67,-169.01C177.07,-160.75 118.37,-147.27 59.22,-132.38"/>
<polygon fill="midnightblue" stroke="midnightblue" points="59.89,-128.94 49.34,-129.88 58.18,-135.72 59.89,-128.94"/>
</g>
<!-- Node11&#45;&gt;Node4 -->
<g id="edge17" class="edge">
<title>Node11&#45;&gt;Node4</title>
<path fill="none" stroke="midnightblue" d="M276.03,-187.52C300.33,-196.39 335.8,-210.38 359.82,-220.5"/>
<polygon fill="midnightblue" stroke="midnightblue" points="358.47,-223.73 369.04,-224.44 361.22,-217.29 358.47,-223.73"/>
</g>
<!-- Node12 -->
<g id="node12" class="node">
<title>Node12</title>
<g id="a_node12"><a xlink:title=" ">
<polygon fill="white" stroke="#bfbfbf" points="67,-112.5 67,-131.5 160,-131.5 160,-112.5 67,-112.5"/>
<text text-anchor="middle" x="113.5" y="-119.5" font-family="Consolas" font-size="10.00">libccc/text/ascii.h</text>
</a>
</g>
</g>
<!-- Node11&#45;&gt;Node12 -->
<g id="edge18" class="edge">
<title>Node11&#45;&gt;Node12</title>
<path fill="none" stroke="midnightblue" d="M227.95,-168.44C205.47,-159.52 170.01,-145.44 144.52,-135.32"/>
<polygon fill="midnightblue" stroke="midnightblue" points="145.53,-131.95 134.95,-131.52 142.95,-138.46 145.53,-131.95"/>
</g>
<!-- Node13 -->
<g id="node13" class="node">
<title>Node13</title>
<g id="a_node13"><a xlink:title=" ">
<polygon fill="white" stroke="#bfbfbf" points="178,-112.5 178,-131.5 285,-131.5 285,-112.5 178,-112.5"/>
<text text-anchor="middle" x="231.5" y="-119.5" font-family="Consolas" font-size="10.00">libccc/text/unicode.h</text>
</a>
</g>
</g>
<!-- Node11&#45;&gt;Node13 -->
<g id="edge19" class="edge">
<title>Node11&#45;&gt;Node13</title>
<path fill="none" stroke="midnightblue" d="M246.53,-168.08C244.12,-160.85 240.64,-150.41 237.63,-141.4"/>
<polygon fill="midnightblue" stroke="midnightblue" points="240.9,-140.13 234.42,-131.75 234.26,-142.34 240.9,-140.13"/>
</g>
<!-- Node14&#45;&gt;Node3 -->
<g id="edge21" class="edge">
<title>Node14&#45;&gt;Node3</title>
<path fill="none" stroke="midnightblue" d="M141.48,-168.44C118.4,-159.48 81.94,-145.31 55.86,-135.18"/>
<polygon fill="midnightblue" stroke="midnightblue" points="57.01,-131.88 46.42,-131.52 54.48,-138.4 57.01,-131.88"/>
</g>
<!-- Node14&#45;&gt;Node4 -->
<g id="edge22" class="edge">
<title>Node14&#45;&gt;Node4</title>
<path fill="none" stroke="midnightblue" d="M195.5,-185.66C236.72,-195.06 307.78,-212.29 350.41,-223.16"/>
<polygon fill="midnightblue" stroke="midnightblue" points="349.79,-226.62 360.35,-225.72 351.53,-219.84 349.79,-226.62"/>
</g>
<!-- Node15&#45;&gt;Node4 -->
<g id="edge24" class="edge">
<title>Node15&#45;&gt;Node4</title>
<path fill="none" stroke="midnightblue" d="M608.78,-187.51C559.06,-198.37 469.85,-216.93 420.5,-226.65"/>
<polygon fill="midnightblue" stroke="midnightblue" points="419.75,-223.23 410.61,-228.58 421.09,-230.1 419.75,-223.23"/>
</g>
<!-- Node16&#45;&gt;Node4 -->
<g id="edge26" class="edge">
<title>Node16&#45;&gt;Node4</title>
<path fill="none" stroke="midnightblue" d="M701.87,-187.58C701.08,-187.72 700.28,-187.86 699.5,-188 599.22,-205.41 479.62,-221.79 421.05,-229.06"/>
<polygon fill="midnightblue" stroke="midnightblue" points="420.35,-225.62 410.85,-230.31 421.2,-232.57 420.35,-225.62"/>
</g>
</g>
</svg>
        <g id="navigator" transform="translate(0 0)" fill="#404254">
                <rect fill="#f2f5e9" fill-opacity="0.5" stroke="#606060" stroke-width=".5" x="0" y="0" width="60" height="60"/>
                <use id="zoomplus" xlink:href="#zoomPlus" x="17" y="9" onmousedown="handleZoom(evt,'in')"/>
                <use id="zoomminus" xlink:href="#zoomMin" x="42" y="9" onmousedown="handleZoom(evt,'out')"/>
                <use id="reset" xlink:href="#resetDef" x="30" y="36" onmousedown="handleReset()"/>
                <g id="arrowUp" xlink:href="#dirArrow" transform="translate(30 24)" onmousedown="handlePan(0,-1)">
                  <use xlink:href="#rim" fill="#404040">
                        <set attributeName="fill" to="#808080" begin="arrowUp.mouseover" end="arrowUp.mouseout"/>
                  </use>
                  <path fill="none" stroke="white" stroke-width="1.5" d="M0,-3.0v7 M-2.5,-0.5L0,-3.0L2.5,-0.5"/>
                </g>
                <g id="arrowRight" xlink:href="#dirArrow" transform="rotate(90) translate(36 -43)" onmousedown="handlePan(1,0)">
                  <use xlink:href="#rim" fill="#404040">
                        <set attributeName="fill" to="#808080" begin="arrowRight.mouseover" end="arrowRight.mouseout"/>
                  </use>
                  <path fill="none" stroke="white" stroke-width="1.5" d="M0,-3.0v7 M-2.5,-0.5L0,-3.0L2.5,-0.5"/>
                </g>
                <g id="arrowDown" xlink:href="#dirArrow" transform="rotate(180) translate(-30 -48)" onmousedown="handlePan(0,1)">
                  <use xlink:href="#rim" fill="#404040">
                        <set attributeName="fill" to="#808080" begin="arrowDown.mouseover" end="arrowDown.mouseout"/>
                  </use>
                  <path fill="none" stroke="white" stroke-width="1.5" d="M0,-3.0v7 M-2.5,-0.5L0,-3.0L2.5,-0.5"/>
                </g>
                <g id="arrowLeft" xlink:href="#dirArrow" transform="rotate(270) translate(-36 17)" onmousedown="handlePan(-1,0)">
                  <use xlink:href="#rim" fill="#404040">
                        <set attributeName="fill" to="#808080" begin="arrowLeft.mouseover" end="arrowLeft.mouseout"/>
                  </use>
                  <path fill="none" stroke="white" stroke-width="1.5" d="M0,-3.0v7 M-2.5,-0.5L0,-3.0L2.5,-0.5"/>
                </g>
        </g>
        <svg viewBox="0 0 15 15" width="100%" height="30px" preserveAspectRatio="xMaxYMin meet">
         <g id="arrow_out" transform="scale(0.3 0.3)">
          <a xlink:href="pointer_8h__incl_org.svg" target="_base">
           <rect id="button" ry="5" rx="5" y="6" x="6" height="38" width="38"
                fill="#f2f5e9" fill-opacity="0.5" stroke="#606060" stroke-width="1.0"/>
           <path id="arrow"
             d="M 11.500037,31.436501 C 11.940474,20.09759 22.043105,11.32322 32.158766,21.979434 L 37.068811,17.246167 C 37.068811,17.246167 37.088388,32 37.088388,32 L 22.160133,31.978069 C 22.160133,31.978069 26.997745,27.140456 26.997745,27.140456 C 18.528582,18.264221 13.291696,25.230495 11.500037,31.436501 z"
             style="fill:#404040;"/>
          </a>
         </g>
        </svg>
</svg>
