<?xml version="1.0" encoding="UTF-8" standalone="no"?>
<!DOCTYPE svg PUBLIC "-//W3C//DTD SVG 1.1//EN"
 "http://www.w3.org/Graphics/SVG/1.1/DTD/svg11.dtd">
<!-- Generated by graphviz version 2.50.0 (20211204.2007)
 -->
<!-- Title: libccc/random/prng.h Pages: 1 -->
<svg width="363pt" height="364pt"
 viewBox="0.00 0.00 362.50 364.00" xmlns="http://www.w3.org/2000/svg" xmlns:xlink="http://www.w3.org/1999/xlink">
<g id="graph0" class="graph" transform="scale(1 1) rotate(0) translate(4 360)">
<title>libccc/random/prng.h</title>
<polygon fill="white" stroke="transparent" points="-4,4 -4,-360 358.5,-360 358.5,4 -4,4"/>
<!-- Node1 -->
<g id="node1" class="node">
<title>Node1</title>
<g id="a_node1"><a xlink:title=" ">
<polygon fill="#bfbfbf" stroke="black" points="121.5,-336.5 121.5,-355.5 228.5,-355.5 228.5,-336.5 121.5,-336.5"/>
<text text-anchor="middle" x="175" y="-343.5" font-family="Consolas" font-size="10.00">libccc/random/prng.h</text>
</a>
</g>
</g>
<!-- Node2 -->
<g id="node2" class="node">
<title>Node2</title>
<g id="a_node2"><a xlink:href="int_8h.html" target="_top" xlink:title=" ">
<polygon fill="white" stroke="black" points="100,-280.5 100,-299.5 164,-299.5 164,-280.5 100,-280.5"/>
<text text-anchor="middle" x="132" y="-287.5" font-family="Consolas" font-size="10.00">libccc/int.h</text>
</a>
</g>
</g>
<!-- Node1&#45;&gt;Node2 -->
<g id="edge1" class="edge">
<title>Node1&#45;&gt;Node2</title>
<path fill="none" stroke="midnightblue" d="M167.9,-336.08C161.76,-328.38 152.73,-317.03 145.26,-307.65"/>
<polygon fill="midnightblue" stroke="midnightblue" points="147.94,-305.39 138.97,-299.75 142.46,-309.75 147.94,-305.39"/>
</g>
<!-- Node10 -->
<g id="node10" class="node">
<title>Node10</title>
<g id="a_node10"><a xlink:href="fixed_8h.html" target="_top" xlink:title=" ">
<polygon fill="white" stroke="black" points="182,-280.5 182,-299.5 256,-299.5 256,-280.5 182,-280.5"/>
<text text-anchor="middle" x="219" y="-287.5" font-family="Consolas" font-size="10.00">libccc/fixed.h</text>
</a>
</g>
</g>
<!-- Node1&#45;&gt;Node10 -->
<g id="edge13" class="edge">
<title>Node1&#45;&gt;Node10</title>
<path fill="none" stroke="midnightblue" d="M182.27,-336.08C188.54,-328.38 197.79,-317.03 205.43,-307.65"/>
<polygon fill="midnightblue" stroke="midnightblue" points="208.27,-309.71 211.87,-299.75 202.84,-305.29 208.27,-309.71"/>
</g>
<!-- Node11 -->
<g id="node11" class="node">
<title>Node11</title>
<g id="a_node11"><a xlink:href="float_8h.html" target="_top" xlink:title=" ">
<polygon fill="white" stroke="black" points="274,-280.5 274,-299.5 346,-299.5 346,-280.5 274,-280.5"/>
<text text-anchor="middle" x="310" y="-287.5" font-family="Consolas" font-size="10.00">libccc/float.h</text>
</a>
</g>
</g>
<!-- Node1&#45;&gt;Node11 -->
<g id="edge15" class="edge">
<title>Node1&#45;&gt;Node11</title>
<path fill="none" stroke="midnightblue" d="M196.39,-336.44C218.71,-327.52 253.9,-313.44 279.21,-303.32"/>
<polygon fill="midnightblue" stroke="midnightblue" points="280.72,-306.48 288.71,-299.52 278.12,-299.98 280.72,-306.48"/>
</g>
<!-- Node12 -->
<g id="node12" class="node">
<title>Node12</title>
<g id="a_node12"><a xlink:href="pointer_8h.html" target="_top" xlink:title=" ">
<polygon fill="white" stroke="black" points="0,-280.5 0,-299.5 82,-299.5 82,-280.5 0,-280.5"/>
<text text-anchor="middle" x="41" y="-287.5" font-family="Consolas" font-size="10.00">libccc/pointer.h</text>
</a>
</g>
</g>
<!-- Node1&#45;&gt;Node12 -->
<g id="edge17" class="edge">
<title>Node1&#45;&gt;Node12</title>
<path fill="none" stroke="midnightblue" d="M153.77,-336.44C131.62,-327.52 96.68,-313.44 71.56,-303.32"/>
<polygon fill="midnightblue" stroke="midnightblue" points="72.72,-300.01 62.13,-299.52 70.1,-306.5 72.72,-300.01"/>
</g>
<!-- Node3 -->
<g id="node3" class="node">
<title>Node3</title>
<g id="a_node3"><a xlink:title=" ">
<polygon fill="white" stroke="#bfbfbf" points="96.5,-224.5 96.5,-243.5 145.5,-243.5 145.5,-224.5 96.5,-224.5"/>
<text text-anchor="middle" x="121" y="-231.5" font-family="Consolas" font-size="10.00">stdint.h</text>
</a>
</g>
</g>
<!-- Node2&#45;&gt;Node3 -->
<g id="edge2" class="edge">
<title>Node2&#45;&gt;Node3</title>
<path fill="none" stroke="midnightblue" d="M130.18,-280.08C128.73,-272.93 126.63,-262.64 124.81,-253.69"/>
<polygon fill="midnightblue" stroke="midnightblue" points="128.21,-252.85 122.78,-243.75 121.35,-254.25 128.21,-252.85"/>
</g>
<!-- Node4 -->
<g id="node4" class="node">
<title>Node4</title>
<g id="a_node4"><a xlink:href="libccc_8h.html" target="_top" xlink:title=" ">
<polygon fill="white" stroke="black" points="179,-224.5 179,-243.5 229,-243.5 229,-224.5 179,-224.5"/>
<text text-anchor="middle" x="204" y="-231.5" font-family="Consolas" font-size="10.00">libccc.h</text>
</a>
</g>
</g>
<!-- Node2&#45;&gt;Node4 -->
<g id="edge3" class="edge">
<title>Node2&#45;&gt;Node4</title>
<path fill="none" stroke="midnightblue" d="M143.57,-280.32C154.42,-272.18 170.88,-259.84 183.88,-250.09"/>
<polygon fill="midnightblue" stroke="midnightblue" points="186.32,-252.63 192.22,-243.83 182.12,-247.03 186.32,-252.63"/>
</g>
<!-- Node5 -->
<g id="node5" class="node">
<title>Node5</title>
<g id="a_node5"><a xlink:href="libccc__define_8h.html" target="_top" xlink:title=" ">
<polygon fill="white" stroke="black" points="164,-56.5 164,-75.5 246,-75.5 246,-56.5 164,-56.5"/>
<text text-anchor="middle" x="205" y="-63.5" font-family="Consolas" font-size="10.00">libccc_define.h</text>
</a>
</g>
</g>
<!-- Node4&#45;&gt;Node5 -->
<g id="edge4" class="edge">
<title>Node4&#45;&gt;Node5</title>
<path fill="none" stroke="midnightblue" d="M190.22,-224.42C160.69,-204.93 96.04,-155.61 122,-112 131.1,-96.72 147.39,-86.31 163.14,-79.39"/>
<polygon fill="midnightblue" stroke="midnightblue" points="164.83,-82.48 172.82,-75.51 162.23,-75.98 164.83,-82.48"/>
</g>
<!-- Node7 -->
<g id="node7" class="node">
<title>Node7</title>
<g id="a_node7"><a xlink:href="libccc__errors_8h.html" target="_top" xlink:title=" ">
<polygon fill="white" stroke="black" points="131,-112.5 131,-131.5 211,-131.5 211,-112.5 131,-112.5"/>
<text text-anchor="middle" x="171" y="-119.5" font-family="Consolas" font-size="10.00">libccc_errors.h</text>
</a>
</g>
</g>
<!-- Node4&#45;&gt;Node7 -->
<g id="edge6" class="edge">
<title>Node4&#45;&gt;Node7</title>
<path fill="none" stroke="midnightblue" d="M200.99,-224.42C197.86,-215.39 192.89,-200.76 189,-188 184.25,-172.42 179.35,-154.59 175.86,-141.55"/>
<polygon fill="midnightblue" stroke="midnightblue" points="179.24,-140.64 173.3,-131.87 172.48,-142.44 179.24,-140.64"/>
</g>
<!-- Node8 -->
<g id="node8" class="node">
<title>Node8</title>
<g id="a_node8"><a xlink:href="libccc__config_8h.html" target="_top" xlink:title=" ">
<polygon fill="white" stroke="black" points="198,-168.5 198,-187.5 280,-187.5 280,-168.5 198,-168.5"/>
<text text-anchor="middle" x="239" y="-175.5" font-family="Consolas" font-size="10.00">libccc_config.h</text>
</a>
</g>
</g>
<!-- Node4&#45;&gt;Node8 -->
<g id="edge8" class="edge">
<title>Node4&#45;&gt;Node8</title>
<path fill="none" stroke="midnightblue" d="M209.78,-224.08C214.67,-216.53 221.83,-205.49 227.83,-196.23"/>
<polygon fill="midnightblue" stroke="midnightblue" points="230.83,-198.05 233.33,-187.75 224.95,-194.24 230.83,-198.05"/>
</g>
<!-- Node9 -->
<g id="node9" class="node">
<title>Node9</title>
<g id="a_node9"><a xlink:href="libccc__naming_8h.html" target="_top" xlink:title=" ">
<polygon fill="white" stroke="black" points="267.5,-112.5 267.5,-131.5 354.5,-131.5 354.5,-112.5 267.5,-112.5"/>
<text text-anchor="middle" x="311" y="-119.5" font-family="Consolas" font-size="10.00">libccc_naming.h</text>
</a>
</g>
</g>
<!-- Node4&#45;&gt;Node9 -->
<g id="edge11" class="edge">
<title>Node4&#45;&gt;Node9</title>
<path fill="none" stroke="midnightblue" d="M229.23,-225.36C248.12,-218.43 273.31,-206.44 289,-188 300.21,-174.83 305.78,-155.69 308.5,-141.59"/>
<polygon fill="midnightblue" stroke="midnightblue" points="311.98,-142 310.13,-131.57 305.07,-140.88 311.98,-142"/>
</g>
<!-- Node6 -->
<g id="node6" class="node">
<title>Node6</title>
<g id="a_node6"><a xlink:title=" ">
<polygon fill="white" stroke="#bfbfbf" points="175.5,-0.5 175.5,-19.5 234.5,-19.5 234.5,-0.5 175.5,-0.5"/>
<text text-anchor="middle" x="205" y="-7.5" font-family="Consolas" font-size="10.00">stdalign.h</text>
</a>
</g>
</g>
<!-- Node5&#45;&gt;Node6 -->
<g id="edge5" class="edge">
<title>Node5&#45;&gt;Node6</title>
<path fill="none" stroke="midnightblue" d="M205,-56.08C205,-49.01 205,-38.86 205,-29.99"/>
<polygon fill="midnightblue" stroke="midnightblue" points="208.5,-29.75 205,-19.75 201.5,-29.75 208.5,-29.75"/>
</g>
<!-- Node7&#45;&gt;Node5 -->
<g id="edge7" class="edge">
<title>Node7&#45;&gt;Node5</title>
<path fill="none" stroke="midnightblue" d="M176.61,-112.08C181.37,-104.53 188.32,-93.49 194.15,-84.23"/>
<polygon fill="midnightblue" stroke="midnightblue" points="197.12,-86.08 199.49,-75.75 191.2,-82.35 197.12,-86.08"/>
</g>
<!-- Node8&#45;&gt;Node5 -->
<g id="edge9" class="edge">
<title>Node8&#45;&gt;Node5</title>
<path fill="none" stroke="midnightblue" d="M236.52,-168.14C232.99,-155.6 226.25,-131.97 220,-112 217.23,-103.15 214,-93.37 211.24,-85.2"/>
<polygon fill="midnightblue" stroke="midnightblue" points="214.51,-83.94 207.97,-75.6 207.88,-86.19 214.51,-83.94"/>
</g>
<!-- Node8&#45;&gt;Node7 -->
<g id="edge10" class="edge">
<title>Node8&#45;&gt;Node7</title>
<path fill="none" stroke="midnightblue" d="M228.07,-168.32C217.83,-160.18 202.28,-147.84 190,-138.09"/>
<polygon fill="midnightblue" stroke="midnightblue" points="192.13,-135.31 182.12,-131.83 187.78,-140.79 192.13,-135.31"/>
</g>
<!-- Node9&#45;&gt;Node5 -->
<g id="edge12" class="edge">
<title>Node9&#45;&gt;Node5</title>
<path fill="none" stroke="midnightblue" d="M293.97,-112.32C276.97,-103.66 250.62,-90.24 231.01,-80.25"/>
<polygon fill="midnightblue" stroke="midnightblue" points="232.49,-77.08 221.99,-75.65 229.31,-83.31 232.49,-77.08"/>
</g>
<!-- Node10&#45;&gt;Node4 -->
<g id="edge14" class="edge">
<title>Node10&#45;&gt;Node4</title>
<path fill="none" stroke="midnightblue" d="M216.52,-280.08C214.51,-272.85 211.61,-262.41 209.11,-253.4"/>
<polygon fill="midnightblue" stroke="midnightblue" points="212.48,-252.45 206.43,-243.75 205.74,-254.32 212.48,-252.45"/>
</g>
<!-- Node11&#45;&gt;Node4 -->
<g id="edge16" class="edge">
<title>Node11&#45;&gt;Node4</title>
<path fill="none" stroke="midnightblue" d="M292.97,-280.32C275.97,-271.66 249.62,-258.24 230.01,-248.25"/>
<polygon fill="midnightblue" stroke="midnightblue" points="231.49,-245.08 220.99,-243.65 228.31,-251.31 231.49,-245.08"/>
</g>
<!-- Node12&#45;&gt;Node3 -->
<g id="edge19" class="edge">
<title>Node12&#45;&gt;Node3</title>
<path fill="none" stroke="midnightblue" d="M53.85,-280.32C66.22,-271.98 85.13,-259.21 99.74,-249.35"/>
<polygon fill="midnightblue" stroke="midnightblue" points="101.85,-252.15 108.18,-243.65 97.93,-246.35 101.85,-252.15"/>
</g>
<!-- Node12&#45;&gt;Node4 -->
<g id="edge20" class="edge">
<title>Node12&#45;&gt;Node4</title>
<path fill="none" stroke="midnightblue" d="M66.83,-280.44C94.41,-271.31 138.29,-256.77 168.97,-246.6"/>
<polygon fill="midnightblue" stroke="midnightblue" points="170.44,-249.81 178.83,-243.34 168.24,-243.16 170.44,-249.81"/>
</g>
<!-- Node13 -->
<g id="node13" class="node">
<title>Node13</title>
<g id="a_node13"><a xlink:title=" ">
<polygon fill="white" stroke="#bfbfbf" points="15,-224.5 15,-243.5 67,-243.5 67,-224.5 15,-224.5"/>
<text text-anchor="middle" x="41" y="-231.5" font-family="Consolas" font-size="10.00">stddef.h</text>
</a>
</g>
</g>
<!-- Node12&#45;&gt;Node13 -->
<g id="edge18" class="edge">
<title>Node12&#45;&gt;Node13</title>
<path fill="none" stroke="midnightblue" d="M41,-280.08C41,-273.01 41,-262.86 41,-253.99"/>
<polygon fill="midnightblue" stroke="midnightblue" points="44.5,-253.75 41,-243.75 37.5,-253.75 44.5,-253.75"/>
</g>
</g>
</svg>
