<?xml version="1.0" encoding="UTF-8" standalone="no"?>
<!DOCTYPE svg PUBLIC "-//W3C//DTD SVG 1.1//EN"
 "http://www.w3.org/Graphics/SVG/1.1/DTD/svg11.dtd">
<!-- Generated by graphviz version 2.49.3 (20211023.0002)
 -->
<!-- Title: hdr/libccc/random/prng.h Pages: 1 -->
<!--zoomable 364 -->
<svg id="main" version="1.1" xmlns="http://www.w3.org/2000/svg" xmlns:xlink="http://www.w3.org/1999/xlink" xml:space="preserve" onload="init(evt)">
<style type="text/css"><![CDATA[
.edge:hover path { stroke: red; }
.edge:hover polygon { stroke: red; fill: red; }
]]></style>
<script type="text/javascript"><![CDATA[
var edges = document.getElementsByTagName('g');
if (edges && edges.length) {
  for (var i=0;i<edges.length;i++) {
    if (edges[i].id.substr(0,4)=='edge') {
      edges[i].setAttribute('class','edge');
    }
  }
}
]]></script>
        <defs>
                <circle id="rim" cx="0" cy="0" r="7"/>
                <circle id="rim2" cx="0" cy="0" r="3.5"/>
                <g id="zoomPlus">
                        <use xlink:href="#rim" fill="#404040">
                                <set attributeName="fill" to="#808080" begin="zoomplus.mouseover" end="zoomplus.mouseout"/>
                        </use>
                        <path d="M-4,0h8M0,-4v8" fill="none" stroke="white" stroke-width="1.5" pointer-events="none"/>
                </g>
                <g id="zoomMin">
                        <use xlink:href="#rim" fill="#404040">
                                <set attributeName="fill" to="#808080" begin="zoomminus.mouseover" end="zoomminus.mouseout"/>
                        </use>
                        <path d="M-4,0h8" fill="none" stroke="white" stroke-width="1.5" pointer-events="none"/>
                </g>
                <g id="dirArrow">
                        <path fill="none" stroke="white" stroke-width="1.5" d="M0,-3.0v7 M-2.5,-0.5L0,-3.0L2.5,-0.5"/>
                </g>
               <g id="resetDef">
                       <use xlink:href="#rim2" fill="#404040">
                               <set attributeName="fill" to="#808080" begin="reset.mouseover" end="reset.mouseout"/>
                       </use>
               </g>
        </defs>

<script type="text/javascript">
var viewWidth = 845;
var viewHeight = 364;
var sectionId = 'dynsection-0';
</script>
<script xlink:href="svgpan.js"/>
<svg id="graph" class="graph">
<g id="viewport">
<title>hdr/libccc/random/prng.h</title>
<polygon fill="white" stroke="transparent" points="-4,4 -4,-360 841,-360 841,4 -4,4"/>
<!-- Node1 -->
<g id="node1" class="node">
<title>Node1</title>
<g id="a_node1"><a xlink:title=" ">
<polygon fill="#bfbfbf" stroke="black" points="488,-336.5 488,-355.5 612,-355.5 612,-336.5 488,-336.5"/>
<text text-anchor="middle" x="550" y="-343.5" font-family="Consolas" font-size="10.00">hdr/libccc/random/prng.h</text>
</a>
</g>
</g>
<!-- Node2 -->
<g id="node2" class="node">
<title>Node2</title>
<g id="a_node2"><a xlink:href="int_8h.html" target="_top" xlink:title=" ">
<polygon fill="white" stroke="black" points="488,-280.5 488,-299.5 552,-299.5 552,-280.5 488,-280.5"/>
<text text-anchor="middle" x="520" y="-287.5" font-family="Consolas" font-size="10.00">libccc/int.h</text>
</a>
</g>
</g>
<!-- Node1&#45;&gt;Node2 -->
<g id="edge1" class="edge">
<title>Node1&#45;&gt;Node2</title>
<path fill="none" stroke="midnightblue" d="M545.05,-336.08C540.9,-328.61 534.85,-317.72 529.73,-308.52"/>
<polygon fill="midnightblue" stroke="midnightblue" points="532.78,-306.79 524.86,-299.75 526.66,-310.19 532.78,-306.79"/>
</g>
<!-- Node14 -->
<g id="node14" class="node">
<title>Node14</title>
<g id="a_node14"><a xlink:href="fixed_8h.html" target="_top" xlink:title=" ">
<polygon fill="white" stroke="black" points="673,-168.5 673,-187.5 747,-187.5 747,-168.5 673,-168.5"/>
<text text-anchor="middle" x="710" y="-175.5" font-family="Consolas" font-size="10.00">libccc/fixed.h</text>
</a>
</g>
</g>
<!-- Node1&#45;&gt;Node14 -->
<g id="edge29" class="edge">
<title>Node1&#45;&gt;Node14</title>
<path fill="none" stroke="midnightblue" d="M558.6,-336.08C584.44,-309.27 661.62,-229.19 694.69,-194.89"/>
<polygon fill="midnightblue" stroke="midnightblue" points="697.32,-197.2 701.74,-187.57 692.28,-192.34 697.32,-197.2"/>
</g>
<!-- Node15 -->
<g id="node15" class="node">
<title>Node15</title>
<g id="a_node15"><a xlink:href="float_8h.html" target="_top" xlink:title=" ">
<polygon fill="white" stroke="black" points="765,-168.5 765,-187.5 837,-187.5 837,-168.5 765,-168.5"/>
<text text-anchor="middle" x="801" y="-175.5" font-family="Consolas" font-size="10.00">libccc/float.h</text>
</a>
</g>
</g>
<!-- Node1&#45;&gt;Node15 -->
<g id="edge30" class="edge">
<title>Node1&#45;&gt;Node15</title>
<path fill="none" stroke="midnightblue" d="M563.14,-336.31C603.97,-309.3 728.93,-226.67 779.46,-193.25"/>
<polygon fill="midnightblue" stroke="midnightblue" points="781.58,-196.04 787.99,-187.61 777.72,-190.2 781.58,-196.04"/>
</g>
<!-- Node16 -->
<g id="node16" class="node">
<title>Node16</title>
<g id="a_node16"><a xlink:href="pointer_8h.html" target="_top" xlink:title=" ">
<polygon fill="white" stroke="black" points="170,-168.5 170,-187.5 252,-187.5 252,-168.5 170,-168.5"/>
<text text-anchor="middle" x="211" y="-175.5" font-family="Consolas" font-size="10.00">libccc/pointer.h</text>
</a>
</g>
</g>
<!-- Node1&#45;&gt;Node16 -->
<g id="edge31" class="edge">
<title>Node1&#45;&gt;Node16</title>
<path fill="none" stroke="midnightblue" d="M532.25,-336.31C476.42,-308.97 304.12,-224.6 237.6,-192.02"/>
<polygon fill="midnightblue" stroke="midnightblue" points="239.09,-188.86 228.57,-187.61 236.01,-195.15 239.09,-188.86"/>
</g>
<!-- Node3 -->
<g id="node3" class="node">
<title>Node3</title>
<g id="a_node3"><a xlink:title=" ">
<polygon fill="white" stroke="#bfbfbf" points="70.5,-112.5 70.5,-131.5 119.5,-131.5 119.5,-112.5 70.5,-112.5"/>
<text text-anchor="middle" x="95" y="-119.5" font-family="Consolas" font-size="10.00">stdint.h</text>
</a>
</g>
</g>
<!-- Node2&#45;&gt;Node3 -->
<g id="edge2" class="edge">
<title>Node2&#45;&gt;Node3</title>
<path fill="none" stroke="midnightblue" d="M487.92,-285.42C422.5,-277.01 270.61,-251.63 161,-188 139.37,-175.45 119.67,-154.16 107.53,-139.39"/>
<polygon fill="midnightblue" stroke="midnightblue" points="110.27,-137.2 101.3,-131.55 104.79,-141.56 110.27,-137.2"/>
</g>
<!-- Node4 -->
<g id="node4" class="node">
<title>Node4</title>
<g id="a_node4"><a xlink:href="libccc_8h.html" target="_top" xlink:title=" ">
<polygon fill="white" stroke="black" points="495,-224.5 495,-243.5 545,-243.5 545,-224.5 495,-224.5"/>
<text text-anchor="middle" x="520" y="-231.5" font-family="Consolas" font-size="10.00">libccc.h</text>
</a>
</g>
</g>
<!-- Node2&#45;&gt;Node4 -->
<g id="edge3" class="edge">
<title>Node2&#45;&gt;Node4</title>
<path fill="none" stroke="midnightblue" d="M514.83,-280.08C513.32,-272.93 512.89,-262.64 513.54,-253.69"/>
<polygon fill="midnightblue" stroke="midnightblue" points="517.02,-254.13 514.87,-243.75 510.08,-253.2 517.02,-254.13"/>
</g>
<!-- Node4&#45;&gt;Node2 -->
<g id="edge20" class="edge">
<title>Node4&#45;&gt;Node2</title>
<path fill="none" stroke="midnightblue" d="M525.13,-243.75C526.66,-250.86 527.1,-261.14 526.47,-270.1"/>
<polygon fill="midnightblue" stroke="midnightblue" points="522.99,-269.71 525.17,-280.08 529.93,-270.62 522.99,-269.71"/>
</g>
<!-- Node5 -->
<g id="node5" class="node">
<title>Node5</title>
<g id="a_node5"><a xlink:href="libccc__define_8h.html" target="_top" xlink:title=" ">
<polygon fill="white" stroke="black" points="451,-56.5 451,-75.5 533,-75.5 533,-56.5 451,-56.5"/>
<text text-anchor="middle" x="492" y="-63.5" font-family="Consolas" font-size="10.00">libccc_define.h</text>
</a>
</g>
</g>
<!-- Node4&#45;&gt;Node5 -->
<g id="edge4" class="edge">
<title>Node4&#45;&gt;Node5</title>
<path fill="none" stroke="midnightblue" d="M494.79,-226.05C474.43,-219.29 446.26,-207.2 428,-188 409.34,-168.38 409.44,-158.53 404,-132 402.21,-123.29 399.36,-119.58 404,-112 413.51,-96.46 430.26,-86.07 446.62,-79.23"/>
<polygon fill="midnightblue" stroke="midnightblue" points="448.05,-82.43 456.15,-75.6 445.56,-75.89 448.05,-82.43"/>
</g>
<!-- Node7 -->
<g id="node7" class="node">
<title>Node7</title>
<g id="a_node7"><a xlink:href="libccc__errors_8h.html" target="_top" xlink:title=" ">
<polygon fill="white" stroke="black" points="556,-112.5 556,-131.5 636,-131.5 636,-112.5 556,-112.5"/>
<text text-anchor="middle" x="596" y="-119.5" font-family="Consolas" font-size="10.00">libccc_errors.h</text>
</a>
</g>
</g>
<!-- Node4&#45;&gt;Node7 -->
<g id="edge6" class="edge">
<title>Node4&#45;&gt;Node7</title>
<path fill="none" stroke="midnightblue" d="M545.15,-230.18C570.42,-225.85 608.12,-215.01 626,-188 636.23,-172.55 624.37,-153.06 612.68,-139.46"/>
<polygon fill="midnightblue" stroke="midnightblue" points="614.99,-136.81 605.63,-131.85 609.86,-141.56 614.99,-136.81"/>
</g>
<!-- Node8 -->
<g id="node8" class="node">
<title>Node8</title>
<g id="a_node8"><a xlink:href="libccc__config_8h.html" target="_top" xlink:title=" ">
<polygon fill="white" stroke="black" points="445,-168.5 445,-187.5 527,-187.5 527,-168.5 445,-168.5"/>
<text text-anchor="middle" x="486" y="-175.5" font-family="Consolas" font-size="10.00">libccc_config.h</text>
</a>
</g>
</g>
<!-- Node4&#45;&gt;Node8 -->
<g id="edge8" class="edge">
<title>Node4&#45;&gt;Node8</title>
<path fill="none" stroke="midnightblue" d="M514.39,-224.08C509.63,-216.53 502.68,-205.49 496.85,-196.23"/>
<polygon fill="midnightblue" stroke="midnightblue" points="499.8,-194.35 491.51,-187.75 493.88,-198.08 499.8,-194.35"/>
</g>
<!-- Node9 -->
<g id="node9" class="node">
<title>Node9</title>
<g id="a_node9"><a xlink:href="libccc__naming_8h.html" target="_top" xlink:title=" ">
<polygon fill="white" stroke="black" points="412.5,-112.5 412.5,-131.5 499.5,-131.5 499.5,-112.5 412.5,-112.5"/>
<text text-anchor="middle" x="456" y="-119.5" font-family="Consolas" font-size="10.00">libccc_naming.h</text>
</a>
</g>
</g>
<!-- Node4&#45;&gt;Node9 -->
<g id="edge11" class="edge">
<title>Node4&#45;&gt;Node9</title>
<path fill="none" stroke="midnightblue" d="M494.88,-227.07C475.04,-220.92 448.66,-209.15 436,-188 427.03,-173.02 435.1,-153.66 443.51,-139.97"/>
<polygon fill="midnightblue" stroke="midnightblue" points="446.51,-141.78 449.19,-131.53 440.7,-137.88 446.51,-141.78"/>
</g>
<!-- Node10 -->
<g id="node10" class="node">
<title>Node10</title>
<g id="a_node10"><a xlink:href="bool_8h.html" target="_top" xlink:title=" ">
<polygon fill="white" stroke="black" points="545.5,-168.5 545.5,-187.5 616.5,-187.5 616.5,-168.5 545.5,-168.5"/>
<text text-anchor="middle" x="581" y="-175.5" font-family="Consolas" font-size="10.00">libccc/bool.h</text>
</a>
</g>
</g>
<!-- Node4&#45;&gt;Node10 -->
<g id="edge13" class="edge">
<title>Node4&#45;&gt;Node10</title>
<path fill="none" stroke="midnightblue" d="M524.91,-224.08C532.42,-215.9 545.97,-203.63 557.99,-193.95"/>
<polygon fill="midnightblue" stroke="midnightblue" points="560.23,-196.65 565.98,-187.75 555.94,-191.12 560.23,-196.65"/>
</g>
<!-- Node11 -->
<g id="node11" class="node">
<title>Node11</title>
<g id="a_node11"><a xlink:href="char_8h.html" target="_top" xlink:title=" ">
<polygon fill="white" stroke="black" points="270.5,-168.5 270.5,-187.5 341.5,-187.5 341.5,-168.5 270.5,-168.5"/>
<text text-anchor="middle" x="306" y="-175.5" font-family="Consolas" font-size="10.00">libccc/char.h</text>
</a>
</g>
</g>
<!-- Node4&#45;&gt;Node11 -->
<g id="edge15" class="edge">
<title>Node4&#45;&gt;Node11</title>
<path fill="none" stroke="midnightblue" d="M494.88,-227.72C457.7,-219.06 388.15,-201.62 344.54,-190.13"/>
<polygon fill="midnightblue" stroke="midnightblue" points="345.41,-186.74 334.85,-187.56 343.62,-193.51 345.41,-186.74"/>
</g>
<!-- Node4&#45;&gt;Node14 -->
<g id="edge21" class="edge">
<title>Node4&#45;&gt;Node14</title>
<path fill="none" stroke="midnightblue" d="M545.02,-224.44C575.64,-215.16 627.73,-200.31 665.27,-190.13"/>
<polygon fill="midnightblue" stroke="midnightblue" points="666.21,-193.5 674.95,-187.52 664.39,-186.74 666.21,-193.5"/>
</g>
<!-- Node4&#45;&gt;Node15 -->
<g id="edge23" class="edge">
<title>Node4&#45;&gt;Node15</title>
<path fill="none" stroke="midnightblue" d="M545.05,-227.19C587.06,-218.7 673.52,-202.35 747,-188 749.46,-187.52 752,-187.02 754.58,-186.51"/>
<polygon fill="midnightblue" stroke="midnightblue" points="755.46,-189.91 764.6,-184.56 754.12,-183.04 755.46,-189.91"/>
</g>
<!-- Node4&#45;&gt;Node16 -->
<g id="edge25" class="edge">
<title>Node4&#45;&gt;Node16</title>
<path fill="none" stroke="midnightblue" d="M494.73,-229.46C448.71,-222.15 349,-204.83 260.25,-189.27"/>
<polygon fill="midnightblue" stroke="midnightblue" points="260.77,-185.81 250.32,-187.53 259.56,-192.7 260.77,-185.81"/>
</g>
<!-- Node6 -->
<g id="node6" class="node">
<title>Node6</title>
<g id="a_node6"><a xlink:title=" ">
<polygon fill="white" stroke="#bfbfbf" points="462.5,-0.5 462.5,-19.5 521.5,-19.5 521.5,-0.5 462.5,-0.5"/>
<text text-anchor="middle" x="492" y="-7.5" font-family="Consolas" font-size="10.00">stdalign.h</text>
</a>
</g>
</g>
<!-- Node5&#45;&gt;Node6 -->
<g id="edge5" class="edge">
<title>Node5&#45;&gt;Node6</title>
<path fill="none" stroke="midnightblue" d="M492,-56.08C492,-49.01 492,-38.86 492,-29.99"/>
<polygon fill="midnightblue" stroke="midnightblue" points="495.5,-29.75 492,-19.75 488.5,-29.75 495.5,-29.75"/>
</g>
<!-- Node7&#45;&gt;Node5 -->
<g id="edge7" class="edge">
<title>Node7&#45;&gt;Node5</title>
<path fill="none" stroke="midnightblue" d="M579.29,-112.32C562.69,-103.7 537,-90.36 517.78,-80.39"/>
<polygon fill="midnightblue" stroke="midnightblue" points="519.16,-77.16 508.67,-75.65 515.93,-83.37 519.16,-77.16"/>
</g>
<!-- Node8&#45;&gt;Node5 -->
<g id="edge9" class="edge">
<title>Node8&#45;&gt;Node5</title>
<path fill="none" stroke="midnightblue" d="M492.1,-168.19C497.75,-159.46 505.76,-145.48 509,-132 512.83,-116.07 507.34,-98.06 501.61,-85.04"/>
<polygon fill="midnightblue" stroke="midnightblue" points="504.64,-83.27 497.13,-75.8 498.34,-86.33 504.64,-83.27"/>
</g>
<!-- Node8&#45;&gt;Node7 -->
<g id="edge10" class="edge">
<title>Node8&#45;&gt;Node7</title>
<path fill="none" stroke="midnightblue" d="M503.67,-168.32C521.39,-159.62 548.9,-146.12 569.29,-136.11"/>
<polygon fill="midnightblue" stroke="midnightblue" points="570.94,-139.2 578.37,-131.65 567.85,-132.92 570.94,-139.2"/>
</g>
<!-- Node9&#45;&gt;Node5 -->
<g id="edge12" class="edge">
<title>Node9&#45;&gt;Node5</title>
<path fill="none" stroke="midnightblue" d="M461.94,-112.08C466.98,-104.53 474.34,-93.49 480.51,-84.23"/>
<polygon fill="midnightblue" stroke="midnightblue" points="483.53,-86.01 486.17,-75.75 477.71,-82.13 483.53,-86.01"/>
</g>
<!-- Node10&#45;&gt;Node4 -->
<g id="edge14" class="edge">
<title>Node10&#45;&gt;Node4</title>
<path fill="none" stroke="midnightblue" d="M576.17,-187.83C568.66,-196.03 555.02,-208.38 542.94,-218.1"/>
<polygon fill="midnightblue" stroke="midnightblue" points="540.67,-215.43 534.92,-224.32 544.96,-220.96 540.67,-215.43"/>
</g>
<!-- Node11&#45;&gt;Node3 -->
<g id="edge16" class="edge">
<title>Node11&#45;&gt;Node3</title>
<path fill="none" stroke="midnightblue" d="M272.04,-168.47C238.34,-159.98 184.96,-146.48 129.2,-132.03"/>
<polygon fill="midnightblue" stroke="midnightblue" points="130.07,-128.64 119.51,-129.52 128.31,-135.42 130.07,-128.64"/>
</g>
<!-- Node11&#45;&gt;Node4 -->
<g id="edge17" class="edge">
<title>Node11&#45;&gt;Node4</title>
<path fill="none" stroke="midnightblue" d="M341.65,-186.76C381.48,-196.24 445.31,-212.3 484.91,-222.78"/>
<polygon fill="midnightblue" stroke="midnightblue" points="484.1,-226.18 494.67,-225.38 485.9,-219.42 484.1,-226.18"/>
</g>
<!-- Node12 -->
<g id="node12" class="node">
<title>Node12</title>
<g id="a_node12"><a xlink:title=" ">
<polygon fill="white" stroke="#bfbfbf" points="137.5,-112.5 137.5,-131.5 230.5,-131.5 230.5,-112.5 137.5,-112.5"/>
<text text-anchor="middle" x="184" y="-119.5" font-family="Consolas" font-size="10.00">libccc/text/ascii.h</text>
</a>
</g>
</g>
<!-- Node11&#45;&gt;Node12 -->
<g id="edge18" class="edge">
<title>Node11&#45;&gt;Node12</title>
<path fill="none" stroke="midnightblue" d="M286.67,-168.44C266.68,-159.6 235.26,-145.69 212.44,-135.59"/>
<polygon fill="midnightblue" stroke="midnightblue" points="213.8,-132.36 203.24,-131.52 210.97,-138.76 213.8,-132.36"/>
</g>
<!-- Node13 -->
<g id="node13" class="node">
<title>Node13</title>
<g id="a_node13"><a xlink:title=" ">
<polygon fill="white" stroke="#bfbfbf" points="248.5,-112.5 248.5,-131.5 355.5,-131.5 355.5,-112.5 248.5,-112.5"/>
<text text-anchor="middle" x="302" y="-119.5" font-family="Consolas" font-size="10.00">libccc/text/unicode.h</text>
</a>
</g>
</g>
<!-- Node11&#45;&gt;Node13 -->
<g id="edge19" class="edge">
<title>Node11&#45;&gt;Node13</title>
<path fill="none" stroke="midnightblue" d="M305.34,-168.08C304.82,-161.01 304.06,-150.86 303.41,-141.99"/>
<polygon fill="midnightblue" stroke="midnightblue" points="306.88,-141.47 302.65,-131.75 299.9,-141.98 306.88,-141.47"/>
</g>
<!-- Node14&#45;&gt;Node4 -->
<g id="edge22" class="edge">
<title>Node14&#45;&gt;Node4</title>
<path fill="none" stroke="midnightblue" d="M685.07,-187.53C651.76,-197.63 592.93,-214.35 555.15,-224.45"/>
<polygon fill="midnightblue" stroke="midnightblue" points="553.87,-221.17 545.1,-227.12 555.66,-227.94 553.87,-221.17"/>
</g>
<!-- Node15&#45;&gt;Node4 -->
<g id="edge24" class="edge">
<title>Node15&#45;&gt;Node4</title>
<path fill="none" stroke="midnightblue" d="M767.37,-187.54C766.57,-187.69 765.78,-187.85 765,-188 690.63,-202.53 602.96,-219.1 555.11,-227.5"/>
<polygon fill="midnightblue" stroke="midnightblue" points="554.49,-224.05 545.24,-229.21 555.69,-230.95 554.49,-224.05"/>
</g>
<!-- Node16&#45;&gt;Node3 -->
<g id="edge27" class="edge">
<title>Node16&#45;&gt;Node3</title>
<path fill="none" stroke="midnightblue" d="M192.62,-168.44C173.78,-159.68 144.27,-145.94 122.62,-135.86"/>
<polygon fill="midnightblue" stroke="midnightblue" points="123.84,-132.56 113.29,-131.52 120.88,-138.91 123.84,-132.56"/>
</g>
<!-- Node16&#45;&gt;Node4 -->
<g id="edge28" class="edge">
<title>Node16&#45;&gt;Node4</title>
<path fill="none" stroke="midnightblue" d="M252.2,-184.72C258.56,-185.81 264.98,-186.94 271,-188 347.35,-201.4 436.44,-216.91 484.77,-225.78"/>
<polygon fill="midnightblue" stroke="midnightblue" points="484.26,-229.24 494.73,-227.62 485.53,-222.36 484.26,-229.24"/>
</g>
<!-- Node17 -->
<g id="node17" class="node">
<title>Node17</title>
<g id="a_node17"><a xlink:title=" ">
<polygon fill="white" stroke="#bfbfbf" points="0,-112.5 0,-131.5 52,-131.5 52,-112.5 0,-112.5"/>
<text text-anchor="middle" x="26" y="-119.5" font-family="Consolas" font-size="10.00">stddef.h</text>
</a>
</g>
</g>
<!-- Node16&#45;&gt;Node17 -->
<g id="edge26" class="edge">
<title>Node16&#45;&gt;Node17</title>
<path fill="none" stroke="midnightblue" d="M181.69,-168.44C149.23,-158.97 96.89,-143.69 61.98,-133.5"/>
<polygon fill="midnightblue" stroke="midnightblue" points="62.77,-130.09 52.19,-130.64 60.8,-136.81 62.77,-130.09"/>
</g>
</g>
</svg>
        <g id="navigator" transform="translate(0 0)" fill="#404254">
                <rect fill="#f2f5e9" fill-opacity="0.5" stroke="#606060" stroke-width=".5" x="0" y="0" width="60" height="60"/>
                <use id="zoomplus" xlink:href="#zoomPlus" x="17" y="9" onmousedown="handleZoom(evt,'in')"/>
                <use id="zoomminus" xlink:href="#zoomMin" x="42" y="9" onmousedown="handleZoom(evt,'out')"/>
                <use id="reset" xlink:href="#resetDef" x="30" y="36" onmousedown="handleReset()"/>
                <g id="arrowUp" xlink:href="#dirArrow" transform="translate(30 24)" onmousedown="handlePan(0,-1)">
                  <use xlink:href="#rim" fill="#404040">
                        <set attributeName="fill" to="#808080" begin="arrowUp.mouseover" end="arrowUp.mouseout"/>
                  </use>
                  <path fill="none" stroke="white" stroke-width="1.5" d="M0,-3.0v7 M-2.5,-0.5L0,-3.0L2.5,-0.5"/>
                </g>
                <g id="arrowRight" xlink:href="#dirArrow" transform="rotate(90) translate(36 -43)" onmousedown="handlePan(1,0)">
                  <use xlink:href="#rim" fill="#404040">
                        <set attributeName="fill" to="#808080" begin="arrowRight.mouseover" end="arrowRight.mouseout"/>
                  </use>
                  <path fill="none" stroke="white" stroke-width="1.5" d="M0,-3.0v7 M-2.5,-0.5L0,-3.0L2.5,-0.5"/>
                </g>
                <g id="arrowDown" xlink:href="#dirArrow" transform="rotate(180) translate(-30 -48)" onmousedown="handlePan(0,1)">
                  <use xlink:href="#rim" fill="#404040">
                        <set attributeName="fill" to="#808080" begin="arrowDown.mouseover" end="arrowDown.mouseout"/>
                  </use>
                  <path fill="none" stroke="white" stroke-width="1.5" d="M0,-3.0v7 M-2.5,-0.5L0,-3.0L2.5,-0.5"/>
                </g>
                <g id="arrowLeft" xlink:href="#dirArrow" transform="rotate(270) translate(-36 17)" onmousedown="handlePan(-1,0)">
                  <use xlink:href="#rim" fill="#404040">
                        <set attributeName="fill" to="#808080" begin="arrowLeft.mouseover" end="arrowLeft.mouseout"/>
                  </use>
                  <path fill="none" stroke="white" stroke-width="1.5" d="M0,-3.0v7 M-2.5,-0.5L0,-3.0L2.5,-0.5"/>
                </g>
        </g>
        <svg viewBox="0 0 15 15" width="100%" height="30px" preserveAspectRatio="xMaxYMin meet">
         <g id="arrow_out" transform="scale(0.3 0.3)">
          <a xlink:href="prng_8h__incl_org.svg" target="_base">
           <rect id="button" ry="5" rx="5" y="6" x="6" height="38" width="38"
                fill="#f2f5e9" fill-opacity="0.5" stroke="#606060" stroke-width="1.0"/>
           <path id="arrow"
             d="M 11.500037,31.436501 C 11.940474,20.09759 22.043105,11.32322 32.158766,21.979434 L 37.068811,17.246167 C 37.068811,17.246167 37.088388,32 37.088388,32 L 22.160133,31.978069 C 22.160133,31.978069 26.997745,27.140456 26.997745,27.140456 C 18.528582,18.264221 13.291696,25.230495 11.500037,31.436501 z"
             style="fill:#404040;"/>
          </a>
         </g>
        </svg>
</svg>
