<?xml version="1.0" encoding="UTF-8" standalone="no"?>
<!DOCTYPE svg PUBLIC "-//W3C//DTD SVG 1.1//EN"
 "http://www.w3.org/Graphics/SVG/1.1/DTD/svg11.dtd">
<!-- Generated by graphviz version 2.50.0 (20211204.2007)
 -->
<!-- Title: libccc/sys/program.h Pages: 1 -->
<svg width="250pt" height="308pt"
 viewBox="0.00 0.00 249.50 308.00" xmlns="http://www.w3.org/2000/svg" xmlns:xlink="http://www.w3.org/1999/xlink">
<g id="graph0" class="graph" transform="scale(1 1) rotate(0) translate(4 304)">
<title>libccc/sys/program.h</title>
<polygon fill="white" stroke="transparent" points="-4,4 -4,-304 245.5,-304 245.5,4 -4,4"/>
<!-- Node1 -->
<g id="node1" class="node">
<title>Node1</title>
<g id="a_node1"><a xlink:title=" ">
<polygon fill="#bfbfbf" stroke="black" points="3.5,-280.5 3.5,-299.5 110.5,-299.5 110.5,-280.5 3.5,-280.5"/>
<text text-anchor="middle" x="57" y="-287.5" font-family="Consolas" font-size="10.00">libccc/sys/program.h</text>
</a>
</g>
</g>
<!-- Node2 -->
<g id="node2" class="node">
<title>Node2</title>
<g id="a_node2"><a xlink:title=" ">
<polygon fill="white" stroke="#bfbfbf" points="0,-224.5 0,-243.5 48,-243.5 48,-224.5 0,-224.5"/>
<text text-anchor="middle" x="24" y="-231.5" font-family="Consolas" font-size="10.00">stdlib.h</text>
</a>
</g>
</g>
<!-- Node1&#45;&gt;Node2 -->
<g id="edge1" class="edge">
<title>Node1&#45;&gt;Node2</title>
<path fill="none" stroke="midnightblue" d="M51.55,-280.08C46.99,-272.61 40.33,-261.72 34.71,-252.52"/>
<polygon fill="midnightblue" stroke="midnightblue" points="37.55,-250.46 29.35,-243.75 31.58,-254.11 37.55,-250.46"/>
</g>
<!-- Node3 -->
<g id="node3" class="node">
<title>Node3</title>
<g id="a_node3"><a xlink:href="libccc_8h.html" target="_top" xlink:title=" ">
<polygon fill="white" stroke="black" points="66,-224.5 66,-243.5 116,-243.5 116,-224.5 66,-224.5"/>
<text text-anchor="middle" x="91" y="-231.5" font-family="Consolas" font-size="10.00">libccc.h</text>
</a>
</g>
</g>
<!-- Node1&#45;&gt;Node3 -->
<g id="edge2" class="edge">
<title>Node1&#45;&gt;Node3</title>
<path fill="none" stroke="midnightblue" d="M62.61,-280.08C67.37,-272.53 74.32,-261.49 80.15,-252.23"/>
<polygon fill="midnightblue" stroke="midnightblue" points="83.12,-254.08 85.49,-243.75 77.2,-250.35 83.12,-254.08"/>
</g>
<!-- Node4 -->
<g id="node4" class="node">
<title>Node4</title>
<g id="a_node4"><a xlink:href="libccc__define_8h.html" target="_top" xlink:title=" ">
<polygon fill="white" stroke="black" points="51,-56.5 51,-75.5 133,-75.5 133,-56.5 51,-56.5"/>
<text text-anchor="middle" x="92" y="-63.5" font-family="Consolas" font-size="10.00">libccc_define.h</text>
</a>
</g>
</g>
<!-- Node3&#45;&gt;Node4 -->
<g id="edge3" class="edge">
<title>Node3&#45;&gt;Node4</title>
<path fill="none" stroke="midnightblue" d="M77.22,-224.42C47.69,-204.93 -16.96,-155.61 9,-112 18.1,-96.72 34.39,-86.31 50.14,-79.39"/>
<polygon fill="midnightblue" stroke="midnightblue" points="51.83,-82.48 59.82,-75.51 49.23,-75.98 51.83,-82.48"/>
</g>
<!-- Node6 -->
<g id="node6" class="node">
<title>Node6</title>
<g id="a_node6"><a xlink:href="libccc__errors_8h.html" target="_top" xlink:title=" ">
<polygon fill="white" stroke="black" points="18,-112.5 18,-131.5 98,-131.5 98,-112.5 18,-112.5"/>
<text text-anchor="middle" x="58" y="-119.5" font-family="Consolas" font-size="10.00">libccc_errors.h</text>
</a>
</g>
</g>
<!-- Node3&#45;&gt;Node6 -->
<g id="edge5" class="edge">
<title>Node3&#45;&gt;Node6</title>
<path fill="none" stroke="midnightblue" d="M87.99,-224.42C84.86,-215.39 79.89,-200.76 76,-188 71.25,-172.42 66.35,-154.59 62.86,-141.55"/>
<polygon fill="midnightblue" stroke="midnightblue" points="66.24,-140.64 60.3,-131.87 59.48,-142.44 66.24,-140.64"/>
</g>
<!-- Node7 -->
<g id="node7" class="node">
<title>Node7</title>
<g id="a_node7"><a xlink:href="libccc__config_8h.html" target="_top" xlink:title=" ">
<polygon fill="white" stroke="black" points="85,-168.5 85,-187.5 167,-187.5 167,-168.5 85,-168.5"/>
<text text-anchor="middle" x="126" y="-175.5" font-family="Consolas" font-size="10.00">libccc_config.h</text>
</a>
</g>
</g>
<!-- Node3&#45;&gt;Node7 -->
<g id="edge7" class="edge">
<title>Node3&#45;&gt;Node7</title>
<path fill="none" stroke="midnightblue" d="M96.78,-224.08C101.67,-216.53 108.83,-205.49 114.83,-196.23"/>
<polygon fill="midnightblue" stroke="midnightblue" points="117.83,-198.05 120.33,-187.75 111.95,-194.24 117.83,-198.05"/>
</g>
<!-- Node8 -->
<g id="node8" class="node">
<title>Node8</title>
<g id="a_node8"><a xlink:href="libccc__naming_8h.html" target="_top" xlink:title=" ">
<polygon fill="white" stroke="black" points="154.5,-112.5 154.5,-131.5 241.5,-131.5 241.5,-112.5 154.5,-112.5"/>
<text text-anchor="middle" x="198" y="-119.5" font-family="Consolas" font-size="10.00">libccc_naming.h</text>
</a>
</g>
</g>
<!-- Node3&#45;&gt;Node8 -->
<g id="edge10" class="edge">
<title>Node3&#45;&gt;Node8</title>
<path fill="none" stroke="midnightblue" d="M116.23,-225.36C135.12,-218.43 160.31,-206.44 176,-188 187.21,-174.83 192.78,-155.69 195.5,-141.59"/>
<polygon fill="midnightblue" stroke="midnightblue" points="198.98,-142 197.13,-131.57 192.07,-140.88 198.98,-142"/>
</g>
<!-- Node5 -->
<g id="node5" class="node">
<title>Node5</title>
<g id="a_node5"><a xlink:title=" ">
<polygon fill="white" stroke="#bfbfbf" points="62.5,-0.5 62.5,-19.5 121.5,-19.5 121.5,-0.5 62.5,-0.5"/>
<text text-anchor="middle" x="92" y="-7.5" font-family="Consolas" font-size="10.00">stdalign.h</text>
</a>
</g>
</g>
<!-- Node4&#45;&gt;Node5 -->
<g id="edge4" class="edge">
<title>Node4&#45;&gt;Node5</title>
<path fill="none" stroke="midnightblue" d="M92,-56.08C92,-49.01 92,-38.86 92,-29.99"/>
<polygon fill="midnightblue" stroke="midnightblue" points="95.5,-29.75 92,-19.75 88.5,-29.75 95.5,-29.75"/>
</g>
<!-- Node6&#45;&gt;Node4 -->
<g id="edge6" class="edge">
<title>Node6&#45;&gt;Node4</title>
<path fill="none" stroke="midnightblue" d="M63.61,-112.08C68.37,-104.53 75.32,-93.49 81.15,-84.23"/>
<polygon fill="midnightblue" stroke="midnightblue" points="84.12,-86.08 86.49,-75.75 78.2,-82.35 84.12,-86.08"/>
</g>
<!-- Node7&#45;&gt;Node4 -->
<g id="edge8" class="edge">
<title>Node7&#45;&gt;Node4</title>
<path fill="none" stroke="midnightblue" d="M123.52,-168.14C119.99,-155.6 113.25,-131.97 107,-112 104.23,-103.15 101,-93.37 98.24,-85.2"/>
<polygon fill="midnightblue" stroke="midnightblue" points="101.51,-83.94 94.97,-75.6 94.88,-86.19 101.51,-83.94"/>
</g>
<!-- Node7&#45;&gt;Node6 -->
<g id="edge9" class="edge">
<title>Node7&#45;&gt;Node6</title>
<path fill="none" stroke="midnightblue" d="M115.07,-168.32C104.83,-160.18 89.28,-147.84 77,-138.09"/>
<polygon fill="midnightblue" stroke="midnightblue" points="79.13,-135.31 69.12,-131.83 74.78,-140.79 79.13,-135.31"/>
</g>
<!-- Node8&#45;&gt;Node4 -->
<g id="edge11" class="edge">
<title>Node8&#45;&gt;Node4</title>
<path fill="none" stroke="midnightblue" d="M180.97,-112.32C163.97,-103.66 137.62,-90.24 118.01,-80.25"/>
<polygon fill="midnightblue" stroke="midnightblue" points="119.49,-77.08 108.99,-75.65 116.31,-83.31 119.49,-77.08"/>
</g>
</g>
</svg>
