<?xml version="1.0" encoding="UTF-8" standalone="no"?>
<!DOCTYPE svg PUBLIC "-//W3C//DTD SVG 1.1//EN"
 "http://www.w3.org/Graphics/SVG/1.1/DTD/svg11.dtd">
<!-- Generated by graphviz version 2.43.0 (0)
 -->
<!-- Title: libccc/sys/program.h Pages: 1 -->
<svg width="276pt" height="308pt"
 viewBox="0.00 0.00 276.00 308.00" xmlns="http://www.w3.org/2000/svg" xmlns:xlink="http://www.w3.org/1999/xlink">
<g id="graph0" class="graph" transform="scale(1 1) rotate(0) translate(4 304)">
<title>libccc/sys/program.h</title>
<polygon fill="white" stroke="transparent" points="-4,4 -4,-304 272,-304 272,4 -4,4"/>
<!-- Node1 -->
<g id="node1" class="node">
<title>Node1</title>
<g id="a_node1"><a xlink:title=" ">
<polygon fill="#bfbfbf" stroke="black" points="6.5,-280.5 6.5,-299.5 128.5,-299.5 128.5,-280.5 6.5,-280.5"/>
<text text-anchor="middle" x="67.5" y="-287.5" font-family="Consolas" font-size="10.00">libccc/sys/program.h</text>
</a>
</g>
</g>
<!-- Node2 -->
<g id="node2" class="node">
<title>Node2</title>
<g id="a_node2"><a xlink:title=" ">
<polygon fill="white" stroke="#bfbfbf" points="0,-224.5 0,-243.5 59,-243.5 59,-224.5 0,-224.5"/>
<text text-anchor="middle" x="29.5" y="-231.5" font-family="Consolas" font-size="10.00">stdlib.h</text>
</a>
</g>
</g>
<!-- Node1&#45;&gt;Node2 -->
<g id="edge1" class="edge">
<title>Node1&#45;&gt;Node2</title>
<path fill="none" stroke="midnightblue" d="M61.23,-280.08C55.86,-272.46 47.98,-261.26 41.42,-251.94"/>
<polygon fill="midnightblue" stroke="midnightblue" points="44.28,-249.91 35.66,-243.75 38.55,-253.94 44.28,-249.91"/>
</g>
<!-- Node3 -->
<g id="node3" class="node">
<title>Node3</title>
<g id="a_node3"><a xlink:href="libccc_8h.html" target="_top" xlink:title=" ">
<polygon fill="white" stroke="black" points="77,-224.5 77,-243.5 136,-243.5 136,-224.5 77,-224.5"/>
<text text-anchor="middle" x="106.5" y="-231.5" font-family="Consolas" font-size="10.00">libccc.h</text>
</a>
</g>
</g>
<!-- Node1&#45;&gt;Node3 -->
<g id="edge2" class="edge">
<title>Node1&#45;&gt;Node3</title>
<path fill="none" stroke="midnightblue" d="M73.94,-280.08C79.45,-272.46 87.53,-261.26 94.26,-251.94"/>
<polygon fill="midnightblue" stroke="midnightblue" points="97.16,-253.91 100.18,-243.75 91.49,-249.81 97.16,-253.91"/>
</g>
<!-- Node4 -->
<g id="node4" class="node">
<title>Node4</title>
<g id="a_node4"><a xlink:href="libccc__define_8h.html" target="_top" xlink:title=" ">
<polygon fill="white" stroke="black" points="59,-56.5 59,-75.5 154,-75.5 154,-56.5 59,-56.5"/>
<text text-anchor="middle" x="106.5" y="-63.5" font-family="Consolas" font-size="10.00">libccc_define.h</text>
</a>
</g>
</g>
<!-- Node3&#45;&gt;Node4 -->
<g id="edge3" class="edge">
<title>Node3&#45;&gt;Node4</title>
<path fill="none" stroke="midnightblue" d="M90.5,-224.5C56.62,-205.36 -16.99,-157.02 11.5,-112 21.55,-96.13 38.87,-85.74 56,-79"/>
<polygon fill="midnightblue" stroke="midnightblue" points="57.21,-82.28 65.45,-75.62 54.85,-75.69 57.21,-82.28"/>
</g>
<!-- Node6 -->
<g id="node6" class="node">
<title>Node6</title>
<g id="a_node6"><a xlink:href="libccc__errors_8h.html" target="_top" xlink:title=" ">
<polygon fill="white" stroke="black" points="21,-112.5 21,-131.5 116,-131.5 116,-112.5 21,-112.5"/>
<text text-anchor="middle" x="68.5" y="-119.5" font-family="Consolas" font-size="10.00">libccc_errors.h</text>
</a>
</g>
</g>
<!-- Node3&#45;&gt;Node6 -->
<g id="edge5" class="edge">
<title>Node3&#45;&gt;Node6</title>
<path fill="none" stroke="midnightblue" d="M102.84,-224.45C99.04,-215.46 93.04,-200.85 88.5,-188 83.03,-172.52 77.6,-154.68 73.78,-141.61"/>
<polygon fill="midnightblue" stroke="midnightblue" points="77.12,-140.55 70.99,-131.91 70.4,-142.48 77.12,-140.55"/>
</g>
<!-- Node7 -->
<g id="node7" class="node">
<title>Node7</title>
<g id="a_node7"><a xlink:href="libccc__config_8h.html" target="_top" xlink:title=" ">
<polygon fill="white" stroke="black" points="97,-168.5 97,-187.5 192,-187.5 192,-168.5 97,-168.5"/>
<text text-anchor="middle" x="144.5" y="-175.5" font-family="Consolas" font-size="10.00">libccc_config.h</text>
</a>
</g>
</g>
<!-- Node3&#45;&gt;Node7 -->
<g id="edge7" class="edge">
<title>Node3&#45;&gt;Node7</title>
<path fill="none" stroke="midnightblue" d="M112.77,-224.08C118.14,-216.46 126.02,-205.26 132.58,-195.94"/>
<polygon fill="midnightblue" stroke="midnightblue" points="135.45,-197.94 138.34,-187.75 129.72,-193.91 135.45,-197.94"/>
</g>
<!-- Node8 -->
<g id="node8" class="node">
<title>Node8</title>
<g id="a_node8"><a xlink:href="libccc__naming_8h.html" target="_top" xlink:title=" ">
<polygon fill="white" stroke="black" points="173,-112.5 173,-131.5 268,-131.5 268,-112.5 173,-112.5"/>
<text text-anchor="middle" x="220.5" y="-119.5" font-family="Consolas" font-size="10.00">libccc_naming.h</text>
</a>
</g>
</g>
<!-- Node3&#45;&gt;Node8 -->
<g id="edge10" class="edge">
<title>Node3&#45;&gt;Node8</title>
<path fill="none" stroke="midnightblue" d="M136.23,-225.9C157.29,-219.4 184.68,-207.71 201.5,-188 212.58,-175.02 217.2,-155.85 219.13,-141.69"/>
<polygon fill="midnightblue" stroke="midnightblue" points="222.62,-141.93 220.17,-131.63 215.66,-141.22 222.62,-141.93"/>
</g>
<!-- Node5 -->
<g id="node5" class="node">
<title>Node5</title>
<g id="a_node5"><a xlink:title=" ">
<polygon fill="white" stroke="#bfbfbf" points="72,-0.5 72,-19.5 141,-19.5 141,-0.5 72,-0.5"/>
<text text-anchor="middle" x="106.5" y="-7.5" font-family="Consolas" font-size="10.00">stdalign.h</text>
</a>
</g>
</g>
<!-- Node4&#45;&gt;Node5 -->
<g id="edge4" class="edge">
<title>Node4&#45;&gt;Node5</title>
<path fill="none" stroke="midnightblue" d="M106.5,-56.08C106.5,-49.01 106.5,-38.86 106.5,-29.99"/>
<polygon fill="midnightblue" stroke="midnightblue" points="110,-29.75 106.5,-19.75 103,-29.75 110,-29.75"/>
</g>
<!-- Node6&#45;&gt;Node4 -->
<g id="edge6" class="edge">
<title>Node6&#45;&gt;Node4</title>
<path fill="none" stroke="midnightblue" d="M74.77,-112.08C80.14,-104.46 88.02,-93.26 94.58,-83.94"/>
<polygon fill="midnightblue" stroke="midnightblue" points="97.45,-85.94 100.34,-75.75 91.72,-81.91 97.45,-85.94"/>
</g>
<!-- Node7&#45;&gt;Node4 -->
<g id="edge8" class="edge">
<title>Node7&#45;&gt;Node4</title>
<path fill="none" stroke="midnightblue" d="M142.35,-168.49C139.11,-155.97 132.6,-131.94 125.5,-112 122.26,-102.9 118.14,-92.99 114.57,-84.79"/>
<polygon fill="midnightblue" stroke="midnightblue" points="117.7,-83.22 110.44,-75.51 111.31,-86.07 117.7,-83.22"/>
</g>
<!-- Node7&#45;&gt;Node6 -->
<g id="edge9" class="edge">
<title>Node7&#45;&gt;Node6</title>
<path fill="none" stroke="midnightblue" d="M132.29,-168.32C120.72,-160.11 103.12,-147.6 89.34,-137.81"/>
<polygon fill="midnightblue" stroke="midnightblue" points="91.11,-134.77 80.93,-131.83 87.06,-140.48 91.11,-134.77"/>
</g>
<!-- Node8&#45;&gt;Node4 -->
<g id="edge11" class="edge">
<title>Node8&#45;&gt;Node4</title>
<path fill="none" stroke="midnightblue" d="M202.44,-112.44C183.93,-103.68 154.92,-89.94 133.64,-79.86"/>
<polygon fill="midnightblue" stroke="midnightblue" points="135.01,-76.63 124.48,-75.52 132.02,-82.96 135.01,-76.63"/>
</g>
</g>
</svg>
