<?xml version="1.0" encoding="UTF-8" standalone="no"?>
<!DOCTYPE svg PUBLIC "-//W3C//DTD SVG 1.1//EN"
 "http://www.w3.org/Graphics/SVG/1.1/DTD/svg11.dtd">
<!-- Generated by graphviz version 2.43.0 (0)
 -->
<!-- Title: libccc/generic/queue.h Pages: 1 -->
<svg width="359pt" height="364pt"
 viewBox="0.00 0.00 359.00 364.00" xmlns="http://www.w3.org/2000/svg" xmlns:xlink="http://www.w3.org/1999/xlink">
<g id="graph0" class="graph" transform="scale(1 1) rotate(0) translate(4 360)">
<title>libccc/generic/queue.h</title>
<polygon fill="white" stroke="transparent" points="-4,4 -4,-360 355,-360 355,4 -4,4"/>
<!-- Node1 -->
<g id="node1" class="node">
<title>Node1</title>
<g id="a_node1"><a xlink:title=" ">
<polygon fill="#bfbfbf" stroke="black" points="95,-336.5 95,-355.5 227,-355.5 227,-336.5 95,-336.5"/>
<text text-anchor="middle" x="161" y="-343.5" font-family="Consolas" font-size="10.00">libccc/generic/queue.h</text>
</a>
</g>
</g>
<!-- Node2 -->
<g id="node2" class="node">
<title>Node2</title>
<g id="a_node2"><a xlink:href="bool_8h.html" target="_top" xlink:title=" ">
<polygon fill="white" stroke="black" points="17.5,-280.5 17.5,-299.5 102.5,-299.5 102.5,-280.5 17.5,-280.5"/>
<text text-anchor="middle" x="60" y="-287.5" font-family="Consolas" font-size="10.00">libccc/bool.h</text>
</a>
</g>
</g>
<!-- Node1&#45;&gt;Node2 -->
<g id="edge1" class="edge">
<title>Node1&#45;&gt;Node2</title>
<path fill="none" stroke="midnightblue" d="M144.77,-336.32C128.65,-327.7 103.7,-314.36 85.04,-304.39"/>
<polygon fill="midnightblue" stroke="midnightblue" points="86.66,-301.28 76.19,-299.65 83.36,-307.46 86.66,-301.28"/>
</g>
<!-- Node10 -->
<g id="node10" class="node">
<title>Node10</title>
<g id="a_node10"><a xlink:href="int_8h.html" target="_top" xlink:title=" ">
<polygon fill="white" stroke="black" points="121,-280.5 121,-299.5 201,-299.5 201,-280.5 121,-280.5"/>
<text text-anchor="middle" x="161" y="-287.5" font-family="Consolas" font-size="10.00">libccc/int.h</text>
</a>
</g>
</g>
<!-- Node1&#45;&gt;Node10 -->
<g id="edge13" class="edge">
<title>Node1&#45;&gt;Node10</title>
<path fill="none" stroke="midnightblue" d="M161,-336.08C161,-329.01 161,-318.86 161,-309.99"/>
<polygon fill="midnightblue" stroke="midnightblue" points="164.5,-309.75 161,-299.75 157.5,-309.75 164.5,-309.75"/>
</g>
<!-- Node12 -->
<g id="node12" class="node">
<title>Node12</title>
<g id="a_node12"><a xlink:title=" ">
<polygon fill="white" stroke="#bfbfbf" points="219,-280.5 219,-299.5 351,-299.5 351,-280.5 219,-280.5"/>
<text text-anchor="middle" x="285" y="-287.5" font-family="Consolas" font-size="10.00">libccc/generic/queue.c</text>
</a>
</g>
</g>
<!-- Node1&#45;&gt;Node12 -->
<g id="edge16" class="edge">
<title>Node1&#45;&gt;Node12</title>
<path fill="none" stroke="midnightblue" d="M180.65,-336.44C200.96,-327.6 232.9,-313.69 256.1,-303.59"/>
<polygon fill="midnightblue" stroke="midnightblue" points="257.67,-306.72 265.44,-299.52 254.88,-300.3 257.67,-306.72"/>
</g>
<!-- Node3 -->
<g id="node3" class="node">
<title>Node3</title>
<g id="a_node3"><a xlink:href="libccc_8h.html" target="_top" xlink:title=" ">
<polygon fill="white" stroke="black" points="82.5,-224.5 82.5,-243.5 141.5,-243.5 141.5,-224.5 82.5,-224.5"/>
<text text-anchor="middle" x="112" y="-231.5" font-family="Consolas" font-size="10.00">libccc.h</text>
</a>
</g>
</g>
<!-- Node2&#45;&gt;Node3 -->
<g id="edge2" class="edge">
<title>Node2&#45;&gt;Node3</title>
<path fill="none" stroke="midnightblue" d="M68.59,-280.08C76.16,-272.22 87.38,-260.57 96.51,-251.08"/>
<polygon fill="midnightblue" stroke="midnightblue" points="99.16,-253.38 103.57,-243.75 94.12,-248.53 99.16,-253.38"/>
</g>
<!-- Node9 -->
<g id="node9" class="node">
<title>Node9</title>
<g id="a_node9"><a xlink:title=" ">
<polygon fill="white" stroke="#bfbfbf" points="0,-224.5 0,-243.5 64,-243.5 64,-224.5 0,-224.5"/>
<text text-anchor="middle" x="32" y="-231.5" font-family="Consolas" font-size="10.00">stdbool.h</text>
</a>
</g>
</g>
<!-- Node2&#45;&gt;Node9 -->
<g id="edge12" class="edge">
<title>Node2&#45;&gt;Node9</title>
<path fill="none" stroke="midnightblue" d="M55.38,-280.08C51.54,-272.69 45.98,-261.95 41.24,-252.81"/>
<polygon fill="midnightblue" stroke="midnightblue" points="44.25,-251.02 36.54,-243.75 38.03,-254.24 44.25,-251.02"/>
</g>
<!-- Node4 -->
<g id="node4" class="node">
<title>Node4</title>
<g id="a_node4"><a xlink:href="libccc__define_8h.html" target="_top" xlink:title=" ">
<polygon fill="white" stroke="black" points="64.5,-56.5 64.5,-75.5 159.5,-75.5 159.5,-56.5 64.5,-56.5"/>
<text text-anchor="middle" x="112" y="-63.5" font-family="Consolas" font-size="10.00">libccc_define.h</text>
</a>
</g>
</g>
<!-- Node3&#45;&gt;Node4 -->
<g id="edge3" class="edge">
<title>Node3&#45;&gt;Node4</title>
<path fill="none" stroke="midnightblue" d="M96,-224.5C62.12,-205.36 -11.49,-157.02 17,-112 27.05,-96.13 44.37,-85.74 61.5,-79"/>
<polygon fill="midnightblue" stroke="midnightblue" points="62.71,-82.28 70.95,-75.62 60.35,-75.69 62.71,-82.28"/>
</g>
<!-- Node6 -->
<g id="node6" class="node">
<title>Node6</title>
<g id="a_node6"><a xlink:href="libccc__errors_8h.html" target="_top" xlink:title=" ">
<polygon fill="white" stroke="black" points="26.5,-112.5 26.5,-131.5 121.5,-131.5 121.5,-112.5 26.5,-112.5"/>
<text text-anchor="middle" x="74" y="-119.5" font-family="Consolas" font-size="10.00">libccc_errors.h</text>
</a>
</g>
</g>
<!-- Node3&#45;&gt;Node6 -->
<g id="edge5" class="edge">
<title>Node3&#45;&gt;Node6</title>
<path fill="none" stroke="midnightblue" d="M108.06,-224.49C103.99,-215.53 97.61,-200.94 93,-188 87.46,-172.42 82.27,-154.35 78.72,-141.22"/>
<polygon fill="midnightblue" stroke="midnightblue" points="82.1,-140.29 76.15,-131.51 75.33,-142.08 82.1,-140.29"/>
</g>
<!-- Node7 -->
<g id="node7" class="node">
<title>Node7</title>
<g id="a_node7"><a xlink:href="libccc__config_8h.html" target="_top" xlink:title=" ">
<polygon fill="white" stroke="black" points="102.5,-168.5 102.5,-187.5 197.5,-187.5 197.5,-168.5 102.5,-168.5"/>
<text text-anchor="middle" x="150" y="-175.5" font-family="Consolas" font-size="10.00">libccc_config.h</text>
</a>
</g>
</g>
<!-- Node3&#45;&gt;Node7 -->
<g id="edge7" class="edge">
<title>Node3&#45;&gt;Node7</title>
<path fill="none" stroke="midnightblue" d="M118.27,-224.08C123.64,-216.46 131.52,-205.26 138.08,-195.94"/>
<polygon fill="midnightblue" stroke="midnightblue" points="140.95,-197.94 143.84,-187.75 135.22,-193.91 140.95,-197.94"/>
</g>
<!-- Node8 -->
<g id="node8" class="node">
<title>Node8</title>
<g id="a_node8"><a xlink:href="libccc__naming_8h.html" target="_top" xlink:title=" ">
<polygon fill="white" stroke="black" points="178.5,-112.5 178.5,-131.5 273.5,-131.5 273.5,-112.5 178.5,-112.5"/>
<text text-anchor="middle" x="226" y="-119.5" font-family="Consolas" font-size="10.00">libccc_naming.h</text>
</a>
</g>
</g>
<!-- Node3&#45;&gt;Node8 -->
<g id="edge10" class="edge">
<title>Node3&#45;&gt;Node8</title>
<path fill="none" stroke="midnightblue" d="M141.73,-225.9C162.79,-219.4 190.18,-207.71 207,-188 218.08,-175.02 222.7,-155.85 224.63,-141.69"/>
<polygon fill="midnightblue" stroke="midnightblue" points="228.12,-141.93 225.67,-131.63 221.16,-141.22 228.12,-141.93"/>
</g>
<!-- Node5 -->
<g id="node5" class="node">
<title>Node5</title>
<g id="a_node5"><a xlink:title=" ">
<polygon fill="white" stroke="#bfbfbf" points="77.5,-0.5 77.5,-19.5 146.5,-19.5 146.5,-0.5 77.5,-0.5"/>
<text text-anchor="middle" x="112" y="-7.5" font-family="Consolas" font-size="10.00">stdalign.h</text>
</a>
</g>
</g>
<!-- Node4&#45;&gt;Node5 -->
<g id="edge4" class="edge">
<title>Node4&#45;&gt;Node5</title>
<path fill="none" stroke="midnightblue" d="M112,-56.08C112,-49.01 112,-38.86 112,-29.99"/>
<polygon fill="midnightblue" stroke="midnightblue" points="115.5,-29.75 112,-19.75 108.5,-29.75 115.5,-29.75"/>
</g>
<!-- Node6&#45;&gt;Node4 -->
<g id="edge6" class="edge">
<title>Node6&#45;&gt;Node4</title>
<path fill="none" stroke="midnightblue" d="M80.27,-112.08C85.64,-104.46 93.52,-93.26 100.08,-83.94"/>
<polygon fill="midnightblue" stroke="midnightblue" points="102.95,-85.94 105.84,-75.75 97.22,-81.91 102.95,-85.94"/>
</g>
<!-- Node7&#45;&gt;Node4 -->
<g id="edge8" class="edge">
<title>Node7&#45;&gt;Node4</title>
<path fill="none" stroke="midnightblue" d="M147.51,-168.09C143.93,-155.5 137,-131.82 130,-112 126.81,-102.96 122.89,-93.06 119.53,-84.85"/>
<polygon fill="midnightblue" stroke="midnightblue" points="122.73,-83.44 115.66,-75.55 116.27,-86.12 122.73,-83.44"/>
</g>
<!-- Node7&#45;&gt;Node6 -->
<g id="edge9" class="edge">
<title>Node7&#45;&gt;Node6</title>
<path fill="none" stroke="midnightblue" d="M137.79,-168.32C126.22,-160.11 108.62,-147.6 94.84,-137.81"/>
<polygon fill="midnightblue" stroke="midnightblue" points="96.61,-134.77 86.43,-131.83 92.56,-140.48 96.61,-134.77"/>
</g>
<!-- Node8&#45;&gt;Node4 -->
<g id="edge11" class="edge">
<title>Node8&#45;&gt;Node4</title>
<path fill="none" stroke="midnightblue" d="M207.94,-112.44C189.43,-103.68 160.42,-89.94 139.14,-79.86"/>
<polygon fill="midnightblue" stroke="midnightblue" points="140.51,-76.63 129.98,-75.52 137.52,-82.96 140.51,-76.63"/>
</g>
<!-- Node10&#45;&gt;Node3 -->
<g id="edge15" class="edge">
<title>Node10&#45;&gt;Node3</title>
<path fill="none" stroke="midnightblue" d="M152.91,-280.08C145.84,-272.3 135.41,-260.8 126.85,-251.37"/>
<polygon fill="midnightblue" stroke="midnightblue" points="129.25,-248.8 119.94,-243.75 124.07,-253.51 129.25,-248.8"/>
</g>
<!-- Node11 -->
<g id="node11" class="node">
<title>Node11</title>
<g id="a_node11"><a xlink:title=" ">
<polygon fill="white" stroke="#bfbfbf" points="159.5,-224.5 159.5,-243.5 218.5,-243.5 218.5,-224.5 159.5,-224.5"/>
<text text-anchor="middle" x="189" y="-231.5" font-family="Consolas" font-size="10.00">stdint.h</text>
</a>
</g>
</g>
<!-- Node10&#45;&gt;Node11 -->
<g id="edge14" class="edge">
<title>Node10&#45;&gt;Node11</title>
<path fill="none" stroke="midnightblue" d="M165.62,-280.08C169.46,-272.69 175.02,-261.95 179.76,-252.81"/>
<polygon fill="midnightblue" stroke="midnightblue" points="182.97,-254.24 184.46,-243.75 176.75,-251.02 182.97,-254.24"/>
</g>
</g>
</svg>
