<?xml version="1.0" encoding="UTF-8" standalone="no"?>
<!DOCTYPE svg PUBLIC "-//W3C//DTD SVG 1.1//EN"
 "http://www.w3.org/Graphics/SVG/1.1/DTD/svg11.dtd">
<!-- Generated by graphviz version 2.49.3 (20211023.0002)
 -->
<!-- Title: hdr/libccc/random/random.h Pages: 1 -->
<svg width="789pt" height="420pt"
 viewBox="0.00 0.00 789.00 420.00" xmlns="http://www.w3.org/2000/svg" xmlns:xlink="http://www.w3.org/1999/xlink">
<g id="graph0" class="graph" transform="scale(1 1) rotate(0) translate(4 416)">
<title>hdr/libccc/random/random.h</title>
<polygon fill="white" stroke="transparent" points="-4,4 -4,-416 785,-416 785,4 -4,4"/>
<!-- Node1 -->
<g id="node1" class="node">
<title>Node1</title>
<g id="a_node1"><a xlink:title=" ">
<polygon fill="#bfbfbf" stroke="black" points="449.5,-392.5 449.5,-411.5 586.5,-411.5 586.5,-392.5 449.5,-392.5"/>
<text text-anchor="middle" x="518" y="-399.5" font-family="Consolas" font-size="10.00">hdr/libccc/random/random.h</text>
</a>
</g>
</g>
<!-- Node2 -->
<g id="node2" class="node">
<title>Node2</title>
<g id="a_node2"><a xlink:href="prng_8h.html" target="_top" xlink:title=" ">
<polygon fill="white" stroke="black" points="399.5,-336.5 399.5,-355.5 506.5,-355.5 506.5,-336.5 399.5,-336.5"/>
<text text-anchor="middle" x="453" y="-343.5" font-family="Consolas" font-size="10.00">libccc/random/prng.h</text>
</a>
</g>
</g>
<!-- Node1&#45;&gt;Node2 -->
<g id="edge1" class="edge">
<title>Node1&#45;&gt;Node2</title>
<path fill="none" stroke="midnightblue" d="M507.56,-392.32C497.85,-384.26 483.18,-372.08 471.5,-362.37"/>
<polygon fill="midnightblue" stroke="midnightblue" points="473.56,-359.53 463.63,-355.83 469.09,-364.92 473.56,-359.53"/>
</g>
<!-- Node19 -->
<g id="node19" class="node">
<title>Node19</title>
<g id="a_node19"><a xlink:href="csprng_8h.html" target="_top" xlink:title=" ">
<polygon fill="white" stroke="black" points="525,-336.5 525,-355.5 643,-355.5 643,-336.5 525,-336.5"/>
<text text-anchor="middle" x="584" y="-343.5" font-family="Consolas" font-size="10.00">libccc/random/csprng.h</text>
</a>
</g>
</g>
<!-- Node1&#45;&gt;Node19 -->
<g id="edge33" class="edge">
<title>Node1&#45;&gt;Node19</title>
<path fill="none" stroke="midnightblue" d="M528.6,-392.32C538.46,-384.26 553.35,-372.08 565.22,-362.37"/>
<polygon fill="midnightblue" stroke="midnightblue" points="567.68,-364.88 573.2,-355.83 563.25,-359.46 567.68,-364.88"/>
</g>
<!-- Node3 -->
<g id="node3" class="node">
<title>Node3</title>
<g id="a_node3"><a xlink:href="int_8h.html" target="_top" xlink:title=" ">
<polygon fill="white" stroke="black" points="419,-280.5 419,-299.5 483,-299.5 483,-280.5 419,-280.5"/>
<text text-anchor="middle" x="451" y="-287.5" font-family="Consolas" font-size="10.00">libccc/int.h</text>
</a>
</g>
</g>
<!-- Node2&#45;&gt;Node3 -->
<g id="edge2" class="edge">
<title>Node2&#45;&gt;Node3</title>
<path fill="none" stroke="midnightblue" d="M452.67,-336.08C452.41,-329.01 452.03,-318.86 451.7,-309.99"/>
<polygon fill="midnightblue" stroke="midnightblue" points="455.19,-309.61 451.32,-299.75 448.2,-309.87 455.19,-309.61"/>
</g>
<!-- Node15 -->
<g id="node15" class="node">
<title>Node15</title>
<g id="a_node15"><a xlink:href="fixed_8h.html" target="_top" xlink:title=" ">
<polygon fill="white" stroke="black" points="707,-168.5 707,-187.5 781,-187.5 781,-168.5 707,-168.5"/>
<text text-anchor="middle" x="744" y="-175.5" font-family="Consolas" font-size="10.00">libccc/fixed.h</text>
</a>
</g>
</g>
<!-- Node2&#45;&gt;Node15 -->
<g id="edge30" class="edge">
<title>Node2&#45;&gt;Node15</title>
<path fill="none" stroke="midnightblue" d="M468.24,-336.31C515.87,-309.14 662.25,-225.64 720.11,-192.63"/>
<polygon fill="midnightblue" stroke="midnightblue" points="721.96,-195.6 728.92,-187.61 718.49,-189.52 721.96,-195.6"/>
</g>
<!-- Node16 -->
<g id="node16" class="node">
<title>Node16</title>
<g id="a_node16"><a xlink:href="float_8h.html" target="_top" xlink:title=" ">
<polygon fill="white" stroke="black" points="617,-168.5 617,-187.5 689,-187.5 689,-168.5 617,-168.5"/>
<text text-anchor="middle" x="653" y="-175.5" font-family="Consolas" font-size="10.00">libccc/float.h</text>
</a>
</g>
</g>
<!-- Node2&#45;&gt;Node16 -->
<g id="edge31" class="edge">
<title>Node2&#45;&gt;Node16</title>
<path fill="none" stroke="midnightblue" d="M460.42,-336.34C478.66,-315.38 527.7,-260.95 576,-224 591.89,-211.85 611.35,-200.5 626.73,-192.24"/>
<polygon fill="midnightblue" stroke="midnightblue" points="628.49,-195.27 635.71,-187.52 625.23,-189.07 628.49,-195.27"/>
</g>
<!-- Node17 -->
<g id="node17" class="node">
<title>Node17</title>
<g id="a_node17"><a xlink:href="pointer_8h.html" target="_top" xlink:title=" ">
<polygon fill="white" stroke="black" points="81,-168.5 81,-187.5 163,-187.5 163,-168.5 81,-168.5"/>
<text text-anchor="middle" x="122" y="-175.5" font-family="Consolas" font-size="10.00">libccc/pointer.h</text>
</a>
</g>
</g>
<!-- Node2&#45;&gt;Node17 -->
<g id="edge32" class="edge">
<title>Node2&#45;&gt;Node17</title>
<path fill="none" stroke="midnightblue" d="M399.48,-344.55C320.58,-342.72 178.52,-334.55 143,-300 115.45,-273.2 116.29,-224.16 119.19,-197.47"/>
<polygon fill="midnightblue" stroke="midnightblue" points="122.66,-197.91 120.49,-187.54 115.72,-197 122.66,-197.91"/>
</g>
<!-- Node4 -->
<g id="node4" class="node">
<title>Node4</title>
<g id="a_node4"><a xlink:title=" ">
<polygon fill="white" stroke="#bfbfbf" points="70.5,-112.5 70.5,-131.5 119.5,-131.5 119.5,-112.5 70.5,-112.5"/>
<text text-anchor="middle" x="95" y="-119.5" font-family="Consolas" font-size="10.00">stdint.h</text>
</a>
</g>
</g>
<!-- Node3&#45;&gt;Node4 -->
<g id="edge3" class="edge">
<title>Node3&#45;&gt;Node4</title>
<path fill="none" stroke="midnightblue" d="M429.23,-280.46C387.25,-263.84 292.44,-225.44 215,-188 180.92,-171.52 142.63,-150.29 118.67,-136.66"/>
<polygon fill="midnightblue" stroke="midnightblue" points="120.34,-133.58 109.92,-131.66 116.87,-139.66 120.34,-133.58"/>
</g>
<!-- Node5 -->
<g id="node5" class="node">
<title>Node5</title>
<g id="a_node5"><a xlink:href="libccc_8h.html" target="_top" xlink:title=" ">
<polygon fill="white" stroke="black" points="426,-224.5 426,-243.5 476,-243.5 476,-224.5 426,-224.5"/>
<text text-anchor="middle" x="451" y="-231.5" font-family="Consolas" font-size="10.00">libccc.h</text>
</a>
</g>
</g>
<!-- Node3&#45;&gt;Node5 -->
<g id="edge4" class="edge">
<title>Node3&#45;&gt;Node5</title>
<path fill="none" stroke="midnightblue" d="M445.83,-280.08C444.32,-272.93 443.89,-262.64 444.54,-253.69"/>
<polygon fill="midnightblue" stroke="midnightblue" points="448.02,-254.13 445.87,-243.75 441.08,-253.2 448.02,-254.13"/>
</g>
<!-- Node5&#45;&gt;Node3 -->
<g id="edge21" class="edge">
<title>Node5&#45;&gt;Node3</title>
<path fill="none" stroke="midnightblue" d="M456.13,-243.75C457.66,-250.86 458.1,-261.14 457.47,-270.1"/>
<polygon fill="midnightblue" stroke="midnightblue" points="453.99,-269.71 456.17,-280.08 460.93,-270.62 453.99,-269.71"/>
</g>
<!-- Node6 -->
<g id="node6" class="node">
<title>Node6</title>
<g id="a_node6"><a xlink:href="libccc__define_8h.html" target="_top" xlink:title=" ">
<polygon fill="white" stroke="black" points="445,-56.5 445,-75.5 527,-75.5 527,-56.5 445,-56.5"/>
<text text-anchor="middle" x="486" y="-63.5" font-family="Consolas" font-size="10.00">libccc_define.h</text>
</a>
</g>
</g>
<!-- Node5&#45;&gt;Node6 -->
<g id="edge5" class="edge">
<title>Node5&#45;&gt;Node6</title>
<path fill="none" stroke="midnightblue" d="M425.77,-229.12C389.09,-222.16 327.04,-204.73 343,-168 362.71,-122.64 415.13,-94.14 450.72,-79.39"/>
<polygon fill="midnightblue" stroke="midnightblue" points="452.27,-82.54 460.27,-75.6 449.68,-76.04 452.27,-82.54"/>
</g>
<!-- Node8 -->
<g id="node8" class="node">
<title>Node8</title>
<g id="a_node8"><a xlink:href="libccc__errors_8h.html" target="_top" xlink:title=" ">
<polygon fill="white" stroke="black" points="412,-112.5 412,-131.5 492,-131.5 492,-112.5 412,-112.5"/>
<text text-anchor="middle" x="452" y="-119.5" font-family="Consolas" font-size="10.00">libccc_errors.h</text>
</a>
</g>
</g>
<!-- Node5&#45;&gt;Node8 -->
<g id="edge7" class="edge">
<title>Node5&#45;&gt;Node8</title>
<path fill="none" stroke="midnightblue" d="M451.08,-224.37C451.24,-206.62 451.61,-165.67 451.83,-141.6"/>
<polygon fill="midnightblue" stroke="midnightblue" points="455.33,-141.62 451.92,-131.59 448.33,-141.56 455.33,-141.62"/>
</g>
<!-- Node9 -->
<g id="node9" class="node">
<title>Node9</title>
<g id="a_node9"><a xlink:href="libccc__config_8h.html" target="_top" xlink:title=" ">
<polygon fill="white" stroke="black" points="479,-168.5 479,-187.5 561,-187.5 561,-168.5 479,-168.5"/>
<text text-anchor="middle" x="520" y="-175.5" font-family="Consolas" font-size="10.00">libccc_config.h</text>
</a>
</g>
</g>
<!-- Node5&#45;&gt;Node9 -->
<g id="edge9" class="edge">
<title>Node5&#45;&gt;Node9</title>
<path fill="none" stroke="midnightblue" d="M462.09,-224.32C472.49,-216.18 488.26,-203.84 500.72,-194.09"/>
<polygon fill="midnightblue" stroke="midnightblue" points="502.99,-196.75 508.71,-187.83 498.68,-191.24 502.99,-196.75"/>
</g>
<!-- Node10 -->
<g id="node10" class="node">
<title>Node10</title>
<g id="a_node10"><a xlink:href="libccc__naming_8h.html" target="_top" xlink:title=" ">
<polygon fill="white" stroke="black" points="548.5,-112.5 548.5,-131.5 635.5,-131.5 635.5,-112.5 548.5,-112.5"/>
<text text-anchor="middle" x="592" y="-119.5" font-family="Consolas" font-size="10.00">libccc_naming.h</text>
</a>
</g>
</g>
<!-- Node5&#45;&gt;Node10 -->
<g id="edge12" class="edge">
<title>Node5&#45;&gt;Node10</title>
<path fill="none" stroke="midnightblue" d="M476.31,-229.84C503.08,-225.2 544.84,-214.06 570,-188 582.01,-175.56 587.48,-156.32 589.96,-142"/>
<polygon fill="midnightblue" stroke="midnightblue" points="593.46,-142.18 591.37,-131.79 586.53,-141.21 593.46,-142.18"/>
</g>
<!-- Node11 -->
<g id="node11" class="node">
<title>Node11</title>
<g id="a_node11"><a xlink:href="bool_8h.html" target="_top" xlink:title=" ">
<polygon fill="white" stroke="black" points="351.5,-168.5 351.5,-187.5 422.5,-187.5 422.5,-168.5 351.5,-168.5"/>
<text text-anchor="middle" x="387" y="-175.5" font-family="Consolas" font-size="10.00">libccc/bool.h</text>
</a>
</g>
</g>
<!-- Node5&#45;&gt;Node11 -->
<g id="edge14" class="edge">
<title>Node5&#45;&gt;Node11</title>
<path fill="none" stroke="midnightblue" d="M435.6,-224.32C424.52,-216.42 410.09,-204.55 399.67,-194.94"/>
<polygon fill="midnightblue" stroke="midnightblue" points="401.94,-192.27 392.32,-187.83 397.08,-197.3 401.94,-192.27"/>
</g>
<!-- Node12 -->
<g id="node12" class="node">
<title>Node12</title>
<g id="a_node12"><a xlink:href="char_8h.html" target="_top" xlink:title=" ">
<polygon fill="white" stroke="black" points="223.5,-168.5 223.5,-187.5 294.5,-187.5 294.5,-168.5 223.5,-168.5"/>
<text text-anchor="middle" x="259" y="-175.5" font-family="Consolas" font-size="10.00">libccc/char.h</text>
</a>
</g>
</g>
<!-- Node5&#45;&gt;Node12 -->
<g id="edge16" class="edge">
<title>Node5&#45;&gt;Node12</title>
<path fill="none" stroke="midnightblue" d="M425.69,-227.12C391.81,-218.34 332,-201.63 293.9,-190.4"/>
<polygon fill="midnightblue" stroke="midnightblue" points="294.83,-187.02 284.25,-187.53 292.83,-193.73 294.83,-187.02"/>
</g>
<!-- Node5&#45;&gt;Node15 -->
<g id="edge22" class="edge">
<title>Node5&#45;&gt;Node15</title>
<path fill="none" stroke="midnightblue" d="M476.04,-227.52C519.6,-219.17 611.26,-202.69 689,-188 691.61,-187.51 694.3,-186.99 697.03,-186.47"/>
<polygon fill="midnightblue" stroke="midnightblue" points="697.82,-189.89 706.99,-184.58 696.51,-183.01 697.82,-189.89"/>
</g>
<!-- Node5&#45;&gt;Node16 -->
<g id="edge24" class="edge">
<title>Node5&#45;&gt;Node16</title>
<path fill="none" stroke="midnightblue" d="M476.26,-224.92C509.01,-215.59 566.38,-200.2 606.93,-189.84"/>
<polygon fill="midnightblue" stroke="midnightblue" points="608.02,-193.17 616.85,-187.32 606.3,-186.39 608.02,-193.17"/>
</g>
<!-- Node5&#45;&gt;Node17 -->
<g id="edge26" class="edge">
<title>Node5&#45;&gt;Node17</title>
<path fill="none" stroke="midnightblue" d="M425.85,-229.46C371.92,-221.19 244.82,-200.42 173.21,-188.26"/>
<polygon fill="midnightblue" stroke="midnightblue" points="173.5,-184.76 163.06,-186.54 172.33,-191.67 173.5,-184.76"/>
</g>
<!-- Node7 -->
<g id="node7" class="node">
<title>Node7</title>
<g id="a_node7"><a xlink:title=" ">
<polygon fill="white" stroke="#bfbfbf" points="456.5,-0.5 456.5,-19.5 515.5,-19.5 515.5,-0.5 456.5,-0.5"/>
<text text-anchor="middle" x="486" y="-7.5" font-family="Consolas" font-size="10.00">stdalign.h</text>
</a>
</g>
</g>
<!-- Node6&#45;&gt;Node7 -->
<g id="edge6" class="edge">
<title>Node6&#45;&gt;Node7</title>
<path fill="none" stroke="midnightblue" d="M486,-56.08C486,-49.01 486,-38.86 486,-29.99"/>
<polygon fill="midnightblue" stroke="midnightblue" points="489.5,-29.75 486,-19.75 482.5,-29.75 489.5,-29.75"/>
</g>
<!-- Node8&#45;&gt;Node6 -->
<g id="edge8" class="edge">
<title>Node8&#45;&gt;Node6</title>
<path fill="none" stroke="midnightblue" d="M457.61,-112.08C462.37,-104.53 469.32,-93.49 475.15,-84.23"/>
<polygon fill="midnightblue" stroke="midnightblue" points="478.12,-86.08 480.49,-75.75 472.2,-82.35 478.12,-86.08"/>
</g>
<!-- Node9&#45;&gt;Node6 -->
<g id="edge10" class="edge">
<title>Node9&#45;&gt;Node6</title>
<path fill="none" stroke="midnightblue" d="M517.52,-168.14C513.99,-155.6 507.25,-131.97 501,-112 498.23,-103.15 495,-93.37 492.24,-85.2"/>
<polygon fill="midnightblue" stroke="midnightblue" points="495.51,-83.94 488.97,-75.6 488.88,-86.19 495.51,-83.94"/>
</g>
<!-- Node9&#45;&gt;Node8 -->
<g id="edge11" class="edge">
<title>Node9&#45;&gt;Node8</title>
<path fill="none" stroke="midnightblue" d="M509.07,-168.32C498.83,-160.18 483.28,-147.84 471,-138.09"/>
<polygon fill="midnightblue" stroke="midnightblue" points="473.13,-135.31 463.12,-131.83 468.78,-140.79 473.13,-135.31"/>
</g>
<!-- Node10&#45;&gt;Node6 -->
<g id="edge13" class="edge">
<title>Node10&#45;&gt;Node6</title>
<path fill="none" stroke="midnightblue" d="M574.97,-112.32C557.97,-103.66 531.62,-90.24 512.01,-80.25"/>
<polygon fill="midnightblue" stroke="midnightblue" points="513.49,-77.08 502.99,-75.65 510.31,-83.31 513.49,-77.08"/>
</g>
<!-- Node11&#45;&gt;Node5 -->
<g id="edge15" class="edge">
<title>Node11&#45;&gt;Node5</title>
<path fill="none" stroke="midnightblue" d="M402.5,-187.75C413.55,-195.64 427.89,-207.43 438.26,-217"/>
<polygon fill="midnightblue" stroke="midnightblue" points="435.97,-219.65 445.6,-224.08 440.84,-214.62 435.97,-219.65"/>
</g>
<!-- Node12&#45;&gt;Node4 -->
<g id="edge17" class="edge">
<title>Node12&#45;&gt;Node4</title>
<path fill="none" stroke="midnightblue" d="M233.01,-168.44C204.9,-159.19 159.95,-144.39 129.03,-134.21"/>
<polygon fill="midnightblue" stroke="midnightblue" points="130.12,-130.88 119.53,-131.08 127.93,-137.53 130.12,-130.88"/>
</g>
<!-- Node12&#45;&gt;Node5 -->
<g id="edge18" class="edge">
<title>Node12&#45;&gt;Node5</title>
<path fill="none" stroke="midnightblue" d="M294.36,-187.52C329.05,-196.7 381.42,-211.38 415.98,-221.57"/>
<polygon fill="midnightblue" stroke="midnightblue" points="415.08,-224.95 425.67,-224.44 417.08,-218.24 415.08,-224.95"/>
</g>
<!-- Node13 -->
<g id="node13" class="node">
<title>Node13</title>
<g id="a_node13"><a xlink:title=" ">
<polygon fill="white" stroke="#bfbfbf" points="262.5,-112.5 262.5,-131.5 355.5,-131.5 355.5,-112.5 262.5,-112.5"/>
<text text-anchor="middle" x="309" y="-119.5" font-family="Consolas" font-size="10.00">libccc/text/ascii.h</text>
</a>
</g>
</g>
<!-- Node12&#45;&gt;Node13 -->
<g id="edge19" class="edge">
<title>Node12&#45;&gt;Node13</title>
<path fill="none" stroke="midnightblue" d="M267.26,-168.08C274.46,-160.3 285.11,-148.8 293.85,-139.37"/>
<polygon fill="midnightblue" stroke="midnightblue" points="296.67,-141.47 300.9,-131.75 291.53,-136.71 296.67,-141.47"/>
</g>
<!-- Node14 -->
<g id="node14" class="node">
<title>Node14</title>
<g id="a_node14"><a xlink:title=" ">
<polygon fill="white" stroke="#bfbfbf" points="137.5,-112.5 137.5,-131.5 244.5,-131.5 244.5,-112.5 137.5,-112.5"/>
<text text-anchor="middle" x="191" y="-119.5" font-family="Consolas" font-size="10.00">libccc/text/unicode.h</text>
</a>
</g>
</g>
<!-- Node12&#45;&gt;Node14 -->
<g id="edge20" class="edge">
<title>Node12&#45;&gt;Node14</title>
<path fill="none" stroke="midnightblue" d="M248.07,-168.32C237.83,-160.18 222.28,-147.84 210,-138.09"/>
<polygon fill="midnightblue" stroke="midnightblue" points="212.13,-135.31 202.12,-131.83 207.78,-140.79 212.13,-135.31"/>
</g>
<!-- Node15&#45;&gt;Node5 -->
<g id="edge23" class="edge">
<title>Node15&#45;&gt;Node5</title>
<path fill="none" stroke="midnightblue" d="M709.42,-187.54C708.61,-187.7 707.8,-187.85 707,-188 628.43,-202.84 535.63,-219.52 486.02,-227.78"/>
<polygon fill="midnightblue" stroke="midnightblue" points="485.42,-224.34 476.12,-229.41 486.55,-231.24 485.42,-224.34"/>
</g>
<!-- Node16&#45;&gt;Node5 -->
<g id="edge25" class="edge">
<title>Node16&#45;&gt;Node5</title>
<path fill="none" stroke="midnightblue" d="M626.11,-187.55C589.93,-197.82 525.88,-214.94 486,-224.97"/>
<polygon fill="midnightblue" stroke="midnightblue" points="485.02,-221.61 476.16,-227.42 486.71,-228.4 485.02,-221.61"/>
</g>
<!-- Node17&#45;&gt;Node4 -->
<g id="edge28" class="edge">
<title>Node17&#45;&gt;Node4</title>
<path fill="none" stroke="midnightblue" d="M117.54,-168.08C113.85,-160.69 108.48,-149.95 103.91,-140.81"/>
<polygon fill="midnightblue" stroke="midnightblue" points="106.98,-139.13 99.38,-131.75 100.72,-142.26 106.98,-139.13"/>
</g>
<!-- Node17&#45;&gt;Node5 -->
<g id="edge29" class="edge">
<title>Node17&#45;&gt;Node5</title>
<path fill="none" stroke="midnightblue" d="M163.26,-185.04C228.63,-195.28 354.55,-215.94 415.88,-226.48"/>
<polygon fill="midnightblue" stroke="midnightblue" points="415.4,-229.95 425.85,-228.21 416.59,-223.05 415.4,-229.95"/>
</g>
<!-- Node18 -->
<g id="node18" class="node">
<title>Node18</title>
<g id="a_node18"><a xlink:title=" ">
<polygon fill="white" stroke="#bfbfbf" points="0,-112.5 0,-131.5 52,-131.5 52,-112.5 0,-112.5"/>
<text text-anchor="middle" x="26" y="-119.5" font-family="Consolas" font-size="10.00">stddef.h</text>
</a>
</g>
</g>
<!-- Node17&#45;&gt;Node18 -->
<g id="edge27" class="edge">
<title>Node17&#45;&gt;Node18</title>
<path fill="none" stroke="midnightblue" d="M106.58,-168.32C91.46,-159.82 68.18,-146.73 50.53,-136.8"/>
<polygon fill="midnightblue" stroke="midnightblue" points="51.82,-133.51 41.39,-131.65 48.39,-139.61 51.82,-133.51"/>
</g>
<!-- Node19&#45;&gt;Node3 -->
<g id="edge34" class="edge">
<title>Node19&#45;&gt;Node3</title>
<path fill="none" stroke="midnightblue" d="M562.93,-336.44C540.94,-327.52 506.27,-313.44 481.34,-303.32"/>
<polygon fill="midnightblue" stroke="midnightblue" points="482.56,-300.04 471.98,-299.52 479.92,-306.52 482.56,-300.04"/>
</g>
<!-- Node19&#45;&gt;Node15 -->
<g id="edge35" class="edge">
<title>Node19&#45;&gt;Node15</title>
<path fill="none" stroke="midnightblue" d="M592.6,-336.08C618.44,-309.27 695.62,-229.19 728.69,-194.89"/>
<polygon fill="midnightblue" stroke="midnightblue" points="731.32,-197.2 735.74,-187.57 726.28,-192.34 731.32,-197.2"/>
</g>
<!-- Node19&#45;&gt;Node16 -->
<g id="edge36" class="edge">
<title>Node19&#45;&gt;Node16</title>
<path fill="none" stroke="midnightblue" d="M587.71,-336.08C598.62,-309.83 630.74,-232.55 645.47,-197.12"/>
<polygon fill="midnightblue" stroke="midnightblue" points="648.83,-198.15 649.44,-187.57 642.37,-195.46 648.83,-198.15"/>
</g>
<!-- Node19&#45;&gt;Node17 -->
<g id="edge37" class="edge">
<title>Node19&#45;&gt;Node17</title>
<path fill="none" stroke="midnightblue" d="M544.48,-336.5C508.9,-328.44 455.38,-315.31 410,-300 311.72,-266.84 199.55,-215.69 149.09,-191.94"/>
<polygon fill="midnightblue" stroke="midnightblue" points="150.38,-188.68 139.85,-187.57 147.39,-195.01 150.38,-188.68"/>
</g>
</g>
</svg>
