<?xml version="1.0" encoding="UTF-8" standalone="no"?>
<!DOCTYPE svg PUBLIC "-//W3C//DTD SVG 1.1//EN"
 "http://www.w3.org/Graphics/SVG/1.1/DTD/svg11.dtd">
<!-- Generated by graphviz version 2.50.0 (20211204.2007)
 -->
<!-- Title: libccc/random/random.h Pages: 1 -->
<svg width="361pt" height="420pt"
 viewBox="0.00 0.00 360.50 420.00" xmlns="http://www.w3.org/2000/svg" xmlns:xlink="http://www.w3.org/1999/xlink">
<g id="graph0" class="graph" transform="scale(1 1) rotate(0) translate(4 416)">
<title>libccc/random/random.h</title>
<polygon fill="white" stroke="transparent" points="-4,4 -4,-416 356.5,-416 356.5,4 -4,4"/>
<!-- Node1 -->
<g id="node1" class="node">
<title>Node1</title>
<g id="a_node1"><a xlink:title=" ">
<polygon fill="#bfbfbf" stroke="black" points="113.5,-392.5 113.5,-411.5 234.5,-411.5 234.5,-392.5 113.5,-392.5"/>
<text text-anchor="middle" x="174" y="-399.5" font-family="Consolas" font-size="10.00">libccc/random/random.h</text>
</a>
</g>
</g>
<!-- Node2 -->
<g id="node2" class="node">
<title>Node2</title>
<g id="a_node2"><a xlink:href="prng_8h.html" target="_top" xlink:title=" ">
<polygon fill="white" stroke="black" points="186.5,-336.5 186.5,-355.5 293.5,-355.5 293.5,-336.5 186.5,-336.5"/>
<text text-anchor="middle" x="240" y="-343.5" font-family="Consolas" font-size="10.00">libccc/random/prng.h</text>
</a>
</g>
</g>
<!-- Node1&#45;&gt;Node2 -->
<g id="edge1" class="edge">
<title>Node1&#45;&gt;Node2</title>
<path fill="none" stroke="midnightblue" d="M184.6,-392.32C194.46,-384.26 209.35,-372.08 221.22,-362.37"/>
<polygon fill="midnightblue" stroke="midnightblue" points="223.68,-364.88 229.2,-355.83 219.25,-359.46 223.68,-364.88"/>
</g>
<!-- Node15 -->
<g id="node15" class="node">
<title>Node15</title>
<g id="a_node15"><a xlink:href="csprng_8h.html" target="_top" xlink:title=" ">
<polygon fill="white" stroke="black" points="50,-336.5 50,-355.5 168,-355.5 168,-336.5 50,-336.5"/>
<text text-anchor="middle" x="109" y="-343.5" font-family="Consolas" font-size="10.00">libccc/random/csprng.h</text>
</a>
</g>
</g>
<!-- Node1&#45;&gt;Node15 -->
<g id="edge22" class="edge">
<title>Node1&#45;&gt;Node15</title>
<path fill="none" stroke="midnightblue" d="M163.56,-392.32C153.85,-384.26 139.18,-372.08 127.5,-362.37"/>
<polygon fill="midnightblue" stroke="midnightblue" points="129.56,-359.53 119.63,-355.83 125.09,-364.92 129.56,-359.53"/>
</g>
<!-- Node3 -->
<g id="node3" class="node">
<title>Node3</title>
<g id="a_node3"><a xlink:href="int_8h.html" target="_top" xlink:title=" ">
<polygon fill="white" stroke="black" points="100,-280.5 100,-299.5 164,-299.5 164,-280.5 100,-280.5"/>
<text text-anchor="middle" x="132" y="-287.5" font-family="Consolas" font-size="10.00">libccc/int.h</text>
</a>
</g>
</g>
<!-- Node2&#45;&gt;Node3 -->
<g id="edge2" class="edge">
<title>Node2&#45;&gt;Node3</title>
<path fill="none" stroke="midnightblue" d="M222.65,-336.32C205.33,-327.66 178.48,-314.24 158.5,-304.25"/>
<polygon fill="midnightblue" stroke="midnightblue" points="159.82,-301 149.31,-299.65 156.69,-307.26 159.82,-301"/>
</g>
<!-- Node11 -->
<g id="node11" class="node">
<title>Node11</title>
<g id="a_node11"><a xlink:href="fixed_8h.html" target="_top" xlink:title=" ">
<polygon fill="white" stroke="black" points="272,-280.5 272,-299.5 346,-299.5 346,-280.5 272,-280.5"/>
<text text-anchor="middle" x="309" y="-287.5" font-family="Consolas" font-size="10.00">libccc/fixed.h</text>
</a>
</g>
</g>
<!-- Node2&#45;&gt;Node11 -->
<g id="edge14" class="edge">
<title>Node2&#45;&gt;Node11</title>
<path fill="none" stroke="midnightblue" d="M251.09,-336.32C261.49,-328.18 277.26,-315.84 289.72,-306.09"/>
<polygon fill="midnightblue" stroke="midnightblue" points="291.99,-308.75 297.71,-299.83 287.68,-303.24 291.99,-308.75"/>
</g>
<!-- Node12 -->
<g id="node12" class="node">
<title>Node12</title>
<g id="a_node12"><a xlink:href="float_8h.html" target="_top" xlink:title=" ">
<polygon fill="white" stroke="black" points="182,-280.5 182,-299.5 254,-299.5 254,-280.5 182,-280.5"/>
<text text-anchor="middle" x="218" y="-287.5" font-family="Consolas" font-size="10.00">libccc/float.h</text>
</a>
</g>
</g>
<!-- Node2&#45;&gt;Node12 -->
<g id="edge16" class="edge">
<title>Node2&#45;&gt;Node12</title>
<path fill="none" stroke="midnightblue" d="M236.37,-336.08C233.39,-328.77 229.07,-318.18 225.38,-309.1"/>
<polygon fill="midnightblue" stroke="midnightblue" points="228.58,-307.69 221.57,-299.75 222.1,-310.33 228.58,-307.69"/>
</g>
<!-- Node13 -->
<g id="node13" class="node">
<title>Node13</title>
<g id="a_node13"><a xlink:href="pointer_8h.html" target="_top" xlink:title=" ">
<polygon fill="white" stroke="black" points="0,-280.5 0,-299.5 82,-299.5 82,-280.5 0,-280.5"/>
<text text-anchor="middle" x="41" y="-287.5" font-family="Consolas" font-size="10.00">libccc/pointer.h</text>
</a>
</g>
</g>
<!-- Node2&#45;&gt;Node13 -->
<g id="edge18" class="edge">
<title>Node2&#45;&gt;Node13</title>
<path fill="none" stroke="midnightblue" d="M208.47,-336.44C174.41,-327.2 119.99,-312.44 82.48,-302.26"/>
<polygon fill="midnightblue" stroke="midnightblue" points="82.95,-298.76 72.38,-299.52 81.12,-305.51 82.95,-298.76"/>
</g>
<!-- Node4 -->
<g id="node4" class="node">
<title>Node4</title>
<g id="a_node4"><a xlink:title=" ">
<polygon fill="white" stroke="#bfbfbf" points="96.5,-224.5 96.5,-243.5 145.5,-243.5 145.5,-224.5 96.5,-224.5"/>
<text text-anchor="middle" x="121" y="-231.5" font-family="Consolas" font-size="10.00">stdint.h</text>
</a>
</g>
</g>
<!-- Node3&#45;&gt;Node4 -->
<g id="edge3" class="edge">
<title>Node3&#45;&gt;Node4</title>
<path fill="none" stroke="midnightblue" d="M130.18,-280.08C128.73,-272.93 126.63,-262.64 124.81,-253.69"/>
<polygon fill="midnightblue" stroke="midnightblue" points="128.21,-252.85 122.78,-243.75 121.35,-254.25 128.21,-252.85"/>
</g>
<!-- Node5 -->
<g id="node5" class="node">
<title>Node5</title>
<g id="a_node5"><a xlink:href="libccc_8h.html" target="_top" xlink:title=" ">
<polygon fill="white" stroke="black" points="178,-224.5 178,-243.5 228,-243.5 228,-224.5 178,-224.5"/>
<text text-anchor="middle" x="203" y="-231.5" font-family="Consolas" font-size="10.00">libccc.h</text>
</a>
</g>
</g>
<!-- Node3&#45;&gt;Node5 -->
<g id="edge4" class="edge">
<title>Node3&#45;&gt;Node5</title>
<path fill="none" stroke="midnightblue" d="M143.41,-280.32C154.11,-272.18 170.34,-259.84 183.16,-250.09"/>
<polygon fill="midnightblue" stroke="midnightblue" points="185.54,-252.67 191.39,-243.83 181.31,-247.1 185.54,-252.67"/>
</g>
<!-- Node6 -->
<g id="node6" class="node">
<title>Node6</title>
<g id="a_node6"><a xlink:href="libccc__define_8h.html" target="_top" xlink:title=" ">
<polygon fill="white" stroke="black" points="162,-56.5 162,-75.5 244,-75.5 244,-56.5 162,-56.5"/>
<text text-anchor="middle" x="203" y="-63.5" font-family="Consolas" font-size="10.00">libccc_define.h</text>
</a>
</g>
</g>
<!-- Node5&#45;&gt;Node6 -->
<g id="edge5" class="edge">
<title>Node5&#45;&gt;Node6</title>
<path fill="none" stroke="midnightblue" d="M189.08,-224.45C159.26,-205.01 93.94,-155.78 120,-112 129.1,-96.72 145.39,-86.31 161.14,-79.39"/>
<polygon fill="midnightblue" stroke="midnightblue" points="162.83,-82.48 170.82,-75.51 160.23,-75.98 162.83,-82.48"/>
</g>
<!-- Node8 -->
<g id="node8" class="node">
<title>Node8</title>
<g id="a_node8"><a xlink:href="libccc__errors_8h.html" target="_top" xlink:title=" ">
<polygon fill="white" stroke="black" points="129,-112.5 129,-131.5 209,-131.5 209,-112.5 129,-112.5"/>
<text text-anchor="middle" x="169" y="-119.5" font-family="Consolas" font-size="10.00">libccc_errors.h</text>
</a>
</g>
</g>
<!-- Node5&#45;&gt;Node8 -->
<g id="edge7" class="edge">
<title>Node5&#45;&gt;Node8</title>
<path fill="none" stroke="midnightblue" d="M199.75,-224.43C196.38,-215.43 191.05,-200.81 187,-188 182.1,-172.47 177.21,-154.63 173.77,-141.58"/>
<polygon fill="midnightblue" stroke="midnightblue" points="177.15,-140.69 171.25,-131.89 170.38,-142.45 177.15,-140.69"/>
</g>
<!-- Node9 -->
<g id="node9" class="node">
<title>Node9</title>
<g id="a_node9"><a xlink:href="libccc__config_8h.html" target="_top" xlink:title=" ">
<polygon fill="white" stroke="black" points="196,-168.5 196,-187.5 278,-187.5 278,-168.5 196,-168.5"/>
<text text-anchor="middle" x="237" y="-175.5" font-family="Consolas" font-size="10.00">libccc_config.h</text>
</a>
</g>
</g>
<!-- Node5&#45;&gt;Node9 -->
<g id="edge9" class="edge">
<title>Node5&#45;&gt;Node9</title>
<path fill="none" stroke="midnightblue" d="M208.61,-224.08C213.37,-216.53 220.32,-205.49 226.15,-196.23"/>
<polygon fill="midnightblue" stroke="midnightblue" points="229.12,-198.08 231.49,-187.75 223.2,-194.35 229.12,-198.08"/>
</g>
<!-- Node10 -->
<g id="node10" class="node">
<title>Node10</title>
<g id="a_node10"><a xlink:href="libccc__naming_8h.html" target="_top" xlink:title=" ">
<polygon fill="white" stroke="black" points="265.5,-112.5 265.5,-131.5 352.5,-131.5 352.5,-112.5 265.5,-112.5"/>
<text text-anchor="middle" x="309" y="-119.5" font-family="Consolas" font-size="10.00">libccc_naming.h</text>
</a>
</g>
</g>
<!-- Node5&#45;&gt;Node10 -->
<g id="edge12" class="edge">
<title>Node5&#45;&gt;Node10</title>
<path fill="none" stroke="midnightblue" d="M228.33,-225.14C246.95,-218.15 271.6,-206.18 287,-188 298.18,-174.8 303.75,-155.67 306.49,-141.57"/>
<polygon fill="midnightblue" stroke="midnightblue" points="309.96,-142 308.12,-131.56 303.05,-140.87 309.96,-142"/>
</g>
<!-- Node7 -->
<g id="node7" class="node">
<title>Node7</title>
<g id="a_node7"><a xlink:title=" ">
<polygon fill="white" stroke="#bfbfbf" points="173.5,-0.5 173.5,-19.5 232.5,-19.5 232.5,-0.5 173.5,-0.5"/>
<text text-anchor="middle" x="203" y="-7.5" font-family="Consolas" font-size="10.00">stdalign.h</text>
</a>
</g>
</g>
<!-- Node6&#45;&gt;Node7 -->
<g id="edge6" class="edge">
<title>Node6&#45;&gt;Node7</title>
<path fill="none" stroke="midnightblue" d="M203,-56.08C203,-49.01 203,-38.86 203,-29.99"/>
<polygon fill="midnightblue" stroke="midnightblue" points="206.5,-29.75 203,-19.75 199.5,-29.75 206.5,-29.75"/>
</g>
<!-- Node8&#45;&gt;Node6 -->
<g id="edge8" class="edge">
<title>Node8&#45;&gt;Node6</title>
<path fill="none" stroke="midnightblue" d="M174.61,-112.08C179.37,-104.53 186.32,-93.49 192.15,-84.23"/>
<polygon fill="midnightblue" stroke="midnightblue" points="195.12,-86.08 197.49,-75.75 189.2,-82.35 195.12,-86.08"/>
</g>
<!-- Node9&#45;&gt;Node6 -->
<g id="edge10" class="edge">
<title>Node9&#45;&gt;Node6</title>
<path fill="none" stroke="midnightblue" d="M234.52,-168.14C230.99,-155.6 224.25,-131.97 218,-112 215.23,-103.15 212,-93.37 209.24,-85.2"/>
<polygon fill="midnightblue" stroke="midnightblue" points="212.51,-83.94 205.97,-75.6 205.88,-86.19 212.51,-83.94"/>
</g>
<!-- Node9&#45;&gt;Node8 -->
<g id="edge11" class="edge">
<title>Node9&#45;&gt;Node8</title>
<path fill="none" stroke="midnightblue" d="M226.07,-168.32C215.83,-160.18 200.28,-147.84 188,-138.09"/>
<polygon fill="midnightblue" stroke="midnightblue" points="190.13,-135.31 180.12,-131.83 185.78,-140.79 190.13,-135.31"/>
</g>
<!-- Node10&#45;&gt;Node6 -->
<g id="edge13" class="edge">
<title>Node10&#45;&gt;Node6</title>
<path fill="none" stroke="midnightblue" d="M291.97,-112.32C274.97,-103.66 248.62,-90.24 229.01,-80.25"/>
<polygon fill="midnightblue" stroke="midnightblue" points="230.49,-77.08 219.99,-75.65 227.31,-83.31 230.49,-77.08"/>
</g>
<!-- Node11&#45;&gt;Node5 -->
<g id="edge15" class="edge">
<title>Node11&#45;&gt;Node5</title>
<path fill="none" stroke="midnightblue" d="M291.97,-280.32C274.97,-271.66 248.62,-258.24 229.01,-248.25"/>
<polygon fill="midnightblue" stroke="midnightblue" points="230.49,-245.08 219.99,-243.65 227.31,-251.31 230.49,-245.08"/>
</g>
<!-- Node12&#45;&gt;Node5 -->
<g id="edge17" class="edge">
<title>Node12&#45;&gt;Node5</title>
<path fill="none" stroke="midnightblue" d="M215.52,-280.08C213.51,-272.85 210.61,-262.41 208.11,-253.4"/>
<polygon fill="midnightblue" stroke="midnightblue" points="211.48,-252.45 205.43,-243.75 204.74,-254.32 211.48,-252.45"/>
</g>
<!-- Node13&#45;&gt;Node4 -->
<g id="edge20" class="edge">
<title>Node13&#45;&gt;Node4</title>
<path fill="none" stroke="midnightblue" d="M53.85,-280.32C66.22,-271.98 85.13,-259.21 99.74,-249.35"/>
<polygon fill="midnightblue" stroke="midnightblue" points="101.85,-252.15 108.18,-243.65 97.93,-246.35 101.85,-252.15"/>
</g>
<!-- Node13&#45;&gt;Node5 -->
<g id="edge21" class="edge">
<title>Node13&#45;&gt;Node5</title>
<path fill="none" stroke="midnightblue" d="M66.67,-280.44C94.08,-271.31 137.69,-256.77 168.19,-246.6"/>
<polygon fill="midnightblue" stroke="midnightblue" points="169.6,-249.82 177.98,-243.34 167.39,-243.18 169.6,-249.82"/>
</g>
<!-- Node14 -->
<g id="node14" class="node">
<title>Node14</title>
<g id="a_node14"><a xlink:title=" ">
<polygon fill="white" stroke="#bfbfbf" points="15,-224.5 15,-243.5 67,-243.5 67,-224.5 15,-224.5"/>
<text text-anchor="middle" x="41" y="-231.5" font-family="Consolas" font-size="10.00">stddef.h</text>
</a>
</g>
</g>
<!-- Node13&#45;&gt;Node14 -->
<g id="edge19" class="edge">
<title>Node13&#45;&gt;Node14</title>
<path fill="none" stroke="midnightblue" d="M41,-280.08C41,-273.01 41,-262.86 41,-253.99"/>
<polygon fill="midnightblue" stroke="midnightblue" points="44.5,-253.75 41,-243.75 37.5,-253.75 44.5,-253.75"/>
</g>
<!-- Node15&#45;&gt;Node3 -->
<g id="edge23" class="edge">
<title>Node15&#45;&gt;Node3</title>
<path fill="none" stroke="midnightblue" d="M112.8,-336.08C115.91,-328.77 120.42,-318.18 124.29,-309.1"/>
<polygon fill="midnightblue" stroke="midnightblue" points="127.57,-310.32 128.27,-299.75 121.13,-307.58 127.57,-310.32"/>
</g>
<!-- Node15&#45;&gt;Node11 -->
<g id="edge24" class="edge">
<title>Node15&#45;&gt;Node11</title>
<path fill="none" stroke="midnightblue" d="M140.69,-336.44C175.07,-327.16 230.08,-312.31 267.79,-302.13"/>
<polygon fill="midnightblue" stroke="midnightblue" points="268.72,-305.5 277.46,-299.52 266.89,-298.74 268.72,-305.5"/>
</g>
<!-- Node15&#45;&gt;Node12 -->
<g id="edge25" class="edge">
<title>Node15&#45;&gt;Node12</title>
<path fill="none" stroke="midnightblue" d="M126.51,-336.32C144.07,-327.62 171.33,-314.12 191.53,-304.11"/>
<polygon fill="midnightblue" stroke="midnightblue" points="193.12,-307.23 200.53,-299.65 190.02,-300.96 193.12,-307.23"/>
</g>
<!-- Node15&#45;&gt;Node13 -->
<g id="edge26" class="edge">
<title>Node15&#45;&gt;Node13</title>
<path fill="none" stroke="midnightblue" d="M98.07,-336.32C87.83,-328.18 72.28,-315.84 60,-306.09"/>
<polygon fill="midnightblue" stroke="midnightblue" points="62.13,-303.31 52.12,-299.83 57.78,-308.79 62.13,-303.31"/>
</g>
</g>
</svg>
