<?xml version="1.0" encoding="UTF-8" standalone="no"?>
<!DOCTYPE svg PUBLIC "-//W3C//DTD SVG 1.1//EN"
 "http://www.w3.org/Graphics/SVG/1.1/DTD/svg11.dtd">
<!-- Generated by graphviz version 2.43.0 (0)
 -->
<!-- Title: libccc/random/random.h Pages: 1 -->
<!--zoomable 476 -->
<svg id="main" version="1.1" xmlns="http://www.w3.org/2000/svg" xmlns:xlink="http://www.w3.org/1999/xlink" xml:space="preserve" onload="init(evt)">
<style type="text/css"><![CDATA[
.edge:hover path { stroke: red; }
.edge:hover polygon { stroke: red; fill: red; }
]]></style>
<script type="text/javascript"><![CDATA[
var edges = document.getElementsByTagName('g');
if (edges && edges.length) {
  for (var i=0;i<edges.length;i++) {
    if (edges[i].id.substr(0,4)=='edge') {
      edges[i].setAttribute('class','edge');
    }
  }
}
]]></script>
        <defs>
                <circle id="rim" cx="0" cy="0" r="7"/>
                <circle id="rim2" cx="0" cy="0" r="3.5"/>
                <g id="zoomPlus">
                        <use xlink:href="#rim" fill="#404040">
                                <set attributeName="fill" to="#808080" begin="zoomplus.mouseover" end="zoomplus.mouseout"/>
                        </use>
                        <path d="M-4,0h8M0,-4v8" fill="none" stroke="white" stroke-width="1.5" pointer-events="none"/>
                </g>
                <g id="zoomMin">
                        <use xlink:href="#rim" fill="#404040">
                                <set attributeName="fill" to="#808080" begin="zoomminus.mouseover" end="zoomminus.mouseout"/>
                        </use>
                        <path d="M-4,0h8" fill="none" stroke="white" stroke-width="1.5" pointer-events="none"/>
                </g>
                <g id="dirArrow">
                        <path fill="none" stroke="white" stroke-width="1.5" d="M0,-3.0v7 M-2.5,-0.5L0,-3.0L2.5,-0.5"/>
                </g>
               <g id="resetDef">
                       <use xlink:href="#rim2" fill="#404040">
                               <set attributeName="fill" to="#808080" begin="reset.mouseover" end="reset.mouseout"/>
                       </use>
               </g>
        </defs>

<script type="text/javascript">
var viewWidth = 402;
var viewHeight = 476;
var sectionId = 'dynsection-0';
</script>
<script xlink:href="svgpan.js"/>
<svg id="graph" class="graph">
<g id="viewport">
<title>libccc/random/random.h</title>
<polygon fill="white" stroke="transparent" points="-4,4 -4,-472 397.5,-472 397.5,4 -4,4"/>
<!-- Node1 -->
<g id="node1" class="node">
<title>Node1</title>
<g id="a_node1"><a xlink:title=" ">
<polygon fill="#bfbfbf" stroke="black" points="142,-448.5 142,-467.5 274,-467.5 274,-448.5 142,-448.5"/>
<text text-anchor="middle" x="208" y="-455.5" font-family="Consolas" font-size="10.00">libccc/random/random.h</text>
</a>
</g>
</g>
<!-- Node2 -->
<g id="node2" class="node">
<title>Node2</title>
<g id="a_node2"><a xlink:href="prng_8h.html" target="_top" xlink:title=" ">
<polygon fill="white" stroke="black" points="220,-392.5 220,-411.5 342,-411.5 342,-392.5 220,-392.5"/>
<text text-anchor="middle" x="281" y="-399.5" font-family="Consolas" font-size="10.00">libccc/random/prng.h</text>
</a>
</g>
</g>
<!-- Node1&#45;&gt;Node2 -->
<g id="edge1" class="edge">
<title>Node1&#45;&gt;Node2</title>
<path fill="none" stroke="midnightblue" d="M219.73,-448.32C230.84,-440.11 247.74,-427.6 260.98,-417.81"/>
<polygon fill="midnightblue" stroke="midnightblue" points="263.1,-420.59 269.06,-411.83 258.94,-414.97 263.1,-420.59"/>
</g>
<!-- Node15 -->
<g id="node15" class="node">
<title>Node15</title>
<g id="a_node15"><a xlink:href="csprng_8h.html" target="_top" xlink:title=" ">
<polygon fill="white" stroke="black" points="70,-392.5 70,-411.5 202,-411.5 202,-392.5 70,-392.5"/>
<text text-anchor="middle" x="136" y="-399.5" font-family="Consolas" font-size="10.00">libccc/random/csprng.h</text>
</a>
</g>
</g>
<!-- Node1&#45;&gt;Node15 -->
<g id="edge23" class="edge">
<title>Node1&#45;&gt;Node15</title>
<path fill="none" stroke="midnightblue" d="M196.43,-448.32C185.58,-440.18 169.12,-427.84 156.12,-418.09"/>
<polygon fill="midnightblue" stroke="midnightblue" points="157.88,-415.03 147.78,-411.83 153.68,-420.63 157.88,-415.03"/>
</g>
<!-- Node3 -->
<g id="node3" class="node">
<title>Node3</title>
<g id="a_node3"><a xlink:href="int_8h.html" target="_top" xlink:title=" ">
<polygon fill="white" stroke="black" points="179,-280.5 179,-299.5 259,-299.5 259,-280.5 179,-280.5"/>
<text text-anchor="middle" x="219" y="-287.5" font-family="Consolas" font-size="10.00">libccc/int.h</text>
</a>
</g>
</g>
<!-- Node2&#45;&gt;Node3 -->
<g id="edge2" class="edge">
<title>Node2&#45;&gt;Node3</title>
<path fill="none" stroke="midnightblue" d="M276.13,-392.37C265.95,-374.3 242.21,-332.18 228.76,-308.31"/>
<polygon fill="midnightblue" stroke="midnightblue" points="231.8,-306.58 223.84,-299.59 225.7,-310.02 231.8,-306.58"/>
</g>
<!-- Node11 -->
<g id="node11" class="node">
<title>Node11</title>
<g id="a_node11"><a xlink:href="fixed_8h.html" target="_top" xlink:title=" ">
<polygon fill="white" stroke="black" points="108,-336.5 108,-355.5 198,-355.5 198,-336.5 108,-336.5"/>
<text text-anchor="middle" x="153" y="-343.5" font-family="Consolas" font-size="10.00">libccc/fixed.h</text>
</a>
</g>
</g>
<!-- Node2&#45;&gt;Node11 -->
<g id="edge14" class="edge">
<title>Node2&#45;&gt;Node11</title>
<path fill="none" stroke="midnightblue" d="M260.72,-392.44C239.65,-383.56 206.48,-369.56 182.51,-359.45"/>
<polygon fill="midnightblue" stroke="midnightblue" points="183.76,-356.18 173.19,-355.52 181.04,-362.63 183.76,-356.18"/>
</g>
<!-- Node12 -->
<g id="node12" class="node">
<title>Node12</title>
<g id="a_node12"><a xlink:href="float_8h.html" target="_top" xlink:title=" ">
<polygon fill="white" stroke="black" points="0,-336.5 0,-355.5 90,-355.5 90,-336.5 0,-336.5"/>
<text text-anchor="middle" x="45" y="-343.5" font-family="Consolas" font-size="10.00">libccc/float.h</text>
</a>
</g>
</g>
<!-- Node2&#45;&gt;Node12 -->
<g id="edge17" class="edge">
<title>Node2&#45;&gt;Node12</title>
<path fill="none" stroke="midnightblue" d="M243.61,-392.44C202.61,-383.06 136.75,-367.99 92.22,-357.8"/>
<polygon fill="midnightblue" stroke="midnightblue" points="92.75,-354.34 82.22,-355.52 91.19,-361.16 92.75,-354.34"/>
</g>
<!-- Node13 -->
<g id="node13" class="node">
<title>Node13</title>
<g id="a_node13"><a xlink:href="pointer_8h.html" target="_top" xlink:title=" ">
<polygon fill="white" stroke="black" points="292.5,-336.5 292.5,-355.5 393.5,-355.5 393.5,-336.5 292.5,-336.5"/>
<text text-anchor="middle" x="343" y="-343.5" font-family="Consolas" font-size="10.00">libccc/pointer.h</text>
</a>
</g>
</g>
<!-- Node2&#45;&gt;Node13 -->
<g id="edge19" class="edge">
<title>Node2&#45;&gt;Node13</title>
<path fill="none" stroke="midnightblue" d="M290.96,-392.32C300.13,-384.34 313.94,-372.31 325.03,-362.65"/>
<polygon fill="midnightblue" stroke="midnightblue" points="327.62,-365.04 332.86,-355.83 323.02,-359.76 327.62,-365.04"/>
</g>
<!-- Node4 -->
<g id="node4" class="node">
<title>Node4</title>
<g id="a_node4"><a xlink:title=" ">
<polygon fill="white" stroke="#bfbfbf" points="302.5,-224.5 302.5,-243.5 361.5,-243.5 361.5,-224.5 302.5,-224.5"/>
<text text-anchor="middle" x="332" y="-231.5" font-family="Consolas" font-size="10.00">stdint.h</text>
</a>
</g>
</g>
<!-- Node3&#45;&gt;Node4 -->
<g id="edge3" class="edge">
<title>Node3&#45;&gt;Node4</title>
<path fill="none" stroke="midnightblue" d="M236.91,-280.44C255.25,-271.68 284.01,-257.94 305.09,-247.86"/>
<polygon fill="midnightblue" stroke="midnightblue" points="306.67,-250.99 314.18,-243.52 303.65,-244.67 306.67,-250.99"/>
</g>
<!-- Node5 -->
<g id="node5" class="node">
<title>Node5</title>
<g id="a_node5"><a xlink:href="libccc_8h.html" target="_top" xlink:title=" ">
<polygon fill="white" stroke="black" points="155.5,-224.5 155.5,-243.5 214.5,-243.5 214.5,-224.5 155.5,-224.5"/>
<text text-anchor="middle" x="185" y="-231.5" font-family="Consolas" font-size="10.00">libccc.h</text>
</a>
</g>
</g>
<!-- Node3&#45;&gt;Node5 -->
<g id="edge4" class="edge">
<title>Node3&#45;&gt;Node5</title>
<path fill="none" stroke="midnightblue" d="M213.39,-280.08C208.63,-272.53 201.68,-261.49 195.85,-252.23"/>
<polygon fill="midnightblue" stroke="midnightblue" points="198.8,-250.35 190.51,-243.75 192.88,-254.08 198.8,-250.35"/>
</g>
<!-- Node6 -->
<g id="node6" class="node">
<title>Node6</title>
<g id="a_node6"><a xlink:href="libccc__define_8h.html" target="_top" xlink:title=" ">
<polygon fill="white" stroke="black" points="137.5,-56.5 137.5,-75.5 232.5,-75.5 232.5,-56.5 137.5,-56.5"/>
<text text-anchor="middle" x="185" y="-63.5" font-family="Consolas" font-size="10.00">libccc_define.h</text>
</a>
</g>
</g>
<!-- Node5&#45;&gt;Node6 -->
<g id="edge5" class="edge">
<title>Node5&#45;&gt;Node6</title>
<path fill="none" stroke="midnightblue" d="M169,-224.5C135.12,-205.36 61.51,-157.02 90,-112 100.05,-96.13 117.37,-85.74 134.5,-79"/>
<polygon fill="midnightblue" stroke="midnightblue" points="135.71,-82.28 143.95,-75.62 133.35,-75.69 135.71,-82.28"/>
</g>
<!-- Node8 -->
<g id="node8" class="node">
<title>Node8</title>
<g id="a_node8"><a xlink:href="libccc__errors_8h.html" target="_top" xlink:title=" ">
<polygon fill="white" stroke="black" points="99.5,-112.5 99.5,-131.5 194.5,-131.5 194.5,-112.5 99.5,-112.5"/>
<text text-anchor="middle" x="147" y="-119.5" font-family="Consolas" font-size="10.00">libccc_errors.h</text>
</a>
</g>
</g>
<!-- Node5&#45;&gt;Node8 -->
<g id="edge7" class="edge">
<title>Node5&#45;&gt;Node8</title>
<path fill="none" stroke="midnightblue" d="M181.06,-224.49C176.99,-215.53 170.61,-200.94 166,-188 160.46,-172.42 155.27,-154.35 151.72,-141.22"/>
<polygon fill="midnightblue" stroke="midnightblue" points="155.1,-140.29 149.15,-131.51 148.33,-142.08 155.1,-140.29"/>
</g>
<!-- Node9 -->
<g id="node9" class="node">
<title>Node9</title>
<g id="a_node9"><a xlink:href="libccc__config_8h.html" target="_top" xlink:title=" ">
<polygon fill="white" stroke="black" points="175.5,-168.5 175.5,-187.5 270.5,-187.5 270.5,-168.5 175.5,-168.5"/>
<text text-anchor="middle" x="223" y="-175.5" font-family="Consolas" font-size="10.00">libccc_config.h</text>
</a>
</g>
</g>
<!-- Node5&#45;&gt;Node9 -->
<g id="edge9" class="edge">
<title>Node5&#45;&gt;Node9</title>
<path fill="none" stroke="midnightblue" d="M191.27,-224.08C196.64,-216.46 204.52,-205.26 211.08,-195.94"/>
<polygon fill="midnightblue" stroke="midnightblue" points="213.95,-197.94 216.84,-187.75 208.22,-193.91 213.95,-197.94"/>
</g>
<!-- Node10 -->
<g id="node10" class="node">
<title>Node10</title>
<g id="a_node10"><a xlink:href="libccc__naming_8h.html" target="_top" xlink:title=" ">
<polygon fill="white" stroke="black" points="251.5,-112.5 251.5,-131.5 346.5,-131.5 346.5,-112.5 251.5,-112.5"/>
<text text-anchor="middle" x="299" y="-119.5" font-family="Consolas" font-size="10.00">libccc_naming.h</text>
</a>
</g>
</g>
<!-- Node5&#45;&gt;Node10 -->
<g id="edge12" class="edge">
<title>Node5&#45;&gt;Node10</title>
<path fill="none" stroke="midnightblue" d="M214.73,-225.9C235.79,-219.4 263.18,-207.71 280,-188 291.08,-175.02 295.7,-155.85 297.63,-141.69"/>
<polygon fill="midnightblue" stroke="midnightblue" points="301.12,-141.93 298.67,-131.63 294.16,-141.22 301.12,-141.93"/>
</g>
<!-- Node7 -->
<g id="node7" class="node">
<title>Node7</title>
<g id="a_node7"><a xlink:title=" ">
<polygon fill="white" stroke="#bfbfbf" points="150.5,-0.5 150.5,-19.5 219.5,-19.5 219.5,-0.5 150.5,-0.5"/>
<text text-anchor="middle" x="185" y="-7.5" font-family="Consolas" font-size="10.00">stdalign.h</text>
</a>
</g>
</g>
<!-- Node6&#45;&gt;Node7 -->
<g id="edge6" class="edge">
<title>Node6&#45;&gt;Node7</title>
<path fill="none" stroke="midnightblue" d="M185,-56.08C185,-49.01 185,-38.86 185,-29.99"/>
<polygon fill="midnightblue" stroke="midnightblue" points="188.5,-29.75 185,-19.75 181.5,-29.75 188.5,-29.75"/>
</g>
<!-- Node8&#45;&gt;Node6 -->
<g id="edge8" class="edge">
<title>Node8&#45;&gt;Node6</title>
<path fill="none" stroke="midnightblue" d="M153.27,-112.08C158.64,-104.46 166.52,-93.26 173.08,-83.94"/>
<polygon fill="midnightblue" stroke="midnightblue" points="175.95,-85.94 178.84,-75.75 170.22,-81.91 175.95,-85.94"/>
</g>
<!-- Node9&#45;&gt;Node6 -->
<g id="edge10" class="edge">
<title>Node9&#45;&gt;Node6</title>
<path fill="none" stroke="midnightblue" d="M220.85,-168.49C217.61,-155.97 211.1,-131.94 204,-112 200.76,-102.9 196.64,-92.99 193.07,-84.79"/>
<polygon fill="midnightblue" stroke="midnightblue" points="196.2,-83.22 188.94,-75.51 189.81,-86.07 196.2,-83.22"/>
</g>
<!-- Node9&#45;&gt;Node8 -->
<g id="edge11" class="edge">
<title>Node9&#45;&gt;Node8</title>
<path fill="none" stroke="midnightblue" d="M210.79,-168.32C199.22,-160.11 181.62,-147.6 167.84,-137.81"/>
<polygon fill="midnightblue" stroke="midnightblue" points="169.61,-134.77 159.43,-131.83 165.56,-140.48 169.61,-134.77"/>
</g>
<!-- Node10&#45;&gt;Node6 -->
<g id="edge13" class="edge">
<title>Node10&#45;&gt;Node6</title>
<path fill="none" stroke="midnightblue" d="M280.94,-112.44C262.43,-103.68 233.42,-89.94 212.14,-79.86"/>
<polygon fill="midnightblue" stroke="midnightblue" points="213.51,-76.63 202.98,-75.52 210.52,-82.96 213.51,-76.63"/>
</g>
<!-- Node11&#45;&gt;Node3 -->
<g id="edge16" class="edge">
<title>Node11&#45;&gt;Node3</title>
<path fill="none" stroke="midnightblue" d="M163.6,-336.32C173.46,-328.26 188.35,-316.08 200.22,-306.37"/>
<polygon fill="midnightblue" stroke="midnightblue" points="202.68,-308.88 208.2,-299.83 198.25,-303.46 202.68,-308.88"/>
</g>
<!-- Node11&#45;&gt;Node5 -->
<g id="edge15" class="edge">
<title>Node11&#45;&gt;Node5</title>
<path fill="none" stroke="midnightblue" d="M155.13,-336.12C158.18,-323.55 164.09,-299.9 170,-280 172.64,-271.11 175.86,-261.33 178.64,-253.16"/>
<polygon fill="midnightblue" stroke="midnightblue" points="182,-254.17 181.95,-243.57 175.38,-251.88 182,-254.17"/>
</g>
<!-- Node12&#45;&gt;Node5 -->
<g id="edge18" class="edge">
<title>Node12&#45;&gt;Node5</title>
<path fill="none" stroke="midnightblue" d="M55.99,-336.37C79.81,-317.65 136.44,-273.15 166.12,-249.83"/>
<polygon fill="midnightblue" stroke="midnightblue" points="168.36,-252.52 174.07,-243.59 164.04,-247.02 168.36,-252.52"/>
</g>
<!-- Node13&#45;&gt;Node4 -->
<g id="edge21" class="edge">
<title>Node13&#45;&gt;Node4</title>
<path fill="none" stroke="midnightblue" d="M355.11,-336.39C370.46,-324.33 393.82,-301.48 384,-280 378.22,-267.36 366.95,-256.91 356.37,-249.27"/>
<polygon fill="midnightblue" stroke="midnightblue" points="358.04,-246.18 347.78,-243.53 354.15,-252 358.04,-246.18"/>
</g>
<!-- Node13&#45;&gt;Node5 -->
<g id="edge22" class="edge">
<title>Node13&#45;&gt;Node5</title>
<path fill="none" stroke="midnightblue" d="M334.29,-336.32C320.81,-323.17 293.79,-297.85 268,-280 250.42,-267.83 229.22,-256.39 212.64,-248.08"/>
<polygon fill="midnightblue" stroke="midnightblue" points="213.99,-244.85 203.48,-243.57 210.9,-251.13 213.99,-244.85"/>
</g>
<!-- Node14 -->
<g id="node14" class="node">
<title>Node14</title>
<g id="a_node14"><a xlink:title=" ">
<polygon fill="white" stroke="#bfbfbf" points="315.5,-280.5 315.5,-299.5 374.5,-299.5 374.5,-280.5 315.5,-280.5"/>
<text text-anchor="middle" x="345" y="-287.5" font-family="Consolas" font-size="10.00">stddef.h</text>
</a>
</g>
</g>
<!-- Node13&#45;&gt;Node14 -->
<g id="edge20" class="edge">
<title>Node13&#45;&gt;Node14</title>
<path fill="none" stroke="midnightblue" d="M343.33,-336.08C343.59,-329.01 343.97,-318.86 344.3,-309.99"/>
<polygon fill="midnightblue" stroke="midnightblue" points="347.8,-309.87 344.68,-299.75 340.81,-309.61 347.8,-309.87"/>
</g>
<!-- Node15&#45;&gt;Node3 -->
<g id="edge24" class="edge">
<title>Node15&#45;&gt;Node3</title>
<path fill="none" stroke="midnightblue" d="M158.8,-392.39C174.82,-385.14 195.4,-373.17 207,-356 216.14,-342.48 218.82,-323.93 219.41,-310.1"/>
<polygon fill="midnightblue" stroke="midnightblue" points="222.91,-309.85 219.5,-299.82 215.91,-309.78 222.91,-309.85"/>
</g>
<!-- Node15&#45;&gt;Node11 -->
<g id="edge25" class="edge">
<title>Node15&#45;&gt;Node11</title>
<path fill="none" stroke="midnightblue" d="M138.81,-392.08C141.08,-384.85 144.37,-374.41 147.21,-365.4"/>
<polygon fill="midnightblue" stroke="midnightblue" points="150.58,-366.34 150.25,-355.75 143.9,-364.24 150.58,-366.34"/>
</g>
<!-- Node15&#45;&gt;Node12 -->
<g id="edge26" class="edge">
<title>Node15&#45;&gt;Node12</title>
<path fill="none" stroke="midnightblue" d="M121.38,-392.32C107.05,-383.82 84.99,-370.73 68.25,-360.8"/>
<polygon fill="midnightblue" stroke="midnightblue" points="69.97,-357.75 59.58,-355.65 66.4,-363.77 69.97,-357.75"/>
</g>
<!-- Node15&#45;&gt;Node13 -->
<g id="edge27" class="edge">
<title>Node15&#45;&gt;Node13</title>
<path fill="none" stroke="midnightblue" d="M168.8,-392.44C204.38,-383.16 261.31,-368.31 300.35,-358.13"/>
<polygon fill="midnightblue" stroke="midnightblue" points="301.56,-361.43 310.35,-355.52 299.79,-354.65 301.56,-361.43"/>
</g>
</g>
</svg>
        <g id="navigator" transform="translate(0 0)" fill="#404254">
                <rect fill="#f2f5e9" fill-opacity="0.5" stroke="#606060" stroke-width=".5" x="0" y="0" width="60" height="60"/>
                <use id="zoomplus" xlink:href="#zoomPlus" x="17" y="9" onmousedown="handleZoom(evt,'in')"/>
                <use id="zoomminus" xlink:href="#zoomMin" x="42" y="9" onmousedown="handleZoom(evt,'out')"/>
                <use id="reset" xlink:href="#resetDef" x="30" y="36" onmousedown="handleReset()"/>
                <g id="arrowUp" xlink:href="#dirArrow" transform="translate(30 24)" onmousedown="handlePan(0,-1)">
                  <use xlink:href="#rim" fill="#404040">
                        <set attributeName="fill" to="#808080" begin="arrowUp.mouseover" end="arrowUp.mouseout"/>
                  </use>
                  <path fill="none" stroke="white" stroke-width="1.5" d="M0,-3.0v7 M-2.5,-0.5L0,-3.0L2.5,-0.5"/>
                </g>
                <g id="arrowRight" xlink:href="#dirArrow" transform="rotate(90) translate(36 -43)" onmousedown="handlePan(1,0)">
                  <use xlink:href="#rim" fill="#404040">
                        <set attributeName="fill" to="#808080" begin="arrowRight.mouseover" end="arrowRight.mouseout"/>
                  </use>
                  <path fill="none" stroke="white" stroke-width="1.5" d="M0,-3.0v7 M-2.5,-0.5L0,-3.0L2.5,-0.5"/>
                </g>
                <g id="arrowDown" xlink:href="#dirArrow" transform="rotate(180) translate(-30 -48)" onmousedown="handlePan(0,1)">
                  <use xlink:href="#rim" fill="#404040">
                        <set attributeName="fill" to="#808080" begin="arrowDown.mouseover" end="arrowDown.mouseout"/>
                  </use>
                  <path fill="none" stroke="white" stroke-width="1.5" d="M0,-3.0v7 M-2.5,-0.5L0,-3.0L2.5,-0.5"/>
                </g>
                <g id="arrowLeft" xlink:href="#dirArrow" transform="rotate(270) translate(-36 17)" onmousedown="handlePan(-1,0)">
                  <use xlink:href="#rim" fill="#404040">
                        <set attributeName="fill" to="#808080" begin="arrowLeft.mouseover" end="arrowLeft.mouseout"/>
                  </use>
                  <path fill="none" stroke="white" stroke-width="1.5" d="M0,-3.0v7 M-2.5,-0.5L0,-3.0L2.5,-0.5"/>
                </g>
        </g>
        <svg viewBox="0 0 15 15" width="100%" height="30px" preserveAspectRatio="xMaxYMin meet">
         <g id="arrow_out" transform="scale(0.3 0.3)">
          <a xlink:href="random_8h__incl_org.svg" target="_base">
           <rect id="button" ry="5" rx="5" y="6" x="6" height="38" width="38"
                fill="#f2f5e9" fill-opacity="0.5" stroke="#606060" stroke-width="1.0"/>
           <path id="arrow"
             d="M 11.500037,31.436501 C 11.940474,20.09759 22.043105,11.32322 32.158766,21.979434 L 37.068811,17.246167 C 37.068811,17.246167 37.088388,32 37.088388,32 L 22.160133,31.978069 C 22.160133,31.978069 26.997745,27.140456 26.997745,27.140456 C 18.528582,18.264221 13.291696,25.230495 11.500037,31.436501 z"
             style="fill:#404040;"/>
          </a>
         </g>
        </svg>
</svg>
