<?xml version="1.0" encoding="UTF-8" standalone="no"?>
<!DOCTYPE svg PUBLIC "-//W3C//DTD SVG 1.1//EN"
 "http://www.w3.org/Graphics/SVG/1.1/DTD/svg11.dtd">
<!-- Generated by graphviz version 3.0.0 (20220226.1711)
 -->
<!-- Title: libccc/random/random.h Pages: 1 -->
<svg width="356pt" height="420pt"
 viewBox="0.00 0.00 355.50 420.00" xmlns="http://www.w3.org/2000/svg" xmlns:xlink="http://www.w3.org/1999/xlink">
<g id="graph0" class="graph" transform="scale(1 1) rotate(0) translate(4 416)">
<title>libccc/random/random.h</title>
<polygon fill="white" stroke="transparent" points="-4,4 -4,-416 351.5,-416 351.5,4 -4,4"/>
<!-- Node1 -->
<g id="node1" class="node">
<title>Node1</title>
<g id="a_node1"><a xlink:title=" ">
<polygon fill="#bfbfbf" stroke="black" points="113.5,-392.5 113.5,-411.5 234.5,-411.5 234.5,-392.5 113.5,-392.5"/>
<text text-anchor="middle" x="174" y="-399.5" font-family="Consolas" font-size="10.00">libccc/random/random.h</text>
</a>
</g>
</g>
<!-- Node2 -->
<g id="node2" class="node">
<title>Node2</title>
<g id="a_node2"><a xlink:href="$prng_8h.html" xlink:title=" ">
<polygon fill="white" stroke="black" points="186.5,-336.5 186.5,-355.5 293.5,-355.5 293.5,-336.5 186.5,-336.5"/>
<text text-anchor="middle" x="240" y="-343.5" font-family="Consolas" font-size="10.00">libccc/random/prng.h</text>
</a>
</g>
</g>
<!-- Node1&#45;&gt;Node2 -->
<g id="edge1" class="edge">
<title>Node1&#45;&gt;Node2</title>
<path fill="none" stroke="midnightblue" d="M184.6,-392.32C194.46,-384.26 209.35,-372.08 221.22,-362.37"/>
<polygon fill="midnightblue" stroke="midnightblue" points="223.68,-364.88 229.2,-355.83 219.25,-359.46 223.68,-364.88"/>
</g>
<!-- Node16 -->
<g id="node16" class="node">
<title>Node16</title>
<g id="a_node16"><a xlink:href="$csprng_8h.html" xlink:title=" ">
<polygon fill="white" stroke="black" points="50,-336.5 50,-355.5 168,-355.5 168,-336.5 50,-336.5"/>
<text text-anchor="middle" x="109" y="-343.5" font-family="Consolas" font-size="10.00">libccc/random/csprng.h</text>
</a>
</g>
</g>
<!-- Node1&#45;&gt;Node16 -->
<g id="edge23" class="edge">
<title>Node1&#45;&gt;Node16</title>
<path fill="none" stroke="midnightblue" d="M163.56,-392.32C153.85,-384.26 139.18,-372.08 127.5,-362.37"/>
<polygon fill="midnightblue" stroke="midnightblue" points="129.56,-359.53 119.63,-355.83 125.09,-364.92 129.56,-359.53"/>
</g>
<!-- Node3 -->
<g id="node3" class="node">
<title>Node3</title>
<g id="a_node3"><a xlink:href="$int_8h.html" xlink:title=" ">
<polygon fill="white" stroke="black" points="100,-280.5 100,-299.5 164,-299.5 164,-280.5 100,-280.5"/>
<text text-anchor="middle" x="132" y="-287.5" font-family="Consolas" font-size="10.00">libccc/int.h</text>
</a>
</g>
</g>
<!-- Node2&#45;&gt;Node3 -->
<g id="edge2" class="edge">
<title>Node2&#45;&gt;Node3</title>
<path fill="none" stroke="midnightblue" d="M222.65,-336.32C205.33,-327.66 178.48,-314.24 158.5,-304.25"/>
<polygon fill="midnightblue" stroke="midnightblue" points="159.82,-301 149.31,-299.65 156.69,-307.26 159.82,-301"/>
</g>
<!-- Node12 -->
<g id="node12" class="node">
<title>Node12</title>
<g id="a_node12"><a xlink:href="$fixed_8h.html" xlink:title=" ">
<polygon fill="white" stroke="black" points="272,-280.5 272,-299.5 346,-299.5 346,-280.5 272,-280.5"/>
<text text-anchor="middle" x="309" y="-287.5" font-family="Consolas" font-size="10.00">libccc/fixed.h</text>
</a>
</g>
</g>
<!-- Node2&#45;&gt;Node12 -->
<g id="edge15" class="edge">
<title>Node2&#45;&gt;Node12</title>
<path fill="none" stroke="midnightblue" d="M251.09,-336.32C261.49,-328.18 277.26,-315.84 289.72,-306.09"/>
<polygon fill="midnightblue" stroke="midnightblue" points="291.99,-308.75 297.71,-299.83 287.68,-303.24 291.99,-308.75"/>
</g>
<!-- Node13 -->
<g id="node13" class="node">
<title>Node13</title>
<g id="a_node13"><a xlink:href="$float_8h.html" xlink:title=" ">
<polygon fill="white" stroke="black" points="182,-280.5 182,-299.5 254,-299.5 254,-280.5 182,-280.5"/>
<text text-anchor="middle" x="218" y="-287.5" font-family="Consolas" font-size="10.00">libccc/float.h</text>
</a>
</g>
</g>
<!-- Node2&#45;&gt;Node13 -->
<g id="edge17" class="edge">
<title>Node2&#45;&gt;Node13</title>
<path fill="none" stroke="midnightblue" d="M236.37,-336.08C233.39,-328.77 229.07,-318.18 225.38,-309.1"/>
<polygon fill="midnightblue" stroke="midnightblue" points="228.58,-307.69 221.57,-299.75 222.1,-310.33 228.58,-307.69"/>
</g>
<!-- Node14 -->
<g id="node14" class="node">
<title>Node14</title>
<g id="a_node14"><a xlink:href="$pointer_8h.html" xlink:title=" ">
<polygon fill="white" stroke="black" points="0,-280.5 0,-299.5 82,-299.5 82,-280.5 0,-280.5"/>
<text text-anchor="middle" x="41" y="-287.5" font-family="Consolas" font-size="10.00">libccc/pointer.h</text>
</a>
</g>
</g>
<!-- Node2&#45;&gt;Node14 -->
<g id="edge19" class="edge">
<title>Node2&#45;&gt;Node14</title>
<path fill="none" stroke="midnightblue" d="M208.47,-336.44C174.41,-327.2 119.99,-312.44 82.48,-302.26"/>
<polygon fill="midnightblue" stroke="midnightblue" points="82.95,-298.76 72.38,-299.52 81.12,-305.51 82.95,-298.76"/>
</g>
<!-- Node4 -->
<g id="node4" class="node">
<title>Node4</title>
<g id="a_node4"><a xlink:title=" ">
<polygon fill="white" stroke="#bfbfbf" points="96.5,-224.5 96.5,-243.5 145.5,-243.5 145.5,-224.5 96.5,-224.5"/>
<text text-anchor="middle" x="121" y="-231.5" font-family="Consolas" font-size="10.00">stdint.h</text>
</a>
</g>
</g>
<!-- Node3&#45;&gt;Node4 -->
<g id="edge3" class="edge">
<title>Node3&#45;&gt;Node4</title>
<path fill="none" stroke="midnightblue" d="M130.18,-280.08C128.73,-272.93 126.63,-262.64 124.81,-253.69"/>
<polygon fill="midnightblue" stroke="midnightblue" points="128.21,-252.85 122.78,-243.75 121.35,-254.25 128.21,-252.85"/>
</g>
<!-- Node5 -->
<g id="node5" class="node">
<title>Node5</title>
<g id="a_node5"><a xlink:href="$libccc_8h.html" xlink:title=" ">
<polygon fill="white" stroke="black" points="178,-224.5 178,-243.5 228,-243.5 228,-224.5 178,-224.5"/>
<text text-anchor="middle" x="203" y="-231.5" font-family="Consolas" font-size="10.00">libccc.h</text>
</a>
</g>
</g>
<!-- Node3&#45;&gt;Node5 -->
<g id="edge4" class="edge">
<title>Node3&#45;&gt;Node5</title>
<path fill="none" stroke="midnightblue" d="M143.41,-280.32C154.11,-272.18 170.34,-259.84 183.16,-250.09"/>
<polygon fill="midnightblue" stroke="midnightblue" points="185.54,-252.67 191.39,-243.83 181.31,-247.1 185.54,-252.67"/>
</g>
<!-- Node6 -->
<g id="node6" class="node">
<title>Node6</title>
<g id="a_node6"><a xlink:href="$libccc__define_8h.html" xlink:title=" ">
<polygon fill="white" stroke="black" points="128,-56.5 128,-75.5 210,-75.5 210,-56.5 128,-56.5"/>
<text text-anchor="middle" x="169" y="-63.5" font-family="Consolas" font-size="10.00">libccc_define.h</text>
</a>
</g>
</g>
<!-- Node5&#45;&gt;Node6 -->
<g id="edge5" class="edge">
<title>Node5&#45;&gt;Node6</title>
<path fill="none" stroke="midnightblue" d="M184.83,-224.39C156.84,-209.93 104.48,-177.79 86,-132 82.67,-123.76 81.45,-119.64 86,-112 95.1,-96.72 111.39,-86.31 127.14,-79.39"/>
<polygon fill="midnightblue" stroke="midnightblue" points="128.83,-82.48 136.82,-75.51 126.23,-75.98 128.83,-82.48"/>
</g>
<!-- Node8 -->
<g id="node8" class="node">
<title>Node8</title>
<g id="a_node8"><a xlink:href="$libccc__errors_8h.html" xlink:title=" ">
<polygon fill="white" stroke="black" points="95,-112.5 95,-131.5 175,-131.5 175,-112.5 95,-112.5"/>
<text text-anchor="middle" x="135" y="-119.5" font-family="Consolas" font-size="10.00">libccc_errors.h</text>
</a>
</g>
</g>
<!-- Node5&#45;&gt;Node8 -->
<g id="edge7" class="edge">
<title>Node5&#45;&gt;Node8</title>
<path fill="none" stroke="midnightblue" d="M189.57,-224.23C178.22,-216.13 162.34,-203.1 153,-188 144.24,-173.84 139.66,-155.36 137.32,-141.72"/>
<polygon fill="midnightblue" stroke="midnightblue" points="140.75,-141 135.83,-131.61 133.82,-142.01 140.75,-141"/>
</g>
<!-- Node9 -->
<g id="node9" class="node">
<title>Node9</title>
<g id="a_node9"><a xlink:href="$libccc__config_8h.html" xlink:title=" ">
<polygon fill="white" stroke="black" points="162,-168.5 162,-187.5 244,-187.5 244,-168.5 162,-168.5"/>
<text text-anchor="middle" x="203" y="-175.5" font-family="Consolas" font-size="10.00">libccc_config.h</text>
</a>
</g>
</g>
<!-- Node5&#45;&gt;Node9 -->
<g id="edge9" class="edge">
<title>Node5&#45;&gt;Node9</title>
<path fill="none" stroke="midnightblue" d="M203,-224.08C203,-217.01 203,-206.86 203,-197.99"/>
<polygon fill="midnightblue" stroke="midnightblue" points="206.5,-197.75 203,-187.75 199.5,-197.75 206.5,-197.75"/>
</g>
<!-- Node10 -->
<g id="node10" class="node">
<title>Node10</title>
<g id="a_node10"><a xlink:href="$libccc__naming_8h.html" xlink:title=" ">
<polygon fill="white" stroke="black" points="231.5,-112.5 231.5,-131.5 318.5,-131.5 318.5,-112.5 231.5,-112.5"/>
<text text-anchor="middle" x="275" y="-119.5" font-family="Consolas" font-size="10.00">libccc_naming.h</text>
</a>
</g>
</g>
<!-- Node5&#45;&gt;Node10 -->
<g id="edge12" class="edge">
<title>Node5&#45;&gt;Node10</title>
<path fill="none" stroke="midnightblue" d="M215.78,-224.42C227.03,-216.26 243.11,-203.02 253,-188 262.31,-173.85 268.07,-155.37 271.34,-141.73"/>
<polygon fill="midnightblue" stroke="midnightblue" points="274.84,-142.13 273.54,-131.61 268,-140.65 274.84,-142.13"/>
</g>
<!-- Node11 -->
<g id="node11" class="node">
<title>Node11</title>
<g id="a_node11"><a xlink:title=" ">
<polygon fill="white" stroke="#bfbfbf" points="300.5,-168.5 300.5,-187.5 347.5,-187.5 347.5,-168.5 300.5,-168.5"/>
<text text-anchor="middle" x="324" y="-175.5" font-family="Consolas" font-size="10.00">math.h</text>
</a>
</g>
</g>
<!-- Node5&#45;&gt;Node11 -->
<g id="edge14" class="edge">
<title>Node5&#45;&gt;Node11</title>
<path fill="none" stroke="midnightblue" d="M222.17,-224.44C241.91,-215.64 272.89,-201.81 295.49,-191.72"/>
<polygon fill="midnightblue" stroke="midnightblue" points="297.21,-194.79 304.92,-187.52 294.36,-188.4 297.21,-194.79"/>
</g>
<!-- Node7 -->
<g id="node7" class="node">
<title>Node7</title>
<g id="a_node7"><a xlink:title=" ">
<polygon fill="white" stroke="#bfbfbf" points="139.5,-0.5 139.5,-19.5 198.5,-19.5 198.5,-0.5 139.5,-0.5"/>
<text text-anchor="middle" x="169" y="-7.5" font-family="Consolas" font-size="10.00">stdalign.h</text>
</a>
</g>
</g>
<!-- Node6&#45;&gt;Node7 -->
<g id="edge6" class="edge">
<title>Node6&#45;&gt;Node7</title>
<path fill="none" stroke="midnightblue" d="M169,-56.08C169,-49.01 169,-38.86 169,-29.99"/>
<polygon fill="midnightblue" stroke="midnightblue" points="172.5,-29.75 169,-19.75 165.5,-29.75 172.5,-29.75"/>
</g>
<!-- Node8&#45;&gt;Node6 -->
<g id="edge8" class="edge">
<title>Node8&#45;&gt;Node6</title>
<path fill="none" stroke="midnightblue" d="M140.61,-112.08C145.37,-104.53 152.32,-93.49 158.15,-84.23"/>
<polygon fill="midnightblue" stroke="midnightblue" points="161.12,-86.08 163.49,-75.75 155.2,-82.35 161.12,-86.08"/>
</g>
<!-- Node9&#45;&gt;Node6 -->
<g id="edge10" class="edge">
<title>Node9&#45;&gt;Node6</title>
<path fill="none" stroke="midnightblue" d="M200.52,-168.14C196.99,-155.6 190.25,-131.97 184,-112 181.23,-103.15 178,-93.37 175.24,-85.2"/>
<polygon fill="midnightblue" stroke="midnightblue" points="178.51,-83.94 171.97,-75.6 171.88,-86.19 178.51,-83.94"/>
</g>
<!-- Node9&#45;&gt;Node8 -->
<g id="edge11" class="edge">
<title>Node9&#45;&gt;Node8</title>
<path fill="none" stroke="midnightblue" d="M192.07,-168.32C181.83,-160.18 166.28,-147.84 154,-138.09"/>
<polygon fill="midnightblue" stroke="midnightblue" points="156.13,-135.31 146.12,-131.83 151.78,-140.79 156.13,-135.31"/>
</g>
<!-- Node10&#45;&gt;Node6 -->
<g id="edge13" class="edge">
<title>Node10&#45;&gt;Node6</title>
<path fill="none" stroke="midnightblue" d="M257.97,-112.32C240.97,-103.66 214.62,-90.24 195.01,-80.25"/>
<polygon fill="midnightblue" stroke="midnightblue" points="196.49,-77.08 185.99,-75.65 193.31,-83.31 196.49,-77.08"/>
</g>
<!-- Node12&#45;&gt;Node5 -->
<g id="edge16" class="edge">
<title>Node12&#45;&gt;Node5</title>
<path fill="none" stroke="midnightblue" d="M291.97,-280.32C274.97,-271.66 248.62,-258.24 229.01,-248.25"/>
<polygon fill="midnightblue" stroke="midnightblue" points="230.49,-245.08 219.99,-243.65 227.31,-251.31 230.49,-245.08"/>
</g>
<!-- Node13&#45;&gt;Node5 -->
<g id="edge18" class="edge">
<title>Node13&#45;&gt;Node5</title>
<path fill="none" stroke="midnightblue" d="M215.52,-280.08C213.51,-272.85 210.61,-262.41 208.11,-253.4"/>
<polygon fill="midnightblue" stroke="midnightblue" points="211.48,-252.45 205.43,-243.75 204.74,-254.32 211.48,-252.45"/>
</g>
<!-- Node14&#45;&gt;Node4 -->
<g id="edge21" class="edge">
<title>Node14&#45;&gt;Node4</title>
<path fill="none" stroke="midnightblue" d="M53.85,-280.32C66.22,-271.98 85.13,-259.21 99.74,-249.35"/>
<polygon fill="midnightblue" stroke="midnightblue" points="101.85,-252.15 108.18,-243.65 97.93,-246.35 101.85,-252.15"/>
</g>
<!-- Node14&#45;&gt;Node5 -->
<g id="edge22" class="edge">
<title>Node14&#45;&gt;Node5</title>
<path fill="none" stroke="midnightblue" d="M66.67,-280.44C94.08,-271.31 137.69,-256.77 168.19,-246.6"/>
<polygon fill="midnightblue" stroke="midnightblue" points="169.6,-249.82 177.98,-243.34 167.39,-243.18 169.6,-249.82"/>
</g>
<!-- Node15 -->
<g id="node15" class="node">
<title>Node15</title>
<g id="a_node15"><a xlink:title=" ">
<polygon fill="white" stroke="#bfbfbf" points="15,-224.5 15,-243.5 67,-243.5 67,-224.5 15,-224.5"/>
<text text-anchor="middle" x="41" y="-231.5" font-family="Consolas" font-size="10.00">stddef.h</text>
</a>
</g>
</g>
<!-- Node14&#45;&gt;Node15 -->
<g id="edge20" class="edge">
<title>Node14&#45;&gt;Node15</title>
<path fill="none" stroke="midnightblue" d="M41,-280.08C41,-273.01 41,-262.86 41,-253.99"/>
<polygon fill="midnightblue" stroke="midnightblue" points="44.5,-253.75 41,-243.75 37.5,-253.75 44.5,-253.75"/>
</g>
<!-- Node16&#45;&gt;Node3 -->
<g id="edge24" class="edge">
<title>Node16&#45;&gt;Node3</title>
<path fill="none" stroke="midnightblue" d="M112.8,-336.08C115.91,-328.77 120.42,-318.18 124.29,-309.1"/>
<polygon fill="midnightblue" stroke="midnightblue" points="127.57,-310.32 128.27,-299.75 121.13,-307.58 127.57,-310.32"/>
</g>
<!-- Node16&#45;&gt;Node12 -->
<g id="edge25" class="edge">
<title>Node16&#45;&gt;Node12</title>
<path fill="none" stroke="midnightblue" d="M140.69,-336.44C175.07,-327.16 230.08,-312.31 267.79,-302.13"/>
<polygon fill="midnightblue" stroke="midnightblue" points="268.72,-305.5 277.46,-299.52 266.89,-298.74 268.72,-305.5"/>
</g>
<!-- Node16&#45;&gt;Node13 -->
<g id="edge26" class="edge">
<title>Node16&#45;&gt;Node13</title>
<path fill="none" stroke="midnightblue" d="M126.51,-336.32C144.07,-327.62 171.33,-314.12 191.53,-304.11"/>
<polygon fill="midnightblue" stroke="midnightblue" points="193.12,-307.23 200.53,-299.65 190.02,-300.96 193.12,-307.23"/>
</g>
<!-- Node16&#45;&gt;Node14 -->
<g id="edge27" class="edge">
<title>Node16&#45;&gt;Node14</title>
<path fill="none" stroke="midnightblue" d="M98.07,-336.32C87.83,-328.18 72.28,-315.84 60,-306.09"/>
<polygon fill="midnightblue" stroke="midnightblue" points="62.13,-303.31 52.12,-299.83 57.78,-308.79 62.13,-303.31"/>
</g>
</g>
</svg>
