<?xml version="1.0" encoding="UTF-8" standalone="no"?>
<!DOCTYPE svg PUBLIC "-//W3C//DTD SVG 1.1//EN"
 "http://www.w3.org/Graphics/SVG/1.1/DTD/svg11.dtd">
<!-- Generated by graphviz version 2.43.0 (0)
 -->
<!-- Title: libccc/random/random.h Pages: 1 -->
<!--zoomable 420 -->
<svg id="main" version="1.1" xmlns="http://www.w3.org/2000/svg" xmlns:xlink="http://www.w3.org/1999/xlink" xml:space="preserve" onload="init(evt)">
<style type="text/css"><![CDATA[
.edge:hover path { stroke: red; }
.edge:hover polygon { stroke: red; fill: red; }
]]></style>
<script type="text/javascript"><![CDATA[
var edges = document.getElementsByTagName('g');
if (edges && edges.length) {
  for (var i=0;i<edges.length;i++) {
    if (edges[i].id.substr(0,4)=='edge') {
      edges[i].setAttribute('class','edge');
    }
  }
}
]]></script>
        <defs>
                <circle id="rim" cx="0" cy="0" r="7"/>
                <circle id="rim2" cx="0" cy="0" r="3.5"/>
                <g id="zoomPlus">
                        <use xlink:href="#rim" fill="#404040">
                                <set attributeName="fill" to="#808080" begin="zoomplus.mouseover" end="zoomplus.mouseout"/>
                        </use>
                        <path d="M-4,0h8M0,-4v8" fill="none" stroke="white" stroke-width="1.5" pointer-events="none"/>
                </g>
                <g id="zoomMin">
                        <use xlink:href="#rim" fill="#404040">
                                <set attributeName="fill" to="#808080" begin="zoomminus.mouseover" end="zoomminus.mouseout"/>
                        </use>
                        <path d="M-4,0h8" fill="none" stroke="white" stroke-width="1.5" pointer-events="none"/>
                </g>
                <g id="dirArrow">
                        <path fill="none" stroke="white" stroke-width="1.5" d="M0,-3.0v7 M-2.5,-0.5L0,-3.0L2.5,-0.5"/>
                </g>
               <g id="resetDef">
                       <use xlink:href="#rim2" fill="#404040">
                               <set attributeName="fill" to="#808080" begin="reset.mouseover" end="reset.mouseout"/>
                       </use>
               </g>
        </defs>

<script type="text/javascript">
var viewWidth = 1038;
var viewHeight = 420;
var sectionId = 'dynsection-0';
</script>
<script xlink:href="svgpan.js"/>
<svg id="graph" class="graph">
<g id="viewport">
<title>libccc/random/random.h</title>
<polygon fill="white" stroke="transparent" points="-4,4 -4,-416 1034.26,-416 1034.26,4 -4,4"/>
<!-- Node1 -->
<g id="node1" class="node">
<title>Node1</title>
<g id="a_node1"><a xlink:title=" ">
<polygon fill="#bfbfbf" stroke="black" points="484.26,-392.5 484.26,-411.5 616.26,-411.5 616.26,-392.5 484.26,-392.5"/>
<text text-anchor="middle" x="550.26" y="-399.5" font-family="Consolas" font-size="10.00">libccc/random/random.h</text>
</a>
</g>
</g>
<!-- Node2 -->
<g id="node2" class="node">
<title>Node2</title>
<g id="a_node2"><a xlink:href="prng_8h.html" target="_top" xlink:title=" ">
<polygon fill="white" stroke="black" points="562.26,-336.5 562.26,-355.5 684.26,-355.5 684.26,-336.5 562.26,-336.5"/>
<text text-anchor="middle" x="623.26" y="-343.5" font-family="Consolas" font-size="10.00">libccc/random/prng.h</text>
</a>
</g>
</g>
<!-- Node1&#45;&gt;Node2 -->
<g id="edge1" class="edge">
<title>Node1&#45;&gt;Node2</title>
<path fill="none" stroke="midnightblue" d="M561.99,-392.32C573.1,-384.11 590,-371.6 603.24,-361.81"/>
<polygon fill="midnightblue" stroke="midnightblue" points="605.36,-364.59 611.32,-355.83 601.2,-358.97 605.36,-364.59"/>
</g>
<!-- Node20 -->
<g id="node20" class="node">
<title>Node20</title>
<g id="a_node20"><a xlink:href="csprng_8h.html" target="_top" xlink:title=" ">
<polygon fill="white" stroke="black" points="412.26,-336.5 412.26,-355.5 544.26,-355.5 544.26,-336.5 412.26,-336.5"/>
<text text-anchor="middle" x="478.26" y="-343.5" font-family="Consolas" font-size="10.00">libccc/random/csprng.h</text>
</a>
</g>
</g>
<!-- Node1&#45;&gt;Node20 -->
<g id="edge31" class="edge">
<title>Node1&#45;&gt;Node20</title>
<path fill="none" stroke="midnightblue" d="M538.69,-392.32C527.84,-384.18 511.38,-371.84 498.38,-362.09"/>
<polygon fill="midnightblue" stroke="midnightblue" points="500.14,-359.03 490.04,-355.83 495.94,-364.63 500.14,-359.03"/>
</g>
<!-- Node3 -->
<g id="node3" class="node">
<title>Node3</title>
<g id="a_node3"><a xlink:href="int_8h.html" target="_top" xlink:title=" ">
<polygon fill="white" stroke="black" points="384.26,-280.5 384.26,-299.5 464.26,-299.5 464.26,-280.5 384.26,-280.5"/>
<text text-anchor="middle" x="424.26" y="-287.5" font-family="Consolas" font-size="10.00">libccc/int.h</text>
</a>
</g>
</g>
<!-- Node2&#45;&gt;Node3 -->
<g id="edge2" class="edge">
<title>Node2&#45;&gt;Node3</title>
<path fill="none" stroke="midnightblue" d="M591.73,-336.44C557.67,-327.2 503.25,-312.44 465.74,-302.26"/>
<polygon fill="midnightblue" stroke="midnightblue" points="466.21,-298.76 455.64,-299.52 464.38,-305.51 466.21,-298.76"/>
</g>
<!-- Node13 -->
<g id="node13" class="node">
<title>Node13</title>
<g id="a_node13"><a xlink:href="float_8h.html" target="_top" xlink:title=" ">
<polygon fill="white" stroke="black" points="909.26,-56.5 909.26,-75.5 999.26,-75.5 999.26,-56.5 909.26,-56.5"/>
<text text-anchor="middle" x="954.26" y="-63.5" font-family="Consolas" font-size="10.00">libccc/float.h</text>
</a>
</g>
</g>
<!-- Node2&#45;&gt;Node13 -->
<g id="edge26" class="edge">
<title>Node2&#45;&gt;Node13</title>
<path fill="none" stroke="midnightblue" d="M684.63,-341.16C798.33,-332.35 1030.26,-305.72 1030.26,-235 1030.26,-235 1030.26,-235 1030.26,-177 1030.26,-146.2 1023.79,-137.32 1006.26,-112 998.08,-100.19 986.11,-89.54 975.71,-81.57"/>
<polygon fill="midnightblue" stroke="midnightblue" points="977.6,-78.62 967.46,-75.54 973.47,-84.27 977.6,-78.62"/>
</g>
<!-- Node16 -->
<g id="node16" class="node">
<title>Node16</title>
<g id="a_node16"><a xlink:href="fixed_8h.html" target="_top" xlink:title=" ">
<polygon fill="white" stroke="black" points="390.26,-56.5 390.26,-75.5 480.26,-75.5 480.26,-56.5 390.26,-56.5"/>
<text text-anchor="middle" x="435.26" y="-63.5" font-family="Consolas" font-size="10.00">libccc/fixed.h</text>
</a>
</g>
</g>
<!-- Node2&#45;&gt;Node16 -->
<g id="edge25" class="edge">
<title>Node2&#45;&gt;Node16</title>
<path fill="none" stroke="midnightblue" d="M649.62,-336.44C734.07,-307.74 987.26,-211.2 897.26,-112 870.38,-82.38 607.4,-71.64 490.63,-68.31"/>
<polygon fill="midnightblue" stroke="midnightblue" points="490.56,-64.8 480.47,-68.03 490.37,-71.8 490.56,-64.8"/>
</g>
<!-- Node18 -->
<g id="node18" class="node">
<title>Node18</title>
<g id="a_node18"><a xlink:href="pointer_8h.html" target="_top" xlink:title=" ">
<polygon fill="white" stroke="black" points="482.76,-280.5 482.76,-299.5 583.76,-299.5 583.76,-280.5 482.76,-280.5"/>
<text text-anchor="middle" x="533.26" y="-287.5" font-family="Consolas" font-size="10.00">libccc/pointer.h</text>
</a>
</g>
</g>
<!-- Node2&#45;&gt;Node18 -->
<g id="edge27" class="edge">
<title>Node2&#45;&gt;Node18</title>
<path fill="none" stroke="midnightblue" d="M608.8,-336.32C594.76,-327.9 573.21,-314.97 556.72,-305.07"/>
<polygon fill="midnightblue" stroke="midnightblue" points="558.06,-301.8 547.68,-299.65 554.46,-307.8 558.06,-301.8"/>
</g>
<!-- Node4 -->
<g id="node4" class="node">
<title>Node4</title>
<g id="a_node4"><a xlink:title=" ">
<polygon fill="white" stroke="#bfbfbf" points="439.76,-224.5 439.76,-243.5 498.76,-243.5 498.76,-224.5 439.76,-224.5"/>
<text text-anchor="middle" x="469.26" y="-231.5" font-family="Consolas" font-size="10.00">stdint.h</text>
</a>
</g>
</g>
<!-- Node3&#45;&gt;Node4 -->
<g id="edge3" class="edge">
<title>Node3&#45;&gt;Node4</title>
<path fill="none" stroke="midnightblue" d="M431.69,-280.08C438.11,-272.38 447.56,-261.03 455.38,-251.65"/>
<polygon fill="midnightblue" stroke="midnightblue" points="458.25,-253.67 461.97,-243.75 452.88,-249.19 458.25,-253.67"/>
</g>
<!-- Node5 -->
<g id="node5" class="node">
<title>Node5</title>
<g id="a_node5"><a xlink:href="libccc_8h.html" target="_top" xlink:title=" ">
<polygon fill="white" stroke="black" points="320.76,-224.5 320.76,-243.5 379.76,-243.5 379.76,-224.5 320.76,-224.5"/>
<text text-anchor="middle" x="350.26" y="-231.5" font-family="Consolas" font-size="10.00">libccc.h</text>
</a>
</g>
</g>
<!-- Node3&#45;&gt;Node5 -->
<g id="edge4" class="edge">
<title>Node3&#45;&gt;Node5</title>
<path fill="none" stroke="midnightblue" d="M412.37,-280.32C401.11,-272.11 383.97,-259.6 370.55,-249.81"/>
<polygon fill="midnightblue" stroke="midnightblue" points="372.51,-246.9 362.36,-243.83 368.38,-252.56 372.51,-246.9"/>
</g>
<!-- Node6 -->
<g id="node6" class="node">
<title>Node6</title>
<g id="a_node6"><a xlink:href="libccc__define_8h.html" target="_top" xlink:title=" ">
<polygon fill="white" stroke="black" points="55.76,-56.5 55.76,-75.5 150.76,-75.5 150.76,-56.5 55.76,-56.5"/>
<text text-anchor="middle" x="103.26" y="-63.5" font-family="Consolas" font-size="10.00">libccc_define.h</text>
</a>
</g>
</g>
<!-- Node5&#45;&gt;Node6 -->
<g id="edge5" class="edge">
<title>Node5&#45;&gt;Node6</title>
<path fill="none" stroke="midnightblue" d="M320.64,-232.14C251.62,-229.59 82.51,-220.16 37.26,-188 7.79,-167.06 -11.07,-142.55 8.26,-112 18.3,-96.13 35.63,-85.74 52.76,-79"/>
<polygon fill="midnightblue" stroke="midnightblue" points="53.97,-82.28 62.21,-75.62 51.61,-75.69 53.97,-82.28"/>
</g>
<!-- Node8 -->
<g id="node8" class="node">
<title>Node8</title>
<g id="a_node8"><a xlink:href="libccc__errors_8h.html" target="_top" xlink:title=" ">
<polygon fill="white" stroke="black" points="17.76,-112.5 17.76,-131.5 112.76,-131.5 112.76,-112.5 17.76,-112.5"/>
<text text-anchor="middle" x="65.26" y="-119.5" font-family="Consolas" font-size="10.00">libccc_errors.h</text>
</a>
</g>
</g>
<!-- Node5&#45;&gt;Node8 -->
<g id="edge7" class="edge">
<title>Node5&#45;&gt;Node8</title>
<path fill="none" stroke="midnightblue" d="M320.6,-233.28C251.22,-233.25 81.55,-228.9 46.26,-188 34.67,-174.56 43.35,-154.38 52.43,-140.07"/>
<polygon fill="midnightblue" stroke="midnightblue" points="55.44,-141.86 58.24,-131.65 49.68,-137.89 55.44,-141.86"/>
</g>
<!-- Node9 -->
<g id="node9" class="node">
<title>Node9</title>
<g id="a_node9"><a xlink:href="libccc__config_8h.html" target="_top" xlink:title=" ">
<polygon fill="white" stroke="black" points="55.76,-168.5 55.76,-187.5 150.76,-187.5 150.76,-168.5 55.76,-168.5"/>
<text text-anchor="middle" x="103.26" y="-175.5" font-family="Consolas" font-size="10.00">libccc_config.h</text>
</a>
</g>
</g>
<!-- Node5&#45;&gt;Node9 -->
<g id="edge9" class="edge">
<title>Node5&#45;&gt;Node9</title>
<path fill="none" stroke="midnightblue" d="M320.46,-226.49C278.81,-217.38 202.66,-200.73 152.5,-189.76"/>
<polygon fill="midnightblue" stroke="midnightblue" points="153.04,-186.3 142.52,-187.58 151.54,-193.14 153.04,-186.3"/>
</g>
<!-- Node10 -->
<g id="node10" class="node">
<title>Node10</title>
<g id="a_node10"><a xlink:href="libccc__naming_8h.html" target="_top" xlink:title=" ">
<polygon fill="white" stroke="black" points="168.76,-168.5 168.76,-187.5 263.76,-187.5 263.76,-168.5 168.76,-168.5"/>
<text text-anchor="middle" x="216.26" y="-175.5" font-family="Consolas" font-size="10.00">libccc_naming.h</text>
</a>
</g>
</g>
<!-- Node5&#45;&gt;Node10 -->
<g id="edge12" class="edge">
<title>Node5&#45;&gt;Node10</title>
<path fill="none" stroke="midnightblue" d="M329.03,-224.44C306.88,-215.52 271.94,-201.44 246.82,-191.32"/>
<polygon fill="midnightblue" stroke="midnightblue" points="247.98,-188.01 237.39,-187.52 245.36,-194.5 247.98,-188.01"/>
</g>
<!-- Node11 -->
<g id="node11" class="node">
<title>Node11</title>
<g id="a_node11"><a xlink:href="math_8h.html" target="_top" xlink:title=" ">
<polygon fill="white" stroke="black" points="516.26,-168.5 516.26,-187.5 564.26,-187.5 564.26,-168.5 516.26,-168.5"/>
<text text-anchor="middle" x="540.26" y="-175.5" font-family="Consolas" font-size="10.00">math.h</text>
</a>
</g>
</g>
<!-- Node5&#45;&gt;Node11 -->
<g id="edge14" class="edge">
<title>Node5&#45;&gt;Node11</title>
<path fill="none" stroke="midnightblue" d="M379.95,-224.56C414.14,-214.84 470.23,-198.9 506.18,-188.69"/>
<polygon fill="midnightblue" stroke="midnightblue" points="507.53,-191.94 516.2,-185.84 505.62,-185.21 507.53,-191.94"/>
</g>
<!-- Node7 -->
<g id="node7" class="node">
<title>Node7</title>
<g id="a_node7"><a xlink:title=" ">
<polygon fill="white" stroke="#bfbfbf" points="68.76,-0.5 68.76,-19.5 137.76,-19.5 137.76,-0.5 68.76,-0.5"/>
<text text-anchor="middle" x="103.26" y="-7.5" font-family="Consolas" font-size="10.00">stdalign.h</text>
</a>
</g>
</g>
<!-- Node6&#45;&gt;Node7 -->
<g id="edge6" class="edge">
<title>Node6&#45;&gt;Node7</title>
<path fill="none" stroke="midnightblue" d="M103.26,-56.08C103.26,-49.01 103.26,-38.86 103.26,-29.99"/>
<polygon fill="midnightblue" stroke="midnightblue" points="106.76,-29.75 103.26,-19.75 99.76,-29.75 106.76,-29.75"/>
</g>
<!-- Node8&#45;&gt;Node6 -->
<g id="edge8" class="edge">
<title>Node8&#45;&gt;Node6</title>
<path fill="none" stroke="midnightblue" d="M71.53,-112.08C76.9,-104.46 84.78,-93.26 91.34,-83.94"/>
<polygon fill="midnightblue" stroke="midnightblue" points="94.21,-85.94 97.1,-75.75 88.48,-81.91 94.21,-85.94"/>
</g>
<!-- Node9&#45;&gt;Node6 -->
<g id="edge10" class="edge">
<title>Node9&#45;&gt;Node6</title>
<path fill="none" stroke="midnightblue" d="M107.88,-168.34C112.32,-159.49 118.71,-145.22 121.26,-132 124.37,-115.85 118.65,-97.86 112.85,-84.9"/>
<polygon fill="midnightblue" stroke="midnightblue" points="115.9,-83.16 108.35,-75.73 109.61,-86.25 115.9,-83.16"/>
</g>
<!-- Node9&#45;&gt;Node8 -->
<g id="edge11" class="edge">
<title>Node9&#45;&gt;Node8</title>
<path fill="none" stroke="midnightblue" d="M96.98,-168.08C91.62,-160.46 83.74,-149.26 77.18,-139.94"/>
<polygon fill="midnightblue" stroke="midnightblue" points="80.03,-137.91 71.42,-131.75 74.31,-141.94 80.03,-137.91"/>
</g>
<!-- Node10&#45;&gt;Node6 -->
<g id="edge13" class="edge">
<title>Node10&#45;&gt;Node6</title>
<path fill="none" stroke="midnightblue" d="M207.39,-168.37C188.41,-149.89 143.62,-106.29 119.43,-82.74"/>
<polygon fill="midnightblue" stroke="midnightblue" points="121.69,-80.06 112.08,-75.59 116.81,-85.07 121.69,-80.06"/>
</g>
<!-- Node12 -->
<g id="node12" class="node">
<title>Node12</title>
<g id="a_node12"><a xlink:href="constants_8h.html" target="_top" xlink:title=" ">
<polygon fill="white" stroke="black" points="616.76,-112.5 616.76,-131.5 753.76,-131.5 753.76,-112.5 616.76,-112.5"/>
<text text-anchor="middle" x="685.26" y="-119.5" font-family="Consolas" font-size="10.00">libccc/math/constants.h</text>
</a>
</g>
</g>
<!-- Node11&#45;&gt;Node12 -->
<g id="edge15" class="edge">
<title>Node11&#45;&gt;Node12</title>
<path fill="none" stroke="midnightblue" d="M563.23,-168.44C587.42,-159.44 625.68,-145.19 652.9,-135.05"/>
<polygon fill="midnightblue" stroke="midnightblue" points="654.24,-138.29 662.39,-131.52 651.8,-131.73 654.24,-138.29"/>
</g>
<!-- Node14 -->
<g id="node14" class="node">
<title>Node14</title>
<g id="a_node14"><a xlink:href="math_2int_8h.html" target="_top" xlink:title=" ">
<polygon fill="white" stroke="black" points="358.26,-112.5 358.26,-131.5 464.26,-131.5 464.26,-112.5 358.26,-112.5"/>
<text text-anchor="middle" x="411.26" y="-119.5" font-family="Consolas" font-size="10.00">libccc/math/int.h</text>
</a>
</g>
</g>
<!-- Node11&#45;&gt;Node14 -->
<g id="edge18" class="edge">
<title>Node11&#45;&gt;Node14</title>
<path fill="none" stroke="midnightblue" d="M519.82,-168.44C498.59,-159.56 465.16,-145.56 441,-135.45"/>
<polygon fill="midnightblue" stroke="midnightblue" points="442.18,-132.15 431.6,-131.52 439.48,-138.61 442.18,-132.15"/>
</g>
<!-- Node15 -->
<g id="node15" class="node">
<title>Node15</title>
<g id="a_node15"><a xlink:href="math_2fixed_8h.html" target="_top" xlink:title=" ">
<polygon fill="white" stroke="black" points="482.26,-112.5 482.26,-131.5 598.26,-131.5 598.26,-112.5 482.26,-112.5"/>
<text text-anchor="middle" x="540.26" y="-119.5" font-family="Consolas" font-size="10.00">libccc/math/fixed.h</text>
</a>
</g>
</g>
<!-- Node11&#45;&gt;Node15 -->
<g id="edge20" class="edge">
<title>Node11&#45;&gt;Node15</title>
<path fill="none" stroke="midnightblue" d="M540.26,-168.08C540.26,-161.01 540.26,-150.86 540.26,-141.99"/>
<polygon fill="midnightblue" stroke="midnightblue" points="543.76,-141.75 540.26,-131.75 536.76,-141.75 543.76,-141.75"/>
</g>
<!-- Node17 -->
<g id="node17" class="node">
<title>Node17</title>
<g id="a_node17"><a xlink:href="math_2float_8h.html" target="_top" xlink:title=" ">
<polygon fill="white" stroke="black" points="772.26,-112.5 772.26,-131.5 888.26,-131.5 888.26,-112.5 772.26,-112.5"/>
<text text-anchor="middle" x="830.26" y="-119.5" font-family="Consolas" font-size="10.00">libccc/math/float.h</text>
</a>
</g>
</g>
<!-- Node11&#45;&gt;Node17 -->
<g id="edge23" class="edge">
<title>Node11&#45;&gt;Node17</title>
<path fill="none" stroke="midnightblue" d="M564.49,-172.49C610.42,-163.94 711.25,-145.16 774.67,-133.35"/>
<polygon fill="midnightblue" stroke="midnightblue" points="775.32,-136.79 784.51,-131.52 774.04,-129.91 775.32,-136.79"/>
</g>
<!-- Node12&#45;&gt;Node13 -->
<g id="edge16" class="edge">
<title>Node12&#45;&gt;Node13</title>
<path fill="none" stroke="midnightblue" d="M727.88,-112.44C775.01,-102.98 850.95,-87.74 901.72,-77.55"/>
<polygon fill="midnightblue" stroke="midnightblue" points="902.72,-80.92 911.83,-75.52 901.34,-74.05 902.72,-80.92"/>
</g>
<!-- Node13&#45;&gt;Node5 -->
<g id="edge17" class="edge">
<title>Node13&#45;&gt;Node5</title>
<path fill="none" stroke="midnightblue" d="M949.25,-75.83C940.62,-90.14 921.53,-118.21 897.26,-132 852.84,-157.24 508.1,-209.76 389.88,-227.22"/>
<polygon fill="midnightblue" stroke="midnightblue" points="389.2,-223.78 379.81,-228.7 390.22,-230.71 389.2,-223.78"/>
</g>
<!-- Node14&#45;&gt;Node3 -->
<g id="edge19" class="edge">
<title>Node14&#45;&gt;Node3</title>
<path fill="none" stroke="midnightblue" d="M411.93,-131.57C413.94,-157.23 419.95,-233.92 422.77,-269.93"/>
<polygon fill="midnightblue" stroke="midnightblue" points="419.29,-270.38 423.56,-280.08 426.27,-269.83 419.29,-270.38"/>
</g>
<!-- Node15&#45;&gt;Node16 -->
<g id="edge21" class="edge">
<title>Node15&#45;&gt;Node16</title>
<path fill="none" stroke="midnightblue" d="M523.39,-112.32C506.55,-103.66 480.45,-90.24 461.02,-80.25"/>
<polygon fill="midnightblue" stroke="midnightblue" points="462.58,-77.12 452.09,-75.65 459.38,-83.34 462.58,-77.12"/>
</g>
<!-- Node16&#45;&gt;Node5 -->
<g id="edge22" class="edge">
<title>Node16&#45;&gt;Node5</title>
<path fill="none" stroke="midnightblue" d="M401.07,-75.51C382.27,-82.12 360.52,-93.4 349.26,-112 330.02,-143.78 337.84,-189.39 344.51,-214.56"/>
<polygon fill="midnightblue" stroke="midnightblue" points="341.18,-215.64 347.31,-224.28 347.91,-213.7 341.18,-215.64"/>
</g>
<!-- Node17&#45;&gt;Node13 -->
<g id="edge24" class="edge">
<title>Node17&#45;&gt;Node13</title>
<path fill="none" stroke="midnightblue" d="M849.91,-112.44C870.22,-103.6 902.16,-89.69 925.36,-79.59"/>
<polygon fill="midnightblue" stroke="midnightblue" points="926.93,-82.72 934.7,-75.52 924.14,-76.3 926.93,-82.72"/>
</g>
<!-- Node18&#45;&gt;Node4 -->
<g id="edge29" class="edge">
<title>Node18&#45;&gt;Node4</title>
<path fill="none" stroke="midnightblue" d="M522.98,-280.32C513.42,-272.26 498.98,-260.08 487.47,-250.37"/>
<polygon fill="midnightblue" stroke="midnightblue" points="489.63,-247.61 479.73,-243.83 485.11,-252.96 489.63,-247.61"/>
</g>
<!-- Node18&#45;&gt;Node5 -->
<g id="edge30" class="edge">
<title>Node18&#45;&gt;Node5</title>
<path fill="none" stroke="midnightblue" d="M504.26,-280.44C473.07,-271.24 423.33,-256.56 388.85,-246.39"/>
<polygon fill="midnightblue" stroke="midnightblue" points="389.7,-242.99 379.12,-243.52 387.72,-249.7 389.7,-242.99"/>
</g>
<!-- Node19 -->
<g id="node19" class="node">
<title>Node19</title>
<g id="a_node19"><a xlink:title=" ">
<polygon fill="white" stroke="#bfbfbf" points="516.76,-224.5 516.76,-243.5 575.76,-243.5 575.76,-224.5 516.76,-224.5"/>
<text text-anchor="middle" x="546.26" y="-231.5" font-family="Consolas" font-size="10.00">stddef.h</text>
</a>
</g>
</g>
<!-- Node18&#45;&gt;Node19 -->
<g id="edge28" class="edge">
<title>Node18&#45;&gt;Node19</title>
<path fill="none" stroke="midnightblue" d="M535.41,-280.08C537.13,-272.93 539.61,-262.64 541.76,-253.69"/>
<polygon fill="midnightblue" stroke="midnightblue" points="545.21,-254.29 544.15,-243.75 538.41,-252.65 545.21,-254.29"/>
</g>
<!-- Node20&#45;&gt;Node3 -->
<g id="edge32" class="edge">
<title>Node20&#45;&gt;Node3</title>
<path fill="none" stroke="midnightblue" d="M469.34,-336.08C461.48,-328.22 449.83,-316.57 440.34,-307.08"/>
<polygon fill="midnightblue" stroke="midnightblue" points="442.56,-304.35 433.01,-299.75 437.61,-309.3 442.56,-304.35"/>
</g>
<!-- Node20&#45;&gt;Node13 -->
<g id="edge34" class="edge">
<title>Node20&#45;&gt;Node13</title>
<path fill="none" stroke="midnightblue" d="M501.67,-336.49C524.9,-327.88 561.41,-313.88 592.26,-300 742.71,-232.31 808.05,-250.08 923.26,-132 936.06,-118.88 944.37,-99.46 949.13,-85.27"/>
<polygon fill="midnightblue" stroke="midnightblue" points="952.5,-86.21 952.09,-75.63 945.81,-84.16 952.5,-86.21"/>
</g>
<!-- Node20&#45;&gt;Node16 -->
<g id="edge33" class="edge">
<title>Node20&#45;&gt;Node16</title>
<path fill="none" stroke="midnightblue" d="M423.71,-336.48C368.83,-324.45 292.26,-296.62 292.26,-235 292.26,-235 292.26,-235 292.26,-177 292.26,-124.84 352.77,-93.99 395.07,-78.8"/>
<polygon fill="midnightblue" stroke="midnightblue" points="396.26,-82.09 404.58,-75.54 393.99,-75.47 396.26,-82.09"/>
</g>
<!-- Node20&#45;&gt;Node18 -->
<g id="edge35" class="edge">
<title>Node20&#45;&gt;Node18</title>
<path fill="none" stroke="midnightblue" d="M487.34,-336.08C495.43,-328.14 507.45,-316.34 517.17,-306.8"/>
<polygon fill="midnightblue" stroke="midnightblue" points="519.66,-309.25 524.35,-299.75 514.76,-304.26 519.66,-309.25"/>
</g>
</g>
</svg>
        <g id="navigator" transform="translate(0 0)" fill="#404254">
                <rect fill="#f2f5e9" fill-opacity="0.5" stroke="#606060" stroke-width=".5" x="0" y="0" width="60" height="60"/>
                <use id="zoomplus" xlink:href="#zoomPlus" x="17" y="9" onmousedown="handleZoom(evt,'in')"/>
                <use id="zoomminus" xlink:href="#zoomMin" x="42" y="9" onmousedown="handleZoom(evt,'out')"/>
                <use id="reset" xlink:href="#resetDef" x="30" y="36" onmousedown="handleReset()"/>
                <g id="arrowUp" xlink:href="#dirArrow" transform="translate(30 24)" onmousedown="handlePan(0,-1)">
                  <use xlink:href="#rim" fill="#404040">
                        <set attributeName="fill" to="#808080" begin="arrowUp.mouseover" end="arrowUp.mouseout"/>
                  </use>
                  <path fill="none" stroke="white" stroke-width="1.5" d="M0,-3.0v7 M-2.5,-0.5L0,-3.0L2.5,-0.5"/>
                </g>
                <g id="arrowRight" xlink:href="#dirArrow" transform="rotate(90) translate(36 -43)" onmousedown="handlePan(1,0)">
                  <use xlink:href="#rim" fill="#404040">
                        <set attributeName="fill" to="#808080" begin="arrowRight.mouseover" end="arrowRight.mouseout"/>
                  </use>
                  <path fill="none" stroke="white" stroke-width="1.5" d="M0,-3.0v7 M-2.5,-0.5L0,-3.0L2.5,-0.5"/>
                </g>
                <g id="arrowDown" xlink:href="#dirArrow" transform="rotate(180) translate(-30 -48)" onmousedown="handlePan(0,1)">
                  <use xlink:href="#rim" fill="#404040">
                        <set attributeName="fill" to="#808080" begin="arrowDown.mouseover" end="arrowDown.mouseout"/>
                  </use>
                  <path fill="none" stroke="white" stroke-width="1.5" d="M0,-3.0v7 M-2.5,-0.5L0,-3.0L2.5,-0.5"/>
                </g>
                <g id="arrowLeft" xlink:href="#dirArrow" transform="rotate(270) translate(-36 17)" onmousedown="handlePan(-1,0)">
                  <use xlink:href="#rim" fill="#404040">
                        <set attributeName="fill" to="#808080" begin="arrowLeft.mouseover" end="arrowLeft.mouseout"/>
                  </use>
                  <path fill="none" stroke="white" stroke-width="1.5" d="M0,-3.0v7 M-2.5,-0.5L0,-3.0L2.5,-0.5"/>
                </g>
        </g>
        <svg viewBox="0 0 15 15" width="100%" height="30px" preserveAspectRatio="xMaxYMin meet">
         <g id="arrow_out" transform="scale(0.3 0.3)">
          <a xlink:href="random_8h__incl_org.svg" target="_base">
           <rect id="button" ry="5" rx="5" y="6" x="6" height="38" width="38"
                fill="#f2f5e9" fill-opacity="0.5" stroke="#606060" stroke-width="1.0"/>
           <path id="arrow"
             d="M 11.500037,31.436501 C 11.940474,20.09759 22.043105,11.32322 32.158766,21.979434 L 37.068811,17.246167 C 37.068811,17.246167 37.088388,32 37.088388,32 L 22.160133,31.978069 C 22.160133,31.978069 26.997745,27.140456 26.997745,27.140456 C 18.528582,18.264221 13.291696,25.230495 11.500037,31.436501 z"
             style="fill:#404040;"/>
          </a>
         </g>
        </svg>
</svg>
