<?xml version="1.0" encoding="UTF-8" standalone="no"?>
<!DOCTYPE svg PUBLIC "-//W3C//DTD SVG 1.1//EN"
 "http://www.w3.org/Graphics/SVG/1.1/DTD/svg11.dtd">
<!-- Generated by graphviz version 2.49.3 (20211023.0002)
 -->
<!-- Title: hdr/libccc/math/sort.h Pages: 1 -->
<svg width="846pt" height="364pt"
 viewBox="0.00 0.00 845.50 364.00" xmlns="http://www.w3.org/2000/svg" xmlns:xlink="http://www.w3.org/1999/xlink">
<g id="graph0" class="graph" transform="scale(1 1) rotate(0) translate(4 360)">
<title>hdr/libccc/math/sort.h</title>
<polygon fill="white" stroke="transparent" points="-4,4 -4,-360 841.5,-360 841.5,4 -4,4"/>
<!-- Node1 -->
<g id="node1" class="node">
<title>Node1</title>
<g id="a_node1"><a xlink:title=" ">
<polygon fill="#bfbfbf" stroke="black" points="298,-336.5 298,-355.5 409,-355.5 409,-336.5 298,-336.5"/>
<text text-anchor="middle" x="353.5" y="-343.5" font-family="Consolas" font-size="10.00">hdr/libccc/math/sort.h</text>
</a>
</g>
</g>
<!-- Node2 -->
<g id="node2" class="node">
<title>Node2</title>
<g id="a_node2"><a xlink:href="int_8h.html" target="_top" xlink:title=" ">
<polygon fill="white" stroke="black" points="365.5,-280.5 365.5,-299.5 429.5,-299.5 429.5,-280.5 365.5,-280.5"/>
<text text-anchor="middle" x="397.5" y="-287.5" font-family="Consolas" font-size="10.00">libccc/int.h</text>
</a>
</g>
</g>
<!-- Node1&#45;&gt;Node2 -->
<g id="edge1" class="edge">
<title>Node1&#45;&gt;Node2</title>
<path fill="none" stroke="midnightblue" d="M360.77,-336.08C367.04,-328.38 376.29,-317.03 383.93,-307.65"/>
<polygon fill="midnightblue" stroke="midnightblue" points="386.77,-309.71 390.37,-299.75 381.34,-305.29 386.77,-309.71"/>
</g>
<!-- Node16 -->
<g id="node16" class="node">
<title>Node16</title>
<g id="a_node16"><a xlink:href="pointer_8h.html" target="_top" xlink:title=" ">
<polygon fill="white" stroke="black" points="170.5,-168.5 170.5,-187.5 252.5,-187.5 252.5,-168.5 170.5,-168.5"/>
<text text-anchor="middle" x="211.5" y="-175.5" font-family="Consolas" font-size="10.00">libccc/pointer.h</text>
</a>
</g>
</g>
<!-- Node1&#45;&gt;Node16 -->
<g id="edge29" class="edge">
<title>Node1&#45;&gt;Node16</title>
<path fill="none" stroke="midnightblue" d="M345.87,-336.08C323.03,-309.38 255.01,-229.87 225.46,-195.32"/>
<polygon fill="midnightblue" stroke="midnightblue" points="227.99,-192.89 218.83,-187.57 222.67,-197.44 227.99,-192.89"/>
</g>
<!-- Node3 -->
<g id="node3" class="node">
<title>Node3</title>
<g id="a_node3"><a xlink:title=" ">
<polygon fill="white" stroke="#bfbfbf" points="0,-112.5 0,-131.5 49,-131.5 49,-112.5 0,-112.5"/>
<text text-anchor="middle" x="24.5" y="-119.5" font-family="Consolas" font-size="10.00">stdint.h</text>
</a>
</g>
</g>
<!-- Node2&#45;&gt;Node3 -->
<g id="edge2" class="edge">
<title>Node2&#45;&gt;Node3</title>
<path fill="none" stroke="midnightblue" d="M376.86,-280.48C335.7,-263.42 240.52,-223.64 161.5,-188 122.86,-170.57 78.63,-149.35 51.13,-136.01"/>
<polygon fill="midnightblue" stroke="midnightblue" points="52.66,-132.86 42.13,-131.63 49.6,-139.15 52.66,-132.86"/>
</g>
<!-- Node4 -->
<g id="node4" class="node">
<title>Node4</title>
<g id="a_node4"><a xlink:href="libccc_8h.html" target="_top" xlink:title=" ">
<polygon fill="white" stroke="black" points="426.5,-224.5 426.5,-243.5 476.5,-243.5 476.5,-224.5 426.5,-224.5"/>
<text text-anchor="middle" x="451.5" y="-231.5" font-family="Consolas" font-size="10.00">libccc.h</text>
</a>
</g>
</g>
<!-- Node2&#45;&gt;Node4 -->
<g id="edge3" class="edge">
<title>Node2&#45;&gt;Node4</title>
<path fill="none" stroke="midnightblue" d="M401.25,-280.08C407.58,-272.06 419.2,-260.1 429.81,-250.51"/>
<polygon fill="midnightblue" stroke="midnightblue" points="432.35,-252.94 437.62,-243.75 427.77,-247.65 432.35,-252.94"/>
</g>
<!-- Node4&#45;&gt;Node2 -->
<g id="edge20" class="edge">
<title>Node4&#45;&gt;Node2</title>
<path fill="none" stroke="midnightblue" d="M447.81,-243.83C441.49,-251.87 429.79,-263.91 419.13,-273.54"/>
<polygon fill="midnightblue" stroke="midnightblue" points="416.56,-271.13 411.29,-280.32 421.14,-276.43 416.56,-271.13"/>
</g>
<!-- Node5 -->
<g id="node5" class="node">
<title>Node5</title>
<g id="a_node5"><a xlink:href="libccc__define_8h.html" target="_top" xlink:title=" ">
<polygon fill="white" stroke="black" points="445.5,-56.5 445.5,-75.5 527.5,-75.5 527.5,-56.5 445.5,-56.5"/>
<text text-anchor="middle" x="486.5" y="-63.5" font-family="Consolas" font-size="10.00">libccc_define.h</text>
</a>
</g>
</g>
<!-- Node4&#45;&gt;Node5 -->
<g id="edge4" class="edge">
<title>Node4&#45;&gt;Node5</title>
<path fill="none" stroke="midnightblue" d="M442.88,-224.36C423.53,-203.89 380.15,-151.23 403.5,-112 412.6,-96.72 428.89,-86.31 444.64,-79.39"/>
<polygon fill="midnightblue" stroke="midnightblue" points="446.33,-82.48 454.32,-75.51 443.73,-75.98 446.33,-82.48"/>
</g>
<!-- Node7 -->
<g id="node7" class="node">
<title>Node7</title>
<g id="a_node7"><a xlink:href="libccc__errors_8h.html" target="_top" xlink:title=" ">
<polygon fill="white" stroke="black" points="412.5,-112.5 412.5,-131.5 492.5,-131.5 492.5,-112.5 412.5,-112.5"/>
<text text-anchor="middle" x="452.5" y="-119.5" font-family="Consolas" font-size="10.00">libccc_errors.h</text>
</a>
</g>
</g>
<!-- Node4&#45;&gt;Node7 -->
<g id="edge6" class="edge">
<title>Node4&#45;&gt;Node7</title>
<path fill="none" stroke="midnightblue" d="M447.2,-224.23C441.62,-211.8 433,-188.31 436.5,-168 438.07,-158.91 441.29,-149.22 444.44,-141.17"/>
<polygon fill="midnightblue" stroke="midnightblue" points="447.76,-142.3 448.39,-131.72 441.31,-139.6 447.76,-142.3"/>
</g>
<!-- Node8 -->
<g id="node8" class="node">
<title>Node8</title>
<g id="a_node8"><a xlink:href="libccc__config_8h.html" target="_top" xlink:title=" ">
<polygon fill="white" stroke="black" points="445.5,-168.5 445.5,-187.5 527.5,-187.5 527.5,-168.5 445.5,-168.5"/>
<text text-anchor="middle" x="486.5" y="-175.5" font-family="Consolas" font-size="10.00">libccc_config.h</text>
</a>
</g>
</g>
<!-- Node4&#45;&gt;Node8 -->
<g id="edge8" class="edge">
<title>Node4&#45;&gt;Node8</title>
<path fill="none" stroke="midnightblue" d="M457.28,-224.08C462.17,-216.53 469.33,-205.49 475.33,-196.23"/>
<polygon fill="midnightblue" stroke="midnightblue" points="478.33,-198.05 480.83,-187.75 472.45,-194.24 478.33,-198.05"/>
</g>
<!-- Node9 -->
<g id="node9" class="node">
<title>Node9</title>
<g id="a_node9"><a xlink:href="libccc__naming_8h.html" target="_top" xlink:title=" ">
<polygon fill="white" stroke="black" points="549,-112.5 549,-131.5 636,-131.5 636,-112.5 549,-112.5"/>
<text text-anchor="middle" x="592.5" y="-119.5" font-family="Consolas" font-size="10.00">libccc_naming.h</text>
</a>
</g>
</g>
<!-- Node4&#45;&gt;Node9 -->
<g id="edge11" class="edge">
<title>Node4&#45;&gt;Node9</title>
<path fill="none" stroke="midnightblue" d="M472.72,-224.43C490.76,-216.55 516.79,-203.72 536.5,-188 553.89,-174.13 570.04,-154.33 580.48,-140.24"/>
<polygon fill="midnightblue" stroke="midnightblue" points="583.47,-142.08 586.48,-131.92 577.79,-137.98 583.47,-142.08"/>
</g>
<!-- Node10 -->
<g id="node10" class="node">
<title>Node10</title>
<g id="a_node10"><a xlink:href="bool_8h.html" target="_top" xlink:title=" ">
<polygon fill="white" stroke="black" points="584,-168.5 584,-187.5 655,-187.5 655,-168.5 584,-168.5"/>
<text text-anchor="middle" x="619.5" y="-175.5" font-family="Consolas" font-size="10.00">libccc/bool.h</text>
</a>
</g>
</g>
<!-- Node4&#45;&gt;Node10 -->
<g id="edge13" class="edge">
<title>Node4&#45;&gt;Node10</title>
<path fill="none" stroke="midnightblue" d="M473.03,-224.44C499.53,-215.28 544.74,-200.69 578.02,-190.52"/>
<polygon fill="midnightblue" stroke="midnightblue" points="579.37,-193.77 587.92,-187.52 577.34,-187.07 579.37,-193.77"/>
</g>
<!-- Node11 -->
<g id="node11" class="node">
<title>Node11</title>
<g id="a_node11"><a xlink:href="char_8h.html" target="_top" xlink:title=" ">
<polygon fill="white" stroke="black" points="271,-168.5 271,-187.5 342,-187.5 342,-168.5 271,-168.5"/>
<text text-anchor="middle" x="306.5" y="-175.5" font-family="Consolas" font-size="10.00">libccc/char.h</text>
</a>
</g>
</g>
<!-- Node4&#45;&gt;Node11 -->
<g id="edge15" class="edge">
<title>Node4&#45;&gt;Node11</title>
<path fill="none" stroke="midnightblue" d="M426.49,-225.49C400.58,-216.65 360.5,-201.84 333.8,-191.32"/>
<polygon fill="midnightblue" stroke="midnightblue" points="334.86,-187.97 324.28,-187.51 332.26,-194.47 334.86,-187.97"/>
</g>
<!-- Node14 -->
<g id="node14" class="node">
<title>Node14</title>
<g id="a_node14"><a xlink:href="fixed_8h.html" target="_top" xlink:title=" ">
<polygon fill="white" stroke="black" points="673.5,-168.5 673.5,-187.5 747.5,-187.5 747.5,-168.5 673.5,-168.5"/>
<text text-anchor="middle" x="710.5" y="-175.5" font-family="Consolas" font-size="10.00">libccc/fixed.h</text>
</a>
</g>
</g>
<!-- Node4&#45;&gt;Node14 -->
<g id="edge21" class="edge">
<title>Node4&#45;&gt;Node14</title>
<path fill="none" stroke="midnightblue" d="M476.72,-226.81C519.97,-217.21 608.47,-198.71 663.39,-187.75"/>
<polygon fill="midnightblue" stroke="midnightblue" points="664.11,-191.18 673.23,-185.8 662.74,-184.31 664.11,-191.18"/>
</g>
<!-- Node15 -->
<g id="node15" class="node">
<title>Node15</title>
<g id="a_node15"><a xlink:href="float_8h.html" target="_top" xlink:title=" ">
<polygon fill="white" stroke="black" points="765.5,-168.5 765.5,-187.5 837.5,-187.5 837.5,-168.5 765.5,-168.5"/>
<text text-anchor="middle" x="801.5" y="-175.5" font-family="Consolas" font-size="10.00">libccc/float.h</text>
</a>
</g>
</g>
<!-- Node4&#45;&gt;Node15 -->
<g id="edge23" class="edge">
<title>Node4&#45;&gt;Node15</title>
<path fill="none" stroke="midnightblue" d="M476.56,-229.04C527.83,-221.76 647.3,-205.4 747.5,-188 749.97,-187.57 752.52,-187.11 755.1,-186.63"/>
<polygon fill="midnightblue" stroke="midnightblue" points="755.96,-190.03 765.14,-184.74 754.66,-183.15 755.96,-190.03"/>
</g>
<!-- Node4&#45;&gt;Node16 -->
<g id="edge25" class="edge">
<title>Node4&#45;&gt;Node16</title>
<path fill="none" stroke="midnightblue" d="M426.15,-228.21C385.15,-219.66 304.31,-201.58 254.31,-189.88"/>
<polygon fill="midnightblue" stroke="midnightblue" points="254.97,-186.44 244.44,-187.56 253.37,-193.25 254.97,-186.44"/>
</g>
<!-- Node6 -->
<g id="node6" class="node">
<title>Node6</title>
<g id="a_node6"><a xlink:title=" ">
<polygon fill="white" stroke="#bfbfbf" points="457,-0.5 457,-19.5 516,-19.5 516,-0.5 457,-0.5"/>
<text text-anchor="middle" x="486.5" y="-7.5" font-family="Consolas" font-size="10.00">stdalign.h</text>
</a>
</g>
</g>
<!-- Node5&#45;&gt;Node6 -->
<g id="edge5" class="edge">
<title>Node5&#45;&gt;Node6</title>
<path fill="none" stroke="midnightblue" d="M486.5,-56.08C486.5,-49.01 486.5,-38.86 486.5,-29.99"/>
<polygon fill="midnightblue" stroke="midnightblue" points="490,-29.75 486.5,-19.75 483,-29.75 490,-29.75"/>
</g>
<!-- Node7&#45;&gt;Node5 -->
<g id="edge7" class="edge">
<title>Node7&#45;&gt;Node5</title>
<path fill="none" stroke="midnightblue" d="M458.11,-112.08C462.87,-104.53 469.82,-93.49 475.65,-84.23"/>
<polygon fill="midnightblue" stroke="midnightblue" points="478.62,-86.08 480.99,-75.75 472.7,-82.35 478.62,-86.08"/>
</g>
<!-- Node8&#45;&gt;Node5 -->
<g id="edge9" class="edge">
<title>Node8&#45;&gt;Node5</title>
<path fill="none" stroke="midnightblue" d="M490.75,-168.24C496.26,-155.82 504.8,-132.35 501.5,-112 500.03,-102.96 497.01,-93.28 494.06,-85.22"/>
<polygon fill="midnightblue" stroke="midnightblue" points="497.26,-83.79 490.36,-75.75 490.74,-86.34 497.26,-83.79"/>
</g>
<!-- Node8&#45;&gt;Node7 -->
<g id="edge10" class="edge">
<title>Node8&#45;&gt;Node7</title>
<path fill="none" stroke="midnightblue" d="M480.89,-168.08C476.13,-160.53 469.18,-149.49 463.35,-140.23"/>
<polygon fill="midnightblue" stroke="midnightblue" points="466.3,-138.35 458.01,-131.75 460.38,-142.08 466.3,-138.35"/>
</g>
<!-- Node9&#45;&gt;Node5 -->
<g id="edge12" class="edge">
<title>Node9&#45;&gt;Node5</title>
<path fill="none" stroke="midnightblue" d="M575.47,-112.32C558.47,-103.66 532.12,-90.24 512.51,-80.25"/>
<polygon fill="midnightblue" stroke="midnightblue" points="513.99,-77.08 503.49,-75.65 510.81,-83.31 513.99,-77.08"/>
</g>
<!-- Node10&#45;&gt;Node4 -->
<g id="edge14" class="edge">
<title>Node10&#45;&gt;Node4</title>
<path fill="none" stroke="midnightblue" d="M598,-187.55C569.77,-197.31 520.27,-213.24 486.61,-223.42"/>
<polygon fill="midnightblue" stroke="midnightblue" points="485.29,-220.16 476.71,-226.38 487.3,-226.87 485.29,-220.16"/>
</g>
<!-- Node11&#45;&gt;Node3 -->
<g id="edge16" class="edge">
<title>Node11&#45;&gt;Node3</title>
<path fill="none" stroke="midnightblue" d="M270.65,-169.76C267.56,-169.15 264.48,-168.56 261.5,-168 174.54,-151.59 149.66,-151.71 59.18,-132"/>
<polygon fill="midnightblue" stroke="midnightblue" points="59.84,-128.56 49.32,-129.83 58.34,-135.39 59.84,-128.56"/>
</g>
<!-- Node11&#45;&gt;Node4 -->
<g id="edge17" class="edge">
<title>Node11&#45;&gt;Node4</title>
<path fill="none" stroke="midnightblue" d="M334.45,-187.52C360.34,-196.43 398.37,-210.5 424.08,-220.64"/>
<polygon fill="midnightblue" stroke="midnightblue" points="423.03,-223.99 433.61,-224.44 425.62,-217.48 423.03,-223.99"/>
</g>
<!-- Node12 -->
<g id="node12" class="node">
<title>Node12</title>
<g id="a_node12"><a xlink:title=" ">
<polygon fill="white" stroke="#bfbfbf" points="138,-112.5 138,-131.5 231,-131.5 231,-112.5 138,-112.5"/>
<text text-anchor="middle" x="184.5" y="-119.5" font-family="Consolas" font-size="10.00">libccc/text/ascii.h</text>
</a>
</g>
</g>
<!-- Node11&#45;&gt;Node12 -->
<g id="edge18" class="edge">
<title>Node11&#45;&gt;Node12</title>
<path fill="none" stroke="midnightblue" d="M287.17,-168.44C267.18,-159.6 235.76,-145.69 212.94,-135.59"/>
<polygon fill="midnightblue" stroke="midnightblue" points="214.3,-132.36 203.74,-131.52 211.47,-138.76 214.3,-132.36"/>
</g>
<!-- Node13 -->
<g id="node13" class="node">
<title>Node13</title>
<g id="a_node13"><a xlink:title=" ">
<polygon fill="white" stroke="#bfbfbf" points="249,-112.5 249,-131.5 356,-131.5 356,-112.5 249,-112.5"/>
<text text-anchor="middle" x="302.5" y="-119.5" font-family="Consolas" font-size="10.00">libccc/text/unicode.h</text>
</a>
</g>
</g>
<!-- Node11&#45;&gt;Node13 -->
<g id="edge19" class="edge">
<title>Node11&#45;&gt;Node13</title>
<path fill="none" stroke="midnightblue" d="M305.84,-168.08C305.32,-161.01 304.56,-150.86 303.91,-141.99"/>
<polygon fill="midnightblue" stroke="midnightblue" points="307.38,-141.47 303.15,-131.75 300.4,-141.98 307.38,-141.47"/>
</g>
<!-- Node14&#45;&gt;Node4 -->
<g id="edge22" class="edge">
<title>Node14&#45;&gt;Node4</title>
<path fill="none" stroke="midnightblue" d="M674.78,-187.51C625.06,-198.37 535.85,-216.93 486.5,-226.65"/>
<polygon fill="midnightblue" stroke="midnightblue" points="485.75,-223.23 476.61,-228.58 487.09,-230.1 485.75,-223.23"/>
</g>
<!-- Node15&#45;&gt;Node4 -->
<g id="edge24" class="edge">
<title>Node15&#45;&gt;Node4</title>
<path fill="none" stroke="midnightblue" d="M767.87,-187.58C767.08,-187.72 766.28,-187.86 765.5,-188 665.22,-205.41 545.62,-221.79 487.05,-229.06"/>
<polygon fill="midnightblue" stroke="midnightblue" points="486.35,-225.62 476.85,-230.31 487.2,-232.57 486.35,-225.62"/>
</g>
<!-- Node16&#45;&gt;Node3 -->
<g id="edge27" class="edge">
<title>Node16&#45;&gt;Node3</title>
<path fill="none" stroke="midnightblue" d="M181.87,-168.44C148.5,-158.81 94.34,-143.17 59.07,-132.98"/>
<polygon fill="midnightblue" stroke="midnightblue" points="59.79,-129.55 49.21,-130.14 57.85,-136.27 59.79,-129.55"/>
</g>
<!-- Node16&#45;&gt;Node4 -->
<g id="edge28" class="edge">
<title>Node16&#45;&gt;Node4</title>
<path fill="none" stroke="midnightblue" d="M252.67,-187.14C298.86,-197.02 372.78,-213.64 416.37,-223.92"/>
<polygon fill="midnightblue" stroke="midnightblue" points="415.69,-227.36 426.23,-226.27 417.31,-220.55 415.69,-227.36"/>
</g>
<!-- Node17 -->
<g id="node17" class="node">
<title>Node17</title>
<g id="a_node17"><a xlink:title=" ">
<polygon fill="white" stroke="#bfbfbf" points="67.5,-112.5 67.5,-131.5 119.5,-131.5 119.5,-112.5 67.5,-112.5"/>
<text text-anchor="middle" x="93.5" y="-119.5" font-family="Consolas" font-size="10.00">stddef.h</text>
</a>
</g>
</g>
<!-- Node16&#45;&gt;Node17 -->
<g id="edge26" class="edge">
<title>Node16&#45;&gt;Node17</title>
<path fill="none" stroke="midnightblue" d="M192.8,-168.44C173.56,-159.64 143.35,-145.81 121.3,-135.72"/>
<polygon fill="midnightblue" stroke="midnightblue" points="122.66,-132.5 112.11,-131.52 119.75,-138.86 122.66,-132.5"/>
</g>
</g>
</svg>
