<?xml version="1.0" encoding="UTF-8" standalone="no"?>
<!DOCTYPE svg PUBLIC "-//W3C//DTD SVG 1.1//EN"
 "http://www.w3.org/Graphics/SVG/1.1/DTD/svg11.dtd">
<!-- Generated by graphviz version 2.43.0 (0)
 -->
<!-- Title: libccc/math/sort.h Pages: 1 -->
<!--zoomable 364 -->
<svg id="main" version="1.1" xmlns="http://www.w3.org/2000/svg" xmlns:xlink="http://www.w3.org/1999/xlink" xml:space="preserve" onload="init(evt)">
<style type="text/css"><![CDATA[
.edge:hover path { stroke: red; }
.edge:hover polygon { stroke: red; fill: red; }
]]></style>
<script type="text/javascript"><![CDATA[
var edges = document.getElementsByTagName('g');
if (edges && edges.length) {
  for (var i=0;i<edges.length;i++) {
    if (edges[i].id.substr(0,4)=='edge') {
      edges[i].setAttribute('class','edge');
    }
  }
}
]]></script>
        <defs>
                <circle id="rim" cx="0" cy="0" r="7"/>
                <circle id="rim2" cx="0" cy="0" r="3.5"/>
                <g id="zoomPlus">
                        <use xlink:href="#rim" fill="#404040">
                                <set attributeName="fill" to="#808080" begin="zoomplus.mouseover" end="zoomplus.mouseout"/>
                        </use>
                        <path d="M-4,0h8M0,-4v8" fill="none" stroke="white" stroke-width="1.5" pointer-events="none"/>
                </g>
                <g id="zoomMin">
                        <use xlink:href="#rim" fill="#404040">
                                <set attributeName="fill" to="#808080" begin="zoomminus.mouseover" end="zoomminus.mouseout"/>
                        </use>
                        <path d="M-4,0h8" fill="none" stroke="white" stroke-width="1.5" pointer-events="none"/>
                </g>
                <g id="dirArrow">
                        <path fill="none" stroke="white" stroke-width="1.5" d="M0,-3.0v7 M-2.5,-0.5L0,-3.0L2.5,-0.5"/>
                </g>
               <g id="resetDef">
                       <use xlink:href="#rim2" fill="#404040">
                               <set attributeName="fill" to="#808080" begin="reset.mouseover" end="reset.mouseout"/>
                       </use>
               </g>
        </defs>

<script type="text/javascript">
var viewWidth = 894;
var viewHeight = 364;
var sectionId = 'dynsection-0';
</script>
<script xlink:href="svgpan.js"/>
<svg id="graph" class="graph">
<g id="viewport">
<title>libccc/math/sort.h</title>
<polygon fill="white" stroke="transparent" points="-4,4 -4,-360 889.5,-360 889.5,4 -4,4"/>
<!-- Node1 -->
<g id="node1" class="node">
<title>Node1</title>
<g id="a_node1"><a xlink:title=" ">
<polygon fill="#bfbfbf" stroke="black" points="334,-336.5 334,-355.5 445,-355.5 445,-336.5 334,-336.5"/>
<text text-anchor="middle" x="389.5" y="-343.5" font-family="Consolas" font-size="10.00">libccc/math/sort.h</text>
</a>
</g>
</g>
<!-- Node2 -->
<g id="node2" class="node">
<title>Node2</title>
<g id="a_node2"><a xlink:href="int_8h.html" target="_top" xlink:title=" ">
<polygon fill="white" stroke="black" points="295.5,-280.5 295.5,-299.5 375.5,-299.5 375.5,-280.5 295.5,-280.5"/>
<text text-anchor="middle" x="335.5" y="-287.5" font-family="Consolas" font-size="10.00">libccc/int.h</text>
</a>
</g>
</g>
<!-- Node1&#45;&gt;Node2 -->
<g id="edge1" class="edge">
<title>Node1&#45;&gt;Node2</title>
<path fill="none" stroke="midnightblue" d="M380.58,-336.08C372.72,-328.22 361.07,-316.57 351.58,-307.08"/>
<polygon fill="midnightblue" stroke="midnightblue" points="353.8,-304.35 344.25,-299.75 348.85,-309.3 353.8,-304.35"/>
</g>
<!-- Node17 -->
<g id="node17" class="node">
<title>Node17</title>
<g id="a_node17"><a xlink:href="pointer_8h.html" target="_top" xlink:title=" ">
<polygon fill="white" stroke="black" points="394,-280.5 394,-299.5 495,-299.5 495,-280.5 394,-280.5"/>
<text text-anchor="middle" x="444.5" y="-287.5" font-family="Consolas" font-size="10.00">libccc/pointer.h</text>
</a>
</g>
</g>
<!-- Node1&#45;&gt;Node17 -->
<g id="edge24" class="edge">
<title>Node1&#45;&gt;Node17</title>
<path fill="none" stroke="midnightblue" d="M398.58,-336.08C406.67,-328.14 418.7,-316.34 428.41,-306.8"/>
<polygon fill="midnightblue" stroke="midnightblue" points="430.9,-309.25 435.59,-299.75 426,-304.26 430.9,-309.25"/>
</g>
<!-- Node3 -->
<g id="node3" class="node">
<title>Node3</title>
<g id="a_node3"><a xlink:title=" ">
<polygon fill="white" stroke="#bfbfbf" points="390,-224.5 390,-243.5 449,-243.5 449,-224.5 390,-224.5"/>
<text text-anchor="middle" x="419.5" y="-231.5" font-family="Consolas" font-size="10.00">stdint.h</text>
</a>
</g>
</g>
<!-- Node2&#45;&gt;Node3 -->
<g id="edge2" class="edge">
<title>Node2&#45;&gt;Node3</title>
<path fill="none" stroke="midnightblue" d="M349,-280.32C362.1,-271.9 382.21,-258.97 397.61,-249.07"/>
<polygon fill="midnightblue" stroke="midnightblue" points="399.52,-252.01 406.04,-243.65 395.73,-246.12 399.52,-252.01"/>
</g>
<!-- Node4 -->
<g id="node4" class="node">
<title>Node4</title>
<g id="a_node4"><a xlink:href="libccc_8h.html" target="_top" xlink:title=" ">
<polygon fill="white" stroke="black" points="274,-224.5 274,-243.5 333,-243.5 333,-224.5 274,-224.5"/>
<text text-anchor="middle" x="303.5" y="-231.5" font-family="Consolas" font-size="10.00">libccc.h</text>
</a>
</g>
</g>
<!-- Node2&#45;&gt;Node4 -->
<g id="edge3" class="edge">
<title>Node2&#45;&gt;Node4</title>
<path fill="none" stroke="midnightblue" d="M330.22,-280.08C325.79,-272.61 319.34,-261.72 313.88,-252.52"/>
<polygon fill="midnightblue" stroke="midnightblue" points="316.79,-250.57 308.69,-243.75 310.77,-254.14 316.79,-250.57"/>
</g>
<!-- Node5 -->
<g id="node5" class="node">
<title>Node5</title>
<g id="a_node5"><a xlink:href="libccc__define_8h.html" target="_top" xlink:title=" ">
<polygon fill="white" stroke="black" points="114,-56.5 114,-75.5 209,-75.5 209,-56.5 114,-56.5"/>
<text text-anchor="middle" x="161.5" y="-63.5" font-family="Consolas" font-size="10.00">libccc_define.h</text>
</a>
</g>
</g>
<!-- Node4&#45;&gt;Node5 -->
<g id="edge4" class="edge">
<title>Node4&#45;&gt;Node5</title>
<path fill="none" stroke="midnightblue" d="M297.75,-224.32C289.21,-211.61 272.46,-187.33 256.5,-168 230.36,-136.35 196.9,-102.06 177.46,-82.68"/>
<polygon fill="midnightblue" stroke="midnightblue" points="179.85,-80.12 170.28,-75.57 174.92,-85.09 179.85,-80.12"/>
</g>
<!-- Node7 -->
<g id="node7" class="node">
<title>Node7</title>
<g id="a_node7"><a xlink:href="libccc__errors_8h.html" target="_top" xlink:title=" ">
<polygon fill="white" stroke="black" points="76,-112.5 76,-131.5 171,-131.5 171,-112.5 76,-112.5"/>
<text text-anchor="middle" x="123.5" y="-119.5" font-family="Consolas" font-size="10.00">libccc_errors.h</text>
</a>
</g>
</g>
<!-- Node4&#45;&gt;Node7 -->
<g id="edge6" class="edge">
<title>Node4&#45;&gt;Node7</title>
<path fill="none" stroke="midnightblue" d="M273.71,-232.95C237.78,-231.24 177.8,-222.88 142.5,-188 130.36,-176 125.88,-156.71 124.27,-142.25"/>
<polygon fill="midnightblue" stroke="midnightblue" points="127.74,-141.64 123.51,-131.92 120.76,-142.15 127.74,-141.64"/>
</g>
<!-- Node8 -->
<g id="node8" class="node">
<title>Node8</title>
<g id="a_node8"><a xlink:href="libccc__config_8h.html" target="_top" xlink:title=" ">
<polygon fill="white" stroke="black" points="152,-168.5 152,-187.5 247,-187.5 247,-168.5 152,-168.5"/>
<text text-anchor="middle" x="199.5" y="-175.5" font-family="Consolas" font-size="10.00">libccc_config.h</text>
</a>
</g>
</g>
<!-- Node4&#45;&gt;Node8 -->
<g id="edge8" class="edge">
<title>Node4&#45;&gt;Node8</title>
<path fill="none" stroke="midnightblue" d="M286.79,-224.32C270.19,-215.7 244.5,-202.36 225.28,-192.39"/>
<polygon fill="midnightblue" stroke="midnightblue" points="226.66,-189.16 216.17,-187.65 223.43,-195.37 226.66,-189.16"/>
</g>
<!-- Node9 -->
<g id="node9" class="node">
<title>Node9</title>
<g id="a_node9"><a xlink:href="libccc__naming_8h.html" target="_top" xlink:title=" ">
<polygon fill="white" stroke="black" points="0,-168.5 0,-187.5 95,-187.5 95,-168.5 0,-168.5"/>
<text text-anchor="middle" x="47.5" y="-175.5" font-family="Consolas" font-size="10.00">libccc_naming.h</text>
</a>
</g>
</g>
<!-- Node4&#45;&gt;Node9 -->
<g id="edge11" class="edge">
<title>Node4&#45;&gt;Node9</title>
<path fill="none" stroke="midnightblue" d="M273.88,-226.75C230.94,-217.7 150.81,-200.79 98.31,-189.72"/>
<polygon fill="midnightblue" stroke="midnightblue" points="98.71,-186.23 88.2,-187.59 97.27,-193.07 98.71,-186.23"/>
</g>
<!-- Node10 -->
<g id="node10" class="node">
<title>Node10</title>
<g id="a_node10"><a xlink:href="math_8h.html" target="_top" xlink:title=" ">
<polygon fill="white" stroke="black" points="499.5,-168.5 499.5,-187.5 547.5,-187.5 547.5,-168.5 499.5,-168.5"/>
<text text-anchor="middle" x="523.5" y="-175.5" font-family="Consolas" font-size="10.00">math.h</text>
</a>
</g>
</g>
<!-- Node4&#45;&gt;Node10 -->
<g id="edge13" class="edge">
<title>Node4&#45;&gt;Node10</title>
<path fill="none" stroke="midnightblue" d="M333.17,-225.72C373.8,-215.74 446.59,-197.88 489.41,-187.37"/>
<polygon fill="midnightblue" stroke="midnightblue" points="490.48,-190.71 499.36,-184.93 488.81,-183.91 490.48,-190.71"/>
</g>
<!-- Node6 -->
<g id="node6" class="node">
<title>Node6</title>
<g id="a_node6"><a xlink:title=" ">
<polygon fill="white" stroke="#bfbfbf" points="127,-0.5 127,-19.5 196,-19.5 196,-0.5 127,-0.5"/>
<text text-anchor="middle" x="161.5" y="-7.5" font-family="Consolas" font-size="10.00">stdalign.h</text>
</a>
</g>
</g>
<!-- Node5&#45;&gt;Node6 -->
<g id="edge5" class="edge">
<title>Node5&#45;&gt;Node6</title>
<path fill="none" stroke="midnightblue" d="M161.5,-56.08C161.5,-49.01 161.5,-38.86 161.5,-29.99"/>
<polygon fill="midnightblue" stroke="midnightblue" points="165,-29.75 161.5,-19.75 158,-29.75 165,-29.75"/>
</g>
<!-- Node7&#45;&gt;Node5 -->
<g id="edge7" class="edge">
<title>Node7&#45;&gt;Node5</title>
<path fill="none" stroke="midnightblue" d="M129.77,-112.08C135.14,-104.46 143.02,-93.26 149.58,-83.94"/>
<polygon fill="midnightblue" stroke="midnightblue" points="152.45,-85.94 155.34,-75.75 146.72,-81.91 152.45,-85.94"/>
</g>
<!-- Node8&#45;&gt;Node5 -->
<g id="edge9" class="edge">
<title>Node8&#45;&gt;Node5</title>
<path fill="none" stroke="midnightblue" d="M197.01,-168.09C193.43,-155.5 186.5,-131.82 179.5,-112 176.31,-102.96 172.39,-93.06 169.03,-84.85"/>
<polygon fill="midnightblue" stroke="midnightblue" points="172.23,-83.44 165.16,-75.55 165.77,-86.12 172.23,-83.44"/>
</g>
<!-- Node8&#45;&gt;Node7 -->
<g id="edge10" class="edge">
<title>Node8&#45;&gt;Node7</title>
<path fill="none" stroke="midnightblue" d="M187.29,-168.32C175.72,-160.11 158.12,-147.6 144.34,-137.81"/>
<polygon fill="midnightblue" stroke="midnightblue" points="146.11,-134.77 135.93,-131.83 142.06,-140.48 146.11,-134.77"/>
</g>
<!-- Node9&#45;&gt;Node5 -->
<g id="edge12" class="edge">
<title>Node9&#45;&gt;Node5</title>
<path fill="none" stroke="midnightblue" d="M47.83,-168.37C48.79,-154.84 52.46,-128.46 66.5,-112 79.69,-96.54 99.39,-86.01 117.43,-79.05"/>
<polygon fill="midnightblue" stroke="midnightblue" points="119,-82.21 127.23,-75.55 116.64,-75.62 119,-82.21"/>
</g>
<!-- Node11 -->
<g id="node11" class="node">
<title>Node11</title>
<g id="a_node11"><a xlink:href="constants_8h.html" target="_top" xlink:title=" ">
<polygon fill="white" stroke="black" points="600,-112.5 600,-131.5 737,-131.5 737,-112.5 600,-112.5"/>
<text text-anchor="middle" x="668.5" y="-119.5" font-family="Consolas" font-size="10.00">libccc/math/constants.h</text>
</a>
</g>
</g>
<!-- Node10&#45;&gt;Node11 -->
<g id="edge14" class="edge">
<title>Node10&#45;&gt;Node11</title>
<path fill="none" stroke="midnightblue" d="M546.48,-168.44C570.66,-159.44 608.92,-145.19 636.15,-135.05"/>
<polygon fill="midnightblue" stroke="midnightblue" points="637.48,-138.29 645.63,-131.52 635.04,-131.73 637.48,-138.29"/>
</g>
<!-- Node13 -->
<g id="node13" class="node">
<title>Node13</title>
<g id="a_node13"><a xlink:href="math_2int_8h.html" target="_top" xlink:title=" ">
<polygon fill="white" stroke="black" points="341.5,-112.5 341.5,-131.5 447.5,-131.5 447.5,-112.5 341.5,-112.5"/>
<text text-anchor="middle" x="394.5" y="-119.5" font-family="Consolas" font-size="10.00">libccc/math/int.h</text>
</a>
</g>
</g>
<!-- Node10&#45;&gt;Node13 -->
<g id="edge17" class="edge">
<title>Node10&#45;&gt;Node13</title>
<path fill="none" stroke="midnightblue" d="M503.06,-168.44C481.83,-159.56 448.4,-145.56 424.25,-135.45"/>
<polygon fill="midnightblue" stroke="midnightblue" points="425.42,-132.15 414.84,-131.52 422.72,-138.61 425.42,-132.15"/>
</g>
<!-- Node14 -->
<g id="node14" class="node">
<title>Node14</title>
<g id="a_node14"><a xlink:href="math_2fixed_8h.html" target="_top" xlink:title=" ">
<polygon fill="white" stroke="black" points="465.5,-112.5 465.5,-131.5 581.5,-131.5 581.5,-112.5 465.5,-112.5"/>
<text text-anchor="middle" x="523.5" y="-119.5" font-family="Consolas" font-size="10.00">libccc/math/fixed.h</text>
</a>
</g>
</g>
<!-- Node10&#45;&gt;Node14 -->
<g id="edge19" class="edge">
<title>Node10&#45;&gt;Node14</title>
<path fill="none" stroke="midnightblue" d="M523.5,-168.08C523.5,-161.01 523.5,-150.86 523.5,-141.99"/>
<polygon fill="midnightblue" stroke="midnightblue" points="527,-141.75 523.5,-131.75 520,-141.75 527,-141.75"/>
</g>
<!-- Node16 -->
<g id="node16" class="node">
<title>Node16</title>
<g id="a_node16"><a xlink:href="math_2float_8h.html" target="_top" xlink:title=" ">
<polygon fill="white" stroke="black" points="755.5,-112.5 755.5,-131.5 871.5,-131.5 871.5,-112.5 755.5,-112.5"/>
<text text-anchor="middle" x="813.5" y="-119.5" font-family="Consolas" font-size="10.00">libccc/math/float.h</text>
</a>
</g>
</g>
<!-- Node10&#45;&gt;Node16 -->
<g id="edge22" class="edge">
<title>Node10&#45;&gt;Node16</title>
<path fill="none" stroke="midnightblue" d="M547.73,-172.49C593.66,-163.94 694.5,-145.16 757.91,-133.35"/>
<polygon fill="midnightblue" stroke="midnightblue" points="758.56,-136.79 767.75,-131.52 757.28,-129.91 758.56,-136.79"/>
</g>
<!-- Node12 -->
<g id="node12" class="node">
<title>Node12</title>
<g id="a_node12"><a xlink:href="float_8h.html" target="_top" xlink:title=" ">
<polygon fill="white" stroke="black" points="768.5,-56.5 768.5,-75.5 858.5,-75.5 858.5,-56.5 768.5,-56.5"/>
<text text-anchor="middle" x="813.5" y="-63.5" font-family="Consolas" font-size="10.00">libccc/float.h</text>
</a>
</g>
</g>
<!-- Node11&#45;&gt;Node12 -->
<g id="edge15" class="edge">
<title>Node11&#45;&gt;Node12</title>
<path fill="none" stroke="midnightblue" d="M691.48,-112.44C715.66,-103.44 753.92,-89.19 781.15,-79.05"/>
<polygon fill="midnightblue" stroke="midnightblue" points="782.48,-82.29 790.63,-75.52 780.04,-75.73 782.48,-82.29"/>
</g>
<!-- Node12&#45;&gt;Node4 -->
<g id="edge16" class="edge">
<title>Node12&#45;&gt;Node4</title>
<path fill="none" stroke="midnightblue" d="M834.41,-75.68C860.3,-87.63 898.85,-110.16 880.5,-132 862.98,-152.85 470.72,-209.53 343.18,-227.48"/>
<polygon fill="midnightblue" stroke="midnightblue" points="342.48,-224.04 333.06,-228.9 343.45,-230.97 342.48,-224.04"/>
</g>
<!-- Node13&#45;&gt;Node2 -->
<g id="edge18" class="edge">
<title>Node13&#45;&gt;Node2</title>
<path fill="none" stroke="midnightblue" d="M391.45,-131.57C382.29,-157.34 354.84,-234.59 342.11,-270.39"/>
<polygon fill="midnightblue" stroke="midnightblue" points="338.72,-269.48 338.67,-280.08 345.32,-271.82 338.72,-269.48"/>
</g>
<!-- Node15 -->
<g id="node15" class="node">
<title>Node15</title>
<g id="a_node15"><a xlink:href="fixed_8h.html" target="_top" xlink:title=" ">
<polygon fill="white" stroke="black" points="373.5,-56.5 373.5,-75.5 463.5,-75.5 463.5,-56.5 373.5,-56.5"/>
<text text-anchor="middle" x="418.5" y="-63.5" font-family="Consolas" font-size="10.00">libccc/fixed.h</text>
</a>
</g>
</g>
<!-- Node14&#45;&gt;Node15 -->
<g id="edge20" class="edge">
<title>Node14&#45;&gt;Node15</title>
<path fill="none" stroke="midnightblue" d="M506.63,-112.32C489.79,-103.66 463.69,-90.24 444.26,-80.25"/>
<polygon fill="midnightblue" stroke="midnightblue" points="445.82,-77.12 435.33,-75.65 442.62,-83.34 445.82,-77.12"/>
</g>
<!-- Node15&#45;&gt;Node4 -->
<g id="edge21" class="edge">
<title>Node15&#45;&gt;Node4</title>
<path fill="none" stroke="midnightblue" d="M388.4,-75.63C369.63,-82.52 346.48,-94.06 332.5,-112 309.01,-142.14 304.14,-188.41 303.37,-214.12"/>
<polygon fill="midnightblue" stroke="midnightblue" points="299.87,-214.31 303.25,-224.35 306.86,-214.39 299.87,-214.31"/>
</g>
<!-- Node16&#45;&gt;Node12 -->
<g id="edge23" class="edge">
<title>Node16&#45;&gt;Node12</title>
<path fill="none" stroke="midnightblue" d="M813.5,-112.08C813.5,-105.01 813.5,-94.86 813.5,-85.99"/>
<polygon fill="midnightblue" stroke="midnightblue" points="817,-85.75 813.5,-75.75 810,-85.75 817,-85.75"/>
</g>
<!-- Node17&#45;&gt;Node3 -->
<g id="edge26" class="edge">
<title>Node17&#45;&gt;Node3</title>
<path fill="none" stroke="midnightblue" d="M440.37,-280.08C436.99,-272.77 432.08,-262.18 427.88,-253.1"/>
<polygon fill="midnightblue" stroke="midnightblue" points="430.93,-251.36 423.55,-243.75 424.58,-254.3 430.93,-251.36"/>
</g>
<!-- Node17&#45;&gt;Node4 -->
<g id="edge27" class="edge">
<title>Node17&#45;&gt;Node4</title>
<path fill="none" stroke="midnightblue" d="M422.16,-280.44C398.75,-271.48 361.76,-257.31 335.31,-247.18"/>
<polygon fill="midnightblue" stroke="midnightblue" points="336.33,-243.82 325.74,-243.52 333.82,-250.36 336.33,-243.82"/>
</g>
<!-- Node18 -->
<g id="node18" class="node">
<title>Node18</title>
<g id="a_node18"><a xlink:title=" ">
<polygon fill="white" stroke="#bfbfbf" points="467,-224.5 467,-243.5 526,-243.5 526,-224.5 467,-224.5"/>
<text text-anchor="middle" x="496.5" y="-231.5" font-family="Consolas" font-size="10.00">stddef.h</text>
</a>
</g>
</g>
<!-- Node17&#45;&gt;Node18 -->
<g id="edge25" class="edge">
<title>Node17&#45;&gt;Node18</title>
<path fill="none" stroke="midnightblue" d="M453.09,-280.08C460.66,-272.22 471.88,-260.57 481.01,-251.08"/>
<polygon fill="midnightblue" stroke="midnightblue" points="483.66,-253.38 488.07,-243.75 478.62,-248.53 483.66,-253.38"/>
</g>
</g>
</svg>
        <g id="navigator" transform="translate(0 0)" fill="#404254">
                <rect fill="#f2f5e9" fill-opacity="0.5" stroke="#606060" stroke-width=".5" x="0" y="0" width="60" height="60"/>
                <use id="zoomplus" xlink:href="#zoomPlus" x="17" y="9" onmousedown="handleZoom(evt,'in')"/>
                <use id="zoomminus" xlink:href="#zoomMin" x="42" y="9" onmousedown="handleZoom(evt,'out')"/>
                <use id="reset" xlink:href="#resetDef" x="30" y="36" onmousedown="handleReset()"/>
                <g id="arrowUp" xlink:href="#dirArrow" transform="translate(30 24)" onmousedown="handlePan(0,-1)">
                  <use xlink:href="#rim" fill="#404040">
                        <set attributeName="fill" to="#808080" begin="arrowUp.mouseover" end="arrowUp.mouseout"/>
                  </use>
                  <path fill="none" stroke="white" stroke-width="1.5" d="M0,-3.0v7 M-2.5,-0.5L0,-3.0L2.5,-0.5"/>
                </g>
                <g id="arrowRight" xlink:href="#dirArrow" transform="rotate(90) translate(36 -43)" onmousedown="handlePan(1,0)">
                  <use xlink:href="#rim" fill="#404040">
                        <set attributeName="fill" to="#808080" begin="arrowRight.mouseover" end="arrowRight.mouseout"/>
                  </use>
                  <path fill="none" stroke="white" stroke-width="1.5" d="M0,-3.0v7 M-2.5,-0.5L0,-3.0L2.5,-0.5"/>
                </g>
                <g id="arrowDown" xlink:href="#dirArrow" transform="rotate(180) translate(-30 -48)" onmousedown="handlePan(0,1)">
                  <use xlink:href="#rim" fill="#404040">
                        <set attributeName="fill" to="#808080" begin="arrowDown.mouseover" end="arrowDown.mouseout"/>
                  </use>
                  <path fill="none" stroke="white" stroke-width="1.5" d="M0,-3.0v7 M-2.5,-0.5L0,-3.0L2.5,-0.5"/>
                </g>
                <g id="arrowLeft" xlink:href="#dirArrow" transform="rotate(270) translate(-36 17)" onmousedown="handlePan(-1,0)">
                  <use xlink:href="#rim" fill="#404040">
                        <set attributeName="fill" to="#808080" begin="arrowLeft.mouseover" end="arrowLeft.mouseout"/>
                  </use>
                  <path fill="none" stroke="white" stroke-width="1.5" d="M0,-3.0v7 M-2.5,-0.5L0,-3.0L2.5,-0.5"/>
                </g>
        </g>
        <svg viewBox="0 0 15 15" width="100%" height="30px" preserveAspectRatio="xMaxYMin meet">
         <g id="arrow_out" transform="scale(0.3 0.3)">
          <a xlink:href="sort_8h__incl_org.svg" target="_base">
           <rect id="button" ry="5" rx="5" y="6" x="6" height="38" width="38"
                fill="#f2f5e9" fill-opacity="0.5" stroke="#606060" stroke-width="1.0"/>
           <path id="arrow"
             d="M 11.500037,31.436501 C 11.940474,20.09759 22.043105,11.32322 32.158766,21.979434 L 37.068811,17.246167 C 37.068811,17.246167 37.088388,32 37.088388,32 L 22.160133,31.978069 C 22.160133,31.978069 26.997745,27.140456 26.997745,27.140456 C 18.528582,18.264221 13.291696,25.230495 11.500037,31.436501 z"
             style="fill:#404040;"/>
          </a>
         </g>
        </svg>
</svg>
