<?xml version="1.0" encoding="UTF-8" standalone="no"?>
<!DOCTYPE svg PUBLIC "-//W3C//DTD SVG 1.1//EN"
 "http://www.w3.org/Graphics/SVG/1.1/DTD/svg11.dtd">
<!-- Generated by graphviz version 2.49.3 (20211023.0002)
 -->
<!-- Title: libccc/math/stat.h Pages: 1 -->
<svg width="278pt" height="364pt"
 viewBox="0.00 0.00 277.50 364.00" xmlns="http://www.w3.org/2000/svg" xmlns:xlink="http://www.w3.org/1999/xlink">
<g id="graph0" class="graph" transform="scale(1 1) rotate(0) translate(4 360)">
<title>libccc/math/stat.h</title>
<polygon fill="white" stroke="transparent" points="-4,4 -4,-360 273.5,-360 273.5,4 -4,4"/>
<!-- Node1 -->
<g id="node1" class="node">
<title>Node1</title>
<g id="a_node1"><a xlink:title=" ">
<polygon fill="#bfbfbf" stroke="black" points="71.5,-336.5 71.5,-355.5 166.5,-355.5 166.5,-336.5 71.5,-336.5"/>
<text text-anchor="middle" x="119" y="-343.5" font-family="Consolas" font-size="10.00">libccc/math/stat.h</text>
</a>
</g>
</g>
<!-- Node2 -->
<g id="node2" class="node">
<title>Node2</title>
<g id="a_node2"><a xlink:href="int_8h.html" target="_top" xlink:title=" ">
<polygon fill="white" stroke="black" points="0,-280.5 0,-299.5 64,-299.5 64,-280.5 0,-280.5"/>
<text text-anchor="middle" x="32" y="-287.5" font-family="Consolas" font-size="10.00">libccc/int.h</text>
</a>
</g>
</g>
<!-- Node1&#45;&gt;Node2 -->
<g id="edge1" class="edge">
<title>Node1&#45;&gt;Node2</title>
<path fill="none" stroke="midnightblue" d="M105.02,-336.32C91.45,-327.9 70.62,-314.97 54.68,-305.07"/>
<polygon fill="midnightblue" stroke="midnightblue" points="56.29,-301.95 45.94,-299.65 52.59,-307.9 56.29,-301.95"/>
</g>
<!-- Node10 -->
<g id="node10" class="node">
<title>Node10</title>
<g id="a_node10"><a xlink:href="fixed_8h.html" target="_top" xlink:title=" ">
<polygon fill="white" stroke="black" points="82,-280.5 82,-299.5 156,-299.5 156,-280.5 82,-280.5"/>
<text text-anchor="middle" x="119" y="-287.5" font-family="Consolas" font-size="10.00">libccc/fixed.h</text>
</a>
</g>
</g>
<!-- Node1&#45;&gt;Node10 -->
<g id="edge13" class="edge">
<title>Node1&#45;&gt;Node10</title>
<path fill="none" stroke="midnightblue" d="M119,-336.08C119,-329.01 119,-318.86 119,-309.99"/>
<polygon fill="midnightblue" stroke="midnightblue" points="122.5,-309.75 119,-299.75 115.5,-309.75 122.5,-309.75"/>
</g>
<!-- Node11 -->
<g id="node11" class="node">
<title>Node11</title>
<g id="a_node11"><a xlink:href="float_8h.html" target="_top" xlink:title=" ">
<polygon fill="white" stroke="black" points="174,-280.5 174,-299.5 246,-299.5 246,-280.5 174,-280.5"/>
<text text-anchor="middle" x="210" y="-287.5" font-family="Consolas" font-size="10.00">libccc/float.h</text>
</a>
</g>
</g>
<!-- Node1&#45;&gt;Node11 -->
<g id="edge15" class="edge">
<title>Node1&#45;&gt;Node11</title>
<path fill="none" stroke="midnightblue" d="M133.62,-336.32C147.95,-327.82 170.01,-314.73 186.75,-304.8"/>
<polygon fill="midnightblue" stroke="midnightblue" points="188.6,-307.77 195.42,-299.65 185.03,-301.75 188.6,-307.77"/>
</g>
<!-- Node3 -->
<g id="node3" class="node">
<title>Node3</title>
<g id="a_node3"><a xlink:title=" ">
<polygon fill="white" stroke="#bfbfbf" points="7.5,-224.5 7.5,-243.5 56.5,-243.5 56.5,-224.5 7.5,-224.5"/>
<text text-anchor="middle" x="32" y="-231.5" font-family="Consolas" font-size="10.00">stdint.h</text>
</a>
</g>
</g>
<!-- Node2&#45;&gt;Node3 -->
<g id="edge2" class="edge">
<title>Node2&#45;&gt;Node3</title>
<path fill="none" stroke="midnightblue" d="M32,-280.08C32,-273.01 32,-262.86 32,-253.99"/>
<polygon fill="midnightblue" stroke="midnightblue" points="35.5,-253.75 32,-243.75 28.5,-253.75 35.5,-253.75"/>
</g>
<!-- Node4 -->
<g id="node4" class="node">
<title>Node4</title>
<g id="a_node4"><a xlink:href="libccc_8h.html" target="_top" xlink:title=" ">
<polygon fill="white" stroke="black" points="94,-224.5 94,-243.5 144,-243.5 144,-224.5 94,-224.5"/>
<text text-anchor="middle" x="119" y="-231.5" font-family="Consolas" font-size="10.00">libccc.h</text>
</a>
</g>
</g>
<!-- Node2&#45;&gt;Node4 -->
<g id="edge3" class="edge">
<title>Node2&#45;&gt;Node4</title>
<path fill="none" stroke="midnightblue" d="M45.98,-280.32C59.55,-271.9 80.38,-258.97 96.32,-249.07"/>
<polygon fill="midnightblue" stroke="midnightblue" points="98.41,-251.9 105.06,-243.65 94.71,-245.95 98.41,-251.9"/>
</g>
<!-- Node5 -->
<g id="node5" class="node">
<title>Node5</title>
<g id="a_node5"><a xlink:href="libccc__define_8h.html" target="_top" xlink:title=" ">
<polygon fill="white" stroke="black" points="79,-56.5 79,-75.5 161,-75.5 161,-56.5 79,-56.5"/>
<text text-anchor="middle" x="120" y="-63.5" font-family="Consolas" font-size="10.00">libccc_define.h</text>
</a>
</g>
</g>
<!-- Node4&#45;&gt;Node5 -->
<g id="edge4" class="edge">
<title>Node4&#45;&gt;Node5</title>
<path fill="none" stroke="midnightblue" d="M105.22,-224.42C75.69,-204.93 11.04,-155.61 37,-112 46.1,-96.72 62.39,-86.31 78.14,-79.39"/>
<polygon fill="midnightblue" stroke="midnightblue" points="79.83,-82.48 87.82,-75.51 77.23,-75.98 79.83,-82.48"/>
</g>
<!-- Node7 -->
<g id="node7" class="node">
<title>Node7</title>
<g id="a_node7"><a xlink:href="libccc__errors_8h.html" target="_top" xlink:title=" ">
<polygon fill="white" stroke="black" points="46,-112.5 46,-131.5 126,-131.5 126,-112.5 46,-112.5"/>
<text text-anchor="middle" x="86" y="-119.5" font-family="Consolas" font-size="10.00">libccc_errors.h</text>
</a>
</g>
</g>
<!-- Node4&#45;&gt;Node7 -->
<g id="edge6" class="edge">
<title>Node4&#45;&gt;Node7</title>
<path fill="none" stroke="midnightblue" d="M115.99,-224.42C112.86,-215.39 107.89,-200.76 104,-188 99.25,-172.42 94.35,-154.59 90.86,-141.55"/>
<polygon fill="midnightblue" stroke="midnightblue" points="94.24,-140.64 88.3,-131.87 87.48,-142.44 94.24,-140.64"/>
</g>
<!-- Node8 -->
<g id="node8" class="node">
<title>Node8</title>
<g id="a_node8"><a xlink:href="libccc__config_8h.html" target="_top" xlink:title=" ">
<polygon fill="white" stroke="black" points="113,-168.5 113,-187.5 195,-187.5 195,-168.5 113,-168.5"/>
<text text-anchor="middle" x="154" y="-175.5" font-family="Consolas" font-size="10.00">libccc_config.h</text>
</a>
</g>
</g>
<!-- Node4&#45;&gt;Node8 -->
<g id="edge8" class="edge">
<title>Node4&#45;&gt;Node8</title>
<path fill="none" stroke="midnightblue" d="M124.78,-224.08C129.67,-216.53 136.83,-205.49 142.83,-196.23"/>
<polygon fill="midnightblue" stroke="midnightblue" points="145.83,-198.05 148.33,-187.75 139.95,-194.24 145.83,-198.05"/>
</g>
<!-- Node9 -->
<g id="node9" class="node">
<title>Node9</title>
<g id="a_node9"><a xlink:href="libccc__naming_8h.html" target="_top" xlink:title=" ">
<polygon fill="white" stroke="black" points="182.5,-112.5 182.5,-131.5 269.5,-131.5 269.5,-112.5 182.5,-112.5"/>
<text text-anchor="middle" x="226" y="-119.5" font-family="Consolas" font-size="10.00">libccc_naming.h</text>
</a>
</g>
</g>
<!-- Node4&#45;&gt;Node9 -->
<g id="edge11" class="edge">
<title>Node4&#45;&gt;Node9</title>
<path fill="none" stroke="midnightblue" d="M144.23,-225.36C163.12,-218.43 188.31,-206.44 204,-188 215.21,-174.83 220.78,-155.69 223.5,-141.59"/>
<polygon fill="midnightblue" stroke="midnightblue" points="226.98,-142 225.13,-131.57 220.07,-140.88 226.98,-142"/>
</g>
<!-- Node6 -->
<g id="node6" class="node">
<title>Node6</title>
<g id="a_node6"><a xlink:title=" ">
<polygon fill="white" stroke="#bfbfbf" points="90.5,-0.5 90.5,-19.5 149.5,-19.5 149.5,-0.5 90.5,-0.5"/>
<text text-anchor="middle" x="120" y="-7.5" font-family="Consolas" font-size="10.00">stdalign.h</text>
</a>
</g>
</g>
<!-- Node5&#45;&gt;Node6 -->
<g id="edge5" class="edge">
<title>Node5&#45;&gt;Node6</title>
<path fill="none" stroke="midnightblue" d="M120,-56.08C120,-49.01 120,-38.86 120,-29.99"/>
<polygon fill="midnightblue" stroke="midnightblue" points="123.5,-29.75 120,-19.75 116.5,-29.75 123.5,-29.75"/>
</g>
<!-- Node7&#45;&gt;Node5 -->
<g id="edge7" class="edge">
<title>Node7&#45;&gt;Node5</title>
<path fill="none" stroke="midnightblue" d="M91.61,-112.08C96.37,-104.53 103.32,-93.49 109.15,-84.23"/>
<polygon fill="midnightblue" stroke="midnightblue" points="112.12,-86.08 114.49,-75.75 106.2,-82.35 112.12,-86.08"/>
</g>
<!-- Node8&#45;&gt;Node5 -->
<g id="edge9" class="edge">
<title>Node8&#45;&gt;Node5</title>
<path fill="none" stroke="midnightblue" d="M151.52,-168.14C147.99,-155.6 141.25,-131.97 135,-112 132.23,-103.15 129,-93.37 126.24,-85.2"/>
<polygon fill="midnightblue" stroke="midnightblue" points="129.51,-83.94 122.97,-75.6 122.88,-86.19 129.51,-83.94"/>
</g>
<!-- Node8&#45;&gt;Node7 -->
<g id="edge10" class="edge">
<title>Node8&#45;&gt;Node7</title>
<path fill="none" stroke="midnightblue" d="M143.07,-168.32C132.83,-160.18 117.28,-147.84 105,-138.09"/>
<polygon fill="midnightblue" stroke="midnightblue" points="107.13,-135.31 97.12,-131.83 102.78,-140.79 107.13,-135.31"/>
</g>
<!-- Node9&#45;&gt;Node5 -->
<g id="edge12" class="edge">
<title>Node9&#45;&gt;Node5</title>
<path fill="none" stroke="midnightblue" d="M208.97,-112.32C191.97,-103.66 165.62,-90.24 146.01,-80.25"/>
<polygon fill="midnightblue" stroke="midnightblue" points="147.49,-77.08 136.99,-75.65 144.31,-83.31 147.49,-77.08"/>
</g>
<!-- Node10&#45;&gt;Node4 -->
<g id="edge14" class="edge">
<title>Node10&#45;&gt;Node4</title>
<path fill="none" stroke="midnightblue" d="M119,-280.08C119,-273.01 119,-262.86 119,-253.99"/>
<polygon fill="midnightblue" stroke="midnightblue" points="122.5,-253.75 119,-243.75 115.5,-253.75 122.5,-253.75"/>
</g>
<!-- Node11&#45;&gt;Node4 -->
<g id="edge16" class="edge">
<title>Node11&#45;&gt;Node4</title>
<path fill="none" stroke="midnightblue" d="M195.38,-280.32C181.05,-271.82 158.99,-258.73 142.25,-248.8"/>
<polygon fill="midnightblue" stroke="midnightblue" points="143.97,-245.75 133.58,-243.65 140.4,-251.77 143.97,-245.75"/>
</g>
</g>
</svg>
