<?xml version="1.0" encoding="UTF-8" standalone="no"?>
<!DOCTYPE svg PUBLIC "-//W3C//DTD SVG 1.1//EN"
 "http://www.w3.org/Graphics/SVG/1.1/DTD/svg11.dtd">
<!-- Generated by graphviz version 2.43.0 (0)
 -->
<!-- Title: libccc/math/stat.h Pages: 1 -->
<svg width="283pt" height="420pt"
 viewBox="0.00 0.00 282.50 420.00" xmlns="http://www.w3.org/2000/svg" xmlns:xlink="http://www.w3.org/1999/xlink">
<g id="graph0" class="graph" transform="scale(1 1) rotate(0) translate(4 416)">
<title>libccc/math/stat.h</title>
<polygon fill="white" stroke="transparent" points="-4,4 -4,-416 278.5,-416 278.5,4 -4,4"/>
<!-- Node1 -->
<g id="node1" class="node">
<title>Node1</title>
<g id="a_node1"><a xlink:title=" ">
<polygon fill="#bfbfbf" stroke="black" points="54.5,-392.5 54.5,-411.5 165.5,-411.5 165.5,-392.5 54.5,-392.5"/>
<text text-anchor="middle" x="110" y="-399.5" font-family="Consolas" font-size="10.00">libccc/math/stat.h</text>
</a>
</g>
</g>
<!-- Node2 -->
<g id="node2" class="node">
<title>Node2</title>
<g id="a_node2"><a xlink:href="int_8h.html" target="_top" xlink:title=" ">
<polygon fill="white" stroke="black" points="0,-280.5 0,-299.5 80,-299.5 80,-280.5 0,-280.5"/>
<text text-anchor="middle" x="40" y="-287.5" font-family="Consolas" font-size="10.00">libccc/int.h</text>
</a>
</g>
</g>
<!-- Node1&#45;&gt;Node2 -->
<g id="edge1" class="edge">
<title>Node1&#45;&gt;Node2</title>
<path fill="none" stroke="midnightblue" d="M94.88,-392.23C82.58,-384.3 65.7,-371.52 56,-356 47.24,-341.99 43.28,-323.49 41.48,-309.81"/>
<polygon fill="midnightblue" stroke="midnightblue" points="44.94,-309.24 40.43,-299.66 37.98,-309.97 44.94,-309.24"/>
</g>
<!-- Node10 -->
<g id="node10" class="node">
<title>Node10</title>
<g id="a_node10"><a xlink:href="fixed_8h.html" target="_top" xlink:title=" ">
<polygon fill="white" stroke="black" points="65,-336.5 65,-355.5 155,-355.5 155,-336.5 65,-336.5"/>
<text text-anchor="middle" x="110" y="-343.5" font-family="Consolas" font-size="10.00">libccc/fixed.h</text>
</a>
</g>
</g>
<!-- Node1&#45;&gt;Node10 -->
<g id="edge13" class="edge">
<title>Node1&#45;&gt;Node10</title>
<path fill="none" stroke="midnightblue" d="M110,-392.08C110,-385.01 110,-374.86 110,-365.99"/>
<polygon fill="midnightblue" stroke="midnightblue" points="113.5,-365.75 110,-355.75 106.5,-365.75 113.5,-365.75"/>
</g>
<!-- Node11 -->
<g id="node11" class="node">
<title>Node11</title>
<g id="a_node11"><a xlink:href="float_8h.html" target="_top" xlink:title=" ">
<polygon fill="white" stroke="black" points="138,-280.5 138,-299.5 228,-299.5 228,-280.5 138,-280.5"/>
<text text-anchor="middle" x="183" y="-287.5" font-family="Consolas" font-size="10.00">libccc/float.h</text>
</a>
</g>
</g>
<!-- Node1&#45;&gt;Node11 -->
<g id="edge16" class="edge">
<title>Node1&#45;&gt;Node11</title>
<path fill="none" stroke="midnightblue" d="M124.46,-392.44C136.7,-384.47 153.83,-371.51 164,-356 173.16,-342.02 178.01,-323.52 180.51,-309.83"/>
<polygon fill="midnightblue" stroke="midnightblue" points="184.01,-310.09 182.1,-299.67 177.09,-309.01 184.01,-310.09"/>
</g>
<!-- Node3 -->
<g id="node3" class="node">
<title>Node3</title>
<g id="a_node3"><a xlink:title=" ">
<polygon fill="white" stroke="#bfbfbf" points="6.5,-224.5 6.5,-243.5 65.5,-243.5 65.5,-224.5 6.5,-224.5"/>
<text text-anchor="middle" x="36" y="-231.5" font-family="Consolas" font-size="10.00">stdint.h</text>
</a>
</g>
</g>
<!-- Node2&#45;&gt;Node3 -->
<g id="edge2" class="edge">
<title>Node2&#45;&gt;Node3</title>
<path fill="none" stroke="midnightblue" d="M39.34,-280.08C38.82,-273.01 38.06,-262.86 37.41,-253.99"/>
<polygon fill="midnightblue" stroke="midnightblue" points="40.88,-253.47 36.65,-243.75 33.9,-253.98 40.88,-253.47"/>
</g>
<!-- Node4 -->
<g id="node4" class="node">
<title>Node4</title>
<g id="a_node4"><a xlink:href="libccc_8h.html" target="_top" xlink:title=" ">
<polygon fill="white" stroke="black" points="83.5,-224.5 83.5,-243.5 142.5,-243.5 142.5,-224.5 83.5,-224.5"/>
<text text-anchor="middle" x="113" y="-231.5" font-family="Consolas" font-size="10.00">libccc.h</text>
</a>
</g>
</g>
<!-- Node2&#45;&gt;Node4 -->
<g id="edge3" class="edge">
<title>Node2&#45;&gt;Node4</title>
<path fill="none" stroke="midnightblue" d="M51.73,-280.32C62.84,-272.11 79.74,-259.6 92.98,-249.81"/>
<polygon fill="midnightblue" stroke="midnightblue" points="95.1,-252.59 101.06,-243.83 90.94,-246.97 95.1,-252.59"/>
</g>
<!-- Node5 -->
<g id="node5" class="node">
<title>Node5</title>
<g id="a_node5"><a xlink:href="libccc__define_8h.html" target="_top" xlink:title=" ">
<polygon fill="white" stroke="black" points="65.5,-56.5 65.5,-75.5 160.5,-75.5 160.5,-56.5 65.5,-56.5"/>
<text text-anchor="middle" x="113" y="-63.5" font-family="Consolas" font-size="10.00">libccc_define.h</text>
</a>
</g>
</g>
<!-- Node4&#45;&gt;Node5 -->
<g id="edge4" class="edge">
<title>Node4&#45;&gt;Node5</title>
<path fill="none" stroke="midnightblue" d="M97,-224.5C63.12,-205.36 -10.49,-157.02 18,-112 28.05,-96.13 45.37,-85.74 62.5,-79"/>
<polygon fill="midnightblue" stroke="midnightblue" points="63.71,-82.28 71.95,-75.62 61.35,-75.69 63.71,-82.28"/>
</g>
<!-- Node7 -->
<g id="node7" class="node">
<title>Node7</title>
<g id="a_node7"><a xlink:href="libccc__errors_8h.html" target="_top" xlink:title=" ">
<polygon fill="white" stroke="black" points="27.5,-112.5 27.5,-131.5 122.5,-131.5 122.5,-112.5 27.5,-112.5"/>
<text text-anchor="middle" x="75" y="-119.5" font-family="Consolas" font-size="10.00">libccc_errors.h</text>
</a>
</g>
</g>
<!-- Node4&#45;&gt;Node7 -->
<g id="edge6" class="edge">
<title>Node4&#45;&gt;Node7</title>
<path fill="none" stroke="midnightblue" d="M109.06,-224.49C104.99,-215.53 98.61,-200.94 94,-188 88.46,-172.42 83.27,-154.35 79.72,-141.22"/>
<polygon fill="midnightblue" stroke="midnightblue" points="83.1,-140.29 77.15,-131.51 76.33,-142.08 83.1,-140.29"/>
</g>
<!-- Node8 -->
<g id="node8" class="node">
<title>Node8</title>
<g id="a_node8"><a xlink:href="libccc__config_8h.html" target="_top" xlink:title=" ">
<polygon fill="white" stroke="black" points="103.5,-168.5 103.5,-187.5 198.5,-187.5 198.5,-168.5 103.5,-168.5"/>
<text text-anchor="middle" x="151" y="-175.5" font-family="Consolas" font-size="10.00">libccc_config.h</text>
</a>
</g>
</g>
<!-- Node4&#45;&gt;Node8 -->
<g id="edge8" class="edge">
<title>Node4&#45;&gt;Node8</title>
<path fill="none" stroke="midnightblue" d="M119.27,-224.08C124.64,-216.46 132.52,-205.26 139.08,-195.94"/>
<polygon fill="midnightblue" stroke="midnightblue" points="141.95,-197.94 144.84,-187.75 136.22,-193.91 141.95,-197.94"/>
</g>
<!-- Node9 -->
<g id="node9" class="node">
<title>Node9</title>
<g id="a_node9"><a xlink:href="libccc__naming_8h.html" target="_top" xlink:title=" ">
<polygon fill="white" stroke="black" points="179.5,-112.5 179.5,-131.5 274.5,-131.5 274.5,-112.5 179.5,-112.5"/>
<text text-anchor="middle" x="227" y="-119.5" font-family="Consolas" font-size="10.00">libccc_naming.h</text>
</a>
</g>
</g>
<!-- Node4&#45;&gt;Node9 -->
<g id="edge11" class="edge">
<title>Node4&#45;&gt;Node9</title>
<path fill="none" stroke="midnightblue" d="M142.73,-225.9C163.79,-219.4 191.18,-207.71 208,-188 219.08,-175.02 223.7,-155.85 225.63,-141.69"/>
<polygon fill="midnightblue" stroke="midnightblue" points="229.12,-141.93 226.67,-131.63 222.16,-141.22 229.12,-141.93"/>
</g>
<!-- Node6 -->
<g id="node6" class="node">
<title>Node6</title>
<g id="a_node6"><a xlink:title=" ">
<polygon fill="white" stroke="#bfbfbf" points="78.5,-0.5 78.5,-19.5 147.5,-19.5 147.5,-0.5 78.5,-0.5"/>
<text text-anchor="middle" x="113" y="-7.5" font-family="Consolas" font-size="10.00">stdalign.h</text>
</a>
</g>
</g>
<!-- Node5&#45;&gt;Node6 -->
<g id="edge5" class="edge">
<title>Node5&#45;&gt;Node6</title>
<path fill="none" stroke="midnightblue" d="M113,-56.08C113,-49.01 113,-38.86 113,-29.99"/>
<polygon fill="midnightblue" stroke="midnightblue" points="116.5,-29.75 113,-19.75 109.5,-29.75 116.5,-29.75"/>
</g>
<!-- Node7&#45;&gt;Node5 -->
<g id="edge7" class="edge">
<title>Node7&#45;&gt;Node5</title>
<path fill="none" stroke="midnightblue" d="M81.27,-112.08C86.64,-104.46 94.52,-93.26 101.08,-83.94"/>
<polygon fill="midnightblue" stroke="midnightblue" points="103.95,-85.94 106.84,-75.75 98.22,-81.91 103.95,-85.94"/>
</g>
<!-- Node8&#45;&gt;Node5 -->
<g id="edge9" class="edge">
<title>Node8&#45;&gt;Node5</title>
<path fill="none" stroke="midnightblue" d="M148.85,-168.49C145.61,-155.97 139.1,-131.94 132,-112 128.76,-102.9 124.64,-92.99 121.07,-84.79"/>
<polygon fill="midnightblue" stroke="midnightblue" points="124.2,-83.22 116.94,-75.51 117.81,-86.07 124.2,-83.22"/>
</g>
<!-- Node8&#45;&gt;Node7 -->
<g id="edge10" class="edge">
<title>Node8&#45;&gt;Node7</title>
<path fill="none" stroke="midnightblue" d="M138.79,-168.32C127.22,-160.11 109.62,-147.6 95.84,-137.81"/>
<polygon fill="midnightblue" stroke="midnightblue" points="97.61,-134.77 87.43,-131.83 93.56,-140.48 97.61,-134.77"/>
</g>
<!-- Node9&#45;&gt;Node5 -->
<g id="edge12" class="edge">
<title>Node9&#45;&gt;Node5</title>
<path fill="none" stroke="midnightblue" d="M208.94,-112.44C190.43,-103.68 161.42,-89.94 140.14,-79.86"/>
<polygon fill="midnightblue" stroke="midnightblue" points="141.51,-76.63 130.98,-75.52 138.52,-82.96 141.51,-76.63"/>
</g>
<!-- Node10&#45;&gt;Node2 -->
<g id="edge15" class="edge">
<title>Node10&#45;&gt;Node2</title>
<path fill="none" stroke="midnightblue" d="M98.75,-336.32C88.2,-328.18 72.2,-315.84 59.56,-306.09"/>
<polygon fill="midnightblue" stroke="midnightblue" points="61.51,-303.17 51.45,-299.83 57.23,-308.71 61.51,-303.17"/>
</g>
<!-- Node10&#45;&gt;Node4 -->
<g id="edge14" class="edge">
<title>Node10&#45;&gt;Node4</title>
<path fill="none" stroke="midnightblue" d="M110.24,-336.37C110.72,-318.62 111.84,-277.67 112.49,-253.6"/>
<polygon fill="midnightblue" stroke="midnightblue" points="115.99,-253.68 112.77,-243.59 108.99,-253.49 115.99,-253.68"/>
</g>
<!-- Node11&#45;&gt;Node4 -->
<g id="edge17" class="edge">
<title>Node11&#45;&gt;Node4</title>
<path fill="none" stroke="midnightblue" d="M171.75,-280.32C161.2,-272.18 145.2,-259.84 132.56,-250.09"/>
<polygon fill="midnightblue" stroke="midnightblue" points="134.51,-247.17 124.45,-243.83 130.23,-252.71 134.51,-247.17"/>
</g>
</g>
</svg>
