<?xml version="1.0" encoding="UTF-8" standalone="no"?>
<!DOCTYPE svg PUBLIC "-//W3C//DTD SVG 1.1//EN"
 "http://www.w3.org/Graphics/SVG/1.1/DTD/svg11.dtd">
<!-- Generated by graphviz version 2.49.3 (20211023.0002)
 -->
<!-- Title: hdr/libccc/math/stat.h Pages: 1 -->
<!--zoomable 364 -->
<svg id="main" version="1.1" xmlns="http://www.w3.org/2000/svg" xmlns:xlink="http://www.w3.org/1999/xlink" xml:space="preserve" onload="init(evt)">
<style type="text/css"><![CDATA[
.edge:hover path { stroke: red; }
.edge:hover polygon { stroke: red; fill: red; }
]]></style>
<script type="text/javascript"><![CDATA[
var edges = document.getElementsByTagName('g');
if (edges && edges.length) {
  for (var i=0;i<edges.length;i++) {
    if (edges[i].id.substr(0,4)=='edge') {
      edges[i].setAttribute('class','edge');
    }
  }
}
]]></script>
        <defs>
                <circle id="rim" cx="0" cy="0" r="7"/>
                <circle id="rim2" cx="0" cy="0" r="3.5"/>
                <g id="zoomPlus">
                        <use xlink:href="#rim" fill="#404040">
                                <set attributeName="fill" to="#808080" begin="zoomplus.mouseover" end="zoomplus.mouseout"/>
                        </use>
                        <path d="M-4,0h8M0,-4v8" fill="none" stroke="white" stroke-width="1.5" pointer-events="none"/>
                </g>
                <g id="zoomMin">
                        <use xlink:href="#rim" fill="#404040">
                                <set attributeName="fill" to="#808080" begin="zoomminus.mouseover" end="zoomminus.mouseout"/>
                        </use>
                        <path d="M-4,0h8" fill="none" stroke="white" stroke-width="1.5" pointer-events="none"/>
                </g>
                <g id="dirArrow">
                        <path fill="none" stroke="white" stroke-width="1.5" d="M0,-3.0v7 M-2.5,-0.5L0,-3.0L2.5,-0.5"/>
                </g>
               <g id="resetDef">
                       <use xlink:href="#rim2" fill="#404040">
                               <set attributeName="fill" to="#808080" begin="reset.mouseover" end="reset.mouseout"/>
                       </use>
               </g>
        </defs>

<script type="text/javascript">
var viewWidth = 770;
var viewHeight = 364;
var sectionId = 'dynsection-0';
</script>
<script xlink:href="svgpan.js"/>
<svg id="graph" class="graph">
<g id="viewport">
<title>hdr/libccc/math/stat.h</title>
<polygon fill="white" stroke="transparent" points="-4,4 -4,-360 765.5,-360 765.5,4 -4,4"/>
<!-- Node1 -->
<g id="node1" class="node">
<title>Node1</title>
<g id="a_node1"><a xlink:title=" ">
<polygon fill="#bfbfbf" stroke="black" points="579,-336.5 579,-355.5 690,-355.5 690,-336.5 579,-336.5"/>
<text text-anchor="middle" x="634.5" y="-343.5" font-family="Consolas" font-size="10.00">hdr/libccc/math/stat.h</text>
</a>
</g>
</g>
<!-- Node2 -->
<g id="node2" class="node">
<title>Node2</title>
<g id="a_node2"><a xlink:href="int_8h.html" target="_top" xlink:title=" ">
<polygon fill="white" stroke="black" points="380.5,-280.5 380.5,-299.5 444.5,-299.5 444.5,-280.5 380.5,-280.5"/>
<text text-anchor="middle" x="412.5" y="-287.5" font-family="Consolas" font-size="10.00">libccc/int.h</text>
</a>
</g>
</g>
<!-- Node1&#45;&gt;Node2 -->
<g id="edge1" class="edge">
<title>Node1&#45;&gt;Node2</title>
<path fill="none" stroke="midnightblue" d="M599.32,-336.44C560.02,-326.88 496.41,-311.41 454.52,-301.22"/>
<polygon fill="midnightblue" stroke="midnightblue" points="455.17,-297.78 444.63,-298.82 453.52,-304.58 455.17,-297.78"/>
</g>
<!-- Node14 -->
<g id="node14" class="node">
<title>Node14</title>
<g id="a_node14"><a xlink:href="fixed_8h.html" target="_top" xlink:title=" ">
<polygon fill="white" stroke="black" points="597.5,-168.5 597.5,-187.5 671.5,-187.5 671.5,-168.5 597.5,-168.5"/>
<text text-anchor="middle" x="634.5" y="-175.5" font-family="Consolas" font-size="10.00">libccc/fixed.h</text>
</a>
</g>
</g>
<!-- Node1&#45;&gt;Node14 -->
<g id="edge29" class="edge">
<title>Node1&#45;&gt;Node14</title>
<path fill="none" stroke="midnightblue" d="M634.5,-336.08C634.5,-309.95 634.5,-233.21 634.5,-197.58"/>
<polygon fill="midnightblue" stroke="midnightblue" points="638,-197.57 634.5,-187.57 631,-197.57 638,-197.57"/>
</g>
<!-- Node15 -->
<g id="node15" class="node">
<title>Node15</title>
<g id="a_node15"><a xlink:href="float_8h.html" target="_top" xlink:title=" ">
<polygon fill="white" stroke="black" points="689.5,-168.5 689.5,-187.5 761.5,-187.5 761.5,-168.5 689.5,-168.5"/>
<text text-anchor="middle" x="725.5" y="-175.5" font-family="Consolas" font-size="10.00">libccc/float.h</text>
</a>
</g>
</g>
<!-- Node1&#45;&gt;Node15 -->
<g id="edge30" class="edge">
<title>Node1&#45;&gt;Node15</title>
<path fill="none" stroke="midnightblue" d="M639.39,-336.08C653.84,-309.72 696.51,-231.88 715.82,-196.66"/>
<polygon fill="midnightblue" stroke="midnightblue" points="719.07,-198.02 720.8,-187.57 712.93,-194.65 719.07,-198.02"/>
</g>
<!-- Node3 -->
<g id="node3" class="node">
<title>Node3</title>
<g id="a_node3"><a xlink:title=" ">
<polygon fill="white" stroke="#bfbfbf" points="111,-112.5 111,-131.5 160,-131.5 160,-112.5 111,-112.5"/>
<text text-anchor="middle" x="135.5" y="-119.5" font-family="Consolas" font-size="10.00">stdint.h</text>
</a>
</g>
</g>
<!-- Node2&#45;&gt;Node3 -->
<g id="edge2" class="edge">
<title>Node2&#45;&gt;Node3</title>
<path fill="none" stroke="midnightblue" d="M380.46,-283.65C306.95,-270.67 129.88,-235.04 95.5,-188 83.52,-171.6 100.22,-151.54 115.56,-138.08"/>
<polygon fill="midnightblue" stroke="midnightblue" points="117.81,-140.76 123.3,-131.69 113.35,-135.36 117.81,-140.76"/>
</g>
<!-- Node4 -->
<g id="node4" class="node">
<title>Node4</title>
<g id="a_node4"><a xlink:href="libccc_8h.html" target="_top" xlink:title=" ">
<polygon fill="white" stroke="black" points="387.5,-224.5 387.5,-243.5 437.5,-243.5 437.5,-224.5 387.5,-224.5"/>
<text text-anchor="middle" x="412.5" y="-231.5" font-family="Consolas" font-size="10.00">libccc.h</text>
</a>
</g>
</g>
<!-- Node2&#45;&gt;Node4 -->
<g id="edge3" class="edge">
<title>Node2&#45;&gt;Node4</title>
<path fill="none" stroke="midnightblue" d="M407.33,-280.08C405.82,-272.93 405.39,-262.64 406.04,-253.69"/>
<polygon fill="midnightblue" stroke="midnightblue" points="409.52,-254.13 407.37,-243.75 402.58,-253.2 409.52,-254.13"/>
</g>
<!-- Node4&#45;&gt;Node2 -->
<g id="edge20" class="edge">
<title>Node4&#45;&gt;Node2</title>
<path fill="none" stroke="midnightblue" d="M417.63,-243.75C419.16,-250.86 419.6,-261.14 418.97,-270.1"/>
<polygon fill="midnightblue" stroke="midnightblue" points="415.49,-269.71 417.67,-280.08 422.43,-270.62 415.49,-269.71"/>
</g>
<!-- Node5 -->
<g id="node5" class="node">
<title>Node5</title>
<g id="a_node5"><a xlink:href="libccc__define_8h.html" target="_top" xlink:title=" ">
<polygon fill="white" stroke="black" points="454.5,-56.5 454.5,-75.5 536.5,-75.5 536.5,-56.5 454.5,-56.5"/>
<text text-anchor="middle" x="495.5" y="-63.5" font-family="Consolas" font-size="10.00">libccc_define.h</text>
</a>
</g>
</g>
<!-- Node4&#45;&gt;Node5 -->
<g id="edge4" class="edge">
<title>Node4&#45;&gt;Node5</title>
<path fill="none" stroke="midnightblue" d="M409.69,-224.3C403.47,-203.26 390.69,-148.64 412.5,-112 421.6,-96.72 437.89,-86.31 453.64,-79.39"/>
<polygon fill="midnightblue" stroke="midnightblue" points="455.33,-82.48 463.32,-75.51 452.73,-75.98 455.33,-82.48"/>
</g>
<!-- Node7 -->
<g id="node7" class="node">
<title>Node7</title>
<g id="a_node7"><a xlink:href="libccc__errors_8h.html" target="_top" xlink:title=" ">
<polygon fill="white" stroke="black" points="421.5,-112.5 421.5,-131.5 501.5,-131.5 501.5,-112.5 421.5,-112.5"/>
<text text-anchor="middle" x="461.5" y="-119.5" font-family="Consolas" font-size="10.00">libccc_errors.h</text>
</a>
</g>
</g>
<!-- Node4&#45;&gt;Node7 -->
<g id="edge6" class="edge">
<title>Node4&#45;&gt;Node7</title>
<path fill="none" stroke="midnightblue" d="M416.34,-224.37C424.32,-206.46 442.83,-164.92 453.5,-140.95"/>
<polygon fill="midnightblue" stroke="midnightblue" points="456.8,-142.15 457.67,-131.59 450.41,-139.3 456.8,-142.15"/>
</g>
<!-- Node8 -->
<g id="node8" class="node">
<title>Node8</title>
<g id="a_node8"><a xlink:href="libccc__config_8h.html" target="_top" xlink:title=" ">
<polygon fill="white" stroke="black" points="459.5,-168.5 459.5,-187.5 541.5,-187.5 541.5,-168.5 459.5,-168.5"/>
<text text-anchor="middle" x="500.5" y="-175.5" font-family="Consolas" font-size="10.00">libccc_config.h</text>
</a>
</g>
</g>
<!-- Node4&#45;&gt;Node8 -->
<g id="edge8" class="edge">
<title>Node4&#45;&gt;Node8</title>
<path fill="none" stroke="midnightblue" d="M426.64,-224.32C440.37,-215.9 461.44,-202.97 477.56,-193.07"/>
<polygon fill="midnightblue" stroke="midnightblue" points="479.7,-195.87 486.4,-187.65 476.04,-189.9 479.7,-195.87"/>
</g>
<!-- Node9 -->
<g id="node9" class="node">
<title>Node9</title>
<g id="a_node9"><a xlink:href="libccc__naming_8h.html" target="_top" xlink:title=" ">
<polygon fill="white" stroke="black" points="558,-112.5 558,-131.5 645,-131.5 645,-112.5 558,-112.5"/>
<text text-anchor="middle" x="601.5" y="-119.5" font-family="Consolas" font-size="10.00">libccc_naming.h</text>
</a>
</g>
</g>
<!-- Node4&#45;&gt;Node9 -->
<g id="edge11" class="edge">
<title>Node4&#45;&gt;Node9</title>
<path fill="none" stroke="midnightblue" d="M437.65,-229.35C466.93,-224.13 515.7,-212.34 550.5,-188 568.24,-175.59 582.79,-155.22 591.75,-140.59"/>
<polygon fill="midnightblue" stroke="midnightblue" points="594.77,-142.34 596.8,-131.94 588.73,-138.81 594.77,-142.34"/>
</g>
<!-- Node10 -->
<g id="node10" class="node">
<title>Node10</title>
<g id="a_node10"><a xlink:href="bool_8h.html" target="_top" xlink:title=" ">
<polygon fill="white" stroke="black" points="194,-168.5 194,-187.5 265,-187.5 265,-168.5 194,-168.5"/>
<text text-anchor="middle" x="229.5" y="-175.5" font-family="Consolas" font-size="10.00">libccc/bool.h</text>
</a>
</g>
</g>
<!-- Node4&#45;&gt;Node10 -->
<g id="edge13" class="edge">
<title>Node4&#45;&gt;Node10</title>
<path fill="none" stroke="midnightblue" d="M387.4,-226.91C355,-218.11 298.91,-201.68 262.96,-190.54"/>
<polygon fill="midnightblue" stroke="midnightblue" points="263.97,-187.19 253.38,-187.55 261.88,-193.87 263.97,-187.19"/>
</g>
<!-- Node11 -->
<g id="node11" class="node">
<title>Node11</title>
<g id="a_node11"><a xlink:href="char_8h.html" target="_top" xlink:title=" ">
<polygon fill="white" stroke="black" points="105,-168.5 105,-187.5 176,-187.5 176,-168.5 105,-168.5"/>
<text text-anchor="middle" x="140.5" y="-175.5" font-family="Consolas" font-size="10.00">libccc/char.h</text>
</a>
</g>
</g>
<!-- Node4&#45;&gt;Node11 -->
<g id="edge15" class="edge">
<title>Node4&#45;&gt;Node11</title>
<path fill="none" stroke="midnightblue" d="M387.37,-229.04C345.76,-221.55 260.67,-204.75 184.36,-189.56"/>
<polygon fill="midnightblue" stroke="midnightblue" points="184.63,-186.05 174.14,-187.53 183.26,-192.91 184.63,-186.05"/>
</g>
<!-- Node4&#45;&gt;Node14 -->
<g id="edge21" class="edge">
<title>Node4&#45;&gt;Node14</title>
<path fill="none" stroke="midnightblue" d="M437.65,-225.72C474,-216.3 541.47,-199.83 587.24,-189.18"/>
<polygon fill="midnightblue" stroke="midnightblue" points="588.28,-192.53 597.23,-186.87 586.7,-185.71 588.28,-192.53"/>
</g>
<!-- Node4&#45;&gt;Node15 -->
<g id="edge23" class="edge">
<title>Node4&#45;&gt;Node15</title>
<path fill="none" stroke="midnightblue" d="M437.87,-228.11C484.48,-220.17 585.89,-203.74 671.5,-188 673.97,-187.55 676.51,-187.07 679.09,-186.58"/>
<polygon fill="midnightblue" stroke="midnightblue" points="679.96,-189.97 689.12,-184.66 678.64,-183.1 679.96,-189.97"/>
</g>
<!-- Node16 -->
<g id="node16" class="node">
<title>Node16</title>
<g id="a_node16"><a xlink:href="pointer_8h.html" target="_top" xlink:title=" ">
<polygon fill="white" stroke="black" points="283.5,-168.5 283.5,-187.5 365.5,-187.5 365.5,-168.5 283.5,-168.5"/>
<text text-anchor="middle" x="324.5" y="-175.5" font-family="Consolas" font-size="10.00">libccc/pointer.h</text>
</a>
</g>
</g>
<!-- Node4&#45;&gt;Node16 -->
<g id="edge25" class="edge">
<title>Node4&#45;&gt;Node16</title>
<path fill="none" stroke="midnightblue" d="M393.25,-224.32C377.93,-216.03 356.98,-203.36 342.11,-193.53"/>
<polygon fill="midnightblue" stroke="midnightblue" points="343.98,-190.57 333.75,-187.83 340.04,-196.35 343.98,-190.57"/>
</g>
<!-- Node6 -->
<g id="node6" class="node">
<title>Node6</title>
<g id="a_node6"><a xlink:title=" ">
<polygon fill="white" stroke="#bfbfbf" points="466,-0.5 466,-19.5 525,-19.5 525,-0.5 466,-0.5"/>
<text text-anchor="middle" x="495.5" y="-7.5" font-family="Consolas" font-size="10.00">stdalign.h</text>
</a>
</g>
</g>
<!-- Node5&#45;&gt;Node6 -->
<g id="edge5" class="edge">
<title>Node5&#45;&gt;Node6</title>
<path fill="none" stroke="midnightblue" d="M495.5,-56.08C495.5,-49.01 495.5,-38.86 495.5,-29.99"/>
<polygon fill="midnightblue" stroke="midnightblue" points="499,-29.75 495.5,-19.75 492,-29.75 499,-29.75"/>
</g>
<!-- Node7&#45;&gt;Node5 -->
<g id="edge7" class="edge">
<title>Node7&#45;&gt;Node5</title>
<path fill="none" stroke="midnightblue" d="M467.11,-112.08C471.87,-104.53 478.82,-93.49 484.65,-84.23"/>
<polygon fill="midnightblue" stroke="midnightblue" points="487.62,-86.08 489.99,-75.75 481.7,-82.35 487.62,-86.08"/>
</g>
<!-- Node8&#45;&gt;Node5 -->
<g id="edge9" class="edge">
<title>Node8&#45;&gt;Node5</title>
<path fill="none" stroke="midnightblue" d="M503.63,-168.16C507.65,-155.65 513.76,-132.06 510.5,-112 509.03,-102.96 506.01,-93.28 503.06,-85.22"/>
<polygon fill="midnightblue" stroke="midnightblue" points="506.26,-83.79 499.36,-75.75 499.74,-86.34 506.26,-83.79"/>
</g>
<!-- Node8&#45;&gt;Node7 -->
<g id="edge10" class="edge">
<title>Node8&#45;&gt;Node7</title>
<path fill="none" stroke="midnightblue" d="M494.06,-168.08C488.55,-160.46 480.47,-149.26 473.74,-139.94"/>
<polygon fill="midnightblue" stroke="midnightblue" points="476.51,-137.81 467.82,-131.75 470.84,-141.91 476.51,-137.81"/>
</g>
<!-- Node9&#45;&gt;Node5 -->
<g id="edge12" class="edge">
<title>Node9&#45;&gt;Node5</title>
<path fill="none" stroke="midnightblue" d="M584.47,-112.32C567.47,-103.66 541.12,-90.24 521.51,-80.25"/>
<polygon fill="midnightblue" stroke="midnightblue" points="522.99,-77.08 512.49,-75.65 519.81,-83.31 522.99,-77.08"/>
</g>
<!-- Node10&#45;&gt;Node4 -->
<g id="edge14" class="edge">
<title>Node10&#45;&gt;Node4</title>
<path fill="none" stroke="midnightblue" d="M263.44,-187.52C296.46,-196.66 346.1,-211.26 378.97,-221.44"/>
<polygon fill="midnightblue" stroke="midnightblue" points="378,-224.8 388.59,-224.44 380.09,-218.12 378,-224.8"/>
</g>
<!-- Node11&#45;&gt;Node3 -->
<g id="edge16" class="edge">
<title>Node11&#45;&gt;Node3</title>
<path fill="none" stroke="midnightblue" d="M139.67,-168.08C139.02,-161.01 138.08,-150.86 137.26,-141.99"/>
<polygon fill="midnightblue" stroke="midnightblue" points="140.72,-141.39 136.31,-131.75 133.75,-142.03 140.72,-141.39"/>
</g>
<!-- Node11&#45;&gt;Node4 -->
<g id="edge17" class="edge">
<title>Node11&#45;&gt;Node4</title>
<path fill="none" stroke="midnightblue" d="M176.41,-184.43C182.52,-185.61 188.72,-186.85 194.5,-188 259.11,-200.87 334.09,-215.71 377.28,-224.72"/>
<polygon fill="midnightblue" stroke="midnightblue" points="376.78,-228.2 387.29,-226.83 378.22,-221.35 376.78,-228.2"/>
</g>
<!-- Node12 -->
<g id="node12" class="node">
<title>Node12</title>
<g id="a_node12"><a xlink:title=" ">
<polygon fill="white" stroke="#bfbfbf" points="0,-112.5 0,-131.5 93,-131.5 93,-112.5 0,-112.5"/>
<text text-anchor="middle" x="46.5" y="-119.5" font-family="Consolas" font-size="10.00">libccc/text/ascii.h</text>
</a>
</g>
</g>
<!-- Node11&#45;&gt;Node12 -->
<g id="edge18" class="edge">
<title>Node11&#45;&gt;Node12</title>
<path fill="none" stroke="midnightblue" d="M125.4,-168.32C110.6,-159.82 87.81,-146.73 70.52,-136.8"/>
<polygon fill="midnightblue" stroke="midnightblue" points="71.98,-133.6 61.57,-131.65 68.49,-139.67 71.98,-133.6"/>
</g>
<!-- Node13 -->
<g id="node13" class="node">
<title>Node13</title>
<g id="a_node13"><a xlink:title=" ">
<polygon fill="white" stroke="#bfbfbf" points="178,-112.5 178,-131.5 285,-131.5 285,-112.5 178,-112.5"/>
<text text-anchor="middle" x="231.5" y="-119.5" font-family="Consolas" font-size="10.00">libccc/text/unicode.h</text>
</a>
</g>
</g>
<!-- Node11&#45;&gt;Node13 -->
<g id="edge19" class="edge">
<title>Node11&#45;&gt;Node13</title>
<path fill="none" stroke="midnightblue" d="M155.12,-168.32C169.45,-159.82 191.51,-146.73 208.25,-136.8"/>
<polygon fill="midnightblue" stroke="midnightblue" points="210.1,-139.77 216.92,-131.65 206.53,-133.75 210.1,-139.77"/>
</g>
<!-- Node14&#45;&gt;Node4 -->
<g id="edge22" class="edge">
<title>Node14&#45;&gt;Node4</title>
<path fill="none" stroke="midnightblue" d="M604.47,-187.54C563.52,-198.07 490.65,-215.77 447.34,-225.69"/>
<polygon fill="midnightblue" stroke="midnightblue" points="446.51,-222.29 437.53,-227.92 448.06,-229.12 446.51,-222.29"/>
</g>
<!-- Node15&#45;&gt;Node4 -->
<g id="edge24" class="edge">
<title>Node15&#45;&gt;Node4</title>
<path fill="none" stroke="midnightblue" d="M691.87,-187.56C691.07,-187.71 690.28,-187.86 689.5,-188 603.15,-203.88 500.72,-220.45 447.76,-228.32"/>
<polygon fill="midnightblue" stroke="midnightblue" points="447.24,-224.86 437.85,-229.77 448.25,-231.78 447.24,-224.86"/>
</g>
<!-- Node16&#45;&gt;Node3 -->
<g id="edge27" class="edge">
<title>Node16&#45;&gt;Node3</title>
<path fill="none" stroke="midnightblue" d="M294.55,-168.44C260.73,-158.78 205.78,-143.08 170.14,-132.9"/>
<polygon fill="midnightblue" stroke="midnightblue" points="170.76,-129.44 160.19,-130.05 168.84,-136.17 170.76,-129.44"/>
</g>
<!-- Node16&#45;&gt;Node4 -->
<g id="edge28" class="edge">
<title>Node16&#45;&gt;Node4</title>
<path fill="none" stroke="midnightblue" d="M343.71,-187.65C359.11,-195.99 380.23,-208.76 395.12,-218.62"/>
<polygon fill="midnightblue" stroke="midnightblue" points="393.24,-221.58 403.48,-224.32 397.19,-215.8 393.24,-221.58"/>
</g>
<!-- Node17 -->
<g id="node17" class="node">
<title>Node17</title>
<g id="a_node17"><a xlink:title=" ">
<polygon fill="white" stroke="#bfbfbf" points="303.5,-112.5 303.5,-131.5 355.5,-131.5 355.5,-112.5 303.5,-112.5"/>
<text text-anchor="middle" x="329.5" y="-119.5" font-family="Consolas" font-size="10.00">stddef.h</text>
</a>
</g>
</g>
<!-- Node16&#45;&gt;Node17 -->
<g id="edge26" class="edge">
<title>Node16&#45;&gt;Node17</title>
<path fill="none" stroke="midnightblue" d="M325.33,-168.08C325.98,-161.01 326.92,-150.86 327.74,-141.99"/>
<polygon fill="midnightblue" stroke="midnightblue" points="331.25,-142.03 328.69,-131.75 324.28,-141.39 331.25,-142.03"/>
</g>
</g>
</svg>
        <g id="navigator" transform="translate(0 0)" fill="#404254">
                <rect fill="#f2f5e9" fill-opacity="0.5" stroke="#606060" stroke-width=".5" x="0" y="0" width="60" height="60"/>
                <use id="zoomplus" xlink:href="#zoomPlus" x="17" y="9" onmousedown="handleZoom(evt,'in')"/>
                <use id="zoomminus" xlink:href="#zoomMin" x="42" y="9" onmousedown="handleZoom(evt,'out')"/>
                <use id="reset" xlink:href="#resetDef" x="30" y="36" onmousedown="handleReset()"/>
                <g id="arrowUp" xlink:href="#dirArrow" transform="translate(30 24)" onmousedown="handlePan(0,-1)">
                  <use xlink:href="#rim" fill="#404040">
                        <set attributeName="fill" to="#808080" begin="arrowUp.mouseover" end="arrowUp.mouseout"/>
                  </use>
                  <path fill="none" stroke="white" stroke-width="1.5" d="M0,-3.0v7 M-2.5,-0.5L0,-3.0L2.5,-0.5"/>
                </g>
                <g id="arrowRight" xlink:href="#dirArrow" transform="rotate(90) translate(36 -43)" onmousedown="handlePan(1,0)">
                  <use xlink:href="#rim" fill="#404040">
                        <set attributeName="fill" to="#808080" begin="arrowRight.mouseover" end="arrowRight.mouseout"/>
                  </use>
                  <path fill="none" stroke="white" stroke-width="1.5" d="M0,-3.0v7 M-2.5,-0.5L0,-3.0L2.5,-0.5"/>
                </g>
                <g id="arrowDown" xlink:href="#dirArrow" transform="rotate(180) translate(-30 -48)" onmousedown="handlePan(0,1)">
                  <use xlink:href="#rim" fill="#404040">
                        <set attributeName="fill" to="#808080" begin="arrowDown.mouseover" end="arrowDown.mouseout"/>
                  </use>
                  <path fill="none" stroke="white" stroke-width="1.5" d="M0,-3.0v7 M-2.5,-0.5L0,-3.0L2.5,-0.5"/>
                </g>
                <g id="arrowLeft" xlink:href="#dirArrow" transform="rotate(270) translate(-36 17)" onmousedown="handlePan(-1,0)">
                  <use xlink:href="#rim" fill="#404040">
                        <set attributeName="fill" to="#808080" begin="arrowLeft.mouseover" end="arrowLeft.mouseout"/>
                  </use>
                  <path fill="none" stroke="white" stroke-width="1.5" d="M0,-3.0v7 M-2.5,-0.5L0,-3.0L2.5,-0.5"/>
                </g>
        </g>
        <svg viewBox="0 0 15 15" width="100%" height="30px" preserveAspectRatio="xMaxYMin meet">
         <g id="arrow_out" transform="scale(0.3 0.3)">
          <a xlink:href="stat_8h__incl_org.svg" target="_base">
           <rect id="button" ry="5" rx="5" y="6" x="6" height="38" width="38"
                fill="#f2f5e9" fill-opacity="0.5" stroke="#606060" stroke-width="1.0"/>
           <path id="arrow"
             d="M 11.500037,31.436501 C 11.940474,20.09759 22.043105,11.32322 32.158766,21.979434 L 37.068811,17.246167 C 37.068811,17.246167 37.088388,32 37.088388,32 L 22.160133,31.978069 C 22.160133,31.978069 26.997745,27.140456 26.997745,27.140456 C 18.528582,18.264221 13.291696,25.230495 11.500037,31.436501 z"
             style="fill:#404040;"/>
          </a>
         </g>
        </svg>
</svg>
