<?xml version="1.0" encoding="UTF-8" standalone="no"?>
<!DOCTYPE svg PUBLIC "-//W3C//DTD SVG 1.1//EN"
 "http://www.w3.org/Graphics/SVG/1.1/DTD/svg11.dtd">
<!-- Generated by graphviz version 2.43.0 (0)
 -->
<!-- Title: libccc/math/stat.h Pages: 1 -->
<svg width="981pt" height="364pt"
 viewBox="0.00 0.00 981.35 364.00" xmlns="http://www.w3.org/2000/svg" xmlns:xlink="http://www.w3.org/1999/xlink">
<g id="graph0" class="graph" transform="scale(1 1) rotate(0) translate(4 360)">
<title>libccc/math/stat.h</title>
<polygon fill="white" stroke="transparent" points="-4,4 -4,-360 977.35,-360 977.35,4 -4,4"/>
<!-- Node1 -->
<g id="node1" class="node">
<title>Node1</title>
<g id="a_node1"><a xlink:title=" ">
<polygon fill="#bfbfbf" stroke="black" points="862.35,-336.5 862.35,-355.5 973.35,-355.5 973.35,-336.5 862.35,-336.5"/>
<text text-anchor="middle" x="917.85" y="-343.5" font-family="Consolas" font-size="10.00">libccc/math/stat.h</text>
</a>
</g>
</g>
<!-- Node2 -->
<g id="node2" class="node">
<title>Node2</title>
<g id="a_node2"><a xlink:href="int_8h.html" target="_top" xlink:title=" ">
<polygon fill="white" stroke="black" points="363.85,-280.5 363.85,-299.5 443.85,-299.5 443.85,-280.5 363.85,-280.5"/>
<text text-anchor="middle" x="403.85" y="-287.5" font-family="Consolas" font-size="10.00">libccc/int.h</text>
</a>
</g>
</g>
<!-- Node1&#45;&gt;Node2 -->
<g id="edge1" class="edge">
<title>Node1&#45;&gt;Node2</title>
<path fill="none" stroke="midnightblue" d="M861.87,-339.12C761.07,-328.53 550.61,-306.42 454.13,-296.28"/>
<polygon fill="midnightblue" stroke="midnightblue" points="454.36,-292.79 444.05,-295.22 453.63,-299.75 454.36,-292.79"/>
</g>
<!-- Node12 -->
<g id="node12" class="node">
<title>Node12</title>
<g id="a_node12"><a xlink:href="float_8h.html" target="_top" xlink:title=" ">
<polygon fill="white" stroke="black" points="785.85,-56.5 785.85,-75.5 875.85,-75.5 875.85,-56.5 785.85,-56.5"/>
<text text-anchor="middle" x="830.85" y="-63.5" font-family="Consolas" font-size="10.00">libccc/float.h</text>
</a>
</g>
</g>
<!-- Node1&#45;&gt;Node12 -->
<g id="edge25" class="edge">
<title>Node1&#45;&gt;Node12</title>
<path fill="none" stroke="midnightblue" d="M923.14,-336.23C933.58,-318.04 955.85,-274.6 955.85,-235 955.85,-235 955.85,-235 955.85,-177 955.85,-146.2 952.91,-134.48 931.85,-112 917.15,-96.3 895.96,-85.72 876.79,-78.79"/>
<polygon fill="midnightblue" stroke="midnightblue" points="877.88,-75.46 867.28,-75.58 875.64,-82.1 877.88,-75.46"/>
</g>
<!-- Node15 -->
<g id="node15" class="node">
<title>Node15</title>
<g id="a_node15"><a xlink:href="fixed_8h.html" target="_top" xlink:title=" ">
<polygon fill="white" stroke="black" points="458.85,-56.5 458.85,-75.5 548.85,-75.5 548.85,-56.5 458.85,-56.5"/>
<text text-anchor="middle" x="503.85" y="-63.5" font-family="Consolas" font-size="10.00">libccc/fixed.h</text>
</a>
</g>
</g>
<!-- Node1&#45;&gt;Node15 -->
<g id="edge24" class="edge">
<title>Node1&#45;&gt;Node15</title>
<path fill="none" stroke="midnightblue" d="M917.85,-336.44C917.85,-317.94 917.85,-272.81 917.85,-235 917.85,-235 917.85,-235 917.85,-177 917.85,-138.58 894.79,-130.02 860.85,-112 809.82,-84.9 646.14,-73.47 559.25,-69.21"/>
<polygon fill="midnightblue" stroke="midnightblue" points="559.21,-65.71 549.05,-68.73 558.87,-72.7 559.21,-65.71"/>
</g>
<!-- Node3 -->
<g id="node3" class="node">
<title>Node3</title>
<g id="a_node3"><a xlink:title=" ">
<polygon fill="white" stroke="#bfbfbf" points="403.35,-224.5 403.35,-243.5 462.35,-243.5 462.35,-224.5 403.35,-224.5"/>
<text text-anchor="middle" x="432.85" y="-231.5" font-family="Consolas" font-size="10.00">stdint.h</text>
</a>
</g>
</g>
<!-- Node2&#45;&gt;Node3 -->
<g id="edge2" class="edge">
<title>Node2&#45;&gt;Node3</title>
<path fill="none" stroke="midnightblue" d="M408.64,-280.08C412.61,-272.69 418.38,-261.95 423.29,-252.81"/>
<polygon fill="midnightblue" stroke="midnightblue" points="426.51,-254.22 428.15,-243.75 420.34,-250.91 426.51,-254.22"/>
</g>
<!-- Node4 -->
<g id="node4" class="node">
<title>Node4</title>
<g id="a_node4"><a xlink:href="libccc_8h.html" target="_top" xlink:title=" ">
<polygon fill="white" stroke="black" points="226.35,-224.5 226.35,-243.5 285.35,-243.5 285.35,-224.5 226.35,-224.5"/>
<text text-anchor="middle" x="255.85" y="-231.5" font-family="Consolas" font-size="10.00">libccc.h</text>
</a>
</g>
</g>
<!-- Node2&#45;&gt;Node4 -->
<g id="edge3" class="edge">
<title>Node2&#45;&gt;Node4</title>
<path fill="none" stroke="midnightblue" d="M380.4,-280.44C355.72,-271.44 316.67,-257.19 288.88,-247.05"/>
<polygon fill="midnightblue" stroke="midnightblue" points="289.79,-243.66 279.2,-243.52 287.39,-250.23 289.79,-243.66"/>
</g>
<!-- Node5 -->
<g id="node5" class="node">
<title>Node5</title>
<g id="a_node5"><a xlink:href="libccc__define_8h.html" target="_top" xlink:title=" ">
<polygon fill="white" stroke="black" points="56.35,-56.5 56.35,-75.5 151.35,-75.5 151.35,-56.5 56.35,-56.5"/>
<text text-anchor="middle" x="103.85" y="-63.5" font-family="Consolas" font-size="10.00">libccc_define.h</text>
</a>
</g>
</g>
<!-- Node4&#45;&gt;Node5 -->
<g id="edge4" class="edge">
<title>Node4&#45;&gt;Node5</title>
<path fill="none" stroke="midnightblue" d="M226.02,-232.15C166.47,-229.75 36.22,-220.8 8.85,-188 -22.85,-150 41.11,-103.62 78.86,-80.89"/>
<polygon fill="midnightblue" stroke="midnightblue" points="80.96,-83.72 87.82,-75.65 77.42,-77.68 80.96,-83.72"/>
</g>
<!-- Node7 -->
<g id="node7" class="node">
<title>Node7</title>
<g id="a_node7"><a xlink:href="libccc__errors_8h.html" target="_top" xlink:title=" ">
<polygon fill="white" stroke="black" points="94.35,-112.5 94.35,-131.5 189.35,-131.5 189.35,-112.5 94.35,-112.5"/>
<text text-anchor="middle" x="141.85" y="-119.5" font-family="Consolas" font-size="10.00">libccc_errors.h</text>
</a>
</g>
</g>
<!-- Node4&#45;&gt;Node7 -->
<g id="edge6" class="edge">
<title>Node4&#45;&gt;Node7</title>
<path fill="none" stroke="midnightblue" d="M226.12,-225.9C205.06,-219.4 177.68,-207.71 160.85,-188 149.77,-175.02 145.15,-155.85 143.22,-141.69"/>
<polygon fill="midnightblue" stroke="midnightblue" points="146.69,-141.22 142.18,-131.63 139.73,-141.93 146.69,-141.22"/>
</g>
<!-- Node8 -->
<g id="node8" class="node">
<title>Node8</title>
<g id="a_node8"><a xlink:href="libccc__config_8h.html" target="_top" xlink:title=" ">
<polygon fill="white" stroke="black" points="170.35,-168.5 170.35,-187.5 265.35,-187.5 265.35,-168.5 170.35,-168.5"/>
<text text-anchor="middle" x="217.85" y="-175.5" font-family="Consolas" font-size="10.00">libccc_config.h</text>
</a>
</g>
</g>
<!-- Node4&#45;&gt;Node8 -->
<g id="edge8" class="edge">
<title>Node4&#45;&gt;Node8</title>
<path fill="none" stroke="midnightblue" d="M249.58,-224.08C244.21,-216.46 236.34,-205.26 229.78,-195.94"/>
<polygon fill="midnightblue" stroke="midnightblue" points="232.63,-193.91 224.01,-187.75 226.9,-197.94 232.63,-193.91"/>
</g>
<!-- Node9 -->
<g id="node9" class="node">
<title>Node9</title>
<g id="a_node9"><a xlink:href="libccc__naming_8h.html" target="_top" xlink:title=" ">
<polygon fill="white" stroke="black" points="18.35,-168.5 18.35,-187.5 113.35,-187.5 113.35,-168.5 18.35,-168.5"/>
<text text-anchor="middle" x="65.85" y="-175.5" font-family="Consolas" font-size="10.00">libccc_naming.h</text>
</a>
</g>
</g>
<!-- Node4&#45;&gt;Node9 -->
<g id="edge11" class="edge">
<title>Node4&#45;&gt;Node9</title>
<path fill="none" stroke="midnightblue" d="M226.17,-224.56C193.73,-215.34 141.61,-200.53 105.64,-190.31"/>
<polygon fill="midnightblue" stroke="midnightblue" points="106.54,-186.92 95.96,-187.56 104.62,-193.66 106.54,-186.92"/>
</g>
<!-- Node10 -->
<g id="node10" class="node">
<title>Node10</title>
<g id="a_node10"><a xlink:href="math_8h.html" target="_top" xlink:title=" ">
<polygon fill="white" stroke="black" points="479.85,-168.5 479.85,-187.5 527.85,-187.5 527.85,-168.5 479.85,-168.5"/>
<text text-anchor="middle" x="503.85" y="-175.5" font-family="Consolas" font-size="10.00">math.h</text>
</a>
</g>
</g>
<!-- Node4&#45;&gt;Node10 -->
<g id="edge13" class="edge">
<title>Node4&#45;&gt;Node10</title>
<path fill="none" stroke="midnightblue" d="M285.77,-226.49C332.1,-216.4 420.93,-197.06 469.71,-186.43"/>
<polygon fill="midnightblue" stroke="midnightblue" points="470.74,-189.79 479.77,-184.24 469.25,-182.95 470.74,-189.79"/>
</g>
<!-- Node6 -->
<g id="node6" class="node">
<title>Node6</title>
<g id="a_node6"><a xlink:title=" ">
<polygon fill="white" stroke="#bfbfbf" points="69.35,-0.5 69.35,-19.5 138.35,-19.5 138.35,-0.5 69.35,-0.5"/>
<text text-anchor="middle" x="103.85" y="-7.5" font-family="Consolas" font-size="10.00">stdalign.h</text>
</a>
</g>
</g>
<!-- Node5&#45;&gt;Node6 -->
<g id="edge5" class="edge">
<title>Node5&#45;&gt;Node6</title>
<path fill="none" stroke="midnightblue" d="M103.85,-56.08C103.85,-49.01 103.85,-38.86 103.85,-29.99"/>
<polygon fill="midnightblue" stroke="midnightblue" points="107.35,-29.75 103.85,-19.75 100.35,-29.75 107.35,-29.75"/>
</g>
<!-- Node7&#45;&gt;Node5 -->
<g id="edge7" class="edge">
<title>Node7&#45;&gt;Node5</title>
<path fill="none" stroke="midnightblue" d="M135.58,-112.08C130.21,-104.46 122.34,-93.26 115.78,-83.94"/>
<polygon fill="midnightblue" stroke="midnightblue" points="118.63,-81.91 110.01,-75.75 112.9,-85.94 118.63,-81.91"/>
</g>
<!-- Node8&#45;&gt;Node5 -->
<g id="edge9" class="edge">
<title>Node8&#45;&gt;Node5</title>
<path fill="none" stroke="midnightblue" d="M217.52,-168.37C216.57,-154.84 212.9,-128.46 198.85,-112 185.66,-96.54 165.97,-86.01 147.92,-79.05"/>
<polygon fill="midnightblue" stroke="midnightblue" points="148.72,-75.62 138.12,-75.55 146.36,-82.21 148.72,-75.62"/>
</g>
<!-- Node8&#45;&gt;Node7 -->
<g id="edge10" class="edge">
<title>Node8&#45;&gt;Node7</title>
<path fill="none" stroke="midnightblue" d="M205.64,-168.32C194.08,-160.11 176.48,-147.6 162.69,-137.81"/>
<polygon fill="midnightblue" stroke="midnightblue" points="164.47,-134.77 154.29,-131.83 160.41,-140.48 164.47,-134.77"/>
</g>
<!-- Node9&#45;&gt;Node5 -->
<g id="edge12" class="edge">
<title>Node9&#45;&gt;Node5</title>
<path fill="none" stroke="midnightblue" d="M68.01,-168.49C71.25,-155.97 77.76,-131.94 84.85,-112 88.09,-102.9 92.21,-92.99 95.78,-84.79"/>
<polygon fill="midnightblue" stroke="midnightblue" points="99.05,-86.07 99.91,-75.51 92.65,-83.22 99.05,-86.07"/>
</g>
<!-- Node11 -->
<g id="node11" class="node">
<title>Node11</title>
<g id="a_node11"><a xlink:href="constants_8h.html" target="_top" xlink:title=" ">
<polygon fill="white" stroke="black" points="714.35,-112.5 714.35,-131.5 851.35,-131.5 851.35,-112.5 714.35,-112.5"/>
<text text-anchor="middle" x="782.85" y="-119.5" font-family="Consolas" font-size="10.00">libccc/math/constants.h</text>
</a>
</g>
</g>
<!-- Node10&#45;&gt;Node11 -->
<g id="edge14" class="edge">
<title>Node10&#45;&gt;Node11</title>
<path fill="none" stroke="midnightblue" d="M528.13,-172.3C572.55,-163.7 667.95,-145.24 728.56,-133.51"/>
<polygon fill="midnightblue" stroke="midnightblue" points="729.56,-136.88 738.71,-131.54 728.23,-130.01 729.56,-136.88"/>
</g>
<!-- Node13 -->
<g id="node13" class="node">
<title>Node13</title>
<g id="a_node13"><a xlink:href="math_2int_8h.html" target="_top" xlink:title=" ">
<polygon fill="white" stroke="black" points="321.85,-112.5 321.85,-131.5 427.85,-131.5 427.85,-112.5 321.85,-112.5"/>
<text text-anchor="middle" x="374.85" y="-119.5" font-family="Consolas" font-size="10.00">libccc/math/int.h</text>
</a>
</g>
</g>
<!-- Node10&#45;&gt;Node13 -->
<g id="edge17" class="edge">
<title>Node10&#45;&gt;Node13</title>
<path fill="none" stroke="midnightblue" d="M483.41,-168.44C462.18,-159.56 428.75,-145.56 404.6,-135.45"/>
<polygon fill="midnightblue" stroke="midnightblue" points="405.77,-132.15 395.2,-131.52 403.07,-138.61 405.77,-132.15"/>
</g>
<!-- Node14 -->
<g id="node14" class="node">
<title>Node14</title>
<g id="a_node14"><a xlink:href="math_2fixed_8h.html" target="_top" xlink:title=" ">
<polygon fill="white" stroke="black" points="445.85,-112.5 445.85,-131.5 561.85,-131.5 561.85,-112.5 445.85,-112.5"/>
<text text-anchor="middle" x="503.85" y="-119.5" font-family="Consolas" font-size="10.00">libccc/math/fixed.h</text>
</a>
</g>
</g>
<!-- Node10&#45;&gt;Node14 -->
<g id="edge19" class="edge">
<title>Node10&#45;&gt;Node14</title>
<path fill="none" stroke="midnightblue" d="M503.85,-168.08C503.85,-161.01 503.85,-150.86 503.85,-141.99"/>
<polygon fill="midnightblue" stroke="midnightblue" points="507.35,-141.75 503.85,-131.75 500.35,-141.75 507.35,-141.75"/>
</g>
<!-- Node16 -->
<g id="node16" class="node">
<title>Node16</title>
<g id="a_node16"><a xlink:href="math_2float_8h.html" target="_top" xlink:title=" ">
<polygon fill="white" stroke="black" points="579.85,-112.5 579.85,-131.5 695.85,-131.5 695.85,-112.5 579.85,-112.5"/>
<text text-anchor="middle" x="637.85" y="-119.5" font-family="Consolas" font-size="10.00">libccc/math/float.h</text>
</a>
</g>
</g>
<!-- Node10&#45;&gt;Node16 -->
<g id="edge22" class="edge">
<title>Node10&#45;&gt;Node16</title>
<path fill="none" stroke="midnightblue" d="M525.09,-168.44C547.24,-159.52 582.17,-145.44 607.29,-135.32"/>
<polygon fill="midnightblue" stroke="midnightblue" points="608.75,-138.5 616.72,-131.52 606.14,-132.01 608.75,-138.5"/>
</g>
<!-- Node11&#45;&gt;Node12 -->
<g id="edge15" class="edge">
<title>Node11&#45;&gt;Node12</title>
<path fill="none" stroke="midnightblue" d="M790.78,-112.08C797.7,-104.3 807.92,-92.8 816.31,-83.37"/>
<polygon fill="midnightblue" stroke="midnightblue" points="819.05,-85.55 823.08,-75.75 813.82,-80.9 819.05,-85.55"/>
</g>
<!-- Node12&#45;&gt;Node4 -->
<g id="edge16" class="edge">
<title>Node12&#45;&gt;Node4</title>
<path fill="none" stroke="midnightblue" d="M840.58,-75.82C854.11,-89.14 875.42,-114.7 860.85,-132 824.12,-175.63 425.2,-216.97 295.99,-229.29"/>
<polygon fill="midnightblue" stroke="midnightblue" points="295.37,-225.84 285.74,-230.27 296.03,-232.81 295.37,-225.84"/>
</g>
<!-- Node13&#45;&gt;Node2 -->
<g id="edge18" class="edge">
<title>Node13&#45;&gt;Node2</title>
<path fill="none" stroke="midnightblue" d="M376.16,-131.53C379.22,-151.32 387.17,-201.9 394.85,-244 396.45,-252.73 398.36,-262.38 400.01,-270.5"/>
<polygon fill="midnightblue" stroke="midnightblue" points="396.6,-271.3 402.04,-280.39 403.46,-269.89 396.6,-271.3"/>
</g>
<!-- Node14&#45;&gt;Node15 -->
<g id="edge20" class="edge">
<title>Node14&#45;&gt;Node15</title>
<path fill="none" stroke="midnightblue" d="M503.85,-112.08C503.85,-105.01 503.85,-94.86 503.85,-85.99"/>
<polygon fill="midnightblue" stroke="midnightblue" points="507.35,-85.75 503.85,-75.75 500.35,-85.75 507.35,-85.75"/>
</g>
<!-- Node15&#45;&gt;Node4 -->
<g id="edge21" class="edge">
<title>Node15&#45;&gt;Node4</title>
<path fill="none" stroke="midnightblue" d="M458.5,-66.9C416.44,-69.09 354.28,-78.44 312.85,-112 308.52,-115.51 278.56,-181.95 263.9,-214.85"/>
<polygon fill="midnightblue" stroke="midnightblue" points="260.6,-213.68 259.73,-224.23 266.99,-216.52 260.6,-213.68"/>
</g>
<!-- Node16&#45;&gt;Node12 -->
<g id="edge23" class="edge">
<title>Node16&#45;&gt;Node12</title>
<path fill="none" stroke="midnightblue" d="M668.44,-112.44C701.47,-103.2 754.24,-88.44 790.62,-78.26"/>
<polygon fill="midnightblue" stroke="midnightblue" points="791.73,-81.58 800.42,-75.52 789.84,-74.84 791.73,-81.58"/>
</g>
</g>
</svg>
