<?xml version="1.0" encoding="UTF-8" standalone="no"?>
<!DOCTYPE svg PUBLIC "-//W3C//DTD SVG 1.1//EN"
 "http://www.w3.org/Graphics/SVG/1.1/DTD/svg11.dtd">
<!-- Generated by graphviz version 2.43.0 (0)
 -->
<!-- Title: libccc/string.h Pages: 1 -->
<svg width="640pt" height="498pt"
 viewBox="0.00 0.00 639.91 498.00" xmlns="http://www.w3.org/2000/svg" xmlns:xlink="http://www.w3.org/1999/xlink">
<g id="graph0" class="graph" transform="scale(1 1) rotate(0) translate(4 494)">
<title>libccc/string.h</title>
<polygon fill="white" stroke="transparent" points="-4,4 -4,-494 635.91,-494 635.91,4 -4,4"/>
<!-- Node1 -->
<g id="node1" class="node">
<title>Node1</title>
<g id="a_node1"><a xlink:title=" ">
<polygon fill="#bfbfbf" stroke="black" points="233.75,-470.5 233.75,-489.5 328.75,-489.5 328.75,-470.5 233.75,-470.5"/>
<text text-anchor="middle" x="281.25" y="-477.5" font-family="Consolas" font-size="10.00">libccc/string.h</text>
</a>
</g>
</g>
<!-- Node2 -->
<g id="node2" class="node">
<title>Node2</title>
<g id="a_node2"><a xlink:href="libccc_8h.html" target="_top" xlink:title=" ">
<polygon fill="white" stroke="black" points="247.75,-224.5 247.75,-243.5 306.75,-243.5 306.75,-224.5 247.75,-224.5"/>
<text text-anchor="middle" x="277.25" y="-231.5" font-family="Consolas" font-size="10.00">libccc.h</text>
</a>
</g>
</g>
<!-- Node1&#45;&gt;Node2 -->
<g id="edge1" class="edge">
<title>Node1&#45;&gt;Node2</title>
<path fill="none" stroke="midnightblue" d="M249.28,-470.47C163.35,-446.05 -61.04,-371.75 16.25,-280 44.08,-246.95 171.72,-238.17 237.62,-235.84"/>
<polygon fill="midnightblue" stroke="midnightblue" points="237.76,-239.34 247.64,-235.52 237.53,-232.34 237.76,-239.34"/>
</g>
<!-- Node8 -->
<g id="node8" class="node">
<title>Node8</title>
<g id="a_node8"><a xlink:href="string__ascii_8h.html" target="_top" xlink:title=" ">
<polygon fill="white" stroke="black" points="225.75,-403.5 225.75,-433.5 336.75,-433.5 336.75,-403.5 225.75,-403.5"/>
<text text-anchor="start" x="233.75" y="-421.5" font-family="Consolas" font-size="10.00">libccc/text/string</text>
<text text-anchor="middle" x="281.25" y="-410.5" font-family="Consolas" font-size="10.00">_ascii.h</text>
</a>
</g>
</g>
<!-- Node1&#45;&gt;Node8 -->
<g id="edge11" class="edge">
<title>Node1&#45;&gt;Node8</title>
<path fill="none" stroke="midnightblue" d="M281.25,-470.48C281.25,-463.47 281.25,-453.19 281.25,-443.7"/>
<polygon fill="midnightblue" stroke="midnightblue" points="284.75,-443.52 281.25,-433.52 277.75,-443.52 284.75,-443.52"/>
</g>
<!-- Node15 -->
<g id="node15" class="node">
<title>Node15</title>
<g id="a_node15"><a xlink:href="char_8h.html" target="_top" xlink:title=" ">
<polygon fill="white" stroke="black" points="484.75,-409 484.75,-428 569.75,-428 569.75,-409 484.75,-409"/>
<text text-anchor="middle" x="527.25" y="-416" font-family="Consolas" font-size="10.00">libccc/char.h</text>
</a>
</g>
</g>
<!-- Node1&#45;&gt;Node15 -->
<g id="edge23" class="edge">
<title>Node1&#45;&gt;Node15</title>
<path fill="none" stroke="midnightblue" d="M316.49,-470.48C360.15,-459.92 434.59,-441.91 482.31,-430.37"/>
<polygon fill="midnightblue" stroke="midnightblue" points="483.17,-433.76 492.07,-428.01 481.52,-426.96 483.17,-433.76"/>
</g>
<!-- Node3 -->
<g id="node3" class="node">
<title>Node3</title>
<g id="a_node3"><a xlink:href="libccc__define_8h.html" target="_top" xlink:title=" ">
<polygon fill="white" stroke="black" points="229.75,-56.5 229.75,-75.5 324.75,-75.5 324.75,-56.5 229.75,-56.5"/>
<text text-anchor="middle" x="277.25" y="-63.5" font-family="Consolas" font-size="10.00">libccc_define.h</text>
</a>
</g>
</g>
<!-- Node2&#45;&gt;Node3 -->
<g id="edge2" class="edge">
<title>Node2&#45;&gt;Node3</title>
<path fill="none" stroke="midnightblue" d="M261.24,-224.5C227.36,-205.36 153.75,-157.02 182.25,-112 192.29,-96.13 209.62,-85.74 226.75,-79"/>
<polygon fill="midnightblue" stroke="midnightblue" points="227.96,-82.28 236.2,-75.62 225.6,-75.69 227.96,-82.28"/>
</g>
<!-- Node5 -->
<g id="node5" class="node">
<title>Node5</title>
<g id="a_node5"><a xlink:href="libccc__errors_8h.html" target="_top" xlink:title=" ">
<polygon fill="white" stroke="black" points="191.75,-112.5 191.75,-131.5 286.75,-131.5 286.75,-112.5 191.75,-112.5"/>
<text text-anchor="middle" x="239.25" y="-119.5" font-family="Consolas" font-size="10.00">libccc_errors.h</text>
</a>
</g>
</g>
<!-- Node2&#45;&gt;Node5 -->
<g id="edge4" class="edge">
<title>Node2&#45;&gt;Node5</title>
<path fill="none" stroke="midnightblue" d="M273.31,-224.49C269.24,-215.53 262.85,-200.94 258.25,-188 252.7,-172.42 247.52,-154.35 243.97,-141.22"/>
<polygon fill="midnightblue" stroke="midnightblue" points="247.34,-140.29 241.4,-131.51 240.57,-142.08 247.34,-140.29"/>
</g>
<!-- Node6 -->
<g id="node6" class="node">
<title>Node6</title>
<g id="a_node6"><a xlink:href="libccc__config_8h.html" target="_top" xlink:title=" ">
<polygon fill="white" stroke="black" points="267.75,-168.5 267.75,-187.5 362.75,-187.5 362.75,-168.5 267.75,-168.5"/>
<text text-anchor="middle" x="315.25" y="-175.5" font-family="Consolas" font-size="10.00">libccc_config.h</text>
</a>
</g>
</g>
<!-- Node2&#45;&gt;Node6 -->
<g id="edge6" class="edge">
<title>Node2&#45;&gt;Node6</title>
<path fill="none" stroke="midnightblue" d="M283.52,-224.08C288.89,-216.46 296.76,-205.26 303.33,-195.94"/>
<polygon fill="midnightblue" stroke="midnightblue" points="306.2,-197.94 309.09,-187.75 300.47,-193.91 306.2,-197.94"/>
</g>
<!-- Node7 -->
<g id="node7" class="node">
<title>Node7</title>
<g id="a_node7"><a xlink:href="libccc__naming_8h.html" target="_top" xlink:title=" ">
<polygon fill="white" stroke="black" points="343.75,-112.5 343.75,-131.5 438.75,-131.5 438.75,-112.5 343.75,-112.5"/>
<text text-anchor="middle" x="391.25" y="-119.5" font-family="Consolas" font-size="10.00">libccc_naming.h</text>
</a>
</g>
</g>
<!-- Node2&#45;&gt;Node7 -->
<g id="edge9" class="edge">
<title>Node2&#45;&gt;Node7</title>
<path fill="none" stroke="midnightblue" d="M307.03,-225.61C327.77,-219.01 354.59,-207.32 371.25,-188 382.44,-175.02 387.37,-155.85 389.54,-141.69"/>
<polygon fill="midnightblue" stroke="midnightblue" points="393.03,-141.98 390.76,-131.63 386.08,-141.14 393.03,-141.98"/>
</g>
<!-- Node4 -->
<g id="node4" class="node">
<title>Node4</title>
<g id="a_node4"><a xlink:title=" ">
<polygon fill="white" stroke="#bfbfbf" points="242.75,-0.5 242.75,-19.5 311.75,-19.5 311.75,-0.5 242.75,-0.5"/>
<text text-anchor="middle" x="277.25" y="-7.5" font-family="Consolas" font-size="10.00">stdalign.h</text>
</a>
</g>
</g>
<!-- Node3&#45;&gt;Node4 -->
<g id="edge3" class="edge">
<title>Node3&#45;&gt;Node4</title>
<path fill="none" stroke="midnightblue" d="M277.25,-56.08C277.25,-49.01 277.25,-38.86 277.25,-29.99"/>
<polygon fill="midnightblue" stroke="midnightblue" points="280.75,-29.75 277.25,-19.75 273.75,-29.75 280.75,-29.75"/>
</g>
<!-- Node5&#45;&gt;Node3 -->
<g id="edge5" class="edge">
<title>Node5&#45;&gt;Node3</title>
<path fill="none" stroke="midnightblue" d="M245.52,-112.08C250.89,-104.46 258.76,-93.26 265.33,-83.94"/>
<polygon fill="midnightblue" stroke="midnightblue" points="268.2,-85.94 271.09,-75.75 262.47,-81.91 268.2,-85.94"/>
</g>
<!-- Node6&#45;&gt;Node3 -->
<g id="edge7" class="edge">
<title>Node6&#45;&gt;Node3</title>
<path fill="none" stroke="midnightblue" d="M312.76,-168.09C309.18,-155.5 302.25,-131.82 295.25,-112 292.05,-102.96 288.14,-93.06 284.78,-84.85"/>
<polygon fill="midnightblue" stroke="midnightblue" points="287.98,-83.44 280.91,-75.55 281.52,-86.12 287.98,-83.44"/>
</g>
<!-- Node6&#45;&gt;Node5 -->
<g id="edge8" class="edge">
<title>Node6&#45;&gt;Node5</title>
<path fill="none" stroke="midnightblue" d="M303.04,-168.32C291.47,-160.11 273.87,-147.6 260.09,-137.81"/>
<polygon fill="midnightblue" stroke="midnightblue" points="261.86,-134.77 251.68,-131.83 257.8,-140.48 261.86,-134.77"/>
</g>
<!-- Node7&#45;&gt;Node3 -->
<g id="edge10" class="edge">
<title>Node7&#45;&gt;Node3</title>
<path fill="none" stroke="midnightblue" d="M373.18,-112.44C354.67,-103.68 325.67,-89.94 304.39,-79.86"/>
<polygon fill="midnightblue" stroke="midnightblue" points="305.76,-76.63 295.23,-75.52 302.76,-82.96 305.76,-76.63"/>
</g>
<!-- Node8&#45;&gt;Node2 -->
<g id="edge12" class="edge">
<title>Node8&#45;&gt;Node2</title>
<path fill="none" stroke="midnightblue" d="M272.89,-403.48C267.53,-393.65 261.07,-379.99 258.25,-367 249.53,-326.81 262.05,-278.84 270.54,-253.24"/>
<polygon fill="midnightblue" stroke="midnightblue" points="273.87,-254.32 273.86,-243.72 267.26,-252.02 273.87,-254.32"/>
</g>
<!-- Node9 -->
<g id="node9" class="node">
<title>Node9</title>
<g id="a_node9"><a xlink:href="text_2format_8h.html" target="_top" xlink:title=" ">
<polygon fill="white" stroke="black" points="75.25,-342 75.25,-361 197.25,-361 197.25,-342 75.25,-342"/>
<text text-anchor="middle" x="136.25" y="-349" font-family="Consolas" font-size="10.00">libccc/text/format.h</text>
</a>
</g>
</g>
<!-- Node8&#45;&gt;Node9 -->
<g id="edge13" class="edge">
<title>Node8&#45;&gt;Node9</title>
<path fill="none" stroke="midnightblue" d="M249.78,-403.4C224.34,-391.99 188.85,-376.08 164.35,-365.1"/>
<polygon fill="midnightblue" stroke="midnightblue" points="165.78,-361.9 155.22,-361.01 162.92,-368.29 165.78,-361.9"/>
</g>
<!-- Node12 -->
<g id="node12" class="node">
<title>Node12</title>
<g id="a_node12"><a xlink:href="char__ascii_8h.html" target="_top" xlink:title=" ">
<polygon fill="white" stroke="black" points="396.75,-342 396.75,-361 539.75,-361 539.75,-342 396.75,-342"/>
<text text-anchor="middle" x="468.25" y="-349" font-family="Consolas" font-size="10.00">libccc/text/char_ascii.h</text>
</a>
</g>
</g>
<!-- Node8&#45;&gt;Node12 -->
<g id="edge17" class="edge">
<title>Node8&#45;&gt;Node12</title>
<path fill="none" stroke="midnightblue" d="M321.82,-403.4C355.36,-391.74 402.44,-375.37 434.08,-364.38"/>
<polygon fill="midnightblue" stroke="midnightblue" points="435.48,-367.6 443.77,-361.01 433.18,-360.98 435.48,-367.6"/>
</g>
<!-- Node13 -->
<g id="node13" class="node">
<title>Node13</title>
<g id="a_node13"><a xlink:href="string__utf8_8h.html" target="_top" xlink:title=" ">
<polygon fill="white" stroke="black" points="267.75,-336.5 267.75,-366.5 378.75,-366.5 378.75,-336.5 267.75,-336.5"/>
<text text-anchor="start" x="275.75" y="-354.5" font-family="Consolas" font-size="10.00">libccc/text/string</text>
<text text-anchor="middle" x="323.25" y="-343.5" font-family="Consolas" font-size="10.00">_utf8.h</text>
</a>
</g>
</g>
<!-- Node8&#45;&gt;Node13 -->
<g id="edge19" class="edge">
<title>Node8&#45;&gt;Node13</title>
<path fill="none" stroke="midnightblue" d="M290.36,-403.4C295.7,-395.13 302.57,-384.51 308.64,-375.1"/>
<polygon fill="midnightblue" stroke="midnightblue" points="311.66,-376.88 314.15,-366.58 305.78,-373.08 311.66,-376.88"/>
</g>
<!-- Node9&#45;&gt;Node2 -->
<g id="edge16" class="edge">
<title>Node9&#45;&gt;Node2</title>
<path fill="none" stroke="midnightblue" d="M134.18,-341.6C131.35,-327.03 128.11,-297.95 142.25,-280 164.83,-251.31 206.34,-240.75 237.38,-236.95"/>
<polygon fill="midnightblue" stroke="midnightblue" points="237.89,-240.41 247.47,-235.9 237.16,-233.45 237.89,-240.41"/>
</g>
<!-- Node10 -->
<g id="node10" class="node">
<title>Node10</title>
<g id="a_node10"><a xlink:title=" ">
<polygon fill="white" stroke="#bfbfbf" points="151.75,-280.5 151.75,-299.5 210.75,-299.5 210.75,-280.5 151.75,-280.5"/>
<text text-anchor="middle" x="181.25" y="-287.5" font-family="Consolas" font-size="10.00">stdarg.h</text>
</a>
</g>
</g>
<!-- Node9&#45;&gt;Node10 -->
<g id="edge14" class="edge">
<title>Node9&#45;&gt;Node10</title>
<path fill="none" stroke="midnightblue" d="M142.69,-341.98C149.44,-333.05 160.22,-318.81 168.66,-307.64"/>
<polygon fill="midnightblue" stroke="midnightblue" points="171.57,-309.6 174.81,-299.51 165.99,-305.37 171.57,-309.6"/>
</g>
<!-- Node11 -->
<g id="node11" class="node">
<title>Node11</title>
<g id="a_node11"><a xlink:title=" ">
<polygon fill="white" stroke="#bfbfbf" points="25.75,-280.5 25.75,-299.5 94.75,-299.5 94.75,-280.5 25.75,-280.5"/>
<text text-anchor="middle" x="60.25" y="-287.5" font-family="Consolas" font-size="10.00">inttypes.h</text>
</a>
</g>
</g>
<!-- Node9&#45;&gt;Node11 -->
<g id="edge15" class="edge">
<title>Node9&#45;&gt;Node11</title>
<path fill="none" stroke="midnightblue" d="M125.36,-341.98C113.28,-332.52 93.58,-317.1 79.01,-305.69"/>
<polygon fill="midnightblue" stroke="midnightblue" points="81.15,-302.92 71.12,-299.51 76.83,-308.43 81.15,-302.92"/>
</g>
<!-- Node12&#45;&gt;Node2 -->
<g id="edge18" class="edge">
<title>Node12&#45;&gt;Node2</title>
<path fill="none" stroke="midnightblue" d="M471.26,-341.55C475.57,-326.93 481.5,-297.76 467.25,-280 448.73,-256.92 367.1,-244.39 317.06,-238.76"/>
<polygon fill="midnightblue" stroke="midnightblue" points="317.21,-235.25 306.89,-237.66 316.46,-242.21 317.21,-235.25"/>
</g>
<!-- Node13&#45;&gt;Node2 -->
<g id="edge20" class="edge">
<title>Node13&#45;&gt;Node2</title>
<path fill="none" stroke="midnightblue" d="M314.63,-336.3C308.87,-326.38 301.43,-312.7 296.25,-300 290,-284.69 284.88,-266.59 281.54,-253.38"/>
<polygon fill="midnightblue" stroke="midnightblue" points="284.92,-252.49 279.16,-243.6 278.12,-254.15 284.92,-252.49"/>
</g>
<!-- Node14 -->
<g id="node14" class="node">
<title>Node14</title>
<g id="a_node14"><a xlink:href="char__unicode_8h.html" target="_top" xlink:title=" ">
<polygon fill="white" stroke="black" points="305.75,-280.5 305.75,-299.5 458.75,-299.5 458.75,-280.5 305.75,-280.5"/>
<text text-anchor="middle" x="382.25" y="-287.5" font-family="Consolas" font-size="10.00">libccc/text/char_unicode.h</text>
</a>
</g>
</g>
<!-- Node13&#45;&gt;Node14 -->
<g id="edge21" class="edge">
<title>Node13&#45;&gt;Node14</title>
<path fill="none" stroke="midnightblue" d="M337.23,-336.4C345.98,-327.58 357.28,-316.18 366.36,-307.02"/>
<polygon fill="midnightblue" stroke="midnightblue" points="369.11,-309.22 373.66,-299.66 364.13,-304.29 369.11,-309.22"/>
</g>
<!-- Node14&#45;&gt;Node2 -->
<g id="edge22" class="edge">
<title>Node14&#45;&gt;Node2</title>
<path fill="none" stroke="midnightblue" d="M365.38,-280.32C348.54,-271.66 322.44,-258.24 303.01,-248.25"/>
<polygon fill="midnightblue" stroke="midnightblue" points="304.57,-245.12 294.07,-243.65 301.37,-251.34 304.57,-245.12"/>
</g>
<!-- Node15&#45;&gt;Node2 -->
<g id="edge25" class="edge">
<title>Node15&#45;&gt;Node2</title>
<path fill="none" stroke="midnightblue" d="M564.57,-408.88C586.65,-401.66 612.84,-388.88 626.25,-367 633.44,-355.25 633.98,-347.4 626.25,-336 591.09,-284.21 400.68,-252.02 316.87,-240.16"/>
<polygon fill="midnightblue" stroke="midnightblue" points="317.35,-236.7 306.96,-238.79 316.38,-243.63 317.35,-236.7"/>
</g>
<!-- Node15&#45;&gt;Node12 -->
<g id="edge26" class="edge">
<title>Node15&#45;&gt;Node12</title>
<path fill="none" stroke="midnightblue" d="M519.29,-408.73C510,-398.5 494.45,-381.36 482.94,-368.69"/>
<polygon fill="midnightblue" stroke="midnightblue" points="485.39,-366.18 476.08,-361.13 480.21,-370.88 485.39,-366.18"/>
</g>
<!-- Node16 -->
<g id="node16" class="node">
<title>Node16</title>
<g id="a_node16"><a xlink:title=" ">
<polygon fill="white" stroke="#bfbfbf" points="557.75,-342 557.75,-361 616.75,-361 616.75,-342 557.75,-342"/>
<text text-anchor="middle" x="587.25" y="-349" font-family="Consolas" font-size="10.00">stdint.h</text>
</a>
</g>
</g>
<!-- Node15&#45;&gt;Node16 -->
<g id="edge24" class="edge">
<title>Node15&#45;&gt;Node16</title>
<path fill="none" stroke="midnightblue" d="M535.34,-408.73C544.78,-398.5 560.6,-381.36 572.3,-368.69"/>
<polygon fill="midnightblue" stroke="midnightblue" points="575.07,-370.85 579.28,-361.13 569.93,-366.1 575.07,-370.85"/>
</g>
</g>
</svg>
