<?xml version="1.0" encoding="UTF-8" standalone="no"?>
<!DOCTYPE svg PUBLIC "-//W3C//DTD SVG 1.1//EN"
 "http://www.w3.org/Graphics/SVG/1.1/DTD/svg11.dtd">
<!-- Generated by graphviz version 2.43.0 (0)
 -->
<!-- Title: libccc/text/string_utf8.h Pages: 1 -->
<svg width="271pt" height="375pt"
 viewBox="0.00 0.00 271.32 375.00" xmlns="http://www.w3.org/2000/svg" xmlns:xlink="http://www.w3.org/1999/xlink">
<g id="graph0" class="graph" transform="scale(1 1) rotate(0) translate(4 371)">
<title>libccc/text/string_utf8.h</title>
<polygon fill="white" stroke="transparent" points="-4,4 -4,-371 267.32,-371 267.32,4 -4,4"/>
<!-- Node1 -->
<g id="node1" class="node">
<title>Node1</title>
<g id="a_node1"><a xlink:title=" ">
<polygon fill="#bfbfbf" stroke="black" points="46.32,-336.5 46.32,-366.5 157.32,-366.5 157.32,-336.5 46.32,-336.5"/>
<text text-anchor="start" x="54.32" y="-354.5" font-family="Consolas" font-size="10.00">libccc/text/string</text>
<text text-anchor="middle" x="101.82" y="-343.5" font-family="Consolas" font-size="10.00">_utf8.h</text>
</a>
</g>
</g>
<!-- Node2 -->
<g id="node2" class="node">
<title>Node2</title>
<g id="a_node2"><a xlink:href="libccc_8h.html" target="_top" xlink:title=" ">
<polygon fill="white" stroke="black" points="72.32,-224.5 72.32,-243.5 131.32,-243.5 131.32,-224.5 72.32,-224.5"/>
<text text-anchor="middle" x="101.82" y="-231.5" font-family="Consolas" font-size="10.00">libccc.h</text>
</a>
</g>
</g>
<!-- Node1&#45;&gt;Node2 -->
<g id="edge1" class="edge">
<title>Node1&#45;&gt;Node2</title>
<path fill="none" stroke="midnightblue" d="M88.1,-336.34C76.31,-322.39 62.18,-300.29 68.82,-280 72.31,-269.34 79.4,-259.12 86.11,-251.12"/>
<polygon fill="midnightblue" stroke="midnightblue" points="88.73,-253.44 92.8,-243.66 83.52,-248.76 88.73,-253.44"/>
</g>
<!-- Node8 -->
<g id="node8" class="node">
<title>Node8</title>
<g id="a_node8"><a xlink:href="char__unicode_8h.html" target="_top" xlink:title=" ">
<polygon fill="white" stroke="black" points="78.32,-280.5 78.32,-299.5 231.32,-299.5 231.32,-280.5 78.32,-280.5"/>
<text text-anchor="middle" x="154.82" y="-287.5" font-family="Consolas" font-size="10.00">libccc/text/char_unicode.h</text>
</a>
</g>
</g>
<!-- Node1&#45;&gt;Node8 -->
<g id="edge11" class="edge">
<title>Node1&#45;&gt;Node8</title>
<path fill="none" stroke="midnightblue" d="M114.38,-336.4C122.16,-327.66 132.19,-316.41 140.31,-307.3"/>
<polygon fill="midnightblue" stroke="midnightblue" points="143.07,-309.45 147.11,-299.66 137.85,-304.8 143.07,-309.45"/>
</g>
<!-- Node3 -->
<g id="node3" class="node">
<title>Node3</title>
<g id="a_node3"><a xlink:href="libccc__define_8h.html" target="_top" xlink:title=" ">
<polygon fill="white" stroke="black" points="54.32,-56.5 54.32,-75.5 149.32,-75.5 149.32,-56.5 54.32,-56.5"/>
<text text-anchor="middle" x="101.82" y="-63.5" font-family="Consolas" font-size="10.00">libccc_define.h</text>
</a>
</g>
</g>
<!-- Node2&#45;&gt;Node3 -->
<g id="edge2" class="edge">
<title>Node2&#45;&gt;Node3</title>
<path fill="none" stroke="midnightblue" d="M85.82,-224.5C51.94,-205.36 -21.67,-157.02 6.82,-112 16.87,-96.13 34.2,-85.74 51.32,-79"/>
<polygon fill="midnightblue" stroke="midnightblue" points="52.54,-82.28 60.77,-75.62 50.18,-75.69 52.54,-82.28"/>
</g>
<!-- Node5 -->
<g id="node5" class="node">
<title>Node5</title>
<g id="a_node5"><a xlink:href="libccc__errors_8h.html" target="_top" xlink:title=" ">
<polygon fill="white" stroke="black" points="16.32,-112.5 16.32,-131.5 111.32,-131.5 111.32,-112.5 16.32,-112.5"/>
<text text-anchor="middle" x="63.82" y="-119.5" font-family="Consolas" font-size="10.00">libccc_errors.h</text>
</a>
</g>
</g>
<!-- Node2&#45;&gt;Node5 -->
<g id="edge4" class="edge">
<title>Node2&#45;&gt;Node5</title>
<path fill="none" stroke="midnightblue" d="M97.88,-224.49C93.82,-215.53 87.43,-200.94 82.82,-188 77.28,-172.42 72.09,-154.35 68.54,-141.22"/>
<polygon fill="midnightblue" stroke="midnightblue" points="71.92,-140.29 65.98,-131.51 65.15,-142.08 71.92,-140.29"/>
</g>
<!-- Node6 -->
<g id="node6" class="node">
<title>Node6</title>
<g id="a_node6"><a xlink:href="libccc__config_8h.html" target="_top" xlink:title=" ">
<polygon fill="white" stroke="black" points="92.32,-168.5 92.32,-187.5 187.32,-187.5 187.32,-168.5 92.32,-168.5"/>
<text text-anchor="middle" x="139.82" y="-175.5" font-family="Consolas" font-size="10.00">libccc_config.h</text>
</a>
</g>
</g>
<!-- Node2&#45;&gt;Node6 -->
<g id="edge6" class="edge">
<title>Node2&#45;&gt;Node6</title>
<path fill="none" stroke="midnightblue" d="M108.1,-224.08C113.47,-216.46 121.34,-205.26 127.9,-195.94"/>
<polygon fill="midnightblue" stroke="midnightblue" points="130.77,-197.94 133.67,-187.75 125.05,-193.91 130.77,-197.94"/>
</g>
<!-- Node7 -->
<g id="node7" class="node">
<title>Node7</title>
<g id="a_node7"><a xlink:href="libccc__naming_8h.html" target="_top" xlink:title=" ">
<polygon fill="white" stroke="black" points="168.32,-112.5 168.32,-131.5 263.32,-131.5 263.32,-112.5 168.32,-112.5"/>
<text text-anchor="middle" x="215.82" y="-119.5" font-family="Consolas" font-size="10.00">libccc_naming.h</text>
</a>
</g>
</g>
<!-- Node2&#45;&gt;Node7 -->
<g id="edge9" class="edge">
<title>Node2&#45;&gt;Node7</title>
<path fill="none" stroke="midnightblue" d="M131.6,-225.61C152.34,-219.01 179.17,-207.32 195.82,-188 207.02,-175.02 211.95,-155.85 214.12,-141.69"/>
<polygon fill="midnightblue" stroke="midnightblue" points="217.61,-141.98 215.33,-131.63 210.66,-141.14 217.61,-141.98"/>
</g>
<!-- Node4 -->
<g id="node4" class="node">
<title>Node4</title>
<g id="a_node4"><a xlink:title=" ">
<polygon fill="white" stroke="#bfbfbf" points="67.32,-0.5 67.32,-19.5 136.32,-19.5 136.32,-0.5 67.32,-0.5"/>
<text text-anchor="middle" x="101.82" y="-7.5" font-family="Consolas" font-size="10.00">stdalign.h</text>
</a>
</g>
</g>
<!-- Node3&#45;&gt;Node4 -->
<g id="edge3" class="edge">
<title>Node3&#45;&gt;Node4</title>
<path fill="none" stroke="midnightblue" d="M101.82,-56.08C101.82,-49.01 101.82,-38.86 101.82,-29.99"/>
<polygon fill="midnightblue" stroke="midnightblue" points="105.32,-29.75 101.82,-19.75 98.32,-29.75 105.32,-29.75"/>
</g>
<!-- Node5&#45;&gt;Node3 -->
<g id="edge5" class="edge">
<title>Node5&#45;&gt;Node3</title>
<path fill="none" stroke="midnightblue" d="M70.1,-112.08C75.47,-104.46 83.34,-93.26 89.9,-83.94"/>
<polygon fill="midnightblue" stroke="midnightblue" points="92.77,-85.94 95.67,-75.75 87.05,-81.91 92.77,-85.94"/>
</g>
<!-- Node6&#45;&gt;Node3 -->
<g id="edge7" class="edge">
<title>Node6&#45;&gt;Node3</title>
<path fill="none" stroke="midnightblue" d="M137.33,-168.09C133.76,-155.5 126.82,-131.82 119.82,-112 116.63,-102.96 112.72,-93.06 109.35,-84.85"/>
<polygon fill="midnightblue" stroke="midnightblue" points="112.56,-83.44 105.49,-75.55 106.09,-86.12 112.56,-83.44"/>
</g>
<!-- Node6&#45;&gt;Node5 -->
<g id="edge8" class="edge">
<title>Node6&#45;&gt;Node5</title>
<path fill="none" stroke="midnightblue" d="M127.61,-168.32C116.05,-160.11 98.45,-147.6 84.66,-137.81"/>
<polygon fill="midnightblue" stroke="midnightblue" points="86.44,-134.77 76.26,-131.83 82.38,-140.48 86.44,-134.77"/>
</g>
<!-- Node7&#45;&gt;Node3 -->
<g id="edge10" class="edge">
<title>Node7&#45;&gt;Node3</title>
<path fill="none" stroke="midnightblue" d="M197.76,-112.44C179.25,-103.68 150.24,-89.94 128.97,-79.86"/>
<polygon fill="midnightblue" stroke="midnightblue" points="130.34,-76.63 119.8,-75.52 127.34,-82.96 130.34,-76.63"/>
</g>
<!-- Node8&#45;&gt;Node2 -->
<g id="edge12" class="edge">
<title>Node8&#45;&gt;Node2</title>
<path fill="none" stroke="midnightblue" d="M146.07,-280.08C138.35,-272.22 126.92,-260.57 117.61,-251.08"/>
<polygon fill="midnightblue" stroke="midnightblue" points="119.92,-248.44 110.41,-243.75 114.92,-253.34 119.92,-248.44"/>
</g>
</g>
</svg>
