<?xml version="1.0" encoding="UTF-8" standalone="no"?>
<!DOCTYPE svg PUBLIC "-//W3C//DTD SVG 1.1//EN"
 "http://www.w3.org/Graphics/SVG/1.1/DTD/svg11.dtd">
<!-- Generated by graphviz version 2.43.0 (0)
 -->
<!-- Title: libccc/text/string_ascii.h Pages: 1 -->
<svg width="454pt" height="442pt"
 viewBox="0.00 0.00 454.01 442.00" xmlns="http://www.w3.org/2000/svg" xmlns:xlink="http://www.w3.org/1999/xlink">
<g id="graph0" class="graph" transform="scale(1 1) rotate(0) translate(4 438)">
<title>libccc/text/string_ascii.h</title>
<polygon fill="white" stroke="transparent" points="-4,4 -4,-438 450.01,-438 450.01,4 -4,4"/>
<!-- Node1 -->
<g id="node1" class="node">
<title>Node1</title>
<g id="a_node1"><a xlink:title=" ">
<polygon fill="#bfbfbf" stroke="black" points="94.01,-403.5 94.01,-433.5 205.01,-433.5 205.01,-403.5 94.01,-403.5"/>
<text text-anchor="start" x="102.01" y="-421.5" font-family="Consolas" font-size="10.00">libccc/text/string</text>
<text text-anchor="middle" x="149.51" y="-410.5" font-family="Consolas" font-size="10.00">_ascii.h</text>
</a>
</g>
</g>
<!-- Node2 -->
<g id="node2" class="node">
<title>Node2</title>
<g id="a_node2"><a xlink:href="libccc_8h.html" target="_top" xlink:title=" ">
<polygon fill="white" stroke="black" points="197.01,-224.5 197.01,-243.5 256.01,-243.5 256.01,-224.5 197.01,-224.5"/>
<text text-anchor="middle" x="226.51" y="-231.5" font-family="Consolas" font-size="10.00">libccc.h</text>
</a>
</g>
</g>
<!-- Node1&#45;&gt;Node2 -->
<g id="edge1" class="edge">
<title>Node1&#45;&gt;Node2</title>
<path fill="none" stroke="midnightblue" d="M93.66,-413.43C61.95,-407.93 24.66,-395.36 4.51,-367 -3.47,-355.77 1.25,-349.39 4.51,-336 11.14,-308.77 11.39,-297.21 33.51,-280 77.95,-245.44 144.43,-236.67 186.62,-234.85"/>
<polygon fill="midnightblue" stroke="midnightblue" points="186.91,-238.34 196.8,-234.52 186.69,-231.34 186.91,-238.34"/>
</g>
<!-- Node8 -->
<g id="node8" class="node">
<title>Node8</title>
<g id="a_node8"><a xlink:href="text_2format_8h.html" target="_top" xlink:title=" ">
<polygon fill="white" stroke="black" points="13.51,-342 13.51,-361 135.51,-361 135.51,-342 13.51,-342"/>
<text text-anchor="middle" x="74.51" y="-349" font-family="Consolas" font-size="10.00">libccc/text/format.h</text>
</a>
</g>
</g>
<!-- Node1&#45;&gt;Node8 -->
<g id="edge11" class="edge">
<title>Node1&#45;&gt;Node8</title>
<path fill="none" stroke="midnightblue" d="M133.24,-403.4C121.2,-392.96 104.8,-378.75 92.39,-368"/>
<polygon fill="midnightblue" stroke="midnightblue" points="94.39,-365.1 84.54,-361.19 89.81,-370.39 94.39,-365.1"/>
</g>
<!-- Node11 -->
<g id="node11" class="node">
<title>Node11</title>
<g id="a_node11"><a xlink:href="char__ascii_8h.html" target="_top" xlink:title=" ">
<polygon fill="white" stroke="black" points="154.01,-342 154.01,-361 297.01,-361 297.01,-342 154.01,-342"/>
<text text-anchor="middle" x="225.51" y="-349" font-family="Consolas" font-size="10.00">libccc/text/char_ascii.h</text>
</a>
</g>
</g>
<!-- Node1&#45;&gt;Node11 -->
<g id="edge15" class="edge">
<title>Node1&#45;&gt;Node11</title>
<path fill="none" stroke="midnightblue" d="M166,-403.4C178.2,-392.96 194.82,-378.75 207.39,-368"/>
<polygon fill="midnightblue" stroke="midnightblue" points="210.02,-370.35 215.34,-361.19 205.47,-365.03 210.02,-370.35"/>
</g>
<!-- Node12 -->
<g id="node12" class="node">
<title>Node12</title>
<g id="a_node12"><a xlink:href="string__utf8_8h.html" target="_top" xlink:title=" ">
<polygon fill="white" stroke="black" points="315.01,-336.5 315.01,-366.5 426.01,-366.5 426.01,-336.5 315.01,-336.5"/>
<text text-anchor="start" x="323.01" y="-354.5" font-family="Consolas" font-size="10.00">libccc/text/string</text>
<text text-anchor="middle" x="370.51" y="-343.5" font-family="Consolas" font-size="10.00">_utf8.h</text>
</a>
</g>
</g>
<!-- Node1&#45;&gt;Node12 -->
<g id="edge17" class="edge">
<title>Node1&#45;&gt;Node12</title>
<path fill="none" stroke="midnightblue" d="M197.19,-403.48C231.06,-393.51 276.72,-380.09 312.67,-369.51"/>
<polygon fill="midnightblue" stroke="midnightblue" points="313.93,-372.79 322.53,-366.61 311.95,-366.07 313.93,-372.79"/>
</g>
<!-- Node3 -->
<g id="node3" class="node">
<title>Node3</title>
<g id="a_node3"><a xlink:href="libccc__define_8h.html" target="_top" xlink:title=" ">
<polygon fill="white" stroke="black" points="179.01,-56.5 179.01,-75.5 274.01,-75.5 274.01,-56.5 179.01,-56.5"/>
<text text-anchor="middle" x="226.51" y="-63.5" font-family="Consolas" font-size="10.00">libccc_define.h</text>
</a>
</g>
</g>
<!-- Node2&#45;&gt;Node3 -->
<g id="edge2" class="edge">
<title>Node2&#45;&gt;Node3</title>
<path fill="none" stroke="midnightblue" d="M210.51,-224.5C176.63,-205.36 103.02,-157.02 131.51,-112 141.56,-96.13 158.88,-85.74 176.01,-79"/>
<polygon fill="midnightblue" stroke="midnightblue" points="177.22,-82.28 185.46,-75.62 174.86,-75.69 177.22,-82.28"/>
</g>
<!-- Node5 -->
<g id="node5" class="node">
<title>Node5</title>
<g id="a_node5"><a xlink:href="libccc__errors_8h.html" target="_top" xlink:title=" ">
<polygon fill="white" stroke="black" points="141.01,-112.5 141.01,-131.5 236.01,-131.5 236.01,-112.5 141.01,-112.5"/>
<text text-anchor="middle" x="188.51" y="-119.5" font-family="Consolas" font-size="10.00">libccc_errors.h</text>
</a>
</g>
</g>
<!-- Node2&#45;&gt;Node5 -->
<g id="edge4" class="edge">
<title>Node2&#45;&gt;Node5</title>
<path fill="none" stroke="midnightblue" d="M222.57,-224.49C218.5,-215.53 212.12,-200.94 207.51,-188 201.97,-172.42 196.78,-154.35 193.23,-141.22"/>
<polygon fill="midnightblue" stroke="midnightblue" points="196.61,-140.29 190.66,-131.51 189.84,-142.08 196.61,-140.29"/>
</g>
<!-- Node6 -->
<g id="node6" class="node">
<title>Node6</title>
<g id="a_node6"><a xlink:href="libccc__config_8h.html" target="_top" xlink:title=" ">
<polygon fill="white" stroke="black" points="217.01,-168.5 217.01,-187.5 312.01,-187.5 312.01,-168.5 217.01,-168.5"/>
<text text-anchor="middle" x="264.51" y="-175.5" font-family="Consolas" font-size="10.00">libccc_config.h</text>
</a>
</g>
</g>
<!-- Node2&#45;&gt;Node6 -->
<g id="edge6" class="edge">
<title>Node2&#45;&gt;Node6</title>
<path fill="none" stroke="midnightblue" d="M232.79,-224.08C238.15,-216.46 246.03,-205.26 252.59,-195.94"/>
<polygon fill="midnightblue" stroke="midnightblue" points="255.46,-197.94 258.35,-187.75 249.74,-193.91 255.46,-197.94"/>
</g>
<!-- Node7 -->
<g id="node7" class="node">
<title>Node7</title>
<g id="a_node7"><a xlink:href="libccc__naming_8h.html" target="_top" xlink:title=" ">
<polygon fill="white" stroke="black" points="293.01,-112.5 293.01,-131.5 388.01,-131.5 388.01,-112.5 293.01,-112.5"/>
<text text-anchor="middle" x="340.51" y="-119.5" font-family="Consolas" font-size="10.00">libccc_naming.h</text>
</a>
</g>
</g>
<!-- Node2&#45;&gt;Node7 -->
<g id="edge9" class="edge">
<title>Node2&#45;&gt;Node7</title>
<path fill="none" stroke="midnightblue" d="M256.29,-225.61C277.03,-219.01 303.85,-207.32 320.51,-188 331.7,-175.02 336.63,-155.85 338.8,-141.69"/>
<polygon fill="midnightblue" stroke="midnightblue" points="342.3,-141.98 340.02,-131.63 335.35,-141.14 342.3,-141.98"/>
</g>
<!-- Node4 -->
<g id="node4" class="node">
<title>Node4</title>
<g id="a_node4"><a xlink:title=" ">
<polygon fill="white" stroke="#bfbfbf" points="192.01,-0.5 192.01,-19.5 261.01,-19.5 261.01,-0.5 192.01,-0.5"/>
<text text-anchor="middle" x="226.51" y="-7.5" font-family="Consolas" font-size="10.00">stdalign.h</text>
</a>
</g>
</g>
<!-- Node3&#45;&gt;Node4 -->
<g id="edge3" class="edge">
<title>Node3&#45;&gt;Node4</title>
<path fill="none" stroke="midnightblue" d="M226.51,-56.08C226.51,-49.01 226.51,-38.86 226.51,-29.99"/>
<polygon fill="midnightblue" stroke="midnightblue" points="230.01,-29.75 226.51,-19.75 223.01,-29.75 230.01,-29.75"/>
</g>
<!-- Node5&#45;&gt;Node3 -->
<g id="edge5" class="edge">
<title>Node5&#45;&gt;Node3</title>
<path fill="none" stroke="midnightblue" d="M194.79,-112.08C200.15,-104.46 208.03,-93.26 214.59,-83.94"/>
<polygon fill="midnightblue" stroke="midnightblue" points="217.46,-85.94 220.35,-75.75 211.74,-81.91 217.46,-85.94"/>
</g>
<!-- Node6&#45;&gt;Node3 -->
<g id="edge7" class="edge">
<title>Node6&#45;&gt;Node3</title>
<path fill="none" stroke="midnightblue" d="M262.02,-168.09C258.44,-155.5 251.51,-131.82 244.51,-112 241.32,-102.96 237.4,-93.06 234.04,-84.85"/>
<polygon fill="midnightblue" stroke="midnightblue" points="237.24,-83.44 230.17,-75.55 230.78,-86.12 237.24,-83.44"/>
</g>
<!-- Node6&#45;&gt;Node5 -->
<g id="edge8" class="edge">
<title>Node6&#45;&gt;Node5</title>
<path fill="none" stroke="midnightblue" d="M252.3,-168.32C240.73,-160.11 223.14,-147.6 209.35,-137.81"/>
<polygon fill="midnightblue" stroke="midnightblue" points="211.12,-134.77 200.94,-131.83 207.07,-140.48 211.12,-134.77"/>
</g>
<!-- Node7&#45;&gt;Node3 -->
<g id="edge10" class="edge">
<title>Node7&#45;&gt;Node3</title>
<path fill="none" stroke="midnightblue" d="M322.45,-112.44C303.94,-103.68 274.93,-89.94 253.66,-79.86"/>
<polygon fill="midnightblue" stroke="midnightblue" points="255.03,-76.63 244.49,-75.52 252.03,-82.96 255.03,-76.63"/>
</g>
<!-- Node8&#45;&gt;Node2 -->
<g id="edge14" class="edge">
<title>Node8&#45;&gt;Node2</title>
<path fill="none" stroke="midnightblue" d="M65.18,-341.98C50.96,-327.97 27.07,-299.67 42.51,-280 60.1,-257.59 138.19,-244.9 186.81,-239.04"/>
<polygon fill="midnightblue" stroke="midnightblue" points="187.47,-242.49 197,-237.86 186.66,-235.53 187.47,-242.49"/>
</g>
<!-- Node9 -->
<g id="node9" class="node">
<title>Node9</title>
<g id="a_node9"><a xlink:title=" ">
<polygon fill="white" stroke="#bfbfbf" points="52.01,-280.5 52.01,-299.5 111.01,-299.5 111.01,-280.5 52.01,-280.5"/>
<text text-anchor="middle" x="81.51" y="-287.5" font-family="Consolas" font-size="10.00">stdarg.h</text>
</a>
</g>
</g>
<!-- Node8&#45;&gt;Node9 -->
<g id="edge12" class="edge">
<title>Node8&#45;&gt;Node9</title>
<path fill="none" stroke="midnightblue" d="M75.51,-341.98C76.5,-333.58 78.04,-320.48 79.31,-309.66"/>
<polygon fill="midnightblue" stroke="midnightblue" points="82.82,-309.85 80.51,-299.51 75.87,-309.03 82.82,-309.85"/>
</g>
<!-- Node10 -->
<g id="node10" class="node">
<title>Node10</title>
<g id="a_node10"><a xlink:title=" ">
<polygon fill="white" stroke="#bfbfbf" points="129.01,-280.5 129.01,-299.5 198.01,-299.5 198.01,-280.5 129.01,-280.5"/>
<text text-anchor="middle" x="163.51" y="-287.5" font-family="Consolas" font-size="10.00">inttypes.h</text>
</a>
</g>
</g>
<!-- Node8&#45;&gt;Node10 -->
<g id="edge13" class="edge">
<title>Node8&#45;&gt;Node10</title>
<path fill="none" stroke="midnightblue" d="M87.26,-341.98C101.54,-332.43 124.91,-316.81 142.02,-305.37"/>
<polygon fill="midnightblue" stroke="midnightblue" points="144.41,-307.98 150.78,-299.51 140.52,-302.16 144.41,-307.98"/>
</g>
<!-- Node11&#45;&gt;Node2 -->
<g id="edge16" class="edge">
<title>Node11&#45;&gt;Node2</title>
<path fill="none" stroke="midnightblue" d="M225.59,-341.82C225.75,-323.26 226.13,-279.34 226.35,-253.97"/>
<polygon fill="midnightblue" stroke="midnightblue" points="229.85,-253.81 226.43,-243.78 222.85,-253.75 229.85,-253.81"/>
</g>
<!-- Node12&#45;&gt;Node2 -->
<g id="edge18" class="edge">
<title>Node12&#45;&gt;Node2</title>
<path fill="none" stroke="midnightblue" d="M340.77,-336.32C323.2,-327.22 301.04,-314.42 283.51,-300 266.21,-285.76 249.7,-266.03 238.94,-252.04"/>
<polygon fill="midnightblue" stroke="midnightblue" points="241.56,-249.7 232.76,-243.8 235.96,-253.9 241.56,-249.7"/>
</g>
<!-- Node13 -->
<g id="node13" class="node">
<title>Node13</title>
<g id="a_node13"><a xlink:href="char__unicode_8h.html" target="_top" xlink:title=" ">
<polygon fill="white" stroke="black" points="293.01,-280.5 293.01,-299.5 446.01,-299.5 446.01,-280.5 293.01,-280.5"/>
<text text-anchor="middle" x="369.51" y="-287.5" font-family="Consolas" font-size="10.00">libccc/text/char_unicode.h</text>
</a>
</g>
</g>
<!-- Node12&#45;&gt;Node13 -->
<g id="edge19" class="edge">
<title>Node12&#45;&gt;Node13</title>
<path fill="none" stroke="midnightblue" d="M370.27,-336.4C370.14,-328.47 369.97,-318.46 369.83,-309.86"/>
<polygon fill="midnightblue" stroke="midnightblue" points="373.32,-309.6 369.66,-299.66 366.32,-309.72 373.32,-309.6"/>
</g>
<!-- Node13&#45;&gt;Node2 -->
<g id="edge20" class="edge">
<title>Node13&#45;&gt;Node2</title>
<path fill="none" stroke="midnightblue" d="M346.85,-280.44C323.11,-271.48 285.6,-257.31 258.77,-247.18"/>
<polygon fill="midnightblue" stroke="midnightblue" points="259.66,-243.77 249.06,-243.52 257.18,-250.32 259.66,-243.77"/>
</g>
</g>
</svg>
