<?xml version="1.0" encoding="UTF-8" standalone="no"?>
<!DOCTYPE svg PUBLIC "-//W3C//DTD SVG 1.1//EN"
 "http://www.w3.org/Graphics/SVG/1.1/DTD/svg11.dtd">
<!-- Generated by graphviz version 2.49.3 (20211023.0002)
 -->
<!-- Title: libccc/sys/error.h Pages: 1 -->
<svg width="458pt" height="420pt"
 viewBox="0.00 0.00 457.50 420.00" xmlns="http://www.w3.org/2000/svg" xmlns:xlink="http://www.w3.org/1999/xlink">
<g id="graph0" class="graph" transform="scale(1 1) rotate(0) translate(4 416)">
<title>libccc/sys/error.h</title>
<polygon fill="white" stroke="transparent" points="-4,4 -4,-416 453.5,-416 453.5,4 -4,4"/>
<!-- Node1 -->
<g id="node1" class="node">
<title>Node1</title>
<g id="a_node1"><a xlink:title=" ">
<polygon fill="#bfbfbf" stroke="black" points="68,-392.5 68,-411.5 159,-411.5 159,-392.5 68,-392.5"/>
<text text-anchor="middle" x="113.5" y="-399.5" font-family="Consolas" font-size="10.00">libccc/sys/error.h</text>
</a>
</g>
</g>
<!-- Node2 -->
<g id="node2" class="node">
<title>Node2</title>
<g id="a_node2"><a xlink:href="libccc_8h.html" target="_top" xlink:title=" ">
<polygon fill="white" stroke="black" points="128.5,-224.5 128.5,-243.5 178.5,-243.5 178.5,-224.5 128.5,-224.5"/>
<text text-anchor="middle" x="153.5" y="-231.5" font-family="Consolas" font-size="10.00">libccc.h</text>
</a>
</g>
</g>
<!-- Node1&#45;&gt;Node2 -->
<g id="edge1" class="edge">
<title>Node1&#45;&gt;Node2</title>
<path fill="none" stroke="midnightblue" d="M116.68,-392.46C119.95,-383.48 125.03,-368.88 128.5,-356 138.12,-320.22 146.14,-277.64 150.34,-253.72"/>
<polygon fill="midnightblue" stroke="midnightblue" points="153.84,-254.04 152.08,-243.59 146.94,-252.85 153.84,-254.04"/>
</g>
<!-- Node8 -->
<g id="node8" class="node">
<title>Node8</title>
<g id="a_node8"><a xlink:href="string_8h.html" target="_top" xlink:title=" ">
<polygon fill="white" stroke="black" points="42,-336.5 42,-355.5 119,-355.5 119,-336.5 42,-336.5"/>
<text text-anchor="middle" x="80.5" y="-343.5" font-family="Consolas" font-size="10.00">libccc/string.h</text>
</a>
</g>
</g>
<!-- Node1&#45;&gt;Node8 -->
<g id="edge11" class="edge">
<title>Node1&#45;&gt;Node8</title>
<path fill="none" stroke="midnightblue" d="M108.05,-392.08C103.49,-384.61 96.83,-373.72 91.21,-364.52"/>
<polygon fill="midnightblue" stroke="midnightblue" points="94.05,-362.46 85.85,-355.75 88.08,-366.11 94.05,-362.46"/>
</g>
<!-- Node9 -->
<g id="node9" class="node">
<title>Node9</title>
<g id="a_node9"><a xlink:href="format_8h.html" target="_top" xlink:title=" ">
<polygon fill="white" stroke="black" points="0,-280.5 0,-299.5 81,-299.5 81,-280.5 0,-280.5"/>
<text text-anchor="middle" x="40.5" y="-287.5" font-family="Consolas" font-size="10.00">libccc/format.h</text>
</a>
</g>
</g>
<!-- Node1&#45;&gt;Node9 -->
<g id="edge16" class="edge">
<title>Node1&#45;&gt;Node9</title>
<path fill="none" stroke="midnightblue" d="M82.48,-392.44C64.47,-385.69 43.27,-374.3 32.5,-356 24.14,-341.79 27.82,-322.82 32.58,-309.04"/>
<polygon fill="midnightblue" stroke="midnightblue" points="35.86,-310.27 36.25,-299.68 29.34,-307.71 35.86,-310.27"/>
</g>
<!-- Node11 -->
<g id="node11" class="node">
<title>Node11</title>
<g id="a_node11"><a xlink:href="io_8h.html" target="_top" xlink:title=" ">
<polygon fill="white" stroke="black" points="267.5,-336.5 267.5,-355.5 347.5,-355.5 347.5,-336.5 267.5,-336.5"/>
<text text-anchor="middle" x="307.5" y="-343.5" font-family="Consolas" font-size="10.00">libccc/sys/io.h</text>
</a>
</g>
</g>
<!-- Node1&#45;&gt;Node11 -->
<g id="edge17" class="edge">
<title>Node1&#45;&gt;Node11</title>
<path fill="none" stroke="midnightblue" d="M144.24,-392.44C177.44,-383.2 230.49,-368.44 267.06,-358.26"/>
<polygon fill="midnightblue" stroke="midnightblue" points="268.21,-361.57 276.9,-355.52 266.33,-354.83 268.21,-361.57"/>
</g>
<!-- Node3 -->
<g id="node3" class="node">
<title>Node3</title>
<g id="a_node3"><a xlink:href="libccc__define_8h.html" target="_top" xlink:title=" ">
<polygon fill="white" stroke="black" points="216.5,-56.5 216.5,-75.5 298.5,-75.5 298.5,-56.5 216.5,-56.5"/>
<text text-anchor="middle" x="257.5" y="-63.5" font-family="Consolas" font-size="10.00">libccc_define.h</text>
</a>
</g>
</g>
<!-- Node2&#45;&gt;Node3 -->
<g id="edge2" class="edge">
<title>Node2&#45;&gt;Node3</title>
<path fill="none" stroke="midnightblue" d="M178.58,-229.45C218.53,-223.21 293.74,-208.95 309.5,-188 334.57,-154.68 297.53,-107.42 274.15,-83"/>
<polygon fill="midnightblue" stroke="midnightblue" points="276.38,-80.28 266.85,-75.64 271.41,-85.21 276.38,-80.28"/>
</g>
<!-- Node5 -->
<g id="node5" class="node">
<title>Node5</title>
<g id="a_node5"><a xlink:href="libccc__errors_8h.html" target="_top" xlink:title=" ">
<polygon fill="white" stroke="black" points="111.5,-112.5 111.5,-131.5 191.5,-131.5 191.5,-112.5 111.5,-112.5"/>
<text text-anchor="middle" x="151.5" y="-119.5" font-family="Consolas" font-size="10.00">libccc_errors.h</text>
</a>
</g>
</g>
<!-- Node2&#45;&gt;Node5 -->
<g id="edge4" class="edge">
<title>Node2&#45;&gt;Node5</title>
<path fill="none" stroke="midnightblue" d="M138.55,-224.47C126.57,-216.7 110.63,-204 103.5,-188 94.99,-168.9 112.66,-150.01 128.9,-137.56"/>
<polygon fill="midnightblue" stroke="midnightblue" points="131.04,-140.34 137.13,-131.67 126.96,-134.65 131.04,-140.34"/>
</g>
<!-- Node6 -->
<g id="node6" class="node">
<title>Node6</title>
<g id="a_node6"><a xlink:href="libccc__config_8h.html" target="_top" xlink:title=" ">
<polygon fill="white" stroke="black" points="112.5,-168.5 112.5,-187.5 194.5,-187.5 194.5,-168.5 112.5,-168.5"/>
<text text-anchor="middle" x="153.5" y="-175.5" font-family="Consolas" font-size="10.00">libccc_config.h</text>
</a>
</g>
</g>
<!-- Node2&#45;&gt;Node6 -->
<g id="edge6" class="edge">
<title>Node2&#45;&gt;Node6</title>
<path fill="none" stroke="midnightblue" d="M153.5,-224.08C153.5,-217.01 153.5,-206.86 153.5,-197.99"/>
<polygon fill="midnightblue" stroke="midnightblue" points="157,-197.75 153.5,-187.75 150,-197.75 157,-197.75"/>
</g>
<!-- Node7 -->
<g id="node7" class="node">
<title>Node7</title>
<g id="a_node7"><a xlink:href="libccc__naming_8h.html" target="_top" xlink:title=" ">
<polygon fill="white" stroke="black" points="213,-168.5 213,-187.5 300,-187.5 300,-168.5 213,-168.5"/>
<text text-anchor="middle" x="256.5" y="-175.5" font-family="Consolas" font-size="10.00">libccc_naming.h</text>
</a>
</g>
</g>
<!-- Node2&#45;&gt;Node7 -->
<g id="edge9" class="edge">
<title>Node2&#45;&gt;Node7</title>
<path fill="none" stroke="midnightblue" d="M170.05,-224.32C186.49,-215.7 211.93,-202.36 230.97,-192.39"/>
<polygon fill="midnightblue" stroke="midnightblue" points="232.76,-195.4 239.99,-187.65 229.51,-189.2 232.76,-195.4"/>
</g>
<!-- Node4 -->
<g id="node4" class="node">
<title>Node4</title>
<g id="a_node4"><a xlink:title=" ">
<polygon fill="white" stroke="#bfbfbf" points="228,-0.5 228,-19.5 287,-19.5 287,-0.5 228,-0.5"/>
<text text-anchor="middle" x="257.5" y="-7.5" font-family="Consolas" font-size="10.00">stdalign.h</text>
</a>
</g>
</g>
<!-- Node3&#45;&gt;Node4 -->
<g id="edge3" class="edge">
<title>Node3&#45;&gt;Node4</title>
<path fill="none" stroke="midnightblue" d="M257.5,-56.08C257.5,-49.01 257.5,-38.86 257.5,-29.99"/>
<polygon fill="midnightblue" stroke="midnightblue" points="261,-29.75 257.5,-19.75 254,-29.75 261,-29.75"/>
</g>
<!-- Node5&#45;&gt;Node3 -->
<g id="edge5" class="edge">
<title>Node5&#45;&gt;Node3</title>
<path fill="none" stroke="midnightblue" d="M168.53,-112.32C185.53,-103.66 211.88,-90.24 231.49,-80.25"/>
<polygon fill="midnightblue" stroke="midnightblue" points="233.19,-83.31 240.51,-75.65 230.01,-77.08 233.19,-83.31"/>
</g>
<!-- Node6&#45;&gt;Node3 -->
<g id="edge7" class="edge">
<title>Node6&#45;&gt;Node3</title>
<path fill="none" stroke="midnightblue" d="M163.1,-168.27C172.77,-159.37 188,-145.06 200.5,-132 215.82,-115.99 232.43,-96.82 243.75,-83.47"/>
<polygon fill="midnightblue" stroke="midnightblue" points="246.59,-85.53 250.35,-75.62 241.23,-81.02 246.59,-85.53"/>
</g>
<!-- Node6&#45;&gt;Node5 -->
<g id="edge8" class="edge">
<title>Node6&#45;&gt;Node5</title>
<path fill="none" stroke="midnightblue" d="M153.17,-168.08C152.91,-161.01 152.53,-150.86 152.2,-141.99"/>
<polygon fill="midnightblue" stroke="midnightblue" points="155.69,-141.61 151.82,-131.75 148.7,-141.87 155.69,-141.61"/>
</g>
<!-- Node7&#45;&gt;Node3 -->
<g id="edge10" class="edge">
<title>Node7&#45;&gt;Node3</title>
<path fill="none" stroke="midnightblue" d="M256.58,-168.37C256.74,-150.62 257.11,-109.67 257.33,-85.6"/>
<polygon fill="midnightblue" stroke="midnightblue" points="260.83,-85.62 257.42,-75.59 253.83,-85.56 260.83,-85.62"/>
</g>
<!-- Node8&#45;&gt;Node2 -->
<g id="edge12" class="edge">
<title>Node8&#45;&gt;Node2</title>
<path fill="none" stroke="midnightblue" d="M86.23,-336.37C98.28,-318.22 126.42,-275.8 142.22,-251.99"/>
<polygon fill="midnightblue" stroke="midnightblue" points="145.19,-253.86 147.8,-243.59 139.35,-249.99 145.19,-253.86"/>
</g>
<!-- Node8&#45;&gt;Node9 -->
<g id="edge13" class="edge">
<title>Node8&#45;&gt;Node9</title>
<path fill="none" stroke="midnightblue" d="M73.89,-336.08C68.24,-328.46 59.96,-317.26 53.05,-307.94"/>
<polygon fill="midnightblue" stroke="midnightblue" points="55.75,-305.7 46.98,-299.75 50.12,-309.87 55.75,-305.7"/>
</g>
<!-- Node9&#45;&gt;Node2 -->
<g id="edge15" class="edge">
<title>Node9&#45;&gt;Node2</title>
<path fill="none" stroke="midnightblue" d="M58.41,-280.44C76.75,-271.68 105.51,-257.94 126.59,-247.86"/>
<polygon fill="midnightblue" stroke="midnightblue" points="128.17,-250.99 135.68,-243.52 125.15,-244.67 128.17,-250.99"/>
</g>
<!-- Node10 -->
<g id="node10" class="node">
<title>Node10</title>
<g id="a_node10"><a xlink:title=" ">
<polygon fill="white" stroke="#bfbfbf" points="14.5,-224.5 14.5,-243.5 66.5,-243.5 66.5,-224.5 14.5,-224.5"/>
<text text-anchor="middle" x="40.5" y="-231.5" font-family="Consolas" font-size="10.00">stdarg.h</text>
</a>
</g>
</g>
<!-- Node9&#45;&gt;Node10 -->
<g id="edge14" class="edge">
<title>Node9&#45;&gt;Node10</title>
<path fill="none" stroke="midnightblue" d="M40.5,-280.08C40.5,-273.01 40.5,-262.86 40.5,-253.99"/>
<polygon fill="midnightblue" stroke="midnightblue" points="44,-253.75 40.5,-243.75 37,-253.75 44,-253.75"/>
</g>
<!-- Node11&#45;&gt;Node2 -->
<g id="edge19" class="edge">
<title>Node11&#45;&gt;Node2</title>
<path fill="none" stroke="midnightblue" d="M307.4,-336.16C306.76,-322.34 303.51,-295.58 288.5,-280 262.28,-252.78 219.2,-242.03 188.76,-237.77"/>
<polygon fill="midnightblue" stroke="midnightblue" points="188.92,-234.27 178.57,-236.53 188.07,-241.22 188.92,-234.27"/>
</g>
<!-- Node12 -->
<g id="node12" class="node">
<title>Node12</title>
<g id="a_node12"><a xlink:title=" ">
<polygon fill="white" stroke="#bfbfbf" points="335.5,-280.5 335.5,-299.5 379.5,-299.5 379.5,-280.5 335.5,-280.5"/>
<text text-anchor="middle" x="357.5" y="-287.5" font-family="Consolas" font-size="10.00">fcntl.h</text>
</a>
</g>
</g>
<!-- Node11&#45;&gt;Node12 -->
<g id="edge18" class="edge">
<title>Node11&#45;&gt;Node12</title>
<path fill="none" stroke="midnightblue" d="M315.76,-336.08C322.96,-328.3 333.61,-316.8 342.35,-307.37"/>
<polygon fill="midnightblue" stroke="midnightblue" points="345.17,-309.47 349.4,-299.75 340.03,-304.71 345.17,-309.47"/>
</g>
<!-- Node13 -->
<g id="node13" class="node">
<title>Node13</title>
<g id="a_node13"><a xlink:href="ansi_8h.html" target="_top" xlink:title=" ">
<polygon fill="white" stroke="black" points="359.5,-112.5 359.5,-131.5 449.5,-131.5 449.5,-112.5 359.5,-112.5"/>
<text text-anchor="middle" x="404.5" y="-119.5" font-family="Consolas" font-size="10.00">libccc/sys/ansi.h</text>
</a>
</g>
</g>
<!-- Node11&#45;&gt;Node13 -->
<g id="edge20" class="edge">
<title>Node11&#45;&gt;Node13</title>
<path fill="none" stroke="midnightblue" d="M337.14,-336.39C355.1,-329.55 376.74,-318.07 388.5,-300 420.71,-250.51 413.7,-176.1 408.11,-141.69"/>
<polygon fill="midnightblue" stroke="midnightblue" points="411.52,-140.88 406.33,-131.64 404.63,-142.1 411.52,-140.88"/>
</g>
<!-- Node14 -->
<g id="node14" class="node">
<title>Node14</title>
<g id="a_node14"><a xlink:href="image_2color_8h.html" target="_top" xlink:title=" ">
<polygon fill="white" stroke="black" points="176,-280.5 176,-299.5 279,-299.5 279,-280.5 176,-280.5"/>
<text text-anchor="middle" x="227.5" y="-287.5" font-family="Consolas" font-size="10.00">libccc/image/color.h</text>
</a>
</g>
</g>
<!-- Node11&#45;&gt;Node14 -->
<g id="edge22" class="edge">
<title>Node11&#45;&gt;Node14</title>
<path fill="none" stroke="midnightblue" d="M294.65,-336.32C282.28,-327.98 263.37,-315.21 248.76,-305.35"/>
<polygon fill="midnightblue" stroke="midnightblue" points="250.57,-302.35 240.32,-299.65 246.65,-308.15 250.57,-302.35"/>
</g>
<!-- Node13&#45;&gt;Node3 -->
<g id="edge21" class="edge">
<title>Node13&#45;&gt;Node3</title>
<path fill="none" stroke="midnightblue" d="M381.21,-112.44C356.69,-103.44 317.9,-89.19 290.3,-79.05"/>
<polygon fill="midnightblue" stroke="midnightblue" points="291.28,-75.68 280.68,-75.52 288.86,-82.25 291.28,-75.68"/>
</g>
<!-- Node14&#45;&gt;Node2 -->
<g id="edge23" class="edge">
<title>Node14&#45;&gt;Node2</title>
<path fill="none" stroke="midnightblue" d="M215.61,-280.32C204.35,-272.11 187.21,-259.6 173.79,-249.81"/>
<polygon fill="midnightblue" stroke="midnightblue" points="175.75,-246.9 165.61,-243.83 171.62,-252.56 175.75,-246.9"/>
</g>
</g>
</svg>
