<?xml version="1.0" encoding="UTF-8" standalone="no"?>
<!DOCTYPE svg PUBLIC "-//W3C//DTD SVG 1.1//EN"
 "http://www.w3.org/Graphics/SVG/1.1/DTD/svg11.dtd">
<!-- Generated by graphviz version 3.0.0 (20220226.1711)
 -->
<!-- Title: libccc/sys/error.h Pages: 1 -->
<svg width="473pt" height="420pt"
 viewBox="0.00 0.00 473.00 420.00" xmlns="http://www.w3.org/2000/svg" xmlns:xlink="http://www.w3.org/1999/xlink">
<g id="graph0" class="graph" transform="scale(1 1) rotate(0) translate(4 416)">
<title>libccc/sys/error.h</title>
<polygon fill="white" stroke="transparent" points="-4,4 -4,-416 469,-416 469,4 -4,4"/>
<!-- Node1 -->
<g id="node1" class="node">
<title>Node1</title>
<g id="a_node1"><a xlink:title=" ">
<polygon fill="#bfbfbf" stroke="black" points="83.5,-392.5 83.5,-411.5 174.5,-411.5 174.5,-392.5 83.5,-392.5"/>
<text text-anchor="middle" x="129" y="-399.5" font-family="Consolas" font-size="10.00">libccc/sys/error.h</text>
</a>
</g>
</g>
<!-- Node2 -->
<g id="node2" class="node">
<title>Node2</title>
<g id="a_node2"><a xlink:href="$libccc_8h.html" xlink:title=" ">
<polygon fill="white" stroke="black" points="172,-224.5 172,-243.5 222,-243.5 222,-224.5 172,-224.5"/>
<text text-anchor="middle" x="197" y="-231.5" font-family="Consolas" font-size="10.00">libccc.h</text>
</a>
</g>
</g>
<!-- Node1&#45;&gt;Node2 -->
<g id="edge1" class="edge">
<title>Node1&#45;&gt;Node2</title>
<path fill="none" stroke="midnightblue" d="M132.66,-392.08C143.41,-365.83 175.07,-288.55 189.58,-253.12"/>
<polygon fill="midnightblue" stroke="midnightblue" points="192.94,-254.15 193.49,-243.57 186.46,-251.5 192.94,-254.15"/>
</g>
<!-- Node9 -->
<g id="node9" class="node">
<title>Node9</title>
<g id="a_node9"><a xlink:href="$string_8h.html" xlink:title=" ">
<polygon fill="white" stroke="black" points="57.5,-336.5 57.5,-355.5 134.5,-355.5 134.5,-336.5 57.5,-336.5"/>
<text text-anchor="middle" x="96" y="-343.5" font-family="Consolas" font-size="10.00">libccc/string.h</text>
</a>
</g>
</g>
<!-- Node1&#45;&gt;Node9 -->
<g id="edge12" class="edge">
<title>Node1&#45;&gt;Node9</title>
<path fill="none" stroke="midnightblue" d="M123.55,-392.08C118.99,-384.61 112.33,-373.72 106.71,-364.52"/>
<polygon fill="midnightblue" stroke="midnightblue" points="109.55,-362.46 101.35,-355.75 103.58,-366.11 109.55,-362.46"/>
</g>
<!-- Node10 -->
<g id="node10" class="node">
<title>Node10</title>
<g id="a_node10"><a xlink:href="$format_8h.html" xlink:title=" ">
<polygon fill="white" stroke="black" points="15.5,-280.5 15.5,-299.5 96.5,-299.5 96.5,-280.5 15.5,-280.5"/>
<text text-anchor="middle" x="56" y="-287.5" font-family="Consolas" font-size="10.00">libccc/format.h</text>
</a>
</g>
</g>
<!-- Node1&#45;&gt;Node10 -->
<g id="edge18" class="edge">
<title>Node1&#45;&gt;Node10</title>
<path fill="none" stroke="midnightblue" d="M97.98,-392.44C79.97,-385.69 58.77,-374.3 48,-356 39.64,-341.79 43.32,-322.82 48.08,-309.04"/>
<polygon fill="midnightblue" stroke="midnightblue" points="51.36,-310.27 51.75,-299.68 44.84,-307.71 51.36,-310.27"/>
</g>
<!-- Node13 -->
<g id="node13" class="node">
<title>Node13</title>
<g id="a_node13"><a xlink:href="$io_8h.html" xlink:title=" ">
<polygon fill="white" stroke="black" points="283,-336.5 283,-355.5 363,-355.5 363,-336.5 283,-336.5"/>
<text text-anchor="middle" x="323" y="-343.5" font-family="Consolas" font-size="10.00">libccc/sys/io.h</text>
</a>
</g>
</g>
<!-- Node1&#45;&gt;Node13 -->
<g id="edge19" class="edge">
<title>Node1&#45;&gt;Node13</title>
<path fill="none" stroke="midnightblue" d="M159.74,-392.44C192.94,-383.2 245.99,-368.44 282.56,-358.26"/>
<polygon fill="midnightblue" stroke="midnightblue" points="283.71,-361.57 292.4,-355.52 281.83,-354.83 283.71,-361.57"/>
</g>
<!-- Node3 -->
<g id="node3" class="node">
<title>Node3</title>
<g id="a_node3"><a xlink:href="$libccc__define_8h.html" xlink:title=" ">
<polygon fill="white" stroke="black" points="212,-56.5 212,-75.5 294,-75.5 294,-56.5 212,-56.5"/>
<text text-anchor="middle" x="253" y="-63.5" font-family="Consolas" font-size="10.00">libccc_define.h</text>
</a>
</g>
</g>
<!-- Node2&#45;&gt;Node3 -->
<g id="edge2" class="edge">
<title>Node2&#45;&gt;Node3</title>
<path fill="none" stroke="midnightblue" d="M222.01,-231.97C251.3,-229.26 298.65,-219.88 321,-188 332.93,-170.98 318.28,-131.4 306,-112 298.33,-99.89 286.38,-89.33 275.76,-81.49"/>
<polygon fill="midnightblue" stroke="midnightblue" points="277.48,-78.42 267.28,-75.57 273.47,-84.16 277.48,-78.42"/>
</g>
<!-- Node5 -->
<g id="node5" class="node">
<title>Node5</title>
<g id="a_node5"><a xlink:href="$libccc__errors_8h.html" xlink:title=" ">
<polygon fill="white" stroke="black" points="73,-112.5 73,-131.5 153,-131.5 153,-112.5 73,-112.5"/>
<text text-anchor="middle" x="113" y="-119.5" font-family="Consolas" font-size="10.00">libccc_errors.h</text>
</a>
</g>
</g>
<!-- Node2&#45;&gt;Node5 -->
<g id="edge4" class="edge">
<title>Node2&#45;&gt;Node5</title>
<path fill="none" stroke="midnightblue" d="M171.84,-226C153.31,-219.41 129.27,-207.58 117,-188 108.46,-174.38 108.17,-155.84 109.61,-142.04"/>
<polygon fill="midnightblue" stroke="midnightblue" points="113.12,-142.18 111.07,-131.78 106.19,-141.19 113.12,-142.18"/>
</g>
<!-- Node6 -->
<g id="node6" class="node">
<title>Node6</title>
<g id="a_node6"><a xlink:href="$libccc__config_8h.html" xlink:title=" ">
<polygon fill="white" stroke="black" points="126,-168.5 126,-187.5 208,-187.5 208,-168.5 126,-168.5"/>
<text text-anchor="middle" x="167" y="-175.5" font-family="Consolas" font-size="10.00">libccc_config.h</text>
</a>
</g>
</g>
<!-- Node2&#45;&gt;Node6 -->
<g id="edge6" class="edge">
<title>Node2&#45;&gt;Node6</title>
<path fill="none" stroke="midnightblue" d="M192.05,-224.08C187.9,-216.61 181.85,-205.72 176.73,-196.52"/>
<polygon fill="midnightblue" stroke="midnightblue" points="179.78,-194.79 171.86,-187.75 173.66,-198.19 179.78,-194.79"/>
</g>
<!-- Node7 -->
<g id="node7" class="node">
<title>Node7</title>
<g id="a_node7"><a xlink:href="$libccc__naming_8h.html" xlink:title=" ">
<polygon fill="white" stroke="black" points="209.5,-112.5 209.5,-131.5 296.5,-131.5 296.5,-112.5 209.5,-112.5"/>
<text text-anchor="middle" x="253" y="-119.5" font-family="Consolas" font-size="10.00">libccc_naming.h</text>
</a>
</g>
</g>
<!-- Node2&#45;&gt;Node7 -->
<g id="edge9" class="edge">
<title>Node2&#45;&gt;Node7</title>
<path fill="none" stroke="midnightblue" d="M201.39,-224.37C210.55,-206.38 231.85,-164.55 244.03,-140.63"/>
<polygon fill="midnightblue" stroke="midnightblue" points="247.21,-142.09 248.63,-131.59 240.97,-138.92 247.21,-142.09"/>
</g>
<!-- Node8 -->
<g id="node8" class="node">
<title>Node8</title>
<g id="a_node8"><a xlink:title=" ">
<polygon fill="white" stroke="#bfbfbf" points="264.5,-168.5 264.5,-187.5 311.5,-187.5 311.5,-168.5 264.5,-168.5"/>
<text text-anchor="middle" x="288" y="-175.5" font-family="Consolas" font-size="10.00">math.h</text>
</a>
</g>
</g>
<!-- Node2&#45;&gt;Node8 -->
<g id="edge11" class="edge">
<title>Node2&#45;&gt;Node8</title>
<path fill="none" stroke="midnightblue" d="M211.62,-224.32C225.95,-215.82 248.01,-202.73 264.75,-192.8"/>
<polygon fill="midnightblue" stroke="midnightblue" points="266.6,-195.77 273.42,-187.65 263.03,-189.75 266.6,-195.77"/>
</g>
<!-- Node4 -->
<g id="node4" class="node">
<title>Node4</title>
<g id="a_node4"><a xlink:title=" ">
<polygon fill="white" stroke="#bfbfbf" points="223.5,-0.5 223.5,-19.5 282.5,-19.5 282.5,-0.5 223.5,-0.5"/>
<text text-anchor="middle" x="253" y="-7.5" font-family="Consolas" font-size="10.00">stdalign.h</text>
</a>
</g>
</g>
<!-- Node3&#45;&gt;Node4 -->
<g id="edge3" class="edge">
<title>Node3&#45;&gt;Node4</title>
<path fill="none" stroke="midnightblue" d="M253,-56.08C253,-49.01 253,-38.86 253,-29.99"/>
<polygon fill="midnightblue" stroke="midnightblue" points="256.5,-29.75 253,-19.75 249.5,-29.75 256.5,-29.75"/>
</g>
<!-- Node5&#45;&gt;Node3 -->
<g id="edge5" class="edge">
<title>Node5&#45;&gt;Node3</title>
<path fill="none" stroke="midnightblue" d="M135.18,-112.44C158.43,-103.48 195.15,-89.31 221.42,-79.18"/>
<polygon fill="midnightblue" stroke="midnightblue" points="222.85,-82.38 230.92,-75.52 220.33,-75.85 222.85,-82.38"/>
</g>
<!-- Node6&#45;&gt;Node3 -->
<g id="edge7" class="edge">
<title>Node6&#45;&gt;Node3</title>
<path fill="none" stroke="midnightblue" d="M170.27,-168.4C175.5,-155.36 186.61,-130.17 201,-112 210.03,-100.59 222.25,-89.85 232.57,-81.72"/>
<polygon fill="midnightblue" stroke="midnightblue" points="234.84,-84.39 240.69,-75.55 230.61,-78.82 234.84,-84.39"/>
</g>
<!-- Node6&#45;&gt;Node5 -->
<g id="edge8" class="edge">
<title>Node6&#45;&gt;Node5</title>
<path fill="none" stroke="midnightblue" d="M158.08,-168.08C150.22,-160.22 138.57,-148.57 129.08,-139.08"/>
<polygon fill="midnightblue" stroke="midnightblue" points="131.3,-136.35 121.75,-131.75 126.35,-141.3 131.3,-136.35"/>
</g>
<!-- Node7&#45;&gt;Node3 -->
<g id="edge10" class="edge">
<title>Node7&#45;&gt;Node3</title>
<path fill="none" stroke="midnightblue" d="M253,-112.08C253,-105.01 253,-94.86 253,-85.99"/>
<polygon fill="midnightblue" stroke="midnightblue" points="256.5,-85.75 253,-75.75 249.5,-85.75 256.5,-85.75"/>
</g>
<!-- Node9&#45;&gt;Node2 -->
<g id="edge13" class="edge">
<title>Node9&#45;&gt;Node2</title>
<path fill="none" stroke="midnightblue" d="M102.51,-336.28C112.18,-323.51 131.12,-299.16 149,-280 158.64,-269.67 170.18,-258.81 179.53,-250.35"/>
<polygon fill="midnightblue" stroke="midnightblue" points="181.95,-252.87 187.07,-243.6 177.28,-247.66 181.95,-252.87"/>
</g>
<!-- Node9&#45;&gt;Node10 -->
<g id="edge14" class="edge">
<title>Node9&#45;&gt;Node10</title>
<path fill="none" stroke="midnightblue" d="M89.39,-336.08C83.74,-328.46 75.46,-317.26 68.55,-307.94"/>
<polygon fill="midnightblue" stroke="midnightblue" points="71.25,-305.7 62.48,-299.75 65.62,-309.87 71.25,-305.7"/>
</g>
<!-- Node10&#45;&gt;Node2 -->
<g id="edge17" class="edge">
<title>Node10&#45;&gt;Node2</title>
<path fill="none" stroke="midnightblue" d="M78.34,-280.44C101.75,-271.48 138.74,-257.31 165.19,-247.18"/>
<polygon fill="midnightblue" stroke="midnightblue" points="166.68,-250.36 174.76,-243.52 164.17,-243.82 166.68,-250.36"/>
</g>
<!-- Node11 -->
<g id="node11" class="node">
<title>Node11</title>
<g id="a_node11"><a xlink:title=" ">
<polygon fill="white" stroke="#bfbfbf" points="0,-224.5 0,-243.5 52,-243.5 52,-224.5 0,-224.5"/>
<text text-anchor="middle" x="26" y="-231.5" font-family="Consolas" font-size="10.00">stdarg.h</text>
</a>
</g>
</g>
<!-- Node10&#45;&gt;Node11 -->
<g id="edge15" class="edge">
<title>Node10&#45;&gt;Node11</title>
<path fill="none" stroke="midnightblue" d="M51.05,-280.08C46.9,-272.61 40.85,-261.72 35.73,-252.52"/>
<polygon fill="midnightblue" stroke="midnightblue" points="38.78,-250.79 30.86,-243.75 32.66,-254.19 38.78,-250.79"/>
</g>
<!-- Node12 -->
<g id="node12" class="node">
<title>Node12</title>
<g id="a_node12"><a xlink:title=" ">
<polygon fill="white" stroke="#bfbfbf" points="70.5,-224.5 70.5,-243.5 129.5,-243.5 129.5,-224.5 70.5,-224.5"/>
<text text-anchor="middle" x="100" y="-231.5" font-family="Consolas" font-size="10.00">inttypes.h</text>
</a>
</g>
</g>
<!-- Node10&#45;&gt;Node12 -->
<g id="edge16" class="edge">
<title>Node10&#45;&gt;Node12</title>
<path fill="none" stroke="midnightblue" d="M63.27,-280.08C69.54,-272.38 78.79,-261.03 86.43,-251.65"/>
<polygon fill="midnightblue" stroke="midnightblue" points="89.27,-253.71 92.87,-243.75 83.84,-249.29 89.27,-253.71"/>
</g>
<!-- Node13&#45;&gt;Node2 -->
<g id="edge21" class="edge">
<title>Node13&#45;&gt;Node2</title>
<path fill="none" stroke="midnightblue" d="M322.75,-336.3C321.92,-322.66 318.4,-296.14 304,-280 285.42,-259.17 255.62,-247.71 232.19,-241.58"/>
<polygon fill="midnightblue" stroke="midnightblue" points="232.8,-238.12 222.26,-239.19 231.16,-244.93 232.8,-238.12"/>
</g>
<!-- Node14 -->
<g id="node14" class="node">
<title>Node14</title>
<g id="a_node14"><a xlink:title=" ">
<polygon fill="white" stroke="#bfbfbf" points="351,-280.5 351,-299.5 395,-299.5 395,-280.5 351,-280.5"/>
<text text-anchor="middle" x="373" y="-287.5" font-family="Consolas" font-size="10.00">fcntl.h</text>
</a>
</g>
</g>
<!-- Node13&#45;&gt;Node14 -->
<g id="edge20" class="edge">
<title>Node13&#45;&gt;Node14</title>
<path fill="none" stroke="midnightblue" d="M331.26,-336.08C338.46,-328.3 349.11,-316.8 357.85,-307.37"/>
<polygon fill="midnightblue" stroke="midnightblue" points="360.67,-309.47 364.9,-299.75 355.53,-304.71 360.67,-309.47"/>
</g>
<!-- Node15 -->
<g id="node15" class="node">
<title>Node15</title>
<g id="a_node15"><a xlink:href="$ansi_8h.html" xlink:title=" ">
<polygon fill="white" stroke="black" points="375,-112.5 375,-131.5 465,-131.5 465,-112.5 375,-112.5"/>
<text text-anchor="middle" x="420" y="-119.5" font-family="Consolas" font-size="10.00">libccc/sys/ansi.h</text>
</a>
</g>
</g>
<!-- Node13&#45;&gt;Node15 -->
<g id="edge22" class="edge">
<title>Node13&#45;&gt;Node15</title>
<path fill="none" stroke="midnightblue" d="M352.64,-336.39C370.6,-329.55 392.24,-318.07 404,-300 436.21,-250.51 429.2,-176.1 423.61,-141.69"/>
<polygon fill="midnightblue" stroke="midnightblue" points="427.02,-140.88 421.83,-131.64 420.13,-142.1 427.02,-140.88"/>
</g>
<!-- Node16 -->
<g id="node16" class="node">
<title>Node16</title>
<g id="a_node16"><a xlink:href="$image_2color_8h.html" xlink:title=" ">
<polygon fill="white" stroke="black" points="191.5,-280.5 191.5,-299.5 294.5,-299.5 294.5,-280.5 191.5,-280.5"/>
<text text-anchor="middle" x="243" y="-287.5" font-family="Consolas" font-size="10.00">libccc/image/color.h</text>
</a>
</g>
</g>
<!-- Node13&#45;&gt;Node16 -->
<g id="edge24" class="edge">
<title>Node13&#45;&gt;Node16</title>
<path fill="none" stroke="midnightblue" d="M310.15,-336.32C297.78,-327.98 278.87,-315.21 264.26,-305.35"/>
<polygon fill="midnightblue" stroke="midnightblue" points="266.07,-302.35 255.82,-299.65 262.15,-308.15 266.07,-302.35"/>
</g>
<!-- Node15&#45;&gt;Node3 -->
<g id="edge23" class="edge">
<title>Node15&#45;&gt;Node3</title>
<path fill="none" stroke="midnightblue" d="M393.54,-112.44C365.32,-103.32 320.46,-88.81 289.03,-78.65"/>
<polygon fill="midnightblue" stroke="midnightblue" points="289.93,-75.26 279.34,-75.52 287.78,-81.92 289.93,-75.26"/>
</g>
<!-- Node16&#45;&gt;Node2 -->
<g id="edge25" class="edge">
<title>Node16&#45;&gt;Node2</title>
<path fill="none" stroke="midnightblue" d="M235.4,-280.08C228.77,-272.3 218.98,-260.8 210.94,-251.37"/>
<polygon fill="midnightblue" stroke="midnightblue" points="213.6,-249.09 204.45,-243.75 208.27,-253.63 213.6,-249.09"/>
</g>
</g>
</svg>
