<?xml version="1.0" encoding="UTF-8" standalone="no"?>
<!DOCTYPE svg PUBLIC "-//W3C//DTD SVG 1.1//EN"
 "http://www.w3.org/Graphics/SVG/1.1/DTD/svg11.dtd">
<!-- Generated by graphviz version 3.0.0 (20220226.1711)
 -->
<!-- Title: libccc/sys/error.h Pages: 1 -->
<svg width="562pt" height="431pt"
 viewBox="0.00 0.00 561.50 431.00" xmlns="http://www.w3.org/2000/svg" xmlns:xlink="http://www.w3.org/1999/xlink">
<g id="graph0" class="graph" transform="scale(1 1) rotate(0) translate(4 427)">
<title>libccc/sys/error.h</title>
<polygon fill="white" stroke="transparent" points="-4,4 -4,-427 557.5,-427 557.5,4 -4,4"/>
<!-- Node1 -->
<g id="node1" class="node">
<title>Node1</title>
<g id="a_node1"><a xlink:title=" ">
<polygon fill="#bfbfbf" stroke="black" points="272,-403.5 272,-422.5 363,-422.5 363,-403.5 272,-403.5"/>
<text text-anchor="middle" x="317.5" y="-410.5" font-family="Consolas" font-size="10.00">libccc/sys/error.h</text>
</a>
</g>
</g>
<!-- Node2 -->
<g id="node2" class="node">
<title>Node2</title>
<g id="a_node2"><a xlink:href="$libccc_8h.html" xlink:title=" ">
<polygon fill="white" stroke="black" points="267.5,-224.5 267.5,-243.5 317.5,-243.5 317.5,-224.5 267.5,-224.5"/>
<text text-anchor="middle" x="292.5" y="-231.5" font-family="Consolas" font-size="10.00">libccc.h</text>
</a>
</g>
</g>
<!-- Node1&#45;&gt;Node2 -->
<g id="edge1" class="edge">
<title>Node1&#45;&gt;Node2</title>
<path fill="none" stroke="midnightblue" d="M316.29,-403.46C312.48,-376.43 300.58,-292.24 295.2,-254.11"/>
<polygon fill="midnightblue" stroke="midnightblue" points="298.62,-253.28 293.75,-243.87 291.69,-254.26 298.62,-253.28"/>
</g>
<!-- Node9 -->
<g id="node9" class="node">
<title>Node9</title>
<g id="a_node9"><a xlink:href="$string_8h.html" xlink:title=" ">
<polygon fill="white" stroke="black" points="156,-347.5 156,-366.5 233,-366.5 233,-347.5 156,-347.5"/>
<text text-anchor="middle" x="194.5" y="-354.5" font-family="Consolas" font-size="10.00">libccc/string.h</text>
</a>
</g>
</g>
<!-- Node1&#45;&gt;Node9 -->
<g id="edge12" class="edge">
<title>Node1&#45;&gt;Node9</title>
<path fill="none" stroke="midnightblue" d="M298.01,-403.44C277.86,-394.6 246.18,-380.69 223.17,-370.59"/>
<polygon fill="midnightblue" stroke="midnightblue" points="224.46,-367.33 213.9,-366.52 221.65,-373.74 224.46,-367.33"/>
</g>
<!-- Node14 -->
<g id="node14" class="node">
<title>Node14</title>
<g id="a_node14"><a xlink:title=" ">
<polygon fill="white" stroke="#bfbfbf" points="435,-347.5 435,-366.5 536,-366.5 536,-347.5 435,-347.5"/>
<text text-anchor="middle" x="485.5" y="-354.5" font-family="Consolas" font-size="10.00">libccc/text/format.h</text>
</a>
</g>
</g>
<!-- Node1&#45;&gt;Node14 -->
<g id="edge19" class="edge">
<title>Node1&#45;&gt;Node14</title>
<path fill="none" stroke="midnightblue" d="M344.12,-403.44C372.51,-394.32 417.64,-379.81 449.25,-369.65"/>
<polygon fill="midnightblue" stroke="midnightblue" points="450.56,-372.91 459,-366.52 448.41,-366.24 450.56,-372.91"/>
</g>
<!-- Node15 -->
<g id="node15" class="node">
<title>Node15</title>
<g id="a_node15"><a xlink:href="$io_8h.html" xlink:title=" ">
<polygon fill="white" stroke="black" points="336.5,-347.5 336.5,-366.5 416.5,-366.5 416.5,-347.5 336.5,-347.5"/>
<text text-anchor="middle" x="376.5" y="-354.5" font-family="Consolas" font-size="10.00">libccc/sys/io.h</text>
</a>
</g>
</g>
<!-- Node1&#45;&gt;Node15 -->
<g id="edge20" class="edge">
<title>Node1&#45;&gt;Node15</title>
<path fill="none" stroke="midnightblue" d="M326.98,-403.32C335.7,-395.34 348.84,-383.31 359.4,-373.65"/>
<polygon fill="midnightblue" stroke="midnightblue" points="361.83,-376.17 366.85,-366.83 357.11,-371 361.83,-376.17"/>
</g>
<!-- Node3 -->
<g id="node3" class="node">
<title>Node3</title>
<g id="a_node3"><a xlink:href="$libccc__define_8h.html" xlink:title=" ">
<polygon fill="white" stroke="black" points="274.5,-56.5 274.5,-75.5 356.5,-75.5 356.5,-56.5 274.5,-56.5"/>
<text text-anchor="middle" x="315.5" y="-63.5" font-family="Consolas" font-size="10.00">libccc_define.h</text>
</a>
</g>
</g>
<!-- Node2&#45;&gt;Node3 -->
<g id="edge2" class="edge">
<title>Node2&#45;&gt;Node3</title>
<path fill="none" stroke="midnightblue" d="M306.53,-224.27C318.44,-216.19 335.19,-203.17 345.5,-188 360.27,-166.26 360.22,-157.93 364.5,-132 365.95,-123.23 368.08,-120.14 364.5,-112 359.11,-99.73 348.54,-89.34 338.6,-81.65"/>
<polygon fill="midnightblue" stroke="midnightblue" points="340.33,-78.58 330.16,-75.6 336.25,-84.27 340.33,-78.58"/>
</g>
<!-- Node5 -->
<g id="node5" class="node">
<title>Node5</title>
<g id="a_node5"><a xlink:href="$libccc__errors_8h.html" xlink:title=" ">
<polygon fill="white" stroke="black" points="275.5,-112.5 275.5,-131.5 355.5,-131.5 355.5,-112.5 275.5,-112.5"/>
<text text-anchor="middle" x="315.5" y="-119.5" font-family="Consolas" font-size="10.00">libccc_errors.h</text>
</a>
</g>
</g>
<!-- Node2&#45;&gt;Node5 -->
<g id="edge4" class="edge">
<title>Node2&#45;&gt;Node5</title>
<path fill="none" stroke="midnightblue" d="M303.21,-224.3C312.44,-216.07 325.09,-202.79 330.5,-188 336.21,-172.4 330.81,-153.87 324.96,-140.6"/>
<polygon fill="midnightblue" stroke="midnightblue" points="328.1,-139.06 320.57,-131.61 321.81,-142.13 328.1,-139.06"/>
</g>
<!-- Node6 -->
<g id="node6" class="node">
<title>Node6</title>
<g id="a_node6"><a xlink:href="$libccc__config_8h.html" xlink:title=" ">
<polygon fill="white" stroke="black" points="173.5,-168.5 173.5,-187.5 255.5,-187.5 255.5,-168.5 173.5,-168.5"/>
<text text-anchor="middle" x="214.5" y="-175.5" font-family="Consolas" font-size="10.00">libccc_config.h</text>
</a>
</g>
</g>
<!-- Node2&#45;&gt;Node6 -->
<g id="edge6" class="edge">
<title>Node2&#45;&gt;Node6</title>
<path fill="none" stroke="midnightblue" d="M279.97,-224.32C267.91,-215.98 249.47,-203.21 235.23,-193.35"/>
<polygon fill="midnightblue" stroke="midnightblue" points="237.22,-190.47 227,-187.65 233.23,-196.22 237.22,-190.47"/>
</g>
<!-- Node7 -->
<g id="node7" class="node">
<title>Node7</title>
<g id="a_node7"><a xlink:href="$libccc__naming_8h.html" xlink:title=" ">
<polygon fill="white" stroke="black" points="107,-112.5 107,-131.5 194,-131.5 194,-112.5 107,-112.5"/>
<text text-anchor="middle" x="150.5" y="-119.5" font-family="Consolas" font-size="10.00">libccc_naming.h</text>
</a>
</g>
</g>
<!-- Node2&#45;&gt;Node7 -->
<g id="edge9" class="edge">
<title>Node2&#45;&gt;Node7</title>
<path fill="none" stroke="midnightblue" d="M267.32,-231.29C238.17,-227.91 190.82,-217.86 164.5,-188 153.42,-175.43 150.4,-156.21 149.87,-141.93"/>
<polygon fill="midnightblue" stroke="midnightblue" points="153.37,-141.75 149.87,-131.75 146.37,-141.75 153.37,-141.75"/>
</g>
<!-- Node8 -->
<g id="node8" class="node">
<title>Node8</title>
<g id="a_node8"><a xlink:title=" ">
<polygon fill="white" stroke="#bfbfbf" points="274,-168.5 274,-187.5 321,-187.5 321,-168.5 274,-168.5"/>
<text text-anchor="middle" x="297.5" y="-175.5" font-family="Consolas" font-size="10.00">math.h</text>
</a>
</g>
</g>
<!-- Node2&#45;&gt;Node8 -->
<g id="edge11" class="edge">
<title>Node2&#45;&gt;Node8</title>
<path fill="none" stroke="midnightblue" d="M293.33,-224.08C293.98,-217.01 294.92,-206.86 295.74,-197.99"/>
<polygon fill="midnightblue" stroke="midnightblue" points="299.25,-198.03 296.69,-187.75 292.28,-197.39 299.25,-198.03"/>
</g>
<!-- Node4 -->
<g id="node4" class="node">
<title>Node4</title>
<g id="a_node4"><a xlink:title=" ">
<polygon fill="white" stroke="#bfbfbf" points="286,-0.5 286,-19.5 345,-19.5 345,-0.5 286,-0.5"/>
<text text-anchor="middle" x="315.5" y="-7.5" font-family="Consolas" font-size="10.00">stdalign.h</text>
</a>
</g>
</g>
<!-- Node3&#45;&gt;Node4 -->
<g id="edge3" class="edge">
<title>Node3&#45;&gt;Node4</title>
<path fill="none" stroke="midnightblue" d="M315.5,-56.08C315.5,-49.01 315.5,-38.86 315.5,-29.99"/>
<polygon fill="midnightblue" stroke="midnightblue" points="319,-29.75 315.5,-19.75 312,-29.75 319,-29.75"/>
</g>
<!-- Node5&#45;&gt;Node3 -->
<g id="edge5" class="edge">
<title>Node5&#45;&gt;Node3</title>
<path fill="none" stroke="midnightblue" d="M315.5,-112.08C315.5,-105.01 315.5,-94.86 315.5,-85.99"/>
<polygon fill="midnightblue" stroke="midnightblue" points="319,-85.75 315.5,-75.75 312,-85.75 319,-85.75"/>
</g>
<!-- Node6&#45;&gt;Node3 -->
<g id="edge7" class="edge">
<title>Node6&#45;&gt;Node3</title>
<path fill="none" stroke="midnightblue" d="M220.83,-168.24C230.25,-155.42 248.74,-131.01 266.5,-112 276.26,-101.55 288.03,-90.69 297.59,-82.26"/>
<polygon fill="midnightblue" stroke="midnightblue" points="300.07,-84.74 305.32,-75.54 295.47,-79.46 300.07,-84.74"/>
</g>
<!-- Node6&#45;&gt;Node5 -->
<g id="edge8" class="edge">
<title>Node6&#45;&gt;Node5</title>
<path fill="none" stroke="midnightblue" d="M230.73,-168.32C246.85,-159.7 271.8,-146.36 290.46,-136.39"/>
<polygon fill="midnightblue" stroke="midnightblue" points="292.14,-139.46 299.31,-131.65 288.84,-133.28 292.14,-139.46"/>
</g>
<!-- Node7&#45;&gt;Node3 -->
<g id="edge10" class="edge">
<title>Node7&#45;&gt;Node3</title>
<path fill="none" stroke="midnightblue" d="M176.64,-112.44C204.52,-103.32 248.85,-88.81 279.9,-78.65"/>
<polygon fill="midnightblue" stroke="midnightblue" points="281.06,-81.95 289.48,-75.52 278.88,-75.3 281.06,-81.95"/>
</g>
<!-- Node9&#45;&gt;Node2 -->
<g id="edge13" class="edge">
<title>Node9&#45;&gt;Node2</title>
<path fill="none" stroke="midnightblue" d="M201.55,-347.3C217.79,-327.24 258.09,-277.49 279.17,-251.46"/>
<polygon fill="midnightblue" stroke="midnightblue" points="281.94,-253.6 285.52,-243.62 276.5,-249.19 281.94,-253.6"/>
</g>
<!-- Node10 -->
<g id="node10" class="node">
<title>Node10</title>
<g id="a_node10"><a xlink:title=" ">
<polygon fill="white" stroke="#bfbfbf" points="128,-280.5 128,-310.5 217,-310.5 217,-280.5 128,-280.5"/>
<text text-anchor="start" x="136" y="-298.5" font-family="Consolas" font-size="10.00">libccc/text/string</text>
<text text-anchor="middle" x="172.5" y="-287.5" font-family="Consolas" font-size="10.00">_ascii.h</text>
</a>
</g>
</g>
<!-- Node9&#45;&gt;Node10 -->
<g id="edge14" class="edge">
<title>Node9&#45;&gt;Node10</title>
<path fill="none" stroke="midnightblue" d="M191.35,-347.48C188.7,-340.32 184.79,-329.75 181.22,-320.08"/>
<polygon fill="midnightblue" stroke="midnightblue" points="184.44,-318.69 177.68,-310.52 177.87,-321.12 184.44,-318.69"/>
</g>
<!-- Node11 -->
<g id="node11" class="node">
<title>Node11</title>
<g id="a_node11"><a xlink:href="$char_8h.html" xlink:title=" ">
<polygon fill="white" stroke="black" points="39,-286 39,-305 110,-305 110,-286 39,-286"/>
<text text-anchor="middle" x="74.5" y="-293" font-family="Consolas" font-size="10.00">libccc/char.h</text>
</a>
</g>
</g>
<!-- Node9&#45;&gt;Node11 -->
<g id="edge15" class="edge">
<title>Node9&#45;&gt;Node11</title>
<path fill="none" stroke="midnightblue" d="M177.31,-347.48C157.26,-337.53 123.9,-320.99 100.64,-309.46"/>
<polygon fill="midnightblue" stroke="midnightblue" points="102.18,-306.32 91.66,-305.01 99.07,-312.59 102.18,-306.32"/>
</g>
<!-- Node11&#45;&gt;Node2 -->
<g id="edge17" class="edge">
<title>Node11&#45;&gt;Node2</title>
<path fill="none" stroke="midnightblue" d="M99.54,-285.93C105.71,-283.91 112.33,-281.81 118.5,-280 166.32,-265.95 222.21,-251.92 257.48,-243.35"/>
<polygon fill="midnightblue" stroke="midnightblue" points="258.39,-246.72 267.29,-240.97 256.75,-239.92 258.39,-246.72"/>
</g>
<!-- Node12 -->
<g id="node12" class="node">
<title>Node12</title>
<g id="a_node12"><a xlink:title=" ">
<polygon fill="white" stroke="#bfbfbf" points="0,-224.5 0,-243.5 49,-243.5 49,-224.5 0,-224.5"/>
<text text-anchor="middle" x="24.5" y="-231.5" font-family="Consolas" font-size="10.00">stdint.h</text>
</a>
</g>
</g>
<!-- Node11&#45;&gt;Node12 -->
<g id="edge16" class="edge">
<title>Node11&#45;&gt;Node12</title>
<path fill="none" stroke="midnightblue" d="M67.34,-285.98C59.76,-276.96 47.63,-262.52 38.21,-251.31"/>
<polygon fill="midnightblue" stroke="midnightblue" points="40.76,-248.91 31.65,-243.51 35.4,-253.42 40.76,-248.91"/>
</g>
<!-- Node13 -->
<g id="node13" class="node">
<title>Node13</title>
<g id="a_node13"><a xlink:title=" ">
<polygon fill="white" stroke="#bfbfbf" points="67,-224.5 67,-243.5 184,-243.5 184,-224.5 67,-224.5"/>
<text text-anchor="middle" x="125.5" y="-231.5" font-family="Consolas" font-size="10.00">libccc/text/char_ascii.h</text>
</a>
</g>
</g>
<!-- Node11&#45;&gt;Node13 -->
<g id="edge18" class="edge">
<title>Node11&#45;&gt;Node13</title>
<path fill="none" stroke="midnightblue" d="M81.81,-285.98C89.53,-276.96 101.91,-262.52 111.52,-251.31"/>
<polygon fill="midnightblue" stroke="midnightblue" points="114.36,-253.38 118.21,-243.51 109.04,-248.82 114.36,-253.38"/>
</g>
<!-- Node15&#45;&gt;Node2 -->
<g id="edge22" class="edge">
<title>Node15&#45;&gt;Node2</title>
<path fill="none" stroke="midnightblue" d="M369.29,-347.21C362.04,-338.27 350.66,-323.92 341.5,-311 327.51,-291.28 312.62,-267.77 302.97,-252.18"/>
<polygon fill="midnightblue" stroke="midnightblue" points="305.92,-250.29 297.7,-243.6 299.95,-253.95 305.92,-250.29"/>
</g>
<!-- Node16 -->
<g id="node16" class="node">
<title>Node16</title>
<g id="a_node16"><a xlink:title=" ">
<polygon fill="white" stroke="#bfbfbf" points="509.5,-286 509.5,-305 553.5,-305 553.5,-286 509.5,-286"/>
<text text-anchor="middle" x="531.5" y="-293" font-family="Consolas" font-size="10.00">fcntl.h</text>
</a>
</g>
</g>
<!-- Node15&#45;&gt;Node16 -->
<g id="edge21" class="edge">
<title>Node15&#45;&gt;Node16</title>
<path fill="none" stroke="midnightblue" d="M399.81,-347.35C423.85,-338.4 462.37,-323.93 495.5,-311 497.34,-310.28 499.22,-309.54 501.12,-308.79"/>
<polygon fill="midnightblue" stroke="midnightblue" points="502.6,-311.97 510.59,-305.01 500.01,-305.47 502.6,-311.97"/>
</g>
<!-- Node17 -->
<g id="node17" class="node">
<title>Node17</title>
<g id="a_node17"><a xlink:href="$ansi_8h.html" xlink:title=" ">
<polygon fill="white" stroke="black" points="432.5,-112.5 432.5,-131.5 522.5,-131.5 522.5,-112.5 432.5,-112.5"/>
<text text-anchor="middle" x="477.5" y="-119.5" font-family="Consolas" font-size="10.00">libccc/sys/ansi.h</text>
</a>
</g>
</g>
<!-- Node15&#45;&gt;Node17 -->
<g id="edge23" class="edge">
<title>Node15&#45;&gt;Node17</title>
<path fill="none" stroke="midnightblue" d="M409.28,-347.46C428.09,-340.77 450.33,-329.41 462.5,-311 497.37,-258.26 488.17,-178.12 481.54,-141.92"/>
<polygon fill="midnightblue" stroke="midnightblue" points="484.92,-140.93 479.54,-131.8 478.05,-142.29 484.92,-140.93"/>
</g>
<!-- Node18 -->
<g id="node18" class="node">
<title>Node18</title>
<g id="a_node18"><a xlink:href="$image_2color_8h.html" xlink:title=" ">
<polygon fill="white" stroke="black" points="350,-286 350,-305 453,-305 453,-286 350,-286"/>
<text text-anchor="middle" x="401.5" y="-293" font-family="Consolas" font-size="10.00">libccc/image/color.h</text>
</a>
</g>
</g>
<!-- Node15&#45;&gt;Node18 -->
<g id="edge25" class="edge">
<title>Node15&#45;&gt;Node18</title>
<path fill="none" stroke="midnightblue" d="M380.08,-347.48C383.68,-338.9 389.35,-325.43 393.94,-314.48"/>
<polygon fill="midnightblue" stroke="midnightblue" points="397.28,-315.58 397.92,-305.01 390.82,-312.87 397.28,-315.58"/>
</g>
<!-- Node17&#45;&gt;Node3 -->
<g id="edge24" class="edge">
<title>Node17&#45;&gt;Node3</title>
<path fill="none" stroke="midnightblue" d="M451.83,-112.44C424.58,-103.36 381.32,-88.94 350.85,-78.78"/>
<polygon fill="midnightblue" stroke="midnightblue" points="351.64,-75.36 341.05,-75.52 349.43,-82 351.64,-75.36"/>
</g>
<!-- Node18&#45;&gt;Node2 -->
<g id="edge26" class="edge">
<title>Node18&#45;&gt;Node2</title>
<path fill="none" stroke="midnightblue" d="M385.88,-285.98C367.91,-276.17 338.18,-259.93 317.09,-248.42"/>
<polygon fill="midnightblue" stroke="midnightblue" points="318.54,-245.23 308.09,-243.51 315.19,-251.37 318.54,-245.23"/>
</g>
</g>
</svg>
