<?xml version="1.0" encoding="UTF-8" standalone="no"?>
<!DOCTYPE svg PUBLIC "-//W3C//DTD SVG 1.1//EN"
 "http://www.w3.org/Graphics/SVG/1.1/DTD/svg11.dtd">
<!-- Generated by graphviz version 2.43.0 (0)
 -->
<!-- Title: libccc/text/format.h Pages: 1 -->
<svg width="363pt" height="308pt"
 viewBox="0.00 0.00 363.00 308.00" xmlns="http://www.w3.org/2000/svg" xmlns:xlink="http://www.w3.org/1999/xlink">
<g id="graph0" class="graph" transform="scale(1 1) rotate(0) translate(4 304)">
<title>libccc/text/format.h</title>
<polygon fill="white" stroke="transparent" points="-4,4 -4,-304 359,-304 359,4 -4,4"/>
<!-- Node1 -->
<g id="node1" class="node">
<title>Node1</title>
<g id="a_node1"><a xlink:title=" ">
<polygon fill="#bfbfbf" stroke="black" points="50.5,-280.5 50.5,-299.5 172.5,-299.5 172.5,-280.5 50.5,-280.5"/>
<text text-anchor="middle" x="111.5" y="-287.5" font-family="Consolas" font-size="10.00">libccc/text/format.h</text>
</a>
</g>
</g>
<!-- Node2 -->
<g id="node2" class="node">
<title>Node2</title>
<g id="a_node2"><a xlink:title=" ">
<polygon fill="white" stroke="#bfbfbf" points="0,-224.5 0,-243.5 59,-243.5 59,-224.5 0,-224.5"/>
<text text-anchor="middle" x="29.5" y="-231.5" font-family="Consolas" font-size="10.00">stdarg.h</text>
</a>
</g>
</g>
<!-- Node1&#45;&gt;Node2 -->
<g id="edge1" class="edge">
<title>Node1&#45;&gt;Node2</title>
<path fill="none" stroke="midnightblue" d="M98.33,-280.32C85.65,-271.98 66.27,-259.21 51.29,-249.35"/>
<polygon fill="midnightblue" stroke="midnightblue" points="52.92,-246.23 42.64,-243.65 49.07,-252.08 52.92,-246.23"/>
</g>
<!-- Node3 -->
<g id="node3" class="node">
<title>Node3</title>
<g id="a_node3"><a xlink:title=" ">
<polygon fill="white" stroke="#bfbfbf" points="77,-224.5 77,-243.5 146,-243.5 146,-224.5 77,-224.5"/>
<text text-anchor="middle" x="111.5" y="-231.5" font-family="Consolas" font-size="10.00">inttypes.h</text>
</a>
</g>
</g>
<!-- Node1&#45;&gt;Node3 -->
<g id="edge2" class="edge">
<title>Node1&#45;&gt;Node3</title>
<path fill="none" stroke="midnightblue" d="M111.5,-280.08C111.5,-273.01 111.5,-262.86 111.5,-253.99"/>
<polygon fill="midnightblue" stroke="midnightblue" points="115,-253.75 111.5,-243.75 108,-253.75 115,-253.75"/>
</g>
<!-- Node4 -->
<g id="node4" class="node">
<title>Node4</title>
<g id="a_node4"><a xlink:href="libccc_8h.html" target="_top" xlink:title=" ">
<polygon fill="white" stroke="black" points="164,-224.5 164,-243.5 223,-243.5 223,-224.5 164,-224.5"/>
<text text-anchor="middle" x="193.5" y="-231.5" font-family="Consolas" font-size="10.00">libccc.h</text>
</a>
</g>
</g>
<!-- Node1&#45;&gt;Node4 -->
<g id="edge3" class="edge">
<title>Node1&#45;&gt;Node4</title>
<path fill="none" stroke="midnightblue" d="M124.67,-280.32C137.35,-271.98 156.73,-259.21 171.71,-249.35"/>
<polygon fill="midnightblue" stroke="midnightblue" points="173.93,-252.08 180.36,-243.65 170.08,-246.23 173.93,-252.08"/>
</g>
<!-- Node5 -->
<g id="node5" class="node">
<title>Node5</title>
<g id="a_node5"><a xlink:href="libccc__define_8h.html" target="_top" xlink:title=" ">
<polygon fill="white" stroke="black" points="146,-56.5 146,-75.5 241,-75.5 241,-56.5 146,-56.5"/>
<text text-anchor="middle" x="193.5" y="-63.5" font-family="Consolas" font-size="10.00">libccc_define.h</text>
</a>
</g>
</g>
<!-- Node4&#45;&gt;Node5 -->
<g id="edge4" class="edge">
<title>Node4&#45;&gt;Node5</title>
<path fill="none" stroke="midnightblue" d="M177.5,-224.5C143.62,-205.36 70.01,-157.02 98.5,-112 108.55,-96.13 125.87,-85.74 143,-79"/>
<polygon fill="midnightblue" stroke="midnightblue" points="144.21,-82.28 152.45,-75.62 141.85,-75.69 144.21,-82.28"/>
</g>
<!-- Node7 -->
<g id="node7" class="node">
<title>Node7</title>
<g id="a_node7"><a xlink:href="libccc__errors_8h.html" target="_top" xlink:title=" ">
<polygon fill="white" stroke="black" points="108,-112.5 108,-131.5 203,-131.5 203,-112.5 108,-112.5"/>
<text text-anchor="middle" x="155.5" y="-119.5" font-family="Consolas" font-size="10.00">libccc_errors.h</text>
</a>
</g>
</g>
<!-- Node4&#45;&gt;Node7 -->
<g id="edge6" class="edge">
<title>Node4&#45;&gt;Node7</title>
<path fill="none" stroke="midnightblue" d="M189.84,-224.45C186.04,-215.46 180.04,-200.85 175.5,-188 170.03,-172.52 164.6,-154.68 160.78,-141.61"/>
<polygon fill="midnightblue" stroke="midnightblue" points="164.12,-140.55 157.99,-131.91 157.4,-142.48 164.12,-140.55"/>
</g>
<!-- Node8 -->
<g id="node8" class="node">
<title>Node8</title>
<g id="a_node8"><a xlink:href="libccc__config_8h.html" target="_top" xlink:title=" ">
<polygon fill="white" stroke="black" points="184,-168.5 184,-187.5 279,-187.5 279,-168.5 184,-168.5"/>
<text text-anchor="middle" x="231.5" y="-175.5" font-family="Consolas" font-size="10.00">libccc_config.h</text>
</a>
</g>
</g>
<!-- Node4&#45;&gt;Node8 -->
<g id="edge8" class="edge">
<title>Node4&#45;&gt;Node8</title>
<path fill="none" stroke="midnightblue" d="M199.77,-224.08C205.14,-216.46 213.02,-205.26 219.58,-195.94"/>
<polygon fill="midnightblue" stroke="midnightblue" points="222.45,-197.94 225.34,-187.75 216.72,-193.91 222.45,-197.94"/>
</g>
<!-- Node9 -->
<g id="node9" class="node">
<title>Node9</title>
<g id="a_node9"><a xlink:href="libccc__naming_8h.html" target="_top" xlink:title=" ">
<polygon fill="white" stroke="black" points="260,-112.5 260,-131.5 355,-131.5 355,-112.5 260,-112.5"/>
<text text-anchor="middle" x="307.5" y="-119.5" font-family="Consolas" font-size="10.00">libccc_naming.h</text>
</a>
</g>
</g>
<!-- Node4&#45;&gt;Node9 -->
<g id="edge11" class="edge">
<title>Node4&#45;&gt;Node9</title>
<path fill="none" stroke="midnightblue" d="M223.23,-225.9C244.29,-219.4 271.68,-207.71 288.5,-188 299.58,-175.02 304.2,-155.85 306.13,-141.69"/>
<polygon fill="midnightblue" stroke="midnightblue" points="309.62,-141.93 307.17,-131.63 302.66,-141.22 309.62,-141.93"/>
</g>
<!-- Node6 -->
<g id="node6" class="node">
<title>Node6</title>
<g id="a_node6"><a xlink:title=" ">
<polygon fill="white" stroke="#bfbfbf" points="159,-0.5 159,-19.5 228,-19.5 228,-0.5 159,-0.5"/>
<text text-anchor="middle" x="193.5" y="-7.5" font-family="Consolas" font-size="10.00">stdalign.h</text>
</a>
</g>
</g>
<!-- Node5&#45;&gt;Node6 -->
<g id="edge5" class="edge">
<title>Node5&#45;&gt;Node6</title>
<path fill="none" stroke="midnightblue" d="M193.5,-56.08C193.5,-49.01 193.5,-38.86 193.5,-29.99"/>
<polygon fill="midnightblue" stroke="midnightblue" points="197,-29.75 193.5,-19.75 190,-29.75 197,-29.75"/>
</g>
<!-- Node7&#45;&gt;Node5 -->
<g id="edge7" class="edge">
<title>Node7&#45;&gt;Node5</title>
<path fill="none" stroke="midnightblue" d="M161.77,-112.08C167.14,-104.46 175.02,-93.26 181.58,-83.94"/>
<polygon fill="midnightblue" stroke="midnightblue" points="184.45,-85.94 187.34,-75.75 178.72,-81.91 184.45,-85.94"/>
</g>
<!-- Node8&#45;&gt;Node5 -->
<g id="edge9" class="edge">
<title>Node8&#45;&gt;Node5</title>
<path fill="none" stroke="midnightblue" d="M229.35,-168.49C226.11,-155.97 219.6,-131.94 212.5,-112 209.26,-102.9 205.14,-92.99 201.57,-84.79"/>
<polygon fill="midnightblue" stroke="midnightblue" points="204.7,-83.22 197.44,-75.51 198.31,-86.07 204.7,-83.22"/>
</g>
<!-- Node8&#45;&gt;Node7 -->
<g id="edge10" class="edge">
<title>Node8&#45;&gt;Node7</title>
<path fill="none" stroke="midnightblue" d="M219.29,-168.32C207.72,-160.11 190.12,-147.6 176.34,-137.81"/>
<polygon fill="midnightblue" stroke="midnightblue" points="178.11,-134.77 167.93,-131.83 174.06,-140.48 178.11,-134.77"/>
</g>
<!-- Node9&#45;&gt;Node5 -->
<g id="edge12" class="edge">
<title>Node9&#45;&gt;Node5</title>
<path fill="none" stroke="midnightblue" d="M289.44,-112.44C270.93,-103.68 241.92,-89.94 220.64,-79.86"/>
<polygon fill="midnightblue" stroke="midnightblue" points="222.01,-76.63 211.48,-75.52 219.02,-82.96 222.01,-76.63"/>
</g>
</g>
</svg>
