<?xml version="1.0" encoding="UTF-8" standalone="no"?>
<!DOCTYPE svg PUBLIC "-//W3C//DTD SVG 1.1//EN"
 "http://www.w3.org/Graphics/SVG/1.1/DTD/svg11.dtd">
<!-- Generated by graphviz version 2.43.0 (0)
 -->
<!-- Title: libccc/encode/toml.h Pages: 1 -->
<!--zoomable 420 -->
<svg id="main" version="1.1" xmlns="http://www.w3.org/2000/svg" xmlns:xlink="http://www.w3.org/1999/xlink" xml:space="preserve" onload="init(evt)">
<style type="text/css"><![CDATA[
.edge:hover path { stroke: red; }
.edge:hover polygon { stroke: red; fill: red; }
]]></style>
<script type="text/javascript"><![CDATA[
var edges = document.getElementsByTagName('g');
if (edges && edges.length) {
  for (var i=0;i<edges.length;i++) {
    if (edges[i].id.substr(0,4)=='edge') {
      edges[i].setAttribute('class','edge');
    }
  }
}
]]></script>
        <defs>
                <circle id="rim" cx="0" cy="0" r="7"/>
                <circle id="rim2" cx="0" cy="0" r="3.5"/>
                <g id="zoomPlus">
                        <use xlink:href="#rim" fill="#404040">
                                <set attributeName="fill" to="#808080" begin="zoomplus.mouseover" end="zoomplus.mouseout"/>
                        </use>
                        <path d="M-4,0h8M0,-4v8" fill="none" stroke="white" stroke-width="1.5" pointer-events="none"/>
                </g>
                <g id="zoomMin">
                        <use xlink:href="#rim" fill="#404040">
                                <set attributeName="fill" to="#808080" begin="zoomminus.mouseover" end="zoomminus.mouseout"/>
                        </use>
                        <path d="M-4,0h8" fill="none" stroke="white" stroke-width="1.5" pointer-events="none"/>
                </g>
                <g id="dirArrow">
                        <path fill="none" stroke="white" stroke-width="1.5" d="M0,-3.0v7 M-2.5,-0.5L0,-3.0L2.5,-0.5"/>
                </g>
               <g id="resetDef">
                       <use xlink:href="#rim2" fill="#404040">
                               <set attributeName="fill" to="#808080" begin="reset.mouseover" end="reset.mouseout"/>
                       </use>
               </g>
        </defs>

<script type="text/javascript">
var viewWidth = 1306;
var viewHeight = 420;
var sectionId = 'dynsection-0';
</script>
<script xlink:href="svgpan.js"/>
<svg id="graph" class="graph">
<g id="viewport">
<title>libccc/encode/toml.h</title>
<polygon fill="white" stroke="transparent" points="-4,4 -4,-416 1301.51,-416 1301.51,4 -4,4"/>
<!-- Node1 -->
<g id="node1" class="node">
<title>Node1</title>
<g id="a_node1"><a xlink:title=" ">
<polygon fill="#bfbfbf" stroke="black" points="305.5,-392.5 305.5,-411.5 427.5,-411.5 427.5,-392.5 305.5,-392.5"/>
<text text-anchor="middle" x="366.5" y="-399.5" font-family="Consolas" font-size="10.00">libccc/encode/toml.h</text>
</a>
</g>
</g>
<!-- Node2 -->
<g id="node2" class="node">
<title>Node2</title>
<g id="a_node2"><a xlink:href="common_8h.html" target="_top" xlink:title=" ">
<polygon fill="white" stroke="black" points="300.5,-336.5 300.5,-355.5 432.5,-355.5 432.5,-336.5 300.5,-336.5"/>
<text text-anchor="middle" x="366.5" y="-343.5" font-family="Consolas" font-size="10.00">libccc/encode/common.h</text>
</a>
</g>
</g>
<!-- Node1&#45;&gt;Node2 -->
<g id="edge1" class="edge">
<title>Node1&#45;&gt;Node2</title>
<path fill="none" stroke="midnightblue" d="M366.5,-392.08C366.5,-385.01 366.5,-374.86 366.5,-365.99"/>
<polygon fill="midnightblue" stroke="midnightblue" points="370,-365.75 366.5,-355.75 363,-365.75 370,-365.75"/>
</g>
<!-- Node3 -->
<g id="node3" class="node">
<title>Node3</title>
<g id="a_node3"><a xlink:href="char_8h.html" target="_top" xlink:title=" ">
<polygon fill="white" stroke="black" points="214,-280.5 214,-299.5 299,-299.5 299,-280.5 214,-280.5"/>
<text text-anchor="middle" x="256.5" y="-287.5" font-family="Consolas" font-size="10.00">libccc/char.h</text>
</a>
</g>
</g>
<!-- Node2&#45;&gt;Node3 -->
<g id="edge2" class="edge">
<title>Node2&#45;&gt;Node3</title>
<path fill="none" stroke="midnightblue" d="M348.83,-336.32C331.11,-327.62 303.6,-314.12 283.21,-304.11"/>
<polygon fill="midnightblue" stroke="midnightblue" points="284.65,-300.92 274.13,-299.65 281.56,-307.2 284.65,-300.92"/>
</g>
<!-- Node13 -->
<g id="node13" class="node">
<title>Node13</title>
<g id="a_node13"><a xlink:href="float_8h.html" target="_top" xlink:title=" ">
<polygon fill="white" stroke="black" points="939.5,-56.5 939.5,-75.5 1029.5,-75.5 1029.5,-56.5 939.5,-56.5"/>
<text text-anchor="middle" x="984.5" y="-63.5" font-family="Consolas" font-size="10.00">libccc/float.h</text>
</a>
</g>
</g>
<!-- Node2&#45;&gt;Node13 -->
<g id="edge33" class="edge">
<title>Node2&#45;&gt;Node13</title>
<path fill="none" stroke="midnightblue" d="M432.62,-341.3C594.19,-330.66 1001.24,-293.67 1074.5,-188 1101.89,-148.5 1043.7,-103.42 1008.6,-81.08"/>
<polygon fill="midnightblue" stroke="midnightblue" points="1010.17,-77.94 999.82,-75.66 1006.49,-83.89 1010.17,-77.94"/>
</g>
<!-- Node15 -->
<g id="node15" class="node">
<title>Node15</title>
<g id="a_node15"><a xlink:href="int_8h.html" target="_top" xlink:title=" ">
<polygon fill="white" stroke="black" points="393.5,-56.5 393.5,-75.5 473.5,-75.5 473.5,-56.5 393.5,-56.5"/>
<text text-anchor="middle" x="433.5" y="-63.5" font-family="Consolas" font-size="10.00">libccc/int.h</text>
</a>
</g>
</g>
<!-- Node2&#45;&gt;Node15 -->
<g id="edge32" class="edge">
<title>Node2&#45;&gt;Node15</title>
<path fill="none" stroke="midnightblue" d="M361.08,-336.25C350.36,-318.1 327.5,-274.71 327.5,-235 327.5,-235 327.5,-235 327.5,-177 327.5,-131.81 374.45,-98.05 405.86,-80.52"/>
<polygon fill="midnightblue" stroke="midnightblue" points="407.87,-83.41 415.04,-75.61 404.57,-77.24 407.87,-83.41"/>
</g>
<!-- Node20 -->
<g id="node20" class="node">
<title>Node20</title>
<g id="a_node20"><a xlink:title=" ">
<polygon fill="white" stroke="#bfbfbf" points="0,-224.5 0,-243.5 127,-243.5 127,-224.5 0,-224.5"/>
<text text-anchor="middle" x="63.5" y="-231.5" font-family="Consolas" font-size="10.00">libccc/text/unicode.h</text>
</a>
</g>
</g>
<!-- Node2&#45;&gt;Node20 -->
<g id="edge38" class="edge">
<title>Node2&#45;&gt;Node20</title>
<path fill="none" stroke="midnightblue" d="M329.29,-336.47C296.11,-328.45 246.43,-315.37 204.5,-300 163.07,-284.81 116.97,-262.47 89.11,-248.33"/>
<polygon fill="midnightblue" stroke="midnightblue" points="90.56,-245.14 80.06,-243.7 87.37,-251.37 90.56,-245.14"/>
</g>
<!-- Node21 -->
<g id="node21" class="node">
<title>Node21</title>
<g id="a_node21"><a xlink:href="bool_8h.html" target="_top" xlink:title=" ">
<polygon fill="white" stroke="black" points="681,-280.5 681,-299.5 766,-299.5 766,-280.5 681,-280.5"/>
<text text-anchor="middle" x="723.5" y="-287.5" font-family="Consolas" font-size="10.00">libccc/bool.h</text>
</a>
</g>
</g>
<!-- Node2&#45;&gt;Node21 -->
<g id="edge29" class="edge">
<title>Node2&#45;&gt;Node21</title>
<path fill="none" stroke="midnightblue" d="M423.07,-336.44C491.09,-326.15 604.37,-309.02 670.68,-298.99"/>
<polygon fill="midnightblue" stroke="midnightblue" points="671.54,-302.4 680.91,-297.44 670.5,-295.48 671.54,-302.4"/>
</g>
<!-- Node23 -->
<g id="node23" class="node">
<title>Node23</title>
<g id="a_node23"><a xlink:href="pointer_8h.html" target="_top" xlink:title=" ">
<polygon fill="white" stroke="black" points="364,-280.5 364,-299.5 465,-299.5 465,-280.5 364,-280.5"/>
<text text-anchor="middle" x="414.5" y="-287.5" font-family="Consolas" font-size="10.00">libccc/pointer.h</text>
</a>
</g>
</g>
<!-- Node2&#45;&gt;Node23 -->
<g id="edge34" class="edge">
<title>Node2&#45;&gt;Node23</title>
<path fill="none" stroke="midnightblue" d="M374.43,-336.08C381.35,-328.3 391.57,-316.8 399.95,-307.37"/>
<polygon fill="midnightblue" stroke="midnightblue" points="402.69,-309.55 406.72,-299.75 397.46,-304.9 402.69,-309.55"/>
</g>
<!-- Node4 -->
<g id="node4" class="node">
<title>Node4</title>
<g id="a_node4"><a xlink:title=" ">
<polygon fill="white" stroke="#bfbfbf" points="336,-0.5 336,-19.5 395,-19.5 395,-0.5 336,-0.5"/>
<text text-anchor="middle" x="365.5" y="-7.5" font-family="Consolas" font-size="10.00">stdint.h</text>
</a>
</g>
</g>
<!-- Node3&#45;&gt;Node4 -->
<g id="edge3" class="edge">
<title>Node3&#45;&gt;Node4</title>
<path fill="none" stroke="midnightblue" d="M260.95,-280.42C269.96,-262.24 289.5,-218.28 289.5,-179 289.5,-179 289.5,-179 289.5,-121 289.5,-81.28 323.46,-45.5 345.98,-26.15"/>
<polygon fill="midnightblue" stroke="midnightblue" points="348.48,-28.63 353.96,-19.57 344.02,-23.24 348.48,-28.63"/>
</g>
<!-- Node5 -->
<g id="node5" class="node">
<title>Node5</title>
<g id="a_node5"><a xlink:href="libccc_8h.html" target="_top" xlink:title=" ">
<polygon fill="white" stroke="black" points="694,-224.5 694,-243.5 753,-243.5 753,-224.5 694,-224.5"/>
<text text-anchor="middle" x="723.5" y="-231.5" font-family="Consolas" font-size="10.00">libccc.h</text>
</a>
</g>
</g>
<!-- Node3&#45;&gt;Node5 -->
<g id="edge4" class="edge">
<title>Node3&#45;&gt;Node5</title>
<path fill="none" stroke="midnightblue" d="M299.18,-284.06C389.08,-273.67 596.81,-249.65 683.92,-239.58"/>
<polygon fill="midnightblue" stroke="midnightblue" points="684.4,-243.04 693.93,-238.42 683.6,-236.09 684.4,-243.04"/>
</g>
<!-- Node19 -->
<g id="node19" class="node">
<title>Node19</title>
<g id="a_node19"><a xlink:title=" ">
<polygon fill="white" stroke="#bfbfbf" points="145.5,-224.5 145.5,-243.5 261.5,-243.5 261.5,-224.5 145.5,-224.5"/>
<text text-anchor="middle" x="203.5" y="-231.5" font-family="Consolas" font-size="10.00">libccc/text/ascii.h</text>
</a>
</g>
</g>
<!-- Node3&#45;&gt;Node19 -->
<g id="edge27" class="edge">
<title>Node3&#45;&gt;Node19</title>
<path fill="none" stroke="midnightblue" d="M247.75,-280.08C240.03,-272.22 228.6,-260.57 219.28,-251.08"/>
<polygon fill="midnightblue" stroke="midnightblue" points="221.59,-248.44 212.09,-243.75 216.6,-253.34 221.59,-248.44"/>
</g>
<!-- Node3&#45;&gt;Node20 -->
<g id="edge28" class="edge">
<title>Node3&#45;&gt;Node20</title>
<path fill="none" stroke="midnightblue" d="M225.92,-280.44C192.89,-271.2 140.11,-256.44 103.73,-246.26"/>
<polygon fill="midnightblue" stroke="midnightblue" points="104.51,-242.84 93.94,-243.52 102.63,-249.58 104.51,-242.84"/>
</g>
<!-- Node6 -->
<g id="node6" class="node">
<title>Node6</title>
<g id="a_node6"><a xlink:href="libccc__define_8h.html" target="_top" xlink:title=" ">
<polygon fill="white" stroke="black" points="1122,-56.5 1122,-75.5 1217,-75.5 1217,-56.5 1122,-56.5"/>
<text text-anchor="middle" x="1169.5" y="-63.5" font-family="Consolas" font-size="10.00">libccc_define.h</text>
</a>
</g>
</g>
<!-- Node5&#45;&gt;Node6 -->
<g id="edge5" class="edge">
<title>Node5&#45;&gt;Node6</title>
<path fill="none" stroke="midnightblue" d="M753.24,-225.78C756.36,-225.13 759.49,-224.52 762.5,-224 900.05,-200.27 952.68,-256.15 1074.5,-188 1117.28,-164.07 1147.55,-112.25 1161.26,-84.84"/>
<polygon fill="midnightblue" stroke="midnightblue" points="1164.51,-86.16 1165.69,-75.64 1158.2,-83.13 1164.51,-86.16"/>
</g>
<!-- Node8 -->
<g id="node8" class="node">
<title>Node8</title>
<g id="a_node8"><a xlink:href="libccc__errors_8h.html" target="_top" xlink:title=" ">
<polygon fill="white" stroke="black" points="1189,-112.5 1189,-131.5 1284,-131.5 1284,-112.5 1189,-112.5"/>
<text text-anchor="middle" x="1236.5" y="-119.5" font-family="Consolas" font-size="10.00">libccc_errors.h</text>
</a>
</g>
</g>
<!-- Node5&#45;&gt;Node8 -->
<g id="edge7" class="edge">
<title>Node5&#45;&gt;Node8</title>
<path fill="none" stroke="midnightblue" d="M753.24,-225.74C756.35,-225.1 759.48,-224.5 762.5,-224 914.56,-198.62 959.57,-231.4 1107.5,-188 1147.62,-176.23 1190.19,-152.23 1215.01,-136.91"/>
<polygon fill="midnightblue" stroke="midnightblue" points="1217,-139.79 1223.61,-131.51 1213.28,-133.87 1217,-139.79"/>
</g>
<!-- Node9 -->
<g id="node9" class="node">
<title>Node9</title>
<g id="a_node9"><a xlink:href="libccc__config_8h.html" target="_top" xlink:title=" ">
<polygon fill="white" stroke="black" points="1198,-168.5 1198,-187.5 1293,-187.5 1293,-168.5 1198,-168.5"/>
<text text-anchor="middle" x="1245.5" y="-175.5" font-family="Consolas" font-size="10.00">libccc_config.h</text>
</a>
</g>
</g>
<!-- Node5&#45;&gt;Node9 -->
<g id="edge9" class="edge">
<title>Node5&#45;&gt;Node9</title>
<path fill="none" stroke="midnightblue" d="M753.23,-225.71C756.35,-225.07 759.48,-224.49 762.5,-224 772.89,-222.33 1061.5,-195.83 1187.54,-184.3"/>
<polygon fill="midnightblue" stroke="midnightblue" points="1188.14,-187.76 1197.78,-183.36 1187.5,-180.79 1188.14,-187.76"/>
</g>
<!-- Node10 -->
<g id="node10" class="node">
<title>Node10</title>
<g id="a_node10"><a xlink:href="libccc__naming_8h.html" target="_top" xlink:title=" ">
<polygon fill="white" stroke="black" points="970,-168.5 970,-187.5 1065,-187.5 1065,-168.5 970,-168.5"/>
<text text-anchor="middle" x="1017.5" y="-175.5" font-family="Consolas" font-size="10.00">libccc_naming.h</text>
</a>
</g>
</g>
<!-- Node5&#45;&gt;Node10 -->
<g id="edge12" class="edge">
<title>Node5&#45;&gt;Node10</title>
<path fill="none" stroke="midnightblue" d="M753.28,-225.96C756.39,-225.28 759.5,-224.61 762.5,-224 830.02,-210.26 908.11,-196.84 959.9,-188.28"/>
<polygon fill="midnightblue" stroke="midnightblue" points="960.59,-191.72 969.89,-186.64 959.46,-184.81 960.59,-191.72"/>
</g>
<!-- Node11 -->
<g id="node11" class="node">
<title>Node11</title>
<g id="a_node11"><a xlink:href="math_8h.html" target="_top" xlink:title=" ">
<polygon fill="white" stroke="black" points="699.5,-168.5 699.5,-187.5 747.5,-187.5 747.5,-168.5 699.5,-168.5"/>
<text text-anchor="middle" x="723.5" y="-175.5" font-family="Consolas" font-size="10.00">math.h</text>
</a>
</g>
</g>
<!-- Node5&#45;&gt;Node11 -->
<g id="edge14" class="edge">
<title>Node5&#45;&gt;Node11</title>
<path fill="none" stroke="midnightblue" d="M723.5,-224.08C723.5,-217.01 723.5,-206.86 723.5,-197.99"/>
<polygon fill="midnightblue" stroke="midnightblue" points="727,-197.75 723.5,-187.75 720,-197.75 727,-197.75"/>
</g>
<!-- Node7 -->
<g id="node7" class="node">
<title>Node7</title>
<g id="a_node7"><a xlink:title=" ">
<polygon fill="white" stroke="#bfbfbf" points="1135,-0.5 1135,-19.5 1204,-19.5 1204,-0.5 1135,-0.5"/>
<text text-anchor="middle" x="1169.5" y="-7.5" font-family="Consolas" font-size="10.00">stdalign.h</text>
</a>
</g>
</g>
<!-- Node6&#45;&gt;Node7 -->
<g id="edge6" class="edge">
<title>Node6&#45;&gt;Node7</title>
<path fill="none" stroke="midnightblue" d="M1169.5,-56.08C1169.5,-49.01 1169.5,-38.86 1169.5,-29.99"/>
<polygon fill="midnightblue" stroke="midnightblue" points="1173,-29.75 1169.5,-19.75 1166,-29.75 1173,-29.75"/>
</g>
<!-- Node8&#45;&gt;Node6 -->
<g id="edge8" class="edge">
<title>Node8&#45;&gt;Node6</title>
<path fill="none" stroke="midnightblue" d="M1225.74,-112.32C1215.73,-104.26 1200.61,-92.08 1188.57,-82.37"/>
<polygon fill="midnightblue" stroke="midnightblue" points="1190.44,-79.38 1180.46,-75.83 1186.05,-84.83 1190.44,-79.38"/>
</g>
<!-- Node9&#45;&gt;Node6 -->
<g id="edge10" class="edge">
<title>Node9&#45;&gt;Node6</title>
<path fill="none" stroke="midnightblue" d="M1259.83,-168.48C1278.7,-156.15 1307.91,-132.56 1293.5,-112 1278.37,-90.41 1251.76,-79.14 1227.07,-73.27"/>
<polygon fill="midnightblue" stroke="midnightblue" points="1227.51,-69.78 1217,-71.14 1226.06,-76.63 1227.51,-69.78"/>
</g>
<!-- Node9&#45;&gt;Node8 -->
<g id="edge11" class="edge">
<title>Node9&#45;&gt;Node8</title>
<path fill="none" stroke="midnightblue" d="M1244.01,-168.08C1242.82,-160.93 1241.11,-150.64 1239.62,-141.69"/>
<polygon fill="midnightblue" stroke="midnightblue" points="1243.05,-141.04 1237.96,-131.75 1236.15,-142.19 1243.05,-141.04"/>
</g>
<!-- Node10&#45;&gt;Node6 -->
<g id="edge13" class="edge">
<title>Node10&#45;&gt;Node6</title>
<path fill="none" stroke="midnightblue" d="M1025.83,-168.33C1038.72,-155.2 1064.62,-129.89 1089.5,-112 1106.21,-99.98 1126.43,-88.63 1142.36,-80.34"/>
<polygon fill="midnightblue" stroke="midnightblue" points="1144.34,-83.26 1151.65,-75.59 1141.16,-77.02 1144.34,-83.26"/>
</g>
<!-- Node12 -->
<g id="node12" class="node">
<title>Node12</title>
<g id="a_node12"><a xlink:href="constants_8h.html" target="_top" xlink:title=" ">
<polygon fill="white" stroke="black" points="728,-112.5 728,-131.5 865,-131.5 865,-112.5 728,-112.5"/>
<text text-anchor="middle" x="796.5" y="-119.5" font-family="Consolas" font-size="10.00">libccc/math/constants.h</text>
</a>
</g>
</g>
<!-- Node11&#45;&gt;Node12 -->
<g id="edge15" class="edge">
<title>Node11&#45;&gt;Node12</title>
<path fill="none" stroke="midnightblue" d="M735.23,-168.32C746.34,-160.11 763.24,-147.6 776.48,-137.81"/>
<polygon fill="midnightblue" stroke="midnightblue" points="778.6,-140.59 784.56,-131.83 774.44,-134.97 778.6,-140.59"/>
</g>
<!-- Node14 -->
<g id="node14" class="node">
<title>Node14</title>
<g id="a_node14"><a xlink:href="math_2int_8h.html" target="_top" xlink:title=" ">
<polygon fill="white" stroke="black" points="469.5,-112.5 469.5,-131.5 575.5,-131.5 575.5,-112.5 469.5,-112.5"/>
<text text-anchor="middle" x="522.5" y="-119.5" font-family="Consolas" font-size="10.00">libccc/math/int.h</text>
</a>
</g>
</g>
<!-- Node11&#45;&gt;Node14 -->
<g id="edge18" class="edge">
<title>Node11&#45;&gt;Node14</title>
<path fill="none" stroke="midnightblue" d="M699.25,-170.49C665.78,-161.49 604.93,-145.15 564.11,-134.18"/>
<polygon fill="midnightblue" stroke="midnightblue" points="565.02,-130.8 554.45,-131.58 563.2,-137.56 565.02,-130.8"/>
</g>
<!-- Node16 -->
<g id="node16" class="node">
<title>Node16</title>
<g id="a_node16"><a xlink:href="math_2fixed_8h.html" target="_top" xlink:title=" ">
<polygon fill="white" stroke="black" points="593.5,-112.5 593.5,-131.5 709.5,-131.5 709.5,-112.5 593.5,-112.5"/>
<text text-anchor="middle" x="651.5" y="-119.5" font-family="Consolas" font-size="10.00">libccc/math/fixed.h</text>
</a>
</g>
</g>
<!-- Node11&#45;&gt;Node16 -->
<g id="edge22" class="edge">
<title>Node11&#45;&gt;Node16</title>
<path fill="none" stroke="midnightblue" d="M711.93,-168.32C701.08,-160.18 684.62,-147.84 671.62,-138.09"/>
<polygon fill="midnightblue" stroke="midnightblue" points="673.38,-135.03 663.28,-131.83 669.18,-140.63 673.38,-135.03"/>
</g>
<!-- Node18 -->
<g id="node18" class="node">
<title>Node18</title>
<g id="a_node18"><a xlink:href="math_2float_8h.html" target="_top" xlink:title=" ">
<polygon fill="white" stroke="black" points="883.5,-112.5 883.5,-131.5 999.5,-131.5 999.5,-112.5 883.5,-112.5"/>
<text text-anchor="middle" x="941.5" y="-119.5" font-family="Consolas" font-size="10.00">libccc/math/float.h</text>
</a>
</g>
</g>
<!-- Node11&#45;&gt;Node18 -->
<g id="edge25" class="edge">
<title>Node11&#45;&gt;Node18</title>
<path fill="none" stroke="midnightblue" d="M747.66,-171.01C783.63,-162.11 851.86,-145.21 897.01,-134.02"/>
<polygon fill="midnightblue" stroke="midnightblue" points="897.97,-137.39 906.83,-131.59 896.29,-130.59 897.97,-137.39"/>
</g>
<!-- Node12&#45;&gt;Node13 -->
<g id="edge16" class="edge">
<title>Node12&#45;&gt;Node13</title>
<path fill="none" stroke="midnightblue" d="M826.29,-112.44C858.33,-103.24 909.43,-88.56 944.85,-78.39"/>
<polygon fill="midnightblue" stroke="midnightblue" points="946.21,-81.64 954.85,-75.52 944.27,-74.91 946.21,-81.64"/>
</g>
<!-- Node13&#45;&gt;Node5 -->
<g id="edge17" class="edge">
<title>Node13&#45;&gt;Node5</title>
<path fill="none" stroke="midnightblue" d="M992.52,-75.67C1003.67,-88.81 1021.13,-114.12 1008.5,-132 993.82,-152.78 837.91,-200.02 763.11,-221.72"/>
<polygon fill="midnightblue" stroke="midnightblue" points="761.75,-218.46 753.11,-224.6 763.69,-225.19 761.75,-218.46"/>
</g>
<!-- Node14&#45;&gt;Node15 -->
<g id="edge19" class="edge">
<title>Node14&#45;&gt;Node15</title>
<path fill="none" stroke="midnightblue" d="M508.2,-112.32C494.32,-103.9 473.01,-90.97 456.7,-81.07"/>
<polygon fill="midnightblue" stroke="midnightblue" points="458.13,-77.85 447.76,-75.65 454.5,-83.83 458.13,-77.85"/>
</g>
<!-- Node15&#45;&gt;Node4 -->
<g id="edge20" class="edge">
<title>Node15&#45;&gt;Node4</title>
<path fill="none" stroke="midnightblue" d="M422.57,-56.32C412.33,-48.18 396.78,-35.84 384.5,-26.09"/>
<polygon fill="midnightblue" stroke="midnightblue" points="386.63,-23.31 376.62,-19.83 382.28,-28.79 386.63,-23.31"/>
</g>
<!-- Node15&#45;&gt;Node5 -->
<g id="edge21" class="edge">
<title>Node15&#45;&gt;Node5</title>
<path fill="none" stroke="midnightblue" d="M434.73,-75.77C438.53,-99.01 452.38,-162.21 493.5,-188 552.42,-224.96 635.22,-232.63 683.73,-233.64"/>
<polygon fill="midnightblue" stroke="midnightblue" points="683.78,-237.14 693.83,-233.76 683.87,-230.14 683.78,-237.14"/>
</g>
<!-- Node17 -->
<g id="node17" class="node">
<title>Node17</title>
<g id="a_node17"><a xlink:href="fixed_8h.html" target="_top" xlink:title=" ">
<polygon fill="white" stroke="black" points="549.5,-56.5 549.5,-75.5 639.5,-75.5 639.5,-56.5 549.5,-56.5"/>
<text text-anchor="middle" x="594.5" y="-63.5" font-family="Consolas" font-size="10.00">libccc/fixed.h</text>
</a>
</g>
</g>
<!-- Node16&#45;&gt;Node17 -->
<g id="edge23" class="edge">
<title>Node16&#45;&gt;Node17</title>
<path fill="none" stroke="midnightblue" d="M642.34,-112.32C634,-104.42 621.47,-92.55 611.32,-82.94"/>
<polygon fill="midnightblue" stroke="midnightblue" points="613.49,-80.17 603.82,-75.83 608.68,-85.25 613.49,-80.17"/>
</g>
<!-- Node17&#45;&gt;Node5 -->
<g id="edge24" class="edge">
<title>Node17&#45;&gt;Node5</title>
<path fill="none" stroke="midnightblue" d="M549.16,-72.07C501.3,-79.39 435.9,-96.2 460.5,-132 511.06,-205.58 623.24,-225.58 683.45,-231"/>
<polygon fill="midnightblue" stroke="midnightblue" points="683.46,-234.51 693.71,-231.83 684.02,-227.53 683.46,-234.51"/>
</g>
<!-- Node18&#45;&gt;Node13 -->
<g id="edge26" class="edge">
<title>Node18&#45;&gt;Node13</title>
<path fill="none" stroke="midnightblue" d="M948.6,-112.08C954.74,-104.38 963.77,-93.03 971.24,-83.65"/>
<polygon fill="midnightblue" stroke="midnightblue" points="974.04,-85.75 977.53,-75.75 968.56,-81.39 974.04,-85.75"/>
</g>
<!-- Node21&#45;&gt;Node5 -->
<g id="edge30" class="edge">
<title>Node21&#45;&gt;Node5</title>
<path fill="none" stroke="midnightblue" d="M723.5,-280.08C723.5,-273.01 723.5,-262.86 723.5,-253.99"/>
<polygon fill="midnightblue" stroke="midnightblue" points="727,-253.75 723.5,-243.75 720,-253.75 727,-253.75"/>
</g>
<!-- Node22 -->
<g id="node22" class="node">
<title>Node22</title>
<g id="a_node22"><a xlink:title=" ">
<polygon fill="white" stroke="#bfbfbf" points="771.5,-224.5 771.5,-243.5 835.5,-243.5 835.5,-224.5 771.5,-224.5"/>
<text text-anchor="middle" x="803.5" y="-231.5" font-family="Consolas" font-size="10.00">stdbool.h</text>
</a>
</g>
</g>
<!-- Node21&#45;&gt;Node22 -->
<g id="edge31" class="edge">
<title>Node21&#45;&gt;Node22</title>
<path fill="none" stroke="midnightblue" d="M736.35,-280.32C748.72,-271.98 767.63,-259.21 782.24,-249.35"/>
<polygon fill="midnightblue" stroke="midnightblue" points="784.35,-252.15 790.68,-243.65 780.43,-246.35 784.35,-252.15"/>
</g>
<!-- Node23&#45;&gt;Node4 -->
<g id="edge36" class="edge">
<title>Node23&#45;&gt;Node4</title>
<path fill="none" stroke="midnightblue" d="M407.69,-280.46C394.22,-262.69 365.5,-219.98 365.5,-179 365.5,-179 365.5,-179 365.5,-121 365.5,-88.95 365.5,-51.64 365.5,-29.75"/>
<polygon fill="midnightblue" stroke="midnightblue" points="369,-29.56 365.5,-19.56 362,-29.56 369,-29.56"/>
</g>
<!-- Node23&#45;&gt;Node5 -->
<g id="edge37" class="edge">
<title>Node23&#45;&gt;Node5</title>
<path fill="none" stroke="midnightblue" d="M463.46,-280.44C524.5,-269.78 627.63,-251.75 683.93,-241.92"/>
<polygon fill="midnightblue" stroke="midnightblue" points="684.63,-245.35 693.88,-240.18 683.42,-238.45 684.63,-245.35"/>
</g>
<!-- Node24 -->
<g id="node24" class="node">
<title>Node24</title>
<g id="a_node24"><a xlink:title=" ">
<polygon fill="white" stroke="#bfbfbf" points="394,-224.5 394,-243.5 453,-243.5 453,-224.5 394,-224.5"/>
<text text-anchor="middle" x="423.5" y="-231.5" font-family="Consolas" font-size="10.00">stddef.h</text>
</a>
</g>
</g>
<!-- Node23&#45;&gt;Node24 -->
<g id="edge35" class="edge">
<title>Node23&#45;&gt;Node24</title>
<path fill="none" stroke="midnightblue" d="M415.99,-280.08C417.18,-272.93 418.89,-262.64 420.38,-253.69"/>
<polygon fill="midnightblue" stroke="midnightblue" points="423.85,-254.19 422.04,-243.75 416.95,-253.04 423.85,-254.19"/>
</g>
</g>
</svg>
        <g id="navigator" transform="translate(0 0)" fill="#404254">
                <rect fill="#f2f5e9" fill-opacity="0.5" stroke="#606060" stroke-width=".5" x="0" y="0" width="60" height="60"/>
                <use id="zoomplus" xlink:href="#zoomPlus" x="17" y="9" onmousedown="handleZoom(evt,'in')"/>
                <use id="zoomminus" xlink:href="#zoomMin" x="42" y="9" onmousedown="handleZoom(evt,'out')"/>
                <use id="reset" xlink:href="#resetDef" x="30" y="36" onmousedown="handleReset()"/>
                <g id="arrowUp" xlink:href="#dirArrow" transform="translate(30 24)" onmousedown="handlePan(0,-1)">
                  <use xlink:href="#rim" fill="#404040">
                        <set attributeName="fill" to="#808080" begin="arrowUp.mouseover" end="arrowUp.mouseout"/>
                  </use>
                  <path fill="none" stroke="white" stroke-width="1.5" d="M0,-3.0v7 M-2.5,-0.5L0,-3.0L2.5,-0.5"/>
                </g>
                <g id="arrowRight" xlink:href="#dirArrow" transform="rotate(90) translate(36 -43)" onmousedown="handlePan(1,0)">
                  <use xlink:href="#rim" fill="#404040">
                        <set attributeName="fill" to="#808080" begin="arrowRight.mouseover" end="arrowRight.mouseout"/>
                  </use>
                  <path fill="none" stroke="white" stroke-width="1.5" d="M0,-3.0v7 M-2.5,-0.5L0,-3.0L2.5,-0.5"/>
                </g>
                <g id="arrowDown" xlink:href="#dirArrow" transform="rotate(180) translate(-30 -48)" onmousedown="handlePan(0,1)">
                  <use xlink:href="#rim" fill="#404040">
                        <set attributeName="fill" to="#808080" begin="arrowDown.mouseover" end="arrowDown.mouseout"/>
                  </use>
                  <path fill="none" stroke="white" stroke-width="1.5" d="M0,-3.0v7 M-2.5,-0.5L0,-3.0L2.5,-0.5"/>
                </g>
                <g id="arrowLeft" xlink:href="#dirArrow" transform="rotate(270) translate(-36 17)" onmousedown="handlePan(-1,0)">
                  <use xlink:href="#rim" fill="#404040">
                        <set attributeName="fill" to="#808080" begin="arrowLeft.mouseover" end="arrowLeft.mouseout"/>
                  </use>
                  <path fill="none" stroke="white" stroke-width="1.5" d="M0,-3.0v7 M-2.5,-0.5L0,-3.0L2.5,-0.5"/>
                </g>
        </g>
        <svg viewBox="0 0 15 15" width="100%" height="30px" preserveAspectRatio="xMaxYMin meet">
         <g id="arrow_out" transform="scale(0.3 0.3)">
          <a xlink:href="toml_8h__incl_org.svg" target="_base">
           <rect id="button" ry="5" rx="5" y="6" x="6" height="38" width="38"
                fill="#f2f5e9" fill-opacity="0.5" stroke="#606060" stroke-width="1.0"/>
           <path id="arrow"
             d="M 11.500037,31.436501 C 11.940474,20.09759 22.043105,11.32322 32.158766,21.979434 L 37.068811,17.246167 C 37.068811,17.246167 37.088388,32 37.088388,32 L 22.160133,31.978069 C 22.160133,31.978069 26.997745,27.140456 26.997745,27.140456 C 18.528582,18.264221 13.291696,25.230495 11.500037,31.436501 z"
             style="fill:#404040;"/>
          </a>
         </g>
        </svg>
</svg>
