<?xml version="1.0" encoding="UTF-8" standalone="no"?>
<!DOCTYPE svg PUBLIC "-//W3C//DTD SVG 1.1//EN"
 "http://www.w3.org/Graphics/SVG/1.1/DTD/svg11.dtd">
<!-- Generated by graphviz version 2.49.3 (20211023.0002)
 -->
<!-- Title: libccc/encode/toml.h Pages: 1 -->
<svg width="572pt" height="420pt"
 viewBox="0.00 0.00 572.00 420.00" xmlns="http://www.w3.org/2000/svg" xmlns:xlink="http://www.w3.org/1999/xlink">
<g id="graph0" class="graph" transform="scale(1 1) rotate(0) translate(4 416)">
<title>libccc/encode/toml.h</title>
<polygon fill="white" stroke="transparent" points="-4,4 -4,-416 568,-416 568,4 -4,4"/>
<!-- Node1 -->
<g id="node1" class="node">
<title>Node1</title>
<g id="a_node1"><a xlink:title=" ">
<polygon fill="#bfbfbf" stroke="black" points="244,-392.5 244,-411.5 351,-411.5 351,-392.5 244,-392.5"/>
<text text-anchor="middle" x="297.5" y="-399.5" font-family="Consolas" font-size="10.00">libccc/encode/toml.h</text>
</a>
</g>
</g>
<!-- Node2 -->
<g id="node2" class="node">
<title>Node2</title>
<g id="a_node2"><a xlink:href="common_8h.html" target="_top" xlink:title=" ">
<polygon fill="white" stroke="black" points="235,-336.5 235,-355.5 360,-355.5 360,-336.5 235,-336.5"/>
<text text-anchor="middle" x="297.5" y="-343.5" font-family="Consolas" font-size="10.00">libccc/encode/common.h</text>
</a>
</g>
</g>
<!-- Node1&#45;&gt;Node2 -->
<g id="edge1" class="edge">
<title>Node1&#45;&gt;Node2</title>
<path fill="none" stroke="midnightblue" d="M297.5,-392.08C297.5,-385.01 297.5,-374.86 297.5,-365.99"/>
<polygon fill="midnightblue" stroke="midnightblue" points="301,-365.75 297.5,-355.75 294,-365.75 301,-365.75"/>
</g>
<!-- Node3 -->
<g id="node3" class="node">
<title>Node3</title>
<g id="a_node3"><a xlink:href="char_8h.html" target="_top" xlink:title=" ">
<polygon fill="white" stroke="black" points="131,-280.5 131,-299.5 202,-299.5 202,-280.5 131,-280.5"/>
<text text-anchor="middle" x="166.5" y="-287.5" font-family="Consolas" font-size="10.00">libccc/char.h</text>
</a>
</g>
</g>
<!-- Node2&#45;&gt;Node3 -->
<g id="edge2" class="edge">
<title>Node2&#45;&gt;Node3</title>
<path fill="none" stroke="midnightblue" d="M276.74,-336.44C255.18,-327.56 221.24,-313.56 196.71,-303.45"/>
<polygon fill="midnightblue" stroke="midnightblue" points="197.74,-300.09 187.16,-299.52 195.07,-306.56 197.74,-300.09"/>
</g>
<!-- Node12 -->
<g id="node12" class="node">
<title>Node12</title>
<g id="a_node12"><a xlink:title=" ">
<polygon fill="white" stroke="#bfbfbf" points="0,-224.5 0,-243.5 107,-243.5 107,-224.5 0,-224.5"/>
<text text-anchor="middle" x="53.5" y="-231.5" font-family="Consolas" font-size="10.00">libccc/text/unicode.h</text>
</a>
</g>
</g>
<!-- Node2&#45;&gt;Node12 -->
<g id="edge28" class="edge">
<title>Node2&#45;&gt;Node12</title>
<path fill="none" stroke="midnightblue" d="M234.73,-336.96C199.77,-330.57 156.39,-319.36 121.5,-300 99.3,-287.68 78.98,-266.35 66.45,-251.5"/>
<polygon fill="midnightblue" stroke="midnightblue" points="69.05,-249.15 60.01,-243.62 63.63,-253.58 69.05,-249.15"/>
</g>
<!-- Node13 -->
<g id="node13" class="node">
<title>Node13</title>
<g id="a_node13"><a xlink:href="bool_8h.html" target="_top" xlink:title=" ">
<polygon fill="white" stroke="black" points="493,-280.5 493,-299.5 564,-299.5 564,-280.5 493,-280.5"/>
<text text-anchor="middle" x="528.5" y="-287.5" font-family="Consolas" font-size="10.00">libccc/bool.h</text>
</a>
</g>
</g>
<!-- Node2&#45;&gt;Node13 -->
<g id="edge16" class="edge">
<title>Node2&#45;&gt;Node13</title>
<path fill="none" stroke="midnightblue" d="M334.1,-336.44C374.47,-327.01 439.46,-311.82 483.05,-301.62"/>
<polygon fill="midnightblue" stroke="midnightblue" points="483.89,-305.02 492.83,-299.34 482.29,-298.21 483.89,-305.02"/>
</g>
<!-- Node15 -->
<g id="node15" class="node">
<title>Node15</title>
<g id="a_node15"><a xlink:href="int_8h.html" target="_top" xlink:title=" ">
<polygon fill="white" stroke="black" points="220.5,-280.5 220.5,-299.5 284.5,-299.5 284.5,-280.5 220.5,-280.5"/>
<text text-anchor="middle" x="252.5" y="-287.5" font-family="Consolas" font-size="10.00">libccc/int.h</text>
</a>
</g>
</g>
<!-- Node2&#45;&gt;Node15 -->
<g id="edge19" class="edge">
<title>Node2&#45;&gt;Node15</title>
<path fill="none" stroke="midnightblue" d="M290.07,-336.08C283.65,-328.38 274.19,-317.03 266.38,-307.65"/>
<polygon fill="midnightblue" stroke="midnightblue" points="268.88,-305.19 259.79,-299.75 263.51,-309.67 268.88,-305.19"/>
</g>
<!-- Node16 -->
<g id="node16" class="node">
<title>Node16</title>
<g id="a_node16"><a xlink:href="float_8h.html" target="_top" xlink:title=" ">
<polygon fill="white" stroke="black" points="402.5,-280.5 402.5,-299.5 474.5,-299.5 474.5,-280.5 402.5,-280.5"/>
<text text-anchor="middle" x="438.5" y="-287.5" font-family="Consolas" font-size="10.00">libccc/float.h</text>
</a>
</g>
</g>
<!-- Node2&#45;&gt;Node16 -->
<g id="edge22" class="edge">
<title>Node2&#45;&gt;Node16</title>
<path fill="none" stroke="midnightblue" d="M319.84,-336.44C343.25,-327.48 380.24,-313.31 406.69,-303.18"/>
<polygon fill="midnightblue" stroke="midnightblue" points="408.18,-306.36 416.26,-299.52 405.67,-299.82 408.18,-306.36"/>
</g>
<!-- Node17 -->
<g id="node17" class="node">
<title>Node17</title>
<g id="a_node17"><a xlink:href="pointer_8h.html" target="_top" xlink:title=" ">
<polygon fill="white" stroke="black" points="302.5,-280.5 302.5,-299.5 384.5,-299.5 384.5,-280.5 302.5,-280.5"/>
<text text-anchor="middle" x="343.5" y="-287.5" font-family="Consolas" font-size="10.00">libccc/pointer.h</text>
</a>
</g>
</g>
<!-- Node2&#45;&gt;Node17 -->
<g id="edge24" class="edge">
<title>Node2&#45;&gt;Node17</title>
<path fill="none" stroke="midnightblue" d="M305.1,-336.08C311.73,-328.3 321.52,-316.8 329.56,-307.37"/>
<polygon fill="midnightblue" stroke="midnightblue" points="332.23,-309.63 336.05,-299.75 326.9,-305.09 332.23,-309.63"/>
</g>
<!-- Node4 -->
<g id="node4" class="node">
<title>Node4</title>
<g id="a_node4"><a xlink:title=" ">
<polygon fill="white" stroke="#bfbfbf" points="236,-224.5 236,-243.5 285,-243.5 285,-224.5 236,-224.5"/>
<text text-anchor="middle" x="260.5" y="-231.5" font-family="Consolas" font-size="10.00">stdint.h</text>
</a>
</g>
</g>
<!-- Node3&#45;&gt;Node4 -->
<g id="edge3" class="edge">
<title>Node3&#45;&gt;Node4</title>
<path fill="none" stroke="midnightblue" d="M181.6,-280.32C196.4,-271.82 219.19,-258.73 236.48,-248.8"/>
<polygon fill="midnightblue" stroke="midnightblue" points="238.51,-251.67 245.43,-243.65 235.02,-245.6 238.51,-251.67"/>
</g>
<!-- Node5 -->
<g id="node5" class="node">
<title>Node5</title>
<g id="a_node5"><a xlink:href="libccc_8h.html" target="_top" xlink:title=" ">
<polygon fill="white" stroke="black" points="382.5,-224.5 382.5,-243.5 432.5,-243.5 432.5,-224.5 382.5,-224.5"/>
<text text-anchor="middle" x="407.5" y="-231.5" font-family="Consolas" font-size="10.00">libccc.h</text>
</a>
</g>
</g>
<!-- Node3&#45;&gt;Node5 -->
<g id="edge4" class="edge">
<title>Node3&#45;&gt;Node5</title>
<path fill="none" stroke="midnightblue" d="M202.14,-281.76C241.46,-273.66 306.83,-259.86 372.21,-244.23"/>
<polygon fill="midnightblue" stroke="midnightblue" points="373.38,-247.55 382.28,-241.81 371.74,-240.75 373.38,-247.55"/>
</g>
<!-- Node11 -->
<g id="node11" class="node">
<title>Node11</title>
<g id="a_node11"><a xlink:title=" ">
<polygon fill="white" stroke="#bfbfbf" points="125,-224.5 125,-243.5 218,-243.5 218,-224.5 125,-224.5"/>
<text text-anchor="middle" x="171.5" y="-231.5" font-family="Consolas" font-size="10.00">libccc/text/ascii.h</text>
</a>
</g>
</g>
<!-- Node3&#45;&gt;Node11 -->
<g id="edge14" class="edge">
<title>Node3&#45;&gt;Node11</title>
<path fill="none" stroke="midnightblue" d="M167.33,-280.08C167.98,-273.01 168.92,-262.86 169.74,-253.99"/>
<polygon fill="midnightblue" stroke="midnightblue" points="173.25,-254.03 170.69,-243.75 166.28,-253.39 173.25,-254.03"/>
</g>
<!-- Node3&#45;&gt;Node12 -->
<g id="edge15" class="edge">
<title>Node3&#45;&gt;Node12</title>
<path fill="none" stroke="midnightblue" d="M148.59,-280.44C130.25,-271.68 101.49,-257.94 80.41,-247.86"/>
<polygon fill="midnightblue" stroke="midnightblue" points="81.85,-244.67 71.32,-243.52 78.83,-250.99 81.85,-244.67"/>
</g>
<!-- Node6 -->
<g id="node6" class="node">
<title>Node6</title>
<g id="a_node6"><a xlink:href="libccc__define_8h.html" target="_top" xlink:title=" ">
<polygon fill="white" stroke="black" points="366.5,-56.5 366.5,-75.5 448.5,-75.5 448.5,-56.5 366.5,-56.5"/>
<text text-anchor="middle" x="407.5" y="-63.5" font-family="Consolas" font-size="10.00">libccc_define.h</text>
</a>
</g>
</g>
<!-- Node5&#45;&gt;Node6 -->
<g id="edge5" class="edge">
<title>Node5&#45;&gt;Node6</title>
<path fill="none" stroke="midnightblue" d="M393.58,-224.45C363.76,-205.01 298.44,-155.78 324.5,-112 333.6,-96.72 349.89,-86.31 365.64,-79.39"/>
<polygon fill="midnightblue" stroke="midnightblue" points="367.33,-82.48 375.32,-75.51 364.73,-75.98 367.33,-82.48"/>
</g>
<!-- Node8 -->
<g id="node8" class="node">
<title>Node8</title>
<g id="a_node8"><a xlink:href="libccc__errors_8h.html" target="_top" xlink:title=" ">
<polygon fill="white" stroke="black" points="333.5,-112.5 333.5,-131.5 413.5,-131.5 413.5,-112.5 333.5,-112.5"/>
<text text-anchor="middle" x="373.5" y="-119.5" font-family="Consolas" font-size="10.00">libccc_errors.h</text>
</a>
</g>
</g>
<!-- Node5&#45;&gt;Node8 -->
<g id="edge7" class="edge">
<title>Node5&#45;&gt;Node8</title>
<path fill="none" stroke="midnightblue" d="M404.25,-224.43C400.88,-215.43 395.55,-200.81 391.5,-188 386.6,-172.47 381.71,-154.63 378.27,-141.58"/>
<polygon fill="midnightblue" stroke="midnightblue" points="381.65,-140.69 375.75,-131.89 374.88,-142.45 381.65,-140.69"/>
</g>
<!-- Node9 -->
<g id="node9" class="node">
<title>Node9</title>
<g id="a_node9"><a xlink:href="libccc__config_8h.html" target="_top" xlink:title=" ">
<polygon fill="white" stroke="black" points="400.5,-168.5 400.5,-187.5 482.5,-187.5 482.5,-168.5 400.5,-168.5"/>
<text text-anchor="middle" x="441.5" y="-175.5" font-family="Consolas" font-size="10.00">libccc_config.h</text>
</a>
</g>
</g>
<!-- Node5&#45;&gt;Node9 -->
<g id="edge9" class="edge">
<title>Node5&#45;&gt;Node9</title>
<path fill="none" stroke="midnightblue" d="M413.11,-224.08C417.87,-216.53 424.82,-205.49 430.65,-196.23"/>
<polygon fill="midnightblue" stroke="midnightblue" points="433.62,-198.08 435.99,-187.75 427.7,-194.35 433.62,-198.08"/>
</g>
<!-- Node10 -->
<g id="node10" class="node">
<title>Node10</title>
<g id="a_node10"><a xlink:href="libccc__naming_8h.html" target="_top" xlink:title=" ">
<polygon fill="white" stroke="black" points="470,-112.5 470,-131.5 557,-131.5 557,-112.5 470,-112.5"/>
<text text-anchor="middle" x="513.5" y="-119.5" font-family="Consolas" font-size="10.00">libccc_naming.h</text>
</a>
</g>
</g>
<!-- Node5&#45;&gt;Node10 -->
<g id="edge12" class="edge">
<title>Node5&#45;&gt;Node10</title>
<path fill="none" stroke="midnightblue" d="M432.83,-225.14C451.45,-218.15 476.1,-206.18 491.5,-188 502.68,-174.8 508.25,-155.67 510.99,-141.57"/>
<polygon fill="midnightblue" stroke="midnightblue" points="514.46,-142 512.62,-131.56 507.55,-140.87 514.46,-142"/>
</g>
<!-- Node7 -->
<g id="node7" class="node">
<title>Node7</title>
<g id="a_node7"><a xlink:title=" ">
<polygon fill="white" stroke="#bfbfbf" points="378,-0.5 378,-19.5 437,-19.5 437,-0.5 378,-0.5"/>
<text text-anchor="middle" x="407.5" y="-7.5" font-family="Consolas" font-size="10.00">stdalign.h</text>
</a>
</g>
</g>
<!-- Node6&#45;&gt;Node7 -->
<g id="edge6" class="edge">
<title>Node6&#45;&gt;Node7</title>
<path fill="none" stroke="midnightblue" d="M407.5,-56.08C407.5,-49.01 407.5,-38.86 407.5,-29.99"/>
<polygon fill="midnightblue" stroke="midnightblue" points="411,-29.75 407.5,-19.75 404,-29.75 411,-29.75"/>
</g>
<!-- Node8&#45;&gt;Node6 -->
<g id="edge8" class="edge">
<title>Node8&#45;&gt;Node6</title>
<path fill="none" stroke="midnightblue" d="M379.11,-112.08C383.87,-104.53 390.82,-93.49 396.65,-84.23"/>
<polygon fill="midnightblue" stroke="midnightblue" points="399.62,-86.08 401.99,-75.75 393.7,-82.35 399.62,-86.08"/>
</g>
<!-- Node9&#45;&gt;Node6 -->
<g id="edge10" class="edge">
<title>Node9&#45;&gt;Node6</title>
<path fill="none" stroke="midnightblue" d="M439.02,-168.14C435.49,-155.6 428.75,-131.97 422.5,-112 419.73,-103.15 416.5,-93.37 413.74,-85.2"/>
<polygon fill="midnightblue" stroke="midnightblue" points="417.01,-83.94 410.47,-75.6 410.38,-86.19 417.01,-83.94"/>
</g>
<!-- Node9&#45;&gt;Node8 -->
<g id="edge11" class="edge">
<title>Node9&#45;&gt;Node8</title>
<path fill="none" stroke="midnightblue" d="M430.57,-168.32C420.33,-160.18 404.78,-147.84 392.5,-138.09"/>
<polygon fill="midnightblue" stroke="midnightblue" points="394.63,-135.31 384.62,-131.83 390.28,-140.79 394.63,-135.31"/>
</g>
<!-- Node10&#45;&gt;Node6 -->
<g id="edge13" class="edge">
<title>Node10&#45;&gt;Node6</title>
<path fill="none" stroke="midnightblue" d="M496.47,-112.32C479.47,-103.66 453.12,-90.24 433.51,-80.25"/>
<polygon fill="midnightblue" stroke="midnightblue" points="434.99,-77.08 424.49,-75.65 431.81,-83.31 434.99,-77.08"/>
</g>
<!-- Node13&#45;&gt;Node5 -->
<g id="edge17" class="edge">
<title>Node13&#45;&gt;Node5</title>
<path fill="none" stroke="midnightblue" d="M509.33,-280.44C489.59,-271.64 458.61,-257.81 436.01,-247.72"/>
<polygon fill="midnightblue" stroke="midnightblue" points="437.14,-244.4 426.58,-243.52 434.29,-250.79 437.14,-244.4"/>
</g>
<!-- Node14 -->
<g id="node14" class="node">
<title>Node14</title>
<g id="a_node14"><a xlink:title=" ">
<polygon fill="white" stroke="#bfbfbf" points="500.5,-224.5 500.5,-243.5 556.5,-243.5 556.5,-224.5 500.5,-224.5"/>
<text text-anchor="middle" x="528.5" y="-231.5" font-family="Consolas" font-size="10.00">stdbool.h</text>
</a>
</g>
</g>
<!-- Node13&#45;&gt;Node14 -->
<g id="edge18" class="edge">
<title>Node13&#45;&gt;Node14</title>
<path fill="none" stroke="midnightblue" d="M528.5,-280.08C528.5,-273.01 528.5,-262.86 528.5,-253.99"/>
<polygon fill="midnightblue" stroke="midnightblue" points="532,-253.75 528.5,-243.75 525,-253.75 532,-253.75"/>
</g>
<!-- Node15&#45;&gt;Node4 -->
<g id="edge20" class="edge">
<title>Node15&#45;&gt;Node4</title>
<path fill="none" stroke="midnightblue" d="M253.82,-280.08C254.88,-272.93 256.41,-262.64 257.73,-253.69"/>
<polygon fill="midnightblue" stroke="midnightblue" points="261.2,-254.16 259.2,-243.75 254.28,-253.13 261.2,-254.16"/>
</g>
<!-- Node15&#45;&gt;Node5 -->
<g id="edge21" class="edge">
<title>Node15&#45;&gt;Node5</title>
<path fill="none" stroke="midnightblue" d="M277.06,-280.44C303.02,-271.4 344.17,-257.06 373.3,-246.92"/>
<polygon fill="midnightblue" stroke="midnightblue" points="374.76,-250.11 383.05,-243.52 372.46,-243.5 374.76,-250.11"/>
</g>
<!-- Node16&#45;&gt;Node5 -->
<g id="edge23" class="edge">
<title>Node16&#45;&gt;Node5</title>
<path fill="none" stroke="midnightblue" d="M433.38,-280.08C429.09,-272.61 422.84,-261.72 417.56,-252.52"/>
<polygon fill="midnightblue" stroke="midnightblue" points="420.54,-250.68 412.52,-243.75 414.47,-254.17 420.54,-250.68"/>
</g>
<!-- Node17&#45;&gt;Node4 -->
<g id="edge26" class="edge">
<title>Node17&#45;&gt;Node4</title>
<path fill="none" stroke="midnightblue" d="M330.16,-280.32C317.34,-271.98 297.72,-259.21 282.56,-249.35"/>
<polygon fill="midnightblue" stroke="midnightblue" points="284.09,-246.17 273.8,-243.65 280.28,-252.04 284.09,-246.17"/>
</g>
<!-- Node17&#45;&gt;Node5 -->
<g id="edge27" class="edge">
<title>Node17&#45;&gt;Node5</title>
<path fill="none" stroke="midnightblue" d="M353.78,-280.32C363.34,-272.26 377.78,-260.08 389.28,-250.37"/>
<polygon fill="midnightblue" stroke="midnightblue" points="391.64,-252.96 397.03,-243.83 387.13,-247.61 391.64,-252.96"/>
</g>
<!-- Node18 -->
<g id="node18" class="node">
<title>Node18</title>
<g id="a_node18"><a xlink:title=" ">
<polygon fill="white" stroke="#bfbfbf" points="312.5,-224.5 312.5,-243.5 364.5,-243.5 364.5,-224.5 312.5,-224.5"/>
<text text-anchor="middle" x="338.5" y="-231.5" font-family="Consolas" font-size="10.00">stddef.h</text>
</a>
</g>
</g>
<!-- Node17&#45;&gt;Node18 -->
<g id="edge25" class="edge">
<title>Node17&#45;&gt;Node18</title>
<path fill="none" stroke="midnightblue" d="M342.67,-280.08C342.02,-273.01 341.08,-262.86 340.26,-253.99"/>
<polygon fill="midnightblue" stroke="midnightblue" points="343.72,-253.39 339.31,-243.75 336.75,-254.03 343.72,-253.39"/>
</g>
</g>
</svg>
