<?xml version="1.0" encoding="UTF-8" standalone="no"?>
<!DOCTYPE svg PUBLIC "-//W3C//DTD SVG 1.1//EN"
 "http://www.w3.org/Graphics/SVG/1.1/DTD/svg11.dtd">
<!-- Generated by graphviz version 2.49.3 (20211023.0002)
 -->
<!-- Title: libccc/monad/tree.h Pages: 1 -->
<svg width="405pt" height="364pt"
 viewBox="0.00 0.00 405.00 364.00" xmlns="http://www.w3.org/2000/svg" xmlns:xlink="http://www.w3.org/1999/xlink">
<g id="graph0" class="graph" transform="scale(1 1) rotate(0) translate(4 360)">
<title>libccc/monad/tree.h</title>
<polygon fill="white" stroke="transparent" points="-4,4 -4,-360 401,-360 401,4 -4,4"/>
<!-- Node1 -->
<g id="node1" class="node">
<title>Node1</title>
<g id="a_node1"><a xlink:title=" ">
<polygon fill="#bfbfbf" stroke="black" points="147,-336.5 147,-355.5 249,-355.5 249,-336.5 147,-336.5"/>
<text text-anchor="middle" x="198" y="-343.5" font-family="Consolas" font-size="10.00">libccc/monad/tree.h</text>
</a>
</g>
</g>
<!-- Node2 -->
<g id="node2" class="node">
<title>Node2</title>
<g id="a_node2"><a xlink:href="bool_8h.html" target="_top" xlink:title=" ">
<polygon fill="white" stroke="black" points="205.5,-280.5 205.5,-299.5 276.5,-299.5 276.5,-280.5 205.5,-280.5"/>
<text text-anchor="middle" x="241" y="-287.5" font-family="Consolas" font-size="10.00">libccc/bool.h</text>
</a>
</g>
</g>
<!-- Node1&#45;&gt;Node2 -->
<g id="edge1" class="edge">
<title>Node1&#45;&gt;Node2</title>
<path fill="none" stroke="midnightblue" d="M205.1,-336.08C211.24,-328.38 220.27,-317.03 227.74,-307.65"/>
<polygon fill="midnightblue" stroke="midnightblue" points="230.54,-309.75 234.03,-299.75 225.06,-305.39 230.54,-309.75"/>
</g>
<!-- Node10 -->
<g id="node10" class="node">
<title>Node10</title>
<g id="a_node10"><a xlink:href="int_8h.html" target="_top" xlink:title=" ">
<polygon fill="white" stroke="black" points="123,-280.5 123,-299.5 187,-299.5 187,-280.5 123,-280.5"/>
<text text-anchor="middle" x="155" y="-287.5" font-family="Consolas" font-size="10.00">libccc/int.h</text>
</a>
</g>
</g>
<!-- Node1&#45;&gt;Node10 -->
<g id="edge13" class="edge">
<title>Node1&#45;&gt;Node10</title>
<path fill="none" stroke="midnightblue" d="M190.9,-336.08C184.76,-328.38 175.73,-317.03 168.26,-307.65"/>
<polygon fill="midnightblue" stroke="midnightblue" points="170.94,-305.39 161.97,-299.75 165.46,-309.75 170.94,-305.39"/>
</g>
<!-- Node12 -->
<g id="node12" class="node">
<title>Node12</title>
<g id="a_node12"><a xlink:href="pointer_8h.html" target="_top" xlink:title=" ">
<polygon fill="white" stroke="black" points="23,-280.5 23,-299.5 105,-299.5 105,-280.5 23,-280.5"/>
<text text-anchor="middle" x="64" y="-287.5" font-family="Consolas" font-size="10.00">libccc/pointer.h</text>
</a>
</g>
</g>
<!-- Node1&#45;&gt;Node12 -->
<g id="edge16" class="edge">
<title>Node1&#45;&gt;Node12</title>
<path fill="none" stroke="midnightblue" d="M176.77,-336.44C154.62,-327.52 119.68,-313.44 94.56,-303.32"/>
<polygon fill="midnightblue" stroke="midnightblue" points="95.72,-300.01 85.13,-299.52 93.1,-306.5 95.72,-300.01"/>
</g>
<!-- Node14 -->
<g id="node14" class="node">
<title>Node14</title>
<g id="a_node14"><a xlink:title=" ">
<polygon fill="white" stroke="#bfbfbf" points="295,-280.5 295,-299.5 397,-299.5 397,-280.5 295,-280.5"/>
<text text-anchor="middle" x="346" y="-287.5" font-family="Consolas" font-size="10.00">libccc/monad/tree.c</text>
</a>
</g>
</g>
<!-- Node1&#45;&gt;Node14 -->
<g id="edge20" class="edge">
<title>Node1&#45;&gt;Node14</title>
<path fill="none" stroke="midnightblue" d="M221.45,-336.44C246.13,-327.44 285.19,-313.19 312.98,-303.05"/>
<polygon fill="midnightblue" stroke="midnightblue" points="314.46,-306.23 322.66,-299.52 312.06,-299.66 314.46,-306.23"/>
</g>
<!-- Node3 -->
<g id="node3" class="node">
<title>Node3</title>
<g id="a_node3"><a xlink:href="libccc_8h.html" target="_top" xlink:title=" ">
<polygon fill="white" stroke="black" points="138,-224.5 138,-243.5 188,-243.5 188,-224.5 138,-224.5"/>
<text text-anchor="middle" x="163" y="-231.5" font-family="Consolas" font-size="10.00">libccc.h</text>
</a>
</g>
</g>
<!-- Node2&#45;&gt;Node3 -->
<g id="edge2" class="edge">
<title>Node2&#45;&gt;Node3</title>
<path fill="none" stroke="midnightblue" d="M228.47,-280.32C216.41,-271.98 197.97,-259.21 183.73,-249.35"/>
<polygon fill="midnightblue" stroke="midnightblue" points="185.72,-246.47 175.5,-243.65 181.73,-252.22 185.72,-246.47"/>
</g>
<!-- Node9 -->
<g id="node9" class="node">
<title>Node9</title>
<g id="a_node9"><a xlink:title=" ">
<polygon fill="white" stroke="#bfbfbf" points="213,-224.5 213,-243.5 269,-243.5 269,-224.5 213,-224.5"/>
<text text-anchor="middle" x="241" y="-231.5" font-family="Consolas" font-size="10.00">stdbool.h</text>
</a>
</g>
</g>
<!-- Node2&#45;&gt;Node9 -->
<g id="edge12" class="edge">
<title>Node2&#45;&gt;Node9</title>
<path fill="none" stroke="midnightblue" d="M241,-280.08C241,-273.01 241,-262.86 241,-253.99"/>
<polygon fill="midnightblue" stroke="midnightblue" points="244.5,-253.75 241,-243.75 237.5,-253.75 244.5,-253.75"/>
</g>
<!-- Node4 -->
<g id="node4" class="node">
<title>Node4</title>
<g id="a_node4"><a xlink:href="libccc__define_8h.html" target="_top" xlink:title=" ">
<polygon fill="white" stroke="black" points="123,-56.5 123,-75.5 205,-75.5 205,-56.5 123,-56.5"/>
<text text-anchor="middle" x="164" y="-63.5" font-family="Consolas" font-size="10.00">libccc_define.h</text>
</a>
</g>
</g>
<!-- Node3&#45;&gt;Node4 -->
<g id="edge3" class="edge">
<title>Node3&#45;&gt;Node4</title>
<path fill="none" stroke="midnightblue" d="M149.22,-224.42C119.69,-204.93 55.04,-155.61 81,-112 90.1,-96.72 106.39,-86.31 122.14,-79.39"/>
<polygon fill="midnightblue" stroke="midnightblue" points="123.83,-82.48 131.82,-75.51 121.23,-75.98 123.83,-82.48"/>
</g>
<!-- Node6 -->
<g id="node6" class="node">
<title>Node6</title>
<g id="a_node6"><a xlink:href="libccc__errors_8h.html" target="_top" xlink:title=" ">
<polygon fill="white" stroke="black" points="90,-112.5 90,-131.5 170,-131.5 170,-112.5 90,-112.5"/>
<text text-anchor="middle" x="130" y="-119.5" font-family="Consolas" font-size="10.00">libccc_errors.h</text>
</a>
</g>
</g>
<!-- Node3&#45;&gt;Node6 -->
<g id="edge5" class="edge">
<title>Node3&#45;&gt;Node6</title>
<path fill="none" stroke="midnightblue" d="M159.99,-224.42C156.86,-215.39 151.89,-200.76 148,-188 143.25,-172.42 138.35,-154.59 134.86,-141.55"/>
<polygon fill="midnightblue" stroke="midnightblue" points="138.24,-140.64 132.3,-131.87 131.48,-142.44 138.24,-140.64"/>
</g>
<!-- Node7 -->
<g id="node7" class="node">
<title>Node7</title>
<g id="a_node7"><a xlink:href="libccc__config_8h.html" target="_top" xlink:title=" ">
<polygon fill="white" stroke="black" points="157,-168.5 157,-187.5 239,-187.5 239,-168.5 157,-168.5"/>
<text text-anchor="middle" x="198" y="-175.5" font-family="Consolas" font-size="10.00">libccc_config.h</text>
</a>
</g>
</g>
<!-- Node3&#45;&gt;Node7 -->
<g id="edge7" class="edge">
<title>Node3&#45;&gt;Node7</title>
<path fill="none" stroke="midnightblue" d="M168.78,-224.08C173.67,-216.53 180.83,-205.49 186.83,-196.23"/>
<polygon fill="midnightblue" stroke="midnightblue" points="189.83,-198.05 192.33,-187.75 183.95,-194.24 189.83,-198.05"/>
</g>
<!-- Node8 -->
<g id="node8" class="node">
<title>Node8</title>
<g id="a_node8"><a xlink:href="libccc__naming_8h.html" target="_top" xlink:title=" ">
<polygon fill="white" stroke="black" points="226.5,-112.5 226.5,-131.5 313.5,-131.5 313.5,-112.5 226.5,-112.5"/>
<text text-anchor="middle" x="270" y="-119.5" font-family="Consolas" font-size="10.00">libccc_naming.h</text>
</a>
</g>
</g>
<!-- Node3&#45;&gt;Node8 -->
<g id="edge10" class="edge">
<title>Node3&#45;&gt;Node8</title>
<path fill="none" stroke="midnightblue" d="M188.23,-225.36C207.12,-218.43 232.31,-206.44 248,-188 259.21,-174.83 264.78,-155.69 267.5,-141.59"/>
<polygon fill="midnightblue" stroke="midnightblue" points="270.98,-142 269.13,-131.57 264.07,-140.88 270.98,-142"/>
</g>
<!-- Node5 -->
<g id="node5" class="node">
<title>Node5</title>
<g id="a_node5"><a xlink:title=" ">
<polygon fill="white" stroke="#bfbfbf" points="134.5,-0.5 134.5,-19.5 193.5,-19.5 193.5,-0.5 134.5,-0.5"/>
<text text-anchor="middle" x="164" y="-7.5" font-family="Consolas" font-size="10.00">stdalign.h</text>
</a>
</g>
</g>
<!-- Node4&#45;&gt;Node5 -->
<g id="edge4" class="edge">
<title>Node4&#45;&gt;Node5</title>
<path fill="none" stroke="midnightblue" d="M164,-56.08C164,-49.01 164,-38.86 164,-29.99"/>
<polygon fill="midnightblue" stroke="midnightblue" points="167.5,-29.75 164,-19.75 160.5,-29.75 167.5,-29.75"/>
</g>
<!-- Node6&#45;&gt;Node4 -->
<g id="edge6" class="edge">
<title>Node6&#45;&gt;Node4</title>
<path fill="none" stroke="midnightblue" d="M135.61,-112.08C140.37,-104.53 147.32,-93.49 153.15,-84.23"/>
<polygon fill="midnightblue" stroke="midnightblue" points="156.12,-86.08 158.49,-75.75 150.2,-82.35 156.12,-86.08"/>
</g>
<!-- Node7&#45;&gt;Node4 -->
<g id="edge8" class="edge">
<title>Node7&#45;&gt;Node4</title>
<path fill="none" stroke="midnightblue" d="M195.52,-168.14C191.99,-155.6 185.25,-131.97 179,-112 176.23,-103.15 173,-93.37 170.24,-85.2"/>
<polygon fill="midnightblue" stroke="midnightblue" points="173.51,-83.94 166.97,-75.6 166.88,-86.19 173.51,-83.94"/>
</g>
<!-- Node7&#45;&gt;Node6 -->
<g id="edge9" class="edge">
<title>Node7&#45;&gt;Node6</title>
<path fill="none" stroke="midnightblue" d="M187.07,-168.32C176.83,-160.18 161.28,-147.84 149,-138.09"/>
<polygon fill="midnightblue" stroke="midnightblue" points="151.13,-135.31 141.12,-131.83 146.78,-140.79 151.13,-135.31"/>
</g>
<!-- Node8&#45;&gt;Node4 -->
<g id="edge11" class="edge">
<title>Node8&#45;&gt;Node4</title>
<path fill="none" stroke="midnightblue" d="M252.97,-112.32C235.97,-103.66 209.62,-90.24 190.01,-80.25"/>
<polygon fill="midnightblue" stroke="midnightblue" points="191.49,-77.08 180.99,-75.65 188.31,-83.31 191.49,-77.08"/>
</g>
<!-- Node10&#45;&gt;Node3 -->
<g id="edge15" class="edge">
<title>Node10&#45;&gt;Node3</title>
<path fill="none" stroke="midnightblue" d="M156.32,-280.08C157.38,-272.93 158.91,-262.64 160.23,-253.69"/>
<polygon fill="midnightblue" stroke="midnightblue" points="163.7,-254.16 161.7,-243.75 156.78,-253.13 163.7,-254.16"/>
</g>
<!-- Node11 -->
<g id="node11" class="node">
<title>Node11</title>
<g id="a_node11"><a xlink:title=" ">
<polygon fill="white" stroke="#bfbfbf" points="70.5,-224.5 70.5,-243.5 119.5,-243.5 119.5,-224.5 70.5,-224.5"/>
<text text-anchor="middle" x="95" y="-231.5" font-family="Consolas" font-size="10.00">stdint.h</text>
</a>
</g>
</g>
<!-- Node10&#45;&gt;Node11 -->
<g id="edge14" class="edge">
<title>Node10&#45;&gt;Node11</title>
<path fill="none" stroke="midnightblue" d="M145.36,-280.32C136.49,-272.34 123.13,-260.31 112.39,-250.65"/>
<polygon fill="midnightblue" stroke="midnightblue" points="114.59,-247.92 104.82,-243.83 109.91,-253.13 114.59,-247.92"/>
</g>
<!-- Node12&#45;&gt;Node3 -->
<g id="edge19" class="edge">
<title>Node12&#45;&gt;Node3</title>
<path fill="none" stroke="midnightblue" d="M79.91,-280.32C95.64,-271.74 119.94,-258.49 138.21,-248.52"/>
<polygon fill="midnightblue" stroke="midnightblue" points="140.03,-251.52 147.13,-243.65 136.68,-245.37 140.03,-251.52"/>
</g>
<!-- Node12&#45;&gt;Node11 -->
<g id="edge18" class="edge">
<title>Node12&#45;&gt;Node11</title>
<path fill="none" stroke="midnightblue" d="M69.12,-280.08C73.41,-272.61 79.66,-261.72 84.94,-252.52"/>
<polygon fill="midnightblue" stroke="midnightblue" points="88.03,-254.17 89.98,-243.75 81.96,-250.68 88.03,-254.17"/>
</g>
<!-- Node13 -->
<g id="node13" class="node">
<title>Node13</title>
<g id="a_node13"><a xlink:title=" ">
<polygon fill="white" stroke="#bfbfbf" points="0,-224.5 0,-243.5 52,-243.5 52,-224.5 0,-224.5"/>
<text text-anchor="middle" x="26" y="-231.5" font-family="Consolas" font-size="10.00">stddef.h</text>
</a>
</g>
</g>
<!-- Node12&#45;&gt;Node13 -->
<g id="edge17" class="edge">
<title>Node12&#45;&gt;Node13</title>
<path fill="none" stroke="midnightblue" d="M57.73,-280.08C52.36,-272.46 44.48,-261.26 37.92,-251.94"/>
<polygon fill="midnightblue" stroke="midnightblue" points="40.78,-249.91 32.16,-243.75 35.05,-253.94 40.78,-249.91"/>
</g>
</g>
</svg>
