<?xml version="1.0" encoding="UTF-8" standalone="no"?>
<!DOCTYPE svg PUBLIC "-//W3C//DTD SVG 1.1//EN"
 "http://www.w3.org/Graphics/SVG/1.1/DTD/svg11.dtd">
<!-- Generated by graphviz version 2.49.3 (20211023.0002)
 -->
<!-- Title: hdr/libccc/monad/tree.c Pages: 1 -->
<!--zoomable 420 -->
<svg id="main" version="1.1" xmlns="http://www.w3.org/2000/svg" xmlns:xlink="http://www.w3.org/1999/xlink" xml:space="preserve" onload="init(evt)">
<style type="text/css"><![CDATA[
.edge:hover path { stroke: red; }
.edge:hover polygon { stroke: red; fill: red; }
]]></style>
<script type="text/javascript"><![CDATA[
var edges = document.getElementsByTagName('g');
if (edges && edges.length) {
  for (var i=0;i<edges.length;i++) {
    if (edges[i].id.substr(0,4)=='edge') {
      edges[i].setAttribute('class','edge');
    }
  }
}
]]></script>
        <defs>
                <circle id="rim" cx="0" cy="0" r="7"/>
                <circle id="rim2" cx="0" cy="0" r="3.5"/>
                <g id="zoomPlus">
                        <use xlink:href="#rim" fill="#404040">
                                <set attributeName="fill" to="#808080" begin="zoomplus.mouseover" end="zoomplus.mouseout"/>
                        </use>
                        <path d="M-4,0h8M0,-4v8" fill="none" stroke="white" stroke-width="1.5" pointer-events="none"/>
                </g>
                <g id="zoomMin">
                        <use xlink:href="#rim" fill="#404040">
                                <set attributeName="fill" to="#808080" begin="zoomminus.mouseover" end="zoomminus.mouseout"/>
                        </use>
                        <path d="M-4,0h8" fill="none" stroke="white" stroke-width="1.5" pointer-events="none"/>
                </g>
                <g id="dirArrow">
                        <path fill="none" stroke="white" stroke-width="1.5" d="M0,-3.0v7 M-2.5,-0.5L0,-3.0L2.5,-0.5"/>
                </g>
               <g id="resetDef">
                       <use xlink:href="#rim2" fill="#404040">
                               <set attributeName="fill" to="#808080" begin="reset.mouseover" end="reset.mouseout"/>
                       </use>
               </g>
        </defs>

<script type="text/javascript">
var viewWidth = 684;
var viewHeight = 420;
var sectionId = 'dynsection-0';
</script>
<script xlink:href="svgpan.js"/>
<svg id="graph" class="graph">
<g id="viewport">
<title>hdr/libccc/monad/tree.c</title>
<polygon fill="white" stroke="transparent" points="-4,4 -4,-416 680.33,-416 680.33,4 -4,4"/>
<!-- Node1 -->
<g id="node1" class="node">
<title>Node1</title>
<g id="a_node1"><a xlink:title=" ">
<polygon fill="#bfbfbf" stroke="black" points="376,-392.5 376,-411.5 495,-411.5 495,-392.5 376,-392.5"/>
<text text-anchor="middle" x="435.5" y="-399.5" font-family="Consolas" font-size="10.00">hdr/libccc/monad/tree.c</text>
</a>
</g>
</g>
<!-- Node2 -->
<g id="node2" class="node">
<title>Node2</title>
<g id="a_node2"><a xlink:href="tree_8h.html" target="_top" xlink:title=" ">
<polygon fill="white" stroke="black" points="384.5,-336.5 384.5,-355.5 486.5,-355.5 486.5,-336.5 384.5,-336.5"/>
<text text-anchor="middle" x="435.5" y="-343.5" font-family="Consolas" font-size="10.00">libccc/monad/tree.h</text>
</a>
</g>
</g>
<!-- Node1&#45;&gt;Node2 -->
<g id="edge1" class="edge">
<title>Node1&#45;&gt;Node2</title>
<path fill="none" stroke="midnightblue" d="M430.33,-392.08C428.82,-384.93 428.39,-374.64 429.04,-365.69"/>
<polygon fill="midnightblue" stroke="midnightblue" points="432.52,-366.13 430.37,-355.75 425.58,-365.2 432.52,-366.13"/>
</g>
<!-- Node2&#45;&gt;Node1 -->
<g id="edge32" class="edge">
<title>Node2&#45;&gt;Node1</title>
<path fill="none" stroke="midnightblue" d="M440.63,-355.75C442.16,-362.86 442.6,-373.14 441.97,-382.1"/>
<polygon fill="midnightblue" stroke="midnightblue" points="438.49,-381.71 440.67,-392.08 445.43,-382.62 438.49,-381.71"/>
</g>
<!-- Node3 -->
<g id="node3" class="node">
<title>Node3</title>
<g id="a_node3"><a xlink:href="bool_8h.html" target="_top" xlink:title=" ">
<polygon fill="white" stroke="black" points="0,-168.5 0,-187.5 71,-187.5 71,-168.5 0,-168.5"/>
<text text-anchor="middle" x="35.5" y="-175.5" font-family="Consolas" font-size="10.00">libccc/bool.h</text>
</a>
</g>
</g>
<!-- Node2&#45;&gt;Node3 -->
<g id="edge2" class="edge">
<title>Node2&#45;&gt;Node3</title>
<path fill="none" stroke="midnightblue" d="M414.84,-336.42C349,-309.1 143.94,-224 65.99,-191.65"/>
<polygon fill="midnightblue" stroke="midnightblue" points="66.86,-188.22 56.28,-187.62 64.17,-194.69 66.86,-188.22"/>
</g>
<!-- Node14 -->
<g id="node14" class="node">
<title>Node14</title>
<g id="a_node14"><a xlink:href="int_8h.html" target="_top" xlink:title=" ">
<polygon fill="white" stroke="black" points="575.5,-168.5 575.5,-187.5 639.5,-187.5 639.5,-168.5 575.5,-168.5"/>
<text text-anchor="middle" x="607.5" y="-175.5" font-family="Consolas" font-size="10.00">libccc/int.h</text>
</a>
</g>
</g>
<!-- Node2&#45;&gt;Node14 -->
<g id="edge30" class="edge">
<title>Node2&#45;&gt;Node14</title>
<path fill="none" stroke="midnightblue" d="M486.59,-339.46C543.01,-330.31 631.32,-306.31 672.5,-244 685.96,-223.64 660.14,-204.41 637.17,-192.22"/>
<polygon fill="midnightblue" stroke="midnightblue" points="638.46,-188.95 627.95,-187.6 635.32,-195.21 638.46,-188.95"/>
</g>
<!-- Node17 -->
<g id="node17" class="node">
<title>Node17</title>
<g id="a_node17"><a xlink:href="pointer_8h.html" target="_top" xlink:title=" ">
<polygon fill="white" stroke="black" points="394.5,-280.5 394.5,-299.5 476.5,-299.5 476.5,-280.5 394.5,-280.5"/>
<text text-anchor="middle" x="435.5" y="-287.5" font-family="Consolas" font-size="10.00">libccc/pointer.h</text>
</a>
</g>
</g>
<!-- Node2&#45;&gt;Node17 -->
<g id="edge31" class="edge">
<title>Node2&#45;&gt;Node17</title>
<path fill="none" stroke="midnightblue" d="M435.5,-336.08C435.5,-329.01 435.5,-318.86 435.5,-309.99"/>
<polygon fill="midnightblue" stroke="midnightblue" points="439,-309.75 435.5,-299.75 432,-309.75 439,-309.75"/>
</g>
<!-- Node4 -->
<g id="node4" class="node">
<title>Node4</title>
<g id="a_node4"><a xlink:href="libccc_8h.html" target="_top" xlink:title=" ">
<polygon fill="white" stroke="black" points="372.5,-224.5 372.5,-243.5 422.5,-243.5 422.5,-224.5 372.5,-224.5"/>
<text text-anchor="middle" x="397.5" y="-231.5" font-family="Consolas" font-size="10.00">libccc.h</text>
</a>
</g>
</g>
<!-- Node3&#45;&gt;Node4 -->
<g id="edge3" class="edge">
<title>Node3&#45;&gt;Node4</title>
<path fill="none" stroke="midnightblue" d="M71.12,-184.03C78.91,-185.37 87.01,-186.79 94.5,-188 191.18,-203.67 305.17,-219.42 361.94,-227.48"/>
<polygon fill="midnightblue" stroke="midnightblue" points="361.79,-231 372.18,-228.95 362.77,-224.07 361.79,-231"/>
</g>
<!-- Node4&#45;&gt;Node3 -->
<g id="edge13" class="edge">
<title>Node4&#45;&gt;Node3</title>
<path fill="none" stroke="midnightblue" d="M372.1,-230.25C319.05,-223.76 193.54,-206.76 81.32,-188.76"/>
<polygon fill="midnightblue" stroke="midnightblue" points="81.63,-185.26 71.2,-187.12 80.51,-192.17 81.63,-185.26"/>
</g>
<!-- Node5 -->
<g id="node5" class="node">
<title>Node5</title>
<g id="a_node5"><a xlink:href="libccc__define_8h.html" target="_top" xlink:title=" ">
<polygon fill="white" stroke="black" points="166.5,-56.5 166.5,-75.5 248.5,-75.5 248.5,-56.5 166.5,-56.5"/>
<text text-anchor="middle" x="207.5" y="-63.5" font-family="Consolas" font-size="10.00">libccc_define.h</text>
</a>
</g>
</g>
<!-- Node4&#45;&gt;Node5 -->
<g id="edge4" class="edge">
<title>Node4&#45;&gt;Node5</title>
<path fill="none" stroke="midnightblue" d="M372.11,-229.72C312.16,-221.8 165.51,-201.29 147.5,-188 118.41,-166.54 99.56,-142.8 118.5,-112 128.05,-96.47 144.81,-86.1 161.23,-79.27"/>
<polygon fill="midnightblue" stroke="midnightblue" points="162.68,-82.46 170.8,-75.65 160.21,-75.92 162.68,-82.46"/>
</g>
<!-- Node7 -->
<g id="node7" class="node">
<title>Node7</title>
<g id="a_node7"><a xlink:href="libccc__errors_8h.html" target="_top" xlink:title=" ">
<polygon fill="white" stroke="black" points="271.5,-112.5 271.5,-131.5 351.5,-131.5 351.5,-112.5 271.5,-112.5"/>
<text text-anchor="middle" x="311.5" y="-119.5" font-family="Consolas" font-size="10.00">libccc_errors.h</text>
</a>
</g>
</g>
<!-- Node4&#45;&gt;Node7 -->
<g id="edge6" class="edge">
<title>Node4&#45;&gt;Node7</title>
<path fill="none" stroke="midnightblue" d="M390.75,-224.37C376.5,-206.14 343.11,-163.43 324.54,-139.68"/>
<polygon fill="midnightblue" stroke="midnightblue" points="327.13,-137.31 318.22,-131.59 321.62,-141.63 327.13,-137.31"/>
</g>
<!-- Node8 -->
<g id="node8" class="node">
<title>Node8</title>
<g id="a_node8"><a xlink:href="libccc__config_8h.html" target="_top" xlink:title=" ">
<polygon fill="white" stroke="black" points="255.5,-168.5 255.5,-187.5 337.5,-187.5 337.5,-168.5 255.5,-168.5"/>
<text text-anchor="middle" x="296.5" y="-175.5" font-family="Consolas" font-size="10.00">libccc_config.h</text>
</a>
</g>
</g>
<!-- Node4&#45;&gt;Node8 -->
<g id="edge8" class="edge">
<title>Node4&#45;&gt;Node8</title>
<path fill="none" stroke="midnightblue" d="M381.27,-224.32C365.15,-215.7 340.2,-202.36 321.54,-192.39"/>
<polygon fill="midnightblue" stroke="midnightblue" points="323.16,-189.28 312.69,-187.65 319.86,-195.46 323.16,-189.28"/>
</g>
<!-- Node9 -->
<g id="node9" class="node">
<title>Node9</title>
<g id="a_node9"><a xlink:href="libccc__naming_8h.html" target="_top" xlink:title=" ">
<polygon fill="white" stroke="black" points="128,-112.5 128,-131.5 215,-131.5 215,-112.5 128,-112.5"/>
<text text-anchor="middle" x="171.5" y="-119.5" font-family="Consolas" font-size="10.00">libccc_naming.h</text>
</a>
</g>
</g>
<!-- Node4&#45;&gt;Node9 -->
<g id="edge11" class="edge">
<title>Node4&#45;&gt;Node9</title>
<path fill="none" stroke="midnightblue" d="M372.13,-230.1C313.05,-223.09 170.27,-204.58 156.5,-188 145.44,-174.68 152.41,-154.75 160.13,-140.47"/>
<polygon fill="midnightblue" stroke="midnightblue" points="163.28,-142.03 165.38,-131.64 157.26,-138.45 163.28,-142.03"/>
</g>
<!-- Node10 -->
<g id="node10" class="node">
<title>Node10</title>
<g id="a_node10"><a xlink:href="char_8h.html" target="_top" xlink:title=" ">
<polygon fill="white" stroke="black" points="394,-168.5 394,-187.5 465,-187.5 465,-168.5 394,-168.5"/>
<text text-anchor="middle" x="429.5" y="-175.5" font-family="Consolas" font-size="10.00">libccc/char.h</text>
</a>
</g>
</g>
<!-- Node4&#45;&gt;Node10 -->
<g id="edge14" class="edge">
<title>Node4&#45;&gt;Node10</title>
<path fill="none" stroke="midnightblue" d="M397.62,-224.08C400.53,-216.46 406.78,-205.26 413.15,-195.94"/>
<polygon fill="midnightblue" stroke="midnightblue" points="416.07,-197.88 419.18,-187.75 410.43,-193.72 416.07,-197.88"/>
</g>
<!-- Node4&#45;&gt;Node14 -->
<g id="edge19" class="edge">
<title>Node4&#45;&gt;Node14</title>
<path fill="none" stroke="midnightblue" d="M422.69,-225.26C458.15,-215.54 522.85,-198.88 565.59,-188.42"/>
<polygon fill="midnightblue" stroke="midnightblue" points="566.52,-191.8 575.42,-186.04 564.87,-184.99 566.52,-191.8"/>
</g>
<!-- Node15 -->
<g id="node15" class="node">
<title>Node15</title>
<g id="a_node15"><a xlink:href="fixed_8h.html" target="_top" xlink:title=" ">
<polygon fill="white" stroke="black" points="483.5,-168.5 483.5,-187.5 557.5,-187.5 557.5,-168.5 483.5,-168.5"/>
<text text-anchor="middle" x="520.5" y="-175.5" font-family="Consolas" font-size="10.00">libccc/fixed.h</text>
</a>
</g>
</g>
<!-- Node4&#45;&gt;Node15 -->
<g id="edge22" class="edge">
<title>Node4&#45;&gt;Node15</title>
<path fill="none" stroke="midnightblue" d="M412.15,-224.32C430.48,-215.43 461.97,-201.51 486.38,-191.44"/>
<polygon fill="midnightblue" stroke="midnightblue" points="487.73,-194.67 495.68,-187.65 485.1,-188.18 487.73,-194.67"/>
</g>
<!-- Node16 -->
<g id="node16" class="node">
<title>Node16</title>
<g id="a_node16"><a xlink:href="float_8h.html" target="_top" xlink:title=" ">
<polygon fill="white" stroke="black" points="165.5,-168.5 165.5,-187.5 237.5,-187.5 237.5,-168.5 165.5,-168.5"/>
<text text-anchor="middle" x="201.5" y="-175.5" font-family="Consolas" font-size="10.00">libccc/float.h</text>
</a>
</g>
</g>
<!-- Node4&#45;&gt;Node16 -->
<g id="edge24" class="edge">
<title>Node4&#45;&gt;Node16</title>
<path fill="none" stroke="midnightblue" d="M372.15,-227.22C337.68,-218.46 276.24,-201.65 237.17,-190.38"/>
<polygon fill="midnightblue" stroke="midnightblue" points="238.09,-187 227.51,-187.57 236.13,-193.72 238.09,-187"/>
</g>
<!-- Node4&#45;&gt;Node17 -->
<g id="edge26" class="edge">
<title>Node4&#45;&gt;Node17</title>
<path fill="none" stroke="midnightblue" d="M408.79,-243.75C415.6,-251.17 423.67,-262.05 429.41,-271.27"/>
<polygon fill="midnightblue" stroke="midnightblue" points="426.42,-273.1 434.39,-280.08 432.51,-269.66 426.42,-273.1"/>
</g>
<!-- Node6 -->
<g id="node6" class="node">
<title>Node6</title>
<g id="a_node6"><a xlink:title=" ">
<polygon fill="white" stroke="#bfbfbf" points="178,-0.5 178,-19.5 237,-19.5 237,-0.5 178,-0.5"/>
<text text-anchor="middle" x="207.5" y="-7.5" font-family="Consolas" font-size="10.00">stdalign.h</text>
</a>
</g>
</g>
<!-- Node5&#45;&gt;Node6 -->
<g id="edge5" class="edge">
<title>Node5&#45;&gt;Node6</title>
<path fill="none" stroke="midnightblue" d="M207.5,-56.08C207.5,-49.01 207.5,-38.86 207.5,-29.99"/>
<polygon fill="midnightblue" stroke="midnightblue" points="211,-29.75 207.5,-19.75 204,-29.75 211,-29.75"/>
</g>
<!-- Node7&#45;&gt;Node5 -->
<g id="edge7" class="edge">
<title>Node7&#45;&gt;Node5</title>
<path fill="none" stroke="midnightblue" d="M294.79,-112.32C278.19,-103.7 252.5,-90.36 233.28,-80.39"/>
<polygon fill="midnightblue" stroke="midnightblue" points="234.66,-77.16 224.17,-75.65 231.43,-83.37 234.66,-77.16"/>
</g>
<!-- Node8&#45;&gt;Node5 -->
<g id="edge9" class="edge">
<title>Node8&#45;&gt;Node5</title>
<path fill="none" stroke="midnightblue" d="M289.52,-168.37C274.76,-150.14 240.21,-107.43 220.99,-83.68"/>
<polygon fill="midnightblue" stroke="midnightblue" points="223.46,-81.16 214.45,-75.59 218.02,-85.57 223.46,-81.16"/>
</g>
<!-- Node8&#45;&gt;Node7 -->
<g id="edge10" class="edge">
<title>Node8&#45;&gt;Node7</title>
<path fill="none" stroke="midnightblue" d="M298.98,-168.08C300.99,-160.85 303.89,-150.41 306.39,-141.4"/>
<polygon fill="midnightblue" stroke="midnightblue" points="309.76,-142.32 309.07,-131.75 303.02,-140.45 309.76,-142.32"/>
</g>
<!-- Node9&#45;&gt;Node5 -->
<g id="edge12" class="edge">
<title>Node9&#45;&gt;Node5</title>
<path fill="none" stroke="midnightblue" d="M177.44,-112.08C182.48,-104.53 189.84,-93.49 196.01,-84.23"/>
<polygon fill="midnightblue" stroke="midnightblue" points="199.03,-86.01 201.67,-75.75 193.21,-82.13 199.03,-86.01"/>
</g>
<!-- Node10&#45;&gt;Node4 -->
<g id="edge16" class="edge">
<title>Node10&#45;&gt;Node4</title>
<path fill="none" stroke="midnightblue" d="M429.45,-187.75C426.58,-195.33 420.36,-206.5 413.99,-215.86"/>
<polygon fill="midnightblue" stroke="midnightblue" points="411.05,-213.95 407.95,-224.08 416.69,-218.09 411.05,-213.95"/>
</g>
<!-- Node11 -->
<g id="node11" class="node">
<title>Node11</title>
<g id="a_node11"><a xlink:title=" ">
<polygon fill="white" stroke="#bfbfbf" points="606,-112.5 606,-131.5 655,-131.5 655,-112.5 606,-112.5"/>
<text text-anchor="middle" x="630.5" y="-119.5" font-family="Consolas" font-size="10.00">stdint.h</text>
</a>
</g>
</g>
<!-- Node10&#45;&gt;Node11 -->
<g id="edge15" class="edge">
<title>Node10&#45;&gt;Node11</title>
<path fill="none" stroke="midnightblue" d="M461.41,-168.5C493.23,-160.01 543.77,-146.5 596.19,-132.35"/>
<polygon fill="midnightblue" stroke="midnightblue" points="597.25,-135.68 606,-129.7 595.43,-128.93 597.25,-135.68"/>
</g>
<!-- Node12 -->
<g id="node12" class="node">
<title>Node12</title>
<g id="a_node12"><a xlink:title=" ">
<polygon fill="white" stroke="#bfbfbf" points="495,-112.5 495,-131.5 588,-131.5 588,-112.5 495,-112.5"/>
<text text-anchor="middle" x="541.5" y="-119.5" font-family="Consolas" font-size="10.00">libccc/text/ascii.h</text>
</a>
</g>
</g>
<!-- Node10&#45;&gt;Node12 -->
<g id="edge17" class="edge">
<title>Node10&#45;&gt;Node12</title>
<path fill="none" stroke="midnightblue" d="M447.49,-168.32C465.54,-159.62 493.55,-146.12 514.3,-136.11"/>
<polygon fill="midnightblue" stroke="midnightblue" points="516.06,-139.15 523.55,-131.65 513.02,-132.84 516.06,-139.15"/>
</g>
<!-- Node13 -->
<g id="node13" class="node">
<title>Node13</title>
<g id="a_node13"><a xlink:title=" ">
<polygon fill="white" stroke="#bfbfbf" points="370,-112.5 370,-131.5 477,-131.5 477,-112.5 370,-112.5"/>
<text text-anchor="middle" x="423.5" y="-119.5" font-family="Consolas" font-size="10.00">libccc/text/unicode.h</text>
</a>
</g>
</g>
<!-- Node10&#45;&gt;Node13 -->
<g id="edge18" class="edge">
<title>Node10&#45;&gt;Node13</title>
<path fill="none" stroke="midnightblue" d="M428.51,-168.08C427.71,-160.93 426.57,-150.64 425.58,-141.69"/>
<polygon fill="midnightblue" stroke="midnightblue" points="429.06,-141.3 424.47,-131.75 422.1,-142.08 429.06,-141.3"/>
</g>
<!-- Node14&#45;&gt;Node4 -->
<g id="edge21" class="edge">
<title>Node14&#45;&gt;Node4</title>
<path fill="none" stroke="midnightblue" d="M579.42,-187.53C541.39,-197.89 473.86,-215.24 432.55,-225.25"/>
<polygon fill="midnightblue" stroke="midnightblue" points="431.55,-221.89 422.65,-227.62 433.19,-228.69 431.55,-221.89"/>
</g>
<!-- Node14&#45;&gt;Node11 -->
<g id="edge20" class="edge">
<title>Node14&#45;&gt;Node11</title>
<path fill="none" stroke="midnightblue" d="M611.3,-168.08C614.41,-160.77 618.92,-150.18 622.79,-141.1"/>
<polygon fill="midnightblue" stroke="midnightblue" points="626.07,-142.32 626.77,-131.75 619.63,-139.58 626.07,-142.32"/>
</g>
<!-- Node15&#45;&gt;Node4 -->
<g id="edge23" class="edge">
<title>Node15&#45;&gt;Node4</title>
<path fill="none" stroke="midnightblue" d="M506.18,-187.52C487.85,-196.43 456.02,-210.5 431.44,-220.64"/>
<polygon fill="midnightblue" stroke="midnightblue" points="430.02,-217.43 422.08,-224.44 432.66,-223.92 430.02,-217.43"/>
</g>
<!-- Node16&#45;&gt;Node4 -->
<g id="edge25" class="edge">
<title>Node16&#45;&gt;Node4</title>
<path fill="none" stroke="midnightblue" d="M237.45,-187.51C273.1,-196.77 327.15,-211.61 362.46,-221.81"/>
<polygon fill="midnightblue" stroke="midnightblue" points="361.76,-225.25 372.34,-224.68 363.72,-218.53 361.76,-225.25"/>
</g>
<!-- Node17&#45;&gt;Node4 -->
<g id="edge29" class="edge">
<title>Node17&#45;&gt;Node4</title>
<path fill="none" stroke="midnightblue" d="M424.06,-280.08C417.23,-272.61 409.16,-261.72 403.46,-252.52"/>
<polygon fill="midnightblue" stroke="midnightblue" points="406.48,-250.75 398.53,-243.75 400.38,-254.18 406.48,-250.75"/>
</g>
<!-- Node17&#45;&gt;Node11 -->
<g id="edge28" class="edge">
<title>Node17&#45;&gt;Node11</title>
<path fill="none" stroke="midnightblue" d="M461.98,-280.41C514.17,-262.88 627.11,-221.81 648.5,-188 657.76,-173.37 650.31,-153.95 642.37,-140.16"/>
<polygon fill="midnightblue" stroke="midnightblue" points="645.29,-138.23 637,-131.64 639.37,-141.96 645.29,-138.23"/>
</g>
<!-- Node18 -->
<g id="node18" class="node">
<title>Node18</title>
<g id="a_node18"><a xlink:title=" ">
<polygon fill="white" stroke="#bfbfbf" points="611.5,-224.5 611.5,-243.5 663.5,-243.5 663.5,-224.5 611.5,-224.5"/>
<text text-anchor="middle" x="637.5" y="-231.5" font-family="Consolas" font-size="10.00">stddef.h</text>
</a>
</g>
</g>
<!-- Node17&#45;&gt;Node18 -->
<g id="edge27" class="edge">
<title>Node17&#45;&gt;Node18</title>
<path fill="none" stroke="midnightblue" d="M467.51,-280.44C503.91,-270.71 563.22,-254.86 601.29,-244.68"/>
<polygon fill="midnightblue" stroke="midnightblue" points="602.67,-247.93 611.42,-241.97 600.86,-241.17 602.67,-247.93"/>
</g>
</g>
</svg>
        <g id="navigator" transform="translate(0 0)" fill="#404254">
                <rect fill="#f2f5e9" fill-opacity="0.5" stroke="#606060" stroke-width=".5" x="0" y="0" width="60" height="60"/>
                <use id="zoomplus" xlink:href="#zoomPlus" x="17" y="9" onmousedown="handleZoom(evt,'in')"/>
                <use id="zoomminus" xlink:href="#zoomMin" x="42" y="9" onmousedown="handleZoom(evt,'out')"/>
                <use id="reset" xlink:href="#resetDef" x="30" y="36" onmousedown="handleReset()"/>
                <g id="arrowUp" xlink:href="#dirArrow" transform="translate(30 24)" onmousedown="handlePan(0,-1)">
                  <use xlink:href="#rim" fill="#404040">
                        <set attributeName="fill" to="#808080" begin="arrowUp.mouseover" end="arrowUp.mouseout"/>
                  </use>
                  <path fill="none" stroke="white" stroke-width="1.5" d="M0,-3.0v7 M-2.5,-0.5L0,-3.0L2.5,-0.5"/>
                </g>
                <g id="arrowRight" xlink:href="#dirArrow" transform="rotate(90) translate(36 -43)" onmousedown="handlePan(1,0)">
                  <use xlink:href="#rim" fill="#404040">
                        <set attributeName="fill" to="#808080" begin="arrowRight.mouseover" end="arrowRight.mouseout"/>
                  </use>
                  <path fill="none" stroke="white" stroke-width="1.5" d="M0,-3.0v7 M-2.5,-0.5L0,-3.0L2.5,-0.5"/>
                </g>
                <g id="arrowDown" xlink:href="#dirArrow" transform="rotate(180) translate(-30 -48)" onmousedown="handlePan(0,1)">
                  <use xlink:href="#rim" fill="#404040">
                        <set attributeName="fill" to="#808080" begin="arrowDown.mouseover" end="arrowDown.mouseout"/>
                  </use>
                  <path fill="none" stroke="white" stroke-width="1.5" d="M0,-3.0v7 M-2.5,-0.5L0,-3.0L2.5,-0.5"/>
                </g>
                <g id="arrowLeft" xlink:href="#dirArrow" transform="rotate(270) translate(-36 17)" onmousedown="handlePan(-1,0)">
                  <use xlink:href="#rim" fill="#404040">
                        <set attributeName="fill" to="#808080" begin="arrowLeft.mouseover" end="arrowLeft.mouseout"/>
                  </use>
                  <path fill="none" stroke="white" stroke-width="1.5" d="M0,-3.0v7 M-2.5,-0.5L0,-3.0L2.5,-0.5"/>
                </g>
        </g>
        <svg viewBox="0 0 15 15" width="100%" height="30px" preserveAspectRatio="xMaxYMin meet">
         <g id="arrow_out" transform="scale(0.3 0.3)">
          <a xlink:href="tree_8c__incl_org.svg" target="_base">
           <rect id="button" ry="5" rx="5" y="6" x="6" height="38" width="38"
                fill="#f2f5e9" fill-opacity="0.5" stroke="#606060" stroke-width="1.0"/>
           <path id="arrow"
             d="M 11.500037,31.436501 C 11.940474,20.09759 22.043105,11.32322 32.158766,21.979434 L 37.068811,17.246167 C 37.068811,17.246167 37.088388,32 37.088388,32 L 22.160133,31.978069 C 22.160133,31.978069 26.997745,27.140456 26.997745,27.140456 C 18.528582,18.264221 13.291696,25.230495 11.500037,31.436501 z"
             style="fill:#404040;"/>
          </a>
         </g>
        </svg>
</svg>
