<?xml version="1.0" encoding="UTF-8" standalone="no"?>
<!DOCTYPE svg PUBLIC "-//W3C//DTD SVG 1.1//EN"
 "http://www.w3.org/Graphics/SVG/1.1/DTD/svg11.dtd">
<!-- Generated by graphviz version 2.43.0 (0)
 -->
<!-- Title: libccc/generic/tree.h Pages: 1 -->
<svg width="469pt" height="364pt"
 viewBox="0.00 0.00 469.00 364.00" xmlns="http://www.w3.org/2000/svg" xmlns:xlink="http://www.w3.org/1999/xlink">
<g id="graph0" class="graph" transform="scale(1 1) rotate(0) translate(4 360)">
<title>libccc/generic/tree.h</title>
<polygon fill="white" stroke="transparent" points="-4,4 -4,-360 465,-360 465,4 -4,4"/>
<!-- Node1 -->
<g id="node1" class="node">
<title>Node1</title>
<g id="a_node1"><a xlink:title=" ">
<polygon fill="#bfbfbf" stroke="black" points="159,-336.5 159,-355.5 286,-355.5 286,-336.5 159,-336.5"/>
<text text-anchor="middle" x="222.5" y="-343.5" font-family="Consolas" font-size="10.00">libccc/generic/tree.h</text>
</a>
</g>
</g>
<!-- Node2 -->
<g id="node2" class="node">
<title>Node2</title>
<g id="a_node2"><a xlink:href="bool_8h.html" target="_top" xlink:title=" ">
<polygon fill="white" stroke="black" points="231,-280.5 231,-299.5 316,-299.5 316,-280.5 231,-280.5"/>
<text text-anchor="middle" x="273.5" y="-287.5" font-family="Consolas" font-size="10.00">libccc/bool.h</text>
</a>
</g>
</g>
<!-- Node1&#45;&gt;Node2 -->
<g id="edge1" class="edge">
<title>Node1&#45;&gt;Node2</title>
<path fill="none" stroke="midnightblue" d="M230.92,-336.08C238.35,-328.22 249.35,-316.57 258.31,-307.08"/>
<polygon fill="midnightblue" stroke="midnightblue" points="260.91,-309.42 265.24,-299.75 255.82,-304.62 260.91,-309.42"/>
</g>
<!-- Node10 -->
<g id="node10" class="node">
<title>Node10</title>
<g id="a_node10"><a xlink:href="int_8h.html" target="_top" xlink:title=" ">
<polygon fill="white" stroke="black" points="132.5,-280.5 132.5,-299.5 212.5,-299.5 212.5,-280.5 132.5,-280.5"/>
<text text-anchor="middle" x="172.5" y="-287.5" font-family="Consolas" font-size="10.00">libccc/int.h</text>
</a>
</g>
</g>
<!-- Node1&#45;&gt;Node10 -->
<g id="edge13" class="edge">
<title>Node1&#45;&gt;Node10</title>
<path fill="none" stroke="midnightblue" d="M214.24,-336.08C207.04,-328.3 196.39,-316.8 187.65,-307.37"/>
<polygon fill="midnightblue" stroke="midnightblue" points="189.97,-304.71 180.6,-299.75 184.83,-309.47 189.97,-304.71"/>
</g>
<!-- Node12 -->
<g id="node12" class="node">
<title>Node12</title>
<g id="a_node12"><a xlink:href="pointer_8h.html" target="_top" xlink:title=" ">
<polygon fill="white" stroke="black" points="13,-280.5 13,-299.5 114,-299.5 114,-280.5 13,-280.5"/>
<text text-anchor="middle" x="63.5" y="-287.5" font-family="Consolas" font-size="10.00">libccc/pointer.h</text>
</a>
</g>
</g>
<!-- Node1&#45;&gt;Node12 -->
<g id="edge16" class="edge">
<title>Node1&#45;&gt;Node12</title>
<path fill="none" stroke="midnightblue" d="M197.31,-336.44C170.56,-327.36 128.1,-312.94 98.19,-302.78"/>
<polygon fill="midnightblue" stroke="midnightblue" points="99.17,-299.42 88.58,-299.52 96.92,-306.05 99.17,-299.42"/>
</g>
<!-- Node14 -->
<g id="node14" class="node">
<title>Node14</title>
<g id="a_node14"><a xlink:title=" ">
<polygon fill="white" stroke="#bfbfbf" points="334,-280.5 334,-299.5 461,-299.5 461,-280.5 334,-280.5"/>
<text text-anchor="middle" x="397.5" y="-287.5" font-family="Consolas" font-size="10.00">libccc/generic/tree.c</text>
</a>
</g>
</g>
<!-- Node1&#45;&gt;Node14 -->
<g id="edge20" class="edge">
<title>Node1&#45;&gt;Node14</title>
<path fill="none" stroke="midnightblue" d="M250.23,-336.44C279.93,-327.28 327.22,-312.69 360.17,-302.52"/>
<polygon fill="midnightblue" stroke="midnightblue" points="361.38,-305.81 369.9,-299.52 359.31,-299.12 361.38,-305.81"/>
</g>
<!-- Node3 -->
<g id="node3" class="node">
<title>Node3</title>
<g id="a_node3"><a xlink:href="libccc_8h.html" target="_top" xlink:title=" ">
<polygon fill="white" stroke="black" points="154,-224.5 154,-243.5 213,-243.5 213,-224.5 154,-224.5"/>
<text text-anchor="middle" x="183.5" y="-231.5" font-family="Consolas" font-size="10.00">libccc.h</text>
</a>
</g>
</g>
<!-- Node2&#45;&gt;Node3 -->
<g id="edge2" class="edge">
<title>Node2&#45;&gt;Node3</title>
<path fill="none" stroke="midnightblue" d="M259.04,-280.32C245,-271.9 223.45,-258.97 206.96,-249.07"/>
<polygon fill="midnightblue" stroke="midnightblue" points="208.3,-245.8 197.92,-243.65 204.7,-251.8 208.3,-245.8"/>
</g>
<!-- Node9 -->
<g id="node9" class="node">
<title>Node9</title>
<g id="a_node9"><a xlink:title=" ">
<polygon fill="white" stroke="#bfbfbf" points="241.5,-224.5 241.5,-243.5 305.5,-243.5 305.5,-224.5 241.5,-224.5"/>
<text text-anchor="middle" x="273.5" y="-231.5" font-family="Consolas" font-size="10.00">stdbool.h</text>
</a>
</g>
</g>
<!-- Node2&#45;&gt;Node9 -->
<g id="edge12" class="edge">
<title>Node2&#45;&gt;Node9</title>
<path fill="none" stroke="midnightblue" d="M273.5,-280.08C273.5,-273.01 273.5,-262.86 273.5,-253.99"/>
<polygon fill="midnightblue" stroke="midnightblue" points="277,-253.75 273.5,-243.75 270,-253.75 277,-253.75"/>
</g>
<!-- Node4 -->
<g id="node4" class="node">
<title>Node4</title>
<g id="a_node4"><a xlink:href="libccc__define_8h.html" target="_top" xlink:title=" ">
<polygon fill="white" stroke="black" points="136,-56.5 136,-75.5 231,-75.5 231,-56.5 136,-56.5"/>
<text text-anchor="middle" x="183.5" y="-63.5" font-family="Consolas" font-size="10.00">libccc_define.h</text>
</a>
</g>
</g>
<!-- Node3&#45;&gt;Node4 -->
<g id="edge3" class="edge">
<title>Node3&#45;&gt;Node4</title>
<path fill="none" stroke="midnightblue" d="M167.5,-224.5C133.62,-205.36 60.01,-157.02 88.5,-112 98.55,-96.13 115.87,-85.74 133,-79"/>
<polygon fill="midnightblue" stroke="midnightblue" points="134.21,-82.28 142.45,-75.62 131.85,-75.69 134.21,-82.28"/>
</g>
<!-- Node6 -->
<g id="node6" class="node">
<title>Node6</title>
<g id="a_node6"><a xlink:href="libccc__errors_8h.html" target="_top" xlink:title=" ">
<polygon fill="white" stroke="black" points="98,-112.5 98,-131.5 193,-131.5 193,-112.5 98,-112.5"/>
<text text-anchor="middle" x="145.5" y="-119.5" font-family="Consolas" font-size="10.00">libccc_errors.h</text>
</a>
</g>
</g>
<!-- Node3&#45;&gt;Node6 -->
<g id="edge5" class="edge">
<title>Node3&#45;&gt;Node6</title>
<path fill="none" stroke="midnightblue" d="M179.84,-224.45C176.04,-215.46 170.04,-200.85 165.5,-188 160.03,-172.52 154.6,-154.68 150.78,-141.61"/>
<polygon fill="midnightblue" stroke="midnightblue" points="154.12,-140.55 147.99,-131.91 147.4,-142.48 154.12,-140.55"/>
</g>
<!-- Node7 -->
<g id="node7" class="node">
<title>Node7</title>
<g id="a_node7"><a xlink:href="libccc__config_8h.html" target="_top" xlink:title=" ">
<polygon fill="white" stroke="black" points="174,-168.5 174,-187.5 269,-187.5 269,-168.5 174,-168.5"/>
<text text-anchor="middle" x="221.5" y="-175.5" font-family="Consolas" font-size="10.00">libccc_config.h</text>
</a>
</g>
</g>
<!-- Node3&#45;&gt;Node7 -->
<g id="edge7" class="edge">
<title>Node3&#45;&gt;Node7</title>
<path fill="none" stroke="midnightblue" d="M189.77,-224.08C195.14,-216.46 203.02,-205.26 209.58,-195.94"/>
<polygon fill="midnightblue" stroke="midnightblue" points="212.45,-197.94 215.34,-187.75 206.72,-193.91 212.45,-197.94"/>
</g>
<!-- Node8 -->
<g id="node8" class="node">
<title>Node8</title>
<g id="a_node8"><a xlink:href="libccc__naming_8h.html" target="_top" xlink:title=" ">
<polygon fill="white" stroke="black" points="250,-112.5 250,-131.5 345,-131.5 345,-112.5 250,-112.5"/>
<text text-anchor="middle" x="297.5" y="-119.5" font-family="Consolas" font-size="10.00">libccc_naming.h</text>
</a>
</g>
</g>
<!-- Node3&#45;&gt;Node8 -->
<g id="edge10" class="edge">
<title>Node3&#45;&gt;Node8</title>
<path fill="none" stroke="midnightblue" d="M213.23,-225.9C234.29,-219.4 261.68,-207.71 278.5,-188 289.58,-175.02 294.2,-155.85 296.13,-141.69"/>
<polygon fill="midnightblue" stroke="midnightblue" points="299.62,-141.93 297.17,-131.63 292.66,-141.22 299.62,-141.93"/>
</g>
<!-- Node5 -->
<g id="node5" class="node">
<title>Node5</title>
<g id="a_node5"><a xlink:title=" ">
<polygon fill="white" stroke="#bfbfbf" points="149,-0.5 149,-19.5 218,-19.5 218,-0.5 149,-0.5"/>
<text text-anchor="middle" x="183.5" y="-7.5" font-family="Consolas" font-size="10.00">stdalign.h</text>
</a>
</g>
</g>
<!-- Node4&#45;&gt;Node5 -->
<g id="edge4" class="edge">
<title>Node4&#45;&gt;Node5</title>
<path fill="none" stroke="midnightblue" d="M183.5,-56.08C183.5,-49.01 183.5,-38.86 183.5,-29.99"/>
<polygon fill="midnightblue" stroke="midnightblue" points="187,-29.75 183.5,-19.75 180,-29.75 187,-29.75"/>
</g>
<!-- Node6&#45;&gt;Node4 -->
<g id="edge6" class="edge">
<title>Node6&#45;&gt;Node4</title>
<path fill="none" stroke="midnightblue" d="M151.77,-112.08C157.14,-104.46 165.02,-93.26 171.58,-83.94"/>
<polygon fill="midnightblue" stroke="midnightblue" points="174.45,-85.94 177.34,-75.75 168.72,-81.91 174.45,-85.94"/>
</g>
<!-- Node7&#45;&gt;Node4 -->
<g id="edge8" class="edge">
<title>Node7&#45;&gt;Node4</title>
<path fill="none" stroke="midnightblue" d="M219.35,-168.49C216.11,-155.97 209.6,-131.94 202.5,-112 199.26,-102.9 195.14,-92.99 191.57,-84.79"/>
<polygon fill="midnightblue" stroke="midnightblue" points="194.7,-83.22 187.44,-75.51 188.31,-86.07 194.7,-83.22"/>
</g>
<!-- Node7&#45;&gt;Node6 -->
<g id="edge9" class="edge">
<title>Node7&#45;&gt;Node6</title>
<path fill="none" stroke="midnightblue" d="M209.29,-168.32C197.72,-160.11 180.12,-147.6 166.34,-137.81"/>
<polygon fill="midnightblue" stroke="midnightblue" points="168.11,-134.77 157.93,-131.83 164.06,-140.48 168.11,-134.77"/>
</g>
<!-- Node8&#45;&gt;Node4 -->
<g id="edge11" class="edge">
<title>Node8&#45;&gt;Node4</title>
<path fill="none" stroke="midnightblue" d="M279.44,-112.44C260.93,-103.68 231.92,-89.94 210.64,-79.86"/>
<polygon fill="midnightblue" stroke="midnightblue" points="212.01,-76.63 201.48,-75.52 209.02,-82.96 212.01,-76.63"/>
</g>
<!-- Node10&#45;&gt;Node3 -->
<g id="edge15" class="edge">
<title>Node10&#45;&gt;Node3</title>
<path fill="none" stroke="midnightblue" d="M174.32,-280.08C175.77,-272.93 177.87,-262.64 179.69,-253.69"/>
<polygon fill="midnightblue" stroke="midnightblue" points="183.15,-254.25 181.72,-243.75 176.29,-252.85 183.15,-254.25"/>
</g>
<!-- Node11 -->
<g id="node11" class="node">
<title>Node11</title>
<g id="a_node11"><a xlink:title=" ">
<polygon fill="white" stroke="#bfbfbf" points="77,-224.5 77,-243.5 136,-243.5 136,-224.5 77,-224.5"/>
<text text-anchor="middle" x="106.5" y="-231.5" font-family="Consolas" font-size="10.00">stdint.h</text>
</a>
</g>
</g>
<!-- Node10&#45;&gt;Node11 -->
<g id="edge14" class="edge">
<title>Node10&#45;&gt;Node11</title>
<path fill="none" stroke="midnightblue" d="M161.9,-280.32C152.04,-272.26 137.15,-260.08 125.28,-250.37"/>
<polygon fill="midnightblue" stroke="midnightblue" points="127.25,-247.46 117.3,-243.83 122.82,-252.88 127.25,-247.46"/>
</g>
<!-- Node12&#45;&gt;Node3 -->
<g id="edge19" class="edge">
<title>Node12&#45;&gt;Node3</title>
<path fill="none" stroke="midnightblue" d="M82.51,-280.44C102.09,-271.64 132.81,-257.81 155.23,-247.72"/>
<polygon fill="midnightblue" stroke="midnightblue" points="156.89,-250.81 164.57,-243.52 154.02,-244.43 156.89,-250.81"/>
</g>
<!-- Node12&#45;&gt;Node11 -->
<g id="edge18" class="edge">
<title>Node12&#45;&gt;Node11</title>
<path fill="none" stroke="midnightblue" d="M70.6,-280.08C76.74,-272.38 85.77,-261.03 93.24,-251.65"/>
<polygon fill="midnightblue" stroke="midnightblue" points="96.04,-253.75 99.53,-243.75 90.56,-249.39 96.04,-253.75"/>
</g>
<!-- Node13 -->
<g id="node13" class="node">
<title>Node13</title>
<g id="a_node13"><a xlink:title=" ">
<polygon fill="white" stroke="#bfbfbf" points="0,-224.5 0,-243.5 59,-243.5 59,-224.5 0,-224.5"/>
<text text-anchor="middle" x="29.5" y="-231.5" font-family="Consolas" font-size="10.00">stddef.h</text>
</a>
</g>
</g>
<!-- Node12&#45;&gt;Node13 -->
<g id="edge17" class="edge">
<title>Node12&#45;&gt;Node13</title>
<path fill="none" stroke="midnightblue" d="M57.89,-280.08C53.13,-272.53 46.18,-261.49 40.35,-252.23"/>
<polygon fill="midnightblue" stroke="midnightblue" points="43.3,-250.35 35.01,-243.75 37.38,-254.08 43.3,-250.35"/>
</g>
</g>
</svg>
