<?xml version="1.0" encoding="UTF-8" standalone="no"?>
<!DOCTYPE svg PUBLIC "-//W3C//DTD SVG 1.1//EN"
 "http://www.w3.org/Graphics/SVG/1.1/DTD/svg11.dtd">
<!-- Generated by graphviz version 2.43.0 (0)
 -->
<!-- Title: libccc/monad/tree.h Pages: 1 -->
<svg width="1172pt" height="364pt"
 viewBox="0.00 0.00 1171.50 364.00" xmlns="http://www.w3.org/2000/svg" xmlns:xlink="http://www.w3.org/1999/xlink">
<g id="graph0" class="graph" transform="scale(1 1) rotate(0) translate(4 360)">
<title>libccc/monad/tree.h</title>
<polygon fill="white" stroke="transparent" points="-4,4 -4,-360 1167.5,-360 1167.5,4 -4,4"/>
<!-- Node1 -->
<g id="node1" class="node">
<title>Node1</title>
<g id="a_node1"><a xlink:title=" ">
<polygon fill="#bfbfbf" stroke="black" points="880.5,-336.5 880.5,-355.5 996.5,-355.5 996.5,-336.5 880.5,-336.5"/>
<text text-anchor="middle" x="938.5" y="-343.5" font-family="Consolas" font-size="10.00">libccc/monad/tree.h</text>
</a>
</g>
</g>
<!-- Node2 -->
<g id="node2" class="node">
<title>Node2</title>
<g id="a_node2"><a xlink:href="bool_8h.html" target="_top" xlink:title=" ">
<polygon fill="white" stroke="black" points="354,-280.5 354,-299.5 439,-299.5 439,-280.5 354,-280.5"/>
<text text-anchor="middle" x="396.5" y="-287.5" font-family="Consolas" font-size="10.00">libccc/bool.h</text>
</a>
</g>
</g>
<!-- Node1&#45;&gt;Node2 -->
<g id="edge1" class="edge">
<title>Node1&#45;&gt;Node2</title>
<path fill="none" stroke="midnightblue" d="M880.5,-339.22C774.49,-328.66 551.03,-306.4 449.14,-296.24"/>
<polygon fill="midnightblue" stroke="midnightblue" points="449.38,-292.75 439.08,-295.24 448.68,-299.72 449.38,-292.75"/>
</g>
<!-- Node13 -->
<g id="node13" class="node">
<title>Node13</title>
<g id="a_node13"><a xlink:href="int_8h.html" target="_top" xlink:title=" ">
<polygon fill="white" stroke="black" points="840.5,-56.5 840.5,-75.5 920.5,-75.5 920.5,-56.5 840.5,-56.5"/>
<text text-anchor="middle" x="880.5" y="-63.5" font-family="Consolas" font-size="10.00">libccc/int.h</text>
</a>
</g>
</g>
<!-- Node1&#45;&gt;Node13 -->
<g id="edge26" class="edge">
<title>Node1&#45;&gt;Node13</title>
<path fill="none" stroke="midnightblue" d="M933.08,-336.25C922.36,-318.1 899.5,-274.71 899.5,-235 899.5,-235 899.5,-235 899.5,-177 899.5,-144.49 891.34,-107.35 885.72,-85.61"/>
<polygon fill="midnightblue" stroke="midnightblue" points="889.04,-84.5 883.06,-75.75 882.28,-86.32 889.04,-84.5"/>
</g>
<!-- Node19 -->
<g id="node19" class="node">
<title>Node19</title>
<g id="a_node19"><a xlink:href="pointer_8h.html" target="_top" xlink:title=" ">
<polygon fill="white" stroke="black" points="928,-280.5 928,-299.5 1029,-299.5 1029,-280.5 928,-280.5"/>
<text text-anchor="middle" x="978.5" y="-287.5" font-family="Consolas" font-size="10.00">libccc/pointer.h</text>
</a>
</g>
</g>
<!-- Node1&#45;&gt;Node19 -->
<g id="edge27" class="edge">
<title>Node1&#45;&gt;Node19</title>
<path fill="none" stroke="midnightblue" d="M945.11,-336.08C950.76,-328.46 959.04,-317.26 965.95,-307.94"/>
<polygon fill="midnightblue" stroke="midnightblue" points="968.88,-309.87 972.02,-299.75 963.25,-305.7 968.88,-309.87"/>
</g>
<!-- Node21 -->
<g id="node21" class="node">
<title>Node21</title>
<g id="a_node21"><a xlink:title=" ">
<polygon fill="white" stroke="#bfbfbf" points="1047.5,-280.5 1047.5,-299.5 1163.5,-299.5 1163.5,-280.5 1047.5,-280.5"/>
<text text-anchor="middle" x="1105.5" y="-287.5" font-family="Consolas" font-size="10.00">libccc/monad/tree.c</text>
</a>
</g>
</g>
<!-- Node1&#45;&gt;Node21 -->
<g id="edge31" class="edge">
<title>Node1&#45;&gt;Node21</title>
<path fill="none" stroke="midnightblue" d="M964.96,-336.44C993.18,-327.32 1038.04,-312.81 1069.47,-302.65"/>
<polygon fill="midnightblue" stroke="midnightblue" points="1070.72,-305.92 1079.16,-299.52 1068.57,-299.26 1070.72,-305.92"/>
</g>
<!-- Node3 -->
<g id="node3" class="node">
<title>Node3</title>
<g id="a_node3"><a xlink:href="libccc_8h.html" target="_top" xlink:title=" ">
<polygon fill="white" stroke="black" points="367,-224.5 367,-243.5 426,-243.5 426,-224.5 367,-224.5"/>
<text text-anchor="middle" x="396.5" y="-231.5" font-family="Consolas" font-size="10.00">libccc.h</text>
</a>
</g>
</g>
<!-- Node2&#45;&gt;Node3 -->
<g id="edge2" class="edge">
<title>Node2&#45;&gt;Node3</title>
<path fill="none" stroke="midnightblue" d="M396.5,-280.08C396.5,-273.01 396.5,-262.86 396.5,-253.99"/>
<polygon fill="midnightblue" stroke="midnightblue" points="400,-253.75 396.5,-243.75 393,-253.75 400,-253.75"/>
</g>
<!-- Node18 -->
<g id="node18" class="node">
<title>Node18</title>
<g id="a_node18"><a xlink:title=" ">
<polygon fill="white" stroke="#bfbfbf" points="284.5,-224.5 284.5,-243.5 348.5,-243.5 348.5,-224.5 284.5,-224.5"/>
<text text-anchor="middle" x="316.5" y="-231.5" font-family="Consolas" font-size="10.00">stdbool.h</text>
</a>
</g>
</g>
<!-- Node2&#45;&gt;Node18 -->
<g id="edge25" class="edge">
<title>Node2&#45;&gt;Node18</title>
<path fill="none" stroke="midnightblue" d="M383.65,-280.32C371.28,-271.98 352.37,-259.21 337.76,-249.35"/>
<polygon fill="midnightblue" stroke="midnightblue" points="339.57,-246.35 329.32,-243.65 335.65,-252.15 339.57,-246.35"/>
</g>
<!-- Node4 -->
<g id="node4" class="node">
<title>Node4</title>
<g id="a_node4"><a xlink:href="libccc__define_8h.html" target="_top" xlink:title=" ">
<polygon fill="white" stroke="black" points="95,-56.5 95,-75.5 190,-75.5 190,-56.5 95,-56.5"/>
<text text-anchor="middle" x="142.5" y="-63.5" font-family="Consolas" font-size="10.00">libccc_define.h</text>
</a>
</g>
</g>
<!-- Node3&#45;&gt;Node4 -->
<g id="edge3" class="edge">
<title>Node3&#45;&gt;Node4</title>
<path fill="none" stroke="midnightblue" d="M366.71,-226.04C363.6,-225.34 360.49,-224.65 357.5,-224 279.05,-206.97 240.13,-241.75 180.5,-188 151.15,-161.55 144.28,-112.73 142.79,-85.89"/>
<polygon fill="midnightblue" stroke="midnightblue" points="146.28,-85.44 142.43,-75.57 139.28,-85.69 146.28,-85.44"/>
</g>
<!-- Node6 -->
<g id="node6" class="node">
<title>Node6</title>
<g id="a_node6"><a xlink:href="libccc__errors_8h.html" target="_top" xlink:title=" ">
<polygon fill="white" stroke="black" points="0,-112.5 0,-131.5 95,-131.5 95,-112.5 0,-112.5"/>
<text text-anchor="middle" x="47.5" y="-119.5" font-family="Consolas" font-size="10.00">libccc_errors.h</text>
</a>
</g>
</g>
<!-- Node3&#45;&gt;Node6 -->
<g id="edge5" class="edge">
<title>Node3&#45;&gt;Node6</title>
<path fill="none" stroke="midnightblue" d="M366.76,-225.76C363.64,-225.11 360.51,-224.51 357.5,-224 284.99,-211.71 77.6,-242.76 28.5,-188 16.65,-174.79 25.38,-154.56 34.54,-140.18"/>
<polygon fill="midnightblue" stroke="midnightblue" points="37.59,-141.92 40.41,-131.71 31.84,-137.94 37.59,-141.92"/>
</g>
<!-- Node7 -->
<g id="node7" class="node">
<title>Node7</title>
<g id="a_node7"><a xlink:href="libccc__config_8h.html" target="_top" xlink:title=" ">
<polygon fill="white" stroke="black" points="38,-168.5 38,-187.5 133,-187.5 133,-168.5 38,-168.5"/>
<text text-anchor="middle" x="85.5" y="-175.5" font-family="Consolas" font-size="10.00">libccc_config.h</text>
</a>
</g>
</g>
<!-- Node3&#45;&gt;Node7 -->
<g id="edge7" class="edge">
<title>Node3&#45;&gt;Node7</title>
<path fill="none" stroke="midnightblue" d="M366.73,-225.93C363.62,-225.25 360.5,-224.59 357.5,-224 283.9,-209.44 198.46,-195.84 143.27,-187.48"/>
<polygon fill="midnightblue" stroke="midnightblue" points="143.73,-184.01 133.32,-185.98 142.69,-190.93 143.73,-184.01"/>
</g>
<!-- Node8 -->
<g id="node8" class="node">
<title>Node8</title>
<g id="a_node8"><a xlink:href="libccc__naming_8h.html" target="_top" xlink:title=" ">
<polygon fill="white" stroke="black" points="190,-168.5 190,-187.5 285,-187.5 285,-168.5 190,-168.5"/>
<text text-anchor="middle" x="237.5" y="-175.5" font-family="Consolas" font-size="10.00">libccc_naming.h</text>
</a>
</g>
</g>
<!-- Node3&#45;&gt;Node8 -->
<g id="edge10" class="edge">
<title>Node3&#45;&gt;Node8</title>
<path fill="none" stroke="midnightblue" d="M371.31,-224.44C344.56,-215.36 302.1,-200.94 272.19,-190.78"/>
<polygon fill="midnightblue" stroke="midnightblue" points="273.17,-187.42 262.58,-187.52 270.92,-194.05 273.17,-187.42"/>
</g>
<!-- Node9 -->
<g id="node9" class="node">
<title>Node9</title>
<g id="a_node9"><a xlink:href="math_8h.html" target="_top" xlink:title=" ">
<polygon fill="white" stroke="black" points="455.5,-168.5 455.5,-187.5 503.5,-187.5 503.5,-168.5 455.5,-168.5"/>
<text text-anchor="middle" x="479.5" y="-175.5" font-family="Consolas" font-size="10.00">math.h</text>
</a>
</g>
</g>
<!-- Node3&#45;&gt;Node9 -->
<g id="edge12" class="edge">
<title>Node3&#45;&gt;Node9</title>
<path fill="none" stroke="midnightblue" d="M409.84,-224.32C422.66,-215.98 442.28,-203.21 457.44,-193.35"/>
<polygon fill="midnightblue" stroke="midnightblue" points="459.72,-196.04 466.2,-187.65 455.91,-190.17 459.72,-196.04"/>
</g>
<!-- Node5 -->
<g id="node5" class="node">
<title>Node5</title>
<g id="a_node5"><a xlink:title=" ">
<polygon fill="white" stroke="#bfbfbf" points="108,-0.5 108,-19.5 177,-19.5 177,-0.5 108,-0.5"/>
<text text-anchor="middle" x="142.5" y="-7.5" font-family="Consolas" font-size="10.00">stdalign.h</text>
</a>
</g>
</g>
<!-- Node4&#45;&gt;Node5 -->
<g id="edge4" class="edge">
<title>Node4&#45;&gt;Node5</title>
<path fill="none" stroke="midnightblue" d="M142.5,-56.08C142.5,-49.01 142.5,-38.86 142.5,-29.99"/>
<polygon fill="midnightblue" stroke="midnightblue" points="146,-29.75 142.5,-19.75 139,-29.75 146,-29.75"/>
</g>
<!-- Node6&#45;&gt;Node4 -->
<g id="edge6" class="edge">
<title>Node6&#45;&gt;Node4</title>
<path fill="none" stroke="midnightblue" d="M62.76,-112.32C77.72,-103.82 100.75,-90.73 118.23,-80.8"/>
<polygon fill="midnightblue" stroke="midnightblue" points="120.31,-83.64 127.27,-75.65 116.85,-77.55 120.31,-83.64"/>
</g>
<!-- Node7&#45;&gt;Node4 -->
<g id="edge8" class="edge">
<title>Node7&#45;&gt;Node4</title>
<path fill="none" stroke="midnightblue" d="M89.97,-168.37C99.3,-150.38 120.97,-108.55 133.37,-84.63"/>
<polygon fill="midnightblue" stroke="midnightblue" points="136.55,-86.08 138.05,-75.59 130.34,-82.86 136.55,-86.08"/>
</g>
<!-- Node7&#45;&gt;Node6 -->
<g id="edge9" class="edge">
<title>Node7&#45;&gt;Node6</title>
<path fill="none" stroke="midnightblue" d="M79.23,-168.08C73.86,-160.46 65.98,-149.26 59.42,-139.94"/>
<polygon fill="midnightblue" stroke="midnightblue" points="62.28,-137.91 53.66,-131.75 56.55,-141.94 62.28,-137.91"/>
</g>
<!-- Node8&#45;&gt;Node4 -->
<g id="edge11" class="edge">
<title>Node8&#45;&gt;Node4</title>
<path fill="none" stroke="midnightblue" d="M230.05,-168.37C214.23,-150.05 177.09,-107.05 156.63,-83.36"/>
<polygon fill="midnightblue" stroke="midnightblue" points="159.1,-80.87 149.92,-75.59 153.81,-85.45 159.1,-80.87"/>
</g>
<!-- Node10 -->
<g id="node10" class="node">
<title>Node10</title>
<g id="a_node10"><a xlink:href="constants_8h.html" target="_top" xlink:title=" ">
<polygon fill="white" stroke="black" points="266,-112.5 266,-131.5 403,-131.5 403,-112.5 266,-112.5"/>
<text text-anchor="middle" x="334.5" y="-119.5" font-family="Consolas" font-size="10.00">libccc/math/constants.h</text>
</a>
</g>
</g>
<!-- Node9&#45;&gt;Node10 -->
<g id="edge13" class="edge">
<title>Node9&#45;&gt;Node10</title>
<path fill="none" stroke="midnightblue" d="M456.52,-168.44C432.34,-159.44 394.08,-145.19 366.85,-135.05"/>
<polygon fill="midnightblue" stroke="midnightblue" points="367.96,-131.73 357.37,-131.52 365.52,-138.29 367.96,-131.73"/>
</g>
<!-- Node12 -->
<g id="node12" class="node">
<title>Node12</title>
<g id="a_node12"><a xlink:href="math_2int_8h.html" target="_top" xlink:title=" ">
<polygon fill="white" stroke="black" points="689.5,-112.5 689.5,-131.5 795.5,-131.5 795.5,-112.5 689.5,-112.5"/>
<text text-anchor="middle" x="742.5" y="-119.5" font-family="Consolas" font-size="10.00">libccc/math/int.h</text>
</a>
</g>
</g>
<!-- Node9&#45;&gt;Node12 -->
<g id="edge16" class="edge">
<title>Node9&#45;&gt;Node12</title>
<path fill="none" stroke="midnightblue" d="M503.77,-172.02C546.12,-163.32 634.37,-145.2 690.9,-133.6"/>
<polygon fill="midnightblue" stroke="midnightblue" points="691.63,-137.02 700.72,-131.58 690.22,-130.16 691.63,-137.02"/>
</g>
<!-- Node15 -->
<g id="node15" class="node">
<title>Node15</title>
<g id="a_node15"><a xlink:href="math_2fixed_8h.html" target="_top" xlink:title=" ">
<polygon fill="white" stroke="black" points="555.5,-112.5 555.5,-131.5 671.5,-131.5 671.5,-112.5 555.5,-112.5"/>
<text text-anchor="middle" x="613.5" y="-119.5" font-family="Consolas" font-size="10.00">libccc/math/fixed.h</text>
</a>
</g>
</g>
<!-- Node9&#45;&gt;Node15 -->
<g id="edge20" class="edge">
<title>Node9&#45;&gt;Node15</title>
<path fill="none" stroke="midnightblue" d="M500.73,-168.44C522.88,-159.52 557.82,-145.44 582.94,-135.32"/>
<polygon fill="midnightblue" stroke="midnightblue" points="584.4,-138.5 592.37,-131.52 581.78,-132.01 584.4,-138.5"/>
</g>
<!-- Node17 -->
<g id="node17" class="node">
<title>Node17</title>
<g id="a_node17"><a xlink:href="math_2float_8h.html" target="_top" xlink:title=" ">
<polygon fill="white" stroke="black" points="421.5,-112.5 421.5,-131.5 537.5,-131.5 537.5,-112.5 421.5,-112.5"/>
<text text-anchor="middle" x="479.5" y="-119.5" font-family="Consolas" font-size="10.00">libccc/math/float.h</text>
</a>
</g>
</g>
<!-- Node9&#45;&gt;Node17 -->
<g id="edge23" class="edge">
<title>Node9&#45;&gt;Node17</title>
<path fill="none" stroke="midnightblue" d="M479.5,-168.08C479.5,-161.01 479.5,-150.86 479.5,-141.99"/>
<polygon fill="midnightblue" stroke="midnightblue" points="483,-141.75 479.5,-131.75 476,-141.75 483,-141.75"/>
</g>
<!-- Node11 -->
<g id="node11" class="node">
<title>Node11</title>
<g id="a_node11"><a xlink:href="float_8h.html" target="_top" xlink:title=" ">
<polygon fill="white" stroke="black" points="289.5,-56.5 289.5,-75.5 379.5,-75.5 379.5,-56.5 289.5,-56.5"/>
<text text-anchor="middle" x="334.5" y="-63.5" font-family="Consolas" font-size="10.00">libccc/float.h</text>
</a>
</g>
</g>
<!-- Node10&#45;&gt;Node11 -->
<g id="edge14" class="edge">
<title>Node10&#45;&gt;Node11</title>
<path fill="none" stroke="midnightblue" d="M334.5,-112.08C334.5,-105.01 334.5,-94.86 334.5,-85.99"/>
<polygon fill="midnightblue" stroke="midnightblue" points="338,-85.75 334.5,-75.75 331,-85.75 338,-85.75"/>
</g>
<!-- Node11&#45;&gt;Node3 -->
<g id="edge15" class="edge">
<title>Node11&#45;&gt;Node3</title>
<path fill="none" stroke="midnightblue" d="M307.91,-75.6C280.37,-86.12 243.09,-105.79 256.5,-132 262.95,-144.61 336.17,-193.64 374.07,-218.45"/>
<polygon fill="midnightblue" stroke="midnightblue" points="372.59,-221.67 382.88,-224.2 376.42,-215.8 372.59,-221.67"/>
</g>
<!-- Node12&#45;&gt;Node13 -->
<g id="edge17" class="edge">
<title>Node12&#45;&gt;Node13</title>
<path fill="none" stroke="midnightblue" d="M764.37,-112.44C787.28,-103.48 823.48,-89.31 849.37,-79.18"/>
<polygon fill="midnightblue" stroke="midnightblue" points="850.7,-82.42 858.74,-75.52 848.15,-75.9 850.7,-82.42"/>
</g>
<!-- Node13&#45;&gt;Node3 -->
<g id="edge19" class="edge">
<title>Node13&#45;&gt;Node3</title>
<path fill="none" stroke="midnightblue" d="M873.73,-75.66C863.23,-88.79 841.95,-114.08 820.5,-132 784.93,-161.72 776.05,-172.11 732.5,-188 630.37,-225.27 500.69,-232.18 436.39,-233.15"/>
<polygon fill="midnightblue" stroke="midnightblue" points="436.24,-229.65 426.28,-233.25 436.31,-236.65 436.24,-229.65"/>
</g>
<!-- Node14 -->
<g id="node14" class="node">
<title>Node14</title>
<g id="a_node14"><a xlink:title=" ">
<polygon fill="white" stroke="#bfbfbf" points="928,-0.5 928,-19.5 987,-19.5 987,-0.5 928,-0.5"/>
<text text-anchor="middle" x="957.5" y="-7.5" font-family="Consolas" font-size="10.00">stdint.h</text>
</a>
</g>
</g>
<!-- Node13&#45;&gt;Node14 -->
<g id="edge18" class="edge">
<title>Node13&#45;&gt;Node14</title>
<path fill="none" stroke="midnightblue" d="M892.87,-56.32C904.66,-48.06 922.63,-35.45 936.64,-25.63"/>
<polygon fill="midnightblue" stroke="midnightblue" points="938.98,-28.26 945.16,-19.65 934.96,-22.53 938.98,-28.26"/>
</g>
<!-- Node16 -->
<g id="node16" class="node">
<title>Node16</title>
<g id="a_node16"><a xlink:href="fixed_8h.html" target="_top" xlink:title=" ">
<polygon fill="white" stroke="black" points="640.5,-56.5 640.5,-75.5 730.5,-75.5 730.5,-56.5 640.5,-56.5"/>
<text text-anchor="middle" x="685.5" y="-63.5" font-family="Consolas" font-size="10.00">libccc/fixed.h</text>
</a>
</g>
</g>
<!-- Node15&#45;&gt;Node16 -->
<g id="edge21" class="edge">
<title>Node15&#45;&gt;Node16</title>
<path fill="none" stroke="midnightblue" d="M625.07,-112.32C635.92,-104.18 652.38,-91.84 665.38,-82.09"/>
<polygon fill="midnightblue" stroke="midnightblue" points="667.82,-84.63 673.72,-75.83 663.62,-79.03 667.82,-84.63"/>
</g>
<!-- Node16&#45;&gt;Node3 -->
<g id="edge22" class="edge">
<title>Node16&#45;&gt;Node3</title>
<path fill="none" stroke="midnightblue" d="M730.57,-74.54C773.44,-83.69 828.15,-101.78 804.5,-132 758.92,-190.24 529.75,-219.57 436.28,-229.26"/>
<polygon fill="midnightblue" stroke="midnightblue" points="435.69,-225.8 426.1,-230.29 436.4,-232.77 435.69,-225.8"/>
</g>
<!-- Node17&#45;&gt;Node11 -->
<g id="edge24" class="edge">
<title>Node17&#45;&gt;Node11</title>
<path fill="none" stroke="midnightblue" d="M456.52,-112.44C432.34,-103.44 394.08,-89.19 366.85,-79.05"/>
<polygon fill="midnightblue" stroke="midnightblue" points="367.96,-75.73 357.37,-75.52 365.52,-82.29 367.96,-75.73"/>
</g>
<!-- Node19&#45;&gt;Node3 -->
<g id="edge30" class="edge">
<title>Node19&#45;&gt;Node3</title>
<path fill="none" stroke="midnightblue" d="M927.87,-284.3C813.83,-273.72 538.84,-248.21 436.1,-238.67"/>
<polygon fill="midnightblue" stroke="midnightblue" points="436.42,-235.19 426.14,-237.75 435.77,-242.16 436.42,-235.19"/>
</g>
<!-- Node19&#45;&gt;Node14 -->
<g id="edge29" class="edge">
<title>Node19&#45;&gt;Node14</title>
<path fill="none" stroke="midnightblue" d="M983.49,-280.49C993.59,-262.44 1015.5,-218.69 1015.5,-179 1015.5,-179 1015.5,-179 1015.5,-121 1015.5,-84.16 989.73,-47.57 972.55,-27.25"/>
<polygon fill="midnightblue" stroke="midnightblue" points="975.04,-24.79 965.81,-19.59 969.79,-29.41 975.04,-24.79"/>
</g>
<!-- Node20 -->
<g id="node20" class="node">
<title>Node20</title>
<g id="a_node20"><a xlink:title=" ">
<polygon fill="white" stroke="#bfbfbf" points="928,-224.5 928,-243.5 987,-243.5 987,-224.5 928,-224.5"/>
<text text-anchor="middle" x="957.5" y="-231.5" font-family="Consolas" font-size="10.00">stddef.h</text>
</a>
</g>
</g>
<!-- Node19&#45;&gt;Node20 -->
<g id="edge28" class="edge">
<title>Node19&#45;&gt;Node20</title>
<path fill="none" stroke="midnightblue" d="M975.03,-280.08C972.19,-272.77 968.07,-262.18 964.54,-253.1"/>
<polygon fill="midnightblue" stroke="midnightblue" points="967.79,-251.8 960.9,-243.75 961.27,-254.34 967.79,-251.8"/>
</g>
</g>
</svg>
