<?xml version="1.0" encoding="UTF-8" standalone="no"?>
<!DOCTYPE svg PUBLIC "-//W3C//DTD SVG 1.1//EN"
 "http://www.w3.org/Graphics/SVG/1.1/DTD/svg11.dtd">
<!-- Generated by graphviz version 3.0.0 (20220226.1711)
 -->
<!-- Title: libccc/monad/tree.h Pages: 1 -->
<svg width="405pt" height="364pt"
 viewBox="0.00 0.00 405.00 364.00" xmlns="http://www.w3.org/2000/svg" xmlns:xlink="http://www.w3.org/1999/xlink">
<g id="graph0" class="graph" transform="scale(1 1) rotate(0) translate(4 360)">
<title>libccc/monad/tree.h</title>
<polygon fill="white" stroke="transparent" points="-4,4 -4,-360 401,-360 401,4 -4,4"/>
<!-- Node1 -->
<g id="node1" class="node">
<title>Node1</title>
<g id="a_node1"><a xlink:title=" ">
<polygon fill="#bfbfbf" stroke="black" points="147,-336.5 147,-355.5 249,-355.5 249,-336.5 147,-336.5"/>
<text text-anchor="middle" x="198" y="-343.5" font-family="Consolas" font-size="10.00">libccc/monad/tree.h</text>
</a>
</g>
</g>
<!-- Node2 -->
<g id="node2" class="node">
<title>Node2</title>
<g id="a_node2"><a xlink:href="$bool_8h.html" xlink:title=" ">
<polygon fill="white" stroke="black" points="205.5,-280.5 205.5,-299.5 276.5,-299.5 276.5,-280.5 205.5,-280.5"/>
<text text-anchor="middle" x="241" y="-287.5" font-family="Consolas" font-size="10.00">libccc/bool.h</text>
</a>
</g>
</g>
<!-- Node1&#45;&gt;Node2 -->
<g id="edge1" class="edge">
<title>Node1&#45;&gt;Node2</title>
<path fill="none" stroke="midnightblue" d="M205.1,-336.08C211.24,-328.38 220.27,-317.03 227.74,-307.65"/>
<polygon fill="midnightblue" stroke="midnightblue" points="230.54,-309.75 234.03,-299.75 225.06,-305.39 230.54,-309.75"/>
</g>
<!-- Node11 -->
<g id="node11" class="node">
<title>Node11</title>
<g id="a_node11"><a xlink:href="$int_8h.html" xlink:title=" ">
<polygon fill="white" stroke="black" points="123,-280.5 123,-299.5 187,-299.5 187,-280.5 123,-280.5"/>
<text text-anchor="middle" x="155" y="-287.5" font-family="Consolas" font-size="10.00">libccc/int.h</text>
</a>
</g>
</g>
<!-- Node1&#45;&gt;Node11 -->
<g id="edge14" class="edge">
<title>Node1&#45;&gt;Node11</title>
<path fill="none" stroke="midnightblue" d="M190.9,-336.08C184.76,-328.38 175.73,-317.03 168.26,-307.65"/>
<polygon fill="midnightblue" stroke="midnightblue" points="170.94,-305.39 161.97,-299.75 165.46,-309.75 170.94,-305.39"/>
</g>
<!-- Node13 -->
<g id="node13" class="node">
<title>Node13</title>
<g id="a_node13"><a xlink:href="$pointer_8h.html" xlink:title=" ">
<polygon fill="white" stroke="black" points="23,-280.5 23,-299.5 105,-299.5 105,-280.5 23,-280.5"/>
<text text-anchor="middle" x="64" y="-287.5" font-family="Consolas" font-size="10.00">libccc/pointer.h</text>
</a>
</g>
</g>
<!-- Node1&#45;&gt;Node13 -->
<g id="edge17" class="edge">
<title>Node1&#45;&gt;Node13</title>
<path fill="none" stroke="midnightblue" d="M176.77,-336.44C154.62,-327.52 119.68,-313.44 94.56,-303.32"/>
<polygon fill="midnightblue" stroke="midnightblue" points="95.72,-300.01 85.13,-299.52 93.1,-306.5 95.72,-300.01"/>
</g>
<!-- Node15 -->
<g id="node15" class="node">
<title>Node15</title>
<g id="a_node15"><a xlink:title=" ">
<polygon fill="white" stroke="#bfbfbf" points="295,-280.5 295,-299.5 397,-299.5 397,-280.5 295,-280.5"/>
<text text-anchor="middle" x="346" y="-287.5" font-family="Consolas" font-size="10.00">libccc/monad/tree.c</text>
</a>
</g>
</g>
<!-- Node1&#45;&gt;Node15 -->
<g id="edge21" class="edge">
<title>Node1&#45;&gt;Node15</title>
<path fill="none" stroke="midnightblue" d="M221.45,-336.44C246.13,-327.44 285.19,-313.19 312.98,-303.05"/>
<polygon fill="midnightblue" stroke="midnightblue" points="314.46,-306.23 322.66,-299.52 312.06,-299.66 314.46,-306.23"/>
</g>
<!-- Node3 -->
<g id="node3" class="node">
<title>Node3</title>
<g id="a_node3"><a xlink:href="$libccc_8h.html" xlink:title=" ">
<polygon fill="white" stroke="black" points="138,-224.5 138,-243.5 188,-243.5 188,-224.5 138,-224.5"/>
<text text-anchor="middle" x="163" y="-231.5" font-family="Consolas" font-size="10.00">libccc.h</text>
</a>
</g>
</g>
<!-- Node2&#45;&gt;Node3 -->
<g id="edge2" class="edge">
<title>Node2&#45;&gt;Node3</title>
<path fill="none" stroke="midnightblue" d="M228.47,-280.32C216.41,-271.98 197.97,-259.21 183.73,-249.35"/>
<polygon fill="midnightblue" stroke="midnightblue" points="185.72,-246.47 175.5,-243.65 181.73,-252.22 185.72,-246.47"/>
</g>
<!-- Node10 -->
<g id="node10" class="node">
<title>Node10</title>
<g id="a_node10"><a xlink:title=" ">
<polygon fill="white" stroke="#bfbfbf" points="213,-224.5 213,-243.5 269,-243.5 269,-224.5 213,-224.5"/>
<text text-anchor="middle" x="241" y="-231.5" font-family="Consolas" font-size="10.00">stdbool.h</text>
</a>
</g>
</g>
<!-- Node2&#45;&gt;Node10 -->
<g id="edge13" class="edge">
<title>Node2&#45;&gt;Node10</title>
<path fill="none" stroke="midnightblue" d="M241,-280.08C241,-273.01 241,-262.86 241,-253.99"/>
<polygon fill="midnightblue" stroke="midnightblue" points="244.5,-253.75 241,-243.75 237.5,-253.75 244.5,-253.75"/>
</g>
<!-- Node4 -->
<g id="node4" class="node">
<title>Node4</title>
<g id="a_node4"><a xlink:href="$libccc__define_8h.html" xlink:title=" ">
<polygon fill="white" stroke="black" points="88,-56.5 88,-75.5 170,-75.5 170,-56.5 88,-56.5"/>
<text text-anchor="middle" x="129" y="-63.5" font-family="Consolas" font-size="10.00">libccc_define.h</text>
</a>
</g>
</g>
<!-- Node3&#45;&gt;Node4 -->
<g id="edge3" class="edge">
<title>Node3&#45;&gt;Node4</title>
<path fill="none" stroke="midnightblue" d="M144.83,-224.39C116.84,-209.93 64.48,-177.79 46,-132 42.67,-123.76 41.45,-119.64 46,-112 55.1,-96.72 71.39,-86.31 87.14,-79.39"/>
<polygon fill="midnightblue" stroke="midnightblue" points="88.83,-82.48 96.82,-75.51 86.23,-75.98 88.83,-82.48"/>
</g>
<!-- Node6 -->
<g id="node6" class="node">
<title>Node6</title>
<g id="a_node6"><a xlink:href="$libccc__errors_8h.html" xlink:title=" ">
<polygon fill="white" stroke="black" points="55,-112.5 55,-131.5 135,-131.5 135,-112.5 55,-112.5"/>
<text text-anchor="middle" x="95" y="-119.5" font-family="Consolas" font-size="10.00">libccc_errors.h</text>
</a>
</g>
</g>
<!-- Node3&#45;&gt;Node6 -->
<g id="edge5" class="edge">
<title>Node3&#45;&gt;Node6</title>
<path fill="none" stroke="midnightblue" d="M149.57,-224.23C138.22,-216.13 122.34,-203.1 113,-188 104.24,-173.84 99.66,-155.36 97.32,-141.72"/>
<polygon fill="midnightblue" stroke="midnightblue" points="100.75,-141 95.83,-131.61 93.82,-142.01 100.75,-141"/>
</g>
<!-- Node7 -->
<g id="node7" class="node">
<title>Node7</title>
<g id="a_node7"><a xlink:href="$libccc__config_8h.html" xlink:title=" ">
<polygon fill="white" stroke="black" points="122,-168.5 122,-187.5 204,-187.5 204,-168.5 122,-168.5"/>
<text text-anchor="middle" x="163" y="-175.5" font-family="Consolas" font-size="10.00">libccc_config.h</text>
</a>
</g>
</g>
<!-- Node3&#45;&gt;Node7 -->
<g id="edge7" class="edge">
<title>Node3&#45;&gt;Node7</title>
<path fill="none" stroke="midnightblue" d="M163,-224.08C163,-217.01 163,-206.86 163,-197.99"/>
<polygon fill="midnightblue" stroke="midnightblue" points="166.5,-197.75 163,-187.75 159.5,-197.75 166.5,-197.75"/>
</g>
<!-- Node8 -->
<g id="node8" class="node">
<title>Node8</title>
<g id="a_node8"><a xlink:href="$libccc__naming_8h.html" xlink:title=" ">
<polygon fill="white" stroke="black" points="191.5,-112.5 191.5,-131.5 278.5,-131.5 278.5,-112.5 191.5,-112.5"/>
<text text-anchor="middle" x="235" y="-119.5" font-family="Consolas" font-size="10.00">libccc_naming.h</text>
</a>
</g>
</g>
<!-- Node3&#45;&gt;Node8 -->
<g id="edge10" class="edge">
<title>Node3&#45;&gt;Node8</title>
<path fill="none" stroke="midnightblue" d="M175.78,-224.42C187.03,-216.26 203.11,-203.02 213,-188 222.31,-173.85 228.07,-155.37 231.34,-141.73"/>
<polygon fill="midnightblue" stroke="midnightblue" points="234.84,-142.13 233.54,-131.61 228,-140.65 234.84,-142.13"/>
</g>
<!-- Node9 -->
<g id="node9" class="node">
<title>Node9</title>
<g id="a_node9"><a xlink:title=" ">
<polygon fill="white" stroke="#bfbfbf" points="260.5,-168.5 260.5,-187.5 307.5,-187.5 307.5,-168.5 260.5,-168.5"/>
<text text-anchor="middle" x="284" y="-175.5" font-family="Consolas" font-size="10.00">math.h</text>
</a>
</g>
</g>
<!-- Node3&#45;&gt;Node9 -->
<g id="edge12" class="edge">
<title>Node3&#45;&gt;Node9</title>
<path fill="none" stroke="midnightblue" d="M182.17,-224.44C201.91,-215.64 232.89,-201.81 255.49,-191.72"/>
<polygon fill="midnightblue" stroke="midnightblue" points="257.21,-194.79 264.92,-187.52 254.36,-188.4 257.21,-194.79"/>
</g>
<!-- Node5 -->
<g id="node5" class="node">
<title>Node5</title>
<g id="a_node5"><a xlink:title=" ">
<polygon fill="white" stroke="#bfbfbf" points="99.5,-0.5 99.5,-19.5 158.5,-19.5 158.5,-0.5 99.5,-0.5"/>
<text text-anchor="middle" x="129" y="-7.5" font-family="Consolas" font-size="10.00">stdalign.h</text>
</a>
</g>
</g>
<!-- Node4&#45;&gt;Node5 -->
<g id="edge4" class="edge">
<title>Node4&#45;&gt;Node5</title>
<path fill="none" stroke="midnightblue" d="M129,-56.08C129,-49.01 129,-38.86 129,-29.99"/>
<polygon fill="midnightblue" stroke="midnightblue" points="132.5,-29.75 129,-19.75 125.5,-29.75 132.5,-29.75"/>
</g>
<!-- Node6&#45;&gt;Node4 -->
<g id="edge6" class="edge">
<title>Node6&#45;&gt;Node4</title>
<path fill="none" stroke="midnightblue" d="M100.61,-112.08C105.37,-104.53 112.32,-93.49 118.15,-84.23"/>
<polygon fill="midnightblue" stroke="midnightblue" points="121.12,-86.08 123.49,-75.75 115.2,-82.35 121.12,-86.08"/>
</g>
<!-- Node7&#45;&gt;Node4 -->
<g id="edge8" class="edge">
<title>Node7&#45;&gt;Node4</title>
<path fill="none" stroke="midnightblue" d="M160.52,-168.14C156.99,-155.6 150.25,-131.97 144,-112 141.23,-103.15 138,-93.37 135.24,-85.2"/>
<polygon fill="midnightblue" stroke="midnightblue" points="138.51,-83.94 131.97,-75.6 131.88,-86.19 138.51,-83.94"/>
</g>
<!-- Node7&#45;&gt;Node6 -->
<g id="edge9" class="edge">
<title>Node7&#45;&gt;Node6</title>
<path fill="none" stroke="midnightblue" d="M152.07,-168.32C141.83,-160.18 126.28,-147.84 114,-138.09"/>
<polygon fill="midnightblue" stroke="midnightblue" points="116.13,-135.31 106.12,-131.83 111.78,-140.79 116.13,-135.31"/>
</g>
<!-- Node8&#45;&gt;Node4 -->
<g id="edge11" class="edge">
<title>Node8&#45;&gt;Node4</title>
<path fill="none" stroke="midnightblue" d="M217.97,-112.32C200.97,-103.66 174.62,-90.24 155.01,-80.25"/>
<polygon fill="midnightblue" stroke="midnightblue" points="156.49,-77.08 145.99,-75.65 153.31,-83.31 156.49,-77.08"/>
</g>
<!-- Node11&#45;&gt;Node3 -->
<g id="edge16" class="edge">
<title>Node11&#45;&gt;Node3</title>
<path fill="none" stroke="midnightblue" d="M156.32,-280.08C157.38,-272.93 158.91,-262.64 160.23,-253.69"/>
<polygon fill="midnightblue" stroke="midnightblue" points="163.7,-254.16 161.7,-243.75 156.78,-253.13 163.7,-254.16"/>
</g>
<!-- Node12 -->
<g id="node12" class="node">
<title>Node12</title>
<g id="a_node12"><a xlink:title=" ">
<polygon fill="white" stroke="#bfbfbf" points="70.5,-224.5 70.5,-243.5 119.5,-243.5 119.5,-224.5 70.5,-224.5"/>
<text text-anchor="middle" x="95" y="-231.5" font-family="Consolas" font-size="10.00">stdint.h</text>
</a>
</g>
</g>
<!-- Node11&#45;&gt;Node12 -->
<g id="edge15" class="edge">
<title>Node11&#45;&gt;Node12</title>
<path fill="none" stroke="midnightblue" d="M145.36,-280.32C136.49,-272.34 123.13,-260.31 112.39,-250.65"/>
<polygon fill="midnightblue" stroke="midnightblue" points="114.59,-247.92 104.82,-243.83 109.91,-253.13 114.59,-247.92"/>
</g>
<!-- Node13&#45;&gt;Node3 -->
<g id="edge20" class="edge">
<title>Node13&#45;&gt;Node3</title>
<path fill="none" stroke="midnightblue" d="M79.91,-280.32C95.64,-271.74 119.94,-258.49 138.21,-248.52"/>
<polygon fill="midnightblue" stroke="midnightblue" points="140.03,-251.52 147.13,-243.65 136.68,-245.37 140.03,-251.52"/>
</g>
<!-- Node13&#45;&gt;Node12 -->
<g id="edge19" class="edge">
<title>Node13&#45;&gt;Node12</title>
<path fill="none" stroke="midnightblue" d="M69.12,-280.08C73.41,-272.61 79.66,-261.72 84.94,-252.52"/>
<polygon fill="midnightblue" stroke="midnightblue" points="88.03,-254.17 89.98,-243.75 81.96,-250.68 88.03,-254.17"/>
</g>
<!-- Node14 -->
<g id="node14" class="node">
<title>Node14</title>
<g id="a_node14"><a xlink:title=" ">
<polygon fill="white" stroke="#bfbfbf" points="0,-224.5 0,-243.5 52,-243.5 52,-224.5 0,-224.5"/>
<text text-anchor="middle" x="26" y="-231.5" font-family="Consolas" font-size="10.00">stddef.h</text>
</a>
</g>
</g>
<!-- Node13&#45;&gt;Node14 -->
<g id="edge18" class="edge">
<title>Node13&#45;&gt;Node14</title>
<path fill="none" stroke="midnightblue" d="M57.73,-280.08C52.36,-272.46 44.48,-261.26 37.92,-251.94"/>
<polygon fill="midnightblue" stroke="midnightblue" points="40.78,-249.91 32.16,-243.75 35.05,-253.94 40.78,-249.91"/>
</g>
</g>
</svg>
