<?xml version="1.0" encoding="UTF-8" standalone="no"?>
<!DOCTYPE svg PUBLIC "-//W3C//DTD SVG 1.1//EN"
 "http://www.w3.org/Graphics/SVG/1.1/DTD/svg11.dtd">
<!-- Generated by graphviz version 2.49.3 (20211023.0002)
 -->
<!-- Title: hdr/libccc/monad/tree.h Pages: 1 -->
<!--zoomable 364 -->
<svg id="main" version="1.1" xmlns="http://www.w3.org/2000/svg" xmlns:xlink="http://www.w3.org/1999/xlink" xml:space="preserve" onload="init(evt)">
<style type="text/css"><![CDATA[
.edge:hover path { stroke: red; }
.edge:hover polygon { stroke: red; fill: red; }
]]></style>
<script type="text/javascript"><![CDATA[
var edges = document.getElementsByTagName('g');
if (edges && edges.length) {
  for (var i=0;i<edges.length;i++) {
    if (edges[i].id.substr(0,4)=='edge') {
      edges[i].setAttribute('class','edge');
    }
  }
}
]]></script>
        <defs>
                <circle id="rim" cx="0" cy="0" r="7"/>
                <circle id="rim2" cx="0" cy="0" r="3.5"/>
                <g id="zoomPlus">
                        <use xlink:href="#rim" fill="#404040">
                                <set attributeName="fill" to="#808080" begin="zoomplus.mouseover" end="zoomplus.mouseout"/>
                        </use>
                        <path d="M-4,0h8M0,-4v8" fill="none" stroke="white" stroke-width="1.5" pointer-events="none"/>
                </g>
                <g id="zoomMin">
                        <use xlink:href="#rim" fill="#404040">
                                <set attributeName="fill" to="#808080" begin="zoomminus.mouseover" end="zoomminus.mouseout"/>
                        </use>
                        <path d="M-4,0h8" fill="none" stroke="white" stroke-width="1.5" pointer-events="none"/>
                </g>
                <g id="dirArrow">
                        <path fill="none" stroke="white" stroke-width="1.5" d="M0,-3.0v7 M-2.5,-0.5L0,-3.0L2.5,-0.5"/>
                </g>
               <g id="resetDef">
                       <use xlink:href="#rim2" fill="#404040">
                               <set attributeName="fill" to="#808080" begin="reset.mouseover" end="reset.mouseout"/>
                       </use>
               </g>
        </defs>

<script type="text/javascript">
var viewWidth = 702;
var viewHeight = 364;
var sectionId = 'dynsection-0';
</script>
<script xlink:href="svgpan.js"/>
<svg id="graph" class="graph">
<g id="viewport">
<title>hdr/libccc/monad/tree.h</title>
<polygon fill="white" stroke="transparent" points="-4,4 -4,-360 698.33,-360 698.33,4 -4,4"/>
<!-- Node1 -->
<g id="node1" class="node">
<title>Node1</title>
<g id="a_node1"><a xlink:title=" ">
<polygon fill="#bfbfbf" stroke="black" points="504.83,-336.5 504.83,-355.5 623.83,-355.5 623.83,-336.5 504.83,-336.5"/>
<text text-anchor="middle" x="564.33" y="-343.5" font-family="Consolas" font-size="10.00">hdr/libccc/monad/tree.h</text>
</a>
</g>
</g>
<!-- Node2 -->
<g id="node2" class="node">
<title>Node2</title>
<g id="a_node2"><a xlink:href="bool_8h.html" target="_top" xlink:title=" ">
<polygon fill="white" stroke="black" points="313.83,-280.5 313.83,-299.5 384.83,-299.5 384.83,-280.5 313.83,-280.5"/>
<text text-anchor="middle" x="349.33" y="-287.5" font-family="Consolas" font-size="10.00">libccc/bool.h</text>
</a>
</g>
</g>
<!-- Node1&#45;&gt;Node2 -->
<g id="edge1" class="edge">
<title>Node1&#45;&gt;Node2</title>
<path fill="none" stroke="midnightblue" d="M530.26,-336.44C493.15,-327.12 433.66,-312.18 393.11,-302"/>
<polygon fill="midnightblue" stroke="midnightblue" points="393.79,-298.56 383.23,-299.52 392.08,-305.35 393.79,-298.56"/>
</g>
<!-- Node13 -->
<g id="node13" class="node">
<title>Node13</title>
<g id="a_node13"><a xlink:href="int_8h.html" target="_top" xlink:title=" ">
<polygon fill="white" stroke="black" points="494.33,-168.5 494.33,-187.5 558.33,-187.5 558.33,-168.5 494.33,-168.5"/>
<text text-anchor="middle" x="526.33" y="-175.5" font-family="Consolas" font-size="10.00">libccc/int.h</text>
</a>
</g>
</g>
<!-- Node1&#45;&gt;Node13 -->
<g id="edge29" class="edge">
<title>Node1&#45;&gt;Node13</title>
<path fill="none" stroke="midnightblue" d="M561.37,-336.45C558.33,-327.45 553.59,-312.85 550.33,-300 541.22,-264.15 533.48,-221.59 529.4,-197.7"/>
<polygon fill="midnightblue" stroke="midnightblue" points="532.81,-196.86 527.71,-187.58 525.91,-198.02 532.81,-196.86"/>
</g>
<!-- Node16 -->
<g id="node16" class="node">
<title>Node16</title>
<g id="a_node16"><a xlink:href="pointer_8h.html" target="_top" xlink:title=" ">
<polygon fill="white" stroke="black" points="576.33,-168.5 576.33,-187.5 658.33,-187.5 658.33,-168.5 576.33,-168.5"/>
<text text-anchor="middle" x="617.33" y="-175.5" font-family="Consolas" font-size="10.00">libccc/pointer.h</text>
</a>
</g>
</g>
<!-- Node1&#45;&gt;Node16 -->
<g id="edge30" class="edge">
<title>Node1&#45;&gt;Node16</title>
<path fill="none" stroke="midnightblue" d="M566.8,-336.13C570.32,-323.59 577.05,-299.96 583.33,-280 592.5,-250.83 604,-217.22 611,-197.07"/>
<polygon fill="midnightblue" stroke="midnightblue" points="614.31,-198.2 614.3,-187.61 607.7,-195.9 614.31,-198.2"/>
</g>
<!-- Node18 -->
<g id="node18" class="node">
<title>Node18</title>
<g id="a_node18"><a xlink:href="tree_8c.html" target="_top" xlink:title=" ">
<polygon fill="white" stroke="black" points="592.33,-280.5 592.33,-299.5 694.33,-299.5 694.33,-280.5 592.33,-280.5"/>
<text text-anchor="middle" x="643.33" y="-287.5" font-family="Consolas" font-size="10.00">libccc/monad/tree.c</text>
</a>
</g>
</g>
<!-- Node1&#45;&gt;Node18 -->
<g id="edge31" class="edge">
<title>Node1&#45;&gt;Node18</title>
<path fill="none" stroke="midnightblue" d="M571.9,-336.32C582.4,-327.9 601.02,-314.97 616.73,-305.07"/>
<polygon fill="midnightblue" stroke="midnightblue" points="618.86,-307.87 625.55,-299.65 615.2,-301.9 618.86,-307.87"/>
</g>
<!-- Node3 -->
<g id="node3" class="node">
<title>Node3</title>
<g id="a_node3"><a xlink:href="libccc_8h.html" target="_top" xlink:title=" ">
<polygon fill="white" stroke="black" points="324.33,-224.5 324.33,-243.5 374.33,-243.5 374.33,-224.5 324.33,-224.5"/>
<text text-anchor="middle" x="349.33" y="-231.5" font-family="Consolas" font-size="10.00">libccc.h</text>
</a>
</g>
</g>
<!-- Node2&#45;&gt;Node3 -->
<g id="edge2" class="edge">
<title>Node2&#45;&gt;Node3</title>
<path fill="none" stroke="midnightblue" d="M344.16,-280.08C342.65,-272.93 342.22,-262.64 342.87,-253.69"/>
<polygon fill="midnightblue" stroke="midnightblue" points="346.34,-254.13 344.2,-243.75 339.4,-253.2 346.34,-254.13"/>
</g>
<!-- Node3&#45;&gt;Node2 -->
<g id="edge12" class="edge">
<title>Node3&#45;&gt;Node2</title>
<path fill="none" stroke="midnightblue" d="M354.46,-243.75C355.98,-250.86 356.43,-261.14 355.8,-270.1"/>
<polygon fill="midnightblue" stroke="midnightblue" points="352.32,-269.71 354.49,-280.08 359.26,-270.62 352.32,-269.71"/>
</g>
<!-- Node4 -->
<g id="node4" class="node">
<title>Node4</title>
<g id="a_node4"><a xlink:href="libccc__define_8h.html" target="_top" xlink:title=" ">
<polygon fill="white" stroke="black" points="48.33,-56.5 48.33,-75.5 130.33,-75.5 130.33,-56.5 48.33,-56.5"/>
<text text-anchor="middle" x="89.33" y="-63.5" font-family="Consolas" font-size="10.00">libccc_define.h</text>
</a>
</g>
</g>
<!-- Node3&#45;&gt;Node4 -->
<g id="edge3" class="edge">
<title>Node3&#45;&gt;Node4</title>
<path fill="none" stroke="midnightblue" d="M323.89,-231.21C261.83,-226.51 104.39,-212.44 58.33,-188 22.17,-168.81 -14.61,-147.17 6.33,-112 15.42,-96.72 31.71,-86.31 47.47,-79.39"/>
<polygon fill="midnightblue" stroke="midnightblue" points="49.16,-82.48 57.14,-75.51 46.56,-75.98 49.16,-82.48"/>
</g>
<!-- Node6 -->
<g id="node6" class="node">
<title>Node6</title>
<g id="a_node6"><a xlink:href="libccc__errors_8h.html" target="_top" xlink:title=" ">
<polygon fill="white" stroke="black" points="15.33,-112.5 15.33,-131.5 95.33,-131.5 95.33,-112.5 15.33,-112.5"/>
<text text-anchor="middle" x="55.33" y="-119.5" font-family="Consolas" font-size="10.00">libccc_errors.h</text>
</a>
</g>
</g>
<!-- Node3&#45;&gt;Node6 -->
<g id="edge5" class="edge">
<title>Node3&#45;&gt;Node6</title>
<path fill="none" stroke="midnightblue" d="M324.02,-232.21C263.22,-229.81 111.19,-220.62 74.33,-188 61.27,-176.45 56.97,-156.49 55.65,-141.72"/>
<polygon fill="midnightblue" stroke="midnightblue" points="59.15,-141.48 55.14,-131.67 52.15,-141.84 59.15,-141.48"/>
</g>
<!-- Node7 -->
<g id="node7" class="node">
<title>Node7</title>
<g id="a_node7"><a xlink:href="libccc__config_8h.html" target="_top" xlink:title=" ">
<polygon fill="white" stroke="black" points="83.33,-168.5 83.33,-187.5 165.33,-187.5 165.33,-168.5 83.33,-168.5"/>
<text text-anchor="middle" x="124.33" y="-175.5" font-family="Consolas" font-size="10.00">libccc_config.h</text>
</a>
</g>
</g>
<!-- Node3&#45;&gt;Node7 -->
<g id="edge7" class="edge">
<title>Node3&#45;&gt;Node7</title>
<path fill="none" stroke="midnightblue" d="M323.95,-226.91C286.59,-217.94 216.17,-201.04 169.75,-189.9"/>
<polygon fill="midnightblue" stroke="midnightblue" points="170.49,-186.48 159.95,-187.55 168.85,-193.29 170.49,-186.48"/>
</g>
<!-- Node8 -->
<g id="node8" class="node">
<title>Node8</title>
<g id="a_node8"><a xlink:href="libccc__naming_8h.html" target="_top" xlink:title=" ">
<polygon fill="white" stroke="black" points="151.83,-112.5 151.83,-131.5 238.83,-131.5 238.83,-112.5 151.83,-112.5"/>
<text text-anchor="middle" x="195.33" y="-119.5" font-family="Consolas" font-size="10.00">libccc_naming.h</text>
</a>
</g>
</g>
<!-- Node3&#45;&gt;Node8 -->
<g id="edge10" class="edge">
<title>Node3&#45;&gt;Node8</title>
<path fill="none" stroke="midnightblue" d="M324.27,-231.63C293.77,-228.59 242.73,-218.9 213.33,-188 201.61,-175.69 197.39,-156.43 195.94,-142.07"/>
<polygon fill="midnightblue" stroke="midnightblue" points="199.41,-141.58 195.27,-131.83 192.43,-142.03 199.41,-141.58"/>
</g>
<!-- Node9 -->
<g id="node9" class="node">
<title>Node9</title>
<g id="a_node9"><a xlink:href="char_8h.html" target="_top" xlink:title=" ">
<polygon fill="white" stroke="black" points="222.83,-168.5 222.83,-187.5 293.83,-187.5 293.83,-168.5 222.83,-168.5"/>
<text text-anchor="middle" x="258.33" y="-175.5" font-family="Consolas" font-size="10.00">libccc/char.h</text>
</a>
</g>
</g>
<!-- Node3&#45;&gt;Node9 -->
<g id="edge13" class="edge">
<title>Node3&#45;&gt;Node9</title>
<path fill="none" stroke="midnightblue" d="M329.59,-224.32C313.72,-215.98 291.9,-203.21 276.47,-193.35"/>
<polygon fill="midnightblue" stroke="midnightblue" points="278.08,-190.22 267.8,-187.65 274.23,-196.07 278.08,-190.22"/>
</g>
<!-- Node3&#45;&gt;Node13 -->
<g id="edge18" class="edge">
<title>Node3&#45;&gt;Node13</title>
<path fill="none" stroke="midnightblue" d="M372.28,-224.44C400.68,-215.16 449.21,-200.3 484.3,-190.12"/>
<polygon fill="midnightblue" stroke="midnightblue" points="485.62,-193.38 494.26,-187.25 483.68,-186.65 485.62,-193.38"/>
</g>
<!-- Node14 -->
<g id="node14" class="node">
<title>Node14</title>
<g id="a_node14"><a xlink:href="fixed_8h.html" target="_top" xlink:title=" ">
<polygon fill="white" stroke="black" points="312.33,-168.5 312.33,-187.5 386.33,-187.5 386.33,-168.5 312.33,-168.5"/>
<text text-anchor="middle" x="349.33" y="-175.5" font-family="Consolas" font-size="10.00">libccc/fixed.h</text>
</a>
</g>
</g>
<!-- Node3&#45;&gt;Node14 -->
<g id="edge21" class="edge">
<title>Node3&#45;&gt;Node14</title>
<path fill="none" stroke="midnightblue" d="M344.16,-224.08C342.65,-216.93 342.22,-206.64 342.87,-197.69"/>
<polygon fill="midnightblue" stroke="midnightblue" points="346.34,-198.13 344.2,-187.75 339.4,-197.2 346.34,-198.13"/>
</g>
<!-- Node15 -->
<g id="node15" class="node">
<title>Node15</title>
<g id="a_node15"><a xlink:href="float_8h.html" target="_top" xlink:title=" ">
<polygon fill="white" stroke="black" points="404.33,-168.5 404.33,-187.5 476.33,-187.5 476.33,-168.5 404.33,-168.5"/>
<text text-anchor="middle" x="440.33" y="-175.5" font-family="Consolas" font-size="10.00">libccc/float.h</text>
</a>
</g>
</g>
<!-- Node3&#45;&gt;Node15 -->
<g id="edge23" class="edge">
<title>Node3&#45;&gt;Node15</title>
<path fill="none" stroke="midnightblue" d="M358.83,-224.32C371.43,-215.74 393.5,-202.49 411.6,-192.52"/>
<polygon fill="midnightblue" stroke="midnightblue" points="413.49,-195.48 420.63,-187.65 410.17,-189.32 413.49,-195.48"/>
</g>
<!-- Node3&#45;&gt;Node16 -->
<g id="edge25" class="edge">
<title>Node3&#45;&gt;Node16</title>
<path fill="none" stroke="midnightblue" d="M374.6,-227.01C418.47,-217.61 509.04,-199.31 566.36,-188.22"/>
<polygon fill="midnightblue" stroke="midnightblue" points="567.15,-191.63 576.3,-186.3 565.82,-184.75 567.15,-191.63"/>
</g>
<!-- Node5 -->
<g id="node5" class="node">
<title>Node5</title>
<g id="a_node5"><a xlink:title=" ">
<polygon fill="white" stroke="#bfbfbf" points="59.83,-0.5 59.83,-19.5 118.83,-19.5 118.83,-0.5 59.83,-0.5"/>
<text text-anchor="middle" x="89.33" y="-7.5" font-family="Consolas" font-size="10.00">stdalign.h</text>
</a>
</g>
</g>
<!-- Node4&#45;&gt;Node5 -->
<g id="edge4" class="edge">
<title>Node4&#45;&gt;Node5</title>
<path fill="none" stroke="midnightblue" d="M89.33,-56.08C89.33,-49.01 89.33,-38.86 89.33,-29.99"/>
<polygon fill="midnightblue" stroke="midnightblue" points="92.83,-29.75 89.33,-19.75 85.83,-29.75 92.83,-29.75"/>
</g>
<!-- Node6&#45;&gt;Node4 -->
<g id="edge6" class="edge">
<title>Node6&#45;&gt;Node4</title>
<path fill="none" stroke="midnightblue" d="M60.94,-112.08C65.69,-104.53 72.64,-93.49 78.48,-84.23"/>
<polygon fill="midnightblue" stroke="midnightblue" points="81.45,-86.08 83.82,-75.75 75.53,-82.35 81.45,-86.08"/>
</g>
<!-- Node7&#45;&gt;Node4 -->
<g id="edge8" class="edge">
<title>Node7&#45;&gt;Node4</title>
<path fill="none" stroke="midnightblue" d="M121.67,-168.15C117.9,-155.62 110.74,-132.01 104.33,-112 101.5,-103.17 98.25,-93.39 95.51,-85.22"/>
<polygon fill="midnightblue" stroke="midnightblue" points="98.78,-83.96 92.26,-75.61 92.14,-86.2 98.78,-83.96"/>
</g>
<!-- Node7&#45;&gt;Node6 -->
<g id="edge9" class="edge">
<title>Node7&#45;&gt;Node6</title>
<path fill="none" stroke="midnightblue" d="M113.24,-168.32C102.84,-160.18 87.07,-147.84 74.6,-138.09"/>
<polygon fill="midnightblue" stroke="midnightblue" points="76.65,-135.24 66.61,-131.83 72.33,-140.75 76.65,-135.24"/>
</g>
<!-- Node8&#45;&gt;Node4 -->
<g id="edge11" class="edge">
<title>Node8&#45;&gt;Node4</title>
<path fill="none" stroke="midnightblue" d="M178.3,-112.32C161.3,-103.66 134.95,-90.24 115.33,-80.25"/>
<polygon fill="midnightblue" stroke="midnightblue" points="116.81,-77.08 106.31,-75.65 113.64,-83.31 116.81,-77.08"/>
</g>
<!-- Node9&#45;&gt;Node3 -->
<g id="edge15" class="edge">
<title>Node9&#45;&gt;Node3</title>
<path fill="none" stroke="midnightblue" d="M278.02,-187.65C293.88,-195.99 315.7,-208.76 331.14,-218.62"/>
<polygon fill="midnightblue" stroke="midnightblue" points="329.54,-221.76 339.82,-224.32 333.39,-215.91 329.54,-221.76"/>
</g>
<!-- Node10 -->
<g id="node10" class="node">
<title>Node10</title>
<g id="a_node10"><a xlink:title=" ">
<polygon fill="white" stroke="#bfbfbf" points="501.83,-112.5 501.83,-131.5 550.83,-131.5 550.83,-112.5 501.83,-112.5"/>
<text text-anchor="middle" x="526.33" y="-119.5" font-family="Consolas" font-size="10.00">stdint.h</text>
</a>
</g>
</g>
<!-- Node9&#45;&gt;Node10 -->
<g id="edge14" class="edge">
<title>Node9&#45;&gt;Node10</title>
<path fill="none" stroke="midnightblue" d="M294.06,-169.86C356.36,-157.41 478.68,-132.95 483.33,-132 486.13,-131.43 489.03,-130.83 491.95,-130.22"/>
<polygon fill="midnightblue" stroke="midnightblue" points="492.7,-133.64 501.78,-128.18 491.27,-126.79 492.7,-133.64"/>
</g>
<!-- Node11 -->
<g id="node11" class="node">
<title>Node11</title>
<g id="a_node11"><a xlink:title=" ">
<polygon fill="white" stroke="#bfbfbf" points="256.83,-112.5 256.83,-131.5 349.83,-131.5 349.83,-112.5 256.83,-112.5"/>
<text text-anchor="middle" x="303.33" y="-119.5" font-family="Consolas" font-size="10.00">libccc/text/ascii.h</text>
</a>
</g>
</g>
<!-- Node9&#45;&gt;Node11 -->
<g id="edge16" class="edge">
<title>Node9&#45;&gt;Node11</title>
<path fill="none" stroke="midnightblue" d="M265.76,-168.08C272.18,-160.38 281.63,-149.03 289.45,-139.65"/>
<polygon fill="midnightblue" stroke="midnightblue" points="292.32,-141.67 296.03,-131.75 286.94,-137.19 292.32,-141.67"/>
</g>
<!-- Node12 -->
<g id="node12" class="node">
<title>Node12</title>
<g id="a_node12"><a xlink:title=" ">
<polygon fill="white" stroke="#bfbfbf" points="367.83,-112.5 367.83,-131.5 474.83,-131.5 474.83,-112.5 367.83,-112.5"/>
<text text-anchor="middle" x="421.33" y="-119.5" font-family="Consolas" font-size="10.00">libccc/text/unicode.h</text>
</a>
</g>
</g>
<!-- Node9&#45;&gt;Node12 -->
<g id="edge17" class="edge">
<title>Node9&#45;&gt;Node12</title>
<path fill="none" stroke="midnightblue" d="M284.15,-168.44C311.58,-159.36 355.1,-144.94 385.76,-134.78"/>
<polygon fill="midnightblue" stroke="midnightblue" points="387.23,-137.98 395.62,-131.52 385.03,-131.34 387.23,-137.98"/>
</g>
<!-- Node13&#45;&gt;Node3 -->
<g id="edge20" class="edge">
<title>Node13&#45;&gt;Node3</title>
<path fill="none" stroke="midnightblue" d="M503.34,-187.57C473.01,-197.48 419.74,-213.75 384.4,-223.89"/>
<polygon fill="midnightblue" stroke="midnightblue" points="383.16,-220.6 374.5,-226.7 385.08,-227.33 383.16,-220.6"/>
</g>
<!-- Node13&#45;&gt;Node10 -->
<g id="edge19" class="edge">
<title>Node13&#45;&gt;Node10</title>
<path fill="none" stroke="midnightblue" d="M526.33,-168.08C526.33,-161.01 526.33,-150.86 526.33,-141.99"/>
<polygon fill="midnightblue" stroke="midnightblue" points="529.83,-141.75 526.33,-131.75 522.83,-141.75 529.83,-141.75"/>
</g>
<!-- Node14&#45;&gt;Node3 -->
<g id="edge22" class="edge">
<title>Node14&#45;&gt;Node3</title>
<path fill="none" stroke="midnightblue" d="M354.46,-187.75C355.98,-194.86 356.43,-205.14 355.8,-214.1"/>
<polygon fill="midnightblue" stroke="midnightblue" points="352.32,-213.71 354.49,-224.08 359.26,-214.62 352.32,-213.71"/>
</g>
<!-- Node15&#45;&gt;Node3 -->
<g id="edge24" class="edge">
<title>Node15&#45;&gt;Node3</title>
<path fill="none" stroke="midnightblue" d="M430.85,-187.65C418.26,-196.23 396.2,-209.48 378.1,-219.45"/>
<polygon fill="midnightblue" stroke="midnightblue" points="376.2,-216.5 369.06,-224.32 379.52,-222.66 376.2,-216.5"/>
</g>
<!-- Node16&#45;&gt;Node3 -->
<g id="edge28" class="edge">
<title>Node16&#45;&gt;Node3</title>
<path fill="none" stroke="midnightblue" d="M580.02,-187.54C528.16,-198.48 435.27,-217.15 384.54,-226.81"/>
<polygon fill="midnightblue" stroke="midnightblue" points="383.86,-223.38 374.68,-228.67 385.16,-230.25 383.86,-223.38"/>
</g>
<!-- Node16&#45;&gt;Node10 -->
<g id="edge27" class="edge">
<title>Node16&#45;&gt;Node10</title>
<path fill="none" stroke="midnightblue" d="M602.71,-168.32C588.38,-159.82 566.31,-146.73 549.58,-136.8"/>
<polygon fill="midnightblue" stroke="midnightblue" points="551.3,-133.75 540.91,-131.65 547.72,-139.77 551.3,-133.75"/>
</g>
<!-- Node17 -->
<g id="node17" class="node">
<title>Node17</title>
<g id="a_node17"><a xlink:title=" ">
<polygon fill="white" stroke="#bfbfbf" points="591.33,-112.5 591.33,-131.5 643.33,-131.5 643.33,-112.5 591.33,-112.5"/>
<text text-anchor="middle" x="617.33" y="-119.5" font-family="Consolas" font-size="10.00">stddef.h</text>
</a>
</g>
</g>
<!-- Node16&#45;&gt;Node17 -->
<g id="edge26" class="edge">
<title>Node16&#45;&gt;Node17</title>
<path fill="none" stroke="midnightblue" d="M617.33,-168.08C617.33,-161.01 617.33,-150.86 617.33,-141.99"/>
<polygon fill="midnightblue" stroke="midnightblue" points="620.83,-141.75 617.33,-131.75 613.83,-141.75 620.83,-141.75"/>
</g>
<!-- Node18&#45;&gt;Node1 -->
<g id="edge32" class="edge">
<title>Node18&#45;&gt;Node1</title>
<path fill="none" stroke="midnightblue" d="M635.55,-299.83C625.01,-308.26 606.52,-321.1 590.91,-330.94"/>
<polygon fill="midnightblue" stroke="midnightblue" points="588.82,-328.11 582.13,-336.32 592.49,-334.07 588.82,-328.11"/>
</g>
</g>
</svg>
        <g id="navigator" transform="translate(0 0)" fill="#404254">
                <rect fill="#f2f5e9" fill-opacity="0.5" stroke="#606060" stroke-width=".5" x="0" y="0" width="60" height="60"/>
                <use id="zoomplus" xlink:href="#zoomPlus" x="17" y="9" onmousedown="handleZoom(evt,'in')"/>
                <use id="zoomminus" xlink:href="#zoomMin" x="42" y="9" onmousedown="handleZoom(evt,'out')"/>
                <use id="reset" xlink:href="#resetDef" x="30" y="36" onmousedown="handleReset()"/>
                <g id="arrowUp" xlink:href="#dirArrow" transform="translate(30 24)" onmousedown="handlePan(0,-1)">
                  <use xlink:href="#rim" fill="#404040">
                        <set attributeName="fill" to="#808080" begin="arrowUp.mouseover" end="arrowUp.mouseout"/>
                  </use>
                  <path fill="none" stroke="white" stroke-width="1.5" d="M0,-3.0v7 M-2.5,-0.5L0,-3.0L2.5,-0.5"/>
                </g>
                <g id="arrowRight" xlink:href="#dirArrow" transform="rotate(90) translate(36 -43)" onmousedown="handlePan(1,0)">
                  <use xlink:href="#rim" fill="#404040">
                        <set attributeName="fill" to="#808080" begin="arrowRight.mouseover" end="arrowRight.mouseout"/>
                  </use>
                  <path fill="none" stroke="white" stroke-width="1.5" d="M0,-3.0v7 M-2.5,-0.5L0,-3.0L2.5,-0.5"/>
                </g>
                <g id="arrowDown" xlink:href="#dirArrow" transform="rotate(180) translate(-30 -48)" onmousedown="handlePan(0,1)">
                  <use xlink:href="#rim" fill="#404040">
                        <set attributeName="fill" to="#808080" begin="arrowDown.mouseover" end="arrowDown.mouseout"/>
                  </use>
                  <path fill="none" stroke="white" stroke-width="1.5" d="M0,-3.0v7 M-2.5,-0.5L0,-3.0L2.5,-0.5"/>
                </g>
                <g id="arrowLeft" xlink:href="#dirArrow" transform="rotate(270) translate(-36 17)" onmousedown="handlePan(-1,0)">
                  <use xlink:href="#rim" fill="#404040">
                        <set attributeName="fill" to="#808080" begin="arrowLeft.mouseover" end="arrowLeft.mouseout"/>
                  </use>
                  <path fill="none" stroke="white" stroke-width="1.5" d="M0,-3.0v7 M-2.5,-0.5L0,-3.0L2.5,-0.5"/>
                </g>
        </g>
        <svg viewBox="0 0 15 15" width="100%" height="30px" preserveAspectRatio="xMaxYMin meet">
         <g id="arrow_out" transform="scale(0.3 0.3)">
          <a xlink:href="tree_8h__incl_org.svg" target="_base">
           <rect id="button" ry="5" rx="5" y="6" x="6" height="38" width="38"
                fill="#f2f5e9" fill-opacity="0.5" stroke="#606060" stroke-width="1.0"/>
           <path id="arrow"
             d="M 11.500037,31.436501 C 11.940474,20.09759 22.043105,11.32322 32.158766,21.979434 L 37.068811,17.246167 C 37.068811,17.246167 37.088388,32 37.088388,32 L 22.160133,31.978069 C 22.160133,31.978069 26.997745,27.140456 26.997745,27.140456 C 18.528582,18.264221 13.291696,25.230495 11.500037,31.436501 z"
             style="fill:#404040;"/>
          </a>
         </g>
        </svg>
</svg>
