<?xml version="1.0" encoding="UTF-8" standalone="no"?>
<!DOCTYPE svg PUBLIC "-//W3C//DTD SVG 1.1//EN"
 "http://www.w3.org/Graphics/SVG/1.1/DTD/svg11.dtd">
<!-- Generated by graphviz version 2.50.0 (20211204.2007)
 -->
<!-- Title: libccc/math/algebra/vector.h Pages: 1 -->
<svg width="315pt" height="431pt"
 viewBox="0.00 0.00 315.00 431.00" xmlns="http://www.w3.org/2000/svg" xmlns:xlink="http://www.w3.org/1999/xlink">
<g id="graph0" class="graph" transform="scale(1 1) rotate(0) translate(4 427)">
<title>libccc/math/algebra/vector.h</title>
<polygon fill="white" stroke="transparent" points="-4,4 -4,-427 311,-427 311,4 -4,4"/>
<!-- Node1 -->
<g id="node1" class="node">
<title>Node1</title>
<g id="a_node1"><a xlink:title=" ">
<polygon fill="#bfbfbf" stroke="black" points="101,-392.5 101,-422.5 202,-422.5 202,-392.5 101,-392.5"/>
<text text-anchor="start" x="109" y="-410.5" font-family="Consolas" font-size="10.00">libccc/math/algebra</text>
<text text-anchor="middle" x="151.5" y="-399.5" font-family="Consolas" font-size="10.00">/vector.h</text>
</a>
</g>
</g>
<!-- Node2 -->
<g id="node2" class="node">
<title>Node2</title>
<g id="a_node2"><a xlink:href="bool_8h.html" target="_top" xlink:title=" ">
<polygon fill="white" stroke="black" points="0,-336.5 0,-355.5 71,-355.5 71,-336.5 0,-336.5"/>
<text text-anchor="middle" x="35.5" y="-343.5" font-family="Consolas" font-size="10.00">libccc/bool.h</text>
</a>
</g>
</g>
<!-- Node1&#45;&gt;Node2 -->
<g id="edge1" class="edge">
<title>Node1&#45;&gt;Node2</title>
<path fill="none" stroke="midnightblue" d="M124.01,-392.4C105.07,-382.68 80.06,-369.86 61.46,-360.31"/>
<polygon fill="midnightblue" stroke="midnightblue" points="62.87,-357.11 52.38,-355.66 59.68,-363.34 62.87,-357.11"/>
</g>
<!-- Node10 -->
<g id="node10" class="node">
<title>Node10</title>
<g id="a_node10"><a xlink:href="int_8h.html" target="_top" xlink:title=" ">
<polygon fill="white" stroke="black" points="89.5,-336.5 89.5,-355.5 153.5,-355.5 153.5,-336.5 89.5,-336.5"/>
<text text-anchor="middle" x="121.5" y="-343.5" font-family="Consolas" font-size="10.00">libccc/int.h</text>
</a>
</g>
</g>
<!-- Node1&#45;&gt;Node10 -->
<g id="edge13" class="edge">
<title>Node1&#45;&gt;Node10</title>
<path fill="none" stroke="midnightblue" d="M144.39,-392.4C140.21,-384.11 134.89,-373.55 130.43,-364.71"/>
<polygon fill="midnightblue" stroke="midnightblue" points="133.49,-363.01 125.87,-355.66 127.24,-366.16 133.49,-363.01"/>
</g>
<!-- Node12 -->
<g id="node12" class="node">
<title>Node12</title>
<g id="a_node12"><a xlink:href="float_8h.html" target="_top" xlink:title=" ">
<polygon fill="white" stroke="black" points="202.5,-280.5 202.5,-299.5 274.5,-299.5 274.5,-280.5 202.5,-280.5"/>
<text text-anchor="middle" x="238.5" y="-287.5" font-family="Consolas" font-size="10.00">libccc/float.h</text>
</a>
</g>
</g>
<!-- Node1&#45;&gt;Node12 -->
<g id="edge16" class="edge">
<title>Node1&#45;&gt;Node12</title>
<path fill="none" stroke="midnightblue" d="M161.17,-392.24C171.04,-377.85 186.92,-355.08 201.5,-336 208.79,-326.46 217.28,-316.08 224.29,-307.71"/>
<polygon fill="midnightblue" stroke="midnightblue" points="227.17,-309.72 230.94,-299.81 221.82,-305.2 227.17,-309.72"/>
</g>
<!-- Node13 -->
<g id="node13" class="node">
<title>Node13</title>
<g id="a_node13"><a xlink:href="math_2float_8h.html" target="_top" xlink:title=" ">
<polygon fill="white" stroke="black" points="210,-336.5 210,-355.5 307,-355.5 307,-336.5 210,-336.5"/>
<text text-anchor="middle" x="258.5" y="-343.5" font-family="Consolas" font-size="10.00">libccc/math/float.h</text>
</a>
</g>
</g>
<!-- Node1&#45;&gt;Node13 -->
<g id="edge18" class="edge">
<title>Node1&#45;&gt;Node13</title>
<path fill="none" stroke="midnightblue" d="M176.86,-392.4C194.17,-382.77 216.98,-370.09 234.08,-360.58"/>
<polygon fill="midnightblue" stroke="midnightblue" points="235.89,-363.58 242.93,-355.66 232.49,-357.46 235.89,-363.58"/>
</g>
<!-- Node3 -->
<g id="node3" class="node">
<title>Node3</title>
<g id="a_node3"><a xlink:href="libccc_8h.html" target="_top" xlink:title=" ">
<polygon fill="white" stroke="black" points="81.5,-224.5 81.5,-243.5 131.5,-243.5 131.5,-224.5 81.5,-224.5"/>
<text text-anchor="middle" x="106.5" y="-231.5" font-family="Consolas" font-size="10.00">libccc.h</text>
</a>
</g>
</g>
<!-- Node2&#45;&gt;Node3 -->
<g id="edge2" class="edge">
<title>Node2&#45;&gt;Node3</title>
<path fill="none" stroke="midnightblue" d="M28.16,-336.45C17.96,-323.47 1.98,-298.37 13.5,-280 26.19,-259.76 50.86,-248.4 71.59,-242.16"/>
<polygon fill="midnightblue" stroke="midnightblue" points="72.66,-245.49 81.39,-239.49 70.82,-238.74 72.66,-245.49"/>
</g>
<!-- Node9 -->
<g id="node9" class="node">
<title>Node9</title>
<g id="a_node9"><a xlink:title=" ">
<polygon fill="white" stroke="#bfbfbf" points="22.5,-280.5 22.5,-299.5 78.5,-299.5 78.5,-280.5 22.5,-280.5"/>
<text text-anchor="middle" x="50.5" y="-287.5" font-family="Consolas" font-size="10.00">stdbool.h</text>
</a>
</g>
</g>
<!-- Node2&#45;&gt;Node9 -->
<g id="edge12" class="edge">
<title>Node2&#45;&gt;Node9</title>
<path fill="none" stroke="midnightblue" d="M37.98,-336.08C39.99,-328.85 42.89,-318.41 45.39,-309.4"/>
<polygon fill="midnightblue" stroke="midnightblue" points="48.76,-310.32 48.07,-299.75 42.02,-308.45 48.76,-310.32"/>
</g>
<!-- Node4 -->
<g id="node4" class="node">
<title>Node4</title>
<g id="a_node4"><a xlink:href="libccc__define_8h.html" target="_top" xlink:title=" ">
<polygon fill="white" stroke="black" points="66.5,-56.5 66.5,-75.5 148.5,-75.5 148.5,-56.5 66.5,-56.5"/>
<text text-anchor="middle" x="107.5" y="-63.5" font-family="Consolas" font-size="10.00">libccc_define.h</text>
</a>
</g>
</g>
<!-- Node3&#45;&gt;Node4 -->
<g id="edge3" class="edge">
<title>Node3&#45;&gt;Node4</title>
<path fill="none" stroke="midnightblue" d="M92.72,-224.42C63.19,-204.93 -1.46,-155.61 24.5,-112 33.6,-96.72 49.89,-86.31 65.64,-79.39"/>
<polygon fill="midnightblue" stroke="midnightblue" points="67.33,-82.48 75.32,-75.51 64.73,-75.98 67.33,-82.48"/>
</g>
<!-- Node6 -->
<g id="node6" class="node">
<title>Node6</title>
<g id="a_node6"><a xlink:href="libccc__errors_8h.html" target="_top" xlink:title=" ">
<polygon fill="white" stroke="black" points="33.5,-112.5 33.5,-131.5 113.5,-131.5 113.5,-112.5 33.5,-112.5"/>
<text text-anchor="middle" x="73.5" y="-119.5" font-family="Consolas" font-size="10.00">libccc_errors.h</text>
</a>
</g>
</g>
<!-- Node3&#45;&gt;Node6 -->
<g id="edge5" class="edge">
<title>Node3&#45;&gt;Node6</title>
<path fill="none" stroke="midnightblue" d="M103.49,-224.42C100.36,-215.39 95.39,-200.76 91.5,-188 86.75,-172.42 81.85,-154.59 78.36,-141.55"/>
<polygon fill="midnightblue" stroke="midnightblue" points="81.74,-140.64 75.8,-131.87 74.98,-142.44 81.74,-140.64"/>
</g>
<!-- Node7 -->
<g id="node7" class="node">
<title>Node7</title>
<g id="a_node7"><a xlink:href="libccc__config_8h.html" target="_top" xlink:title=" ">
<polygon fill="white" stroke="black" points="100.5,-168.5 100.5,-187.5 182.5,-187.5 182.5,-168.5 100.5,-168.5"/>
<text text-anchor="middle" x="141.5" y="-175.5" font-family="Consolas" font-size="10.00">libccc_config.h</text>
</a>
</g>
</g>
<!-- Node3&#45;&gt;Node7 -->
<g id="edge7" class="edge">
<title>Node3&#45;&gt;Node7</title>
<path fill="none" stroke="midnightblue" d="M112.28,-224.08C117.17,-216.53 124.33,-205.49 130.33,-196.23"/>
<polygon fill="midnightblue" stroke="midnightblue" points="133.33,-198.05 135.83,-187.75 127.45,-194.24 133.33,-198.05"/>
</g>
<!-- Node8 -->
<g id="node8" class="node">
<title>Node8</title>
<g id="a_node8"><a xlink:href="libccc__naming_8h.html" target="_top" xlink:title=" ">
<polygon fill="white" stroke="black" points="170,-112.5 170,-131.5 257,-131.5 257,-112.5 170,-112.5"/>
<text text-anchor="middle" x="213.5" y="-119.5" font-family="Consolas" font-size="10.00">libccc_naming.h</text>
</a>
</g>
</g>
<!-- Node3&#45;&gt;Node8 -->
<g id="edge10" class="edge">
<title>Node3&#45;&gt;Node8</title>
<path fill="none" stroke="midnightblue" d="M131.73,-225.36C150.62,-218.43 175.81,-206.44 191.5,-188 202.71,-174.83 208.28,-155.69 211,-141.59"/>
<polygon fill="midnightblue" stroke="midnightblue" points="214.48,-142 212.63,-131.57 207.57,-140.88 214.48,-142"/>
</g>
<!-- Node5 -->
<g id="node5" class="node">
<title>Node5</title>
<g id="a_node5"><a xlink:title=" ">
<polygon fill="white" stroke="#bfbfbf" points="78,-0.5 78,-19.5 137,-19.5 137,-0.5 78,-0.5"/>
<text text-anchor="middle" x="107.5" y="-7.5" font-family="Consolas" font-size="10.00">stdalign.h</text>
</a>
</g>
</g>
<!-- Node4&#45;&gt;Node5 -->
<g id="edge4" class="edge">
<title>Node4&#45;&gt;Node5</title>
<path fill="none" stroke="midnightblue" d="M107.5,-56.08C107.5,-49.01 107.5,-38.86 107.5,-29.99"/>
<polygon fill="midnightblue" stroke="midnightblue" points="111,-29.75 107.5,-19.75 104,-29.75 111,-29.75"/>
</g>
<!-- Node6&#45;&gt;Node4 -->
<g id="edge6" class="edge">
<title>Node6&#45;&gt;Node4</title>
<path fill="none" stroke="midnightblue" d="M79.11,-112.08C83.87,-104.53 90.82,-93.49 96.65,-84.23"/>
<polygon fill="midnightblue" stroke="midnightblue" points="99.62,-86.08 101.99,-75.75 93.7,-82.35 99.62,-86.08"/>
</g>
<!-- Node7&#45;&gt;Node4 -->
<g id="edge8" class="edge">
<title>Node7&#45;&gt;Node4</title>
<path fill="none" stroke="midnightblue" d="M139.02,-168.14C135.49,-155.6 128.75,-131.97 122.5,-112 119.73,-103.15 116.5,-93.37 113.74,-85.2"/>
<polygon fill="midnightblue" stroke="midnightblue" points="117.01,-83.94 110.47,-75.6 110.38,-86.19 117.01,-83.94"/>
</g>
<!-- Node7&#45;&gt;Node6 -->
<g id="edge9" class="edge">
<title>Node7&#45;&gt;Node6</title>
<path fill="none" stroke="midnightblue" d="M130.57,-168.32C120.33,-160.18 104.78,-147.84 92.5,-138.09"/>
<polygon fill="midnightblue" stroke="midnightblue" points="94.63,-135.31 84.62,-131.83 90.28,-140.79 94.63,-135.31"/>
</g>
<!-- Node8&#45;&gt;Node4 -->
<g id="edge11" class="edge">
<title>Node8&#45;&gt;Node4</title>
<path fill="none" stroke="midnightblue" d="M196.47,-112.32C179.47,-103.66 153.12,-90.24 133.51,-80.25"/>
<polygon fill="midnightblue" stroke="midnightblue" points="134.99,-77.08 124.49,-75.65 131.81,-83.31 134.99,-77.08"/>
</g>
<!-- Node10&#45;&gt;Node3 -->
<g id="edge15" class="edge">
<title>Node10&#45;&gt;Node3</title>
<path fill="none" stroke="midnightblue" d="M120.32,-336.37C117.9,-318.62 112.32,-277.67 109.04,-253.6"/>
<polygon fill="midnightblue" stroke="midnightblue" points="112.49,-253.03 107.67,-243.59 105.55,-253.97 112.49,-253.03"/>
</g>
<!-- Node11 -->
<g id="node11" class="node">
<title>Node11</title>
<g id="a_node11"><a xlink:title=" ">
<polygon fill="white" stroke="#bfbfbf" points="135,-280.5 135,-299.5 184,-299.5 184,-280.5 135,-280.5"/>
<text text-anchor="middle" x="159.5" y="-287.5" font-family="Consolas" font-size="10.00">stdint.h</text>
</a>
</g>
</g>
<!-- Node10&#45;&gt;Node11 -->
<g id="edge14" class="edge">
<title>Node10&#45;&gt;Node11</title>
<path fill="none" stroke="midnightblue" d="M127.77,-336.08C133.14,-328.46 141.02,-317.26 147.58,-307.94"/>
<polygon fill="midnightblue" stroke="midnightblue" points="150.45,-309.94 153.34,-299.75 144.72,-305.91 150.45,-309.94"/>
</g>
<!-- Node12&#45;&gt;Node3 -->
<g id="edge17" class="edge">
<title>Node12&#45;&gt;Node3</title>
<path fill="none" stroke="midnightblue" d="M217.58,-280.44C195.76,-271.52 161.35,-257.44 136.61,-247.32"/>
<polygon fill="midnightblue" stroke="midnightblue" points="137.9,-244.06 127.32,-243.52 135.25,-250.54 137.9,-244.06"/>
</g>
<!-- Node13&#45;&gt;Node12 -->
<g id="edge19" class="edge">
<title>Node13&#45;&gt;Node12</title>
<path fill="none" stroke="midnightblue" d="M255.2,-336.08C252.52,-328.85 248.65,-318.41 245.31,-309.4"/>
<polygon fill="midnightblue" stroke="midnightblue" points="248.5,-307.91 241.74,-299.75 241.93,-310.34 248.5,-307.91"/>
</g>
</g>
</svg>
