<?xml version="1.0" encoding="UTF-8" standalone="no"?>
<!DOCTYPE svg PUBLIC "-//W3C//DTD SVG 1.1//EN"
 "http://www.w3.org/Graphics/SVG/1.1/DTD/svg11.dtd">
<!-- Generated by graphviz version 2.43.0 (0)
 -->
<!-- Title: libccc/math/algebra/vector.h Pages: 1 -->
<svg width="364pt" height="431pt"
 viewBox="0.00 0.00 363.50 431.00" xmlns="http://www.w3.org/2000/svg" xmlns:xlink="http://www.w3.org/1999/xlink">
<g id="graph0" class="graph" transform="scale(1 1) rotate(0) translate(4 427)">
<title>libccc/math/algebra/vector.h</title>
<polygon fill="white" stroke="transparent" points="-4,4 -4,-427 359.5,-427 359.5,4 -4,4"/>
<!-- Node1 -->
<g id="node1" class="node">
<title>Node1</title>
<g id="a_node1"><a xlink:title=" ">
<polygon fill="#bfbfbf" stroke="black" points="119.5,-392.5 119.5,-422.5 235.5,-422.5 235.5,-392.5 119.5,-392.5"/>
<text text-anchor="start" x="127.5" y="-410.5" font-family="Consolas" font-size="10.00">libccc/math/algebra</text>
<text text-anchor="middle" x="177.5" y="-399.5" font-family="Consolas" font-size="10.00">/vector.h</text>
</a>
</g>
</g>
<!-- Node2 -->
<g id="node2" class="node">
<title>Node2</title>
<g id="a_node2"><a xlink:href="bool_8h.html" target="_top" xlink:title=" ">
<polygon fill="white" stroke="black" points="0,-336.5 0,-355.5 85,-355.5 85,-336.5 0,-336.5"/>
<text text-anchor="middle" x="42.5" y="-343.5" font-family="Consolas" font-size="10.00">libccc/bool.h</text>
</a>
</g>
</g>
<!-- Node1&#45;&gt;Node2 -->
<g id="edge1" class="edge">
<title>Node1&#45;&gt;Node2</title>
<path fill="none" stroke="midnightblue" d="M145.51,-392.4C123.06,-382.51 93.29,-369.38 71.52,-359.79"/>
<polygon fill="midnightblue" stroke="midnightblue" points="72.71,-356.49 62.14,-355.66 69.88,-362.89 72.71,-356.49"/>
</g>
<!-- Node10 -->
<g id="node10" class="node">
<title>Node10</title>
<g id="a_node10"><a xlink:href="int_8h.html" target="_top" xlink:title=" ">
<polygon fill="white" stroke="black" points="103.5,-336.5 103.5,-355.5 183.5,-355.5 183.5,-336.5 103.5,-336.5"/>
<text text-anchor="middle" x="143.5" y="-343.5" font-family="Consolas" font-size="10.00">libccc/int.h</text>
</a>
</g>
</g>
<!-- Node1&#45;&gt;Node10 -->
<g id="edge13" class="edge">
<title>Node1&#45;&gt;Node10</title>
<path fill="none" stroke="midnightblue" d="M169.44,-392.4C164.65,-384.02 158.54,-373.33 153.46,-364.42"/>
<polygon fill="midnightblue" stroke="midnightblue" points="156.45,-362.6 148.45,-355.66 150.37,-366.08 156.45,-362.6"/>
</g>
<!-- Node12 -->
<g id="node12" class="node">
<title>Node12</title>
<g id="a_node12"><a xlink:href="float_8h.html" target="_top" xlink:title=" ">
<polygon fill="white" stroke="black" points="229.5,-280.5 229.5,-299.5 319.5,-299.5 319.5,-280.5 229.5,-280.5"/>
<text text-anchor="middle" x="274.5" y="-287.5" font-family="Consolas" font-size="10.00">libccc/float.h</text>
</a>
</g>
</g>
<!-- Node1&#45;&gt;Node12 -->
<g id="edge16" class="edge">
<title>Node1&#45;&gt;Node12</title>
<path fill="none" stroke="midnightblue" d="M187.34,-392.31C197.62,-377.77 214.44,-354.71 230.5,-336 239.22,-325.84 249.67,-315.1 258.2,-306.66"/>
<polygon fill="midnightblue" stroke="midnightblue" points="260.68,-309.13 265.38,-299.64 255.78,-304.13 260.68,-309.13"/>
</g>
<!-- Node13 -->
<g id="node13" class="node">
<title>Node13</title>
<g id="a_node13"><a xlink:href="math_2float_8h.html" target="_top" xlink:title=" ">
<polygon fill="white" stroke="black" points="239.5,-336.5 239.5,-355.5 355.5,-355.5 355.5,-336.5 239.5,-336.5"/>
<text text-anchor="middle" x="297.5" y="-343.5" font-family="Consolas" font-size="10.00">libccc/math/float.h</text>
</a>
</g>
</g>
<!-- Node1&#45;&gt;Node13 -->
<g id="edge18" class="edge">
<title>Node1&#45;&gt;Node13</title>
<path fill="none" stroke="midnightblue" d="M205.94,-392.4C225.62,-382.64 251.64,-369.74 270.91,-360.18"/>
<polygon fill="midnightblue" stroke="midnightblue" points="272.63,-363.24 280.04,-355.66 269.52,-356.96 272.63,-363.24"/>
</g>
<!-- Node3 -->
<g id="node3" class="node">
<title>Node3</title>
<g id="a_node3"><a xlink:href="libccc_8h.html" target="_top" xlink:title=" ">
<polygon fill="white" stroke="black" points="94,-224.5 94,-243.5 153,-243.5 153,-224.5 94,-224.5"/>
<text text-anchor="middle" x="123.5" y="-231.5" font-family="Consolas" font-size="10.00">libccc.h</text>
</a>
</g>
</g>
<!-- Node2&#45;&gt;Node3 -->
<g id="edge2" class="edge">
<title>Node2&#45;&gt;Node3</title>
<path fill="none" stroke="midnightblue" d="M35.52,-336.36C25.84,-323.27 10.8,-298.02 22.5,-280 36.1,-259.06 61.95,-247.78 84.1,-241.75"/>
<polygon fill="midnightblue" stroke="midnightblue" points="85.08,-245.11 93.96,-239.33 83.41,-238.32 85.08,-245.11"/>
</g>
<!-- Node9 -->
<g id="node9" class="node">
<title>Node9</title>
<g id="a_node9"><a xlink:title=" ">
<polygon fill="white" stroke="#bfbfbf" points="31.5,-280.5 31.5,-299.5 95.5,-299.5 95.5,-280.5 31.5,-280.5"/>
<text text-anchor="middle" x="63.5" y="-287.5" font-family="Consolas" font-size="10.00">stdbool.h</text>
</a>
</g>
</g>
<!-- Node2&#45;&gt;Node9 -->
<g id="edge12" class="edge">
<title>Node2&#45;&gt;Node9</title>
<path fill="none" stroke="midnightblue" d="M45.97,-336.08C48.81,-328.77 52.93,-318.18 56.46,-309.1"/>
<polygon fill="midnightblue" stroke="midnightblue" points="59.73,-310.34 60.1,-299.75 53.21,-307.8 59.73,-310.34"/>
</g>
<!-- Node4 -->
<g id="node4" class="node">
<title>Node4</title>
<g id="a_node4"><a xlink:href="libccc__define_8h.html" target="_top" xlink:title=" ">
<polygon fill="white" stroke="black" points="76,-56.5 76,-75.5 171,-75.5 171,-56.5 76,-56.5"/>
<text text-anchor="middle" x="123.5" y="-63.5" font-family="Consolas" font-size="10.00">libccc_define.h</text>
</a>
</g>
</g>
<!-- Node3&#45;&gt;Node4 -->
<g id="edge3" class="edge">
<title>Node3&#45;&gt;Node4</title>
<path fill="none" stroke="midnightblue" d="M107.5,-224.5C73.62,-205.36 0.01,-157.02 28.5,-112 38.55,-96.13 55.87,-85.74 73,-79"/>
<polygon fill="midnightblue" stroke="midnightblue" points="74.21,-82.28 82.45,-75.62 71.85,-75.69 74.21,-82.28"/>
</g>
<!-- Node6 -->
<g id="node6" class="node">
<title>Node6</title>
<g id="a_node6"><a xlink:href="libccc__errors_8h.html" target="_top" xlink:title=" ">
<polygon fill="white" stroke="black" points="38,-112.5 38,-131.5 133,-131.5 133,-112.5 38,-112.5"/>
<text text-anchor="middle" x="85.5" y="-119.5" font-family="Consolas" font-size="10.00">libccc_errors.h</text>
</a>
</g>
</g>
<!-- Node3&#45;&gt;Node6 -->
<g id="edge5" class="edge">
<title>Node3&#45;&gt;Node6</title>
<path fill="none" stroke="midnightblue" d="M119.56,-224.49C115.49,-215.53 109.11,-200.94 104.5,-188 98.96,-172.42 93.77,-154.35 90.22,-141.22"/>
<polygon fill="midnightblue" stroke="midnightblue" points="93.6,-140.29 87.65,-131.51 86.83,-142.08 93.6,-140.29"/>
</g>
<!-- Node7 -->
<g id="node7" class="node">
<title>Node7</title>
<g id="a_node7"><a xlink:href="libccc__config_8h.html" target="_top" xlink:title=" ">
<polygon fill="white" stroke="black" points="114,-168.5 114,-187.5 209,-187.5 209,-168.5 114,-168.5"/>
<text text-anchor="middle" x="161.5" y="-175.5" font-family="Consolas" font-size="10.00">libccc_config.h</text>
</a>
</g>
</g>
<!-- Node3&#45;&gt;Node7 -->
<g id="edge7" class="edge">
<title>Node3&#45;&gt;Node7</title>
<path fill="none" stroke="midnightblue" d="M129.77,-224.08C135.14,-216.46 143.02,-205.26 149.58,-195.94"/>
<polygon fill="midnightblue" stroke="midnightblue" points="152.45,-197.94 155.34,-187.75 146.72,-193.91 152.45,-197.94"/>
</g>
<!-- Node8 -->
<g id="node8" class="node">
<title>Node8</title>
<g id="a_node8"><a xlink:href="libccc__naming_8h.html" target="_top" xlink:title=" ">
<polygon fill="white" stroke="black" points="190,-112.5 190,-131.5 285,-131.5 285,-112.5 190,-112.5"/>
<text text-anchor="middle" x="237.5" y="-119.5" font-family="Consolas" font-size="10.00">libccc_naming.h</text>
</a>
</g>
</g>
<!-- Node3&#45;&gt;Node8 -->
<g id="edge10" class="edge">
<title>Node3&#45;&gt;Node8</title>
<path fill="none" stroke="midnightblue" d="M153.23,-225.9C174.29,-219.4 201.68,-207.71 218.5,-188 229.58,-175.02 234.2,-155.85 236.13,-141.69"/>
<polygon fill="midnightblue" stroke="midnightblue" points="239.62,-141.93 237.17,-131.63 232.66,-141.22 239.62,-141.93"/>
</g>
<!-- Node5 -->
<g id="node5" class="node">
<title>Node5</title>
<g id="a_node5"><a xlink:title=" ">
<polygon fill="white" stroke="#bfbfbf" points="89,-0.5 89,-19.5 158,-19.5 158,-0.5 89,-0.5"/>
<text text-anchor="middle" x="123.5" y="-7.5" font-family="Consolas" font-size="10.00">stdalign.h</text>
</a>
</g>
</g>
<!-- Node4&#45;&gt;Node5 -->
<g id="edge4" class="edge">
<title>Node4&#45;&gt;Node5</title>
<path fill="none" stroke="midnightblue" d="M123.5,-56.08C123.5,-49.01 123.5,-38.86 123.5,-29.99"/>
<polygon fill="midnightblue" stroke="midnightblue" points="127,-29.75 123.5,-19.75 120,-29.75 127,-29.75"/>
</g>
<!-- Node6&#45;&gt;Node4 -->
<g id="edge6" class="edge">
<title>Node6&#45;&gt;Node4</title>
<path fill="none" stroke="midnightblue" d="M91.77,-112.08C97.14,-104.46 105.02,-93.26 111.58,-83.94"/>
<polygon fill="midnightblue" stroke="midnightblue" points="114.45,-85.94 117.34,-75.75 108.72,-81.91 114.45,-85.94"/>
</g>
<!-- Node7&#45;&gt;Node4 -->
<g id="edge8" class="edge">
<title>Node7&#45;&gt;Node4</title>
<path fill="none" stroke="midnightblue" d="M159.01,-168.09C155.43,-155.5 148.5,-131.82 141.5,-112 138.31,-102.96 134.39,-93.06 131.03,-84.85"/>
<polygon fill="midnightblue" stroke="midnightblue" points="134.23,-83.44 127.16,-75.55 127.77,-86.12 134.23,-83.44"/>
</g>
<!-- Node7&#45;&gt;Node6 -->
<g id="edge9" class="edge">
<title>Node7&#45;&gt;Node6</title>
<path fill="none" stroke="midnightblue" d="M149.29,-168.32C137.72,-160.11 120.12,-147.6 106.34,-137.81"/>
<polygon fill="midnightblue" stroke="midnightblue" points="108.11,-134.77 97.93,-131.83 104.06,-140.48 108.11,-134.77"/>
</g>
<!-- Node8&#45;&gt;Node4 -->
<g id="edge11" class="edge">
<title>Node8&#45;&gt;Node4</title>
<path fill="none" stroke="midnightblue" d="M219.44,-112.44C200.93,-103.68 171.92,-89.94 150.64,-79.86"/>
<polygon fill="midnightblue" stroke="midnightblue" points="152.01,-76.63 141.48,-75.52 149.02,-82.96 152.01,-76.63"/>
</g>
<!-- Node10&#45;&gt;Node3 -->
<g id="edge15" class="edge">
<title>Node10&#45;&gt;Node3</title>
<path fill="none" stroke="midnightblue" d="M141.93,-336.37C138.7,-318.62 131.26,-277.67 126.88,-253.6"/>
<polygon fill="midnightblue" stroke="midnightblue" points="130.29,-252.8 125.06,-243.59 123.41,-254.06 130.29,-252.8"/>
</g>
<!-- Node11 -->
<g id="node11" class="node">
<title>Node11</title>
<g id="a_node11"><a xlink:title=" ">
<polygon fill="white" stroke="#bfbfbf" points="152,-280.5 152,-299.5 211,-299.5 211,-280.5 152,-280.5"/>
<text text-anchor="middle" x="181.5" y="-287.5" font-family="Consolas" font-size="10.00">stdint.h</text>
</a>
</g>
</g>
<!-- Node10&#45;&gt;Node11 -->
<g id="edge14" class="edge">
<title>Node10&#45;&gt;Node11</title>
<path fill="none" stroke="midnightblue" d="M149.77,-336.08C155.14,-328.46 163.02,-317.26 169.58,-307.94"/>
<polygon fill="midnightblue" stroke="midnightblue" points="172.45,-309.94 175.34,-299.75 166.72,-305.91 172.45,-309.94"/>
</g>
<!-- Node12&#45;&gt;Node3 -->
<g id="edge17" class="edge">
<title>Node12&#45;&gt;Node3</title>
<path fill="none" stroke="midnightblue" d="M250.57,-280.44C225.28,-271.4 185.2,-257.06 156.82,-246.92"/>
<polygon fill="midnightblue" stroke="midnightblue" points="157.91,-243.59 147.31,-243.52 155.55,-250.18 157.91,-243.59"/>
</g>
<!-- Node13&#45;&gt;Node12 -->
<g id="edge19" class="edge">
<title>Node13&#45;&gt;Node12</title>
<path fill="none" stroke="midnightblue" d="M293.7,-336.08C290.59,-328.77 286.08,-318.18 282.21,-309.1"/>
<polygon fill="midnightblue" stroke="midnightblue" points="285.37,-307.58 278.23,-299.75 278.93,-310.32 285.37,-307.58"/>
</g>
</g>
</svg>
