<?xml version="1.0" encoding="UTF-8" standalone="no"?>
<!DOCTYPE svg PUBLIC "-//W3C//DTD SVG 1.1//EN"
 "http://www.w3.org/Graphics/SVG/1.1/DTD/svg11.dtd">
<!-- Generated by graphviz version 3.0.0 (20220226.1711)
 -->
<!-- Title: libccc/math/algebra/vector.h Pages: 1 -->
<svg width="329pt" height="431pt"
 viewBox="0.00 0.00 328.61 431.00" xmlns="http://www.w3.org/2000/svg" xmlns:xlink="http://www.w3.org/1999/xlink">
<g id="graph0" class="graph" transform="scale(1 1) rotate(0) translate(4 427)">
<title>libccc/math/algebra/vector.h</title>
<polygon fill="white" stroke="transparent" points="-4,4 -4,-427 324.61,-427 324.61,4 -4,4"/>
<!-- Node1 -->
<g id="node1" class="node">
<title>Node1</title>
<g id="a_node1"><a xlink:title=" ">
<polygon fill="#bfbfbf" stroke="black" points="114.61,-392.5 114.61,-422.5 215.61,-422.5 215.61,-392.5 114.61,-392.5"/>
<text text-anchor="start" x="122.61" y="-410.5" font-family="Consolas" font-size="10.00">libccc/math/algebra</text>
<text text-anchor="middle" x="165.11" y="-399.5" font-family="Consolas" font-size="10.00">/vector.h</text>
</a>
</g>
</g>
<!-- Node2 -->
<g id="node2" class="node">
<title>Node2</title>
<g id="a_node2"><a xlink:href="$bool_8h.html" xlink:title=" ">
<polygon fill="white" stroke="black" points="13.61,-336.5 13.61,-355.5 84.61,-355.5 84.61,-336.5 13.61,-336.5"/>
<text text-anchor="middle" x="49.11" y="-343.5" font-family="Consolas" font-size="10.00">libccc/bool.h</text>
</a>
</g>
</g>
<!-- Node1&#45;&gt;Node2 -->
<g id="edge1" class="edge">
<title>Node1&#45;&gt;Node2</title>
<path fill="none" stroke="midnightblue" d="M137.62,-392.4C118.68,-382.68 93.67,-369.86 75.07,-360.31"/>
<polygon fill="midnightblue" stroke="midnightblue" points="76.49,-357.11 65.99,-355.66 73.29,-363.34 76.49,-357.11"/>
</g>
<!-- Node11 -->
<g id="node11" class="node">
<title>Node11</title>
<g id="a_node11"><a xlink:href="$int_8h.html" xlink:title=" ">
<polygon fill="white" stroke="black" points="103.11,-336.5 103.11,-355.5 167.11,-355.5 167.11,-336.5 103.11,-336.5"/>
<text text-anchor="middle" x="135.11" y="-343.5" font-family="Consolas" font-size="10.00">libccc/int.h</text>
</a>
</g>
</g>
<!-- Node1&#45;&gt;Node11 -->
<g id="edge14" class="edge">
<title>Node1&#45;&gt;Node11</title>
<path fill="none" stroke="midnightblue" d="M158.01,-392.4C153.83,-384.11 148.5,-373.55 144.04,-364.71"/>
<polygon fill="midnightblue" stroke="midnightblue" points="147.11,-363.01 139.48,-355.66 140.86,-366.16 147.11,-363.01"/>
</g>
<!-- Node13 -->
<g id="node13" class="node">
<title>Node13</title>
<g id="a_node13"><a xlink:href="$float_8h.html" xlink:title=" ">
<polygon fill="white" stroke="black" points="216.11,-280.5 216.11,-299.5 288.11,-299.5 288.11,-280.5 216.11,-280.5"/>
<text text-anchor="middle" x="252.11" y="-287.5" font-family="Consolas" font-size="10.00">libccc/float.h</text>
</a>
</g>
</g>
<!-- Node1&#45;&gt;Node13 -->
<g id="edge17" class="edge">
<title>Node1&#45;&gt;Node13</title>
<path fill="none" stroke="midnightblue" d="M174.79,-392.24C184.65,-377.85 200.54,-355.08 215.11,-336 222.41,-326.46 230.9,-316.08 237.9,-307.71"/>
<polygon fill="midnightblue" stroke="midnightblue" points="240.78,-309.72 244.55,-299.81 235.43,-305.2 240.78,-309.72"/>
</g>
<!-- Node14 -->
<g id="node14" class="node">
<title>Node14</title>
<g id="a_node14"><a xlink:href="$math_2float_8h.html" xlink:title=" ">
<polygon fill="white" stroke="black" points="223.61,-336.5 223.61,-355.5 320.61,-355.5 320.61,-336.5 223.61,-336.5"/>
<text text-anchor="middle" x="272.11" y="-343.5" font-family="Consolas" font-size="10.00">libccc/math/float.h</text>
</a>
</g>
</g>
<!-- Node1&#45;&gt;Node14 -->
<g id="edge19" class="edge">
<title>Node1&#45;&gt;Node14</title>
<path fill="none" stroke="midnightblue" d="M190.47,-392.4C207.78,-382.77 230.59,-370.09 247.7,-360.58"/>
<polygon fill="midnightblue" stroke="midnightblue" points="249.51,-363.58 256.55,-355.66 246.1,-357.46 249.51,-363.58"/>
</g>
<!-- Node3 -->
<g id="node3" class="node">
<title>Node3</title>
<g id="a_node3"><a xlink:href="$libccc_8h.html" xlink:title=" ">
<polygon fill="white" stroke="black" points="95.11,-224.5 95.11,-243.5 145.11,-243.5 145.11,-224.5 95.11,-224.5"/>
<text text-anchor="middle" x="120.11" y="-231.5" font-family="Consolas" font-size="10.00">libccc.h</text>
</a>
</g>
</g>
<!-- Node2&#45;&gt;Node3 -->
<g id="edge2" class="edge">
<title>Node2&#45;&gt;Node3</title>
<path fill="none" stroke="midnightblue" d="M41.78,-336.45C31.57,-323.47 15.6,-298.37 27.11,-280 39.81,-259.76 64.47,-248.4 85.21,-242.16"/>
<polygon fill="midnightblue" stroke="midnightblue" points="86.28,-245.49 95.01,-239.49 84.44,-238.74 86.28,-245.49"/>
</g>
<!-- Node10 -->
<g id="node10" class="node">
<title>Node10</title>
<g id="a_node10"><a xlink:title=" ">
<polygon fill="white" stroke="#bfbfbf" points="36.11,-280.5 36.11,-299.5 92.11,-299.5 92.11,-280.5 36.11,-280.5"/>
<text text-anchor="middle" x="64.11" y="-287.5" font-family="Consolas" font-size="10.00">stdbool.h</text>
</a>
</g>
</g>
<!-- Node2&#45;&gt;Node10 -->
<g id="edge13" class="edge">
<title>Node2&#45;&gt;Node10</title>
<path fill="none" stroke="midnightblue" d="M51.59,-336.08C53.6,-328.85 56.5,-318.41 59,-309.4"/>
<polygon fill="midnightblue" stroke="midnightblue" points="62.38,-310.32 61.68,-299.75 55.64,-308.45 62.38,-310.32"/>
</g>
<!-- Node4 -->
<g id="node4" class="node">
<title>Node4</title>
<g id="a_node4"><a xlink:href="$libccc__define_8h.html" xlink:title=" ">
<polygon fill="white" stroke="black" points="45.11,-56.5 45.11,-75.5 127.11,-75.5 127.11,-56.5 45.11,-56.5"/>
<text text-anchor="middle" x="86.11" y="-63.5" font-family="Consolas" font-size="10.00">libccc_define.h</text>
</a>
</g>
</g>
<!-- Node3&#45;&gt;Node4 -->
<g id="edge3" class="edge">
<title>Node3&#45;&gt;Node4</title>
<path fill="none" stroke="midnightblue" d="M101.99,-224.37C74.07,-209.88 21.8,-177.7 3.11,-132 -0.25,-123.77 -1.43,-119.64 3.11,-112 12.21,-96.72 28.5,-86.31 44.26,-79.39"/>
<polygon fill="midnightblue" stroke="midnightblue" points="45.95,-82.48 53.93,-75.51 43.35,-75.98 45.95,-82.48"/>
</g>
<!-- Node6 -->
<g id="node6" class="node">
<title>Node6</title>
<g id="a_node6"><a xlink:href="$libccc__errors_8h.html" xlink:title=" ">
<polygon fill="white" stroke="black" points="12.11,-112.5 12.11,-131.5 92.11,-131.5 92.11,-112.5 12.11,-112.5"/>
<text text-anchor="middle" x="52.11" y="-119.5" font-family="Consolas" font-size="10.00">libccc_errors.h</text>
</a>
</g>
</g>
<!-- Node3&#45;&gt;Node6 -->
<g id="edge5" class="edge">
<title>Node3&#45;&gt;Node6</title>
<path fill="none" stroke="midnightblue" d="M106.69,-224.23C95.33,-216.13 79.45,-203.1 70.11,-188 61.35,-173.84 56.77,-155.36 54.43,-141.72"/>
<polygon fill="midnightblue" stroke="midnightblue" points="57.86,-141 52.95,-131.61 50.94,-142.01 57.86,-141"/>
</g>
<!-- Node7 -->
<g id="node7" class="node">
<title>Node7</title>
<g id="a_node7"><a xlink:href="$libccc__config_8h.html" xlink:title=" ">
<polygon fill="white" stroke="black" points="79.11,-168.5 79.11,-187.5 161.11,-187.5 161.11,-168.5 79.11,-168.5"/>
<text text-anchor="middle" x="120.11" y="-175.5" font-family="Consolas" font-size="10.00">libccc_config.h</text>
</a>
</g>
</g>
<!-- Node3&#45;&gt;Node7 -->
<g id="edge7" class="edge">
<title>Node3&#45;&gt;Node7</title>
<path fill="none" stroke="midnightblue" d="M120.11,-224.08C120.11,-217.01 120.11,-206.86 120.11,-197.99"/>
<polygon fill="midnightblue" stroke="midnightblue" points="123.61,-197.75 120.11,-187.75 116.61,-197.75 123.61,-197.75"/>
</g>
<!-- Node8 -->
<g id="node8" class="node">
<title>Node8</title>
<g id="a_node8"><a xlink:href="$libccc__naming_8h.html" xlink:title=" ">
<polygon fill="white" stroke="black" points="148.61,-112.5 148.61,-131.5 235.61,-131.5 235.61,-112.5 148.61,-112.5"/>
<text text-anchor="middle" x="192.11" y="-119.5" font-family="Consolas" font-size="10.00">libccc_naming.h</text>
</a>
</g>
</g>
<!-- Node3&#45;&gt;Node8 -->
<g id="edge10" class="edge">
<title>Node3&#45;&gt;Node8</title>
<path fill="none" stroke="midnightblue" d="M132.89,-224.42C144.14,-216.26 160.23,-203.02 170.11,-188 179.43,-173.85 185.18,-155.37 188.46,-141.73"/>
<polygon fill="midnightblue" stroke="midnightblue" points="191.95,-142.13 190.65,-131.61 185.11,-140.65 191.95,-142.13"/>
</g>
<!-- Node9 -->
<g id="node9" class="node">
<title>Node9</title>
<g id="a_node9"><a xlink:title=" ">
<polygon fill="white" stroke="#bfbfbf" points="217.61,-168.5 217.61,-187.5 264.61,-187.5 264.61,-168.5 217.61,-168.5"/>
<text text-anchor="middle" x="241.11" y="-175.5" font-family="Consolas" font-size="10.00">math.h</text>
</a>
</g>
</g>
<!-- Node3&#45;&gt;Node9 -->
<g id="edge12" class="edge">
<title>Node3&#45;&gt;Node9</title>
<path fill="none" stroke="midnightblue" d="M139.29,-224.44C159.02,-215.64 190,-201.81 212.61,-191.72"/>
<polygon fill="midnightblue" stroke="midnightblue" points="214.33,-194.79 222.03,-187.52 211.47,-188.4 214.33,-194.79"/>
</g>
<!-- Node5 -->
<g id="node5" class="node">
<title>Node5</title>
<g id="a_node5"><a xlink:title=" ">
<polygon fill="white" stroke="#bfbfbf" points="56.61,-0.5 56.61,-19.5 115.61,-19.5 115.61,-0.5 56.61,-0.5"/>
<text text-anchor="middle" x="86.11" y="-7.5" font-family="Consolas" font-size="10.00">stdalign.h</text>
</a>
</g>
</g>
<!-- Node4&#45;&gt;Node5 -->
<g id="edge4" class="edge">
<title>Node4&#45;&gt;Node5</title>
<path fill="none" stroke="midnightblue" d="M86.11,-56.08C86.11,-49.01 86.11,-38.86 86.11,-29.99"/>
<polygon fill="midnightblue" stroke="midnightblue" points="89.61,-29.75 86.11,-19.75 82.61,-29.75 89.61,-29.75"/>
</g>
<!-- Node6&#45;&gt;Node4 -->
<g id="edge6" class="edge">
<title>Node6&#45;&gt;Node4</title>
<path fill="none" stroke="midnightblue" d="M57.73,-112.08C62.48,-104.53 69.43,-93.49 75.27,-84.23"/>
<polygon fill="midnightblue" stroke="midnightblue" points="78.24,-86.08 80.6,-75.75 72.31,-82.35 78.24,-86.08"/>
</g>
<!-- Node7&#45;&gt;Node4 -->
<g id="edge8" class="edge">
<title>Node7&#45;&gt;Node4</title>
<path fill="none" stroke="midnightblue" d="M117.64,-168.14C114.11,-155.6 107.36,-131.97 101.11,-112 98.35,-103.15 95.11,-93.37 92.35,-85.2"/>
<polygon fill="midnightblue" stroke="midnightblue" points="95.62,-83.94 89.09,-75.6 88.99,-86.19 95.62,-83.94"/>
</g>
<!-- Node7&#45;&gt;Node6 -->
<g id="edge9" class="edge">
<title>Node7&#45;&gt;Node6</title>
<path fill="none" stroke="midnightblue" d="M109.19,-168.32C98.94,-160.18 83.39,-147.84 71.11,-138.09"/>
<polygon fill="midnightblue" stroke="midnightblue" points="73.25,-135.31 63.24,-131.83 68.89,-140.79 73.25,-135.31"/>
</g>
<!-- Node8&#45;&gt;Node4 -->
<g id="edge11" class="edge">
<title>Node8&#45;&gt;Node4</title>
<path fill="none" stroke="midnightblue" d="M175.08,-112.32C158.08,-103.66 131.74,-90.24 112.12,-80.25"/>
<polygon fill="midnightblue" stroke="midnightblue" points="113.6,-77.08 103.1,-75.65 110.42,-83.31 113.6,-77.08"/>
</g>
<!-- Node11&#45;&gt;Node3 -->
<g id="edge16" class="edge">
<title>Node11&#45;&gt;Node3</title>
<path fill="none" stroke="midnightblue" d="M133.94,-336.37C131.52,-318.62 125.93,-277.67 122.65,-253.6"/>
<polygon fill="midnightblue" stroke="midnightblue" points="126.11,-253.03 121.29,-243.59 119.17,-253.97 126.11,-253.03"/>
</g>
<!-- Node12 -->
<g id="node12" class="node">
<title>Node12</title>
<g id="a_node12"><a xlink:title=" ">
<polygon fill="white" stroke="#bfbfbf" points="148.61,-280.5 148.61,-299.5 197.61,-299.5 197.61,-280.5 148.61,-280.5"/>
<text text-anchor="middle" x="173.11" y="-287.5" font-family="Consolas" font-size="10.00">stdint.h</text>
</a>
</g>
</g>
<!-- Node11&#45;&gt;Node12 -->
<g id="edge15" class="edge">
<title>Node11&#45;&gt;Node12</title>
<path fill="none" stroke="midnightblue" d="M141.39,-336.08C146.76,-328.46 154.63,-317.26 161.19,-307.94"/>
<polygon fill="midnightblue" stroke="midnightblue" points="164.06,-309.94 166.96,-299.75 158.34,-305.91 164.06,-309.94"/>
</g>
<!-- Node13&#45;&gt;Node3 -->
<g id="edge18" class="edge">
<title>Node13&#45;&gt;Node3</title>
<path fill="none" stroke="midnightblue" d="M231.2,-280.44C209.38,-271.52 174.96,-257.44 150.22,-247.32"/>
<polygon fill="midnightblue" stroke="midnightblue" points="151.51,-244.06 140.93,-243.52 148.86,-250.54 151.51,-244.06"/>
</g>
<!-- Node14&#45;&gt;Node13 -->
<g id="edge20" class="edge">
<title>Node14&#45;&gt;Node13</title>
<path fill="none" stroke="midnightblue" d="M268.81,-336.08C266.13,-328.85 262.27,-318.41 258.93,-309.4"/>
<polygon fill="midnightblue" stroke="midnightblue" points="262.11,-307.91 255.36,-299.75 255.55,-310.34 262.11,-307.91"/>
</g>
</g>
</svg>
