<?xml version="1.0" encoding="UTF-8" standalone="no"?>
<!DOCTYPE svg PUBLIC "-//W3C//DTD SVG 1.1//EN"
 "http://www.w3.org/Graphics/SVG/1.1/DTD/svg11.dtd">
<!-- Generated by graphviz version 2.43.0 (0)
 -->
<!-- Title: libccc/math/algebra/vector.h Pages: 1 -->
<!--zoomable 375 -->
<svg id="main" version="1.1" xmlns="http://www.w3.org/2000/svg" xmlns:xlink="http://www.w3.org/1999/xlink" xml:space="preserve" onload="init(evt)">
<style type="text/css"><![CDATA[
.edge:hover path { stroke: red; }
.edge:hover polygon { stroke: red; fill: red; }
]]></style>
<script type="text/javascript"><![CDATA[
var edges = document.getElementsByTagName('g');
if (edges && edges.length) {
  for (var i=0;i<edges.length;i++) {
    if (edges[i].id.substr(0,4)=='edge') {
      edges[i].setAttribute('class','edge');
    }
  }
}
]]></script>
        <defs>
                <circle id="rim" cx="0" cy="0" r="7"/>
                <circle id="rim2" cx="0" cy="0" r="3.5"/>
                <g id="zoomPlus">
                        <use xlink:href="#rim" fill="#404040">
                                <set attributeName="fill" to="#808080" begin="zoomplus.mouseover" end="zoomplus.mouseout"/>
                        </use>
                        <path d="M-4,0h8M0,-4v8" fill="none" stroke="white" stroke-width="1.5" pointer-events="none"/>
                </g>
                <g id="zoomMin">
                        <use xlink:href="#rim" fill="#404040">
                                <set attributeName="fill" to="#808080" begin="zoomminus.mouseover" end="zoomminus.mouseout"/>
                        </use>
                        <path d="M-4,0h8" fill="none" stroke="white" stroke-width="1.5" pointer-events="none"/>
                </g>
                <g id="dirArrow">
                        <path fill="none" stroke="white" stroke-width="1.5" d="M0,-3.0v7 M-2.5,-0.5L0,-3.0L2.5,-0.5"/>
                </g>
               <g id="resetDef">
                       <use xlink:href="#rim2" fill="#404040">
                               <set attributeName="fill" to="#808080" begin="reset.mouseover" end="reset.mouseout"/>
                       </use>
               </g>
        </defs>

<script type="text/javascript">
var viewWidth = 1000;
var viewHeight = 375;
var sectionId = 'dynsection-0';
</script>
<script xlink:href="svgpan.js"/>
<svg id="graph" class="graph">
<g id="viewport">
<title>libccc/math/algebra/vector.h</title>
<polygon fill="white" stroke="transparent" points="-4,4 -4,-371 996.21,-371 996.21,4 -4,4"/>
<!-- Node1 -->
<g id="node1" class="node">
<title>Node1</title>
<g id="a_node1"><a xlink:title=" ">
<polygon fill="#bfbfbf" stroke="black" points="815.21,-336.5 815.21,-366.5 931.21,-366.5 931.21,-336.5 815.21,-336.5"/>
<text text-anchor="start" x="823.21" y="-354.5" font-family="Consolas" font-size="10.00">libccc/math/algebra</text>
<text text-anchor="middle" x="873.21" y="-343.5" font-family="Consolas" font-size="10.00">/vector.h</text>
</a>
</g>
</g>
<!-- Node2 -->
<g id="node2" class="node">
<title>Node2</title>
<g id="a_node2"><a xlink:href="bool_8h.html" target="_top" xlink:title=" ">
<polygon fill="white" stroke="black" points="249.71,-280.5 249.71,-299.5 334.71,-299.5 334.71,-280.5 249.71,-280.5"/>
<text text-anchor="middle" x="292.21" y="-287.5" font-family="Consolas" font-size="10.00">libccc/bool.h</text>
</a>
</g>
</g>
<!-- Node1&#45;&gt;Node2 -->
<g id="edge1" class="edge">
<title>Node1&#45;&gt;Node2</title>
<path fill="none" stroke="midnightblue" d="M815.11,-344.55C701.93,-332.96 453.52,-307.52 344.85,-296.39"/>
<polygon fill="midnightblue" stroke="midnightblue" points="345.09,-292.9 334.78,-295.36 344.37,-299.86 345.09,-292.9"/>
</g>
<!-- Node11 -->
<g id="node11" class="node">
<title>Node11</title>
<g id="a_node11"><a xlink:href="float_8h.html" target="_top" xlink:title=" ">
<polygon fill="white" stroke="black" points="588.21,-56.5 588.21,-75.5 678.21,-75.5 678.21,-56.5 588.21,-56.5"/>
<text text-anchor="middle" x="633.21" y="-63.5" font-family="Consolas" font-size="10.00">libccc/float.h</text>
</a>
</g>
</g>
<!-- Node1&#45;&gt;Node11 -->
<g id="edge27" class="edge">
<title>Node1&#45;&gt;Node11</title>
<path fill="none" stroke="midnightblue" d="M891.99,-336.34C915.92,-316.53 954.21,-278.11 954.21,-235 954.21,-235 954.21,-235 954.21,-177 954.21,-138.58 930.74,-130.75 897.21,-112 862.35,-92.51 755.37,-78.91 688.78,-72.07"/>
<polygon fill="midnightblue" stroke="midnightblue" points="688.75,-68.56 678.45,-71.04 688.05,-75.52 688.75,-68.56"/>
</g>
<!-- Node13 -->
<g id="node13" class="node">
<title>Node13</title>
<g id="a_node13"><a xlink:href="int_8h.html" target="_top" xlink:title=" ">
<polygon fill="white" stroke="black" points="876.21,-56.5 876.21,-75.5 956.21,-75.5 956.21,-56.5 876.21,-56.5"/>
<text text-anchor="middle" x="916.21" y="-63.5" font-family="Consolas" font-size="10.00">libccc/int.h</text>
</a>
</g>
</g>
<!-- Node1&#45;&gt;Node13 -->
<g id="edge26" class="edge">
<title>Node1&#45;&gt;Node13</title>
<path fill="none" stroke="midnightblue" d="M914.58,-336.35C933.11,-328.22 953.95,-316.32 968.21,-300 988.47,-276.81 992.21,-265.8 992.21,-235 992.21,-235 992.21,-235 992.21,-177 992.21,-146.2 985.74,-137.32 968.21,-112 960.03,-100.19 948.05,-89.54 937.66,-81.57"/>
<polygon fill="midnightblue" stroke="midnightblue" points="939.55,-78.62 929.41,-75.54 935.41,-84.27 939.55,-78.62"/>
</g>
<!-- Node17 -->
<g id="node17" class="node">
<title>Node17</title>
<g id="a_node17"><a xlink:href="math_2float_8h.html" target="_top" xlink:title=" ">
<polygon fill="white" stroke="black" points="648.21,-112.5 648.21,-131.5 764.21,-131.5 764.21,-112.5 648.21,-112.5"/>
<text text-anchor="middle" x="706.21" y="-119.5" font-family="Consolas" font-size="10.00">libccc/math/float.h</text>
</a>
</g>
</g>
<!-- Node1&#45;&gt;Node17 -->
<g id="edge28" class="edge">
<title>Node1&#45;&gt;Node17</title>
<path fill="none" stroke="midnightblue" d="M862.76,-336.27C833.43,-296.31 750.39,-183.19 718.7,-140.02"/>
<polygon fill="midnightblue" stroke="midnightblue" points="721.5,-137.92 712.76,-131.93 715.86,-142.06 721.5,-137.92"/>
</g>
<!-- Node3 -->
<g id="node3" class="node">
<title>Node3</title>
<g id="a_node3"><a xlink:href="libccc_8h.html" target="_top" xlink:title=" ">
<polygon fill="white" stroke="black" points="262.71,-224.5 262.71,-243.5 321.71,-243.5 321.71,-224.5 262.71,-224.5"/>
<text text-anchor="middle" x="292.21" y="-231.5" font-family="Consolas" font-size="10.00">libccc.h</text>
</a>
</g>
</g>
<!-- Node2&#45;&gt;Node3 -->
<g id="edge2" class="edge">
<title>Node2&#45;&gt;Node3</title>
<path fill="none" stroke="midnightblue" d="M292.21,-280.08C292.21,-273.01 292.21,-262.86 292.21,-253.99"/>
<polygon fill="midnightblue" stroke="midnightblue" points="295.71,-253.75 292.21,-243.75 288.71,-253.75 295.71,-253.75"/>
</g>
<!-- Node18 -->
<g id="node18" class="node">
<title>Node18</title>
<g id="a_node18"><a xlink:title=" ">
<polygon fill="white" stroke="#bfbfbf" points="180.21,-224.5 180.21,-243.5 244.21,-243.5 244.21,-224.5 180.21,-224.5"/>
<text text-anchor="middle" x="212.21" y="-231.5" font-family="Consolas" font-size="10.00">stdbool.h</text>
</a>
</g>
</g>
<!-- Node2&#45;&gt;Node18 -->
<g id="edge25" class="edge">
<title>Node2&#45;&gt;Node18</title>
<path fill="none" stroke="midnightblue" d="M279.35,-280.32C266.99,-271.98 248.08,-259.21 233.47,-249.35"/>
<polygon fill="midnightblue" stroke="midnightblue" points="235.28,-246.35 225.03,-243.65 231.36,-252.15 235.28,-246.35"/>
</g>
<!-- Node4 -->
<g id="node4" class="node">
<title>Node4</title>
<g id="a_node4"><a xlink:href="libccc__define_8h.html" target="_top" xlink:title=" ">
<polygon fill="white" stroke="black" points="55.71,-56.5 55.71,-75.5 150.71,-75.5 150.71,-56.5 55.71,-56.5"/>
<text text-anchor="middle" x="103.21" y="-63.5" font-family="Consolas" font-size="10.00">libccc_define.h</text>
</a>
</g>
</g>
<!-- Node3&#45;&gt;Node4 -->
<g id="edge3" class="edge">
<title>Node3&#45;&gt;Node4</title>
<path fill="none" stroke="midnightblue" d="M262.44,-225.93C259.33,-225.25 256.21,-224.6 253.21,-224 157.75,-205.05 115.9,-245.26 37.21,-188 7.97,-166.73 -11.13,-142.55 8.21,-112 18.25,-96.13 35.58,-85.74 52.71,-79"/>
<polygon fill="midnightblue" stroke="midnightblue" points="53.92,-82.28 62.16,-75.62 51.56,-75.69 53.92,-82.28"/>
</g>
<!-- Node6 -->
<g id="node6" class="node">
<title>Node6</title>
<g id="a_node6"><a xlink:href="libccc__errors_8h.html" target="_top" xlink:title=" ">
<polygon fill="white" stroke="black" points="17.71,-112.5 17.71,-131.5 112.71,-131.5 112.71,-112.5 17.71,-112.5"/>
<text text-anchor="middle" x="65.21" y="-119.5" font-family="Consolas" font-size="10.00">libccc_errors.h</text>
</a>
</g>
</g>
<!-- Node3&#45;&gt;Node6 -->
<g id="edge5" class="edge">
<title>Node3&#45;&gt;Node6</title>
<path fill="none" stroke="midnightblue" d="M262.43,-225.95C259.32,-225.27 256.2,-224.61 253.21,-224 207.44,-214.75 76.26,-223.73 46.21,-188 34.78,-174.42 43.44,-154.26 52.46,-140"/>
<polygon fill="midnightblue" stroke="midnightblue" points="55.45,-141.83 58.24,-131.6 49.69,-137.86 55.45,-141.83"/>
</g>
<!-- Node7 -->
<g id="node7" class="node">
<title>Node7</title>
<g id="a_node7"><a xlink:href="libccc__config_8h.html" target="_top" xlink:title=" ">
<polygon fill="white" stroke="black" points="55.71,-168.5 55.71,-187.5 150.71,-187.5 150.71,-168.5 55.71,-168.5"/>
<text text-anchor="middle" x="103.21" y="-175.5" font-family="Consolas" font-size="10.00">libccc_config.h</text>
</a>
</g>
</g>
<!-- Node3&#45;&gt;Node7 -->
<g id="edge7" class="edge">
<title>Node3&#45;&gt;Node7</title>
<path fill="none" stroke="midnightblue" d="M262.68,-224.56C230.41,-215.34 178.56,-200.53 142.79,-190.31"/>
<polygon fill="midnightblue" stroke="midnightblue" points="143.73,-186.94 133.15,-187.56 141.81,-193.67 143.73,-186.94"/>
</g>
<!-- Node8 -->
<g id="node8" class="node">
<title>Node8</title>
<g id="a_node8"><a xlink:href="libccc__naming_8h.html" target="_top" xlink:title=" ">
<polygon fill="white" stroke="black" points="168.71,-168.5 168.71,-187.5 263.71,-187.5 263.71,-168.5 168.71,-168.5"/>
<text text-anchor="middle" x="216.21" y="-175.5" font-family="Consolas" font-size="10.00">libccc_naming.h</text>
</a>
</g>
</g>
<!-- Node3&#45;&gt;Node8 -->
<g id="edge10" class="edge">
<title>Node3&#45;&gt;Node8</title>
<path fill="none" stroke="midnightblue" d="M280,-224.32C268.43,-216.11 250.83,-203.6 237.05,-193.81"/>
<polygon fill="midnightblue" stroke="midnightblue" points="238.82,-190.77 228.64,-187.83 234.76,-196.48 238.82,-190.77"/>
</g>
<!-- Node9 -->
<g id="node9" class="node">
<title>Node9</title>
<g id="a_node9"><a xlink:href="math_8h.html" target="_top" xlink:title=" ">
<polygon fill="white" stroke="black" points="537.21,-168.5 537.21,-187.5 585.21,-187.5 585.21,-168.5 537.21,-168.5"/>
<text text-anchor="middle" x="561.21" y="-175.5" font-family="Consolas" font-size="10.00">math.h</text>
</a>
</g>
</g>
<!-- Node3&#45;&gt;Node9 -->
<g id="edge12" class="edge">
<title>Node3&#45;&gt;Node9</title>
<path fill="none" stroke="midnightblue" d="M321.76,-227.07C372.05,-216.97 473.95,-196.52 527.15,-185.84"/>
<polygon fill="midnightblue" stroke="midnightblue" points="527.99,-189.24 537.11,-183.84 526.61,-182.37 527.99,-189.24"/>
</g>
<!-- Node5 -->
<g id="node5" class="node">
<title>Node5</title>
<g id="a_node5"><a xlink:title=" ">
<polygon fill="white" stroke="#bfbfbf" points="68.71,-0.5 68.71,-19.5 137.71,-19.5 137.71,-0.5 68.71,-0.5"/>
<text text-anchor="middle" x="103.21" y="-7.5" font-family="Consolas" font-size="10.00">stdalign.h</text>
</a>
</g>
</g>
<!-- Node4&#45;&gt;Node5 -->
<g id="edge4" class="edge">
<title>Node4&#45;&gt;Node5</title>
<path fill="none" stroke="midnightblue" d="M103.21,-56.08C103.21,-49.01 103.21,-38.86 103.21,-29.99"/>
<polygon fill="midnightblue" stroke="midnightblue" points="106.71,-29.75 103.21,-19.75 99.71,-29.75 106.71,-29.75"/>
</g>
<!-- Node6&#45;&gt;Node4 -->
<g id="edge6" class="edge">
<title>Node6&#45;&gt;Node4</title>
<path fill="none" stroke="midnightblue" d="M71.48,-112.08C76.85,-104.46 84.72,-93.26 91.29,-83.94"/>
<polygon fill="midnightblue" stroke="midnightblue" points="94.16,-85.94 97.05,-75.75 88.43,-81.91 94.16,-85.94"/>
</g>
<!-- Node7&#45;&gt;Node4 -->
<g id="edge8" class="edge">
<title>Node7&#45;&gt;Node4</title>
<path fill="none" stroke="midnightblue" d="M107.83,-168.34C112.27,-159.49 118.66,-145.22 121.21,-132 124.32,-115.85 118.6,-97.86 112.8,-84.9"/>
<polygon fill="midnightblue" stroke="midnightblue" points="115.84,-83.16 108.3,-75.73 109.56,-86.25 115.84,-83.16"/>
</g>
<!-- Node7&#45;&gt;Node6 -->
<g id="edge9" class="edge">
<title>Node7&#45;&gt;Node6</title>
<path fill="none" stroke="midnightblue" d="M96.93,-168.08C91.56,-160.46 83.69,-149.26 77.13,-139.94"/>
<polygon fill="midnightblue" stroke="midnightblue" points="79.98,-137.91 71.37,-131.75 74.26,-141.94 79.98,-137.91"/>
</g>
<!-- Node8&#45;&gt;Node4 -->
<g id="edge11" class="edge">
<title>Node8&#45;&gt;Node4</title>
<path fill="none" stroke="midnightblue" d="M207.34,-168.37C188.36,-149.89 143.57,-106.29 119.38,-82.74"/>
<polygon fill="midnightblue" stroke="midnightblue" points="121.64,-80.06 112.03,-75.59 116.76,-85.07 121.64,-80.06"/>
</g>
<!-- Node10 -->
<g id="node10" class="node">
<title>Node10</title>
<g id="a_node10"><a xlink:href="constants_8h.html" target="_top" xlink:title=" ">
<polygon fill="white" stroke="black" points="492.71,-112.5 492.71,-131.5 629.71,-131.5 629.71,-112.5 492.71,-112.5"/>
<text text-anchor="middle" x="561.21" y="-119.5" font-family="Consolas" font-size="10.00">libccc/math/constants.h</text>
</a>
</g>
</g>
<!-- Node9&#45;&gt;Node10 -->
<g id="edge13" class="edge">
<title>Node9&#45;&gt;Node10</title>
<path fill="none" stroke="midnightblue" d="M561.21,-168.08C561.21,-161.01 561.21,-150.86 561.21,-141.99"/>
<polygon fill="midnightblue" stroke="midnightblue" points="564.71,-141.75 561.21,-131.75 557.71,-141.75 564.71,-141.75"/>
</g>
<!-- Node12 -->
<g id="node12" class="node">
<title>Node12</title>
<g id="a_node12"><a xlink:href="math_2int_8h.html" target="_top" xlink:title=" ">
<polygon fill="white" stroke="black" points="782.21,-112.5 782.21,-131.5 888.21,-131.5 888.21,-112.5 782.21,-112.5"/>
<text text-anchor="middle" x="835.21" y="-119.5" font-family="Consolas" font-size="10.00">libccc/math/int.h</text>
</a>
</g>
</g>
<!-- Node9&#45;&gt;Node12 -->
<g id="edge16" class="edge">
<title>Node9&#45;&gt;Node12</title>
<path fill="none" stroke="midnightblue" d="M585.52,-172.21C629.35,-163.57 722.55,-145.2 781.86,-133.51"/>
<polygon fill="midnightblue" stroke="midnightblue" points="782.66,-136.92 791.8,-131.56 781.31,-130.06 782.66,-136.92"/>
</g>
<!-- Node15 -->
<g id="node15" class="node">
<title>Node15</title>
<g id="a_node15"><a xlink:href="math_2fixed_8h.html" target="_top" xlink:title=" ">
<polygon fill="white" stroke="black" points="358.21,-112.5 358.21,-131.5 474.21,-131.5 474.21,-112.5 358.21,-112.5"/>
<text text-anchor="middle" x="416.21" y="-119.5" font-family="Consolas" font-size="10.00">libccc/math/fixed.h</text>
</a>
</g>
</g>
<!-- Node9&#45;&gt;Node15 -->
<g id="edge20" class="edge">
<title>Node9&#45;&gt;Node15</title>
<path fill="none" stroke="midnightblue" d="M538.23,-168.44C514.05,-159.44 475.79,-145.19 448.56,-135.05"/>
<polygon fill="midnightblue" stroke="midnightblue" points="449.67,-131.73 439.08,-131.52 447.22,-138.29 449.67,-131.73"/>
</g>
<!-- Node9&#45;&gt;Node17 -->
<g id="edge23" class="edge">
<title>Node9&#45;&gt;Node17</title>
<path fill="none" stroke="midnightblue" d="M584.18,-168.44C608.36,-159.44 646.63,-145.19 673.85,-135.05"/>
<polygon fill="midnightblue" stroke="midnightblue" points="675.19,-138.29 683.34,-131.52 672.75,-131.73 675.19,-138.29"/>
</g>
<!-- Node10&#45;&gt;Node11 -->
<g id="edge14" class="edge">
<title>Node10&#45;&gt;Node11</title>
<path fill="none" stroke="midnightblue" d="M572.78,-112.32C583.63,-104.18 600.09,-91.84 613.09,-82.09"/>
<polygon fill="midnightblue" stroke="midnightblue" points="615.53,-84.63 621.43,-75.83 611.33,-79.03 615.53,-84.63"/>
</g>
<!-- Node11&#45;&gt;Node3 -->
<g id="edge15" class="edge">
<title>Node11&#45;&gt;Node3</title>
<path fill="none" stroke="midnightblue" d="M588.03,-69.08C517.65,-73.15 386.09,-84.32 349.21,-112 344.75,-115.35 314.85,-181.87 300.23,-214.82"/>
<polygon fill="midnightblue" stroke="midnightblue" points="296.92,-213.66 296.07,-224.22 303.32,-216.49 296.92,-213.66"/>
</g>
<!-- Node12&#45;&gt;Node13 -->
<g id="edge17" class="edge">
<title>Node12&#45;&gt;Node13</title>
<path fill="none" stroke="midnightblue" d="M848.22,-112.32C860.74,-103.98 879.89,-91.21 894.68,-81.35"/>
<polygon fill="midnightblue" stroke="midnightblue" points="896.85,-84.11 903.23,-75.65 892.96,-78.29 896.85,-84.11"/>
</g>
<!-- Node13&#45;&gt;Node3 -->
<g id="edge19" class="edge">
<title>Node13&#45;&gt;Node3</title>
<path fill="none" stroke="midnightblue" d="M916.36,-75.63C916.11,-89.67 913.44,-117.34 897.21,-132 813.4,-207.69 453.17,-227.29 332.09,-231.79"/>
<polygon fill="midnightblue" stroke="midnightblue" points="331.66,-228.3 321.79,-232.15 331.91,-235.29 331.66,-228.3"/>
</g>
<!-- Node14 -->
<g id="node14" class="node">
<title>Node14</title>
<g id="a_node14"><a xlink:title=" ">
<polygon fill="white" stroke="#bfbfbf" points="886.71,-0.5 886.71,-19.5 945.71,-19.5 945.71,-0.5 886.71,-0.5"/>
<text text-anchor="middle" x="916.21" y="-7.5" font-family="Consolas" font-size="10.00">stdint.h</text>
</a>
</g>
</g>
<!-- Node13&#45;&gt;Node14 -->
<g id="edge18" class="edge">
<title>Node13&#45;&gt;Node14</title>
<path fill="none" stroke="midnightblue" d="M916.21,-56.08C916.21,-49.01 916.21,-38.86 916.21,-29.99"/>
<polygon fill="midnightblue" stroke="midnightblue" points="919.71,-29.75 916.21,-19.75 912.71,-29.75 919.71,-29.75"/>
</g>
<!-- Node16 -->
<g id="node16" class="node">
<title>Node16</title>
<g id="a_node16"><a xlink:href="fixed_8h.html" target="_top" xlink:title=" ">
<polygon fill="white" stroke="black" points="309.21,-56.5 309.21,-75.5 399.21,-75.5 399.21,-56.5 309.21,-56.5"/>
<text text-anchor="middle" x="354.21" y="-63.5" font-family="Consolas" font-size="10.00">libccc/fixed.h</text>
</a>
</g>
</g>
<!-- Node15&#45;&gt;Node16 -->
<g id="edge21" class="edge">
<title>Node15&#45;&gt;Node16</title>
<path fill="none" stroke="midnightblue" d="M406.25,-112.32C397.08,-104.34 383.27,-92.31 372.18,-82.65"/>
<polygon fill="midnightblue" stroke="midnightblue" points="374.19,-79.76 364.35,-75.83 369.59,-85.04 374.19,-79.76"/>
</g>
<!-- Node16&#45;&gt;Node3 -->
<g id="edge22" class="edge">
<title>Node16&#45;&gt;Node3</title>
<path fill="none" stroke="midnightblue" d="M344.51,-75.66C335.72,-84.06 323.12,-97.63 316.21,-112 300.01,-145.65 294.74,-189.6 293.03,-214.21"/>
<polygon fill="midnightblue" stroke="midnightblue" points="289.53,-214.14 292.46,-224.32 296.52,-214.54 289.53,-214.14"/>
</g>
<!-- Node17&#45;&gt;Node11 -->
<g id="edge24" class="edge">
<title>Node17&#45;&gt;Node11</title>
<path fill="none" stroke="midnightblue" d="M694.48,-112.32C683.37,-104.11 666.46,-91.6 653.22,-81.81"/>
<polygon fill="midnightblue" stroke="midnightblue" points="655.27,-78.97 645.15,-75.83 651.11,-84.59 655.27,-78.97"/>
</g>
</g>
</svg>
        <g id="navigator" transform="translate(0 0)" fill="#404254">
                <rect fill="#f2f5e9" fill-opacity="0.5" stroke="#606060" stroke-width=".5" x="0" y="0" width="60" height="60"/>
                <use id="zoomplus" xlink:href="#zoomPlus" x="17" y="9" onmousedown="handleZoom(evt,'in')"/>
                <use id="zoomminus" xlink:href="#zoomMin" x="42" y="9" onmousedown="handleZoom(evt,'out')"/>
                <use id="reset" xlink:href="#resetDef" x="30" y="36" onmousedown="handleReset()"/>
                <g id="arrowUp" xlink:href="#dirArrow" transform="translate(30 24)" onmousedown="handlePan(0,-1)">
                  <use xlink:href="#rim" fill="#404040">
                        <set attributeName="fill" to="#808080" begin="arrowUp.mouseover" end="arrowUp.mouseout"/>
                  </use>
                  <path fill="none" stroke="white" stroke-width="1.5" d="M0,-3.0v7 M-2.5,-0.5L0,-3.0L2.5,-0.5"/>
                </g>
                <g id="arrowRight" xlink:href="#dirArrow" transform="rotate(90) translate(36 -43)" onmousedown="handlePan(1,0)">
                  <use xlink:href="#rim" fill="#404040">
                        <set attributeName="fill" to="#808080" begin="arrowRight.mouseover" end="arrowRight.mouseout"/>
                  </use>
                  <path fill="none" stroke="white" stroke-width="1.5" d="M0,-3.0v7 M-2.5,-0.5L0,-3.0L2.5,-0.5"/>
                </g>
                <g id="arrowDown" xlink:href="#dirArrow" transform="rotate(180) translate(-30 -48)" onmousedown="handlePan(0,1)">
                  <use xlink:href="#rim" fill="#404040">
                        <set attributeName="fill" to="#808080" begin="arrowDown.mouseover" end="arrowDown.mouseout"/>
                  </use>
                  <path fill="none" stroke="white" stroke-width="1.5" d="M0,-3.0v7 M-2.5,-0.5L0,-3.0L2.5,-0.5"/>
                </g>
                <g id="arrowLeft" xlink:href="#dirArrow" transform="rotate(270) translate(-36 17)" onmousedown="handlePan(-1,0)">
                  <use xlink:href="#rim" fill="#404040">
                        <set attributeName="fill" to="#808080" begin="arrowLeft.mouseover" end="arrowLeft.mouseout"/>
                  </use>
                  <path fill="none" stroke="white" stroke-width="1.5" d="M0,-3.0v7 M-2.5,-0.5L0,-3.0L2.5,-0.5"/>
                </g>
        </g>
        <svg viewBox="0 0 15 15" width="100%" height="30px" preserveAspectRatio="xMaxYMin meet">
         <g id="arrow_out" transform="scale(0.3 0.3)">
          <a xlink:href="vector_8h__incl_org.svg" target="_base">
           <rect id="button" ry="5" rx="5" y="6" x="6" height="38" width="38"
                fill="#f2f5e9" fill-opacity="0.5" stroke="#606060" stroke-width="1.0"/>
           <path id="arrow"
             d="M 11.500037,31.436501 C 11.940474,20.09759 22.043105,11.32322 32.158766,21.979434 L 37.068811,17.246167 C 37.068811,17.246167 37.088388,32 37.088388,32 L 22.160133,31.978069 C 22.160133,31.978069 26.997745,27.140456 26.997745,27.140456 C 18.528582,18.264221 13.291696,25.230495 11.500037,31.436501 z"
             style="fill:#404040;"/>
          </a>
         </g>
        </svg>
</svg>
