<?xml version="1.0" encoding="UTF-8" standalone="no"?>
<!DOCTYPE svg PUBLIC "-//W3C//DTD SVG 1.1//EN"
 "http://www.w3.org/Graphics/SVG/1.1/DTD/svg11.dtd">
<!-- Generated by graphviz version 2.50.0 (20211204.2007)
 -->
<!-- Title: libccc/math/vlq.h Pages: 1 -->
<svg width="344pt" height="364pt"
 viewBox="0.00 0.00 343.50 364.00" xmlns="http://www.w3.org/2000/svg" xmlns:xlink="http://www.w3.org/1999/xlink">
<g id="graph0" class="graph" transform="scale(1 1) rotate(0) translate(4 360)">
<title>libccc/math/vlq.h</title>
<polygon fill="white" stroke="transparent" points="-4,4 -4,-360 339.5,-360 339.5,4 -4,4"/>
<!-- Node1 -->
<g id="node1" class="node">
<title>Node1</title>
<g id="a_node1"><a xlink:title=" ">
<polygon fill="#bfbfbf" stroke="black" points="126,-336.5 126,-355.5 217,-355.5 217,-336.5 126,-336.5"/>
<text text-anchor="middle" x="171.5" y="-343.5" font-family="Consolas" font-size="10.00">libccc/math/vlq.h</text>
</a>
</g>
</g>
<!-- Node2 -->
<g id="node2" class="node">
<title>Node2</title>
<g id="a_node2"><a xlink:href="bool_8h.html" target="_top" xlink:title=" ">
<polygon fill="white" stroke="black" points="0,-280.5 0,-299.5 71,-299.5 71,-280.5 0,-280.5"/>
<text text-anchor="middle" x="35.5" y="-287.5" font-family="Consolas" font-size="10.00">libccc/bool.h</text>
</a>
</g>
</g>
<!-- Node1&#45;&gt;Node2 -->
<g id="edge1" class="edge">
<title>Node1&#45;&gt;Node2</title>
<path fill="none" stroke="midnightblue" d="M149.95,-336.44C127.47,-327.52 92.01,-313.44 66.52,-303.32"/>
<polygon fill="midnightblue" stroke="midnightblue" points="67.53,-299.95 56.95,-299.52 64.95,-306.46 67.53,-299.95"/>
</g>
<!-- Node10 -->
<g id="node10" class="node">
<title>Node10</title>
<g id="a_node10"><a xlink:href="int_8h.html" target="_top" xlink:title=" ">
<polygon fill="white" stroke="black" points="271.5,-280.5 271.5,-299.5 335.5,-299.5 335.5,-280.5 271.5,-280.5"/>
<text text-anchor="middle" x="303.5" y="-287.5" font-family="Consolas" font-size="10.00">libccc/int.h</text>
</a>
</g>
</g>
<!-- Node1&#45;&gt;Node10 -->
<g id="edge13" class="edge">
<title>Node1&#45;&gt;Node10</title>
<path fill="none" stroke="midnightblue" d="M192.42,-336.44C214.24,-327.52 248.65,-313.44 273.39,-303.32"/>
<polygon fill="midnightblue" stroke="midnightblue" points="274.75,-306.54 282.68,-299.52 272.1,-300.06 274.75,-306.54"/>
</g>
<!-- Node12 -->
<g id="node12" class="node">
<title>Node12</title>
<g id="a_node12"><a xlink:href="fixed_8h.html" target="_top" xlink:title=" ">
<polygon fill="white" stroke="black" points="89.5,-280.5 89.5,-299.5 163.5,-299.5 163.5,-280.5 89.5,-280.5"/>
<text text-anchor="middle" x="126.5" y="-287.5" font-family="Consolas" font-size="10.00">libccc/fixed.h</text>
</a>
</g>
</g>
<!-- Node1&#45;&gt;Node12 -->
<g id="edge16" class="edge">
<title>Node1&#45;&gt;Node12</title>
<path fill="none" stroke="midnightblue" d="M164.07,-336.08C157.65,-328.38 148.19,-317.03 140.38,-307.65"/>
<polygon fill="midnightblue" stroke="midnightblue" points="142.88,-305.19 133.79,-299.75 137.51,-309.67 142.88,-305.19"/>
</g>
<!-- Node13 -->
<g id="node13" class="node">
<title>Node13</title>
<g id="a_node13"><a xlink:href="float_8h.html" target="_top" xlink:title=" ">
<polygon fill="white" stroke="black" points="181.5,-280.5 181.5,-299.5 253.5,-299.5 253.5,-280.5 181.5,-280.5"/>
<text text-anchor="middle" x="217.5" y="-287.5" font-family="Consolas" font-size="10.00">libccc/float.h</text>
</a>
</g>
</g>
<!-- Node1&#45;&gt;Node13 -->
<g id="edge18" class="edge">
<title>Node1&#45;&gt;Node13</title>
<path fill="none" stroke="midnightblue" d="M179.1,-336.08C185.73,-328.3 195.52,-316.8 203.56,-307.37"/>
<polygon fill="midnightblue" stroke="midnightblue" points="206.23,-309.63 210.05,-299.75 200.9,-305.09 206.23,-309.63"/>
</g>
<!-- Node3 -->
<g id="node3" class="node">
<title>Node3</title>
<g id="a_node3"><a xlink:href="libccc_8h.html" target="_top" xlink:title=" ">
<polygon fill="white" stroke="black" points="146.5,-224.5 146.5,-243.5 196.5,-243.5 196.5,-224.5 146.5,-224.5"/>
<text text-anchor="middle" x="171.5" y="-231.5" font-family="Consolas" font-size="10.00">libccc.h</text>
</a>
</g>
</g>
<!-- Node2&#45;&gt;Node3 -->
<g id="edge2" class="edge">
<title>Node2&#45;&gt;Node3</title>
<path fill="none" stroke="midnightblue" d="M57.05,-280.44C79.53,-271.52 114.99,-257.44 140.48,-247.32"/>
<polygon fill="midnightblue" stroke="midnightblue" points="142.05,-250.46 150.05,-243.52 139.47,-243.95 142.05,-250.46"/>
</g>
<!-- Node9 -->
<g id="node9" class="node">
<title>Node9</title>
<g id="a_node9"><a xlink:title=" ">
<polygon fill="white" stroke="#bfbfbf" points="7.5,-224.5 7.5,-243.5 63.5,-243.5 63.5,-224.5 7.5,-224.5"/>
<text text-anchor="middle" x="35.5" y="-231.5" font-family="Consolas" font-size="10.00">stdbool.h</text>
</a>
</g>
</g>
<!-- Node2&#45;&gt;Node9 -->
<g id="edge12" class="edge">
<title>Node2&#45;&gt;Node9</title>
<path fill="none" stroke="midnightblue" d="M35.5,-280.08C35.5,-273.01 35.5,-262.86 35.5,-253.99"/>
<polygon fill="midnightblue" stroke="midnightblue" points="39,-253.75 35.5,-243.75 32,-253.75 39,-253.75"/>
</g>
<!-- Node4 -->
<g id="node4" class="node">
<title>Node4</title>
<g id="a_node4"><a xlink:href="libccc__define_8h.html" target="_top" xlink:title=" ">
<polygon fill="white" stroke="black" points="131.5,-56.5 131.5,-75.5 213.5,-75.5 213.5,-56.5 131.5,-56.5"/>
<text text-anchor="middle" x="172.5" y="-63.5" font-family="Consolas" font-size="10.00">libccc_define.h</text>
</a>
</g>
</g>
<!-- Node3&#45;&gt;Node4 -->
<g id="edge3" class="edge">
<title>Node3&#45;&gt;Node4</title>
<path fill="none" stroke="midnightblue" d="M157.72,-224.42C128.19,-204.93 63.54,-155.61 89.5,-112 98.6,-96.72 114.89,-86.31 130.64,-79.39"/>
<polygon fill="midnightblue" stroke="midnightblue" points="132.33,-82.48 140.32,-75.51 129.73,-75.98 132.33,-82.48"/>
</g>
<!-- Node6 -->
<g id="node6" class="node">
<title>Node6</title>
<g id="a_node6"><a xlink:href="libccc__errors_8h.html" target="_top" xlink:title=" ">
<polygon fill="white" stroke="black" points="98.5,-112.5 98.5,-131.5 178.5,-131.5 178.5,-112.5 98.5,-112.5"/>
<text text-anchor="middle" x="138.5" y="-119.5" font-family="Consolas" font-size="10.00">libccc_errors.h</text>
</a>
</g>
</g>
<!-- Node3&#45;&gt;Node6 -->
<g id="edge5" class="edge">
<title>Node3&#45;&gt;Node6</title>
<path fill="none" stroke="midnightblue" d="M168.49,-224.42C165.36,-215.39 160.39,-200.76 156.5,-188 151.75,-172.42 146.85,-154.59 143.36,-141.55"/>
<polygon fill="midnightblue" stroke="midnightblue" points="146.74,-140.64 140.8,-131.87 139.98,-142.44 146.74,-140.64"/>
</g>
<!-- Node7 -->
<g id="node7" class="node">
<title>Node7</title>
<g id="a_node7"><a xlink:href="libccc__config_8h.html" target="_top" xlink:title=" ">
<polygon fill="white" stroke="black" points="165.5,-168.5 165.5,-187.5 247.5,-187.5 247.5,-168.5 165.5,-168.5"/>
<text text-anchor="middle" x="206.5" y="-175.5" font-family="Consolas" font-size="10.00">libccc_config.h</text>
</a>
</g>
</g>
<!-- Node3&#45;&gt;Node7 -->
<g id="edge7" class="edge">
<title>Node3&#45;&gt;Node7</title>
<path fill="none" stroke="midnightblue" d="M177.28,-224.08C182.17,-216.53 189.33,-205.49 195.33,-196.23"/>
<polygon fill="midnightblue" stroke="midnightblue" points="198.33,-198.05 200.83,-187.75 192.45,-194.24 198.33,-198.05"/>
</g>
<!-- Node8 -->
<g id="node8" class="node">
<title>Node8</title>
<g id="a_node8"><a xlink:href="libccc__naming_8h.html" target="_top" xlink:title=" ">
<polygon fill="white" stroke="black" points="235,-112.5 235,-131.5 322,-131.5 322,-112.5 235,-112.5"/>
<text text-anchor="middle" x="278.5" y="-119.5" font-family="Consolas" font-size="10.00">libccc_naming.h</text>
</a>
</g>
</g>
<!-- Node3&#45;&gt;Node8 -->
<g id="edge10" class="edge">
<title>Node3&#45;&gt;Node8</title>
<path fill="none" stroke="midnightblue" d="M196.73,-225.36C215.62,-218.43 240.81,-206.44 256.5,-188 267.71,-174.83 273.28,-155.69 276,-141.59"/>
<polygon fill="midnightblue" stroke="midnightblue" points="279.48,-142 277.63,-131.57 272.57,-140.88 279.48,-142"/>
</g>
<!-- Node5 -->
<g id="node5" class="node">
<title>Node5</title>
<g id="a_node5"><a xlink:title=" ">
<polygon fill="white" stroke="#bfbfbf" points="143,-0.5 143,-19.5 202,-19.5 202,-0.5 143,-0.5"/>
<text text-anchor="middle" x="172.5" y="-7.5" font-family="Consolas" font-size="10.00">stdalign.h</text>
</a>
</g>
</g>
<!-- Node4&#45;&gt;Node5 -->
<g id="edge4" class="edge">
<title>Node4&#45;&gt;Node5</title>
<path fill="none" stroke="midnightblue" d="M172.5,-56.08C172.5,-49.01 172.5,-38.86 172.5,-29.99"/>
<polygon fill="midnightblue" stroke="midnightblue" points="176,-29.75 172.5,-19.75 169,-29.75 176,-29.75"/>
</g>
<!-- Node6&#45;&gt;Node4 -->
<g id="edge6" class="edge">
<title>Node6&#45;&gt;Node4</title>
<path fill="none" stroke="midnightblue" d="M144.11,-112.08C148.87,-104.53 155.82,-93.49 161.65,-84.23"/>
<polygon fill="midnightblue" stroke="midnightblue" points="164.62,-86.08 166.99,-75.75 158.7,-82.35 164.62,-86.08"/>
</g>
<!-- Node7&#45;&gt;Node4 -->
<g id="edge8" class="edge">
<title>Node7&#45;&gt;Node4</title>
<path fill="none" stroke="midnightblue" d="M204.02,-168.14C200.49,-155.6 193.75,-131.97 187.5,-112 184.73,-103.15 181.5,-93.37 178.74,-85.2"/>
<polygon fill="midnightblue" stroke="midnightblue" points="182.01,-83.94 175.47,-75.6 175.38,-86.19 182.01,-83.94"/>
</g>
<!-- Node7&#45;&gt;Node6 -->
<g id="edge9" class="edge">
<title>Node7&#45;&gt;Node6</title>
<path fill="none" stroke="midnightblue" d="M195.57,-168.32C185.33,-160.18 169.78,-147.84 157.5,-138.09"/>
<polygon fill="midnightblue" stroke="midnightblue" points="159.63,-135.31 149.62,-131.83 155.28,-140.79 159.63,-135.31"/>
</g>
<!-- Node8&#45;&gt;Node4 -->
<g id="edge11" class="edge">
<title>Node8&#45;&gt;Node4</title>
<path fill="none" stroke="midnightblue" d="M261.47,-112.32C244.47,-103.66 218.12,-90.24 198.51,-80.25"/>
<polygon fill="midnightblue" stroke="midnightblue" points="199.99,-77.08 189.49,-75.65 196.81,-83.31 199.99,-77.08"/>
</g>
<!-- Node10&#45;&gt;Node3 -->
<g id="edge15" class="edge">
<title>Node10&#45;&gt;Node3</title>
<path fill="none" stroke="midnightblue" d="M282.58,-280.44C260.76,-271.52 226.35,-257.44 201.61,-247.32"/>
<polygon fill="midnightblue" stroke="midnightblue" points="202.9,-244.06 192.32,-243.52 200.25,-250.54 202.9,-244.06"/>
</g>
<!-- Node11 -->
<g id="node11" class="node">
<title>Node11</title>
<g id="a_node11"><a xlink:title=" ">
<polygon fill="white" stroke="#bfbfbf" points="279,-224.5 279,-243.5 328,-243.5 328,-224.5 279,-224.5"/>
<text text-anchor="middle" x="303.5" y="-231.5" font-family="Consolas" font-size="10.00">stdint.h</text>
</a>
</g>
</g>
<!-- Node10&#45;&gt;Node11 -->
<g id="edge14" class="edge">
<title>Node10&#45;&gt;Node11</title>
<path fill="none" stroke="midnightblue" d="M303.5,-280.08C303.5,-273.01 303.5,-262.86 303.5,-253.99"/>
<polygon fill="midnightblue" stroke="midnightblue" points="307,-253.75 303.5,-243.75 300,-253.75 307,-253.75"/>
</g>
<!-- Node12&#45;&gt;Node3 -->
<g id="edge17" class="edge">
<title>Node12&#45;&gt;Node3</title>
<path fill="none" stroke="midnightblue" d="M133.93,-280.08C140.35,-272.38 149.81,-261.03 157.62,-251.65"/>
<polygon fill="midnightblue" stroke="midnightblue" points="160.49,-253.67 164.21,-243.75 155.12,-249.19 160.49,-253.67"/>
</g>
<!-- Node13&#45;&gt;Node3 -->
<g id="edge19" class="edge">
<title>Node13&#45;&gt;Node3</title>
<path fill="none" stroke="midnightblue" d="M209.9,-280.08C203.27,-272.3 193.48,-260.8 185.44,-251.37"/>
<polygon fill="midnightblue" stroke="midnightblue" points="188.1,-249.09 178.95,-243.75 182.77,-253.63 188.1,-249.09"/>
</g>
</g>
</svg>
