<?xml version="1.0" encoding="UTF-8" standalone="no"?>
<!DOCTYPE svg PUBLIC "-//W3C//DTD SVG 1.1//EN"
 "http://www.w3.org/Graphics/SVG/1.1/DTD/svg11.dtd">
<!-- Generated by graphviz version 2.43.0 (0)
 -->
<!-- Title: libccc/math/vlq.h Pages: 1 -->
<svg width="329pt" height="420pt"
 viewBox="0.00 0.00 329.43 420.00" xmlns="http://www.w3.org/2000/svg" xmlns:xlink="http://www.w3.org/1999/xlink">
<g id="graph0" class="graph" transform="scale(1 1) rotate(0) translate(4 416)">
<title>libccc/math/vlq.h</title>
<polygon fill="white" stroke="transparent" points="-4,4 -4,-416 325.43,-416 325.43,4 -4,4"/>
<!-- Node1 -->
<g id="node1" class="node">
<title>Node1</title>
<g id="a_node1"><a xlink:title=" ">
<polygon fill="#bfbfbf" stroke="black" points="91,-392.5 91,-411.5 197,-411.5 197,-392.5 91,-392.5"/>
<text text-anchor="middle" x="144" y="-399.5" font-family="Consolas" font-size="10.00">libccc/math/vlq.h</text>
</a>
</g>
</g>
<!-- Node2 -->
<g id="node2" class="node">
<title>Node2</title>
<g id="a_node2"><a xlink:href="bool_8h.html" target="_top" xlink:title=" ">
<polygon fill="white" stroke="black" points="233.5,-336.5 233.5,-355.5 318.5,-355.5 318.5,-336.5 233.5,-336.5"/>
<text text-anchor="middle" x="276" y="-343.5" font-family="Consolas" font-size="10.00">libccc/bool.h</text>
</a>
</g>
</g>
<!-- Node1&#45;&gt;Node2 -->
<g id="edge1" class="edge">
<title>Node1&#45;&gt;Node2</title>
<path fill="none" stroke="midnightblue" d="M164.92,-392.44C186.74,-383.52 221.15,-369.44 245.89,-359.32"/>
<polygon fill="midnightblue" stroke="midnightblue" points="247.25,-362.54 255.18,-355.52 244.6,-356.06 247.25,-362.54"/>
</g>
<!-- Node10 -->
<g id="node10" class="node">
<title>Node10</title>
<g id="a_node10"><a xlink:href="int_8h.html" target="_top" xlink:title=" ">
<polygon fill="white" stroke="black" points="0,-280.5 0,-299.5 80,-299.5 80,-280.5 0,-280.5"/>
<text text-anchor="middle" x="40" y="-287.5" font-family="Consolas" font-size="10.00">libccc/int.h</text>
</a>
</g>
</g>
<!-- Node1&#45;&gt;Node10 -->
<g id="edge13" class="edge">
<title>Node1&#45;&gt;Node10</title>
<path fill="none" stroke="midnightblue" d="M111.06,-392.38C91.62,-385.62 68.13,-374.22 54,-356 43.73,-342.76 40.61,-323.63 39.83,-309.55"/>
<polygon fill="midnightblue" stroke="midnightblue" points="43.32,-309.47 39.61,-299.55 36.33,-309.62 43.32,-309.47"/>
</g>
<!-- Node12 -->
<g id="node12" class="node">
<title>Node12</title>
<g id="a_node12"><a xlink:href="fixed_8h.html" target="_top" xlink:title=" ">
<polygon fill="white" stroke="black" points="63,-336.5 63,-355.5 153,-355.5 153,-336.5 63,-336.5"/>
<text text-anchor="middle" x="108" y="-343.5" font-family="Consolas" font-size="10.00">libccc/fixed.h</text>
</a>
</g>
</g>
<!-- Node1&#45;&gt;Node12 -->
<g id="edge16" class="edge">
<title>Node1&#45;&gt;Node12</title>
<path fill="none" stroke="midnightblue" d="M138.06,-392.08C133.02,-384.53 125.66,-373.49 119.49,-364.23"/>
<polygon fill="midnightblue" stroke="midnightblue" points="122.29,-362.13 113.83,-355.75 116.47,-366.01 122.29,-362.13"/>
</g>
<!-- Node13 -->
<g id="node13" class="node">
<title>Node13</title>
<g id="a_node13"><a xlink:href="float_8h.html" target="_top" xlink:title=" ">
<polygon fill="white" stroke="black" points="136,-280.5 136,-299.5 226,-299.5 226,-280.5 136,-280.5"/>
<text text-anchor="middle" x="181" y="-287.5" font-family="Consolas" font-size="10.00">libccc/float.h</text>
</a>
</g>
</g>
<!-- Node1&#45;&gt;Node13 -->
<g id="edge19" class="edge">
<title>Node1&#45;&gt;Node13</title>
<path fill="none" stroke="midnightblue" d="M147.7,-392.47C151.52,-383.48 157.55,-368.88 162,-356 167.34,-340.55 172.48,-322.7 176.07,-309.62"/>
<polygon fill="midnightblue" stroke="midnightblue" points="179.46,-310.48 178.69,-299.92 172.7,-308.66 179.46,-310.48"/>
</g>
<!-- Node3 -->
<g id="node3" class="node">
<title>Node3</title>
<g id="a_node3"><a xlink:href="libccc_8h.html" target="_top" xlink:title=" ">
<polygon fill="white" stroke="black" points="119.5,-224.5 119.5,-243.5 178.5,-243.5 178.5,-224.5 119.5,-224.5"/>
<text text-anchor="middle" x="149" y="-231.5" font-family="Consolas" font-size="10.00">libccc.h</text>
</a>
</g>
</g>
<!-- Node2&#45;&gt;Node3 -->
<g id="edge2" class="edge">
<title>Node2&#45;&gt;Node3</title>
<path fill="none" stroke="midnightblue" d="M288.28,-336.47C305.12,-323.72 331.7,-299.16 317,-280 301.48,-259.78 233.35,-246.65 188.76,-240.06"/>
<polygon fill="midnightblue" stroke="midnightblue" points="189.2,-236.59 178.8,-238.64 188.21,-243.52 189.2,-236.59"/>
</g>
<!-- Node9 -->
<g id="node9" class="node">
<title>Node9</title>
<g id="a_node9"><a xlink:title=" ">
<polygon fill="white" stroke="#bfbfbf" points="244,-280.5 244,-299.5 308,-299.5 308,-280.5 244,-280.5"/>
<text text-anchor="middle" x="276" y="-287.5" font-family="Consolas" font-size="10.00">stdbool.h</text>
</a>
</g>
</g>
<!-- Node2&#45;&gt;Node9 -->
<g id="edge12" class="edge">
<title>Node2&#45;&gt;Node9</title>
<path fill="none" stroke="midnightblue" d="M276,-336.08C276,-329.01 276,-318.86 276,-309.99"/>
<polygon fill="midnightblue" stroke="midnightblue" points="279.5,-309.75 276,-299.75 272.5,-309.75 279.5,-309.75"/>
</g>
<!-- Node4 -->
<g id="node4" class="node">
<title>Node4</title>
<g id="a_node4"><a xlink:href="libccc__define_8h.html" target="_top" xlink:title=" ">
<polygon fill="white" stroke="black" points="101.5,-56.5 101.5,-75.5 196.5,-75.5 196.5,-56.5 101.5,-56.5"/>
<text text-anchor="middle" x="149" y="-63.5" font-family="Consolas" font-size="10.00">libccc_define.h</text>
</a>
</g>
</g>
<!-- Node3&#45;&gt;Node4 -->
<g id="edge3" class="edge">
<title>Node3&#45;&gt;Node4</title>
<path fill="none" stroke="midnightblue" d="M133,-224.5C99.12,-205.36 25.51,-157.02 54,-112 64.05,-96.13 81.37,-85.74 98.5,-79"/>
<polygon fill="midnightblue" stroke="midnightblue" points="99.71,-82.28 107.95,-75.62 97.35,-75.69 99.71,-82.28"/>
</g>
<!-- Node6 -->
<g id="node6" class="node">
<title>Node6</title>
<g id="a_node6"><a xlink:href="libccc__errors_8h.html" target="_top" xlink:title=" ">
<polygon fill="white" stroke="black" points="63.5,-112.5 63.5,-131.5 158.5,-131.5 158.5,-112.5 63.5,-112.5"/>
<text text-anchor="middle" x="111" y="-119.5" font-family="Consolas" font-size="10.00">libccc_errors.h</text>
</a>
</g>
</g>
<!-- Node3&#45;&gt;Node6 -->
<g id="edge5" class="edge">
<title>Node3&#45;&gt;Node6</title>
<path fill="none" stroke="midnightblue" d="M145.34,-224.45C141.54,-215.46 135.54,-200.85 131,-188 125.53,-172.52 120.1,-154.68 116.28,-141.61"/>
<polygon fill="midnightblue" stroke="midnightblue" points="119.62,-140.55 113.49,-131.91 112.9,-142.48 119.62,-140.55"/>
</g>
<!-- Node7 -->
<g id="node7" class="node">
<title>Node7</title>
<g id="a_node7"><a xlink:href="libccc__config_8h.html" target="_top" xlink:title=" ">
<polygon fill="white" stroke="black" points="139.5,-168.5 139.5,-187.5 234.5,-187.5 234.5,-168.5 139.5,-168.5"/>
<text text-anchor="middle" x="187" y="-175.5" font-family="Consolas" font-size="10.00">libccc_config.h</text>
</a>
</g>
</g>
<!-- Node3&#45;&gt;Node7 -->
<g id="edge7" class="edge">
<title>Node3&#45;&gt;Node7</title>
<path fill="none" stroke="midnightblue" d="M155.27,-224.08C160.64,-216.46 168.52,-205.26 175.08,-195.94"/>
<polygon fill="midnightblue" stroke="midnightblue" points="177.95,-197.94 180.84,-187.75 172.22,-193.91 177.95,-197.94"/>
</g>
<!-- Node8 -->
<g id="node8" class="node">
<title>Node8</title>
<g id="a_node8"><a xlink:href="libccc__naming_8h.html" target="_top" xlink:title=" ">
<polygon fill="white" stroke="black" points="215.5,-112.5 215.5,-131.5 310.5,-131.5 310.5,-112.5 215.5,-112.5"/>
<text text-anchor="middle" x="263" y="-119.5" font-family="Consolas" font-size="10.00">libccc_naming.h</text>
</a>
</g>
</g>
<!-- Node3&#45;&gt;Node8 -->
<g id="edge10" class="edge">
<title>Node3&#45;&gt;Node8</title>
<path fill="none" stroke="midnightblue" d="M178.73,-225.9C199.79,-219.4 227.18,-207.71 244,-188 255.08,-175.02 259.7,-155.85 261.63,-141.69"/>
<polygon fill="midnightblue" stroke="midnightblue" points="265.12,-141.93 262.67,-131.63 258.16,-141.22 265.12,-141.93"/>
</g>
<!-- Node5 -->
<g id="node5" class="node">
<title>Node5</title>
<g id="a_node5"><a xlink:title=" ">
<polygon fill="white" stroke="#bfbfbf" points="114.5,-0.5 114.5,-19.5 183.5,-19.5 183.5,-0.5 114.5,-0.5"/>
<text text-anchor="middle" x="149" y="-7.5" font-family="Consolas" font-size="10.00">stdalign.h</text>
</a>
</g>
</g>
<!-- Node4&#45;&gt;Node5 -->
<g id="edge4" class="edge">
<title>Node4&#45;&gt;Node5</title>
<path fill="none" stroke="midnightblue" d="M149,-56.08C149,-49.01 149,-38.86 149,-29.99"/>
<polygon fill="midnightblue" stroke="midnightblue" points="152.5,-29.75 149,-19.75 145.5,-29.75 152.5,-29.75"/>
</g>
<!-- Node6&#45;&gt;Node4 -->
<g id="edge6" class="edge">
<title>Node6&#45;&gt;Node4</title>
<path fill="none" stroke="midnightblue" d="M117.27,-112.08C122.64,-104.46 130.52,-93.26 137.08,-83.94"/>
<polygon fill="midnightblue" stroke="midnightblue" points="139.95,-85.94 142.84,-75.75 134.22,-81.91 139.95,-85.94"/>
</g>
<!-- Node7&#45;&gt;Node4 -->
<g id="edge8" class="edge">
<title>Node7&#45;&gt;Node4</title>
<path fill="none" stroke="midnightblue" d="M184.85,-168.49C181.61,-155.97 175.1,-131.94 168,-112 164.76,-102.9 160.64,-92.99 157.07,-84.79"/>
<polygon fill="midnightblue" stroke="midnightblue" points="160.2,-83.22 152.94,-75.51 153.81,-86.07 160.2,-83.22"/>
</g>
<!-- Node7&#45;&gt;Node6 -->
<g id="edge9" class="edge">
<title>Node7&#45;&gt;Node6</title>
<path fill="none" stroke="midnightblue" d="M174.79,-168.32C163.22,-160.11 145.62,-147.6 131.84,-137.81"/>
<polygon fill="midnightblue" stroke="midnightblue" points="133.61,-134.77 123.43,-131.83 129.56,-140.48 133.61,-134.77"/>
</g>
<!-- Node8&#45;&gt;Node4 -->
<g id="edge11" class="edge">
<title>Node8&#45;&gt;Node4</title>
<path fill="none" stroke="midnightblue" d="M244.94,-112.44C226.43,-103.68 197.42,-89.94 176.14,-79.86"/>
<polygon fill="midnightblue" stroke="midnightblue" points="177.51,-76.63 166.98,-75.52 174.52,-82.96 177.51,-76.63"/>
</g>
<!-- Node10&#45;&gt;Node3 -->
<g id="edge15" class="edge">
<title>Node10&#45;&gt;Node3</title>
<path fill="none" stroke="midnightblue" d="M57.51,-280.32C75.07,-271.62 102.33,-258.12 122.53,-248.11"/>
<polygon fill="midnightblue" stroke="midnightblue" points="124.12,-251.23 131.53,-243.65 121.02,-244.96 124.12,-251.23"/>
</g>
<!-- Node11 -->
<g id="node11" class="node">
<title>Node11</title>
<g id="a_node11"><a xlink:title=" ">
<polygon fill="white" stroke="#bfbfbf" points="10.5,-224.5 10.5,-243.5 69.5,-243.5 69.5,-224.5 10.5,-224.5"/>
<text text-anchor="middle" x="40" y="-231.5" font-family="Consolas" font-size="10.00">stdint.h</text>
</a>
</g>
</g>
<!-- Node10&#45;&gt;Node11 -->
<g id="edge14" class="edge">
<title>Node10&#45;&gt;Node11</title>
<path fill="none" stroke="midnightblue" d="M40,-280.08C40,-273.01 40,-262.86 40,-253.99"/>
<polygon fill="midnightblue" stroke="midnightblue" points="43.5,-253.75 40,-243.75 36.5,-253.75 43.5,-253.75"/>
</g>
<!-- Node12&#45;&gt;Node3 -->
<g id="edge17" class="edge">
<title>Node12&#45;&gt;Node3</title>
<path fill="none" stroke="midnightblue" d="M110.01,-336.43C113.07,-323.85 119.36,-299.73 127,-280 130.57,-270.78 135.31,-260.86 139.48,-252.7"/>
<polygon fill="midnightblue" stroke="midnightblue" points="142.62,-254.25 144.16,-243.76 136.42,-251 142.62,-254.25"/>
</g>
<!-- Node12&#45;&gt;Node10 -->
<g id="edge18" class="edge">
<title>Node12&#45;&gt;Node10</title>
<path fill="none" stroke="midnightblue" d="M97.07,-336.32C86.83,-328.18 71.28,-315.84 59,-306.09"/>
<polygon fill="midnightblue" stroke="midnightblue" points="61.13,-303.31 51.12,-299.83 56.78,-308.79 61.13,-303.31"/>
</g>
<!-- Node13&#45;&gt;Node3 -->
<g id="edge20" class="edge">
<title>Node13&#45;&gt;Node3</title>
<path fill="none" stroke="midnightblue" d="M175.72,-280.08C171.29,-272.61 164.84,-261.72 159.38,-252.52"/>
<polygon fill="midnightblue" stroke="midnightblue" points="162.29,-250.57 154.19,-243.75 156.27,-254.14 162.29,-250.57"/>
</g>
</g>
</svg>
