<?xml version="1.0" encoding="UTF-8" standalone="no"?>
<!DOCTYPE svg PUBLIC "-//W3C//DTD SVG 1.1//EN"
 "http://www.w3.org/Graphics/SVG/1.1/DTD/svg11.dtd">
<!-- Generated by graphviz version 3.0.0 (20220226.1711)
 -->
<!-- Title: libccc/math/vlq.h Pages: 1 -->
<svg width="344pt" height="364pt"
 viewBox="0.00 0.00 343.50 364.00" xmlns="http://www.w3.org/2000/svg" xmlns:xlink="http://www.w3.org/1999/xlink">
<g id="graph0" class="graph" transform="scale(1 1) rotate(0) translate(4 360)">
<title>libccc/math/vlq.h</title>
<polygon fill="white" stroke="transparent" points="-4,4 -4,-360 339.5,-360 339.5,4 -4,4"/>
<!-- Node1 -->
<g id="node1" class="node">
<title>Node1</title>
<g id="a_node1"><a xlink:title=" ">
<polygon fill="#bfbfbf" stroke="black" points="126,-336.5 126,-355.5 217,-355.5 217,-336.5 126,-336.5"/>
<text text-anchor="middle" x="171.5" y="-343.5" font-family="Consolas" font-size="10.00">libccc/math/vlq.h</text>
</a>
</g>
</g>
<!-- Node2 -->
<g id="node2" class="node">
<title>Node2</title>
<g id="a_node2"><a xlink:href="$bool_8h.html" xlink:title=" ">
<polygon fill="white" stroke="black" points="0,-280.5 0,-299.5 71,-299.5 71,-280.5 0,-280.5"/>
<text text-anchor="middle" x="35.5" y="-287.5" font-family="Consolas" font-size="10.00">libccc/bool.h</text>
</a>
</g>
</g>
<!-- Node1&#45;&gt;Node2 -->
<g id="edge1" class="edge">
<title>Node1&#45;&gt;Node2</title>
<path fill="none" stroke="midnightblue" d="M149.95,-336.44C127.47,-327.52 92.01,-313.44 66.52,-303.32"/>
<polygon fill="midnightblue" stroke="midnightblue" points="67.53,-299.95 56.95,-299.52 64.95,-306.46 67.53,-299.95"/>
</g>
<!-- Node11 -->
<g id="node11" class="node">
<title>Node11</title>
<g id="a_node11"><a xlink:href="$int_8h.html" xlink:title=" ">
<polygon fill="white" stroke="black" points="271.5,-280.5 271.5,-299.5 335.5,-299.5 335.5,-280.5 271.5,-280.5"/>
<text text-anchor="middle" x="303.5" y="-287.5" font-family="Consolas" font-size="10.00">libccc/int.h</text>
</a>
</g>
</g>
<!-- Node1&#45;&gt;Node11 -->
<g id="edge14" class="edge">
<title>Node1&#45;&gt;Node11</title>
<path fill="none" stroke="midnightblue" d="M192.42,-336.44C214.24,-327.52 248.65,-313.44 273.39,-303.32"/>
<polygon fill="midnightblue" stroke="midnightblue" points="274.75,-306.54 282.68,-299.52 272.1,-300.06 274.75,-306.54"/>
</g>
<!-- Node13 -->
<g id="node13" class="node">
<title>Node13</title>
<g id="a_node13"><a xlink:href="$fixed_8h.html" xlink:title=" ">
<polygon fill="white" stroke="black" points="89.5,-280.5 89.5,-299.5 163.5,-299.5 163.5,-280.5 89.5,-280.5"/>
<text text-anchor="middle" x="126.5" y="-287.5" font-family="Consolas" font-size="10.00">libccc/fixed.h</text>
</a>
</g>
</g>
<!-- Node1&#45;&gt;Node13 -->
<g id="edge17" class="edge">
<title>Node1&#45;&gt;Node13</title>
<path fill="none" stroke="midnightblue" d="M164.07,-336.08C157.65,-328.38 148.19,-317.03 140.38,-307.65"/>
<polygon fill="midnightblue" stroke="midnightblue" points="142.88,-305.19 133.79,-299.75 137.51,-309.67 142.88,-305.19"/>
</g>
<!-- Node14 -->
<g id="node14" class="node">
<title>Node14</title>
<g id="a_node14"><a xlink:href="$float_8h.html" xlink:title=" ">
<polygon fill="white" stroke="black" points="181.5,-280.5 181.5,-299.5 253.5,-299.5 253.5,-280.5 181.5,-280.5"/>
<text text-anchor="middle" x="217.5" y="-287.5" font-family="Consolas" font-size="10.00">libccc/float.h</text>
</a>
</g>
</g>
<!-- Node1&#45;&gt;Node14 -->
<g id="edge19" class="edge">
<title>Node1&#45;&gt;Node14</title>
<path fill="none" stroke="midnightblue" d="M179.1,-336.08C185.73,-328.3 195.52,-316.8 203.56,-307.37"/>
<polygon fill="midnightblue" stroke="midnightblue" points="206.23,-309.63 210.05,-299.75 200.9,-305.09 206.23,-309.63"/>
</g>
<!-- Node3 -->
<g id="node3" class="node">
<title>Node3</title>
<g id="a_node3"><a xlink:href="$libccc_8h.html" xlink:title=" ">
<polygon fill="white" stroke="black" points="146.5,-224.5 146.5,-243.5 196.5,-243.5 196.5,-224.5 146.5,-224.5"/>
<text text-anchor="middle" x="171.5" y="-231.5" font-family="Consolas" font-size="10.00">libccc.h</text>
</a>
</g>
</g>
<!-- Node2&#45;&gt;Node3 -->
<g id="edge2" class="edge">
<title>Node2&#45;&gt;Node3</title>
<path fill="none" stroke="midnightblue" d="M57.05,-280.44C79.53,-271.52 114.99,-257.44 140.48,-247.32"/>
<polygon fill="midnightblue" stroke="midnightblue" points="142.05,-250.46 150.05,-243.52 139.47,-243.95 142.05,-250.46"/>
</g>
<!-- Node10 -->
<g id="node10" class="node">
<title>Node10</title>
<g id="a_node10"><a xlink:title=" ">
<polygon fill="white" stroke="#bfbfbf" points="7.5,-224.5 7.5,-243.5 63.5,-243.5 63.5,-224.5 7.5,-224.5"/>
<text text-anchor="middle" x="35.5" y="-231.5" font-family="Consolas" font-size="10.00">stdbool.h</text>
</a>
</g>
</g>
<!-- Node2&#45;&gt;Node10 -->
<g id="edge13" class="edge">
<title>Node2&#45;&gt;Node10</title>
<path fill="none" stroke="midnightblue" d="M35.5,-280.08C35.5,-273.01 35.5,-262.86 35.5,-253.99"/>
<polygon fill="midnightblue" stroke="midnightblue" points="39,-253.75 35.5,-243.75 32,-253.75 39,-253.75"/>
</g>
<!-- Node4 -->
<g id="node4" class="node">
<title>Node4</title>
<g id="a_node4"><a xlink:href="$libccc__define_8h.html" xlink:title=" ">
<polygon fill="white" stroke="black" points="96.5,-56.5 96.5,-75.5 178.5,-75.5 178.5,-56.5 96.5,-56.5"/>
<text text-anchor="middle" x="137.5" y="-63.5" font-family="Consolas" font-size="10.00">libccc_define.h</text>
</a>
</g>
</g>
<!-- Node3&#45;&gt;Node4 -->
<g id="edge3" class="edge">
<title>Node3&#45;&gt;Node4</title>
<path fill="none" stroke="midnightblue" d="M153.38,-224.37C125.46,-209.88 73.19,-177.7 54.5,-132 51.14,-123.77 49.95,-119.64 54.5,-112 63.6,-96.72 79.89,-86.31 95.64,-79.39"/>
<polygon fill="midnightblue" stroke="midnightblue" points="97.33,-82.48 105.32,-75.51 94.73,-75.98 97.33,-82.48"/>
</g>
<!-- Node6 -->
<g id="node6" class="node">
<title>Node6</title>
<g id="a_node6"><a xlink:href="$libccc__errors_8h.html" xlink:title=" ">
<polygon fill="white" stroke="black" points="63.5,-112.5 63.5,-131.5 143.5,-131.5 143.5,-112.5 63.5,-112.5"/>
<text text-anchor="middle" x="103.5" y="-119.5" font-family="Consolas" font-size="10.00">libccc_errors.h</text>
</a>
</g>
</g>
<!-- Node3&#45;&gt;Node6 -->
<g id="edge5" class="edge">
<title>Node3&#45;&gt;Node6</title>
<path fill="none" stroke="midnightblue" d="M158.07,-224.23C146.72,-216.13 130.84,-203.1 121.5,-188 112.74,-173.84 108.16,-155.36 105.82,-141.72"/>
<polygon fill="midnightblue" stroke="midnightblue" points="109.25,-141 104.33,-131.61 102.32,-142.01 109.25,-141"/>
</g>
<!-- Node7 -->
<g id="node7" class="node">
<title>Node7</title>
<g id="a_node7"><a xlink:href="$libccc__config_8h.html" xlink:title=" ">
<polygon fill="white" stroke="black" points="130.5,-168.5 130.5,-187.5 212.5,-187.5 212.5,-168.5 130.5,-168.5"/>
<text text-anchor="middle" x="171.5" y="-175.5" font-family="Consolas" font-size="10.00">libccc_config.h</text>
</a>
</g>
</g>
<!-- Node3&#45;&gt;Node7 -->
<g id="edge7" class="edge">
<title>Node3&#45;&gt;Node7</title>
<path fill="none" stroke="midnightblue" d="M171.5,-224.08C171.5,-217.01 171.5,-206.86 171.5,-197.99"/>
<polygon fill="midnightblue" stroke="midnightblue" points="175,-197.75 171.5,-187.75 168,-197.75 175,-197.75"/>
</g>
<!-- Node8 -->
<g id="node8" class="node">
<title>Node8</title>
<g id="a_node8"><a xlink:href="$libccc__naming_8h.html" xlink:title=" ">
<polygon fill="white" stroke="black" points="200,-112.5 200,-131.5 287,-131.5 287,-112.5 200,-112.5"/>
<text text-anchor="middle" x="243.5" y="-119.5" font-family="Consolas" font-size="10.00">libccc_naming.h</text>
</a>
</g>
</g>
<!-- Node3&#45;&gt;Node8 -->
<g id="edge10" class="edge">
<title>Node3&#45;&gt;Node8</title>
<path fill="none" stroke="midnightblue" d="M184.28,-224.42C195.53,-216.26 211.61,-203.02 221.5,-188 230.81,-173.85 236.57,-155.37 239.84,-141.73"/>
<polygon fill="midnightblue" stroke="midnightblue" points="243.34,-142.13 242.04,-131.61 236.5,-140.65 243.34,-142.13"/>
</g>
<!-- Node9 -->
<g id="node9" class="node">
<title>Node9</title>
<g id="a_node9"><a xlink:title=" ">
<polygon fill="white" stroke="#bfbfbf" points="269,-168.5 269,-187.5 316,-187.5 316,-168.5 269,-168.5"/>
<text text-anchor="middle" x="292.5" y="-175.5" font-family="Consolas" font-size="10.00">math.h</text>
</a>
</g>
</g>
<!-- Node3&#45;&gt;Node9 -->
<g id="edge12" class="edge">
<title>Node3&#45;&gt;Node9</title>
<path fill="none" stroke="midnightblue" d="M190.67,-224.44C210.41,-215.64 241.39,-201.81 263.99,-191.72"/>
<polygon fill="midnightblue" stroke="midnightblue" points="265.71,-194.79 273.42,-187.52 262.86,-188.4 265.71,-194.79"/>
</g>
<!-- Node5 -->
<g id="node5" class="node">
<title>Node5</title>
<g id="a_node5"><a xlink:title=" ">
<polygon fill="white" stroke="#bfbfbf" points="108,-0.5 108,-19.5 167,-19.5 167,-0.5 108,-0.5"/>
<text text-anchor="middle" x="137.5" y="-7.5" font-family="Consolas" font-size="10.00">stdalign.h</text>
</a>
</g>
</g>
<!-- Node4&#45;&gt;Node5 -->
<g id="edge4" class="edge">
<title>Node4&#45;&gt;Node5</title>
<path fill="none" stroke="midnightblue" d="M137.5,-56.08C137.5,-49.01 137.5,-38.86 137.5,-29.99"/>
<polygon fill="midnightblue" stroke="midnightblue" points="141,-29.75 137.5,-19.75 134,-29.75 141,-29.75"/>
</g>
<!-- Node6&#45;&gt;Node4 -->
<g id="edge6" class="edge">
<title>Node6&#45;&gt;Node4</title>
<path fill="none" stroke="midnightblue" d="M109.11,-112.08C113.87,-104.53 120.82,-93.49 126.65,-84.23"/>
<polygon fill="midnightblue" stroke="midnightblue" points="129.62,-86.08 131.99,-75.75 123.7,-82.35 129.62,-86.08"/>
</g>
<!-- Node7&#45;&gt;Node4 -->
<g id="edge8" class="edge">
<title>Node7&#45;&gt;Node4</title>
<path fill="none" stroke="midnightblue" d="M169.02,-168.14C165.49,-155.6 158.75,-131.97 152.5,-112 149.73,-103.15 146.5,-93.37 143.74,-85.2"/>
<polygon fill="midnightblue" stroke="midnightblue" points="147.01,-83.94 140.47,-75.6 140.38,-86.19 147.01,-83.94"/>
</g>
<!-- Node7&#45;&gt;Node6 -->
<g id="edge9" class="edge">
<title>Node7&#45;&gt;Node6</title>
<path fill="none" stroke="midnightblue" d="M160.57,-168.32C150.33,-160.18 134.78,-147.84 122.5,-138.09"/>
<polygon fill="midnightblue" stroke="midnightblue" points="124.63,-135.31 114.62,-131.83 120.28,-140.79 124.63,-135.31"/>
</g>
<!-- Node8&#45;&gt;Node4 -->
<g id="edge11" class="edge">
<title>Node8&#45;&gt;Node4</title>
<path fill="none" stroke="midnightblue" d="M226.47,-112.32C209.47,-103.66 183.12,-90.24 163.51,-80.25"/>
<polygon fill="midnightblue" stroke="midnightblue" points="164.99,-77.08 154.49,-75.65 161.81,-83.31 164.99,-77.08"/>
</g>
<!-- Node11&#45;&gt;Node3 -->
<g id="edge16" class="edge">
<title>Node11&#45;&gt;Node3</title>
<path fill="none" stroke="midnightblue" d="M282.58,-280.44C260.76,-271.52 226.35,-257.44 201.61,-247.32"/>
<polygon fill="midnightblue" stroke="midnightblue" points="202.9,-244.06 192.32,-243.52 200.25,-250.54 202.9,-244.06"/>
</g>
<!-- Node12 -->
<g id="node12" class="node">
<title>Node12</title>
<g id="a_node12"><a xlink:title=" ">
<polygon fill="white" stroke="#bfbfbf" points="279,-224.5 279,-243.5 328,-243.5 328,-224.5 279,-224.5"/>
<text text-anchor="middle" x="303.5" y="-231.5" font-family="Consolas" font-size="10.00">stdint.h</text>
</a>
</g>
</g>
<!-- Node11&#45;&gt;Node12 -->
<g id="edge15" class="edge">
<title>Node11&#45;&gt;Node12</title>
<path fill="none" stroke="midnightblue" d="M303.5,-280.08C303.5,-273.01 303.5,-262.86 303.5,-253.99"/>
<polygon fill="midnightblue" stroke="midnightblue" points="307,-253.75 303.5,-243.75 300,-253.75 307,-253.75"/>
</g>
<!-- Node13&#45;&gt;Node3 -->
<g id="edge18" class="edge">
<title>Node13&#45;&gt;Node3</title>
<path fill="none" stroke="midnightblue" d="M133.93,-280.08C140.35,-272.38 149.81,-261.03 157.62,-251.65"/>
<polygon fill="midnightblue" stroke="midnightblue" points="160.49,-253.67 164.21,-243.75 155.12,-249.19 160.49,-253.67"/>
</g>
<!-- Node14&#45;&gt;Node3 -->
<g id="edge20" class="edge">
<title>Node14&#45;&gt;Node3</title>
<path fill="none" stroke="midnightblue" d="M209.9,-280.08C203.27,-272.3 193.48,-260.8 185.44,-251.37"/>
<polygon fill="midnightblue" stroke="midnightblue" points="188.1,-249.09 178.95,-243.75 182.77,-253.63 188.1,-249.09"/>
</g>
</g>
</svg>
