<?xml version="1.0" encoding="UTF-8" standalone="no"?>
<!DOCTYPE svg PUBLIC "-//W3C//DTD SVG 1.1//EN"
 "http://www.w3.org/Graphics/SVG/1.1/DTD/svg11.dtd">
<!-- Generated by graphviz version 2.49.3 (20211023.0002)
 -->
<!-- Title: hdr/libccc/math/vlq.h Pages: 1 -->
<!--zoomable 364 -->
<svg id="main" version="1.1" xmlns="http://www.w3.org/2000/svg" xmlns:xlink="http://www.w3.org/1999/xlink" xml:space="preserve" onload="init(evt)">
<style type="text/css"><![CDATA[
.edge:hover path { stroke: red; }
.edge:hover polygon { stroke: red; fill: red; }
]]></style>
<script type="text/javascript"><![CDATA[
var edges = document.getElementsByTagName('g');
if (edges && edges.length) {
  for (var i=0;i<edges.length;i++) {
    if (edges[i].id.substr(0,4)=='edge') {
      edges[i].setAttribute('class','edge');
    }
  }
}
]]></script>
        <defs>
                <circle id="rim" cx="0" cy="0" r="7"/>
                <circle id="rim2" cx="0" cy="0" r="3.5"/>
                <g id="zoomPlus">
                        <use xlink:href="#rim" fill="#404040">
                                <set attributeName="fill" to="#808080" begin="zoomplus.mouseover" end="zoomplus.mouseout"/>
                        </use>
                        <path d="M-4,0h8M0,-4v8" fill="none" stroke="white" stroke-width="1.5" pointer-events="none"/>
                </g>
                <g id="zoomMin">
                        <use xlink:href="#rim" fill="#404040">
                                <set attributeName="fill" to="#808080" begin="zoomminus.mouseover" end="zoomminus.mouseout"/>
                        </use>
                        <path d="M-4,0h8" fill="none" stroke="white" stroke-width="1.5" pointer-events="none"/>
                </g>
                <g id="dirArrow">
                        <path fill="none" stroke="white" stroke-width="1.5" d="M0,-3.0v7 M-2.5,-0.5L0,-3.0L2.5,-0.5"/>
                </g>
               <g id="resetDef">
                       <use xlink:href="#rim2" fill="#404040">
                               <set attributeName="fill" to="#808080" begin="reset.mouseover" end="reset.mouseout"/>
                       </use>
               </g>
        </defs>

<script type="text/javascript">
var viewWidth = 827;
var viewHeight = 364;
var sectionId = 'dynsection-0';
</script>
<script xlink:href="svgpan.js"/>
<svg id="graph" class="graph">
<g id="viewport">
<title>hdr/libccc/math/vlq.h</title>
<polygon fill="white" stroke="transparent" points="-4,4 -4,-360 822.5,-360 822.5,4 -4,4"/>
<!-- Node1 -->
<g id="node1" class="node">
<title>Node1</title>
<g id="a_node1"><a xlink:title=" ">
<polygon fill="#bfbfbf" stroke="black" points="467,-336.5 467,-355.5 574,-355.5 574,-336.5 467,-336.5"/>
<text text-anchor="middle" x="520.5" y="-343.5" font-family="Consolas" font-size="10.00">hdr/libccc/math/vlq.h</text>
</a>
</g>
</g>
<!-- Node2 -->
<g id="node2" class="node">
<title>Node2</title>
<g id="a_node2"><a xlink:href="bool_8h.html" target="_top" xlink:title=" ">
<polygon fill="white" stroke="black" points="453,-280.5 453,-299.5 524,-299.5 524,-280.5 453,-280.5"/>
<text text-anchor="middle" x="488.5" y="-287.5" font-family="Consolas" font-size="10.00">libccc/bool.h</text>
</a>
</g>
</g>
<!-- Node1&#45;&gt;Node2 -->
<g id="edge1" class="edge">
<title>Node1&#45;&gt;Node2</title>
<path fill="none" stroke="midnightblue" d="M515.22,-336.08C510.79,-328.61 504.34,-317.72 498.88,-308.52"/>
<polygon fill="midnightblue" stroke="midnightblue" points="501.79,-306.57 493.69,-299.75 495.77,-310.14 501.79,-306.57"/>
</g>
<!-- Node13 -->
<g id="node13" class="node">
<title>Node13</title>
<g id="a_node13"><a xlink:href="int_8h.html" target="_top" xlink:title=" ">
<polygon fill="white" stroke="black" points="206.5,-168.5 206.5,-187.5 270.5,-187.5 270.5,-168.5 206.5,-168.5"/>
<text text-anchor="middle" x="238.5" y="-175.5" font-family="Consolas" font-size="10.00">libccc/int.h</text>
</a>
</g>
</g>
<!-- Node1&#45;&gt;Node13 -->
<g id="edge29" class="edge">
<title>Node1&#45;&gt;Node13</title>
<path fill="none" stroke="midnightblue" d="M505.73,-336.39C490.22,-327.35 465.13,-312.7 443.5,-300 377.47,-261.22 299.62,-215.18 261.66,-192.72"/>
<polygon fill="midnightblue" stroke="midnightblue" points="263.29,-189.61 252.9,-187.53 259.72,-195.64 263.29,-189.61"/>
</g>
<!-- Node14 -->
<g id="node14" class="node">
<title>Node14</title>
<g id="a_node14"><a xlink:href="fixed_8h.html" target="_top" xlink:title=" ">
<polygon fill="white" stroke="black" points="654.5,-168.5 654.5,-187.5 728.5,-187.5 728.5,-168.5 654.5,-168.5"/>
<text text-anchor="middle" x="691.5" y="-175.5" font-family="Consolas" font-size="10.00">libccc/fixed.h</text>
</a>
</g>
</g>
<!-- Node1&#45;&gt;Node14 -->
<g id="edge30" class="edge">
<title>Node1&#45;&gt;Node14</title>
<path fill="none" stroke="midnightblue" d="M529.69,-336.08C557.31,-309.27 639.8,-229.19 675.14,-194.89"/>
<polygon fill="midnightblue" stroke="midnightblue" points="677.94,-197.04 682.67,-187.57 673.06,-192.02 677.94,-197.04"/>
</g>
<!-- Node15 -->
<g id="node15" class="node">
<title>Node15</title>
<g id="a_node15"><a xlink:href="float_8h.html" target="_top" xlink:title=" ">
<polygon fill="white" stroke="black" points="746.5,-168.5 746.5,-187.5 818.5,-187.5 818.5,-168.5 746.5,-168.5"/>
<text text-anchor="middle" x="782.5" y="-175.5" font-family="Consolas" font-size="10.00">libccc/float.h</text>
</a>
</g>
</g>
<!-- Node1&#45;&gt;Node15 -->
<g id="edge31" class="edge">
<title>Node1&#45;&gt;Node15</title>
<path fill="none" stroke="midnightblue" d="M534.22,-336.31C576.93,-309.25 707.81,-226.32 760.34,-193.04"/>
<polygon fill="midnightblue" stroke="midnightblue" points="762.34,-195.91 768.92,-187.61 758.6,-190 762.34,-195.91"/>
</g>
<!-- Node3 -->
<g id="node3" class="node">
<title>Node3</title>
<g id="a_node3"><a xlink:href="libccc_8h.html" target="_top" xlink:title=" ">
<polygon fill="white" stroke="black" points="463.5,-224.5 463.5,-243.5 513.5,-243.5 513.5,-224.5 463.5,-224.5"/>
<text text-anchor="middle" x="488.5" y="-231.5" font-family="Consolas" font-size="10.00">libccc.h</text>
</a>
</g>
</g>
<!-- Node2&#45;&gt;Node3 -->
<g id="edge2" class="edge">
<title>Node2&#45;&gt;Node3</title>
<path fill="none" stroke="midnightblue" d="M483.33,-280.08C481.82,-272.93 481.39,-262.64 482.04,-253.69"/>
<polygon fill="midnightblue" stroke="midnightblue" points="485.52,-254.13 483.37,-243.75 478.58,-253.2 485.52,-254.13"/>
</g>
<!-- Node3&#45;&gt;Node2 -->
<g id="edge12" class="edge">
<title>Node3&#45;&gt;Node2</title>
<path fill="none" stroke="midnightblue" d="M493.63,-243.75C495.16,-250.86 495.6,-261.14 494.97,-270.1"/>
<polygon fill="midnightblue" stroke="midnightblue" points="491.49,-269.71 493.67,-280.08 498.43,-270.62 491.49,-269.71"/>
</g>
<!-- Node4 -->
<g id="node4" class="node">
<title>Node4</title>
<g id="a_node4"><a xlink:href="libccc__define_8h.html" target="_top" xlink:title=" ">
<polygon fill="white" stroke="black" points="481.5,-56.5 481.5,-75.5 563.5,-75.5 563.5,-56.5 481.5,-56.5"/>
<text text-anchor="middle" x="522.5" y="-63.5" font-family="Consolas" font-size="10.00">libccc_define.h</text>
</a>
</g>
</g>
<!-- Node3&#45;&gt;Node4 -->
<g id="edge3" class="edge">
<title>Node3&#45;&gt;Node4</title>
<path fill="none" stroke="midnightblue" d="M489.35,-224.4C491.44,-204.44 497.39,-153.53 507.5,-112 509.69,-102.99 512.86,-93.19 515.72,-85.05"/>
<polygon fill="midnightblue" stroke="midnightblue" points="519.06,-86.1 519.19,-75.5 512.49,-83.7 519.06,-86.1"/>
</g>
<!-- Node6 -->
<g id="node6" class="node">
<title>Node6</title>
<g id="a_node6"><a xlink:href="libccc__errors_8h.html" target="_top" xlink:title=" ">
<polygon fill="white" stroke="black" points="516.5,-112.5 516.5,-131.5 596.5,-131.5 596.5,-112.5 516.5,-112.5"/>
<text text-anchor="middle" x="556.5" y="-119.5" font-family="Consolas" font-size="10.00">libccc_errors.h</text>
</a>
</g>
</g>
<!-- Node3&#45;&gt;Node6 -->
<g id="edge5" class="edge">
<title>Node3&#45;&gt;Node6</title>
<path fill="none" stroke="midnightblue" d="M493.84,-224.37C505.01,-206.3 531.05,-164.18 545.8,-140.31"/>
<polygon fill="midnightblue" stroke="midnightblue" points="548.91,-141.94 551.19,-131.59 542.95,-138.26 548.91,-141.94"/>
</g>
<!-- Node7 -->
<g id="node7" class="node">
<title>Node7</title>
<g id="a_node7"><a xlink:href="libccc__config_8h.html" target="_top" xlink:title=" ">
<polygon fill="white" stroke="black" points="554.5,-168.5 554.5,-187.5 636.5,-187.5 636.5,-168.5 554.5,-168.5"/>
<text text-anchor="middle" x="595.5" y="-175.5" font-family="Consolas" font-size="10.00">libccc_config.h</text>
</a>
</g>
</g>
<!-- Node3&#45;&gt;Node7 -->
<g id="edge7" class="edge">
<title>Node3&#45;&gt;Node7</title>
<path fill="none" stroke="midnightblue" d="M505.69,-224.32C522.85,-215.66 549.45,-202.24 569.25,-192.25"/>
<polygon fill="midnightblue" stroke="midnightblue" points="571,-195.28 578.35,-187.65 567.85,-189.04 571,-195.28"/>
</g>
<!-- Node8 -->
<g id="node8" class="node">
<title>Node8</title>
<g id="a_node8"><a xlink:href="libccc__naming_8h.html" target="_top" xlink:title=" ">
<polygon fill="white" stroke="black" points="0,-112.5 0,-131.5 87,-131.5 87,-112.5 0,-112.5"/>
<text text-anchor="middle" x="43.5" y="-119.5" font-family="Consolas" font-size="10.00">libccc_naming.h</text>
</a>
</g>
</g>
<!-- Node3&#45;&gt;Node8 -->
<g id="edge10" class="edge">
<title>Node3&#45;&gt;Node8</title>
<path fill="none" stroke="midnightblue" d="M463.14,-231.19C412.05,-227.07 293.4,-215.2 197.5,-188 150.85,-174.77 99.48,-151.11 69.43,-136.28"/>
<polygon fill="midnightblue" stroke="midnightblue" points="70.61,-132.96 60.1,-131.62 67.48,-139.22 70.61,-132.96"/>
</g>
<!-- Node9 -->
<g id="node9" class="node">
<title>Node9</title>
<g id="a_node9"><a xlink:href="char_8h.html" target="_top" xlink:title=" ">
<polygon fill="white" stroke="black" points="289,-168.5 289,-187.5 360,-187.5 360,-168.5 289,-168.5"/>
<text text-anchor="middle" x="324.5" y="-175.5" font-family="Consolas" font-size="10.00">libccc/char.h</text>
</a>
</g>
</g>
<!-- Node3&#45;&gt;Node9 -->
<g id="edge13" class="edge">
<title>Node3&#45;&gt;Node9</title>
<path fill="none" stroke="midnightblue" d="M463.42,-226.27C434.14,-217.42 386.09,-201.71 354.79,-190.85"/>
<polygon fill="midnightblue" stroke="midnightblue" points="355.85,-187.51 345.26,-187.51 353.54,-194.12 355.85,-187.51"/>
</g>
<!-- Node3&#45;&gt;Node13 -->
<g id="edge18" class="edge">
<title>Node3&#45;&gt;Node13</title>
<path fill="none" stroke="midnightblue" d="M463.38,-228.75C424.37,-221.16 347.6,-204.74 278.48,-189.73"/>
<polygon fill="midnightblue" stroke="midnightblue" points="278.86,-186.23 268.35,-187.53 277.37,-193.07 278.86,-186.23"/>
</g>
<!-- Node3&#45;&gt;Node14 -->
<g id="edge21" class="edge">
<title>Node3&#45;&gt;Node14</title>
<path fill="none" stroke="midnightblue" d="M513.91,-224.92C546.71,-215.62 604.06,-200.31 644.78,-189.95"/>
<polygon fill="midnightblue" stroke="midnightblue" points="645.65,-193.34 654.48,-187.5 643.93,-186.56 645.65,-193.34"/>
</g>
<!-- Node3&#45;&gt;Node15 -->
<g id="edge23" class="edge">
<title>Node3&#45;&gt;Node15</title>
<path fill="none" stroke="midnightblue" d="M513.8,-227.57C557.75,-219.3 650.17,-202.91 728.5,-188 730.97,-187.53 733.51,-187.04 736.08,-186.54"/>
<polygon fill="midnightblue" stroke="midnightblue" points="736.96,-189.94 746.11,-184.6 735.63,-183.07 736.96,-189.94"/>
</g>
<!-- Node16 -->
<g id="node16" class="node">
<title>Node16</title>
<g id="a_node16"><a xlink:href="pointer_8h.html" target="_top" xlink:title=" ">
<polygon fill="white" stroke="black" points="378.5,-168.5 378.5,-187.5 460.5,-187.5 460.5,-168.5 378.5,-168.5"/>
<text text-anchor="middle" x="419.5" y="-175.5" font-family="Consolas" font-size="10.00">libccc/pointer.h</text>
</a>
</g>
</g>
<!-- Node3&#45;&gt;Node16 -->
<g id="edge25" class="edge">
<title>Node3&#45;&gt;Node16</title>
<path fill="none" stroke="midnightblue" d="M472.3,-224.32C460.37,-216.34 444.64,-204.31 433.31,-194.65"/>
<polygon fill="midnightblue" stroke="midnightblue" points="435.44,-191.86 425.64,-187.83 430.79,-197.09 435.44,-191.86"/>
</g>
<!-- Node5 -->
<g id="node5" class="node">
<title>Node5</title>
<g id="a_node5"><a xlink:title=" ">
<polygon fill="white" stroke="#bfbfbf" points="493,-0.5 493,-19.5 552,-19.5 552,-0.5 493,-0.5"/>
<text text-anchor="middle" x="522.5" y="-7.5" font-family="Consolas" font-size="10.00">stdalign.h</text>
</a>
</g>
</g>
<!-- Node4&#45;&gt;Node5 -->
<g id="edge4" class="edge">
<title>Node4&#45;&gt;Node5</title>
<path fill="none" stroke="midnightblue" d="M522.5,-56.08C522.5,-49.01 522.5,-38.86 522.5,-29.99"/>
<polygon fill="midnightblue" stroke="midnightblue" points="526,-29.75 522.5,-19.75 519,-29.75 526,-29.75"/>
</g>
<!-- Node6&#45;&gt;Node4 -->
<g id="edge6" class="edge">
<title>Node6&#45;&gt;Node4</title>
<path fill="none" stroke="midnightblue" d="M550.89,-112.08C546.13,-104.53 539.18,-93.49 533.35,-84.23"/>
<polygon fill="midnightblue" stroke="midnightblue" points="536.3,-82.35 528.01,-75.75 530.38,-86.08 536.3,-82.35"/>
</g>
<!-- Node7&#45;&gt;Node4 -->
<g id="edge8" class="edge">
<title>Node7&#45;&gt;Node4</title>
<path fill="none" stroke="midnightblue" d="M600.19,-168.32C606.59,-155.18 616.13,-129.86 605.5,-112 596.4,-96.72 580.11,-86.31 564.36,-79.39"/>
<polygon fill="midnightblue" stroke="midnightblue" points="565.27,-75.98 554.68,-75.51 562.67,-82.48 565.27,-75.98"/>
</g>
<!-- Node7&#45;&gt;Node6 -->
<g id="edge9" class="edge">
<title>Node7&#45;&gt;Node6</title>
<path fill="none" stroke="midnightblue" d="M589.06,-168.08C583.55,-160.46 575.47,-149.26 568.74,-139.94"/>
<polygon fill="midnightblue" stroke="midnightblue" points="571.51,-137.81 562.82,-131.75 565.84,-141.91 571.51,-137.81"/>
</g>
<!-- Node8&#45;&gt;Node4 -->
<g id="edge11" class="edge">
<title>Node8&#45;&gt;Node4</title>
<path fill="none" stroke="midnightblue" d="M87.16,-113.23C89.98,-112.79 92.78,-112.38 95.5,-112 230.64,-93.21 390.81,-78.28 471.14,-71.3"/>
<polygon fill="midnightblue" stroke="midnightblue" points="471.81,-74.76 481.47,-70.41 471.2,-67.78 471.81,-74.76"/>
</g>
<!-- Node9&#45;&gt;Node3 -->
<g id="edge15" class="edge">
<title>Node9&#45;&gt;Node3</title>
<path fill="none" stroke="midnightblue" d="M355.44,-187.52C384.86,-196.55 428.6,-210.88 457.89,-221.04"/>
<polygon fill="midnightblue" stroke="midnightblue" points="457.01,-224.44 467.6,-224.44 459.32,-217.83 457.01,-224.44"/>
</g>
<!-- Node10 -->
<g id="node10" class="node">
<title>Node10</title>
<g id="a_node10"><a xlink:title=" ">
<polygon fill="white" stroke="#bfbfbf" points="230,-112.5 230,-131.5 279,-131.5 279,-112.5 230,-112.5"/>
<text text-anchor="middle" x="254.5" y="-119.5" font-family="Consolas" font-size="10.00">stdint.h</text>
</a>
</g>
</g>
<!-- Node9&#45;&gt;Node10 -->
<g id="edge14" class="edge">
<title>Node9&#45;&gt;Node10</title>
<path fill="none" stroke="midnightblue" d="M313.25,-168.32C302.7,-160.18 286.7,-147.84 274.06,-138.09"/>
<polygon fill="midnightblue" stroke="midnightblue" points="276.01,-135.17 265.95,-131.83 271.73,-140.71 276.01,-135.17"/>
</g>
<!-- Node11 -->
<g id="node11" class="node">
<title>Node11</title>
<g id="a_node11"><a xlink:title=" ">
<polygon fill="white" stroke="#bfbfbf" points="297,-112.5 297,-131.5 390,-131.5 390,-112.5 297,-112.5"/>
<text text-anchor="middle" x="343.5" y="-119.5" font-family="Consolas" font-size="10.00">libccc/text/ascii.h</text>
</a>
</g>
</g>
<!-- Node9&#45;&gt;Node11 -->
<g id="edge16" class="edge">
<title>Node9&#45;&gt;Node11</title>
<path fill="none" stroke="midnightblue" d="M327.64,-168.08C330.18,-160.85 333.86,-150.41 337.03,-141.4"/>
<polygon fill="midnightblue" stroke="midnightblue" points="340.4,-142.35 340.42,-131.75 333.8,-140.02 340.4,-142.35"/>
</g>
<!-- Node12 -->
<g id="node12" class="node">
<title>Node12</title>
<g id="a_node12"><a xlink:title=" ">
<polygon fill="white" stroke="#bfbfbf" points="105,-112.5 105,-131.5 212,-131.5 212,-112.5 105,-112.5"/>
<text text-anchor="middle" x="158.5" y="-119.5" font-family="Consolas" font-size="10.00">libccc/text/unicode.h</text>
</a>
</g>
</g>
<!-- Node9&#45;&gt;Node12 -->
<g id="edge17" class="edge">
<title>Node9&#45;&gt;Node12</title>
<path fill="none" stroke="midnightblue" d="M298.2,-168.44C270.15,-159.32 225.56,-144.81 194.32,-134.65"/>
<polygon fill="midnightblue" stroke="midnightblue" points="195.27,-131.28 184.68,-131.52 193.11,-137.94 195.27,-131.28"/>
</g>
<!-- Node13&#45;&gt;Node3 -->
<g id="edge20" class="edge">
<title>Node13&#45;&gt;Node3</title>
<path fill="none" stroke="midnightblue" d="M270.64,-184.16C276.66,-185.42 282.8,-186.76 288.5,-188 346.39,-200.59 413.33,-214.97 453.36,-224.02"/>
<polygon fill="midnightblue" stroke="midnightblue" points="452.65,-227.45 463.18,-226.25 454.2,-220.62 452.65,-227.45"/>
</g>
<!-- Node13&#45;&gt;Node10 -->
<g id="edge19" class="edge">
<title>Node13&#45;&gt;Node10</title>
<path fill="none" stroke="midnightblue" d="M241.14,-168.08C243.29,-160.85 246.38,-150.41 249.05,-141.4"/>
<polygon fill="midnightblue" stroke="midnightblue" points="252.42,-142.33 251.91,-131.75 245.71,-140.34 252.42,-142.33"/>
</g>
<!-- Node14&#45;&gt;Node3 -->
<g id="edge22" class="edge">
<title>Node14&#45;&gt;Node3</title>
<path fill="none" stroke="midnightblue" d="M664.45,-187.55C628.08,-197.82 563.71,-214.94 523.64,-224.97"/>
<polygon fill="midnightblue" stroke="midnightblue" points="522.63,-221.62 513.77,-227.42 524.32,-228.41 522.63,-221.62"/>
</g>
<!-- Node15&#45;&gt;Node3 -->
<g id="edge24" class="edge">
<title>Node15&#45;&gt;Node3</title>
<path fill="none" stroke="midnightblue" d="M748.87,-187.55C748.07,-187.7 747.28,-187.85 746.5,-188 667.33,-203.07 573.76,-219.65 523.77,-227.84"/>
<polygon fill="midnightblue" stroke="midnightblue" points="523.1,-224.4 513.79,-229.45 524.22,-231.31 523.1,-224.4"/>
</g>
<!-- Node16&#45;&gt;Node3 -->
<g id="edge28" class="edge">
<title>Node16&#45;&gt;Node3</title>
<path fill="none" stroke="midnightblue" d="M435.67,-187.65C447.66,-195.68 463.51,-207.8 474.86,-217.49"/>
<polygon fill="midnightblue" stroke="midnightblue" points="472.73,-220.29 482.53,-224.32 477.39,-215.06 472.73,-220.29"/>
</g>
<!-- Node16&#45;&gt;Node10 -->
<g id="edge27" class="edge">
<title>Node16&#45;&gt;Node10</title>
<path fill="none" stroke="midnightblue" d="M393.36,-168.44C365.07,-159.19 319.84,-144.39 288.74,-134.21"/>
<polygon fill="midnightblue" stroke="midnightblue" points="289.77,-130.86 279.17,-131.08 287.59,-137.51 289.77,-130.86"/>
</g>
<!-- Node17 -->
<g id="node17" class="node">
<title>Node17</title>
<g id="a_node17"><a xlink:title=" ">
<polygon fill="white" stroke="#bfbfbf" points="408.5,-112.5 408.5,-131.5 460.5,-131.5 460.5,-112.5 408.5,-112.5"/>
<text text-anchor="middle" x="434.5" y="-119.5" font-family="Consolas" font-size="10.00">stddef.h</text>
</a>
</g>
</g>
<!-- Node16&#45;&gt;Node17 -->
<g id="edge26" class="edge">
<title>Node16&#45;&gt;Node17</title>
<path fill="none" stroke="midnightblue" d="M421.98,-168.08C423.99,-160.85 426.89,-150.41 429.39,-141.4"/>
<polygon fill="midnightblue" stroke="midnightblue" points="432.76,-142.32 432.07,-131.75 426.02,-140.45 432.76,-142.32"/>
</g>
</g>
</svg>
        <g id="navigator" transform="translate(0 0)" fill="#404254">
                <rect fill="#f2f5e9" fill-opacity="0.5" stroke="#606060" stroke-width=".5" x="0" y="0" width="60" height="60"/>
                <use id="zoomplus" xlink:href="#zoomPlus" x="17" y="9" onmousedown="handleZoom(evt,'in')"/>
                <use id="zoomminus" xlink:href="#zoomMin" x="42" y="9" onmousedown="handleZoom(evt,'out')"/>
                <use id="reset" xlink:href="#resetDef" x="30" y="36" onmousedown="handleReset()"/>
                <g id="arrowUp" xlink:href="#dirArrow" transform="translate(30 24)" onmousedown="handlePan(0,-1)">
                  <use xlink:href="#rim" fill="#404040">
                        <set attributeName="fill" to="#808080" begin="arrowUp.mouseover" end="arrowUp.mouseout"/>
                  </use>
                  <path fill="none" stroke="white" stroke-width="1.5" d="M0,-3.0v7 M-2.5,-0.5L0,-3.0L2.5,-0.5"/>
                </g>
                <g id="arrowRight" xlink:href="#dirArrow" transform="rotate(90) translate(36 -43)" onmousedown="handlePan(1,0)">
                  <use xlink:href="#rim" fill="#404040">
                        <set attributeName="fill" to="#808080" begin="arrowRight.mouseover" end="arrowRight.mouseout"/>
                  </use>
                  <path fill="none" stroke="white" stroke-width="1.5" d="M0,-3.0v7 M-2.5,-0.5L0,-3.0L2.5,-0.5"/>
                </g>
                <g id="arrowDown" xlink:href="#dirArrow" transform="rotate(180) translate(-30 -48)" onmousedown="handlePan(0,1)">
                  <use xlink:href="#rim" fill="#404040">
                        <set attributeName="fill" to="#808080" begin="arrowDown.mouseover" end="arrowDown.mouseout"/>
                  </use>
                  <path fill="none" stroke="white" stroke-width="1.5" d="M0,-3.0v7 M-2.5,-0.5L0,-3.0L2.5,-0.5"/>
                </g>
                <g id="arrowLeft" xlink:href="#dirArrow" transform="rotate(270) translate(-36 17)" onmousedown="handlePan(-1,0)">
                  <use xlink:href="#rim" fill="#404040">
                        <set attributeName="fill" to="#808080" begin="arrowLeft.mouseover" end="arrowLeft.mouseout"/>
                  </use>
                  <path fill="none" stroke="white" stroke-width="1.5" d="M0,-3.0v7 M-2.5,-0.5L0,-3.0L2.5,-0.5"/>
                </g>
        </g>
        <svg viewBox="0 0 15 15" width="100%" height="30px" preserveAspectRatio="xMaxYMin meet">
         <g id="arrow_out" transform="scale(0.3 0.3)">
          <a xlink:href="vlq_8h__incl_org.svg" target="_base">
           <rect id="button" ry="5" rx="5" y="6" x="6" height="38" width="38"
                fill="#f2f5e9" fill-opacity="0.5" stroke="#606060" stroke-width="1.0"/>
           <path id="arrow"
             d="M 11.500037,31.436501 C 11.940474,20.09759 22.043105,11.32322 32.158766,21.979434 L 37.068811,17.246167 C 37.068811,17.246167 37.088388,32 37.088388,32 L 22.160133,31.978069 C 22.160133,31.978069 26.997745,27.140456 26.997745,27.140456 C 18.528582,18.264221 13.291696,25.230495 11.500037,31.436501 z"
             style="fill:#404040;"/>
          </a>
         </g>
        </svg>
</svg>
