<?xml version="1.0" encoding="UTF-8" standalone="no"?>
<!DOCTYPE svg PUBLIC "-//W3C//DTD SVG 1.1//EN"
 "http://www.w3.org/Graphics/SVG/1.1/DTD/svg11.dtd">
<!-- Generated by graphviz version 2.43.0 (0)
 -->
<!-- Title: libccc/math/vlq.h Pages: 1 -->
<svg width="1080pt" height="364pt"
 viewBox="0.00 0.00 1079.50 364.00" xmlns="http://www.w3.org/2000/svg" xmlns:xlink="http://www.w3.org/1999/xlink">
<g id="graph0" class="graph" transform="scale(1 1) rotate(0) translate(4 360)">
<title>libccc/math/vlq.h</title>
<polygon fill="white" stroke="transparent" points="-4,4 -4,-360 1075.5,-360 1075.5,4 -4,4"/>
<!-- Node1 -->
<g id="node1" class="node">
<title>Node1</title>
<g id="a_node1"><a xlink:title=" ">
<polygon fill="#bfbfbf" stroke="black" points="629.5,-336.5 629.5,-355.5 735.5,-355.5 735.5,-336.5 629.5,-336.5"/>
<text text-anchor="middle" x="682.5" y="-343.5" font-family="Consolas" font-size="10.00">libccc/math/vlq.h</text>
</a>
</g>
</g>
<!-- Node2 -->
<g id="node2" class="node">
<title>Node2</title>
<g id="a_node2"><a xlink:href="bool_8h.html" target="_top" xlink:title=" ">
<polygon fill="white" stroke="black" points="270,-280.5 270,-299.5 355,-299.5 355,-280.5 270,-280.5"/>
<text text-anchor="middle" x="312.5" y="-287.5" font-family="Consolas" font-size="10.00">libccc/bool.h</text>
</a>
</g>
</g>
<!-- Node1&#45;&gt;Node2 -->
<g id="edge1" class="edge">
<title>Node1&#45;&gt;Node2</title>
<path fill="none" stroke="midnightblue" d="M629.3,-337.58C567,-328.84 460.7,-313.76 369.5,-300 368.04,-299.78 366.57,-299.56 365.08,-299.33"/>
<polygon fill="midnightblue" stroke="midnightblue" points="365.55,-295.86 355.13,-297.8 364.48,-302.78 365.55,-295.86"/>
</g>
<!-- Node11 -->
<g id="node11" class="node">
<title>Node11</title>
<g id="a_node11"><a xlink:href="float_8h.html" target="_top" xlink:title=" ">
<polygon fill="white" stroke="black" points="354.5,-56.5 354.5,-75.5 444.5,-75.5 444.5,-56.5 354.5,-56.5"/>
<text text-anchor="middle" x="399.5" y="-63.5" font-family="Consolas" font-size="10.00">libccc/float.h</text>
</a>
</g>
</g>
<!-- Node1&#45;&gt;Node11 -->
<g id="edge28" class="edge">
<title>Node1&#45;&gt;Node11</title>
<path fill="none" stroke="midnightblue" d="M655.44,-336.37C591.64,-314.36 432.52,-249.44 370.5,-132 361.98,-115.87 372.94,-96.72 383.74,-83.4"/>
<polygon fill="midnightblue" stroke="midnightblue" points="386.63,-85.41 390.6,-75.58 381.37,-80.79 386.63,-85.41"/>
</g>
<!-- Node13 -->
<g id="node13" class="node">
<title>Node13</title>
<g id="a_node13"><a xlink:href="int_8h.html" target="_top" xlink:title=" ">
<polygon fill="white" stroke="black" points="883.5,-56.5 883.5,-75.5 963.5,-75.5 963.5,-56.5 883.5,-56.5"/>
<text text-anchor="middle" x="923.5" y="-63.5" font-family="Consolas" font-size="10.00">libccc/int.h</text>
</a>
</g>
</g>
<!-- Node1&#45;&gt;Node13 -->
<g id="edge26" class="edge">
<title>Node1&#45;&gt;Node13</title>
<path fill="none" stroke="midnightblue" d="M701.32,-336.44C751.15,-312.59 886.14,-239.96 936.5,-132 943.48,-117.04 938.56,-98.44 932.88,-84.97"/>
<polygon fill="midnightblue" stroke="midnightblue" points="936,-83.38 928.57,-75.82 929.66,-86.36 936,-83.38"/>
</g>
<!-- Node16 -->
<g id="node16" class="node">
<title>Node16</title>
<g id="a_node16"><a xlink:href="fixed_8h.html" target="_top" xlink:title=" ">
<polygon fill="white" stroke="black" points="981.5,-56.5 981.5,-75.5 1071.5,-75.5 1071.5,-56.5 981.5,-56.5"/>
<text text-anchor="middle" x="1026.5" y="-63.5" font-family="Consolas" font-size="10.00">libccc/fixed.h</text>
</a>
</g>
</g>
<!-- Node1&#45;&gt;Node16 -->
<g id="edge27" class="edge">
<title>Node1&#45;&gt;Node16</title>
<path fill="none" stroke="midnightblue" d="M735.76,-340.3C837.95,-329.81 1051.5,-300.09 1051.5,-235 1051.5,-235 1051.5,-235 1051.5,-177 1051.5,-144 1040.67,-106.77 1033.26,-85.19"/>
<polygon fill="midnightblue" stroke="midnightblue" points="1036.53,-83.93 1029.87,-75.69 1029.93,-86.28 1036.53,-83.93"/>
</g>
<!-- Node3 -->
<g id="node3" class="node">
<title>Node3</title>
<g id="a_node3"><a xlink:href="libccc_8h.html" target="_top" xlink:title=" ">
<polygon fill="white" stroke="black" points="214,-224.5 214,-243.5 273,-243.5 273,-224.5 214,-224.5"/>
<text text-anchor="middle" x="243.5" y="-231.5" font-family="Consolas" font-size="10.00">libccc.h</text>
</a>
</g>
</g>
<!-- Node2&#45;&gt;Node3 -->
<g id="edge2" class="edge">
<title>Node2&#45;&gt;Node3</title>
<path fill="none" stroke="midnightblue" d="M301.41,-280.32C291.01,-272.18 275.24,-259.84 262.78,-250.09"/>
<polygon fill="midnightblue" stroke="midnightblue" points="264.82,-247.24 254.79,-243.83 260.51,-252.75 264.82,-247.24"/>
</g>
<!-- Node18 -->
<g id="node18" class="node">
<title>Node18</title>
<g id="a_node18"><a xlink:title=" ">
<polygon fill="white" stroke="#bfbfbf" points="291.5,-224.5 291.5,-243.5 355.5,-243.5 355.5,-224.5 291.5,-224.5"/>
<text text-anchor="middle" x="323.5" y="-231.5" font-family="Consolas" font-size="10.00">stdbool.h</text>
</a>
</g>
</g>
<!-- Node2&#45;&gt;Node18 -->
<g id="edge25" class="edge">
<title>Node2&#45;&gt;Node18</title>
<path fill="none" stroke="midnightblue" d="M314.32,-280.08C315.77,-272.93 317.87,-262.64 319.69,-253.69"/>
<polygon fill="midnightblue" stroke="midnightblue" points="323.15,-254.25 321.72,-243.75 316.29,-252.85 323.15,-254.25"/>
</g>
<!-- Node4 -->
<g id="node4" class="node">
<title>Node4</title>
<g id="a_node4"><a xlink:href="libccc__define_8h.html" target="_top" xlink:title=" ">
<polygon fill="white" stroke="black" points="114,-56.5 114,-75.5 209,-75.5 209,-56.5 114,-56.5"/>
<text text-anchor="middle" x="161.5" y="-63.5" font-family="Consolas" font-size="10.00">libccc_define.h</text>
</a>
</g>
</g>
<!-- Node3&#45;&gt;Node4 -->
<g id="edge3" class="edge">
<title>Node3&#45;&gt;Node4</title>
<path fill="none" stroke="midnightblue" d="M248.04,-224.3C254.06,-211.55 263.06,-187.22 255.5,-168 240.88,-130.84 205.44,-99.25 182.5,-81.73"/>
<polygon fill="midnightblue" stroke="midnightblue" points="184.5,-78.86 174.38,-75.72 180.34,-84.49 184.5,-78.86"/>
</g>
<!-- Node6 -->
<g id="node6" class="node">
<title>Node6</title>
<g id="a_node6"><a xlink:href="libccc__errors_8h.html" target="_top" xlink:title=" ">
<polygon fill="white" stroke="black" points="76,-112.5 76,-131.5 171,-131.5 171,-112.5 76,-112.5"/>
<text text-anchor="middle" x="123.5" y="-119.5" font-family="Consolas" font-size="10.00">libccc_errors.h</text>
</a>
</g>
</g>
<!-- Node3&#45;&gt;Node6 -->
<g id="edge5" class="edge">
<title>Node3&#45;&gt;Node6</title>
<path fill="none" stroke="midnightblue" d="M213.8,-226.91C191.2,-220.78 160.94,-209.11 142.5,-188 131.27,-175.14 126.67,-155.96 124.79,-141.77"/>
<polygon fill="midnightblue" stroke="midnightblue" points="128.25,-141.27 123.79,-131.67 121.29,-141.96 128.25,-141.27"/>
</g>
<!-- Node7 -->
<g id="node7" class="node">
<title>Node7</title>
<g id="a_node7"><a xlink:href="libccc__config_8h.html" target="_top" xlink:title=" ">
<polygon fill="white" stroke="black" points="0,-168.5 0,-187.5 95,-187.5 95,-168.5 0,-168.5"/>
<text text-anchor="middle" x="47.5" y="-175.5" font-family="Consolas" font-size="10.00">libccc_config.h</text>
</a>
</g>
</g>
<!-- Node3&#45;&gt;Node7 -->
<g id="edge7" class="edge">
<title>Node3&#45;&gt;Node7</title>
<path fill="none" stroke="midnightblue" d="M213.73,-224.8C180.35,-215.6 126.01,-200.63 88.59,-190.32"/>
<polygon fill="midnightblue" stroke="midnightblue" points="89.09,-186.83 78.52,-187.55 87.23,-193.58 89.09,-186.83"/>
</g>
<!-- Node8 -->
<g id="node8" class="node">
<title>Node8</title>
<g id="a_node8"><a xlink:href="libccc__naming_8h.html" target="_top" xlink:title=" ">
<polygon fill="white" stroke="black" points="152,-168.5 152,-187.5 247,-187.5 247,-168.5 152,-168.5"/>
<text text-anchor="middle" x="199.5" y="-175.5" font-family="Consolas" font-size="10.00">libccc_naming.h</text>
</a>
</g>
</g>
<!-- Node3&#45;&gt;Node8 -->
<g id="edge10" class="edge">
<title>Node3&#45;&gt;Node8</title>
<path fill="none" stroke="midnightblue" d="M236.23,-224.08C229.96,-216.38 220.71,-205.03 213.07,-195.65"/>
<polygon fill="midnightblue" stroke="midnightblue" points="215.66,-193.29 206.63,-187.75 210.23,-197.71 215.66,-193.29"/>
</g>
<!-- Node9 -->
<g id="node9" class="node">
<title>Node9</title>
<g id="a_node9"><a xlink:href="math_8h.html" target="_top" xlink:title=" ">
<polygon fill="white" stroke="black" points="569.5,-168.5 569.5,-187.5 617.5,-187.5 617.5,-168.5 569.5,-168.5"/>
<text text-anchor="middle" x="593.5" y="-175.5" font-family="Consolas" font-size="10.00">math.h</text>
</a>
</g>
</g>
<!-- Node3&#45;&gt;Node9 -->
<g id="edge12" class="edge">
<title>Node3&#45;&gt;Node9</title>
<path fill="none" stroke="midnightblue" d="M273.26,-225.86C276.37,-225.2 279.49,-224.56 282.5,-224 382.45,-205.27 501.73,-189.96 559.2,-183.02"/>
<polygon fill="midnightblue" stroke="midnightblue" points="559.68,-186.48 569.19,-181.82 558.85,-179.53 559.68,-186.48"/>
</g>
<!-- Node5 -->
<g id="node5" class="node">
<title>Node5</title>
<g id="a_node5"><a xlink:title=" ">
<polygon fill="white" stroke="#bfbfbf" points="127,-0.5 127,-19.5 196,-19.5 196,-0.5 127,-0.5"/>
<text text-anchor="middle" x="161.5" y="-7.5" font-family="Consolas" font-size="10.00">stdalign.h</text>
</a>
</g>
</g>
<!-- Node4&#45;&gt;Node5 -->
<g id="edge4" class="edge">
<title>Node4&#45;&gt;Node5</title>
<path fill="none" stroke="midnightblue" d="M161.5,-56.08C161.5,-49.01 161.5,-38.86 161.5,-29.99"/>
<polygon fill="midnightblue" stroke="midnightblue" points="165,-29.75 161.5,-19.75 158,-29.75 165,-29.75"/>
</g>
<!-- Node6&#45;&gt;Node4 -->
<g id="edge6" class="edge">
<title>Node6&#45;&gt;Node4</title>
<path fill="none" stroke="midnightblue" d="M129.77,-112.08C135.14,-104.46 143.02,-93.26 149.58,-83.94"/>
<polygon fill="midnightblue" stroke="midnightblue" points="152.45,-85.94 155.34,-75.75 146.72,-81.91 152.45,-85.94"/>
</g>
<!-- Node7&#45;&gt;Node4 -->
<g id="edge8" class="edge">
<title>Node7&#45;&gt;Node4</title>
<path fill="none" stroke="midnightblue" d="M47.83,-168.37C48.79,-154.84 52.46,-128.46 66.5,-112 79.69,-96.54 99.39,-86.01 117.43,-79.05"/>
<polygon fill="midnightblue" stroke="midnightblue" points="119,-82.21 127.23,-75.55 116.64,-75.62 119,-82.21"/>
</g>
<!-- Node7&#45;&gt;Node6 -->
<g id="edge9" class="edge">
<title>Node7&#45;&gt;Node6</title>
<path fill="none" stroke="midnightblue" d="M59.71,-168.32C71.28,-160.11 88.88,-147.6 102.66,-137.81"/>
<polygon fill="midnightblue" stroke="midnightblue" points="104.94,-140.48 111.07,-131.83 100.89,-134.77 104.94,-140.48"/>
</g>
<!-- Node8&#45;&gt;Node4 -->
<g id="edge11" class="edge">
<title>Node8&#45;&gt;Node4</title>
<path fill="none" stroke="midnightblue" d="M197.01,-168.09C193.43,-155.5 186.5,-131.82 179.5,-112 176.31,-102.96 172.39,-93.06 169.03,-84.85"/>
<polygon fill="midnightblue" stroke="midnightblue" points="172.23,-83.44 165.16,-75.55 165.77,-86.12 172.23,-83.44"/>
</g>
<!-- Node10 -->
<g id="node10" class="node">
<title>Node10</title>
<g id="a_node10"><a xlink:href="constants_8h.html" target="_top" xlink:title=" ">
<polygon fill="white" stroke="black" points="380,-112.5 380,-131.5 517,-131.5 517,-112.5 380,-112.5"/>
<text text-anchor="middle" x="448.5" y="-119.5" font-family="Consolas" font-size="10.00">libccc/math/constants.h</text>
</a>
</g>
</g>
<!-- Node9&#45;&gt;Node10 -->
<g id="edge13" class="edge">
<title>Node9&#45;&gt;Node10</title>
<path fill="none" stroke="midnightblue" d="M570.52,-168.44C546.34,-159.44 508.08,-145.19 480.85,-135.05"/>
<polygon fill="midnightblue" stroke="midnightblue" points="481.96,-131.73 471.37,-131.52 479.52,-138.29 481.96,-131.73"/>
</g>
<!-- Node12 -->
<g id="node12" class="node">
<title>Node12</title>
<g id="a_node12"><a xlink:href="math_2int_8h.html" target="_top" xlink:title=" ">
<polygon fill="white" stroke="black" points="669.5,-112.5 669.5,-131.5 775.5,-131.5 775.5,-112.5 669.5,-112.5"/>
<text text-anchor="middle" x="722.5" y="-119.5" font-family="Consolas" font-size="10.00">libccc/math/int.h</text>
</a>
</g>
</g>
<!-- Node9&#45;&gt;Node12 -->
<g id="edge16" class="edge">
<title>Node9&#45;&gt;Node12</title>
<path fill="none" stroke="midnightblue" d="M613.94,-168.44C635.17,-159.56 668.6,-145.56 692.75,-135.45"/>
<polygon fill="midnightblue" stroke="midnightblue" points="694.28,-138.61 702.16,-131.52 691.58,-132.15 694.28,-138.61"/>
</g>
<!-- Node15 -->
<g id="node15" class="node">
<title>Node15</title>
<g id="a_node15"><a xlink:href="math_2fixed_8h.html" target="_top" xlink:title=" ">
<polygon fill="white" stroke="black" points="793.5,-112.5 793.5,-131.5 909.5,-131.5 909.5,-112.5 793.5,-112.5"/>
<text text-anchor="middle" x="851.5" y="-119.5" font-family="Consolas" font-size="10.00">libccc/math/fixed.h</text>
</a>
</g>
</g>
<!-- Node9&#45;&gt;Node15 -->
<g id="edge20" class="edge">
<title>Node9&#45;&gt;Node15</title>
<path fill="none" stroke="midnightblue" d="M617.77,-171.92C659.46,-163.19 745.49,-145.19 800.75,-133.62"/>
<polygon fill="midnightblue" stroke="midnightblue" points="801.62,-137.02 810.69,-131.54 800.18,-130.16 801.62,-137.02"/>
</g>
<!-- Node17 -->
<g id="node17" class="node">
<title>Node17</title>
<g id="a_node17"><a xlink:href="math_2float_8h.html" target="_top" xlink:title=" ">
<polygon fill="white" stroke="black" points="535.5,-112.5 535.5,-131.5 651.5,-131.5 651.5,-112.5 535.5,-112.5"/>
<text text-anchor="middle" x="593.5" y="-119.5" font-family="Consolas" font-size="10.00">libccc/math/float.h</text>
</a>
</g>
</g>
<!-- Node9&#45;&gt;Node17 -->
<g id="edge23" class="edge">
<title>Node9&#45;&gt;Node17</title>
<path fill="none" stroke="midnightblue" d="M593.5,-168.08C593.5,-161.01 593.5,-150.86 593.5,-141.99"/>
<polygon fill="midnightblue" stroke="midnightblue" points="597,-141.75 593.5,-131.75 590,-141.75 597,-141.75"/>
</g>
<!-- Node10&#45;&gt;Node11 -->
<g id="edge14" class="edge">
<title>Node10&#45;&gt;Node11</title>
<path fill="none" stroke="midnightblue" d="M440.41,-112.08C433.34,-104.3 422.91,-92.8 414.35,-83.37"/>
<polygon fill="midnightblue" stroke="midnightblue" points="416.75,-80.8 407.44,-75.75 411.57,-85.51 416.75,-80.8"/>
</g>
<!-- Node11&#45;&gt;Node3 -->
<g id="edge15" class="edge">
<title>Node11&#45;&gt;Node3</title>
<path fill="none" stroke="midnightblue" d="M385.33,-75.63C372.17,-84.02 352.41,-97.57 337.5,-112 303.25,-145.15 270.88,-191.19 254.55,-215.82"/>
<polygon fill="midnightblue" stroke="midnightblue" points="251.47,-214.13 248.93,-224.42 257.33,-217.96 251.47,-214.13"/>
</g>
<!-- Node12&#45;&gt;Node13 -->
<g id="edge17" class="edge">
<title>Node12&#45;&gt;Node13</title>
<path fill="none" stroke="midnightblue" d="M754.35,-112.44C788.9,-103.16 844.18,-88.31 882.08,-78.13"/>
<polygon fill="midnightblue" stroke="midnightblue" points="883.05,-81.49 891.8,-75.52 881.23,-74.73 883.05,-81.49"/>
</g>
<!-- Node13&#45;&gt;Node3 -->
<g id="edge19" class="edge">
<title>Node13&#45;&gt;Node3</title>
<path fill="none" stroke="midnightblue" d="M925.83,-75.85C928.89,-89.68 932.37,-116.47 918.5,-132 825.41,-236.22 440.4,-202.04 283.25,-224.2"/>
<polygon fill="midnightblue" stroke="midnightblue" points="282.59,-220.76 273.24,-225.74 283.65,-227.68 282.59,-220.76"/>
</g>
<!-- Node14 -->
<g id="node14" class="node">
<title>Node14</title>
<g id="a_node14"><a xlink:title=" ">
<polygon fill="white" stroke="#bfbfbf" points="894,-0.5 894,-19.5 953,-19.5 953,-0.5 894,-0.5"/>
<text text-anchor="middle" x="923.5" y="-7.5" font-family="Consolas" font-size="10.00">stdint.h</text>
</a>
</g>
</g>
<!-- Node13&#45;&gt;Node14 -->
<g id="edge18" class="edge">
<title>Node13&#45;&gt;Node14</title>
<path fill="none" stroke="midnightblue" d="M923.5,-56.08C923.5,-49.01 923.5,-38.86 923.5,-29.99"/>
<polygon fill="midnightblue" stroke="midnightblue" points="927,-29.75 923.5,-19.75 920,-29.75 927,-29.75"/>
</g>
<!-- Node15&#45;&gt;Node16 -->
<g id="edge21" class="edge">
<title>Node15&#45;&gt;Node16</title>
<path fill="none" stroke="midnightblue" d="M879.23,-112.44C908.93,-103.28 956.22,-88.69 989.17,-78.52"/>
<polygon fill="midnightblue" stroke="midnightblue" points="990.38,-81.81 998.9,-75.52 988.31,-75.12 990.38,-81.81"/>
</g>
<!-- Node16&#45;&gt;Node3 -->
<g id="edge22" class="edge">
<title>Node16&#45;&gt;Node3</title>
<path fill="none" stroke="midnightblue" d="M1017.75,-75.65C993.3,-99.16 921.08,-164.09 846.5,-188 610.46,-263.65 533.07,-189.64 283.32,-224.17"/>
<polygon fill="midnightblue" stroke="midnightblue" points="282.62,-220.74 273.22,-225.62 283.61,-227.67 282.62,-220.74"/>
</g>
<!-- Node17&#45;&gt;Node11 -->
<g id="edge24" class="edge">
<title>Node17&#45;&gt;Node11</title>
<path fill="none" stroke="midnightblue" d="M562.76,-112.44C529.56,-103.2 476.51,-88.44 439.94,-78.26"/>
<polygon fill="midnightblue" stroke="midnightblue" points="440.67,-74.83 430.1,-75.52 438.79,-81.57 440.67,-74.83"/>
</g>
</g>
</svg>
